<?xml version="1.0" encoding="UTF-8"?>
<svg width="32" height="32" version="1.1" xmlns="http://www.w3.org/2000/svg">
 <g id="22-22-akonadi" transform="translate(39.495 7.7038)">
  <path d="m0 2.5e-7h22v22h-22z" opacity=".001"/>
  <path d="m8.002 3c-2.2069 1.2739-3.5715 3.4318-3.9121 5.7637 0.24138-0.11452 0.49066-0.21684 0.74609-0.29883 1.102-0.3537 2.3312-0.45973 3.6172-0.46484 1.7806-0.0070863 3.6821 0.225 5.4668 0.56641-1.3891-2.9982-3.3958-5.5781-5.918-5.5664zm4.2402 1.1172c1.0427 1.1189 1.8919 2.5314 2.5859 4.0293l0.31836 0.6875c0.96302 0.21955 1.8868 0.45627 2.6914 0.70898-0.5927-2.7758-2.8029-4.9189-5.5957-5.4258zm-3.7852 4.8828c-2.4581 0.0097826-4.5647 0.43797-5.457 2 0 4.418 3.5817 8 8 8 4.418 0 8-3.582 8-8-2.3409-0.91539-6.8403-2.0147-10.543-2z" fill="#dfdfdf"/>
 </g>
 <g id="akonadi">
  <rect width="32" height="32" opacity=".001"/>
  <path d="M 29.1,15.8 A 12.75,12.75 0 0 1 16.35,28.55 12.75,12.75 0 0 1 3.6,15.8 12.75,12.75 0 0 1 16.35,3.05 12.75,12.75 0 0 1 29.1,15.8 Z" fill="#cddff0"/>
  <path d="m16.35 3.05a12.75 12.75 0 0 0-12.75 12.75 12.75 12.75 0 0 0 0.0161 0.435 12.75 12.75 0 0 1 12.734-12.435 12.75 12.75 0 0 1 12.734 12.315 12.75 12.75 0 0 0 0.016-0.315 12.75 12.75 0 0 0-12.75-12.75z" fill="#fff" opacity=".2"/>
  <path d="m24.227 27.588c-6.815 3.936-15.53 1.6-19.466-5.215-3.9345-6.816-1.5993-15.531 5.2164-19.466 8.0306-0.0371 13.13 17.316 14.25 24.681z" fill="#62b4e7"/>
  <path d="m30.6 15.75c0 7.87-6.38 14.25-14.25 14.25-7.8701 0-14.25-6.38-14.25-14.25 3.9835-6.9734 21.562-2.713 28.5 0z" fill="#357dc5"/>
  <path d="m2.1469 16.678c-0.0148 0.025-0.0325 0.047-0.0469 0.072 0 7.87 6.3799 14.25 14.25 14.25s14.25-6.3799 14.25-14.25c-0.01527-6e-3 -0.0354-0.01159-0.05078-0.01758-0.507 7.41-6.661 13.268-14.199 13.268-7.5569 0-13.723-5.887-14.203-13.322z" opacity=".2"/>
 </g>
</svg>
