<?xml version="1.0" encoding="UTF-8"?>
<svg width="32" height="32" version="1.1" xmlns="http://www.w3.org/2000/svg">
 <g id="22-22-akregator" transform="translate(31.881 7.8559)">
  <rect width="22" height="22" opacity=".001"/>
  <path d="m5 3c-1.108 0-2 0.892-2 2v12c0 1.108 0.892 2 2 2h12c1.108 0 2-0.892 2-2 0-14-10-14-14-14zm0 2c6.2222 0 9.461 2.205 10.885 4.9102 1.4238 2.7052 1.1152 5.701 1.1152 7.0898h-2c0-1.6111 0.19146-4.1153-0.88477-6.1602-1.0762-2.0448-3.3375-3.8398-9.1152-3.8398zm0 4c3.9108 0 6.1297 1.1322 7.1582 2.8633s0.8418 3.6883 0.8418 5.1367h-2c0-1.5516 0.04484-3.0944-0.56055-4.1133-0.60538-1.0189-1.8859-1.8867-5.4395-1.8867zm2.002 4c1.1043 0 1.9974 0.89632 1.998 2 0 1.105-0.89371 2-1.998 2-1.107 0-2.002-0.89501-2.002-2 0-1.1037 0.89498-2 2.002-2z" fill="#dfdfdf"/>
 </g>
 <g id="akregator">
  <rect width="32" height="32" opacity=".001"/>
  <g transform="translate(-2e-4)">
   <path d="m29 25.1c0-13-9.1-22.1-22.1-22.1-1.95 0-3.9 1.95-3.9 3.9v18.2c0 1.95 1.95 3.9 3.9 3.9h18.2c1.95 0 3.9-1.95 3.9-3.9z" fill="#f59335"/>
   <path d="m6 10.5c0 1.056 0.4491 1.5 1.5 1.5 7.456 0 13.5 6.044 13.5 13.5 0 0.933 0.509 1.5 1.5 1.5 1.02 0 1.5-0.596 1.5-1.5 0-9.113-7.387-16.5-16.5-16.5-0.9974 0-1.5 0.4855-1.5 1.5zm0 6c0 1.0274 0.42023 1.5 1.5 1.5 4.1422 0 7.5 3.3579 7.5 7.5 0 0.88301 0.50689 1.5 1.5 1.5 0.969 0 1.5-0.538 1.5-1.5 0-5.799-4.701-10.5-10.5-10.5-0.9686 0-1.5 0.428-1.5 1.5zm3 4.5c-1.6569 0-3 1.343-3 3s1.3431 3 3 3c1.657 0 3-1.343 3-3s-1.343-3-3-3z" opacity=".2"/>
   <path d="m6 9.5c0 1.056 0.4491 1.5 1.5 1.5 7.456 0 13.5 6.044 13.5 13.5 0 0.933 0.509 1.5 1.5 1.5 1.02 0 1.5-0.596 1.5-1.5 0-9.113-7.387-16.5-16.5-16.5-0.9974 0-1.5 0.4855-1.5 1.5zm0 6c0 1.0274 0.42023 1.5 1.5 1.5 4.1422 0 7.5 3.3579 7.5 7.5 0 0.88301 0.50689 1.5 1.5 1.5 0.969 0 1.5-0.538 1.5-1.5 0-5.799-4.701-10.5-10.5-10.5-0.9686 0-1.5 0.428-1.5 1.5zm3 4.5c-1.6569 0-3 1.343-3 3s1.3431 3 3 3c1.657 0 3-1.343 3-3s-1.343-3-3-3z" fill="#fff"/>
   <path d="m6.9004 3c-1.95 0-3.9004 1.9504-3.9004 3.9004v1c0-1.95 1.9504-3.9004 3.9004-3.9004 12.717 0 21.695 8.71 22.08 21.258 3e-3 -0.053 0.02-0.105 0.02-0.158 0-13-9.1-22.1-22.1-22.1z" fill="#fff" opacity=".1"/>
   <path d="m3 25.1v1c0 1.95 1.9504 3.9 3.9004 3.9h18.2c1.95 0 3.9-1.95 3.9-3.9 0-0.284-0.011-0.563-0.02-0.842-0.101 1.895-1.983 3.742-3.88 3.742h-18.2c-1.9496 0-3.9-1.95-3.9-3.9z" opacity=".2"/>
  </g>
 </g>
</svg>
