<?xml version="1.0" encoding="UTF-8"?>
<svg width="32" height="32" version="1.1" xmlns="http://www.w3.org/2000/svg">
 <g id="amarok">
  <rect width="32" height="32" opacity=".001"/>
  <g transform="translate(4.3766e-5 1.6447e-5)">
   <path d="m17.762 10.023s-1.8295-0.28227-2.8851 0.77619c-1.0557 1.0584-1.9707 3.3868-1.9001 4.0924 0.07028 0.70562 2.1815-2.399 3.0963-2.6106 0.91495-0.21175 1.9001-1.7642 1.6889-2.258z"/>
   <path d="m26.974-4.6401e-7c-0.762 0-2.24 1.8059-2.794 2.091-0.555 0.2851-4.942 3.5164-5.357 4.0867-0.416 0.5702-0.97 0.8078-1.57 0.7603-0.601-0.0474-2.498-0.067-3.145 0.3131-0.646 0.3803-3.597 3.4889-4.3363 3.8689-0.73882 0.38006-1.7028 0.57479-2.1646 0.62235-0.46171 0.04746-1.9915 1.801-2.4071 2.1337-0.4156 0.33271-3.6997 1.7951-4.1615 2.08-0.46182 0.28515 3.369 4.2784 3.9231 4.3734 0.55415 0.09518-1.436 1.3554-1.4479 2.2588-0.0118 0.90122 0.95278 3.5853 6.5482 6.7439 4.8373 2.7306 9.9474 1.4156 11.876 0.85946 0.76516-0.22067 0.48381-2.7557 0.62541-4.1029 0.09244-0.85534 0.41555-8.0309 1.6163-9.9317 1.2006-1.9006 4.6322-4.1825 5.8329-4.42 1.2007-0.23759 0.96975-0.71281 0.96975-1.1404 0-0.42762-0.18467-1.3781-0.50799-1.5206-0.32322-0.14252-1.5845 0.71356-2.0001 0.80857-0.4156 0.09502-2.4013 0.23764-2.6785-0.23753-0.277-0.4749 2.24-5.322 2.563-5.8922 0.323-0.5703 0.462-1.3307-0.139-2.1384-0.6-0.80797-1.015-1.6158-1.246-1.6158z" fill="#2d79c7"/>
   <path d="m16.976 11.027s-1.5189-0.2255-2.3953 0.6201c-0.87644 0.84556-1.6361 2.7057-1.5775 3.2694 0.05835 0.56372 1.8112-1.9166 2.5706-2.0856 0.75962-0.16917 1.5775-1.4094 1.4022-1.8039z" opacity=".2"/>
   <path d="m16.976 10.027s-1.5189-0.2255-2.3953 0.6201c-0.87644 0.84556-1.6361 2.7057-1.5775 3.2694 0.05835 0.56372 1.8112-1.9166 2.5706-2.0856 0.75962-0.16917 1.5775-1.4094 1.4022-1.8039z" fill="#fff"/>
   <path d="m26.975 0c-0.762 0-2.241 1.8067-2.795 2.0918s-4.942 3.5156-5.358 4.0859c-0.415 0.5702-0.97 0.8073-1.57 0.7598s-2.498-0.0657-3.145 0.3145c-0.646 0.3802-3.597 3.487-4.3355 3.867-0.7388 0.38-1.7023 0.576-2.1641 0.623-0.4617 0.048-1.9926 1.8-2.4082 2.133s-3.6984 1.795-4.1601 2.08c-0.11811 0.073 0.0486 0.392 0.3652 0.822 0.8308-0.431 3.4155-1.598 3.7949-1.902 0.4156-0.333 1.9465-2.085 2.4082-2.133 0.4618-0.047 1.4253-0.243 2.1641-0.623 0.7385-0.38 3.6895-3.4868 4.3355-3.867 0.647-0.3802 2.545-0.362 3.145-0.3145s1.155-0.1896 1.57-0.7598c0.416-0.5703 4.804-3.8008 5.358-4.0859s2.033-2.0918 2.795-2.0918c0.23 0 0.646 0.8072 1.246 1.6152 0.173 0.2336 0.272 0.4615 0.336 0.6836 0.149-0.4936 0.116-1.0753-0.336-1.6836-0.6-0.80795-1.016-1.6152-1.246-1.6152zm3.337 9.0664c-0.463 0.0697-1.474 0.7352-1.837 0.8184-0.365 0.0832-1.935 0.2022-2.504-0.0899-0.149 0.4201-0.236 0.7491-0.176 0.8511 0.277 0.476 2.264 0.334 2.68 0.239 0.415-0.095 1.676-0.9513 2-0.809 0.246 0.109 0.411 0.683 0.476 1.141 0.08-0.197 0.031-0.415 0.031-0.621 0-0.428-0.184-1.3773-0.507-1.5198-0.041-0.0178-0.096-0.0197-0.163-0.0098zm-25.773 11.995c-0.449 0.457-1.019 1.036-1.0254 1.527-2e-3 0.15 0.0399 0.368 0.1093 0.611 0.4057-0.839 1.8159-1.787 1.3379-1.869-0.0786-0.013-0.233-0.121-0.4218-0.269z" fill="#fff" opacity=".2"/>
   <path d="m28.557 3.2989c-0.04895 0.16186-0.11743 0.31425-0.19727 0.45508-0.32327 0.57024-2.8415 5.4173-2.5645 5.8926 0.03423 0.058695 0.09559 0.10734 0.17578 0.14844 0.54456-1.5348 2.1349-4.5933 2.3887-5.041 0.22984-0.40542 0.35328-0.90882 0.19727-1.4551zm2.3945 7.918c-0.08517 0.21046-0.31865 0.39669-0.93945 0.51953-1.2007 0.23759-4.6314 2.5193-5.832 4.4199-1.2007 1.9008-1.5247 9.0763-1.6172 9.9316-0.1416 1.3473 0.14016 3.8828-0.625 4.1035-1.9284 0.55614-7.0377 1.8712-11.875-0.85938-4.6614-2.6313-6.0929-4.9165-6.4395-6.1328-0.064643 0.13371-0.10775 0.26449-0.10938 0.38867-0.0118 0.90122 0.95339 3.5856 6.5488 6.7441 4.8373 2.7306 9.9466 1.4155 11.875 0.85938 0.76516-0.22067 0.4834-2.7562 0.625-4.1035 0.09244-0.85534 0.41645-8.0309 1.6172-9.9316 1.2006-1.9006 4.6313-4.1823 5.832-4.4199 1.2007-0.23759 0.9707-0.71301 0.9707-1.1406 0-0.10215-0.0108-0.23522-0.03125-0.37891zm-29.548 5.56c-0.079211 0.04113-0.32504 0.15293-0.36523 0.17773-0.39631 0.2447 2.3574 3.2062 3.5 4.1055 0.37803-0.38506 0.6752-0.68696 0.42188-0.73047-0.41247-0.07068-2.6349-2.2992-3.5566-3.5527z" opacity=".2"/>
  </g>
 </g>
 <g id="22-22-amarok" transform="translate(32)">
  <rect y="10" width="22" height="22" opacity=".001"/>
  <path d="m16.087 13c-0.381 0-1.1195 0.931-1.3965 1.0781-0.278 0.1472-2.5705 2.2154-2.778 2.5098-0.208 0.2943-0.48516 0.41708-0.78516 0.39258-0.3005-0.0245-1.2488-0.03409-1.5723 0.16211-0.323 0.1963-1.7983 1.8-2.168 1.9961-0.3694 0.1962-0.85308 0.29777-1.084 0.32227s-0.99532 0.92986-1.2031 1.1016-1.8492 0.92527-2.0801 1.0723c-0.23094 0.1472 1.4838 1.8084 1.7608 1.8574 0.27707 0.04913-0.71866 0.69978-0.72461 1.166-0.0059 0.46514 0.67784 1.8503 3.4756 3.4805 2.4186 1.4093 5.2729 0.7304 6.2372 0.44336 0.38258-0.11389 0.2417-1.4219 0.3125-2.1172 0.04622-0.44146 0.20821-4.2436 0.80859-5.2246 0.6003-0.98095 2.016-2.1586 2.6163-2.2812 0.60035-0.12263 0.48438-0.36915 0.48438-0.58984 0-0.22071-0.09226-0.71161-0.25391-0.78516-0.16161-0.07356-0.79225 0.36894-1 0.41797-0.2078 0.04904-1.1993 0.1222-1.3379-0.12305-0.1385-0.24511 1.22-2.6471 1.3815-2.9414 0.1615-0.29435 0.23019-0.68663-0.07031-1.1035-0.299-0.41742-0.5061-0.83398-0.6211-0.83398zm-5.5338 5.0098c0.24463-0.02466 0.43555 0.0039 0.43555 0.0039 0.0876 0.1973-0.32137 0.81774-0.70117 0.90234-0.3797 0.0845-1.256 1.3249-1.2852 1.043-0.0293-0.2818 0.35076-1.2119 0.78906-1.6348 0.21908-0.2114 0.51709-0.28979 0.76172-0.31445z" fill="#dfdfdf"/>
 </g>
</svg>
