<?xml version="1.0" encoding="UTF-8"?>
<svg width="32" height="32" version="1" xmlns="http://www.w3.org/2000/svg">
 <g id="antimicro">
  <rect width="32" height="32" opacity=".001"/>
  <path d="m24.642 26.761c-0.42856-0.18883-1.3438-0.99695-2.0338-1.7958-0.69003-0.79889-1.4262-1.4883-1.6359-1.6539-0.26784-0.2115-2.1319-0.33096-5.3947-0.33648h-6.8156l0.42495-0.71075c0.76305-1.2762 3.9621-1.6168 9.6754-1.6286 5.6758-0.01165 6.1192-0.15373 7.697-1.3239 1.3911-1.0317 1.9938-2.4284 2.156-5.3046 0.07814-1.3855 0.41991-2.6587 0.52022-1.7755 0.07446 0.65563 0.25914 2.9369 0.44383 5.4368 0.43252 5.8547 0.43165 6.0497-0.03151 7.0678-0.63501 1.3799-1.9567 2.1405-3.3492 2.2518-0.60868 0.04325-1.2038-0.02728-1.6566-0.22681z" opacity=".2"/>
  <path d="m24.642 25.761c-0.42856-0.18883-1.3438-0.99695-2.0338-1.7958-0.69003-0.79889-1.4262-1.4883-1.6359-1.6539-0.26784-0.2115-2.1319-0.33096-5.3947-0.33648h-6.8156l0.42495-0.71075c0.76305-1.2762 3.9621-1.6168 9.6754-1.6286 5.6758-0.01165 6.1192-0.15373 7.697-1.3239 1.3911-1.0317 1.9938-2.4284 2.156-5.3046 0.07814-1.3855 0.41991-2.6587 0.52022-1.7755 0.07446 0.65563 0.25914 2.9369 0.44383 5.4368 0.43252 5.8547 0.43165 6.0497-0.03151 7.0678-0.63501 1.3799-1.9567 2.1405-3.3492 2.2518-0.60868 0.04325-1.2038-0.02728-1.6566-0.22681z" fill="#fe6b1b"/>
  <path d="m15.959 5c-8.3719-2e-7 -9.3467 0.13053-11.028 1.4762-1.7995 1.4403-1.9959 2.1941-2.5591 9.8259-0.27768 3.7623-0.43423 7.2056-0.34771 7.6519 0.19556 1.0087 1.2665 2.2693 2.2964 2.7034 1.9968 0.84164 3.7659 0.14456 5.6338-2.22l1.2773-1.6173c0.30401-0.40943 0.64398-0.7506 1.0192-1.0998 0.73341-0.67034 2.1245-0.69829 6.6974-0.70763 5.7045-0.01165 6.5136-0.1423 8.0994-1.3128 1.3982-1.032 2.0219-2.7934 2.1849-5.6703 0.16175-1.6314 0.12115-2.5103-0.08604-3.66-0.38008-2.0879-0.92137-2.8569-2.0342-3.7787-1.7684-1.4647-2.6522-1.5909-11.153-1.5909z" opacity=".2"/>
  <path d="m15.959 4c-8.3719-2e-7 -9.3467 0.13053-11.028 1.4762-1.7995 1.4403-1.9959 2.1941-2.5591 9.8259-0.27768 3.7623-0.43423 7.2056-0.34771 7.6519 0.19556 1.0087 1.2665 2.2693 2.2964 2.7034 1.9968 0.84164 3.7659 0.14456 5.6338-2.22l1.2773-1.6173c0.30401-0.40943 0.64398-0.7506 1.0192-1.0998 0.73341-0.67034 2.1245-0.69829 6.6974-0.70763 5.7045-0.01165 6.5136-0.1423 8.0994-1.3128 1.3982-1.032 2.0219-2.7934 2.1849-5.6703 0.16175-1.6314 0.12115-2.5103-0.08604-3.66-0.38008-2.0879-0.92137-2.8569-2.0342-3.7787-1.7684-1.4647-2.6522-1.5909-11.153-1.5909z" fill="#ffb300"/>
  <path d="m8.75 8c-0.4155 0-0.75 0.3345-0.75 0.75v2.25h-2.25c-0.4155 0-0.75 0.3345-0.75 0.75v1.5c0 0.4155 0.3345 0.75 0.75 0.75h2.25v2.25c0 0.4155 0.3345 0.75 0.75 0.75h1.5c0.4155 0 0.75-0.3345 0.75-0.75v-2.25h2.25c0.4155 0 0.75-0.3345 0.75-0.75v-1.5c0-0.4155-0.3345-0.75-0.75-0.75h-2.25v-2.25c0-0.4155-0.3345-0.75-0.75-0.75zm13.75 0a1.5 1.5 0 0 0-1.5 1.5 1.5 1.5 0 0 0 1.5 1.5 1.5 1.5 0 0 0 1.5-1.5 1.5 1.5 0 0 0-1.5-1.5zm-3 3a1.5 1.5 0 0 0-1.5 1.5 1.5 1.5 0 0 0 1.5 1.5 1.5 1.5 0 0 0 1.5-1.5 1.5 1.5 0 0 0-1.5-1.5zm6 0a1.5 1.5 0 0 0-1.5 1.5 1.5 1.5 0 0 0 1.5 1.5 1.5 1.5 0 0 0 1.5-1.5 1.5 1.5 0 0 0-1.5-1.5zm-3 3a1.5 1.5 0 0 0-1.5 1.5 1.5 1.5 0 0 0 1.5 1.5 1.5 1.5 0 0 0 1.5-1.5 1.5 1.5 0 0 0-1.5-1.5z" opacity=".2"/>
  <rect x="8" y="7" width="3" height="9" rx=".75" ry=".75" fill="#fff"/>
  <circle cx="22.5" cy="8.5" r="1.5" fill="#fff"/>
  <rect transform="rotate(90)" x="10" y="-14" width="3" height="9" rx=".75" ry=".75" fill="#fff"/>
  <circle cx="22.5" cy="14.5" r="1.5" fill="#fff"/>
  <circle transform="rotate(90)" cx="11.5" cy="-25.5" r="1.5" fill="#fff"/>
  <circle transform="rotate(90)" cx="11.5" cy="-19.5" r="1.5" fill="#fff"/>
  <path d="m15.959 4c-8.3719-2e-7 -9.3462 0.13094-11.027 1.4766-1.7995 1.4403-1.9973 2.1943-2.5605 9.8262-0.25954 3.5165-0.41104 6.7197-0.35938 7.4922 0.032396-1.3959 0.16335-3.8362 0.35938-6.4922 0.56327-7.6319 0.76105-8.3858 2.5605-9.8262 1.6812-1.3456 2.6555-1.4766 11.027-1.4766 8.5012 0 9.384 0.12706 11.152 1.5918 1.1129 0.92179 1.6551 1.6895 2.0352 3.7773 0.0912 0.50601 0.14828 0.9628 0.17188 1.4512 0.03672-0.92796-0.0228-1.624-0.17188-2.4512-0.38008-2.0879-0.92228-2.8556-2.0352-3.7773-1.7684-1.4647-2.6511-1.5918-11.152-1.5918z" fill="#fff" opacity=".2"/>
 </g>
 <g id="22-22-antimicro" transform="translate(27,5)">
  <rect x="5" y="5" width="22" height="22" opacity=".001"/>
  <path d="m11.025 9.0004v2e-3c-2.4887 0-4.3598 2.0011-4.4906 4.4805l-0.49809 8.4606c-0.31503 1.85 1.4828 3.0171 2.9944 0.99414 0.94258-1.279 2.969-3.9375 2.969-3.9375l8.0007 0.04102 2.9885 4.0215c1.499 2.012 3.1869 0.35787 2.9963-1.0039l-0.49614-8.4743c7.84e-4 -0.03462 0.0098-0.06675 0.0098-0.10156-3e-5 -2.4824-2.0023-4.4824-4.4906-4.4824zm-1.0255 2h2.0002v2h2.0002v2h-2.0002v2h-2.0002v-2h-2.0002v-2h2.0002zm11.001 0c0.55233 0 1.0001 0.44772 1.0001 1 0 0.55228-0.44775 1-1.0001 1s-1.0001-0.44772-1.0001-1 0.44775-1 1.0001-1zm-2.0002 2c0.55233 0 1.0001 0.44772 1.0001 1s-0.44775 1-1.0001 1-1.0001-0.44772-1.0001-1c0-0.55228 0.44775-1 1.0001-1zm4.0003 0c0.55233 0 1.0001 0.44772 1.0001 1s-0.44775 1-1.0001 1-1.0001-0.44772-1.0001-1 0.44775-1 1.0001-1zm-2.0002 2c0.55233 1e-6 1.0001 0.44772 1.0001 1s-0.44775 1-1.0001 1-1.0001-0.44772-1.0001-1 0.44775-1 1.0001-1z" fill="#dfdfdf"/>
 </g>
</svg>
