<?xml version="1.0" encoding="UTF-8"?>
<svg width="32" height="32" version="1.1" xmlns="http://www.w3.org/2000/svg">
 <g id="applications-other">
  <rect width="32" height="32" opacity=".001"/>
  <rect x="2" y="3" width="28" height="28" rx="3" ry="3" opacity=".2"/>
  <rect x="2" y="2" width="28" height="28" rx="3" ry="3" fill="#325f78"/>
  <rect x="6" y="7" width="8" height="8" rx="2" ry="2" opacity=".2"/>
  <rect x="6" y="6" width="8" height="8" rx="2" ry="2" fill="#fff"/>
  <rect x="18" y="6" width="8" height="8" rx="2" ry="2" opacity=".35"/>
  <rect x="6" y="18" width="8" height="8" rx="2" ry="2" opacity=".35"/>
  <rect x="18" y="19" width="8" height="8" rx="2" ry="2" opacity=".2"/>
  <rect x="18" y="18" width="8" height="8" rx="2" ry="2" fill="#fff"/>
  <path d="m5 2c-1.662 0-3 1.338-3 3v1c0-1.662 1.338-3 3-3h22c1.662 0 3 1.338 3 3v-1c0-1.662-1.338-3-3-3z" fill="#fff" opacity=".1"/>
 </g>
 <g id="22-22-applications-other" transform="translate(27,5)">
  <rect x="5" y="5" width="22" height="22" opacity=".001"/>
  <path transform="translate(-27,-5)" d="m37.5 14c-0.831 0-1.5 0.669-1.5 1.5v3c0 0.831 0.669 1.5 1.5 1.5h3c0.831 0 1.5-0.669 1.5-1.5v-3c0-0.831-0.669-1.5-1.5-1.5h-3zm8 0c-0.831 0-1.5 0.669-1.5 1.5v3c0 0.831 0.669 1.5 1.5 1.5h3c0.831 0 1.5-0.669 1.5-1.5v-3c0-0.831-0.669-1.5-1.5-1.5h-3zm0.5 2h2v2h-2v-2zm-8.5 6c-0.831 0-1.5 0.669-1.5 1.5v3c0 0.831 0.669 1.5 1.5 1.5h3c0.831 0 1.5-0.669 1.5-1.5v-3c0-0.831-0.669-1.5-1.5-1.5h-3zm8 0c-0.831 0-1.5 0.669-1.5 1.5v3c0 0.831 0.669 1.5 1.5 1.5h3c0.831 0 1.5-0.669 1.5-1.5v-3c0-0.831-0.669-1.5-1.5-1.5h-3zm-7.5 2h2v2h-2v-2z" fill="#dfdfdf"/>
 </g>
</svg>
