<?xml version="1.0" encoding="UTF-8"?>
<svg width="32" height="32" version="1.1" xmlns="http://www.w3.org/2000/svg">
 <g id="22-22-apport" transform="translate(36.915 -1.0254)">
  <rect y="10" width="22" height="22" opacity=".001"/>
  <path d="m3.125 13c-1.125 0-1.125 1.1426-1.125 1.1426v11.732c0 1.1432 1.125 1.1426 1.125 1.1426h4.4258c-0.28969 0.072016-0.56925 0.28287-0.55078 0.84375v1.1387h8v-1.1387c0-0.56143-0.25386-0.7719-0.51172-0.84375h4.3867c1.125 0 1.125-1.1426 1.125-1.1426v-11.732s0-1.1426-1.125-1.1426zm0.875 2h14v9.9863l-14 0.02734zm5 2v2h1v-2zm3 0v2h1v-2zm-4 4v1h6v-1zm6 1v1h1v-1zm-6 0h-1v1h1z" fill="#f44336"/>
 </g>
 <g id="apport">
  <rect width="32" height="32" opacity=".001"/>
  <g transform="translate(0,-1)">
   <rect x="8" y="8" width="16" height="21" rx="1.25" ry="1.25" opacity=".2"/>
   <rect x="8" y="7" width="16" height="21" rx="1.25" ry="1.25" fill="#8e8e8e"/>
   <rect x="3" y="6" width="26" height="20" rx="1.25" ry="1.25" opacity=".2"/>
   <path d="m3 22v1.75c0 0.6925 0.5575 1.25 1.25 1.25h23.5c0.6925 0 1.25-0.5575 1.25-1.25v-1.75z" fill="#3f3f3f"/>
   <path d="M 4.25,5 C 3.5575,5 3,5.5575 3,6.25 V 22 H 29 V 6.25 C 29,5.5575 28.4425,5 27.75,5 Z" fill="#f34235"/>
   <rect x="3" y="22" width="26" height="1" opacity=".1"/>
   <path d="m4.25 5c-0.6925 0-1.25 0.5575-1.25 1.25v1c0-0.6925 0.5575-1.25 1.25-1.25h23.5c0.692 0 1.25 0.5575 1.25 1.25v-1c0-0.6925-0.558-1.25-1.25-1.25h-23.5z" fill="#fff" opacity=".2"/>
   <path d="m13 10v3h2v-3zm4 0v3h2v-3zm-5 5v2h8v-2zm0 2h-2v2h2zm8.168-0.05273v2.0527h1.832v-2.0527z" opacity=".2"/>
   <path d="m13 9v3h2v-3zm4 0v3h2v-3zm-5 5v2h8v-2zm0 2h-2v2h2zm8.168-0.05273v2.0527h1.832v-2.0527z" fill="#fff"/>
  </g>
 </g>
</svg>
