<?xml version="1.0" encoding="UTF-8"?>
<svg width="32" height="32" version="1.1" xmlns="http://www.w3.org/2000/svg">
 <g id="22-22-audio-volume-low" transform="translate(-300 451)">
  <path d="m325-419h22v22h-22v-22z" opacity=".001"/>
  <path d="m335-416-5 5h-3v6h3l5 5z" fill="#dfdfdf"/>
  <path d="m337-416v2c2.8684 0.84571 5 3.0629 5 6s-2.1316 5.1543-5 6v2c3.8946-0.89143 7-4.1143 7-8s-3.1054-7.1086-7-8z" fill="#dfdfdf" opacity=".35"/>
  <path d="m337-412v8s3.0002-1 3-4-3-4-3-4z" fill="#dfdfdf" opacity=".35"/>
 </g>
 <g id="22-22-audio-volume-medium" transform="translate(-275 451)">
  <path d="m325-419h22v22h-22v-22z" opacity=".001"/>
  <path d="m335-416-5 5h-3v6h3l5 5z" fill="#dfdfdf"/>
  <path d="m337-416v2c2.8684 0.84571 5 3.0629 5 6s-2.1316 5.1543-5 6v2c3.8946-0.89143 7-4.1143 7-8s-3.1054-7.1086-7-8z" fill="#dfdfdf" opacity=".35"/>
  <path d="m337-412v8s3.0002-1 3-4-3-4-3-4z" fill="#dfdfdf"/>
 </g>
 <g id="22-22-audio-volume-high" transform="translate(-250 451)">
  <path d="m325-419h22v22h-22v-22z" opacity=".001"/>
  <path d="m335-416-5 5h-3v6h3l5 5z" fill="#dfdfdf"/>
  <path d="m337-416v2c2.8684 0.84571 5 3.0629 5 6s-2.1316 5.1543-5 6v2c3.8946-0.89143 7-4.1143 7-8s-3.1054-7.1086-7-8z" fill="#dfdfdf"/>
  <path d="m337-412v8s3.0002-1 3-4-3-4-3-4z" fill="#dfdfdf"/>
 </g>
 <g id="audio-volume-low" transform="translate(32,32)">
  <rect y="-32" width="32" height="32" opacity=".001"/>
  <g transform="translate(1,-32)">
   <path d="m14.999 2-7.999 8.002h-6v12h6l7.999 7.998z" fill="#9c85f5"/>
   <path d="m18.999 2v3c4.64 1.48 8 5.86 8 11s-3.36 9.52-8 11v3c6.3-1.56 11-7.2 11-14s-4.7-12.44-11-14z" fill="#9c85f5" opacity=".2"/>
   <path d="m18.999 10v12c2.12-1.16 3.582-3.4 3.582-6s-1.442-4.84-3.582-6z" fill="#9c85f5" opacity=".2"/>
   <path d="m14.998 2-7.998 8.002h-6v1h6l7.998-8.002z" fill="#dfdfdf" opacity=".2"/>
   <path d="m1 22.002v1h6l7.998 7.998v-1l-7.998-7.998z" opacity=".2"/>
  </g>
 </g>
 <g id="audio-volume-muted" transform="translate(0,32)">
  <rect y="-32" width="32" height="32" opacity=".001"/>
  <g transform="translate(1,-32)">
   <path d="m14.999 2-7.999 8.002h-6v12h6l7.999 7.998z" fill="#9c85f5"/>
   <path d="m14.998 2-7.998 8.002h-6v1h6l7.998-8.002z" fill="#dfdfdf" opacity=".2"/>
   <path d="m1 22.002v1h6l7.998 7.998v-1l-7.998-7.998z" opacity=".2"/>
   <circle cx="18" cy="24" r="7" fill="#db3c30"/>
   <path d="M 24.977,24.459 A 7,7 0 0 1 18,31 7,7 0 0 1 11.023,24.541 7,7 0 0 0 11,25 a 7,7 0 0 0 7,7 7,7 0 0 0 7,-7 7,7 0 0 0 -0.02344,-0.54102 z" opacity=".2"/>
   <g transform="matrix(.70711 -.70711 .70711 .70711 -15.941 24)" fill="#fff">
    <rect x="20" y="23" width="8" height="2"/>
    <rect transform="rotate(90)" x="20" y="-25" width="8" height="2"/>
   </g>
  </g>
 </g>
 <g id="audio-volume-medium" transform="translate(64,32)">
  <rect y="-32" width="32" height="32" opacity=".001"/>
  <g transform="translate(1,-32)">
   <path d="m14.999 2-7.999 8.002h-6v12h6l7.999 7.998z" fill="#9c85f5"/>
   <path d="m18.999 2v3c4.64 1.48 8 5.86 8 11s-3.36 9.52-8 11v3c6.3-1.56 11-7.2 11-14s-4.7-12.44-11-14z" fill="#9c85f5" opacity=".2"/>
   <path d="m18.999 10v12c2.12-1.16 3.582-3.4 3.582-6s-1.442-4.84-3.582-6z" fill="#9c85f5"/>
   <path d="m14.998 2-7.998 8.002h-6v1h6l7.998-8.002z" fill="#dfdfdf" opacity=".2"/>
   <path d="m18.998 10v1c2 1.084 3.374 3.117 3.547 5.5 0.012-0.167 0.035-0.33 0.035-0.5 0-2.6-1.442-4.84-3.582-6z" fill="#dfdfdf" opacity=".2"/>
   <path d="m1 22.002v1h6l7.998 7.998v-1l-7.998-7.998z" opacity=".2"/>
   <path d="m22.545 16.5c-0.17529 2.3834-1.5653 4.4158-3.5469 5.5v1c2.12-1.16 3.582-3.4 3.582-6 0-0.16981-0.02306-0.33346-0.03516-0.5z" opacity=".2"/>
  </g>
 </g>
 <g id="audio-volume-high" transform="translate(96,32)">
  <rect y="-32" width="32" height="32" opacity=".001"/>
  <g transform="translate(1,-32)">
   <path d="m14.999 2-7.999 8.002h-6v12h6l7.999 7.998z" fill="#9c85f5"/>
   <path d="m18.999 2v3c4.64 1.48 8 5.86 8 11s-3.36 9.52-8 11v3c6.3-1.56 11-7.2 11-14s-4.7-12.44-11-14z" fill="#9c85f5"/>
   <path d="m18.999 10v12c2.12-1.16 3.582-3.4 3.582-6s-1.442-4.84-3.582-6z" fill="#9c85f5"/>
   <path d="m14.998 2-7.998 8.002h-6v1h6l7.998-8.002z" fill="#dfdfdf" opacity=".2"/>
   <path d="m18.998 2v1c6.144 1.5213 10.753 6.9266 10.979 13.5 5e-3 -0.167 0.021-0.331 0.021-0.5 0-6.8-4.7-12.44-11-14zm7.981 14.5c-0.211 4.922-3.493 9.068-7.981 10.5v1c4.64-1.48 8-5.86 8-11 0-0.168-0.012-0.334-0.019-0.5z" fill="#dfdfdf" opacity=".2"/>
   <path d="m18.998 10v1c2 1.084 3.374 3.117 3.547 5.5 0.012-0.167 0.035-0.33 0.035-0.5 0-2.6-1.442-4.84-3.582-6z" fill="#dfdfdf" opacity=".2"/>
   <path d="m1 22.002v1h6l7.998 7.998v-1l-7.998-7.998z" opacity=".2"/>
   <path d="m18.998 5v1c4.4882 1.4316 7.77 5.5785 7.9805 10.5 0.0071-0.16646 0.01953-0.33183 0.01953-0.5 0-5.14-3.36-9.52-8-11zm10.979 11.5c-0.226 6.573-4.835 11.979-10.979 13.5v1c6.3-1.56 11-7.2 11-14 0-0.16868-0.01575-0.33279-0.02148-0.5z" opacity=".2"/>
   <path d="m22.545 16.5c-0.17529 2.3834-1.5653 4.4158-3.5469 5.5v1c2.12-1.16 3.582-3.4 3.582-6 0-0.16981-0.02306-0.33346-0.03516-0.5z" opacity=".2"/>
  </g>
 </g>
 <g id="audio-radio-symbolic" transform="translate(0 -313.18)">
  <rect y="281.18" width="32" height="32" opacity=".001"/>
  <rect x="2" y="290.18" width="28" height="22" rx="3" ry="3" opacity=".2"/>
  <path d="m8.4766 281.26a1.5002 1.5002 0 0 0-1.4766 1.5215v7.5a1.5002 1.5002 0 1 0 3 0v-7.5a1.5002 1.5002 0 0 0-1.5234-1.5215z" fill="#8e8e8e"/>
  <rect x="6" y="288.18" width="5" height="2" rx="1" ry="1" fill="#494949"/>
  <rect x="2" y="289.18" width="28" height="22" rx="3" ry="3" fill="#00cdbf"/>
  <circle cx="11" cy="300.18" r="7" opacity=".5"/>
  <circle cx="11" cy="301.18" r="4" opacity=".2"/>
  <circle cx="11" cy="300.18" r="4" fill="#ffa800"/>
  <path d="m20 299.18a1.0001 1.0001 0 1 0 0 2h7a1.0001 1.0001 0 1 0 0-2z" opacity=".5"/>
  <path d="m20 295.18a1.0001 1.0001 0 1 0 0 2h7a1.0001 1.0001 0 1 0 0-2z" opacity=".5"/>
  <path d="m20 303.18a1.0001 1.0001 0 1 0 0 2h7a1.0001 1.0001 0 1 0 0-2z" opacity=".5"/>
  <path d="m5 289.18c-1.662 0-3 1.338-3 3v1c0-1.662 1.338-3 3-3h22c1.662 0 3 1.338 3 3v-1c0-1.662-1.338-3-3-3z" fill="#fff" opacity=".2"/>
  <path d="m11 296.18a4 4 0 0 0-4 4 4 4 0 0 0 0.035156 0.49414 4 4 0 0 1 3.9648-3.4941 4 4 0 0 1 3.9648 3.5059 4 4 0 0 0 0.035156-0.50586 4 4 0 0 0-4-4z" fill="#fff" opacity=".2"/>
 </g>
 <g id="22-22-audio-radio-symbolic" transform="translate(-5 -59)">
  <rect x="5" y="5" width="22" height="22" opacity=".001"/>
  <path d="m11.984 6.9922c-0.55229 0.0086-0.99302 0.46334-0.98438 1.0156v3h-1c-1.108 0-2 0.892-2 2v8.9922c0 1.108 0.892 2 2 2h12c1.108 0 2-0.892 2-2v-8.9922c0-1.108-0.89867-2.1214-2-2h-9v-3c0.0088-0.56453-0.45109-1.0245-1.0156-1.0156zm-1.9844 6.0156h12v8.9922h-12zm3.5 1.9922a2.5 2.5 0 0 0-2.5 2.5 2.5 2.5 0 0 0 2.5 2.5 2.5 2.5 0 0 0 2.5-2.5 2.5 2.5 0 0 0-2.5-2.5zm4 0a0.50005 0.50005 0 1 0 0 1h3a0.50005 0.50005 0 1 0 0-1zm0 2a0.50005 0.50005 0 1 0 0 1h3a0.50005 0.50005 0 1 0 0-1zm0 2a0.50005 0.50005 0 1 0 0 1h3a0.50005 0.50005 0 1 0 0-1z" fill="#dfdfdf"/>
 </g>
 <g id="22-22-audio-volume-muted" transform="translate(-5,27)">
  <path d="m5 5h22v22h-22v-22z" opacity=".001"/>
  <path d="m8.4062 7-1.4062 1.4062 3.793 3.8008-0.79297 0.79297h-3v6h3l5 5v-7.5859l2 2v1.5859s0.47255-0.16767 1.0391-0.54688l1.3613 1.3613c-0.70336 0.51211-1.5077 0.92233-2.4004 1.1855v2c1.4032-0.32119 2.6966-0.95141 3.7852-1.8008l2.8086 2.8008 1.4062-1.4062-2.7773-2.7852-10.016-10.016zm6.5938 1-1.3789 1.3789 1.3789 1.3789zm2 0v2c2.8684 0.84571 5 3.0629 5 6 0 0.53848-0.09381 1.0432-0.22852 1.5293l1.541 1.541c0.43655-0.94787 0.6875-1.9817 0.6875-3.0703 0-3.8857-3.1054-7.1086-7-8zm0 4v0.75781l2.9844 2.9844c-0.16895-2.7952-2.9844-3.7422-2.9844-3.7422z" fill="#dfdfdf" opacity=".35"/>
 </g>
</svg>
