<?xml version="1.0" encoding="UTF-8"?>
<svg width="32" height="32" version="1" xmlns="http://www.w3.org/2000/svg">
 <g id="22-22-battery-ups" transform="translate(255.46 -426.5)">
  <rect x="192.54" y="404.5" width="22" height="22" opacity=".001"/>
  <path d="m197.54 408.5v15h12v-15c0-1-1-1-1-1h-10s-1 0-1 1zm6 1v3h2l-2 5v-3h-2zm-4 10h1v2h-1zm2 0h1v2h-1zm2 0h1v2h-1zm3 0c0.55 0 1 0.45 1 1s-0.45 1-1 1-1-0.45-1-1 0.45-1 1-1z" fill="#4caf50"/>
 </g>
 <g id="22-22-Battery" transform="translate(-214.54 -404.5)">
  <rect transform="rotate(-90)" x="-404.5" y="214.54" width="22" height="22" opacity=".001"/>
  <path d="m219.54 401.51h12v-15h-4v-0.5s0-0.5-0.5-0.5h-3c-0.5-0.01-0.5 0.5-0.5 0.5v0.5h-4zm2-2v-11h8v11z" fill="#dfdfdf"/>
 </g>
 <g id="22-22-Fill100" transform="translate(-182.54 -404.5)">
  <rect transform="rotate(-90)" x="-404.5" y="214.54" width="22" height="22" opacity=".001"/>
  <path d="m230.54 400.5h-10v-13h10z" fill="#dfdfdf"/>
 </g>
 <g id="22-22-Fill90" transform="translate(-150.54 -404.5)">
  <rect transform="rotate(-90)" x="-404.5" y="214.54" width="22" height="22" opacity=".001"/>
  <path d="m230.54 400.5h-10v-11h10z" fill="#dfdfdf"/>
 </g>
 <g id="22-22-Fill80" transform="translate(-118.54 -404.5)">
  <rect transform="rotate(-90)" x="-404.5" y="214.54" width="22" height="22" opacity=".001"/>
  <path d="m230.54 400.5h-10v-10h10z" fill="#dfdfdf"/>
 </g>
 <g id="22-22-Fill70" transform="translate(-86.54 -404.5)">
  <rect transform="rotate(-90)" x="-404.5" y="214.54" width="22" height="22" opacity=".001"/>
  <path d="m230.54 400.5h-10v-9h10z" fill="#dfdfdf"/>
 </g>
 <g id="22-22-Fill60" transform="translate(-54.54 -404.5)">
  <rect transform="rotate(-90)" x="-404.5" y="214.54" width="22" height="22" opacity=".001"/>
  <path d="m230.54 400.5h-10v-8h10z" fill="#dfdfdf"/>
 </g>
 <g id="22-22-Fill50" transform="translate(-22.54 -404.5)">
  <rect transform="rotate(-90)" x="-404.5" y="214.54" width="22" height="22" opacity=".001"/>
  <path d="m230.54 400.5h-10v-7h10z" fill="#dfdfdf"/>
 </g>
 <g id="22-22-Fill40" transform="translate(9.46 -404.5)">
  <rect transform="rotate(-90)" x="-404.5" y="214.54" width="22" height="22" opacity=".001"/>
  <path d="m230.54 400.5h-10v-6h10z" fill="#dfdfdf"/>
 </g>
 <g id="22-22-Fill30" transform="translate(41.46 -404.5)">
  <rect transform="rotate(-90)" x="-404.5" y="214.54" width="22" height="22" opacity=".001"/>
  <path d="m230.54 400.5h-10v-5h10z" fill="#dfdfdf"/>
 </g>
 <g id="22-22-Fill20" transform="translate(73.46 -404.5)">
  <rect transform="rotate(-90)" x="-404.5" y="214.54" width="22" height="22" opacity=".001"/>
  <path d="m230.54 400.5h-10v-4h10z" fill="#dfdfdf"/>
 </g>
 <g id="22-22-Fill10" transform="translate(105.46 -404.5)">
  <rect transform="rotate(-90)" x="-404.5" y="214.54" width="22" height="22" opacity=".001"/>
  <path transform="translate(-105.46,404.5)" d="m329.5-19c-0.5-0.01-0.5 0.5-0.5 0.5v0.5h-4v15h12v-15h-4v-0.5s0-0.5-0.5-0.5zm-2.5 3h8v9h-8z" fill="#f44336"/>
 </g>
 <g id="22-22-Fill0" transform="translate(137.46 -404.5)">
  <rect transform="rotate(-90)" x="-404.5" y="214.54" width="22" height="22" opacity=".001"/>
  <path transform="translate(-137.46,404.5)" d="m361.5-19c-0.5-0.01-0.5 0.5-0.5 0.5v0.5h-4v15h12v-15h-4v-0.5s0-0.5-0.5-0.5zm-2.5 3h8v11h-8z" fill="#f44336"/>
 </g>
 <g id="22-22-Unavailable" transform="translate(213.46 -426.5)">
  <rect transform="rotate(-90)" x="-426.5" y="170.54" width="22" height="22" opacity=".001"/>
  <rect x="181.54" y="415.5" width="10" height="10" ry="1" fill="#ff9800"/>
  <path d="m188.66 416.97-2.1213 2.1213-2.1213-2.1213-1.4142 1.4142 2.1213 2.1213-2.1213 2.1213 1.4142 1.4142 2.1213-2.1213 2.1213 2.1213 1.4142-1.4142-2.1213-2.1213 2.1213-2.1213z" fill="#fff"/>
 </g>
 <g id="22-22-AcAdapter" transform="translate(482)">
  <rect transform="rotate(-90)" y="-66" width="22" height="22" opacity=".001"/>
  <path d="m-55-15v3h2l-2 5v-3h-2z" fill="#4caf50"/>
 </g>
 <g id="Fill100">
  <rect x="32" width="32" height="32" rx="2.092" ry="1.491" opacity=".001"/>
  <path d="m40 9v5h16v-5zm0 7v5h16v-5zm0 7v5h16v-5z" opacity=".2"/>
  <path d="m40 8v5h16v-5zm0 7v5h16v-5zm0 7v5h16v-5z" fill="#c0f957"/>
  <path d="m40 8v1h16v-1zm0 7v1h16v-1zm0 7v1h16v-1z" fill="#fff" opacity=".2"/>
  <rect x="47" y="23" width="16" height="9" rx="2" ry="2" opacity=".2"/>
  <rect x="47" y="22" width="16" height="9" rx="2" ry="2" fill="#4671e6"/>
  <path d="m50 24v1h-1v1h1v3h1v-5z" fill="#fff"/>
  <path d="m53 24v5h3v-5h-2zm1 1h1v3h-1v-2z" fill="#fff"/>
  <path d="m58 24v5h3v-5h-2zm1 1h1v3h-1v-2z" fill="#fff"/>
 </g>
 <g id="Fill90">
  <rect x="64" width="32" height="32" rx="2.092" ry="1.491" opacity=".001"/>
  <path d="m72 9v5h16v-5zm0 7v5h16v-5zm0 7v5h16v-5z" opacity=".2"/>
  <path d="m72 8v5h16v-5zm0 7v5h16v-5zm0 7v5h16v-5z" fill="#c0f957"/>
  <path d="m72 8v1h16v-1zm0 7v1h16v-1zm0 7v1h16v-1z" fill="#fff" opacity=".2"/>
  <rect x="83" y="23" width="12" height="9" rx="2" ry="2" opacity=".2"/>
  <rect x="83" y="22" width="12" height="9" rx="2" ry="2" fill="#4671e6"/>
  <path d="m90 24v5h3v-5h-2zm1 1h1v3h-1v-2z" fill="#fff"/>
  <path d="m85 24v3h2v1h-2v1h3v-5h-2zm1 1h1v1h-1z" fill="#fff"/>
 </g>
 <g id="Fill80">
  <rect x="96" width="32" height="32" rx="2.092" ry="1.491" opacity=".001"/>
  <path d="m104 9v5h16v-5zm0 7v5h16v-5zm0 7v5h16v-5z" opacity=".2"/>
  <path d="m104 8v5h16v-5zm0 7v5h16v-5zm0 7v5h16v-5z" fill="#c0f957"/>
  <path d="m104 8v1h16v-1zm0 7v1h16v-1zm0 7v1h16v-1z" fill="#fff" opacity=".2"/>
  <rect x="115" y="23" width="12" height="9" rx="2" ry="2" opacity=".2"/>
  <rect x="115" y="22" width="12" height="9" rx="2" ry="2" fill="#4671e6"/>
  <path d="m122 24v5h3v-5h-2zm1 1h1v3h-1v-2z" fill="#fff"/>
  <path d="m117 24v5h3v-5h-2zm1 1h1v1h-1zm0 2h1v1h-1z" fill="#fff"/>
 </g>
 <g id="Fill70">
  <rect x="128" width="32" height="32" rx="2.092" ry="1.491" opacity=".001"/>
  <path d="m136 9v5h16v-5zm0 7v5h16v-5zm0 7v5h16v-5z" opacity=".2"/>
  <path d="m136 8v5h16v-5zm0 7v5h16v-5zm0 7v5h16v-5z" fill="#c0f957"/>
  <path d="m136 8v1h16v-1zm0 7v1h16v-1zm0 7v1h16v-1z" fill="#fff" opacity=".2"/>
  <rect x="147" y="23" width="12" height="9" rx="2" ry="2" opacity=".2"/>
  <rect x="147" y="22" width="12" height="9" rx="2" ry="2" fill="#4671e6"/>
  <path d="m154 24v5h3v-5h-2zm1 1h1v3h-1v-2z" fill="#fff"/>
  <path d="m149 24v0.99611h1.9434l-0.92968 3.7665 0.97265 0.23735 0.98242-3.9844-0.0801-0.01945h0.11132v-0.99611z" fill="#fff"/>
 </g>
 <g id="Fill20">
  <rect x="288" width="32" height="32" rx="2.092" ry="1.491" opacity=".001"/>
  <path d="m296 23v5h16v-5z" opacity=".2"/>
  <path d="m296 22v5h16v-5z" fill="#c0f957"/>
  <path d="m296 22v1h16v-1z" fill="#fff" opacity=".2"/>
  <rect x="307" y="23" width="12" height="9" rx="2" ry="2" opacity=".2"/>
  <rect x="307" y="22" width="12" height="9" rx="2" ry="2" fill="#4671e6"/>
  <path d="m314 24v5h3v-5h-2zm1 1h1v3h-1v-2z" fill="#fff"/>
  <path d="m309 24v1h2v1h-2v3h3v-1h-2v-1h2v-3h-1z" fill="#fff"/>
 </g>
 <g id="Fill30">
  <rect x="256" width="32" height="32" rx="2.092" ry="1.491" opacity=".001"/>
  <path d="m264 23v5h16v-5z" opacity=".2"/>
  <path d="m264 22v5h16v-5z" fill="#c0f957"/>
  <path d="m264 22v1h16v-1z" fill="#fff" opacity=".2"/>
  <rect x="275" y="23" width="12" height="9" rx="2" ry="2" opacity=".2"/>
  <rect x="275" y="22" width="12" height="9" rx="2" ry="2" fill="#4671e6"/>
  <path d="m282 24v5h3v-5h-2zm1 1h1v3h-1v-2z" fill="#fff"/>
  <path d="m277 24v1h2v1h-2v1h2v1h-2v1h3v-5h-1z" fill="#fff"/>
 </g>
 <g id="Fill40">
  <rect x="224" width="32" height="32" rx="2.092" ry="1.491" opacity=".001"/>
  <path d="m232 16v5h16v-5zm0 7v5h16v-5z" opacity=".2"/>
  <path d="m232 15v5h16v-5zm0 7v5h16v-5z" fill="#c0f957"/>
  <path d="m232 15v1h16v-1zm0 7v1h16v-1z" fill="#fff" opacity=".2"/>
  <rect x="243" y="23" width="12" height="9" rx="2" ry="2" opacity=".2"/>
  <rect x="243" y="22" width="12" height="9" rx="2" ry="2" fill="#4671e6"/>
  <path d="m250 24v5h3v-5h-2zm1 1h1v3h-1v-2z" fill="#fff"/>
  <path d="m245 24v3h2v2h1v-5h-1v2h-1v-2z" fill="#fff"/>
 </g>
 <g id="Fill50">
  <rect x="192" width="32" height="32" rx="2.092" ry="1.491" opacity=".001"/>
  <path d="m200 16v5h16v-5zm0 7v5h16v-5z" opacity=".2"/>
  <path d="m200 15v5h16v-5zm0 7v5h16v-5z" fill="#c0f957"/>
  <path d="m200 15v1h16v-1zm0 7v1h16v-1z" fill="#fff" opacity=".2"/>
  <rect x="211" y="23" width="12" height="9" rx="2" ry="2" opacity=".2"/>
  <rect x="211" y="22" width="12" height="9" rx="2" ry="2" fill="#4671e6"/>
  <path d="m218 24v5h3v-5h-2zm1 1h1v3h-1v-2z" fill="#fff"/>
  <path d="m213 24v3h2v1h-2v1h3v-3h-2v-1h2v-1h-2z" fill="#fff"/>
 </g>
 <g id="Fill60">
  <rect x="160" width="32" height="32" rx="2.092" ry="1.491" opacity=".001"/>
  <path d="m168 16v5h16v-5zm0 7v5h16v-5z" opacity=".2"/>
  <path d="m168 15v5h16v-5zm0 7v5h16v-5z" fill="#c0f957"/>
  <path d="m168 15v1h16v-1zm0 7v1h16v-1z" fill="#fff" opacity=".2"/>
  <rect x="179" y="23" width="12" height="9" rx="2" ry="2" opacity=".2"/>
  <rect x="179" y="22" width="12" height="9" rx="2" ry="2" fill="#4671e6"/>
  <path d="m186 24v5h3v-5h-2zm1 1h1v3h-1v-2z" fill="#fff"/>
  <path d="m181 24v5h3v-3h-2v-1h2v-1h-2zm1 3h1v1h-1z" fill="#fff"/>
 </g>
 <g id="Fill10">
  <rect x="320" width="32" height="32" rx="2.092" ry="1.491" opacity=".001"/>
  <path d="m328 23v5h16v-5z" opacity=".2"/>
  <path d="m328 22v5h16v-5z" fill="#db3c30"/>
  <path d="m328 22v1h16v-1z" fill="#fff" opacity=".1"/>
  <rect x="340" y="23" width="11" height="9" rx="2" ry="2" opacity=".2"/>
  <rect x="340" y="22" width="11" height="9" rx="2" ry="2" fill="#4671e6"/>
  <path d="m346 24v5h3v-5h-2zm1 1h1v3h-1v-2z" fill="#fff"/>
  <path d="m343 24v1h-1v1h1v3h1v-5z" fill="#fff"/>
 </g>
 <g id="Fill0" transform="translate(352)">
  <rect width="32" height="32" opacity=".001"/>
  <rect transform="matrix(0,-1,-1,0,0,0)" x="-32" y="-31" width="16" height="16" rx="8" ry="8" opacity=".2"/>
  <rect transform="matrix(0,-1,-1,0,0,0)" x="-31" y="-31" width="16" height="16" rx="8" ry="8" fill="#db3c30"/>
  <g transform="matrix(1 0 0 .76922 -523 291.07)">
   <path d="m545-355h2v7.8001h-2zm0 10.4h2v2.6h-2z" fill="#fff"/>
  </g>
 </g>
 <g id="Unavailable">
  <rect x="384" width="32" height="32" opacity=".001"/>
  <rect x="399" y="16" width="16" height="16" rx="2" ry="2" opacity=".2"/>
  <rect x="399" y="15" width="16" height="16" rx="2" ry="2" fill="#ff9800"/>
  <g transform="matrix(1.2495 0 0 1.25 322.04 -634.48)" fill="#fff">
   <g transform="translate(19,-242)" fill="#fff">
    <path d="m45.8 764.8h0.8c0.0083-1e-4 0.01663-3.7e-4 0.025 0 0.20396 9e-3 0.4079 0.10286 0.55 0.25l1.825 1.825 1.85-1.825c0.2125-0.1844 0.35734-0.2444 0.55-0.25h0.8v0.8c0 0.22918-0.02747 0.44052-0.2 0.6l-1.825 1.825 1.8 1.8c0.15055 0.15054 0.22499 0.36276 0.225 0.575v0.8h-0.8c-0.21224-1e-5 -0.42447-0.0745-0.575-0.225l-1.825-1.825-1.825 1.825c-0.15053 0.15055-0.36277 0.225-0.575 0.225h-0.8v-0.8c-3e-6 -0.21223 0.07445-0.42446 0.225-0.575l1.825-1.8-1.825-1.825c-0.16859-0.1557-0.24253-0.3754-0.225-0.6z" fill="#fff"/>
   </g>
  </g>
 </g>
 <g id="AcAdapter" transform="translate(416)">
  <rect width="32" height="32" opacity=".001"/>
  <path d="m15.941 9.0021a2.0002 2.0002 0 0 0-1.7305 1.1035l-4 8a2.0002 2.0002 0 0 0 1.7891 2.8945h2v2a2.0002 2.0002 0 0 0 3.7891 0.89453l4-8a2.0002 2.0002 0 0 0-1.7891-2.8945h-2v-2a2.0002 2.0002 0 0 0-2.0586-1.998z" opacity=".2"/>
  <path d="m15.941 8.002a2.0002 2.0002 0 0 0-1.7305 1.1035l-4 8a2.0002 2.0002 0 0 0 1.7891 2.8945h2v2a2.0002 2.0002 0 0 0 3.7891 0.89453l4-8a2.0002 2.0002 0 0 0-1.7891-2.8945h-2v-2a2.0002 2.0002 0 0 0-2.0586-1.998z" fill="#4caf50"/>
  <path d="m16 11v4h4l-4 8v-4h-4z" opacity=".2"/>
  <path d="m16 10v4h4l-4 8v-4h-4z" fill="#fff"/>
 </g>
 <g id="Battery">
  <rect width="32" height="32" rx="2.092" ry="1.491" opacity=".001"/>
  <path d="m 6.375,6 h 19.25 C 26.38675,6 27,6.5575 27,7.25 v 22.5 C 27,30.4425 26.38675,31 25.625,31 H 6.375 C 5.61325,31 5,30.4425 5,29.75 V 7.25 C 5,6.5575 5.61325,6 6.375,6 Z" opacity=".2"/>
  <path d="m 6.375,5 h 19.25 C 26.38675,5 27,5.5575 27,6.25 v 22.5 C 27,29.4425 26.38675,30 25.625,30 H 6.375 C 5.61325,30 5,29.4425 5,28.75 V 6.25 C 5,5.5575 5.61325,5 6.375,5 Z" fill="#4f4f4f"/>
  <rect x="9" y="2" width="14" height="3" fill="#8e8e8e"/>
  <path d="m8 8v5h16v-5zm0 7v5h16v-5zm0 7v5h16v-5z" opacity=".355"/>
  <path d="m9 2v1h14v-1z" fill="#fff" opacity=".2"/>
 </g>
 <g id="battery-ups" transform="translate(448)">
  <rect width="32" height="32" rx="2.092" ry="1.491" opacity=".001"/>
  <path d="m5.5 3h21c0.831 0 1.5 0.6244 1.5 1.4v25.2c0 0.7756-0.669 1.4-1.5 1.4h-21c-0.831 0-1.5-0.6244-1.5-1.4v-25.2c0-0.7756 0.669-1.4 1.5-1.4z" opacity=".2"/>
  <path d="m5.5 2h21c0.831 0 1.5 0.6244 1.5 1.4v25.2c0 0.7756-0.669 1.4-1.5 1.4h-21c-0.831 0-1.5-0.6244-1.5-1.4v-25.2c0-0.7756 0.669-1.4 1.5-1.4z" fill="#4f4f4f"/>
  <path d="m16 11v4h4l-4 8v-4h-4z" opacity=".2"/>
  <path d="m16 10v4h4l-4 8v-4h-4z" fill="#fff"/>
  <path d="m5.5 2c-0.831 0-1.5 0.62479-1.5 1.4004v1c0-0.7756 0.669-1.4004 1.5-1.4004h21c0.831 0 1.5 0.62479 1.5 1.4004v-1c0-0.7756-0.669-1.4004-1.5-1.4004z" fill="#fff" opacity=".1"/>
  <circle cx="24.5" cy="27.5" r="1.5" opacity=".2"/>
  <circle cx="24.5" cy="26.5" r="1.5" fill="#c0f957"/>
  <circle cx="20.5" cy="27.5" r="1.5" opacity=".2"/>
  <circle cx="20.5" cy="26.5" r="1.5" fill="#df4e43"/>
  <rect x="6" y="3" width="20" height="1" opacity=".35"/>
  <rect x="6" y="5" width="20" height="1" opacity=".35"/>
  <rect x="6" y="7" width="20" height="1" opacity=".35"/>
 </g>
 <g id="profile-powersave" transform="translate(465,-27)">
  <rect transform="rotate(-90)" x="-27" y="5" width="22" height="22" opacity=".001"/>
  <path d="m16.008 8c3.5658 0.00311 6.7072 2.3758 7.6855 5.8047 0.97837 3.4289-0.43955 7.102-3.4668 8.9863a1 1 0 0 1-1.377-0.32031 1 1 0 0 1 0.32031-1.377c2.2772-1.4174 3.3356-4.1609 2.5996-6.7402-0.73596-2.5793-3.0814-4.3512-5.7637-4.3535-2.6823-0.00234-5.033 1.7657-5.7734 4.3438-0.74046 2.578 0.3132 5.3228 2.5879 6.7441a1 1 0 0 1 0.31836 1.3789 1 1 0 0 1-1.3789 0.31836c-3.024-1.8896-4.4336-5.5669-3.4492-8.9941 0.98436-3.4272 4.1315-5.7941 7.6973-5.791zm-0.0078 6a2 2 0 0 1 2 2 2 2 0 0 1-2 2 2 2 0 0 1-0.51562-0.07031l-1.7773 1.7773a1 1 0 0 1-1.4141 0 1 1 0 0 1 0-1.4141l1.7773-1.7773a2 2 0 0 1-0.070324-0.51562 2 2 0 0 1 2-2z" fill="#dfdfdf"/>
 </g>
 <g id="profile-performance" transform="translate(487,-27)">
  <rect transform="rotate(-90)" x="-27" y="5" width="22" height="22" opacity=".001"/>
  <path d="m15.992 8c-3.5658 0.00311-6.7072 2.3758-7.6855 5.8047-0.97837 3.4289 0.43955 7.102 3.4668 8.9863a1 1 0 0 0 1.377-0.32031 1 1 0 0 0-0.32031-1.377c-2.2772-1.4174-3.3356-4.1609-2.5996-6.7402 0.73596-2.5793 3.0814-4.3512 5.7637-4.3535 2.6823-0.00234 5.033 1.7657 5.7734 4.3438s-0.3132 5.3228-2.5879 6.7441a1 1 0 0 0-0.31836 1.3789 1 1 0 0 0 1.3789 0.31836c3.024-1.8896 4.4336-5.5669 3.4492-8.9941-0.98436-3.4272-4.1315-5.7941-7.6973-5.791zm0.007812 6a2 2 0 0 0-2 2 2 2 0 0 0 2 2 2 2 0 0 0 0.51562-0.07031l1.7773 1.7773a1 1 0 0 0 1.4141 0 1 1 0 0 0 0-1.4141l-1.7773-1.7773a2 2 0 0 0 0.070312-0.51562 2 2 0 0 0-2-2z" fill="#dfdfdf"/>
 </g>
</svg>
