<?xml version="1.0" encoding="UTF-8"?>
<svg width="32" height="32" version="1.1" xmlns="http://www.w3.org/2000/svg">
 <g id="bookmarks">
  <rect width="32" height="32" opacity=".001"/>
  <path d="m9.957 3c-4.3941 0-7.957 4.1163-7.957 9.1934 0 1.3641 0.20893 2.6761 0.57422 3.9297 0 0 0.33157 1.1313 0.625 1.7539 3.3537 7.961 12.801 13.123 12.801 13.123s9.4471-5.1621 12.801-13.123c0.29343-0.62264 0.625-1.7539 0.625-1.7539 0.36529-1.2536 0.57422-2.5656 0.57422-3.9297 0-5.0771-3.5629-9.1934-7.957-9.1934-2.3045 0-4.5896 1.191-6.043 3-1.4534-1.809-3.7385-3-6.043-3z" opacity=".2"/>
  <path d="m9.957 2c-4.3941 0-7.957 4.1163-7.957 9.1934 0 1.3641 0.20893 2.6761 0.57422 3.9297 0 0 0.33157 1.1313 0.625 1.7539 3.3537 7.961 12.801 13.123 12.801 13.123s9.4471-5.1621 12.801-13.123c0.29343-0.62264 0.625-1.7539 0.625-1.7539 0.36529-1.2536 0.57422-2.5656 0.57422-3.9297 0-5.0771-3.5629-9.1934-7.957-9.1934-2.3045 0-4.5896 1.191-6.043 3-1.4534-1.809-3.7385-3-6.043-3z" fill="#c2352a"/>
  <path d="m9.957 2c-4.3941 0-7.957 4.1163-7.957 9.1934 0 0.17872 0.012477 0.35434 0.019531 0.53125 0.2127-4.8577 3.6804-8.7246 7.9375-8.7246 2.3045 0 4.5896 1.191 6.043 3 1.4534-1.809 3.7385-3 6.043-3 4.2571 0 7.7248 3.8669 7.9375 8.7246 0.007054-0.17691 0.019531-0.35253 0.019531-0.53125 0-5.0771-3.5629-9.1934-7.957-9.1934-2.3045 0-4.5896 1.191-6.043 3-1.4534-1.809-3.7385-3-6.043-3z" fill="#fff" opacity=".2"/>
 </g>
</svg>
