<?xml version="1.0" encoding="UTF-8"?>
<svg width="32" height="32" version="1" xmlns="http://www.w3.org/2000/svg">
 <g id="22-22-cadence" transform="translate(27,5)">
  <path d="m16 8.0001c-0.90496 0.015-2.285 0.22551-2.6426 0.61524-0.38136 0.4156-0.46397 0.99991-0.35742 1.6465 0.20313 1.2327 1.9054 2.7439 2.9141 4.1035-7e-3 0.0088-0.01442 0.01857-0.02148 0.02734-0.50808 0.63227-1.5677 1.2123-2.0625 1.7031 0.07975-0.35924 0.13718-1.1494 0.15039-1.3984 0.01132-0.21329 0.0056-0.37879-0.06055-0.51367-0.03308-0.06744-0.09243-0.1321-0.17383-0.1582-0.0814-0.02611-0.1654-0.0087-0.23828 0.02539-0.19679 0.50493-0.52227 1.1842-0.78711 1.8184-0.24354 0.40448-0.41572 1.1287-0.52734 1.3867-0.05748 0.13285-0.10029 0.2487-0.12695 0.34961-0.02512 0.09506-0.03744 0.17858-0.0332 0.25586 0.13912 0.1876 0.36407 0.16015 0.54688 0.17188 0.07935-8.32e-4 0.16227-0.01488 0.25391-0.07031 0.21505-0.13009 0.4784-0.33568 0.75977-0.57617-0.20067 0.6642-0.23461 0.87599-0.55469 1.6191-0.0044 0.01036-0.01114 0.0209-0.01563 0.03125-1.6889-0.2299-3.4502-0.0842-4.6426 0.32617-0.62546 0.21525-1.1071 0.69495-1.2949 1.2246-0.18779 0.52966-0.07342 1.2026 0.39844 2.0371 0.47186 0.8345 0.99235 1.217 1.5469 1.3359 0.55452 0.11891 1.1083-0.0366 1.6211-0.45117 0.97757-0.79036 1.859-2.624 2.5449-4.168 0.01126 0.0017 0.02391 0.0023 0.03516 0.0039 0.80774 0.11916 1.5826 1.2063 2.2598 1.3848-0.3546 0.11134-0.76944 0.22661-0.99414 0.33984-0.19239 0.09695-0.33492 0.18448-0.41992 0.30859-0.0425 0.06206-0.07058 0.14572-0.05273 0.22852 0.01785 0.08279 0.07626 0.14603 0.14258 0.19141 0.13264 0.09075 0.3209 0.1407 0.60156 0.18164 0.28066 0.04093 0.75069 0.06587 1.2266 0.07227 0.0014 1.9e-5 0.0025-1.9e-5 0.0039 0 0.0014-1.9e-5 0.0025 1.9e-5 0.0039 0 0.47587-0.0064 0.94591-0.03134 1.2266-0.07227 0.28066-0.04094 0.46892-0.09089 0.60156-0.18164 0.06632-0.04537 0.12473-0.10862 0.14258-0.19141s-0.01023-0.16646-0.05273-0.22852c-0.085-0.12412-0.22754-0.21164-0.41992-0.30859-0.2247-0.11323-0.63954-0.2285-0.99414-0.33984 0.6772-0.1785 1.452-1.2656 2.2598-1.3848 0.01125-0.0016 0.0239-0.0022 0.03516-0.0039 0.6859 1.544 1.5674 3.3776 2.5449 4.168 0.51277 0.41457 1.0666 0.57008 1.6211 0.45117 0.55452-0.11891 1.075-0.50144 1.5469-1.3359 0.47186-0.8345 0.58623-1.5074 0.39844-2.0371-0.1878-0.52966-0.66946-1.0094-1.2949-1.2246-1.1924-0.41037-2.9537-0.55607-4.6426-0.32617-0.0045-0.01035-0.01122-0.02089-0.01562-0.03125-0.32008-0.74315-0.35402-0.95494-0.55469-1.6191 0.28136 0.2405 0.54472 0.44608 0.75977 0.57617 0.09164 0.05543 0.17456 0.06948 0.25391 0.07031 0.18281-0.01172 0.40776 0.01572 0.54688-0.17188 0.0042-0.07728-0.0081-0.1608-0.0332-0.25586-0.02666-0.10091-0.06947-0.21676-0.12695-0.34961-0.11163-0.258-0.2838-0.98224-0.52734-1.3867-0.26484-0.63419-0.59032-1.3134-0.78711-1.8184-0.07289-0.03408-0.15688-0.0515-0.23828-0.02539-0.0814 0.0261-0.14075 0.09076-0.17383 0.1582-0.06615 0.13488-0.07187 0.30038-0.06055 0.51367 0.01322 0.249 0.07064 1.0392 0.15039 1.3984-0.49477-0.49084-1.5544-1.0708-2.0625-1.7031-0.0071-0.0088-0.01449-0.01854-0.02148-0.02734 1.0087-1.3596 2.7109-2.8709 2.9141-4.1035 0.10655-0.64658 0.02394-1.2309-0.35742-1.6465-0.35761-0.38972-1.7376-0.60024-2.6426-0.61524z" fill="#dfdfdf"/>
  <rect x="5" y="5" width="22" height="22" opacity=".001"/>
 </g>
 <g id="cadence">
  <rect x="2" y="3" width="28" height="28" rx="1.4" ry="1.4" opacity=".2"/>
  <rect x="2" y="2" width="28" height="28" rx="1.4" ry="1.4" fill="#752828"/>
  <path d="m16 8c-1.0055 0.016876-2.1047 0.25491-2.502 0.69333-0.42375 0.46754-0.51489 1.1241-0.3965 1.8515 0.22571 1.3867 1.682 3.0875 2.8028 4.617-0.0079 0.0099-0.01561 0.02138-0.02344 0.03125-0.56455 0.71128-1.4984 1.5298-2.0481 2.082 0.08862-0.40412 0.15329-0.8429 0.16798-1.123 0.01258-0.23994 0.0051-0.42637-0.06836-0.5781-0.03675-0.07586-0.10291-0.15032-0.19337-0.17968-0.09045-0.02936-0.18465-0.0091-0.26563 0.0293-0.16197 0.07681-0.31599 0.23104-0.51174 0.4785-0.19575 0.24746-0.42472 0.66212-0.69534 1.1171-0.27062 0.45502-0.46192 0.8191-0.58596 1.1093-0.06387 0.14945-0.111 0.27905-0.14063 0.39256-0.02792 0.10693-0.04182 0.20212-0.03711 0.28905 0.15458 0.21104 0.40627 0.18016 0.6094 0.19335 0.08817-9.34e-4 0.17944-0.01574 0.28126-0.07813 0.23895-0.14635 0.53114-0.37786 0.84378-0.64841-0.22298 0.7472-0.17054 0.9686-0.52619 1.8046-0.0049 0.01165-0.0126 0.02352-0.01758 0.03516-1.8766-0.25863-3.8354-0.09447-5.1603 0.36717-0.69499 0.24215-1.2289 0.78106-1.4376 1.3769-0.20867 0.59585-0.080928 1.6529 0.44338 2.5917 0.5243 0.93878 1.1007 1.3701 1.7169 1.5039 0.61616 0.13377 1.2311-0.04142 1.8008-0.50779 1.0862-0.88912 2.068-3.2512 2.8302-4.9881 0.01251 0.0018 0.02462 0.0021 0.03711 0.0039 0.89753 0.13405 1.7593 0.88119 2.5118 1.082-0.39402 0.12525-0.7445 0.25347-0.99418 0.38084-0.21377 0.10906-0.37042 0.20997-0.46486 0.3496-0.04722 0.06982-0.07843 0.16271-0.0586 0.25585 0.01983 0.09314 0.08256 0.16379 0.15626 0.21484 0.14739 0.10209 0.35809 0.16097 0.66995 0.20702 0.31185 0.04604 0.72323 0.07286 1.252 0.08008 0.0015 2.1e-5 0.0024-2.1e-5 0.0039 0 0.0015-2.1e-5 0.0024 2.1e-5 0.0039 0 0.52877-0.0072 0.94014-0.03404 1.252-0.08008 0.31185-0.04605 0.52256-0.10493 0.66995-0.20702 0.07369-0.05105 0.13642-0.1217 0.15626-0.21484 0.01983-0.09314-0.01137-0.18603-0.05859-0.25585-0.09445-0.13963-0.25109-0.24053-0.46486-0.3496-0.24968-0.12738-0.60016-0.25559-0.99418-0.38084 0.75247-0.2008 1.6143-0.94794 2.5118-1.082 0.01249-0.0018 0.0246-0.0021 0.03711-0.0039 0.76214 1.7369 1.7439 4.099 2.8302 4.9881 0.56977 0.46638 1.1847 0.64156 1.8008 0.50779 0.61616-0.13377 1.1926-0.56507 1.7169-1.5039 0.5243-0.93878 0.65204-1.9959 0.44338-2.5917-0.20867-0.59585-0.74256-1.1348-1.4376-1.3769-1.325-0.46164-3.2837-0.6258-5.1603-0.36717-5e-3 -0.01164-0.01268-0.02351-0.01758-0.03516-0.35565-0.83602-0.30392-1.0574-0.52689-1.8046 0.31264 0.27055 0.60483 0.50206 0.84378 0.64841 0.10182 0.06239 0.19309 0.07719 0.28126 0.07813 0.20313-0.01319 0.45481 0.01769 0.6094-0.19335 0.0047-0.08694-0.0092-0.18212-0.03711-0.28905-0.02963-0.11352-0.07676-0.24311-0.14063-0.39256-0.12404-0.29024-0.31534-0.65431-0.58596-1.1093-0.27061-0.45503-0.49959-0.86969-0.69534-1.1171-0.19575-0.24746-0.34976-0.40169-0.51174-0.4785-0.08099-0.0384-0.17518-0.05866-0.26563-0.0293-0.09045 0.02937-0.15662 0.10382-0.19337 0.17968-0.07346 0.15173-0.08094 0.33816-0.06836 0.5781 0.01468 0.28011 0.07935 0.71888 0.16798 1.123-0.54977-0.55218-1.4829-1.3707-2.0474-2.082-0.0078-0.0099-0.01554-0.02135-0.02344-0.03125 1.1208-1.5295 2.5771-3.2303 2.8028-4.617 0.1184-0.72737 0.02726-1.384-0.39649-1.8515-0.39736-0.43842-1.4965-0.67646-2.502-0.69333z" opacity=".2"/>
  <path d="m16 7c-1.0055 0.016876-2.1047 0.25491-2.502 0.69333-0.42375 0.46754-0.51489 1.1241-0.3965 1.8515 0.22571 1.3867 1.682 3.0875 2.8028 4.617-0.0079 0.0099-0.01561 0.02138-0.02344 0.03125-0.56455 0.71128-1.4984 1.5298-2.0481 2.082 0.08862-0.40412 0.15329-0.8429 0.16798-1.123 0.01258-0.23994 0.0051-0.42637-0.06836-0.5781-0.03675-0.07586-0.10291-0.15032-0.19337-0.17968-0.09045-0.02936-0.18465-0.0091-0.26563 0.0293-0.16197 0.07681-0.31599 0.23104-0.51174 0.4785-0.19575 0.24746-0.42472 0.66212-0.69534 1.1171-0.27062 0.45502-0.46192 0.8191-0.58596 1.1093-0.06387 0.14945-0.111 0.27905-0.14063 0.39256-0.02792 0.10693-0.04182 0.20212-0.03711 0.28905 0.15458 0.21104 0.40627 0.18016 0.6094 0.19335 0.08817-9.34e-4 0.17944-0.01574 0.28126-0.07813 0.23895-0.14635 0.53114-0.37786 0.84378-0.64841-0.22298 0.7472-0.17054 0.9686-0.52619 1.8046-0.0049 0.01165-0.0126 0.02352-0.01758 0.03516-1.8766-0.25863-3.8354-0.09447-5.1603 0.36717-0.69499 0.24215-1.2289 0.78106-1.4376 1.3769-0.20867 0.59585-0.080928 1.6529 0.44338 2.5917 0.5243 0.93878 1.1007 1.3701 1.7169 1.5039 0.61616 0.13377 1.2311-0.04142 1.8008-0.50779 1.0862-0.88912 2.068-3.2512 2.8302-4.9881 0.01251 0.0018 0.02462 0.0021 0.03711 0.0039 0.89753 0.13405 1.7593 0.88119 2.5118 1.082-0.39402 0.12525-0.7445 0.25347-0.99418 0.38084-0.21377 0.10906-0.37042 0.20997-0.46486 0.3496-0.04722 0.06982-0.07843 0.16271-0.0586 0.25585 0.01983 0.09314 0.08256 0.16379 0.15626 0.21484 0.14739 0.10209 0.35809 0.16097 0.66995 0.20702 0.31185 0.04604 0.72323 0.07286 1.252 0.08008 0.0015 2.1e-5 0.0024-2.1e-5 0.0039 0 0.0015-2.1e-5 0.0024 2.1e-5 0.0039 0 0.52877-0.0072 0.94014-0.03404 1.252-0.08008 0.31185-0.04605 0.52256-0.10493 0.66995-0.20702 0.07369-0.05105 0.13642-0.1217 0.15626-0.21484 0.01983-0.09314-0.01137-0.18603-0.05859-0.25585-0.09445-0.13963-0.25109-0.24053-0.46486-0.3496-0.24968-0.12738-0.60016-0.25559-0.99418-0.38084 0.75247-0.2008 1.6143-0.94794 2.5118-1.082 0.01249-0.0018 0.0246-0.0021 0.03711-0.0039 0.76214 1.7369 1.7439 4.099 2.8302 4.9881 0.56977 0.46638 1.1847 0.64156 1.8008 0.50779 0.61616-0.13377 1.1926-0.56507 1.7169-1.5039 0.5243-0.93878 0.65204-1.9959 0.44338-2.5917-0.20867-0.59585-0.74256-1.1348-1.4376-1.3769-1.325-0.46164-3.2837-0.6258-5.1603-0.36717-5e-3 -0.01164-0.01268-0.02351-0.01758-0.03516-0.35565-0.83602-0.30392-1.0574-0.52689-1.8046 0.31264 0.27055 0.60483 0.50206 0.84378 0.64841 0.10182 0.06239 0.19309 0.07719 0.28126 0.07813 0.20313-0.01319 0.45481 0.01769 0.6094-0.19335 0.0047-0.08694-0.0092-0.18212-0.03711-0.28905-0.02963-0.11352-0.07676-0.24311-0.14063-0.39256-0.12404-0.29024-0.31534-0.65431-0.58596-1.1093-0.27061-0.45503-0.49959-0.86969-0.69534-1.1171-0.19575-0.24746-0.34976-0.40169-0.51174-0.4785-0.08099-0.0384-0.17518-0.05866-0.26563-0.0293-0.09045 0.02937-0.15662 0.10382-0.19337 0.17968-0.07346 0.15173-0.08094 0.33816-0.06836 0.5781 0.01468 0.28011 0.07935 0.71888 0.16798 1.123-0.54977-0.55218-1.4829-1.3707-2.0474-2.082-0.0078-0.0099-0.01554-0.02135-0.02344-0.03125 1.1208-1.5295 2.5771-3.2303 2.8028-4.617 0.1184-0.72737 0.02726-1.384-0.39649-1.8515-0.39736-0.43842-1.4965-0.67646-2.502-0.69333z" fill="#4c66cc"/>
  <path d="m3.4004 2c-0.7756 0-1.4004 0.62479-1.4004 1.4004v1c0-0.7756 0.62479-1.4004 1.4004-1.4004h25.199c0.7756 0 1.4004 0.62479 1.4004 1.4004v-1c0-0.7756-0.62479-1.4004-1.4004-1.4004z" fill="#fff" opacity=".1"/>
  <path d="m16 7c-1.0055 0.016876-2.1046 0.25494-2.502 0.69336-0.41831 0.46153-0.50997 1.108-0.39844 1.8242 0.061298-0.31176 0.18754-0.59153 0.39844-0.82422 0.39736-0.43842 1.4964-0.67648 2.502-0.69336 1.0055 0.016876 2.1046 0.25494 2.502 0.69336 0.20963 0.23129 0.33866 0.50886 0.40039 0.81836 0.11006-0.71377 0.016722-1.3581-0.40039-1.8184-0.39736-0.43842-1.4964-0.67648-2.502-0.69336zm-2.3965 7.3828c-0.04498 0.0062-0.08841 0.02182-0.12891 0.04102-0.16197 0.07681-0.31597 0.23106-0.51172 0.47852-0.19575 0.24746-0.4247 0.66216-0.69531 1.1172-0.27062 0.45502-0.4619 0.81914-0.58594 1.1094-0.06387 0.14945-0.11099 0.27906-0.14062 0.39258-0.02792 0.10693-0.04182 0.20213-0.03711 0.28906 0.071 0.09693 0.16191 0.13954 0.25977 0.16211 0.12306-0.26755 0.27136-0.5621 0.50391-0.95312 0.27061-0.45503 0.49957-0.86973 0.69531-1.1172 0.19575-0.24746 0.34974-0.40171 0.51172-0.47852 0.08099-0.0384 0.17518-0.05866 0.26562-0.0293s0.15661 0.10383 0.19336 0.17969c2e-3 0.0041 2e-3 0.0095 0.0039 0.01367 0.01921-0.14505 0.05876-0.32694 0.06445-0.43555 0.01258-0.23994 0.0051-0.42639-0.06836-0.57812-0.03675-0.07586-0.10291-0.15032-0.19336-0.17969-0.04522-0.01468-0.09174-0.01791-0.13672-0.01172zm4.793 0c-0.04498-0.0062-0.09149-3e-3 -0.13672 0.01172-0.09045 0.02937-0.15661 0.10383-0.19336 0.17969-0.07346 0.15173-0.08094 0.33818-0.06836 0.57812 0.0057 0.10861 0.04525 0.2905 0.06445 0.43555 0.0019-0.0041 0.0019-0.0096 0.0039-0.01367 0.03675-0.07586 0.10291-0.15032 0.19336-0.17969 0.09045-0.02936 0.18464-0.0091 0.26562 0.0293 0.16197 0.07681 0.31597 0.23106 0.51172 0.47852 0.19575 0.24746 0.4247 0.66216 0.69531 1.1172 0.23255 0.39102 0.38085 0.68557 0.50391 0.95312 0.09785-0.02257 0.18877-0.06518 0.25977-0.16211 0.0047-0.08694-0.0092-0.18213-0.03711-0.28906-0.02963-0.11352-0.07676-0.24312-0.14062-0.39258-0.12404-0.29024-0.31532-0.65435-0.58594-1.1094-0.27061-0.45503-0.49957-0.86973-0.69531-1.1172-0.19575-0.24746-0.34974-0.40171-0.51172-0.47852-0.04049-0.0192-0.08393-0.03482-0.12891-0.04102zm-2.8945 0.24219c-0.49041 0.53228-1.0621 1.0608-1.5 1.4883-6.05e-4 0.01415 7.63e-4 0.02452 0 0.03906-0.01468 0.28011-0.07935 0.71892-0.16797 1.123 0.54977-0.55218 1.4823-1.3707 2.0469-2.082 0.0078-0.0099 0.01554-0.02135 0.02344-0.03125-0.12837-0.17517-0.26752-0.35816-0.40235-0.53711zm0.99609 0c-0.13482 0.17894-0.27397 0.36193-0.40234 0.53711 0.0079 0.0099 0.01564 0.02135 0.02344 0.03125 0.56455 0.71128 1.4971 1.5299 2.0469 2.082-0.08863-0.40412-0.15329-0.84294-0.16797-1.123-7.63e-4 -0.01454 6.05e-4 -0.02491 0-0.03906-0.43784-0.42752-1.0097-0.956-1.5-1.4883zm-3.2598 3.6523c-0.11787 0.102-0.20806 0.15571-0.31836 0.24414-0.04992 0.15819-0.11327 0.33556-0.20898 0.56055-0.0049 0.01165-0.0126 0.02352-0.01758 0.03516-1.8766-0.25863-3.8352-0.09446-5.1602 0.36719-0.69499 0.24215-1.2288 0.7811-1.4375 1.377-0.10851 0.30984-0.12094 0.74488-0.039063 1.2227 0.014509-0.0731 0.016872-0.15929 0.039063-0.22266 0.20867-0.59585 0.74251-1.1348 1.4375-1.377 1.3034-0.45414 3.2198-0.61594 5.0684-0.375 0.09488-0.21669 0.1961-0.44547 0.28516-0.64844 0.01251 0.0018 0.02462 0.0021 0.03711 0.0039 4e-3 5.95e-4 0.0077 0.0033 0.01172 0.0039 0.11982-0.39726 0.14704-0.66968 0.30273-1.1914zm5.5234 0c0.1557 0.52173 0.1827 0.79414 0.30273 1.1914 4e-3 -6.22e-4 0.0077-0.0033 0.01172-0.0039 0.01249-0.0018 0.0246-0.0021 0.03711-0.0039 0.08906 0.20296 0.19028 0.43175 0.28516 0.64844 1.8486-0.24094 3.7649-0.07914 5.0684 0.375 0.69499 0.24215 1.2288 0.7811 1.4375 1.377 0.0224 0.06396 0.02644 0.15074 0.04102 0.22461 0.08222-0.47847 0.06762-0.91439-0.04102-1.2246-0.20867-0.59585-0.74251-1.1348-1.4375-1.377-1.325-0.46164-3.2835-0.62582-5.1602-0.36719-5e-3 -0.01164-0.01268-0.02351-0.01758-0.03516-0.09571-0.22498-0.15899-0.40236-0.20898-0.56055-0.1103-0.08843-0.20049-0.14214-0.31836-0.24414zm-4.4668 2.7363c-0.13479 0.07947-0.24888 0.16095-0.31836 0.26367-0.04722 0.06982-0.07842 0.16272-0.05859 0.25586 0.01983 0.09314 0.08256 0.1638 0.15625 0.21484 0.10274 0.07117 0.2526 0.11679 0.42969 0.15625 0.24566-0.11948 0.56233-0.24002 0.93164-0.35742-0.35768-0.09545-0.74145-0.31539-1.1406-0.5332zm3.4102 0c-0.39918 0.21781-0.78295 0.43776-1.1406 0.5332 0.36931 0.1174 0.68598 0.23795 0.93164 0.35742 0.17709-0.03946 0.32695-0.08508 0.42969-0.15625 0.07369-0.05105 0.13642-0.12171 0.15625-0.21484 0.01983-0.09314-0.01137-0.18604-0.05859-0.25586-0.06948-0.10272-0.18358-0.1842-0.31836-0.26367z" fill="#fff" opacity=".1"/>
  <rect width="32" height="32" opacity=".001"/>
 </g>
</svg>
