<?xml version="1.0" encoding="UTF-8"?>
<svg width="32" height="32" version="1" xmlns="http://www.w3.org/2000/svg">
 <g id="22-22-cantata" transform="translate(32,10)">
  <rect width="22" height="22" opacity=".001"/>
  <path d="m10.811 2.9806a8 8 0 0 0-7.8105 8.043 8 8 0 0 0 16 0 8 8 0 0 0-8.1895-8.043zm0.18945 1.998c3.3084 0 6 2.6916 6 6 0 3.3084-2.6916 6-6 6-3.3084 0-6-2.6916-6-6 0-3.3084 2.6916-6 6-6zm0.40039 1c-0.4 0-0.40039 0.41797-0.40039 0.41797v4.7891c-0.3845-0.13604-0.67052-0.20636-1.0996-0.20703-1.5464 0-2.9004 0.89543-2.9004 2 0 1.1046 1.4536 2 3 2 1.5464 0 3-0.89543 3-2v-5s2.2673 1.1587 1.3242 2.0234c-0.25901 0.14857-0.34433 0.3782-0.29883 0.57812 0.06909 0.30361 0.43998 0.53868 0.95312 0.32031 0.77102-0.40199 1.0215-1.1227 1.0215-1.7227 0-1.8-2.9996-3.1992-4.5996-3.1992z" fill="#dfdfdf"/>
 </g>
 <g id="cantata">
  <rect width="32" height="32" opacity=".001"/>
  <path d="m30 17.078a14 14 0 1 0-28 0 14 14 0 0 0 28 0" opacity=".2"/>
  <path d="m30 16.078a14 14 0 1 0-28 0 14 14 0 0 0 28 0" fill="#4f4f4f"/>
  <path d="m6 17c0 5.514 4.486 10 10 10 5.514 0 10-4.486 10-10s-4.486-10-10-10c-5.514 0-10 4.486-10 10z" opacity=".2"/>
  <path d="m6 16c0 5.514 4.486 10 10 10 5.514 0 10-4.486 10-10s-4.486-10-10-10c-5.514 0-10 4.486-10 10z" fill="#fff"/>
  <path d="m16 8.733v7.631c-0.67288-0.23807-1.3491-0.36283-2.1-0.364-2.7062 0-4.9 1.567-4.9 3.5s2.1938 3.5 4.9 3.5 5.1-1.567 5.1-3.5v-8.5s1.4092 1.2163 1.8845 2.4776c0.24294 0.64471 0.24223 1.3012-0.316 1.8131-0.45326 0.26-0.60189 0.66184-0.52226 1.0117 0.12092 0.53132 0.76723 0.94406 1.6652 0.56192 1.3493-0.70348 1.788-1.9646 1.788-3.0146 0-3.15-3.9995-5.85-6.7995-5.85-0.7 0-0.7 0.73333-0.7 0.73333z" fill="#366adb"/>
  <path d="m15.67 2.0039a14 14 0 0 0-13.67 14.074 14 14 0 0 0 0.015625 0.26172 14 14 0 0 1 27.965 0.28711 14 14 0 0 0 0.019531-0.54883 14 14 0 0 0-14.33-14.074z" fill="#fff" opacity=".1"/>
 </g>
</svg>
