<?xml version="1.0" encoding="UTF-8"?>
<svg width="32" height="32" version="1.1" xmlns="http://www.w3.org/2000/svg">
 <g id="22-22-choqok_offline" transform="translate(32,10)">
  <rect width="22" height="22" opacity=".001"/>
  <path d="m11 3-0.76172 1-0.83789-0.5-0.56641 1.2266c-1.7548 0.3611-2.9959 1.2082-4.0234 2.5488-1.7973 2.3449-1.8105 6.392-1.8105 8.6777s4.1905 3.0469 8 3.0469 8-0.76118 8-3.0469-0.01325-6.3328-1.8105-8.6777c-1.0276-1.3406-2.2686-2.1877-4.0234-2.5488l-0.56641-1.2266-0.83789 0.5zm3.5 7a1.5 1.5 0 0 1 1.5 1.5 1.5 1.5 0 0 1-1.5 1.5 1.5 1.5 0 0 1-1.5-1.5 1.5 1.5 0 0 1 1.5-1.5zm-7 1a1.5 1.5 0 0 1 1.5 1.5 1.5 1.5 0 0 1-0.087891 0.5 1.5 1.5 0 0 0-1.4121-1 1.5 1.5 0 0 0-1.4121 1 1.5 1.5 0 0 1-0.087891-0.5 1.5 1.5 0 0 1 1.5-1.5zm6.5 0v1h1v-1zm-3 2c0.07658 1e-3 0.15085 0.03466 0.20508 0.09766l1.7012 1.7383c0.18204 0.2101 0.085661 1.164-0.17188 1.1641h-3.4688c-0.25754-1e-4 -0.35392-0.95396-0.17188-1.1641l1.7012-1.7383c0.054227-0.063 0.12849-0.097556 0.20508-0.097656z" fill="#dfdfdf"/>
 </g>
 <g id="choqok_offline">
  <rect width="32" height="32" opacity=".001"/>
  <path d="m16 2.5-1.3333 1.6-1.6667-0.6-0.79167 1.5209c-3.0709 0.6319-5.2408 2.1161-7.0391 4.4622-3.1453 4.1035-3.1693 11.184-3.1693 15.184 0 3.9999 7.3333 5.3333 14 5.3333s14-1.3334 14-5.3333c0-4-0.024-11.08-3.1693-15.184-1.7982-2.3462-3.9681-3.8303-7.0391-4.4623l-0.79167-1.5208-1.6667 0.6z" opacity=".2"/>
  <path d="m16 1.5-1.3333 1.6-1.6667-0.6-0.79167 1.5209c-3.0709 0.6319-5.2408 2.1161-7.0391 4.4622-3.1453 4.1035-3.1693 11.184-3.1693 15.184 0 3.9999 7.3333 5.3333 14 5.3333s14-1.3334 14-5.3333c0-4-0.024-11.08-3.1693-15.184-1.7982-2.3462-3.9681-3.8303-7.0391-4.4623l-0.79167-1.5208-1.6667 0.6z" fill="#8e8e8e"/>
  <path d="m12.694 23.088c0.68198 1.1812 1.9416 1.9096 3.3055 1.9116 1.3639 0 2.6235-0.7304 3.3055-1.9116h-3.3055z" fill="#86572f"/>
  <path d="m16 20c-0.15317 1e-4 -0.30103 0.058-0.40948 0.1621l-3.4024 2.897c-0.36408 0.35-0.1726 1.3851 0.34248 1.3854l3.4694 0.5555 3.4694-0.5555c0.51507-3e-4 0.70656-1.0354 0.34248-1.3854l-3.4024-2.897c-0.10846-0.1043-0.25631-0.162-0.40948-0.1621z" opacity=".2"/>
  <path d="m16 19c-0.15317 1e-4 -0.30103 0.058-0.40948 0.1621l-3.4024 2.897c-0.36408 0.35-0.1726 1.3851 0.34248 1.3854l3.4694 0.5555 3.4694-0.5555c0.51507-3e-4 0.70656-1.0354 0.34248-1.3854l-3.4024-2.897c-0.10846-0.1043-0.25631-0.162-0.40948-0.1621z" fill="#ffc12e"/>
  <path d="m16 19c-0.15317 1e-4 -0.3017 0.05801-0.41016 0.16211l-3.4023 2.8965c-0.23951 0.23024-0.2339 0.75236-0.05859 1.0859 0.0194-0.02891 0.03433-0.06261 0.05859-0.08594l3.4023-2.8965c0.10846-0.1041 0.25699-0.16201 0.41016-0.16211 0.15317 1e-4 0.3017 0.05781 0.41016 0.16211l3.4023 2.8965c0.02427 0.02333 0.03919 0.05703 0.05859 0.08594 0.1753-0.33358 0.18092-0.85569-0.05859-1.0859l-3.4023-2.8965c-0.10846-0.1043-0.25699-0.16201-0.41016-0.16211z" fill="#fff" opacity=".2"/>
  <path d="m16 1.5-1.334 1.5996-1.666-0.59961-0.79102 1.5215c-3.0709 0.6319-5.2408 2.1148-7.0391 4.4609-3.1453 4.1035-3.1699 11.184-3.1699 15.184 0 0.03998 0.012214 0.07578 0.013672 0.11523 0.014556-4.0895 0.21074-10.456 3.1562-14.299 1.7982-2.3461 3.9681-3.829 7.0391-4.4609l0.79102-1.5215 1.666 0.59961 1.334-1.5996 1.334 1.5996 1.666-0.59961 0.79102 1.5215c3.0709 0.632 5.2408 2.1147 7.0391 4.4609 2.9455 3.8429 3.1417 10.209 3.1562 14.299 0.001458-0.03945 0.013672-0.075253 0.013672-0.11523 0-4-0.02465-11.08-3.1699-15.184-1.7982-2.3462-3.9681-3.8289-7.0391-4.4609l-0.79102-1.5215-1.666 0.59961z" fill="#fff" opacity=".1"/>
  <circle cx="23" cy="17" r="3" opacity=".2"/>
  <circle cx="23" cy="16" r="3" fill="#fff"/>
  <path d="m9 15a3 3 0 0 0-3 3 3 3 0 0 0 0.17578 1.002 3 3 0 0 1 2.8242-2.002 3 3 0 0 1 2.8242 1.998 3 3 0 0 0 0.17578-0.99805 3 3 0 0 0-3-3z" opacity=".2"/>
  <path d="m9 14a3 3 0 0 0-3 3 3 3 0 0 0 0.17578 1.002 3 3 0 0 1 2.8242-2.002 3 3 0 0 1 2.8242 1.998 3 3 0 0 0 0.17578-0.99805 3 3 0 0 0-3-3z" fill="#fff"/>
  <circle cx="23" cy="16" r="2" fill="#3f3f3f"/>
 </g>
</svg>
