<?xml version="1.0" encoding="UTF-8"?>
<svg width="32" height="32" version="1" xmlns="http://www.w3.org/2000/svg">
 <g id="computer" transform="translate(-2e-4,34)">
  <rect y="-34" width="32" height="32" opacity=".001"/>
  <g transform="translate(2e-4,-35)">
   <rect x="8" y="8" width="16" height="21" rx="1.25" ry="1.25" opacity=".2"/>
   <rect x="8" y="7" width="16" height="21" rx="1.25" ry="1.25" fill="#8e8e8e"/>
   <rect x="3" y="6" width="26" height="20" rx="1.25" ry="1.25" opacity=".2"/>
   <path d="m3 22v1.75c0 0.6925 0.5575 1.25 1.25 1.25h23.5c0.6925 0 1.25-0.5575 1.25-1.25v-1.75z" fill="#595959"/>
   <path d="M 4.25,5 C 3.5575,5 3,5.5575 3,6.25 V 22 H 29 V 6.25 C 29,5.5575 28.4425,5 27.75,5 Z" fill="#333"/>
   <rect x="3" y="22" width="26" height="1" fill="#fff" opacity=".1"/>
   <path d="m4.25 5c-0.6925 0-1.25 0.5575-1.25 1.25v1c0-0.6925 0.5575-1.25 1.25-1.25h23.5c0.692 0 1.25 0.5575 1.25 1.25v-1c0-0.6925-0.558-1.25-1.25-1.25h-23.5z" fill="#fff" opacity=".1"/>
  </g>
 </g>
 <g id="computer-laptop" transform="translate(-4.0002,34)">
  <rect x="36" y="-34" width="32" height="32" opacity=".001"/>
  <g transform="translate(36,-35)">
   <rect x="3" y="7" width="26" height="18" rx="1.25" ry="1.25" opacity=".2"/>
   <rect transform="matrix(0,-1,-1,0,0,0)" x="-28" y="-31" width="3" height="30" rx="1.25" ry="1.25" opacity=".2"/>
   <rect transform="matrix(0,-1,-1,0,0,0)" x="-27" y="-31" width="3" height="30" rx="1.25" ry="1.25" fill="#595959"/>
   <path d="m4.25 6c-0.6925 0-1.25 0.5575-1.25 1.25v1.75h26v-1.75c0-0.6925-0.5575-1.25-1.25-1.25h-23.5z" fill="#595959"/>
   <path d="m4.25 6c-0.6925 0-1.25 0.5575-1.25 1.25v1c0-0.6925 0.5575-1.25 1.25-1.25h23.5c0.692 0 1.25 0.5575 1.25 1.25v-1c0-0.6925-0.558-1.25-1.25-1.25h-23.5z" fill="#fff" opacity=".1"/>
   <path d="m3 9v13.75c0 0.6925 0.5575 1.25 1.25 1.25h23.5c0.6925 0 1.25-0.5575 1.25-1.25v-13.75h-26z" fill="#333"/>
   <rect x="3" y="9" width="26" height="1" opacity=".2"/>
   <rect x="15" y="7" width="2" height="1" fill="#333"/>
   <path d="m2.25 24c-0.6925 0-1.25 0.5575-1.25 1.25v0.5c0 0.085234 0.0092872 0.16769 0.025391 0.24805 0.11618-0.57063 0.61867-0.99805 1.2246-0.99805h27.5c0.60594 0 1.1084 0.42742 1.2246 0.99805 0.016104-0.080356 0.025391-0.16281 0.025391-0.24805v-0.5c0-0.6925-0.5575-1.25-1.25-1.25h-27.5z" fill="#fff" opacity=".1"/>
  </g>
 </g>
 <g id="22-22-computer" transform="translate(-2e-4,32)">
  <rect width="22" height="22" opacity=".001"/>
  <path d="m3.125 3c-1.125 0-1.125 1.1432-1.125 1.1432v11.731c0 1.1432 1.125 1.1432 1.125 1.1432h5.0375s-1.2001-0.29896-1.1625 0.8436v1.1387h8v-1.1387c0-1.1432-1.0504-0.8436-1.0504-0.8436h4.9254c1.125 0 1.125-1.1432 1.125-1.1432v-11.731s0-1.1432-1.125-1.1432zm0.875 2h14v9.9855l-14 0.02902z" fill="#dfdfdf"/>
 </g>
 <g id="16-16-computer" transform="translate(-2e-4,32)">
  <rect y="22" width="22" height="22" opacity=".001"/>
  <path d="m4 26c-1 0-1 1.0003-1 1.0003v10.003c0 1.0003 1 1.0003 1 1.0003h5s-1 0-1 1.0003v0.99637h6v-0.99637c0-1.0003-0.97852-1.0003-0.97852-1.0003h4.9785c1 0 1-1.0003 1-1.0003v-10.003s0-1.0003-1-1.0003zm1 2.0006h12v7.9768l-12 0.0254z" fill="#dfdfdf"/>
 </g>
 <g id="22-22-computer-laptop" transform="translate(-2e-4,32)">
  <rect x="22" width="22" height="22" opacity=".001"/>
  <path d="m25.125 3c-1.125 0-1.125 1.1426-1.125 1.1426v10.732c0 0.85738 0.63281 1.0714 0.94922 1.125h16.059c0.98066-0.093346 0.99219-1.125 0.99219-1.125v-10.732s0-1.1426-1.125-1.1426zm0.875 2h14v8.9863l-14 0.02734zm-2 12c-0.554 0-1 0.446-1 1s0.446 1 1 1h18c0.554 0 1-0.446 1-1s-0.446-1-1-1z" fill="#dfdfdf"/>
 </g>
 <g id="16-16-computer-laptop" transform="translate(-2e-4,32)">
  <rect x="22" y="22" width="22" height="22" opacity=".001"/>
  <path d="m26 26c-1 0-1 1-1 1v9.0039c0 0.93776 0.85107 0.99243 0.96094 0.99609h14.068c0.96707-0.021714 0.9707-0.99609 0.9707-0.99609v-9.0039s0-1-1-1zm1 2h12v6.9766l-12 0.02539zm-2 10c-0.554 0-1 0.446-1 1s0.446 1 1 1h16c0.554 0 1-0.446 1-1s-0.446-1-1-1z" fill="#dfdfdf"/>
 </g>
</svg>
