<?xml version="1.0" encoding="UTF-8"?>
<svg width="32" height="32" version="1.1" xmlns="http://www.w3.org/2000/svg">
 <g id="22-22-configure" transform="translate(32,10)">
  <rect width="22" height="22" opacity=".001"/>
  <path d="m8.9824 3-0.17773 2.1074a6.3423 6.2857 0 0 0-1.8535 1.0625l-1.9336-0.90234-2.0176 3.4648 1.7539 1.207a6.3423 6.2857 0 0 0-0.095703 1.0605 6.3423 6.2857 0 0 0 0.091797 1.0645l-1.75 1.2031 2.0176 3.4648 1.9277-0.90039a6.3423 6.2857 0 0 0 1.8594 1.0566l0.17773 2.1113h4.0352l0.17773-2.1074a6.3423 6.2857 0 0 0 1.8535-1.0625l1.9336 0.90234 2.0176-3.4648-1.7539-1.207a6.3423 6.2857 0 0 0 0.095703-1.0605 6.3423 6.2857 0 0 0-0.091797-1.0645l1.75-1.2031-2.0176-3.4648-1.9277 0.90039a6.3423 6.2857 0 0 0-1.8594-1.0566l-0.17773-2.1113zm2.0176 5a3 3 0 0 1 3 3 3 3 0 0 1-3 3 3 3 0 0 1-3-3 3 3 0 0 1 3-3z" fill="#dfdfdf"/>
 </g>
 <g id="16-16-configure" transform="translate(51,34)">
  <rect x="3" y="-18" width="16" height="16" opacity="0"/>
  <g id="layer2" transform="translate(-421.06 -446)">
   <path d="m430.25 429-0.1543 1.8438a5.5 5.5 0 0 0-1.6074 0.92969l-1.6758-0.78906-1.75 3.0312 1.5215 1.0566a5.5 5.5 0 0 0-0.084 0.92773 5.5 5.5 0 0 0 0.0801 0.93164l-1.5176 1.0527 1.75 3.0312 1.6719-0.7871a5.5 5.5 0 0 0 1.6113 0.92382l0.1543 1.8477h3.5l0.1543-1.8438a5.5 5.5 0 0 0 1.6074-0.92969l1.6758 0.78906 1.75-3.0312-1.5215-1.0566a5.5 5.5 0 0 0 0.084-0.92773 5.5 5.5 0 0 0-0.0801-0.93164l1.5176-1.0527-1.75-3.0312-1.6719 0.7871a5.5 5.5 0 0 0-1.6113-0.92382l-0.1543-1.8477zm1.75 5a2 2 0 0 1 2 2 2 2 0 0 1-2 2 2 2 0 0 1-2-2 2 2 0 0 1 2-2z" fill="#dfdfdf"/>
  </g>
 </g>
 <g id="configure">
  <rect width="32" height="32" opacity=".001"/>
  <g transform="translate(9.6369e-5 .9999)">
   <path d="m13.134 1.0006c-0.29681 0.0323-0.55825 0.27515-0.6125 0.56874l-0.59061 2.9968c-1.0603 0.41466-2.0568 0.98438-2.9312 1.6844l-2.909-0.9844c-0.30225-0.10422-0.66885 0.0308-0.83124 0.30625l-2.8 4.8562c-0.15772 0.2793-0.0901 0.66583 0.15312 0.87499l2.3187 2.0343c-0.0816 0.54547-0.13125 1.0943-0.13125 1.6625 0 0.56822 0.0496 1.117 0.13125 1.6625l-2.3187 2.0344c-0.24319 0.20916-0.31084 0.59569-0.15312 0.87499l2.8 4.8562c0.16239 0.2754 0.52899 0.41046 0.83124 0.30624l2.9093-0.98436c0.87441 0.69997 1.8709 1.2697 2.9312 1.6844l0.59061 2.9968c0.0599 0.3137 0.35879 0.56439 0.67812 0.56874h5.5999c0.31933-4e-3 0.61824-0.25504 0.67811-0.56874l0.59062-2.9968c1.0603-0.41466 2.0568-0.98439 2.9312-1.6844l2.9093 0.98436c0.30224 0.10422 0.66885-0.0308 0.83124-0.30624l2.8-4.8562c0.15771-0.2793 0.0901-0.66583-0.15312-0.87499l-2.3187-2.0344c0.0816-0.54547 0.13124-1.0942 0.13124-1.6625 0-0.56822-0.0497-1.117-0.13124-1.6625l2.3187-2.0343c0.24319-0.20916 0.31083-0.59569 0.15312-0.87499l-2.8-4.8562c-0.16239-0.2754-0.529-0.41047-0.83124-0.30625l-2.9093 0.98436c-0.875-0.7005-1.871-1.2702-2.931-1.6849l-0.59062-2.9968c-0.0599-0.3137-0.35878-0.5644-0.67811-0.56874h-5.5999c-0.0219-5.1e-4 -0.0438-5.1e-4 -0.0656 0z" fill="#325f78"/>
   <path d="m16 10c3.3137 0 6 2.6863 6 6s-2.6863 6-6 6-6-2.6863-6-6 2.6863-6 6-6z" opacity=".2"/>
   <path d="m16 9.0002c3.3137 0 6 2.6863 6 6s-2.6863 6-6 6-6-2.6863-6-6 2.6863-6 6-6z" fill="#fff"/>
   <path d="m13.125 1.0002c-0.29681 0.0323-0.5395 0.26891-0.59375 0.5625l-0.59375 3c-1.0603 0.41466-2.0631 0.98753-2.9375 1.6875l-2.9058-0.9688c-0.30225-0.10422-0.68136 6e-3 -0.84375 0.28125l-2.6875 4.6875c0.01904 0.0215 0.04057 0.0436 0.0625 0.0625l0.3125 0.28125 2.3125-4.0312c0.16239-0.27545 0.5415-0.38547 0.84375-0.28125l2.9062 0.96875c0.87441-0.69997 1.8772-1.2728 2.9375-1.6875l0.59375-3c0.0542-0.29359 0.29694-0.5302 0.59375-0.5625 0.0218-5.1e-4 0.0406-5.1e-4 0.0625 0h5.625c0.31933 4e-3 0.59635 0.2488 0.65625 0.5625l0.59375 3c1.0603 0.41466 2.0631 0.98753 2.9375 1.6875l2.9062-0.96875c0.30224-0.10422 0.68136 6e-3 0.84375 0.28125l2.3125 4.0312 0.3125-0.28125c0.0219-0.0189 0.0435-0.041 0.0625-0.0625l-2.6875-4.6875c-0.16239-0.2754-0.54151-0.38547-0.84375-0.28125l-2.9062 0.96875c-0.87441-0.69997-1.8772-1.2728-2.9375-1.6875l-0.59375-3c-0.0599-0.3137-0.33692-0.55816-0.65625-0.5625h-5.625c-0.0219-5.1e-4 -0.0407-5.1e-4 -0.0625 0zm-10.719 9.6562c-0.01685 0.0926-0.01947 0.15743 0 0.25-0.01419-0.0788-0.01174-0.17122 0-0.25zm27.188 0c0.0118 0.0788 0.0142 0.17115 0 0.25 0.0195-0.0926 0.0169-0.15743 0-0.25zm-24.75 3.5938c-6e-3 0.082 0.0046 0.1671 0 0.25 0.0085 0.16951 0.02035 0.33388 0.03125 0.5 0.01435-0.21861 0.02988-0.43823 0.0625-0.65625zm22.312 0-0.0937 0.0937c0.0326 0.21802 0.0482 0.43764 0.0625 0.65625 0.0109-0.16612 0.0228-0.33049 0.0312-0.5-5e-3 -0.0829 6e-3 -0.16804 0-0.25zm-22.312 2.5-2.2188 1.9375c-0.02193 0.0189-0.04342 0.041-0.0625 0.0625l0.375 0.65625 2-1.75c-0.04536-0.303-0.07118-0.59845-0.09375-0.90625zm22.312 0c-0.0226 0.3078-0.0484 0.60325-0.0937 0.90625l2 1.75 0.375-0.65625c-0.0191-0.0215-0.0406-0.0436-0.0625-0.0625z" fill="#fff" opacity=".1"/>
   <path d="m2.5664 11.243-0.10742 0.18555c-0.15772 0.2793-0.088923 0.66584 0.1543 0.875l2.2187 1.947c0.022588-0.30668 0.054444-0.6102 0.099609-0.91211l-2.3183-2.035c-0.0196-0.018-0.0296-0.042-0.0469-0.061zm26.867 0c-0.01729 0.019-0.02729 0.0437-0.04687 0.06055l-2.3184 2.0352c0.04513 0.30191 0.07701 0.60543 0.09961 0.91211l2.2188-1.9473c0.24319-0.20916 0.31201-0.5957 0.1543-0.875l-0.107-0.186zm-24.611 4.258c-0.00833 0.16613-0.021484 0.33085-0.021484 0.5 0 0.25372 0.013035 0.5026 0.03125 0.75l0.099609-0.08789c-0.0574-0.383-0.0898-0.77-0.1094-1.162zm22.355 0c-0.01966 0.39194-0.05207 0.77902-0.10938 1.1621l0.09961 0.08789c0.01822-0.2474 0.03125-0.49628 0.03125-0.75 0-0.16915-0.01315-0.33387-0.02148-0.5zm-24.611 4.258c-0.1973 0.217-0.2524 0.557-0.1074 0.814l2.8008 4.8555c0.16239 0.2754 0.52783 0.41086 0.83008 0.30664l2.9101-0.985c0.87441 0.69997 1.8714 1.2709 2.9316 1.6855l0.58984 2.9961c0.0599 0.3137 0.3584 0.56401 0.67774 0.56836h5.6016c0.31933-4e-3 0.61786-0.25466 0.67774-0.56836l0.58984-2.9961c1.059-0.415 2.056-0.986 2.93-1.686l2.9102 0.98438c0.30224 0.10422 0.66769-0.0312 0.83008-0.30664l2.8008-4.8555c0.14501-0.2568 0.0899-0.59757-0.10742-0.81445l-2.6934 4.6699c-0.16239 0.27544-0.52784 0.41086-0.83008 0.30664l-2.911-0.985c-0.87441 0.69997-1.8714 1.2689-2.9316 1.6836l-0.58984 2.998c-0.059 0.313-0.358 0.564-0.677 0.568h-5.6016c-0.31933-0.0043-0.61784-0.25466-0.67774-0.56836l-0.589-2.998c-1.061-0.415-2.0576-0.984-2.932-1.684l-2.9102 0.984c-0.3022 0.105-0.6676-0.031-0.83-0.306l-2.6934-4.67z" opacity=".2"/>
  </g>
 </g>
</svg>
