<?xml version="1.0" encoding="UTF-8"?>
<svg width="32" height="32" version="1.1" xmlns="http://www.w3.org/2000/svg">
 <g id="16-16-distribute-horizontal-x" transform="translate(46,8)">
  <rect x="8" y="8" width="16" height="16" opacity=".001"/>
  <path transform="translate(-46,-8)" d="m56 20c-0.554 0-1 0.446-1 1v6c0 0.554 0.446 1 1 1h1 1 1v-1-6-1h-1-1-1zm9 0v1 6 1h1 1 1c0.554 0 1-0.446 1-1v-6c0-0.554-0.446-1-1-1h-1-1-1zm-5 2v4h1v-1h2v1h1v-4h-1v1h-2v-1h-1z" fill="#dfdfdf"/>
 </g>
 <g id="22-22-distribute-horizontal-x" transform="translate(27,5)">
  <rect x="5" y="5" width="22" height="22" opacity=".001"/>
  <path transform="translate(-27,-5)" d="m36.428 17c-0.79143 0-1.4277 0.50944-1.4277 1.1426v5.7148c0 0.63314 0.63631 1.1426 1.4277 1.1426h0.57227 0.14258 2.8574v-1.1426-5.7148-1.1426h-2.8574-0.14258-0.57227zm9.5723 0v6.8574 1.1426h1.4277 1.5723 0.57227c0.79143 0 1.4277-0.50944 1.4277-1.1426v-5.7148c0-0.63314-0.63631-1.1426-1.4277-1.1426h-0.57227-1.5723-1.4277zm-5 2v4h1v-1h2v1h1v-4h-1v1h-2v-1h-1z" fill="#dfdfdf"/>
 </g>
 <g id="distribute-horizontal-x">
  <rect width="32" height="32" opacity=".001"/>
  <path d="m5 10c-1.108 0-2 0.892-2 2v10c0 1.108 0.892 2 2 2h1 2 2v-2-10-2h-2-2-1zm17 0v2 10 2h2 2 1c1.108 0 2-0.892 2-2v-10c0-1.108-0.892-2-2-2h-1-2-2zm-9 3a1 1 0 0 0-1 1v1 4 1a1 1 0 0 0 1 1 1 1 0 0 0 1-1v-1h4v1a1 1 0 0 0 1 1 1 1 0 0 0 1-1v-6a1 1 0 0 0-1-1 1 1 0 0 0-1 1v1h-4v-1a1 1 0 0 0-1-1z" opacity=".2"/>
  <path d="m5 9c-1.108 0-2 0.892-2 2v10c0 1.108 0.892 2 2 2h1 2 2v-2-10-2h-2-2-1zm17 0v2 10 2h2 2 1c1.108 0 2-0.892 2-2v-10c0-1.108-0.892-2-2-2h-1-2-2z" fill="#4f4f4f"/>
  <path d="m13 12a1 1 0 0 0-1 1v1 4 1a1 1 0 0 0 1 1 1 1 0 0 0 1-1v-1h4v1a1 1 0 0 0 1 1 1 1 0 0 0 1-1v-6a1 1 0 0 0-1-1 1 1 0 0 0-1 1v1h-4v-1a1 1 0 0 0-1-1z" fill="#5cc0ff"/>
  <path d="m5 9c-1.108 0-2 0.892-2 2v1c0-1.108 0.892-2 2-2h1 2 2v-1h-2-2-1zm17 0v1h2 2 1c1.108 0 2 0.892 2 2v-1c0-1.108-0.892-2-2-2h-1-2-2z" fill="#fff" opacity=".1"/>
  <path d="m13 12a1 1 0 0 0-1 1v1a1 1 0 0 1 1-1 1 1 0 0 1 1 1v-1a1 1 0 0 0-1-1zm1 2v1h4v-1h-4zm4 0a1 1 0 0 1 1-1 1 1 0 0 1 1 1v-1a1 1 0 0 0-1-1 1 1 0 0 0-1 1v1z" fill="#fff" opacity=".2"/>
 </g>
</svg>
