<?xml version="1.0" encoding="UTF-8"?>
<svg width="32" height="32" version="1.1" xmlns="http://www.w3.org/2000/svg">
 <g id="22-22-document-encrypt" transform="translate(-315,235)">
  <rect x="347" y="-257" width="22" height="22" opacity=".001"/>
  <path d="m358-254c-5.0026-3e-3 -5 4.6429-5 4.6429v2.3571h-0.83333c-0.64633 0-1.1667 0.36686-1.1667 1v6.8571c0 0.63315 0.52034 1.1429 1.1667 1.1429h11.667c0.64633 0 1.1667-0.50971 1.1667-1.1429v-6.8571c0-0.63314-0.52963-0.89079-1.1667-1h-0.83333v-2.3571s3e-3 -4.6395-5-4.6429zm0 3c2.0026-3e-3 2 1.5714 2 1.5714v2.4286h-4v-2.4286s3e-3 -1.5681 2-1.5714z" fill="#4caf50"/>
 </g>
 <g id="22-22-document-open-recent" transform="translate(-351,243)">
  <rect x="383" y="-233" width="22" height="22" opacity=".001"/>
  <path d="m394-231a9 9 0 0 0-9 9 9 9 0 0 0 9 9 9 9 0 0 0 9-9 9 9 0 0 0-9-9zm0 3a6 6 0 0 1 6 6 6 6 0 0 1-6 6 6 6 0 0 1-6-6 6 6 0 0 1 6-6zm-1 1v6h0.082v0.0117l3.4531 3.4531 1.4141-1.4141-2.9492-2.9512v-5.0996h-2z" fill="#dfdfdf"/>
 </g>
 <g id="22-22-document-decrypt" transform="translate(0,-32)">
  <rect x="32" y="-22" width="22" height="22" opacity=".001"/>
  <path d="m43-19c-0.29193-1.73e-4 -0.56163 0.01983-0.82031 0.04883-0.05558 0.0064-0.108 0.01576-0.16211 0.02344-0.22434 0.03101-0.43691 0.07219-0.63672 0.12305-0.01813 0.0047-0.03675 0.0088-0.05469 0.01367-0.70286 0.18683-1.2464 0.49174-1.6816 0.85352-0.06427 0.05356-0.11839 0.11203-0.17773 0.16797-0.20656 0.19466-0.38808 0.39574-0.53906 0.60938-0.02271 0.03181-0.0448 0.06366-0.06641 0.0957-0.2673 0.40083-0.45378 0.80441-0.57617 1.1855-0.01598 0.04783-0.02876 0.09002-0.04297 0.13672-0.0555 0.18983-0.10019 0.36176-0.13086 0.52344-0.01782 0.08829-0.02891 0.1314-0.04102 0.20898-4.44e-4 0.0029-0.0015 0.0069-2e-3 0.0098-0.054141 0.35481-0.068299 0.64254-0.068299 0.64254v0.35742h3v-0.42773s6e-3 -0.2629 0.14062-0.57227h2e-3c0.04531-0.10322 0.10944-0.21244 0.18945-0.31836 0.01315-0.01732 0.02873-0.03363 0.04297-0.05078 0.07226-0.08727 0.16543-0.16874 0.26953-0.24609 0.03312-0.02445 0.06486-0.04943 0.10156-0.07227 0.11103-0.0694 0.24692-0.12641 0.39453-0.17578 0.05094-0.01689 0.09277-0.03887 0.14844-0.05274 0.04111-0.01033 0.08705-0.01686 0.13086-0.02539 0.17381-0.033383 0.3607-0.058917 0.58003-0.058587 0.2207-3.31e-4 0.40735 0.02481 0.58203 0.05859 0.04176 0.0082 0.0857 0.01363 0.125 0.02344 0.06035 0.01495 0.10534 0.0401 0.16016 0.05859 0.14238 0.04835 0.27481 0.10279 0.38281 0.16992 0.04047 0.02509 0.07519 0.05306 0.11133 0.08008 0.09785 0.07357 0.1866 0.14993 0.25586 0.23242 0.01896 0.02253 0.03762 0.04553 0.05469 0.06836 0.07669 0.10308 0.14151 0.20826 0.18555 0.30859 0.13459 0.30937 0.14258 0.57227 0.14258 0.57227v2.4277h-7.834c-0.56762 0-1.0365 0.28348-1.1426 0.78125-0.015709 0.067852-0.023438 0.13961-0.023438 0.21875v6.8574c0 0.63315 0.51969 1.1426 1.166 1.1426h11.668c0.64633 0 1.166-0.50943 1.166-1.1426v-6.8574c0-0.63314-0.51969-1-1.166-1h-0.83398v-2.3574s-0.0141-0.2877-0.06836-0.64258c-8.33e-4 -0.0054-0.0011-0.0043-2e-3 -0.0098-0.01252-0.08031-0.02625-0.127-0.04492-0.21875-0.03077-0.16065-0.07373-0.33153-0.12891-0.51953-0.01274-0.04171-0.02492-0.07849-0.03906-0.12109-0.12121-0.37993-0.30519-0.78309-0.57031-1.1836-0.02561-0.03825-0.0529-0.07536-0.08008-0.11328-0.15541-0.21907-0.34057-0.42628-0.55469-0.625-0.05255-0.04881-0.0999-0.09953-0.15625-0.14648-0.43528-0.36178-0.98073-0.66669-1.6836-0.85352-0.01855-5e-3 -0.03789-0.0088-0.05664-0.01367-0.19844-0.05043-0.40824-0.09218-0.63086-0.12305-0.05483-0.0078-0.10772-0.01694-0.16406-0.02344-0.25876-0.028996-0.52819-0.048964-0.82027-0.048794z" fill="#f44336"/>
 </g>
 <g id="document-encrypt" transform="translate(0,-32)">
  <rect width="32" height="32" opacity=".001"/>
  <g transform="translate(-2e-4)">
   <path d="m16 2c-4.432 0-8 3.568-8 8v3h3v-3c0-2.77 2.23-5 5-5s5 2.23 5 5v3h3v-3c0-4.432-3.568-8-8-8z" fill="#d2d2d2"/>
   <rect transform="matrix(0,-1,-1,0,0,0)" x="-30" y="-27" width="17" height="22" rx="1.4" ry="1.4" fill="#4caf50"/>
   <path d="m16 2c-4.432 0-8 3.568-8 8v1c0-4.432 3.568-8 8-8s8 3.568 8 8v-1c0-4.432-3.568-8-8-8z" fill="#fff" opacity=".1"/>
   <path d="m6.4004 13c-0.7756 0-1.4004 0.625-1.4004 1.4v1c0-0.775 0.6248-1.4 1.4004-1.4h19.2c0.775 0 1.4 0.625 1.4 1.4v-1c0-0.775-0.625-1.4-1.4-1.4z" fill="#fff" opacity=".1"/>
   <path d="m5 27.6v1c0 0.775 0.6248 1.4 1.4004 1.4h19.2c0.775 0 1.4-0.625 1.4-1.4v-1c0 0.775-0.625 1.4-1.4 1.4h-19.2c-0.7752 0-1.4-0.625-1.4-1.4z" fill="#3b863d"/>
   <path d="m5 26.6v1c0 0.775 0.6248 1.4 1.4004 1.4h19.2c0.775 0 1.4-0.625 1.4-1.4v-1c0 0.775-0.625 1.4-1.4 1.4h-19.2c-0.7752 0-1.4-0.625-1.4-1.4z" fill="#fff" opacity=".1"/>
   <rect x="5" y="16" width="22" height="10" rx="0" ry="0" fill="#81c784"/>
   <path d="m16 5c-2.77 0-5 2.23-5 5v1c0-2.77 2.23-5 5-5s5 2.23 5 5v-1c0-2.77-2.23-5-5-5zm-11 23.6v1c0 0.775 0.6248 1.4 1.4004 1.4h19.2c0.775 0 1.4-0.625 1.4-1.4v-1c0 0.775-0.625 1.4-1.4 1.4h-19.2c-0.7752 0-1.4-0.625-1.4-1.4z" opacity=".2"/>
  </g>
 </g>
 <g id="document-decrypt" transform="translate(0,-32)">
  <rect y="-32" width="32" height="32" opacity=".001"/>
  <path d="m16-30c-0.26659 0-0.52937 0.01382-0.78906 0.03906-0.09427 0.0092-0.18603 0.02669-0.2793 0.03906-0.16372 0.02174-0.32792 0.04279-0.48828 0.07422-0.10104 0.01977-0.19921 0.0468-0.29883 0.07031-0.15132 0.03579-0.30142 0.07297-0.44922 0.11719-0.09929 0.02963-0.19536 0.06433-0.29297 0.09766-0.13986 0.04785-0.27983 0.09514-0.41602 0.15039-0.10325 0.04182-0.20366 0.08882-0.30469 0.13476-0.12237 0.05574-0.24436 0.11219-0.36328 0.17383-0.11008 0.05694-0.21723 0.11786-0.32422 0.17969-0.1056 0.06113-0.21006 0.12369-0.3125 0.18945-0.10967 0.07028-0.21638 0.14335-0.32227 0.21875-0.08539 0.06091-0.16912 0.12335-0.25195 0.1875-0.11993 0.09273-0.23722 0.18784-0.35156 0.28711-0.06097 0.05303-0.12037 0.10727-0.17969 0.16211-0.11951 0.11026-0.23705 0.22252-0.34961 0.33984-0.05459 0.05702-0.10531 0.11715-0.1582 0.17578-0.11464 0.12678-0.22759 0.25467-0.33398 0.38867-0.029443 0.03717-0.057147 0.07558-0.085937 0.11328-0.11946 0.15608-0.23586 0.3136-0.34375 0.47852-0.00859 0.01315-0.014927 0.02781-0.023437 0.04102-0.63638 0.98541-1.0614 2.1189-1.2129 3.3418-0.040649 0.32811-0.068359 0.66054-0.068359 1h3c0-0.34283 0.03449-0.67692 0.09961-1 2.5e-4 -0.0012-2.51e-4 -0.0027 0-0.0039 0.0048-0.02369 0.01636-0.0448 0.02149-0.06836 0.06148-0.28271 0.14705-0.55599 0.25391-0.81836 0.03992-0.09801 0.09284-0.18845 0.13867-0.2832 0.08682-0.17942 0.17637-0.35688 0.2832-0.52344 0.06485-0.1011 0.13918-0.19511 0.21094-0.29102 0.10942-0.14614 0.22318-0.28882 0.34766-0.42188 0.08604-0.09197 0.1768-0.17845 0.26953-0.26367 0.13149-0.12078 0.27009-0.2336 0.41406-0.33984 0.09708-0.07162 0.19457-0.14246 0.29688-0.20703 0.16496-0.10407 0.33826-0.19475 0.51562-0.2793 0.09775-0.0466 0.19376-0.0964 0.29492-0.13672 0.20053-0.07986 0.41054-0.13961 0.62305-0.19336 0.10033-0.02537 0.19614-0.06084 0.29883-0.08008 0.03919-0.0073 0.07963-0.01115 0.11914-0.01758 0.26487-0.04305 0.53508-0.072268 0.81249-0.072268s0.54762 0.02922 0.8125 0.07227c0.03951 0.0064 0.07995 0.01024 0.11914 0.01758 0.10269 0.01923 0.19849 0.05471 0.29883 0.08008 0.21251 0.05374 0.42251 0.1135 0.62305 0.19336 0.10117 0.04032 0.19717 0.09012 0.29492 0.13672 0.17736 0.08455 0.35067 0.17523 0.51562 0.2793 0.10231 0.06457 0.1998 0.13541 0.29688 0.20703 0.14397 0.10624 0.28257 0.21906 0.41406 0.33984 0.09273 0.08522 0.1835 0.1717 0.26953 0.26367 0.12448 0.13305 0.23823 0.27574 0.34766 0.42188 0.07176 0.09591 0.14609 0.18991 0.21094 0.29102 0.10684 0.16656 0.19639 0.34402 0.2832 0.52344 0.04583 0.09475 0.09875 0.1852 0.13867 0.2832 0.10685 0.26237 0.19242 0.53565 0.25391 0.81836 0.0051 0.0236 0.01668 0.04464 0.02148 0.06836 2.53e-4 0.0012-2.52e-4 0.0027 0 0.0039 0.06511 0.32308 0.09961 0.65717 0.09961 1v3h3v-3c0-0.33946-0.02771-0.67189-0.06836-1-0.1515-1.2229-0.57651-2.3564-1.2129-3.3418-0.0073-0.01125-0.01221-0.02394-0.01953-0.03516-0.0013-2e-3 -0.0026-0.0039-0.0039-0.0059-0.10789-0.16491-0.22429-0.32243-0.34375-0.47852-0.02879-0.03771-0.05649-0.07611-0.08594-0.11328-0.1064-0.134-0.21935-0.2619-0.33398-0.38867-0.05289-0.05863-0.10361-0.11876-0.1582-0.17578-0.11256-0.11732-0.2301-0.22958-0.34961-0.33984-0.05932-0.05484-0.11871-0.10908-0.17969-0.16211-0.11434-0.09927-0.23163-0.19438-0.35156-0.28711-0.08283-0.06415-0.16656-0.12659-0.25195-0.1875-0.10589-0.0754-0.2126-0.14847-0.32227-0.21875-0.10244-0.06576-0.2069-0.12832-0.3125-0.18945-0.10699-0.06182-0.21414-0.12275-0.32422-0.17969-0.11892-0.06163-0.24092-0.11809-0.36328-0.17383-0.10103-0.04594-0.20143-0.09295-0.30469-0.13476-0.13619-0.05525-0.27615-0.10254-0.41602-0.15039-0.09761-0.03333-0.19368-0.06802-0.29297-0.09766-0.1478-0.04421-0.2979-0.0814-0.44922-0.11719-0.09962-0.02351-0.19778-0.05054-0.29883-0.07031-0.16036-0.03143-0.32456-0.05248-0.48828-0.07422-0.09326-0.01237-0.18503-0.02991-0.2793-0.03906-0.25969-0.025202-0.52247-0.039019-0.78906-0.039019z" fill="#d2d2d2"/>
  <rect transform="matrix(0,-1,-1,0,0,0)" x="2" y="-27" width="17" height="22" rx="1.4" ry="1.4" fill="#fe3838"/>
  <path d="m6.4-19c-0.7756 0-1.4004 0.625-1.4004 1.4v1c0-0.775 0.6248-1.4 1.4004-1.4h19.2c0.775 0 1.4 0.625 1.4 1.4v-1c0-0.775-0.625-1.4-1.4-1.4z" fill="#fff" opacity=".1"/>
  <path d="m4.9996-4.4v1c0 0.775 0.6248 1.4 1.4004 1.4h19.2c0.775 0 1.4-0.625 1.4-1.4v-1c0 0.775-0.625 1.4-1.4 1.4h-19.2c-0.7752 0-1.4-0.625-1.4-1.4z" fill="#cb2f05"/>
  <path d="m4.9996-5.4v1c0 0.775 0.6248 1.4 1.4004 1.4h19.2c0.775 0 1.4-0.625 1.4-1.4v-1c0 0.775-0.625 1.4-1.4 1.4h-19.2c-0.7752 0-1.4-0.625-1.4-1.4z" fill="#fff" opacity=".1"/>
  <rect x="5" y="-16" width="22" height="10" rx="0" ry="0" fill="#fe846a"/>
 </g>
 <g id="16-16-document-encrypt" transform="translate(-296,270)">
  <rect x="350" y="-286" width="16" height="16" opacity=".001"/>
  <g transform="translate(2.9974 -35.003)">
   <path d="m355-250c-2.216 0-4 1.8216-4 4.0625v1.9375h-1c-0.554 0-1 0.446-1 1v6c0 0.554 0.446 1 1 1h10c0.554 0 1-0.446 1-1v-6c0-0.554-0.446-1-1-1h-1v-1.9375c0-2.24-1.784-4.0625-4-4.0625zm0 2c1.108 0 2 0.892 2 2v2h-4v-2c0-1.108 0.892-2 2-2z" fill="#4caf50"/>
  </g>
 </g>
 <g id="16-16-document-decrypt" transform="translate(-1.0024 -33.003)">
  <rect x="55" y="-15" width="16" height="16" opacity=".001"/>
  <g transform="translate(-292 236)">
   <path transform="translate(292 -236)" d="m63-14c-2.1949 0-3.9605 1.7886-3.9941 4h1.9941c0-1.108 0.892-2 2-2s2 0.892 2 2v2h-7c-0.554 0-1 0.446-1 1v6c0 0.554 0.446 1 1 1h10c0.554 0 1-0.446 1-1v-6c0-0.554-0.446-1-1-1h-1v-1.9375c0-2.24-1.784-4.0625-4-4.0625z" fill="#f44336"/>
  </g>
 </g>
 <g id="document-open-recent">
  <rect width="32" height="32" opacity=".001"/>
  <circle cx="16" cy="17" r="14" opacity=".2"/>
  <circle cx="16" cy="16" r="14" fill="#16ace6"/>
  <circle cx="16" cy="17" r="10" opacity=".2"/>
  <circle cx="16" cy="16" r="10" fill="#fff"/>
  <rect x="14" y="7" width="4" height="11" rx="2" ry="2.2" fill="#626262"/>
  <path d="M 16,2 A 14,14 0 0 0 2,16 14,14 0 0 0 2.0214844,16.585938 14,14 0 0 1 16,3 14,14 0 0 1 29.978516,16.414062 14,14 0 0 0 30,16 14,14 0 0 0 16,2 Z" fill="#fff" opacity=".2"/>
  <rect transform="rotate(135)" x="-2" y="-31.63" width="4" height="11" rx="2" ry="2.2" fill="#626262"/>
  <circle cx="16" cy="17" r="3" opacity=".1"/>
  <circle cx="16" cy="16" r="3" fill="#8e8e8e"/>
 </g>
 <g id="16-16-document-open-recent" transform="translate(-2,-26)">
  <rect x="56" y="42" width="16" height="16" opacity=".001"/>
  <path d="m64 43a7 7 0 0 0-7 7 7 7 0 0 0 7 7 7 7 0 0 0 7-7 7 7 0 0 0-7-7zm0 2a5 5 0 0 1 5 5 5 5 0 0 1-5 5 5 5 0 0 1-5-5 5 5 0 0 1 5-5zm0 1a4 4 0 0 0-1 0.13086v4.8691l2.6426 2.6426a4 4 0 0 0 1.5645-1.2637l-2.207-2.207v-4.0391a4 4 0 0 0-1-0.13281z" fill="#dfdfdf"/>
 </g>
</svg>
