<?xml version="1.0" encoding="UTF-8"?>
<svg width="32" height="32" version="1.1" xmlns="http://www.w3.org/2000/svg">
 <g id="16-16-drive-harddisk" transform="translate(74,10)">
  <rect x="-20" y="6" width="16" height="16" ry="0" opacity=".001"/>
  <path d="m-17 7c-1 0-1 1-1 1v12s0 1 1 1h10s1 0 1-1v-12s0-1-1-1zm5 2c2.2091 0 4 1.7909 4 4s-1.7909 4-4 4h-4v-4c0-2.2091 1.7909-4 4-4zm0 2c-1.1046 0-2 0.89543-2 2s0.89543 2 2 2 2-0.89543 2-2-0.89543-2-2-2z" fill="#dfdfdf"/>
 </g>
 <g id="22-22-drive-harddisk" transform="translate(32,10)">
  <rect width="22" height="22" ry="1.375" opacity=".001"/>
  <path d="m5.166 3c-1.1667 0-1.166 1.1426-1.166 1.1426v13.715s-6.5e-4 1.1426 1.166 1.1426h11.668s1.166 2.79e-4 1.166-1.1426v-13.715s6.5e-4 -1.1426-1.166-1.1426zm5.834 2c2.7614 0 5 2.2386 5 5s-2.2386 5-5 5h-5v-5c0-2.7614 2.2386-5 5-5zm0 3c-1.1046 0-2 0.89543-2 2s0.89543 2 2 2 2-0.89543 2-2-0.89543-2-2-2z" fill="#dfdfdf"/>
 </g>
 <g id="drive-harddisk">
  <rect width="32" height="32" rx="3.349" ry="2.145" opacity=".001"/>
  <rect transform="matrix(0,-1,-1,0,0,0)" x="-31" y="-27" width="28" height="22" rx="2" ry="2" opacity=".2"/>
  <rect transform="matrix(0,-1,-1,0,0,0)" x="-30" y="-27" width="28" height="22" rx="2" ry="2" fill="#8e8e8e"/>
  <path d="m16 6c-3.866 0-7 3.134-7 7v7h7c3.866 0 7-3.134 7-7s-3.134-7-7-7zm0 4a3 3 0 0 1 3 3 3 3 0 0 1-3 3 3 3 0 0 1-3-3 3 3 0 0 1 3-3z" opacity=".5"/>
  <path d="m7 2c-1.108 0-2 0.892-2 2v1c0-1.108 0.892-2 2-2h18c1.108 0 2 0.892 2 2v-1c0-1.108-0.892-2-2-2z" fill="#fff" opacity=".2"/>
 </g>
</svg>
