<?xml version="1.0" encoding="UTF-8"?>
<svg width="32" height="32" version="1.1" xmlns="http://www.w3.org/2000/svg">
 <g id="22-22-edit-delete" transform="translate(0,-32)">
  <rect x="32" y="42" width="22" height="22" opacity=".001"/>
  <path d="m42 46c-1 0-1 1-1 1h-3s-1 0-1 1v1h13v-1c0-1-1-1-1-1h-3s0-1-1-1zm-4 4v9c0 0.52 0.48 1 1 1h9c0.52 0 1-0.48 1-1v-9zm2 2h0.90625c0.28336 0 0.53565 0.09445 0.68164 0.22266l1.9121 1.668 1.9121-1.668c0.146-0.1282 0.39828-0.22266 0.68164-0.22266h0.90625v0.73633c0 0.20124-0.08178 0.38474-0.22852 0.51367l-2.002 1.75 2.002 1.75c0.12712 0.11163 0.19195 0.29569 0.22852 0.5625v0.6875h-0.90625c-0.28336 0-0.53564-0.09445-0.68164-0.22266l-1.9121-1.6777-1.9121 1.6777c-0.146 0.12821-0.39828 0.22266-0.68164 0.22266h-0.90625v-0.73633c0-0.20124 0.08192-0.38494 0.22852-0.51367l2.002-1.75-2.002-1.75c-0.14703-0.12933-0.22852-0.31243-0.22852-0.51367z" fill="#dfdfdf"/>
 </g>
 <g id="edit-delete">
  <rect width="32" height="32" opacity=".001"/>
  <rect x="5" y="4" width="23" height="26" rx="1.5" ry="1.5" opacity=".2"/>
  <rect x="5" y="3" width="23" height="26" rx="1.5" ry="1.5" fill="#8e8e8e"/>
  <rect x="12" y="2" width="9" height="3" fill="#9f9f9f"/>
  <rect x="3" y="4" width="27" height="6" rx="1.5" ry="1.5" opacity=".2"/>
  <rect x="3" y="3" width="27" height="6" rx="1.5" ry="1.5" fill="#9f9f9f"/>
  <path d="m4.5 3c-0.831 0-1.5 0.669-1.5 1.5v1c0-0.831 0.669-1.5 1.5-1.5h24c0.831 0 1.5 0.669 1.5 1.5v-1c0-0.831-0.669-1.5-1.5-1.5z" fill="#fff" opacity=".2"/>
  <path d="m9 13h1.942c0.60721 0 1.1478 0.20464 1.4607 0.48242l4.0974 3.6139 4.0974-3.6139c0.31285-0.27777 0.85345-0.48242 1.4607-0.48242h1.942v1.5954c0 0.43602-0.17524 0.8336-0.48968 1.113l-4.2899 3.7917 4.2899 3.7917c0.2724 0.24186 0.41131 0.64066 0.48968 1.2188v1.4896h-1.942c-0.60721 0-1.1478-0.20464-1.4607-0.48242l-4.0974-3.6351-4.0974 3.6351c-0.31285 0.27778-0.85345 0.48242-1.4607 0.48242h-1.942v-1.5954c0-0.43602 0.17554-0.83403 0.48968-1.113l4.2899-3.7917-4.2899-3.7917c-0.31506-0.28021-0.48968-0.67694-0.48968-1.113z" opacity=".2"/>
  <path d="m9 12h1.942c0.60721 0 1.1478 0.20464 1.4607 0.48242l4.0974 3.6139 4.0974-3.6139c0.31285-0.27777 0.85345-0.48242 1.4607-0.48242h1.942v1.5954c0 0.43602-0.17524 0.8336-0.48968 1.113l-4.2899 3.7917 4.2899 3.7917c0.2724 0.24186 0.41131 0.64066 0.48968 1.2188v1.4896h-1.942c-0.60721 0-1.1478-0.20464-1.4607-0.48242l-4.0974-3.6351-4.0974 3.6351c-0.31285 0.27778-0.85345 0.48242-1.4607 0.48242h-1.942v-1.5954c0-0.43602 0.17554-0.83403 0.48968-1.113l4.2899-3.7917-4.2899-3.7917c-0.31506-0.28021-0.48968-0.67694-0.48968-1.113z" fill="#fff"/>
 </g>
</svg>
