<?xml version="1.0" encoding="UTF-8"?>
<svg width="32" height="32" version="1.1" xmlns="http://www.w3.org/2000/svg">
 <g id="22-22-face-laughing" transform="translate(32,10)">
  <rect width="22" height="22" opacity=".001"/>
  <path d="m11 3a8 8 0 0 0-8 8 8 8 0 0 0 8 8 8 8 0 0 0 8-8 8 8 0 0 0-8-8zm-3 4a2 2 0 0 1 2 2 2 2 0 0 1-2 2 2 2 0 0 1-2-2 2 2 0 0 1 2-2zm6 0a2 2 0 0 1 2 2 2 2 0 0 1-2 2 2 2 0 0 1-2-2 2 2 0 0 1 2-2zm-7.0625 4.9863a1.0001 1.0001 0 0 1 0.099609 0 1.0001 1.0001 0 0 1 0.95312 0.86719s0.075177 0.506 0.47852 1.0508c0.40334 0.54478 1.0334 1.0957 2.5313 1.0957 1.4978 0 2.1279-0.55092 2.5312-1.0957 0.40334-0.54478 0.47852-1.0508 0.47852-1.0508a1.001 1.001 0 1 1 1.9805 0.29297s-0.14435 0.994-0.85156 1.9492c-0.70722 0.95522-2.0787 1.9043-4.1387 1.9043-2.06 0-3.4315-0.94908-4.1387-1.9043s-0.85156-1.9492-0.85156-1.9492a1.0001 1.0001 0 0 1 0.92773-1.1602z" fill="#dfdfdf"/>
 </g>
 <g id="face-laughing">
  <rect width="32" height="32" opacity=".001"/>
  <g transform="translate(-4e-4)">
   <rect transform="matrix(0,-1,-1,0,0,0)" x="-30" y="-30" width="28" height="28" rx="14" ry="14" fill="#fecd38"/>
   <path d="m16 2c-7.756 0-14 6.244-14 14 0 0.169 0.0195 0.333 0.0254 0.5 0.2637-7.5206 6.3874-13.5 13.975-13.5 7.5872 0 13.711 5.9794 13.975 13.5 6e-3 -0.16736 0.0254-0.33116 0.0254-0.5 0-7.756-6.244-14-14-14z" fill="#fff" opacity=".1"/>
   <g transform="matrix(.7 0 0 .7 -37.937 2.2578)" fill="#3f3f3f">
    <circle cx="69.91" cy="12.489" r="2.857"/>
    <circle cx="84.196" cy="12.489" r="2.857"/>
    <path d="m69.444 24.355a8.7947 10.554 0 0 0 7.6094 5.2768 8.7947 10.554 0 0 0 7.6026-5.2768h-1.0684a8.7947 10.554 0 0 1-6.5342 3.5179 8.7947 10.554 0 0 1-6.5376-3.5179z"/>
   </g>
   <path d="m2.0254 16.5c-0.0059 0.167-0.0254 0.331-0.0254 0.5 0 7.756 6.244 14 14 14s14-6.244 14-14c0-0.16884-0.01952-0.33264-0.02539-0.5-0.264 7.521-6.388 13.5-13.975 13.5-7.5872 0-13.711-5.979-13.975-13.5z" opacity=".2"/>
  </g>
 </g>
</svg>
