<?xml version="1.0" encoding="UTF-8"?>
<svg width="32" height="32" version="1.1" xmlns="http://www.w3.org/2000/svg">
 <g id="22-22-go-home" transform="translate(-455 137)">
  <path d="m465-105h22v22h-22z" opacity=".001"/>
  <path d="m468-94.003h2v8h5v-4h2v4h5v-8h2l-8-8z" fill="#dfdfdf"/>
 </g>
 <g id="22-22-go-up" transform="translate(-455 137)">
  <path d="m489-105v22h22v-22z" opacity=".001"/>
  <path d="m491.5-93.977 2.1164 2.1233 4.3674-4.3794v10.23h2.9934v-10.265l4.4044 4.4146 2.1184-2.1233-8-8.0264z" fill="#dfdfdf"/>
 </g>
 <g id="22-22-go-down" transform="matrix(1 0 0 -1 -431 -51.003)">
  <path d="m489-105v22h22v-22z" opacity=".001"/>
  <path d="m491.5-93.977 2.1164 2.1233 4.3674-4.3794v10.23h2.9934v-10.265l4.4044 4.4146 2.1184-2.1233-8-8.0264z" fill="#dfdfdf"/>
 </g>
 <g id="22-22-go-previous" transform="translate(-455 137)">
  <path d="m537-105h22v22h-22z" opacity=".001"/>
  <path d="m548.03-102.5 2.1233 2.1164-4.3794 4.3674h10.23v2.9934h-10.265l4.4146 4.4044-2.1233 2.1184-8.0264-8z" fill="#dfdfdf"/>
 </g>
 <g id="22-22-go-next" transform="matrix(-1 0 0 1 665 137)">
  <path d="m537-105h22v22h-22z" opacity=".001"/>
  <path d="m548.03-102.5 2.1233 2.1164-4.3794 4.3674h10.23v2.9934h-10.265l4.4146 4.4044-2.1233 2.1184-8.0264-8z" fill="#dfdfdf"/>
 </g>
 <g id="go-home">
  <rect width="32" height="32" opacity=".001"/>
  <g transform="translate(.016715)">
   <path d="m28 29.741v-15.459l-1.9552-1.9696c-0.47947-0.48299-3.4475-3.1165-4.1013-3.2431l-5.7622-4.2856-6.5032 4.4841c-0.55551 0.38303-3.3852 2.7436-3.849 3.2431l-1.8291 1.9696v15.261c0 0.69726 0.5352 1.2586 1.2 1.2586h21.6c0.6648 0 1.2-0.56133 1.2-1.2586z" opacity=".2"/>
   <path d="m28 28.741v-15.459l-1.9552-1.9696c-0.47947-0.48299-3.4475-3.1165-4.1013-3.2431l-5.7622-4.2856-6.5032 4.4841c-0.55551 0.38303-3.3852 2.7436-3.849 3.2431l-1.8291 1.9696v15.261c0 0.69726 0.5352 1.2586 1.2 1.2586h21.6c0.6648 0 1.2-0.56133 1.2-1.2586z" fill="#e4e4e4"/>
   <rect x="4" y="13" width="24" height="1" opacity=".15"/>
   <rect x="5" y="4" width="4" height="7" rx=".713" ry=".765" fill="#4f4f4f"/>
   <rect x="6" y="17" width="7" height="11" rx="1.05" ry="1.031" fill="#956a42"/>
   <path d="m18.875 17c-1.0258 0-1.875 0.84922-1.875 1.875v5.25c0 1.0258 0.84922 1.875 1.875 1.875h5.25c1.0258 0 1.875-0.84922 1.875-1.875v-5.25c0-1.0258-0.84922-1.875-1.875-1.875z" fill="#956a42"/>
   <path d="m19.313 20c-0.18394 0-0.3125 0.12856-0.3125 0.3125v4.375c0 0.18394 0.12856 0.3125 0.3125 0.3125h4.375c0.18394 0 0.3125-0.12856 0.3125-0.3125v-4.375c0-0.18394-0.12856-0.3125-0.3125-0.3125z" opacity=".2"/>
   <path d="m19.313 19c-0.18394 0-0.3125 0.12856-0.3125 0.3125v4.375c0 0.18394 0.12856 0.3125 0.3125 0.3125h4.375c0.18394 0 0.3125-0.12856 0.3125-0.3125v-4.375c0-0.18394-0.12856-0.3125-0.3125-0.3125z" fill="#c2eeff"/>
   <circle cx="11" cy="23" r="1" opacity=".2"/>
   <circle cx="11" cy="22" r="1" fill="#fff"/>
   <path d="m6.211 11.166c-0.40844 0.33946-0.7442 0.62727-0.87811 0.76476l-1.9187 1.9693v-0.68143h2.7969z" opacity=".05"/>
   <path d="m9 8.7364c-0.69382 0.4765-2.0246 1.4552-3 2.211v2.0526h3z" opacity=".15"/>
   <path d="m12 6.8682-2.6118 1.6005c-0.069928 0.04286-0.2615 0.18066-0.38818 0.26767v4.2636h3z" opacity=".05"/>
   <path d="m15 5.0287-3 1.8395v6.1318h3z" opacity=".15"/>
   <path d="m16.704 3.984-1.7036 1.0447v7.9713h3v-8.1584z" opacity=".05"/>
   <path d="m18 4.8416v8.1584h3v-6.1755z" opacity=".15"/>
   <path d="m21 6.8245v6.1755h3v-4.3223c-0.35334-0.21874-0.65216-0.37929-0.81299-0.40696z" opacity=".05"/>
   <path d="m24 8.6777v4.3223h3v-2.1427c-0.85071-0.6754-2.1199-1.6347-3-2.1796z" opacity=".15"/>
   <path d="m25.789 11.076v2.1427h2.7968v0.48341l-2.0512-1.9706c-0.11899-0.11428-0.40112-0.36212-0.74564-0.65551z" opacity=".05"/>
   <path d="m16 3.5-12.5 10" fill="none" stroke="#5d5d5d" stroke-linecap="round" stroke-linejoin="round" stroke-width="3"/>
   <path d="m16 3.5 12.5 10" fill="none" stroke="#5d5d5d" stroke-linecap="round" stroke-linejoin="round" stroke-width="3"/>
   <path d="m15.967 1.9863a1.5002 1.5002 0 0 0-1.1016 0.5l-12.303 9.8418a1.5007 1.5007 0 0 0-0.47656 1.6719 1.5007 1.5007 0 0 1 0.47656-0.67188l12.303-9.8418a1.5002 1.5002 0 0 1 1.1016-0.5 1.5002 1.5002 0 0 1 0.01367 0 1.5002 1.5002 0 0 1 0.01172 0 1.5002 1.5002 0 0 1 1.1426 0.5l12.303 9.8418a1.5007 1.5007 0 0 1 0.47656 0.67188 1.5007 1.5007 0 0 0-0.47656-1.6719l-12.303-9.8418a1.5002 1.5002 0 0 0-1.1426-0.5 1.5002 1.5002 0 0 0-0.01172 0 1.5002 1.5002 0 0 0-0.01367 0z" fill="#fff" fill-rule="evenodd" opacity=".1"/>
   <path d="M 5.7128906,4 C 5.3181189,4 5,4.3415858 5,4.765625 v 1 C 5,5.3415858 5.3181189,5 5.7128906,5 H 8.2871094 C 8.6818811,5 9,5.3415858 9,5.765625 v -1 C 9,4.3415858 8.6818811,4 8.2871094,4 Z" fill="#fff" opacity=".1"/>
  </g>
 </g>
 <g id="go-previous" transform="matrix(-1,0,0,1,128,0)">
  <rect width="32" height="32" opacity=".001"/>
  <rect x="2" y="15" width="22" height="4" rx="2" ry="2" opacity=".2"/>
  <path d="m20.797 11.001a1.746 1.723 0 0 1 0.82179 0.22965l3.7543 2.1384 3.7543 2.1392a1.746 1.723 0 0 1 0 2.9838l-3.7543 2.1392-3.7543 2.1384a1.746 1.723 0 0 1-2.6188-1.4915v-8.5551a1.746 1.723 0 0 1 1.797-1.722z" opacity=".2"/>
  <rect x="2" y="14" width="22" height="4" rx="2" ry="2" fill="#8e8e8e"/>
  <path d="m20.797 10.001a1.746 1.723 0 0 1 0.82179 0.22965l3.7543 2.1384 3.7543 2.1392a1.746 1.723 0 0 1 0 2.9838l-3.7543 2.1392-3.7543 2.1384a1.746 1.723 0 0 1-2.6188-1.4915v-8.5551a1.746 1.723 0 0 1 1.797-1.722z" fill="#e4e4e4"/>
  <path d="m20.797 10a1.746 1.723 0 0 0-1.7969 1.7227v1a1.746 1.723 0 0 1 1.7969-1.7227 1.746 1.723 0 0 1 0.82227 0.23047l7.5078 4.2773a1.746 1.723 0 0 1 0.79688 0.99219 1.746 1.723 0 0 0-0.79688-1.9922l-7.5078-4.2773a1.746 1.723 0 0 0-0.82227-0.23047z" fill="#fff" opacity=".2"/>
 </g>
 <g id="go-next" transform="translate(128)">
  <rect width="32" height="32" opacity=".001"/>
  <rect x="2" y="15" width="22" height="4" rx="2" ry="2" opacity=".2"/>
  <path d="m20.797 11.001a1.746 1.723 0 0 1 0.82179 0.22965l3.7543 2.1384 3.7543 2.1392a1.746 1.723 0 0 1 0 2.9838l-3.7543 2.1392-3.7543 2.1384a1.746 1.723 0 0 1-2.6188-1.4915v-8.5551a1.746 1.723 0 0 1 1.797-1.722z" opacity=".2"/>
  <rect x="2" y="14" width="22" height="4" rx="2" ry="2" fill="#8e8e8e"/>
  <path d="m20.797 10.001a1.746 1.723 0 0 1 0.82179 0.22965l3.7543 2.1384 3.7543 2.1392a1.746 1.723 0 0 1 0 2.9838l-3.7543 2.1392-3.7543 2.1384a1.746 1.723 0 0 1-2.6188-1.4915v-8.5551a1.746 1.723 0 0 1 1.797-1.722z" fill="#e4e4e4"/>
  <path d="m20.797 10a1.746 1.723 0 0 0-1.7969 1.7227v1a1.746 1.723 0 0 1 1.7969-1.7227 1.746 1.723 0 0 1 0.82227 0.23047l7.5078 4.2773a1.746 1.723 0 0 1 0.79688 0.99219 1.746 1.723 0 0 0-0.79688-1.9922l-7.5078-4.2773a1.746 1.723 0 0 0-0.82227-0.23047z" fill="#fff" opacity=".2"/>
 </g>
 <g id="go-down" transform="translate(64)">
  <rect width="32" height="32" opacity=".001"/>
  <rect transform="rotate(90)" x="2" y="-18" width="22" height="4" rx="2" ry="2" fill="#8e8e8e"/>
  <path d="m21.999 21.797a1.723 1.746 0 0 1-0.22965 0.82179l-2.1384 3.7543-2.1392 3.7543a1.723 1.746 0 0 1-2.9838 0l-2.1392-3.7543-2.1384-3.7543a1.723 1.746 0 0 1 1.4915-2.6188h8.5551a1.723 1.746 0 0 1 1.722 1.797z" opacity=".2"/>
  <path d="m21.999 20.797a1.723 1.746 0 0 1-0.22965 0.82179l-2.1384 3.7543-2.1392 3.7543a1.723 1.746 0 0 1-2.9838 0l-2.1392-3.7543-2.1384-3.7543a1.723 1.746 0 0 1 1.4915-2.6188h8.5551a1.723 1.746 0 0 1 1.722 1.797z" fill="#e4e4e4"/>
  <path d="m11.723 19a1.723 1.746 0 0 0-1.6484 2.2461 1.723 1.746 0 0 1 1.6484-1.2461h8.5547a1.723 1.746 0 0 1 1.6484 1.2461 1.723 1.746 0 0 0 0.074219-0.44922 1.723 1.746 0 0 0-1.7227-1.7969h-4.2773z" fill="#fff" opacity=".2"/>
 </g>
 <g id="go-up" transform="translate(32)">
  <rect transform="scale(1,-1)" y="-32" width="32" height="32" opacity=".001"/>
  <rect transform="matrix(0,-1,-1,0,0,0)" x="-31" y="-18" width="22" height="4" rx="2" ry="2" opacity=".2"/>
  <rect transform="matrix(0,-1,-1,0,0,0)" x="-30" y="-18" width="22" height="4" rx="2" ry="2" fill="#8e8e8e"/>
  <path d="m21.999 12.203a1.723 1.746 0 0 0-0.22965-0.82179l-2.1384-3.7543-2.1392-3.7543a1.723 1.746 0 0 0-2.9838 0l-2.1392 3.7543-2.1384 3.7543a1.723 1.746 0 0 0 1.4915 2.6188h8.5551a1.723 1.746 0 0 0 1.722-1.797z" opacity=".2"/>
  <path d="m21.999 11.203a1.723 1.746 0 0 0-0.22965-0.82179l-2.1384-3.7543-2.1392-3.7543a1.723 1.746 0 0 0-2.9838 0l-2.1392 3.7543-2.1384 3.7543a1.723 1.746 0 0 0 1.4915 2.6188h8.5551a1.723 1.746 0 0 0 1.722-1.797z" fill="#e4e4e4"/>
  <path d="m15.908 2.002a1.723 1.746 0 0 0-1.4004 0.87109l-4.2773 7.5078a1.723 1.746 0 0 0-0.15625 1.373 1.723 1.746 0 0 1 0.15625-0.37305l4.2773-7.5078a1.723 1.746 0 0 1 2.9844 0l4.2773 7.5078a1.723 1.746 0 0 1 0.15625 0.37305 1.723 1.746 0 0 0 0.074219-0.55078 1.723 1.746 0 0 0-0.23047-0.82227l-4.2773-7.5078a1.723 1.746 0 0 0-1.584-0.87109z" fill="#fff" opacity=".2"/>
 </g>
</svg>
