<?xml version="1.0" encoding="UTF-8"?>
<svg width="32" height="32" version="1.1" xmlns="http://www.w3.org/2000/svg">
 <g id="22-22-image-x-generic" transform="translate(27,5)">
  <rect x="5" y="5" width="22" height="22" opacity=".001"/>
  <path d="m9.1429 9c-1.1429 0-1.1429 1.1667-1.1429 1.1667v11.667c0 1.1667 1.1429 1.1667 1.1429 1.1667h13.714s1.1429 0 1.1429-1.1667v-11.667c0-1.1667-1.1429-1.1667-1.1429-1.1667zm4.3571 5 3.7 4 2.8-2 2 2.695v2.305h-12v-3.25z" fill="#dfdfdf"/>
 </g>
 <g id="image-x-generic">
  <rect width="32" height="32" opacity=".001"/>
  <path d="m29 27.666v-21.333c0-0.7393-0.58-1.334-1.3-1.334h-23.4c-0.7202 0-1.3 0.59467-1.3 1.3333v21.333c0 0.73867 0.5798 1.3333 1.3 1.3333l23.4 1e-3c0.7202 0 1.3-0.59467 1.3-1.3333z" opacity=".2"/>
  <path d="m29 26.667v-21.333c0-0.7393-0.58-1.334-1.3-1.334h-23.4c-0.7202 0-1.3 0.59467-1.3 1.3333v21.333c0 0.73867 0.5798 1.3333 1.3 1.3333l23.4 1e-3c0.7202 0 1.3-0.59467 1.3-1.3333z" fill="#36aca3"/>
  <path d="M 4.2998,4 C 3.5796,4 3,4.59434 3,5.333 v 1 C 3,5.59433 3.5796,5 4.2998,5 h 23.4 c 0.7202,0 1.2998,0.59434 1.2998,1.333 v -1 C 28.9996,4.59433 28.42,4 27.6998,4 Z" fill="#fff" opacity=".2"/>
  <path d="m11 13.999 6 8 5-4 4 4v3h-20v-5z" opacity=".2"/>
  <path d="m11 13 6 8 5-4 4 4v3h-20v-5z" fill="#fff"/>
 </g>
</svg>
