<?xml version="1.0" encoding="UTF-8"?>
<svg width="32" height="32" version="1.1" xmlns="http://www.w3.org/2000/svg">
 <g id="22-22-input-mouse-battery" transform="translate(224,-22)">
  <rect width="22" height="22" opacity=".001"/>
  <path d="m10 3c-2.8108 0.25154-5 2.6018-5 5.4844v0.5h5zm1 0v5.9844h5v-0.5c0-2.8825-2.1892-5.2328-5-5.4844zm-6 6.9863v3.5059c0 3.0515 2.453 5.5078 5.5 5.5078 3.047 0 5.5-2.4563 5.5-5.5078v-3.5059h-6zm6 1.0137v3h2l-3 4v-3h-2z" fill="#dfdfdf"/>
 </g>
 <g id="22-22-input-keyboard-battery" transform="translate(192,-22)">
  <rect width="22" height="22" opacity=".001"/>
  <path d="m5 5c-1.108 0-2 0.892-2 2v8c0 1.108 0.892 2 2 2h12c1.108 0 2-0.892 2-2v-8c0-1.108-0.892-2-2-2zm-1 2h2v2h-2zm3 0h2v2h-2zm3 0h2v2h-2zm3 0h2v2h-2zm3 0h2v2h-2v3h2l-3 4v-3h-2l3-4zm-12 3h2v2h-2zm3 0h2v2h-2zm3 0h2v2h-2zm-5 3h7v2h-7z" fill="#dfdfdf"/>
 </g>
 <g id="22-22-input-keyboard-brightness" transform="translate(96,-22)">
  <rect width="22" height="22" opacity=".001"/>
  <path d="m5 5c-1.108 0-2 0.892-2 2v8c0 1.108 0.892 2 2 2h12c1.108 0 2-0.892 2-2v-8c0-1.108-0.892-2-2-2zm-1 2h2v2h-2zm3 0h2v2h-2zm3 0h2v2h-2zm3 0h2v2h-2zm3 0h2v2h-2zm-12 3h2v2h-2zm3 0h2v2h-2zm3 0h2v2h-2zm5.5 0c1.3807 0 2.5 1.1193 2.5 2.5s-1.1193 2.5-2.5 2.5-2.5-1.1193-2.5-2.5 1.1193-2.5 2.5-2.5zm-0.5 1v3c0.82843 0 2 0 2-1.5s-1.1716-1.5-2-1.5zm-10 2h7v2h-7z" fill="#dfdfdf"/>
 </g>
 <g id="input-keyboard-brightness" transform="translate(96)">
  <rect width="32" height="32" opacity=".001"/>
  <rect x="2" y="6" width="28" height="20" rx="1.4" ry="1.4" fill="#4f4f4f"/>
  <path d="M 3.4004,6 C 2.6248,6 2,6.6248 2,7.4004 v 1 C 2,7.6248 2.6248,7 3.4004,7 h 25.2 c 0.775,0 1.4,0.6248 1.4,1.4004 v -1 C 30.0004,6.6248 29.3754,6 28.6004,6 Z" fill="#fff" opacity=".075"/>
  <path d="m2 24.6v1c0 0.775 0.6248 1.4 1.4004 1.4h25.2c0.775 0 1.4-0.625 1.4-1.4v-1c0 0.775-0.625 1.4-1.4 1.4h-25.2c-0.7752 0-1.4-0.625-1.4-1.4z" opacity=".1"/>
  <circle cx="5.5" cy="11.5" r="1.5" opacity=".1"/>
  <circle cx="10.5" cy="11.5" r="1.5" opacity=".1"/>
  <circle cx="15.5" cy="11.5" r="1.5" opacity=".1"/>
  <circle cx="20.5" cy="11.5" r="1.5" opacity=".1"/>
  <circle cx="25.5" cy="11.5" r="1.5" opacity=".1"/>
  <circle cx="8.5" cy="17.5" r="1.5" opacity=".1"/>
  <circle cx="13.5" cy="17.5" r="1.5" opacity=".1"/>
  <circle cx="18.5" cy="17.5" r="1.5" opacity=".1"/>
  <circle cx="23.5" cy="17.5" r="1.5" opacity=".1"/>
  <rect x="6" y="22" width="20" height="3" rx=".75" ry=".75" opacity=".1"/>
  <circle cx="5.5" cy="10.5" r="1.5" fill="#e4e4e4"/>
  <circle cx="10.5" cy="10.5" r="1.5" fill="#e4e4e4"/>
  <circle cx="15.5" cy="10.5" r="1.5" fill="#e4e4e4"/>
  <circle cx="20.5" cy="10.5" r="1.5" fill="#e4e4e4"/>
  <circle cx="25.5" cy="10.5" r="1.5" fill="#e4e4e4"/>
  <circle cx="8.5" cy="16.5" r="1.5" fill="#e4e4e4"/>
  <circle cx="13.5" cy="16.5" r="1.5" fill="#e4e4e4"/>
  <circle cx="18.5" cy="16.5" r="1.5" fill="#e4e4e4"/>
  <circle cx="23.5" cy="16.5" r="1.5" fill="#e4e4e4"/>
  <rect x="6" y="21" width="20" height="3" rx=".75" ry=".75" fill="#e4e4e4"/>
  <circle cx="24" cy="23" r="8" fill="#ffb607"/>
  <path d="M 31.979,23.424 A 8,8 0 0 1 24,31 8,8 0 0 1 16.021,23.576 8,8 0 0 0 16,24 a 8,8 0 0 0 8,8 8,8 0 0 0 8,-8 8,8 0 0 0 -0.02148,-0.57617 z" opacity=".1"/>
  <path d="m24 18v10a5 5 0 0 0 5-5 5 5 0 0 0-5-5z" fill="#fff"/>
 </g>
 <g id="input-keyboard">
  <rect width="32" height="32" opacity=".001"/>
  <rect x="2" y="6" width="28" height="20" rx="1.4" ry="1.4" fill="#4f4f4f"/>
  <path d="M 3.4004,6 C 2.6248,6 2,6.6248 2,7.4004 v 1 C 2,7.6248 2.6248,7 3.4004,7 h 25.2 c 0.775,0 1.4,0.6248 1.4,1.4004 v -1 C 30.0004,6.6248 29.3754,6 28.6004,6 Z" fill="#fff" opacity=".075"/>
  <path d="m2 24.6v1c0 0.775 0.6248 1.4 1.4004 1.4h25.2c0.775 0 1.4-0.625 1.4-1.4v-1c0 0.775-0.625 1.4-1.4 1.4h-25.2c-0.7752 0-1.4-0.625-1.4-1.4z" opacity=".1"/>
  <circle cx="5.5" cy="11.5" r="1.5" opacity=".1"/>
  <circle cx="10.5" cy="11.5" r="1.5" opacity=".1"/>
  <circle cx="15.5" cy="11.5" r="1.5" opacity=".1"/>
  <circle cx="20.5" cy="11.5" r="1.5" opacity=".1"/>
  <circle cx="25.5" cy="11.5" r="1.5" opacity=".1"/>
  <circle cx="8.5" cy="17.5" r="1.5" opacity=".1"/>
  <circle cx="13.5" cy="17.5" r="1.5" opacity=".1"/>
  <circle cx="18.5" cy="17.5" r="1.5" opacity=".1"/>
  <circle cx="23.5" cy="17.5" r="1.5" opacity=".1"/>
  <rect x="6" y="22" width="20" height="3" rx=".75" ry=".75" opacity=".1"/>
  <circle cx="5.5" cy="10.5" r="1.5" fill="#e4e4e4"/>
  <circle cx="10.5" cy="10.5" r="1.5" fill="#e4e4e4"/>
  <circle cx="15.5" cy="10.5" r="1.5" fill="#e4e4e4"/>
  <circle cx="20.5" cy="10.5" r="1.5" fill="#e4e4e4"/>
  <circle cx="25.5" cy="10.5" r="1.5" fill="#e4e4e4"/>
  <circle cx="8.5" cy="16.5" r="1.5" fill="#e4e4e4"/>
  <circle cx="13.5" cy="16.5" r="1.5" fill="#e4e4e4"/>
  <circle cx="18.5" cy="16.5" r="1.5" fill="#e4e4e4"/>
  <circle cx="23.5" cy="16.5" r="1.5" fill="#e4e4e4"/>
  <rect x="6" y="21" width="20" height="3" rx=".75" ry=".75" fill="#e4e4e4"/>
 </g>
 <g id="input-keyboard-battery" transform="translate(192)">
  <rect width="32" height="32" opacity=".001"/>
  <rect x="2" y="6" width="28" height="20" rx="1.4" ry="1.4" fill="#4f4f4f"/>
  <path d="M 3.4004,6 C 2.6248,6 2,6.6248 2,7.4004 v 1 C 2,7.6248 2.6248,7 3.4004,7 h 25.2 c 0.775,0 1.4,0.6248 1.4,1.4004 v -1 C 30.0004,6.6248 29.3754,6 28.6004,6 Z" fill="#fff" opacity=".075"/>
  <path d="m2 24.6v1c0 0.775 0.6248 1.4 1.4004 1.4h25.2c0.775 0 1.4-0.625 1.4-1.4v-1c0 0.775-0.625 1.4-1.4 1.4h-25.2c-0.7752 0-1.4-0.625-1.4-1.4z" opacity=".1"/>
  <circle cx="5.5" cy="11.5" r="1.5" opacity=".1"/>
  <circle cx="10.5" cy="11.5" r="1.5" opacity=".1"/>
  <circle cx="15.5" cy="11.5" r="1.5" opacity=".1"/>
  <circle cx="20.5" cy="11.5" r="1.5" opacity=".1"/>
  <circle cx="25.5" cy="11.5" r="1.5" opacity=".1"/>
  <circle cx="8.5" cy="17.5" r="1.5" opacity=".1"/>
  <circle cx="13.5" cy="17.5" r="1.5" opacity=".1"/>
  <circle cx="18.5" cy="17.5" r="1.5" opacity=".1"/>
  <circle cx="23.5" cy="17.5" r="1.5" opacity=".1"/>
  <rect x="6" y="22" width="20" height="3" rx=".75" ry=".75" opacity=".1"/>
  <circle cx="5.5" cy="10.5" r="1.5" fill="#e4e4e4"/>
  <circle cx="10.5" cy="10.5" r="1.5" fill="#e4e4e4"/>
  <circle cx="15.5" cy="10.5" r="1.5" fill="#e4e4e4"/>
  <circle cx="20.5" cy="10.5" r="1.5" fill="#e4e4e4"/>
  <circle cx="25.5" cy="10.5" r="1.5" fill="#e4e4e4"/>
  <circle cx="8.5" cy="16.5" r="1.5" fill="#e4e4e4"/>
  <circle cx="13.5" cy="16.5" r="1.5" fill="#e4e4e4"/>
  <circle cx="18.5" cy="16.5" r="1.5" fill="#e4e4e4"/>
  <circle cx="23.5" cy="16.5" r="1.5" fill="#e4e4e4"/>
  <rect x="6" y="21" width="20" height="3" rx=".75" ry=".75" fill="#e4e4e4"/>
  <circle cx="24" cy="23" r="8" fill="#f45744"/>
  <path d="M 31.979,23.424 A 8,8 0 0 1 24,31 8,8 0 0 1 16.021,23.576 8,8 0 0 0 16,24 a 8,8 0 0 0 8,8 8,8 0 0 0 8,-8 8,8 0 0 0 -0.02148,-0.57617 z" opacity=".1"/>
  <path d="m24 18v4h4l-4 6v-4h-4z" fill="#fff"/>
 </g>
 <g id="input-mouse-battery" transform="translate(224)">
  <rect width="32" height="32" opacity=".001"/>
  <g transform="translate(5.15e-6 -1)">
   <path d="m16 3c-0.012 0-0.025 2e-3 -0.037 2e-3h-0.0041c-4.4859 0.028-8.9589 4.677-8.9589 8.166v11.535c0 4.741 3.375 8.297 9 8.297 5.625 9.8e-4 9-3.554 9-8.295v-11.219c0-3.626-4.494-8.453-9-8.482z" opacity=".2"/>
   <path d="m16 2c-0.012 0-0.025 2e-3 -0.037 2e-3h-0.0041c-4.4859 0.028-8.9589 4.677-8.9589 8.166v11.535c0 4.741 3.375 8.297 9 8.297 5.625 9.8e-4 9-3.554 9-8.295v-11.219c0-3.626-4.494-8.453-9-8.482z" fill="#4f4f4f"/>
   <path d="m16 2c-0.012 0-0.02451 0.00137-0.0365 0.00137h-0.0041c-4.486 0.028-8.9594 4.6772-8.9594 8.1662v5.8324h18v-5.5139c0-3.626-4.494-8.453-9-8.482z" opacity=".1"/>
   <path d="m16 2c-0.012 0-0.02451 0.00137-0.0365 0.00137h-0.0041c-4.486 0.028-8.9594 4.6772-8.9594 8.1662v5.8324h9v-13.996z" opacity=".1"/>
   <path d="m16 7.0003c0.551 0 1 0.57604 1 1.2858v3.4288c0 0.70905-0.449 1.2851-1 1.2851s-1-0.57604-1-1.2861v-3.4288c0-0.70905 0.449-1.2851 1-1.2851" opacity=".2"/>
   <path d="m16 6.0003c0.551 0 1 0.57604 1 1.2858v3.4288c0 0.70905-0.449 1.2851-1 1.2851s-1-0.57604-1-1.2861v-3.4288c0-0.70905 0.449-1.2851 1-1.2851" fill="#e4e4e4"/>
   <path d="m16 2c-0.012 0-0.02511 0.00195-0.03711 0.00195h-0.0039c-4.4859 0.028003-8.959 4.677-8.959 8.166v1c0-3.489 4.4731-8.138 8.959-8.166h0.0039c0.012007 0 0.025116-0.0019531 0.037116-0.0019531v0.00391c4.506 0.029 9 4.8564 9 8.4824v-1c0-3.626-4.494-8.4534-9-8.4824z" fill="#fff" opacity=".1"/>
  </g>
  <g transform="translate(66.021,6.576)">
   <circle cx="-42.021" cy="16.424" r="8" fill="#f45744"/>
   <path d="m-34.042 16.848a8 8 0 0 1-7.979 7.576 8 8 0 0 1-7.979-7.424 8 8 0 0 0-0.021 0.424 8 8 0 0 0 8 8 8 8 0 0 0 8-8 8 8 0 0 0-0.02148-0.57617z" opacity=".1"/>
   <path d="m-42.021 11.424v4h4l-4 6v-4h-4z" fill="#fff"/>
  </g>
 </g>
 <g id="22-22-input-keyboard" transform="translate(-12,2)">
  <rect x="12" y="-24" width="22" height="22" opacity=".001"/>
  <path d="m17-19c-1.108 0-2 0.892-2 2v8c0 1.108 0.892 2 2 2h12c1.108 0 2-0.892 2-2v-8c0-1.108-0.892-2-2-2zm-1 2h2v2h-2zm3 0h2v2h-2zm3 0h2v2h-2zm3 0h2v2h-2zm3 0h2v2h-2zm-12 3h2v2h-2zm3 0h2v2h-2zm3 0h2v2h-2zm3 0h2v2h-2zm3 0h2v2h-2zm-11 3h12v2h-12z" fill="#dfdfdf"/>
 </g>
 <g id="22-22-input-caps-on" transform="translate(-16,30)">
  <rect x="48" y="-52" width="22" height="22" opacity=".001"/>
  <path d="m53-47c-1.108 0-2 0.892-2 2v8c0 1.108 0.892 2 2 2h12c1.108 0 2-0.892 2-2v-8c0-1.108-0.892-2-2-2zm-1 2h2v2h-2zm3 0h2v2h-2zm3 0h2v2h-2zm3 0h2v2h-2zm3 0h2v2h-2zm-12 3h2v2h-2zm3 0h2v2h-2zm3 0h2v2h-2zm4 0h3v1h-2v3h2v1h-3zm-9 3h7v2h-7z" fill="#dfdfdf"/>
 </g>
 <g id="input-caps-on">
  <rect x="32" width="32" height="32" opacity=".001"/>
  <rect x="34" y="6" width="28" height="20" rx="1.4" ry="1.4" fill="#4f4f4f"/>
  <path d="m35.4 6c-0.7756 0-1.4004 0.6248-1.4004 1.4004v1c0-0.7756 0.6248-1.4004 1.4004-1.4004h25.2c0.775 0 1.4 0.6248 1.4 1.4004v-1c0-0.7756-0.625-1.4004-1.4-1.4004z" fill="#fff" opacity=".075"/>
  <path d="m34 24.6v1c0 0.775 0.6248 1.4 1.4004 1.4h25.2c0.775 0 1.4-0.625 1.4-1.4v-1c0 0.775-0.625 1.4-1.4 1.4h-25.2c-0.7752 0-1.4-0.625-1.4-1.4z" opacity=".1"/>
  <circle cx="37.5" cy="11.5" r="1.5" opacity=".1"/>
  <circle cx="42.5" cy="11.5" r="1.5" opacity=".1"/>
  <circle cx="47.5" cy="11.5" r="1.5" opacity=".1"/>
  <circle cx="52.5" cy="11.5" r="1.5" opacity=".1"/>
  <circle cx="57.5" cy="11.5" r="1.5" opacity=".1"/>
  <circle cx="40.5" cy="17.5" r="1.5" opacity=".1"/>
  <circle cx="45.5" cy="17.5" r="1.5" opacity=".1"/>
  <circle cx="50.5" cy="17.5" r="1.5" opacity=".1"/>
  <circle cx="55.5" cy="17.5" r="1.5" opacity=".1"/>
  <rect x="38" y="22" width="20" height="3" rx=".75" ry=".75" opacity=".1"/>
  <circle cx="37.5" cy="10.5" r="1.5" fill="#e4e4e4"/>
  <circle cx="42.5" cy="10.5" r="1.5" fill="#e4e4e4"/>
  <circle cx="47.5" cy="10.5" r="1.5" fill="#e4e4e4"/>
  <circle cx="52.5" cy="10.5" r="1.5" fill="#e4e4e4"/>
  <circle cx="57.5" cy="10.5" r="1.5" fill="#e4e4e4"/>
  <circle cx="40.5" cy="16.5" r="1.5" fill="#e4e4e4"/>
  <circle cx="45.5" cy="16.5" r="1.5" fill="#e4e4e4"/>
  <circle cx="50.5" cy="16.5" r="1.5" fill="#e4e4e4"/>
  <circle cx="55.5" cy="16.5" r="1.5" fill="#e4e4e4"/>
  <rect x="38" y="21" width="20" height="3" rx=".75" ry=".75" fill="#e4e4e4"/>
  <circle cx="56" cy="23" r="8" fill="#3399df"/>
  <path d="M 63.979,23.424 A 8,8 0 0 1 56,31 8,8 0 0 1 48.021,23.576 8,8 0 0 0 48,24 a 8,8 0 0 0 8,8 8,8 0 0 0 8,-8 8,8 0 0 0 -0.02148,-0.57617 z" opacity=".1"/>
  <path d="m58 27h-4v-8h4v0" fill="none" stroke="#fff" stroke-linecap="round" stroke-linejoin="round" stroke-width="2"/>
 </g>
 <g id="input-touchpad-on" transform="translate(0 96)">
  <rect y="-32" width="32" height="32" opacity=".001"/>
  <g transform="translate(0,-32)">
   <rect transform="matrix(0,-1,-1,0,0,0)" x="-29" y="-29" width="26" height="26" rx="1.3" ry="1.3" fill="#c4c4c4"/>
   <path d="M 4.3008,3 C 3.5806,3 3,3.5806 3,4.3008 v 1 C 3,4.5806 3.5806,4 4.3008,4 h 23.398 c 0.72,0 1.301,0.5806 1.301,1.3008 v -1 C 28.9998,3.5806 28.4188,3 27.6988,3 Z" fill="#dfdfdf" opacity=".1"/>
   <g fill="#5d5d5d">
    <rect x="4" y="22" width="11" height="6" rx="1.222" ry="1.2"/>
    <rect x="17" y="22" width="11" height="6" rx="1.222" ry="1.2"/>
    <rect x="24" y="7" width="4" height="1"/>
    <rect x="24" y="9" width="4" height="1"/>
    <rect x="24" y="11" width="4" height="1"/>
    <rect x="24" y="13" width="4" height="1"/>
    <rect x="24" y="15" width="4" height="1"/>
    <rect x="24" y="17" width="4" height="1"/>
   </g>
   <path d="m3 27.699v1c0 0.72 0.5806 1.301 1.3008 1.301h23.398c0.72 0 1.301-0.581 1.301-1.301v-1c0 0.72-0.581 1.301-1.301 1.301h-23.398c-0.7204 0-1.301-0.581-1.301-1.301z" opacity=".2"/>
  </g>
 </g>
 <g id="input-touchpad-off" transform="translate(0,64)">
  <rect y="-32" width="32" height="32" opacity=".001"/>
  <g transform="translate(0,-32)">
   <rect transform="matrix(0,-1,-1,0,0,0)" x="-29" y="-29" width="26" height="26" rx="1.3" ry="1.3" fill="#c4c4c4"/>
   <path d="M 4.3008,3 C 3.5806,3 3,3.5806 3,4.3008 v 1 C 3,4.5806 3.5806,4 4.3008,4 h 23.398 c 0.72,0 1.301,0.5806 1.301,1.3008 v -1 C 28.9998,3.5806 28.4188,3 27.6988,3 Z" fill="#dfdfdf" opacity=".1"/>
   <g fill="#5d5d5d">
    <rect x="4" y="22" width="11" height="6" rx="1.222" ry="1.2"/>
    <rect x="17" y="22" width="11" height="6" rx="1.222" ry="1.2"/>
    <rect x="24" y="7" width="4" height="1"/>
    <rect x="24" y="9" width="4" height="1"/>
    <rect x="24" y="11" width="4" height="1"/>
    <rect x="24" y="13" width="4" height="1"/>
    <rect x="24" y="15" width="4" height="1"/>
    <rect x="24" y="17" width="4" height="1"/>
   </g>
   <path d="m3 27.699v1c0 0.72 0.5806 1.301 1.3008 1.301h23.398c0.72 0 1.301-0.581 1.301-1.301v-1c0 0.72-0.581 1.301-1.301 1.301h-23.398c-0.7204 0-1.301-0.581-1.301-1.301z" opacity=".2"/>
   <circle cx="24" cy="24" r="7" fill="#db3c30"/>
   <path d="M 30.977,24.459 A 7,7 0 0 1 24,31 7,7 0 0 1 17.023,24.541 7,7 0 0 0 17,25 a 7,7 0 0 0 7,7 7,7 0 0 0 7,-7 7,7 0 0 0 -0.02344,-0.54102 z" opacity=".2"/>
   <g transform="matrix(.70711 -.70711 .70711 .70711 -9.9411 24)" fill="#fff">
    <rect x="20" y="23" width="8" height="2"/>
    <rect transform="rotate(90)" x="20" y="-25" width="8" height="2"/>
   </g>
  </g>
 </g>
 <g id="22-22-input-touchpad-on" transform="translate(-393 239)">
  <path d="m425-165h22v22h-22v-22z" opacity=".001"/>
  <path d="m428.2-162c-1.2 0-1.1992 1.2305-1.1992 1.2305v13.539s-7.8e-4 1.2305 1.1992 1.2305h15.602s1.1992 3e-4 1.1992-1.2305v-13.539c0-1.2308-1.1992-1.2305-1.1992-1.2305zm12.801 2h2v1h-2zm0 2h2v1h-2zm0 2h2v1h-2zm0 2h2v1h-2zm-12 3h6v3h-6zm8 0h6v3h-6z" fill="#dfdfdf"/>
 </g>
 <g id="22-22-input-touchpad-off" transform="translate(-415 207)">
  <path d="m447-165h22v22h-22v-22z" opacity=".001"/>
  <path id="222" d="m450.2-162c-1.2 0-1.1992 1.2305-1.1992 1.2305v13.539s-7.8e-4 1.2305 1.1992 1.2305h15.602s1.1992 3e-4 1.1992-1.2305v-13.539c0-1.2308-1.1992-1.2305-1.1992-1.2305zm12.801 2h2v1h-2zm0 2h2v1h-2zm0 2h2v1h-2zm0 2h2v1h-2zm-12 3h6v3h-6zm8 0h6v3h-6z" fill="#dfdfdf" opacity=".35"/>
 </g>
 <g id="input-num-on" transform="translate(64)">
  <rect width="32" height="32" opacity=".001"/>
  <g transform="translate(0,1)">
   <rect x="2" y="5" width="28" height="20" rx="1.4" ry="1.4" fill="#4f4f4f"/>
   <path d="M 3.4004,5 C 2.6248,5 2,5.6248 2,6.4004 v 1 C 2,6.6248 2.6248,6 3.4004,6 h 25.2 c 0.775,0 1.4,0.6248 1.4,1.4004 v -1 C 30.0004,5.6248 29.3754,5 28.6004,5 Z" fill="#fff" opacity=".075"/>
   <path d="m2 23.6v1c0 0.775 0.6248 1.4 1.4004 1.4h25.2c0.775 0 1.4-0.625 1.4-1.4v-1c0 0.775-0.625 1.4-1.4 1.4h-25.2c-0.7752 0-1.4-0.625-1.4-1.4z" opacity=".1"/>
   <circle cx="5.5" cy="10.5" r="1.5" opacity=".1"/>
   <circle cx="10.5" cy="10.5" r="1.5" opacity=".1"/>
   <circle cx="15.5" cy="10.5" r="1.5" opacity=".1"/>
   <circle cx="20.5" cy="10.5" r="1.5" opacity=".1"/>
   <circle cx="25.5" cy="10.5" r="1.5" opacity=".1"/>
   <circle cx="8.5" cy="16.5" r="1.5" opacity=".1"/>
   <circle cx="13.5" cy="16.5" r="1.5" opacity=".1"/>
   <circle cx="18.5" cy="16.5" r="1.5" opacity=".1"/>
   <circle cx="23.5" cy="16.5" r="1.5" opacity=".1"/>
   <rect x="6" y="21" width="20" height="3" rx=".75" ry=".75" opacity=".1"/>
   <circle cx="5.5" cy="9.5" r="1.5" fill="#e4e4e4"/>
   <circle cx="10.5" cy="9.5" r="1.5" fill="#e4e4e4"/>
   <circle cx="15.5" cy="9.5" r="1.5" fill="#e4e4e4"/>
   <circle cx="20.5" cy="9.5" r="1.5" fill="#e4e4e4"/>
   <circle cx="25.5" cy="9.5" r="1.5" fill="#e4e4e4"/>
   <circle cx="8.5" cy="15.5" r="1.5" fill="#e4e4e4"/>
   <circle cx="13.5" cy="15.5" r="1.5" fill="#e4e4e4"/>
   <circle cx="18.5" cy="15.5" r="1.5" fill="#e4e4e4"/>
   <circle cx="23.5" cy="15.5" r="1.5" fill="#e4e4e4"/>
   <rect x="6" y="20" width="20" height="3" rx=".75" ry=".75" fill="#e4e4e4"/>
   <circle cx="24" cy="22" r="8" fill="#1fc238"/>
   <path d="M 31.979,22.424 A 8,8 0 0 1 24,30 8,8 0 0 1 16.021,22.576 8,8 0 0 0 16,23 a 8,8 0 0 0 8,8 8,8 0 0 0 8,-8 8,8 0 0 0 -0.02148,-0.57617 z" opacity=".1"/>
   <path d="m25 17v7h1.9999v2h-5.9997v-2h1.9999v-4.5l-1.9999 0.5v-2z" fill="#fff"/>
  </g>
 </g>
 <g id="22-22-input-num-on" transform="translate(32,-32)">
  <rect x="32" y="10" width="22" height="22" opacity=".001"/>
  <path d="m37 15c-1.108 0-2 0.892-2 2v8c0 1.108 0.892 2 2 2h12c1.108 0 2-0.892 2-2v-8c0-1.108-0.892-2-2-2zm-1 2h2v2h-2zm3 0h2v2h-2zm3 0h2v2h-2zm3 0h2v2h-2zm3 0h2v2h-2zm-12 3h2v2h-2zm3 0h2v2h-2zm3 0h2v2h-2zm5 0h1v4h1v1h-3v-1h1v-2h-1v-1h1zm-10 3h7v2h-7z" fill="#dfdfdf"/>
 </g>
 <g id="input-keyboard-virtual-on" transform="translate(19,-47)">
  <rect x="109" y="47" width="32" height="32" opacity=".001"/>
  <rect x="109" y="53" width="28" height="20" rx="1.4" ry="1.4" fill="#3399df"/>
  <circle cx="130.5" cy="63.5" r="3.5" fill="#fff" opacity=".2"/>
  <circle cx="130.5" cy="63.5" r="2.5" fill="#fff" opacity=".2"/>
  <path d="m110.4 53c-0.7756 0-1.4004 0.6248-1.4004 1.4004v1c0-0.7756 0.6248-1.4004 1.4004-1.4004h25.2c0.775 0 1.4 0.6248 1.4 1.4004v-1c0-0.7756-0.625-1.4004-1.4-1.4004z" fill="#fff" opacity=".2"/>
  <path d="m109 71.6v1c0 0.775 0.6248 1.4 1.4004 1.4h25.2c0.775 0 1.4-0.625 1.4-1.4v-1c0 0.775-0.625 1.4-1.4 1.4h-25.2c-0.7752 0-1.4-0.625-1.4-1.4z" opacity=".2"/>
  <path d="m112.5 56a1.5 1.5 0 0 0-1.5 1.5 1.5 1.5 0 0 0 1.5 1.5 1.5 1.5 0 0 0 1.5-1.5 1.5 1.5 0 0 0-1.5-1.5zm5 0a1.5 1.5 0 0 0-1.5 1.5 1.5 1.5 0 0 0 1.5 1.5 1.5 1.5 0 0 0 1.5-1.5 1.5 1.5 0 0 0-1.5-1.5zm5 0a1.5 1.5 0 0 0-1.5 1.5 1.5 1.5 0 0 0 1.5 1.5 1.5 1.5 0 0 0 1.5-1.5 1.5 1.5 0 0 0-1.5-1.5zm5 0a1.5 1.5 0 0 0-1.5 1.5 1.5 1.5 0 0 0 1.5 1.5 1.5 1.5 0 0 0 1.5-1.5 1.5 1.5 0 0 0-1.5-1.5zm5 0a1.5 1.5 0 0 0-1.5 1.5 1.5 1.5 0 0 0 1.5 1.5 1.5 1.5 0 0 0 1.5-1.5 1.5 1.5 0 0 0-1.5-1.5zm-17 6a1.5 1.5 0 0 0-1.5 1.5 1.5 1.5 0 0 0 1.5 1.5 1.5 1.5 0 0 0 1.5-1.5 1.5 1.5 0 0 0-1.5-1.5zm5 0a1.5 1.5 0 0 0-1.5 1.5 1.5 1.5 0 0 0 1.5 1.5 1.5 1.5 0 0 0 1.5-1.5 1.5 1.5 0 0 0-1.5-1.5zm5 0a1.5 1.5 0 0 0-1.5 1.5 1.5 1.5 0 0 0 1.5 1.5 1.5 1.5 0 0 0 1.5-1.5 1.5 1.5 0 0 0-1.5-1.5zm5 0a1.5 1.5 0 0 0-1.5 1.5 1.5 1.5 0 0 0 1.5 1.5 1.5 1.5 0 0 0 1.5-1.5 1.5 1.5 0 0 0-1.5-1.5zm-16.75 6c-0.4155 0-0.75 0.3345-0.75 0.75v1.5c0 0.4155 0.3345 0.75 0.75 0.75h18.5c0.4155 0 0.75-0.3345 0.75-0.75v-1.5c0-0.4155-0.3345-0.75-0.75-0.75z" opacity=".4"/>
  <path d="m130.48 63c-1.5007 0-1.5012 0.9999-1.5046 2-0.0104 0.61793-8e-3 1.9078 4e-3 3.8105 0.0186 3.0416 0.0129 3.9962-0.0234 4.127-1.0368-0.10928-2.605-0.52824-3.3067-1.0835-0.45859-0.3638-0.91365-0.69731-1.0102-0.74023-0.40259-0.17894-0.9738-0.06626-1.3014 0.25781-0.2265 0.22408-0.31028 0.42385-0.33023 0.7832-0.0152 0.27461-6e-3 0.33956 0.0782 0.52148 0.053 0.11461 0.14918 0.26845 0.21299 0.3418 0.0638 0.07335 0.93687 1.2056 1.9403 2.5176 1.8584 2.4296 3.7072 3.3307 4.0257 3.4213 0.19472 0.05553 10.239 0.0573 10.44 2e-3 0.0916-0.02514 0.22391-0.10942 0.3185-0.20312 0.13255-0.13132 0.18232-0.22734 0.28528-0.54492 0.2948-0.90926 0.58884-2.2922 0.67218-3.0605 0.0363-0.89281 0.017-0.92677 0-1.6504-3.2e-4 -0.01364-3e-3 -0.02555-4e-3 -0.03906 1e-3 -0.64306 5e-3 -1.1866 0-1.4609 3e-3 -1.0001 5e-3 -2-1.4928-2-1.3517 0-1.4774 0.81919-1.4929 1.7129-2e-3 0.02404-9e-3 0.04812-0.01 0.07227 5.3e-4 -0.24172 3e-3 -0.63772 0-0.78516 3e-3 -1.0001 3e-3 -2-1.4948-2-1.3428 0-1.4759 0.80861-1.4928 1.6953-4e-3 0.0021-8e-3 0.0036-0.0117 0.0059-2e-5 -0.0052-2e-3 -0.05373-2e-3 -0.06445 1.2e-4 -0.1798 2e-3 -0.51716 0-0.63672 3e-3 -1.0001 3e-3 -2-1.4948-2-1.1386 0-1.412 0.5787-1.4792 1.2949-2e-3 3.65e-4 -0.0252 0.0058-0.0254 0.0059-0.0213 0.0077-4e-3 -1.2151-4e-3 -2.5312 0-0.90157 6e-3 -1.4372 0-1.7695 3e-3 -1.0001 4e-3 -2-1.4968-2z" opacity=".2"/>
  <path d="m130.48 62c-1.5007 0-1.5012 0.9999-1.5046 2-0.0104 0.61793-8e-3 1.9078 4e-3 3.8105 0.0186 3.0416 0.0129 3.9962-0.0234 4.127-1.0368-0.10928-2.605-0.52824-3.3067-1.0835-0.45859-0.3638-0.91365-0.69731-1.0102-0.74023-0.40259-0.17894-0.9738-0.06626-1.3014 0.25781-0.2265 0.22408-0.31028 0.42385-0.33023 0.7832-0.0152 0.27461-6e-3 0.33956 0.0782 0.52148 0.053 0.11461 0.14918 0.26845 0.21299 0.3418 0.0638 0.07335 0.93687 1.2056 1.9403 2.5176 1.8584 2.4296 3.7072 3.3307 4.0257 3.4213 0.19472 0.05553 10.239 0.0573 10.44 2e-3 0.0916-0.02514 0.22391-0.10942 0.3185-0.20312 0.13255-0.13132 0.18232-0.22734 0.28528-0.54492 0.2948-0.90926 0.58884-2.2922 0.67218-3.0605 0.0363-0.89281 0.017-0.92677 0-1.6504-3.2e-4 -0.01364-3e-3 -0.02555-4e-3 -0.03906 1e-3 -0.64306 5e-3 -1.1866 0-1.4609 3e-3 -1.0001 5e-3 -2-1.4928-2-1.3517 0-1.4774 0.81919-1.4929 1.7129-2e-3 0.02404-9e-3 0.04812-0.01 0.07227 5.3e-4 -0.24172 3e-3 -0.63772 0-0.78516 3e-3 -1.0001 3e-3 -2-1.4948-2-1.3428 0-1.4759 0.80861-1.4928 1.6953-4e-3 0.0021-8e-3 0.0036-0.0117 0.0059-2e-5 -0.0052-2e-3 -0.05373-2e-3 -0.06445 1.2e-4 -0.1798 2e-3 -0.51716 0-0.63672 3e-3 -1.0001 3e-3 -2-1.4948-2-1.1386 0-1.412 0.5787-1.4792 1.2949-2e-3 3.65e-4 -0.0252 0.0058-0.0254 0.0059-0.0213 0.0077-4e-3 -1.2151-4e-3 -2.5312 0-0.90157 6e-3 -1.4372 0-1.7695 3e-3 -1.0001 4e-3 -2-1.4968-2z" fill="#e4e4e4"/>
 </g>
 <g id="input-keyboard-virtual-off" transform="translate(41,-40)">
  <rect x="119" y="40" width="32" height="32" opacity=".001"/>
  <rect x="119" y="46" width="28" height="20" rx="1.4" ry="1.4" fill="#898989"/>
  <path d="m120.4 46c-0.7756 0-1.4004 0.6248-1.4004 1.4004v1c0-0.7756 0.6248-1.4004 1.4004-1.4004h25.2c0.775 0 1.4 0.6248 1.4 1.4004v-1c0-0.7756-0.625-1.4004-1.4-1.4004z" fill="#fff" opacity=".2"/>
  <path d="m119 64.6v1c0 0.775 0.6248 1.4 1.4004 1.4h25.2c0.775 0 1.4-0.625 1.4-1.4v-1c0 0.775-0.625 1.4-1.4 1.4h-25.2c-0.7752 0-1.4-0.625-1.4-1.4z" opacity=".2"/>
  <path d="m122.5 49a1.5 1.5 0 0 0-1.5 1.5 1.5 1.5 0 0 0 1.5 1.5 1.5 1.5 0 0 0 1.5-1.5 1.5 1.5 0 0 0-1.5-1.5zm5 0a1.5 1.5 0 0 0-1.5 1.5 1.5 1.5 0 0 0 1.5 1.5 1.5 1.5 0 0 0 1.5-1.5 1.5 1.5 0 0 0-1.5-1.5zm5 0a1.5 1.5 0 0 0-1.5 1.5 1.5 1.5 0 0 0 1.5 1.5 1.5 1.5 0 0 0 1.5-1.5 1.5 1.5 0 0 0-1.5-1.5zm5 0a1.5 1.5 0 0 0-1.5 1.5 1.5 1.5 0 0 0 1.5 1.5 1.5 1.5 0 0 0 1.5-1.5 1.5 1.5 0 0 0-1.5-1.5zm5 0a1.5 1.5 0 0 0-1.5 1.5 1.5 1.5 0 0 0 1.5 1.5 1.5 1.5 0 0 0 1.5-1.5 1.5 1.5 0 0 0-1.5-1.5zm-17 6a1.5 1.5 0 0 0-1.5 1.5 1.5 1.5 0 0 0 1.5 1.5 1.5 1.5 0 0 0 1.5-1.5 1.5 1.5 0 0 0-1.5-1.5zm5 0a1.5 1.5 0 0 0-1.5 1.5 1.5 1.5 0 0 0 1.5 1.5 1.5 1.5 0 0 0 1.5-1.5 1.5 1.5 0 0 0-1.5-1.5zm5 0a1.5 1.5 0 0 0-1.5 1.5 1.5 1.5 0 0 0 1.5 1.5 1.5 1.5 0 0 0 1.5-1.5 1.5 1.5 0 0 0-1.5-1.5zm5 0a1.5 1.5 0 0 0-1.5 1.5 1.5 1.5 0 0 0 1.5 1.5 1.5 1.5 0 0 0 1.5-1.5 1.5 1.5 0 0 0-1.5-1.5zm-16.75 6c-0.4155 0-0.75 0.3345-0.75 0.75v1.5c0 0.4155 0.3345 0.75 0.75 0.75h18.5c0.4155 0 0.75-0.3345 0.75-0.75v-1.5c0-0.4155-0.3345-0.75-0.75-0.75z" opacity=".4"/>
  <g transform="translate(91,36)">
   <g transform="translate(20,-5)">
    <circle cx="32" cy="33" r="8" opacity=".2"/>
    <circle cx="32" cy="32" r="8" fill="#f34235"/>
   </g>
   <path d="m55 24-6 6v0m0-6 6 6" fill="none" stroke="#fff" stroke-linecap="round" stroke-linejoin="round" stroke-width="2"/>
  </g>
 </g>
 <g id="22-22-input-keyboard-virtual-on">
  <rect x="128" y="-22" width="22" height="22" opacity=".001"/>
  <path d="m133-17c-1.108 0-2 0.892-2 2v8c0 1.108 0.892 2 2 2h8.7715c-0.18402-0.22051-0.36641-0.43647-0.5625-0.69336-0.31598-0.37466-0.57904-0.67341-0.79296-0.97461-0.07058-0.099368-0.14436-0.21171-0.2129-0.33203h-0.20312-1-6v-2h6 1 1v0.037109c0.21075-0.042375 0.38695-0.041868 0.52539-0.025391 0.36179 0.043061 0.63174 0.14328 0.74805 0.17578 0.36644 0.10238 0.50078 0.29332 0.72851 0.46875-1e-3 -0.12447-0.00107-0.12935-0.00195-0.27344-0.0039-0.604-5.5e-4 -0.91982 0-1.3828h-2v-2h2v0.90039c0-0.2-0.03229-0.50517 0.12109-0.93555 0.07669-0.21519 0.22556-0.48026 0.48633-0.67774 0.26078-0.19748 0.60072-0.28711 0.89258-0.28711h-0.5v-2h2v2h-1.5c0.29186 0 0.63182 0.089622 0.89258 0.28711 0.26077 0.19748 0.40963 0.46255 0.48633 0.67774 0.15334 0.43038 0.11914 0.73555 0.11914 0.93555 9.5e-4 0.050513-3.1e-4 0.18794 0 0.25976 0.13451 0.046713 0.27783 0.040053 0.39257 0.12695 0.2608 0.19748 0.40963 0.46254 0.48633 0.67774 0.0265 0.075487 0.00489 0.096152 0.02149 0.16406 0.03378 0.0092365 0.06753 0.016449 0.10156 0.023438v-5.1523c0-1.108-0.892-2-2-2h-12zm-1 2h2v2h-2v-2zm3 0h2v2h-2v-2zm3 0h2v2h-2v-2zm3 0h2v2h-2v-2zm-9 3h2v2h-2v-2zm3 0h2v2h-2v-2zm3 0h2v2h-2v-2zm6.5 0c-0.49921 0-0.5 0.50039-0.5 0.90039-6e-3 0.3531-7e-3 1.3893 0 2.4766 0.0106 1.738 0.0208 1.9858 0 2.0605-0.887-0.20159-1.2338-1.0741-1.9961-1.2871-0.32069-0.0896-0.9374-0.30964-0.99805 0.027344-0.0548 0.30466 0.32409 0.72243 0.99805 1.5234 1.0598 1.3884 1.9766 2.2236 2.1582 2.2754 0.11105 0.03173 2.9885 0.03163 3.1035 0 0.0522-0.01437 0.12574-0.061689 0.17969-0.11523 0.0756-0.07504 0.10339-0.12907 0.16211-0.31055 0.16811-0.51957 0.3392-1.1117 0.38672-1.5508 0.0117-0.28746 3e-3 -0.52828 0-0.78906 0-0.51518 4e-3 -0.12067 0-0.31055 0-0.4-8e-4 -0.90039-0.5-0.90039-0.49921 0-0.49805 0.50039-0.49805 0.90039 8.6e-4 -0.40409 3e-3 -0.85512 0-1 0-0.4-8e-4 -0.90039-0.5-0.90039s-0.49804 0.50039-0.49804 0.90039c8.6e-4 -0.40408 3e-3 -0.85512 0-1 0-0.4-7.9e-4 -0.90039-0.5-0.90039-0.4992 0-0.5 0.50039-0.5 0.90039 1e-3 -0.21995 0-0.27462 0-0.68945 0-0.51518 4e-3 -1.1207 0-1.3105 0-0.4 0.00115-0.90039-0.49805-0.90039z" fill="#dfdfdf"/>
 </g>
 <g id="22-22-input-keyboard-virtual-off">
  <rect x="160" y="-22" width="22" height="22" opacity=".001"/>
  <path d="m165-17c-1.108 0-2 0.892-2 2v8c0 1.108 0.892 2 2 2h7.0078a5 5 0 0 1-0.90234-2h-0.10547-6v-2h6 0.10156a5 5 0 0 1 0.31836-1h-1.4199v-2h2v1.0098a5 5 0 0 1 1-1.002v-0.007812h0.00977a5 5 0 0 1 2.9902-1v-2h2v2h-2a5 5 0 0 1 3 1.0078v-3.0078c0-1.108-0.892-2-2-2h-12zm-1 2h2v2h-2v-2zm3 0h2v2h-2v-2zm3 0h2v2h-2v-2zm3 0h2v2h-2v-2zm-9 3h2v2h-2v-2zm3 0h2v2h-2v-2z" fill="#dfdfdf" opacity=".35"/>
  <path d="m176-12c-2.2091 0-4 1.7909-4 4s1.7909 4 4 4 4-1.7909 4-4-1.7909-4-4-4zm-1.6426 1.6328-0.0039 0.013672 1.6465 1.6465 1.6465-1.6465 0.70704 0.70703-1.6465 1.6465 1.6465 1.6465-0.70704 0.70703-1.6426-1.6602-1.6465 1.6465-0.70703-0.70703 1.6465-1.6465-1.6465-1.6465 0.70703-0.70703z" fill="#dfdfdf"/>
 </g>
</svg>
