<?xml version="1.0" encoding="UTF-8"?>
<svg width="32" height="32" version="1.1" xmlns="http://www.w3.org/2000/svg">
 <g id="jami">
  <rect width="32" height="32" opacity=".001"/>
  <path d="m22.963 17.039 2.1914 4.6914c4.1364-0.86136 4.7724-2.1528 4.7969-2.2246 0.02448-0.071777 0.048828-0.12011 0.048828-0.16797v-0.28711s-0.009808-0.014349-0.025391-0.035156v0.3457c-1.0002-0.97773-4.21-1.8553-7.0117-2.3223z" opacity=".2"/>
  <path d="m22.902 16.881-3.4922 4.793c2.2627 2.7082 4.6141 4.8495 6.3867 5.3145 0.048478 0.007251 0.097467 0.013672 0.14062 0.013672 0.04895-0.02393 0.073186-0.071287 0.097656-0.11914 0.07343-0.09571 1.4196-2.2498-3.1328-10.002z" opacity=".2"/>
  <path d="m6.9941 20.723-0.39258 1.1348c-1.4441 3.7565-0.70911 4.9297-0.66016 5.0254 0.024476 0.047861 0.048705 0.095218 0.097656 0.11914 0.097902 0 0.19507-0.022945 0.29297-0.046875 0 0 0.0038232-1.9e-5 0.0039063 0 1.3021-0.36306 3.207-1.498 6.0156-4.7285l-5.3574-1.5039z" opacity=".2"/>
  <path d="m6.8217 12.167c-1.542-3.8761-0.78322-5.0964-0.73427-5.1681 0.097902-0.11963 0.22028-0.21534 0.34266-0.28712l4.2587-2.6558c-0.36713 1.6988 0.56294 4.3068 2.007 7.3455z" opacity=".2"/>
  <ellipse cx="16" cy="15.997" rx="8.4" ry="8.208" fill="#4b5b90"/>
  <path d="m22.706 15.491c6.3881 1.0049 7.2937 2.5601 7.2937 2.5601v0.28712c0 0.04786-0.02447 0.09571-0.04895 0.16749-0.02447 0.07178-0.66084 1.3638-4.7972 2.2252z" fill="#4767b5"/>
  <path d="m6.6014 20.857c-1.4441 3.7565-0.70979 4.9289-0.66084 5.0246 0.024476 0.04786 0.048951 0.09571 0.097902 0.11963 0.097902 0 0.1958-0.02393 0.29371-0.04786 0 0 2.6682 0.61199 5.7276-3.6469l1.0032-0.88223-6.0691-1.7021z" fill="#4b5b90"/>
  <path d="m16.147 6.5254c-3.5-3.7325-5.1888-3.5172-5.2867-3.5172-0.04895 0-0.12238 0.023926-0.17133 0.047853-0.12238 0.047853-0.24476 0.43068-0.24476 0.43068s-0.73427 2.0816 2.2273 7.6326z" fill="#2f4479"/>
  <path d="m19.206 20.953c4.7483 5.3117 6.4126 5.0006 6.4126 5.0006 0.0979 0.02393 0.22028 0.04786 0.31818 0.04786 0.04895-0.02393 0.07343-0.07178 0.0979-0.11963 0.07343-0.09571 1.4196-2.2491-3.1329-10.001z" fill="#2f4479"/>
  <path d="m13.063 21.425c-9.7902-0.40675-10.965-2.7994-11.014-2.919-0.024476-0.047853-0.048951-0.095707-0.048951-0.16749 0.024475-0.16748 0.36713-0.47853 0.36713-0.47853s2.5944-1.5552 6.9266-2.3927z" fill="#4767b5"/>
  <path d="m19.818 10.545c2.5699-5.9099 1.5664-7.2497 1.5664-7.2497-0.02448-0.07178-0.04895-0.16749-0.07343-0.23927-0.04895-0.023926-0.0979-0.023926-0.17133-0.047853-0.12238-0.023926-2.7902-0.3589-8.4196 7.3455z" fill="#4b5b90"/>
  <path d="m6.8217 11.167c-1.542-3.8761-0.78322-5.0964-0.73427-5.1681 0.097902-0.11963 0.22028-0.21534 0.34266-0.28712l4.2587-2.6558c-0.36713 1.6988 0.56294 4.3068 2.007 7.3455z" fill="#0084db"/>
  <path d="m20.333 10.177c-0.73427-0.023926-2.9621-0.13295-4.3328-0.13295-12.507 0-13.878 2.6229-13.951 2.7665-0.048951 0.14356-0.048951 0.28712-0.048951 0.4546v5.1203c1.2238-1.1963 3.8916-2.0338 7.1469-2.5123 2.1049-0.28712 4.2098-0.4546 6.3392-0.47853l2.7513 0.07187c0.56274 0.0147 2.8297-5.2416 2.0954-5.2895z" fill="#0cb4ff"/>
  <path d="m20.984 15.766c3.0363 0.29939 7.7428 1.3754 8.991 2.5956v-4.9289c0-0.14356-0.02447-0.31104-0.04895-0.4546-0.02447-0.07178-1.2879-2.0064-6.7777-2.4001z" fill="#0cb4ff"/>
  <path d="m21.312 4.0561c0.61189 2.8233-1.8109 8.278-5.1885 13.279-5.2416 7.4879-8.2731 9.3073-10.06 9.6901l4.3805 2.7762c0.12238 0.07178 0.27014 0.1432 0.41699 0.19105 0.0979 0 2.5954 0.56301 8.8102-7.8959 0.24476-0.26319 0.85703-1.2434 1.3221-1.9372 6.8042-10.241 5.1402-12.921 5.0668-13.041-0.097902-0.11963-0.22079-0.21546-0.34316-0.28724z" opacity=".2"/>
  <path d="m2.4668 19c-0.17014 0.12366-0.327 0.25037-0.46289 0.38281 0.0076412 0.047891 0.026079 0.086207 0.044922 0.12305 0.048951 0.11963 1.2235 2.5132 11.014 2.9199l-0.6543-1.0332c-6.698-0.35309-9.1084-1.663-9.9414-2.3926z" opacity=".2"/>
  <path d="m16 10.045c-12.507 0-13.878 2.6221-13.951 2.7656-0.048951 0.14356-0.048828 0.28759-0.048828 0.45508v1c0-0.16749-1.23e-4 -0.31152 0.048828-0.45508 0.073426-0.14356 1.4442-2.7656 13.951-2.7656 1.3706 0 3.5978 0.10888 4.332 0.13281 0.007353 4.8e-4 0.012775 0.004346 0.019531 0.00586 0.15307-0.58092 0.18195-0.99273-0.019531-1.0059-0.73427-0.023926-2.9614-0.13281-4.332-0.13281zm7.1484 0.5332-2.1641 5.1875c0.1247 0.012296 0.26651 0.033956 0.39648 0.048828l1.7676-4.2363c5.4898 0.39371 6.7529 2.3286 6.7773 2.4004 0.02448 0.14356 0.048828 0.31152 0.048828 0.45508v-1c0-0.14356-0.024348-0.31152-0.048828-0.45508-0.02447-0.07178-1.2875-2.0067-6.7773-2.4004z" fill="#fff" opacity=".2"/>
  <path d="m21.312 3.0561c0.61189 2.8233-1.8109 8.278-5.1885 13.279-5.2416 7.4879-8.2731 9.3073-10.06 9.6901l4.3805 2.7762c0.12238 0.07178 0.27014 0.1432 0.41699 0.19105 0.0979 0 2.5954 0.56301 8.8102-7.8959 0.24476-0.26319 0.85703-1.2434 1.3221-1.9372 6.8042-10.241 5.1402-12.921 5.0668-13.041-0.097902-0.11963-0.22079-0.21546-0.34316-0.28724z" fill="#00ccfa"/>
  <path d="m15.486 16.396c-2.1174 0.02379-4.2111 0.18879-6.3041 0.47295 0.45607 0.77577 1.3856 2.2828 1.9715 3.1704 6.8042 10.241 9.9867 9.8343 10.134 9.8104 0.14685-0.04785 0.29325-0.12061 0.41562-0.19239l4.2342-2.632c-2.7727-0.59823-7.0585-5.5198-10.16-10.287l-0.19141-0.34202z" opacity=".2"/>
  <path d="m21.312 3.0566c0.068983 0.3183 0.093067 0.67392 0.087891 1.0547l4.3164 2.7188c0.12238 0.07178 0.24585 0.16943 0.34375 0.28906 0.019063 0.03106 0.14176 0.23932 0.19922 0.70312 0.10496-1.186-0.16986-1.6553-0.19922-1.7031-0.097902-0.11963-0.22137-0.21728-0.34375-0.28906l-4.4043-2.7734zm0.068359 1.4609c-0.22092 3.012-2.3922 7.5738-5.2578 11.816-5.2416 7.4879-8.2738 9.3086-10.061 9.6914l1.0312 0.65234c1.8575-0.82635 4.6822-3.1337 9.0293-9.3438 3.2024-4.7412 5.5447-9.8886 5.2578-12.816z" fill="#fff" opacity=".2"/>
  <path d="m15.486 15.396c-2.1174 0.02379-4.2111 0.18879-6.3041 0.47295 0.45607 0.77577 1.3856 2.2828 1.9715 3.1704 6.8042 10.241 9.9867 9.8343 10.134 9.8104 0.14685-0.04785 0.29325-0.12061 0.41562-0.19239l4.2342-2.632c-2.7727-0.59823-7.0585-5.5198-10.16-10.287l-0.19141-0.34202z" fill="#0084db"/>
  <path d="m15.486 15.395c-2.1294 0.023926-4.2349 0.1914-6.3398 0.47852-3.2552 0.47853-5.9227 1.3173-7.1465 2.5137v1c1.2238-1.1963 3.8912-2.0351 7.1465-2.5137 2.1049-0.28712 4.2105-0.45459 6.3398-0.47852l0.58203 0.015625c0.018601-0.026508 0.036031-0.04952 0.054688-0.076172 0.20319-0.30083 0.40183-0.6028 0.59766-0.90625l-1.2344-0.033203zm7.459 0.64258c-0.17246 0.29461-0.3549 0.59704-0.54492 0.9082 2.9177 0.43721 6.507 1.3727 7.5742 2.416v-1c-1.0021-0.9796-4.2242-1.8583-7.0293-2.3242z" opacity=".2"/>
  <path d="m10.689 3.0566-4.2598 2.6543c-0.12238 0.07178-0.24389 0.16748-0.3418 0.28711-0.029413 0.04313-0.31235 0.5071-0.20117 1.707 0.056074-0.471 0.18201-0.67893 0.20117-0.70703 0.097902-0.11963 0.21942-0.21533 0.3418-0.28711l4.1855-2.6074c-0.01697-0.37854 0.0055-0.72891 0.074219-1.0469zm-0.052734 1.3223c-0.16815 1.441 0.46257 3.4473 1.4844 5.7637 0.14621-0.007767 0.29291-0.016543 0.44336-0.023437-1.0396-2.2191-1.7869-4.1968-1.9277-5.7402zm4.8457 11.016c-0.17092 0.001935-0.3411 0.005994-0.51172 0.009766l0.80664 1.334c2.7456 4.221 6.4197 8.5589 9.1504 9.9141l1.0098-0.62695c-2.7727-0.59823-7.0591-5.5196-10.16-10.287l-0.19141-0.3418h-0.025391-0.074219l-0.003906-0.001953z" fill="#fff" opacity=".1"/>
 </g>
 <g id="22-22-jami">
  <rect x="32" y="10" width="22" height="22" opacity=".001"/>
  <path d="m36.534 16.114-1.01 1.7417c-0.67334 1.1611 13.269 9.1905 13.943 8.0294l1.01-1.7417c0.67335-1.1611-13.269-9.1905-13.943-8.0294" fill="#dfdfdf" opacity=".6"/>
  <path d="m49.466 16.114 1.01 1.7417c0.67334 1.1611-13.269 9.1905-13.943 8.0294l-1.01-1.7417c-0.67335-1.1611 13.269-9.1905 13.943-8.0294" fill="#dfdfdf" opacity=".35"/>
  <path d="m43.985 13.005-1.9999-0.005245c-1.3333-0.003496-1.3042 15.991 0.029046 15.995l1.9999 0.0052c1.3333 0.0035 1.3042-15.991-0.029046-15.995" fill="#dfdfdf"/>
 </g>
</svg>
