<?xml version="1.0" encoding="UTF-8"?>
<svg width="32" height="32" version="1.1" xmlns="http://www.w3.org/2000/svg">
 <g id="22-22-kaffeine" transform="translate(0,2)">
  <path d="m32 8h22v22h-22v-22z" opacity=".001"/>
  <path d="m35.199 11c-0.0089 0-0.01466 0.0038-0.02344 0.0039l1.9961 1.9961h2.8281l-2-2zm4.8008 2-2 2h-2.8281l2-2h-2.8281l-0.34375-0.34375v13.113s-7.81e-4 1.2305 1.1992 1.2305h15.602s1.1992 3.01e-4 1.1992-1.2305v-12.77h-0.68555l-2 2h-2.8281l2-2h2.8281l-2.002-2h-2.8262l1.9473 1.9473-0.052735 0.052734h-2.7246l-2 2h-2.8281l2-2h2.8281l-2-2h-2.8281l1.9922 1.9922-0.007812 0.007812zm-5.125-1.9609c-0.18058 0.04094-0.324 0.11583-0.4375 0.20898 0.11402-0.09345 0.25654-0.16762 0.4375-0.20898zm-0.4375 0.20898h-2e-3c-0.05685 0.04681-0.10553 0.09812-0.14844 0.15234 0.04308-0.05377 0.09338-0.10562 0.15039-0.15234zm6.3359 4.752a0.80779 0.87105 0 0 1 0.46289 0.13281l2.6914 1.8145 2.6934 1.8145a0.80779 0.87105 0 0 1 0 1.4766l-2.6934 1.8145-2.6914 1.8145a0.80779 0.87105 0 0 1-1.2363-0.73828v-7.2578a0.80779 0.87105 0 0 1 0.77344-0.87109z" fill="#dfdfdf"/>
 </g>
 <g id="kaffeine">
  <rect width="32" height="32" opacity=".001"/>
  <rect transform="matrix(0,-1,-1,0,0,0)" x="-28" y="-30" width="24" height="28" rx="1.5" ry="1.5" fill="#54402a"/>
  <path d="m12.51 15a0.49999 0.55556 0 0 0-0.51 0.556v8.8884a0.49999 0.55556 0 0 0 0.74798 0.4828l6.9993-4.4439a0.49999 0.55556 0 0 0 0-0.9656l-6.9993-4.4445a0.49999 0.55556 0 0 0-0.23797-0.073z" opacity=".2"/>
  <path d="m12.51 14a0.49999 0.55556 0 0 0-0.51 0.556v8.8884a0.49999 0.55556 0 0 0 0.74798 0.4828l6.9993-4.4439a0.49999 0.55556 0 0 0 0-0.9656l-6.9993-4.4445a0.49999 0.55556 0 0 0-0.23797-0.073z" fill="#d2d2d2"/>
  <path d="m2 26.5v1c0 0.831 0.669 1.5 1.5 1.5h25c0.831 0 1.5-0.669 1.5-1.5v-1c0 0.831-0.669 1.5-1.5 1.5h-25c-0.831 0-1.5-0.669-1.5-1.5z" opacity=".2"/>
  <path d="m2 10v-4.5c0-0.831 0.669-1.5 1.5-1.5h25c0.831 0 1.5 0.669 1.5 1.5v4.5z" opacity=".2"/>
  <path d="m2 6.5v-1c0-0.831 0.669-1.5 1.5-1.5h25c0.831 0 1.5 0.669 1.5 1.5v1c0-0.831-0.669-1.5-1.5-1.5h-25c-0.831 0-1.5 0.669-1.5 1.5z" fill="#fff" opacity=".2"/>
  <path d="m2 7v-1.5c0-0.831 0.669-1.5 1.5-1.5h25c0.831 0 1.5 0.669 1.5 1.5v1.5z" opacity=".2"/>
  <path d="m3.5 4c-0.831 0-1.5 0.669-1.5 1.5v4.5h6v-3l-3-3z" fill="#d2d2d2"/>
  <path d="m12 7-3-3h4l3 3z" fill="#bebebe"/>
  <path d="m12 7-3 3h4l3-3z" fill="#d2d2d2"/>
  <path d="m19 7-3-3h4l3 3z" fill="#bebebe"/>
  <path d="m19 7-3 3h4l3-3z" fill="#d2d2d2"/>
  <path d="m26 7-3-3h4l3 3z" fill="#bebebe"/>
  <path d="m26 7-3 3h4l3-3z" fill="#d2d2d2"/>
 </g>
</svg>
