<?xml version="1.0" encoding="UTF-8"?>
<svg width="32" height="32" version="1.1" xmlns="http://www.w3.org/2000/svg">
 <g id="22-22-kalarm">
  <rect x="32" y="10" width="22" height="22" opacity=".001"/>
  <path d="m37 11.988v0.011719c-1.6569 0-3 1.3431-3 3 6.29e-4 0.79972 0.32054 1.5661 0.88867 2.1289 0.88843-1.8521 2.3882-3.3516 4.2402-4.2402-0.56088-0.57244-1.3275-0.89667-2.1289-0.90039zm12 0.011719c-0.79972 6.29e-4 -1.5661 0.32054-2.1289 0.88867 1.852 0.8886 3.3518 2.3881 4.2402 4.2402 0.56099-0.55565 0.8803-1.3101 0.88867-2.0996 0-1.6569-1.3431-3-3-3v-0.029297zm-6 2c-3.8541 0-7 3.1459-7 7s3.1459 7 7 7 7-3.1459 7-7-3.1459-7-7-7zm0 2c2.7733 0 5 2.2267 5 5s-2.2267 5-5 5-5-2.2267-5-5 2.2267-5 5-5zm2.877 2.668c-0.14423-0.013199-0.29615 0.017402-0.44141 0.10156l-2.8047 1.5801c-0.44874 0.25262-0.51524 0.87021-0.13086 1.2129l0.7832 1.3574c0.33435 0.59737 1.2285 0.47118 1.3848-0.19531 0.04491-0.18962 0.013762-0.38921-0.085938-0.55664l-0.52148-0.90234 2.1113-1.1914c0.17769-0.09703 0.30888-0.26203 0.36328-0.45703 0.13397-0.48548-0.22552-0.90962-0.6582-0.94922zm2.8242 7.9355c-0.7072 0.71716-1.5435 1.2943-2.4648 1.7012 0.27484 0.43237 0.75135 0.69455 1.2637 0.69531 0.82843 0 1.5-0.67157 1.5-1.5-4.21e-4 -0.32322-0.10523-0.63766-0.29883-0.89648zm-11.404 0.003906c-0.1921 0.258-0.29618 0.57092-0.29688 0.89258 0 0.82843 0.67157 1.5 1.5 1.5 0.51049-1.45e-4 0.98587-0.25991 1.2617-0.68945-0.92154-0.40742-1.7578-0.98526-2.4648-1.7031z" fill="#dfdfdf"/>
 </g>
 <g id="kalarm">
  <rect width="32" height="32" opacity=".001"/>
  <path d="m11.257 22.079c-0.74997-0.03976-1.61 0.3043-2.2955 0.98984l-2.9695 2.9695c-1.0969 1.0969-1.3176 2.6418-0.49492 3.4645 0.82265 0.82265 2.3676 0.60194 3.4645-0.49492l2.9695-2.9695c1.0969-1.0969 1.3176-2.6418 0.49492-3.4645-0.30849-0.30849-0.71896-0.47106-1.1689-0.49492zm9.4076 0c-0.44998 0.02386-0.85908 0.18643-1.1676 0.49492-0.82265 0.82265-0.60194 2.3676 0.49492 3.4645l2.9695 2.9695c1.0969 1.0969 2.6418 1.3176 3.4645 0.49492 0.82265-0.82265 0.60194-2.3676-0.49492-3.4645l-2.9695-2.9695c-0.68554-0.68554-1.5469-1.0296-2.2969-0.98984z" fill="#4f4f4f"/>
  <path d="m5 2a5 5 0 0 0-5 5 5 5 0 0 0 5 5 5 5 0 0 0 5-5 5 5 0 0 0-5-5zm22 0a5 5 0 0 0-5 5 5 5 0 0 0 5 5 5 5 0 0 0 5-5 5 5 0 0 0-5-5z" fill="#c03120"/>
  <path d="M 5,2 A 5,5 0 0 0 0,7 5,5 0 0 0 0.027344,7.5156 5,5 0 0 1 5.000044,3 5,5 0 0 1 9.972744,7.4844 5,5 0 0 0 10.000044,7 a 5,5 0 0 0 -5,-5 z M 27,2 A 5,5 0 0 0 22,7 5,5 0 0 0 22.027,7.5156 5,5 0 0 1 27,3 5,5 0 0 1 31.973,7.4844 5,5 0 0 0 32,7 5,5 0 0 0 27,2 Z" fill="#fff" opacity=".1"/>
  <path d="m12.859 24.369c-0.119 0.576-0.427 1.17-0.927 1.67l-2.9711 2.969c-1.0968 1.097-2.6402 1.317-3.4629 0.494-0.2204-0.22-0.3597-0.493-0.4335-0.795-0.1428 0.686-0.0138 1.348 0.4335 1.795 0.8227 0.823 2.3661 0.603 3.4629-0.494l2.9711-2.971c0.803-0.803 1.129-1.844 0.927-2.668zm6.205 0c-0.201 0.824 0.125 1.865 0.928 2.668l2.969 2.971c1.097 1.097 2.642 1.317 3.465 0.494 0.447-0.447 0.576-1.109 0.433-1.795-0.073 0.302-0.213 0.575-0.433 0.795-0.823 0.823-2.368 0.603-3.465-0.494l-2.969-2.969c-0.5-0.5-0.808-1.094-0.928-1.67z" opacity=".2"/>
  <rect transform="matrix(0,-1,-1,0,0,0)" x="-30" y="-30" width="28" height="28" rx="14" ry="14" fill="#e74c3c"/>
  <rect transform="matrix(0,-1,-1,0,0,0)" x="-29" y="-28" width="24" height="24" rx="12" ry="12" opacity=".2"/>
  <path d="m16 2c-7.756 0-14 6.244-14 14 0 0.169 0.0195 0.333 0.0254 0.5 0.2637-7.5206 6.3874-13.5 13.975-13.5 7.587 0 13.711 5.9794 13.975 13.5 5e-3 -0.167 0.025-0.331 0.025-0.5 0-7.756-6.244-14-14-14z" fill="#fff" opacity=".2"/>
  <rect transform="matrix(0,-1,-1,0,0,0)" x="-28" y="-28" width="24" height="24" rx="12" ry="12" fill="#f8cac5"/>
  <path d="m16 6a1 1 0 0 0-1 1 1 1 0 0 0 1 1 1 1 0 0 0 1-1 1 1 0 0 0-1-1zm5.6895 5.0059c-0.09294 0.0115-0.18501 0.0406-0.27148 0.08984l-5.9902 3.4121c-0.81737 0.40148-1.1282 1.4527-0.79688 2.0605l2.1777 3.7207c0.39905 0.68176 1.277 0.9135 1.9688 0.51953 0.69181-0.39398 0.92835-1.2596 0.5293-1.9414l-2.1621-3.6953 4.9941-2.8438c0.3459-0.19699 0.4633-0.6316 0.26367-0.97266-0.14972-0.2558-0.43408-0.38411-0.71289-0.34961zm-14.689 3.9941a1 1 0 0 0-1 1 1 1 0 0 0 1 1 1 1 0 0 0 1-1 1 1 0 0 0-1-1zm18 0a1 1 0 0 0-1 1 1 1 0 0 0 1 1 1 1 0 0 0 1-1 1 1 0 0 0-1-1zm-9 9a1 1 0 0 0-1 1 1 1 0 0 0 1 1 1 1 0 0 0 1-1 1 1 0 0 0-1-1z" opacity=".7"/>
  <path d="m2.0254 16.5c-0.0059 0.167-0.0254 0.331-0.0254 0.5 0 7.756 6.244 14 14 14s14-6.244 14-14c0-0.169-0.02-0.333-0.025-0.5-0.264 7.521-6.388 13.5-13.975 13.5-7.5872 0-13.711-5.979-13.975-13.5z" opacity=".2"/>
  <path d="m16 4c-6.648 0-12 5.352-12 12 0 0.16884 0.018553 0.3329 0.025391 0.5 0.26239-6.4125 5.4954-11.5 11.975-11.5s11.712 5.0875 11.975 11.5c0.006838-0.1671 0.025391-0.33116 0.025391-0.5 0-6.648-5.352-12-12-12z" fill="#fff" opacity=".2"/>
 </g>
</svg>
