<?xml version="1.0" encoding="UTF-8"?>
<svg width="32" height="32" version="1.1" xmlns="http://www.w3.org/2000/svg">
 <g id="22-22-kdeconnect" transform="translate(32,10)">
  <rect width="22" height="22" rx="0" ry="0" opacity=".001"/>
  <path transform="translate(-32,-10)" d="m39 13c-1 0-1 1-1 1v14s0 1 1 1h8c1 0 1-1 1-1v-14s0-1-1-1h-8zm7 3v9h-6v-8.998l6-0.001953zm-3.5 10h0.5 0.5c0.277 0 0.5 0.223 0.5 0.5v0.5 0.5c0 0.277-0.223 0.5-0.5 0.5h-0.5-0.5c-0.277 0-0.5-0.223-0.5-0.5v-0.5-0.5c0-0.277 0.223-0.5 0.5-0.5z" fill="#dfdfdf"/>
 </g>
 <g id="16-16-kdeconnect" transform="translate(54,-10)">
  <rect y="26" width="16" height="16" rx="0" ry="0" opacity=".001"/>
  <path transform="translate(-54,10)" d="m58.799 18c-0.8 0-0.79883 0.75-0.79883 0.75v10.5s-0.0012 0.75 0.79883 0.75h6.4004c0.8 0 0.80078-0.75 0.80078-0.75v-10.5s-8.42e-4 -0.75-0.80078-0.75h-6.4004zm1.2012 2h2 2v6h-4v-6zm1.5 7h0.5 0.5c0.277 0 0.5 0.223 0.5 0.5v0.5 0.5c0 0.277-0.223 0.5-0.5 0.5h-0.5-0.5c-0.277 0-0.5-0.223-0.5-0.5v-0.5-0.5c0-0.277 0.223-0.5 0.5-0.5z" fill="#dfdfdf"/>
 </g>
 <g id="kdeconnect">
  <rect width="32" height="32" rx="0" ry="0" opacity=".001"/>
  <g transform="translate(0,-1)">
   <rect x="6" y="2" width="20" height="30" rx="1.5" ry="1.5" opacity=".2"/>
   <path d="m7.5 1c-0.831 0-1.5 0.669-1.5 1.5v1.5h20v-1.5c0-0.831-0.669-1.5-1.5-1.5zm-1.5 25v3.5c0 0.831 0.669 1.5 1.5 1.5h17c0.831 0 1.5-0.669 1.5-1.5v-3.5z" fill="#e4e4e4"/>
   <rect x="6" y="4" width="20" height="22" fill="#3f3f3f"/>
   <rect x="14" y="2" width="4" height="1" rx=".5" ry=".492" fill="#333"/>
   <rect x="14" y="27" width="4" height="3" rx="1" ry="1" fill="#4d4d4d"/>
   <path d="m7.5 1c-0.831 0-1.5 0.669-1.5 1.5v1c0-0.831 0.669-1.5 1.5-1.5h17c0.831 0 1.5 0.669 1.5 1.5v-1c0-0.831-0.669-1.5-1.5-1.5z" fill="#fff" opacity=".2"/>
   <rect x="20" y="28" width="3" height="1" rx=".5" ry=".5" fill="#4d4d4d"/>
   <rect x="9" y="28" width="3" height="1" rx=".5" ry=".5" fill="#4d4d4d"/>
   <circle cx="19.5" cy="2.5" r=".5" fill="#333"/>
   <path d="m17.016 7.975-3.016 0.5254v10.387l3-0.387-0.016-4.682 3.539 5.182 3.477-0.5-4-5.363 4.014-4.4999-3.52-0.6484-3.51 4.4993zm-6.342 2.652c-0.029 3e-3 -0.056 0.016-0.078 0.038l-1.0355 1.046c-0.0449 0.045-0.0524 0.116-0.0175 0.17l1.25 1.92c-0.236 0.418-0.414 0.877-0.529 1.357l-2.1585 0.529c-0.0599 0.015-0.1055 0.069-0.1055 0.131v1.364c0 0.062 0.0456 0.116 0.1055 0.13l2.1585 0.53c0.115 0.48 0.293 0.939 0.529 1.357l-1.25 1.92c-0.0349 0.054-0.0274 0.125 0.0175 0.17l1.0355 1.047c0.043 0.044 0.111 0.048 0.164 0.016l1.959-1.202c0.384 0.224 0.985 0.404 1.424 0.524l0.459 2.217c0.012 0.064 0.063 0.109 0.127 0.109h1.542c0.064 0 0.115-0.045 0.127-0.109l0.459-2.217c0.439-0.12 1.04-0.3 1.424-0.524l1.959 1.202c0.053 0.032 0.121 0.028 0.164-0.016l1.035-1.047c0.045-0.045 0.053-0.116 0.018-0.17l-1.041-1.599-0.129 0.019-0.73-1.07c-0.746 1.564-2.324 2.56-4.057 2.562-2.485 0-4.5-2.014-4.5-4.5 1e-3 -1.708 0.97-3.268 2.5-4.027v-0.983c-0.285 0.096-0.566 0.203-0.781 0.329l-1.959-1.201c-0.027-0.016-0.057-0.024-0.086-0.022z" opacity=".2"/>
   <path d="m17.016 6.975-3.016 0.5254v10.387l3-0.387-0.016-4.682 3.539 5.182 3.477-0.5-4-5.363 4.014-4.4999-3.52-0.6484-3.51 4.4993zm-6.342 2.6524c-0.029 0.0024-0.056 0.0151-0.078 0.0371l-1.0355 1.0465c-0.0449 0.045-0.0524 0.116-0.0175 0.17l1.25 1.92c-0.236 0.418-0.414 0.877-0.529 1.357l-2.1585 0.529c-0.0599 0.015-0.1055 0.069-0.1055 0.131v1.364c0 0.062 0.0456 0.116 0.1055 0.13l2.1585 0.53c0.115 0.48 0.293 0.939 0.529 1.357l-1.25 1.92c-0.0349 0.054-0.0274 0.125 0.0175 0.17l1.0355 1.047c0.043 0.044 0.111 0.048 0.164 0.016l1.959-1.202c0.384 0.224 0.985 0.404 1.424 0.524l0.459 2.217c0.012 0.064 0.063 0.109 0.127 0.109h1.542c0.064 0 0.115-0.045 0.127-0.109l0.459-2.217c0.439-0.12 1.04-0.3 1.424-0.524l1.959 1.202c0.053 0.032 0.121 0.028 0.164-0.016l1.035-1.047c0.045-0.045 0.053-0.116 0.018-0.17l-1.041-1.599-0.129 0.019-0.73-1.07c-0.746 1.564-2.324 2.56-4.057 2.562-2.485 0-4.5-2.014-4.5-4.5 1e-3 -1.708 0.97-3.268 2.5-4.027v-0.983c-0.285 0.096-0.566 0.203-0.781 0.329l-1.959-1.2012c-0.027-0.016-0.057-0.0239-0.086-0.0214z" fill="#fff"/>
   <rect x="6" y="4" width="20" height="1" opacity=".2"/>
   <rect x="6" y="26" width="20" height="1" fill="#fff" opacity=".2"/>
  </g>
 </g>
</svg>
