<?xml version="1.0" encoding="UTF-8"?>
<svg width="32" height="32" version="1.1" xmlns="http://www.w3.org/2000/svg">
 <g id="22-22-keyboard-layout" transform="translate(-452,-166)">
  <rect x="484" y="176" width="22" height="22" opacity=".001"/>
  <path d="m495 179c-4.4183 0-8 3.5817-8 8s3.5817 8 8 8c4.4183 0 8-3.5817 8-8s-3.5817-8-8-8zm-0.57143 2.2143c0.0765-8e-3 0.17286 5e-3 0.25 0 9e-3 0.0366-0.0556 0.1667-0.14285 0.35714-0.55527 1.213-0.58677 2.6336-0.0714 3.3929 0.0933 0.13766 0.17857 0.26868 0.17857 0.28571 0 0.017-0.10057 0.0357-0.21429 0.0357-0.26694 0-0.51956-0.1627-1.0357-0.57142-0.22929-0.18157-0.52737-0.33407-0.64286-0.35715-0.18135-0.0362-0.22969-0.0204-0.46429 0.21428-0.21828 0.21824-0.28571 0.33592-0.28571 0.53572 0 0.75764 0.89952 1.3599 2.5714 1.7143 2.2705 0.48122 2.8302 0.91328 2.8929 2.1071 0.0786 1.4971-0.7184 2.626-2.4643 3.5-0.20837 0.10435-0.34114 0.14486-0.42857 0.17858-0.0387-3e-3 -0.0685 3e-3 -0.10708 0-0.0149-0.0463-0.0357-0.15367-0.0357-0.35715 0-0.79517-0.31342-1.6136-0.7857-2.0714-0.12678-0.12288-0.48175-0.38325-0.78573-0.57142-0.30397-0.18816-0.61023-0.40675-0.67857-0.5-0.11326-0.15476-0.12268-0.24983-0.0357-0.53572 0.15858-0.52214 0.34733-0.81295 0.71428-1.1429 0.19237-0.17296 0.38595-0.318 0.42857-0.32142 0.0426-3e-3 -0.24589-0.0901-0.67857-0.17858-0.43267-0.0887-1.0656-0.27442-1.3928-0.39285-0.59838-0.21652-1.4063-0.67104-1.7143-1-0.013-0.0139-0.0243-0.0233-0.0356-0.0357 0.44129-1.7578 1.6797-3.1985 3.3214-3.8929 0.34351-0.14529 0.69763-0.24497 1.0714-0.32143 0.1862-0.038 0.37918-0.0519 0.57143-0.0714zm5.3572 2.6786c0.13423 0.083 0.64104 1.1795 0.78571 1.7143 0.18679 0.69051 0.17327 1.8854 0 2.5714-0.0659 0.26108-0.15046 0.50532-0.17857 0.53572-0.0281 0.0304-0.13007-0.14461-0.25-0.35715-0.11994-0.2125-0.50304-0.66405-0.82143-1-0.91902-0.96975-1.0635-1.4761-0.67857-2.25 0.19414-0.39027 1.039-1.2784 1.1429-1.2143z" fill="#dfdfdf"/>
 </g>
 <g id="keyboard-layout">
  <rect width="32" height="32" opacity=".001"/>
  <g transform="translate(-3.95e-4)">
   <rect transform="matrix(0,-1,-1,0,0,0)" x="-30" y="-30" width="28" height="28" rx="14" ry="14" fill="#02a8f3"/>
   <path d="m16 2c-7.756 0-14 6.244-14 14 0 0.16884 0.01952 0.33264 0.02539 0.5 0.2641-7.5206 6.3878-13.5 13.975-13.5s13.711 5.9794 13.975 13.5c6e-3 -0.16736 0.0254-0.33116 0.0254-0.5 0-7.756-6.244-14-14-14z" fill="#fff" opacity=".2"/>
   <path d="m2.0254 16.5c-0.0059 0.167-0.0254 0.331-0.0254 0.5 0 7.756 6.244 14 14 14s14-6.244 14-14c0-0.16884-0.01952-0.33264-0.02539-0.5-0.264 7.521-6.388 13.5-13.975 13.5-7.5872 0-13.711-5.979-13.975-13.5z" opacity=".2"/>
   <path d="m16 7c-5.5229 0-10 4.4771-10 10s4.4771 10 10 10 10-4.4771 10-10-4.4771-10-10-10zm-0.93555 1.9941c0.10881-0.01139 0.24569 0.0065 0.35547 0 0.01301 0.05204-0.07708 0.23875-0.20117 0.50976-0.79022 1.7263-0.8369 3.7475-0.10352 4.8281 0.13272 0.19592 0.25391 0.38202 0.25391 0.40625 0 0.02424-0.14286 0.05078-0.30469 0.05078-0.3799 1e-6 -0.74006-0.23084-1.4746-0.8125-0.32631-0.25839-0.74971-0.47496-0.91406-0.50781-0.25808-0.05156-0.32628-0.02922-0.66016 0.30469-0.31064 0.31058-0.40625 0.47934-0.40625 0.76367 0 1.0782 1.2808 1.9331 3.6602 2.4375 3.2312 0.68484 4.0261 1.299 4.1152 2.998 0.1119 2.1306-1.0213 3.7367-3.5059 4.9805-0.29655 0.14849-0.48495 0.20788-0.60938 0.25586-0.05514-0.0049-0.09933 0.0049-0.1543 0-0.02114-0.06587-0.05078-0.21824-0.05078-0.50781 0-1.1316-0.44507-2.2978-1.1172-2.9492-0.18042-0.17487-0.68459-0.54471-1.1172-0.8125-0.43258-0.26778-0.86954-0.57822-0.9668-0.71094-0.16114-0.22023-0.17267-0.35487-0.04883-0.76172 0.22568-0.74306 0.49341-1.1594 1.0156-1.6289 0.27378-0.24614 0.54872-0.45018 0.60938-0.45508 0.06067-0.0049-0.34908-0.12989-0.96484-0.25586-0.61573-0.12621-1.5187-0.39005-1.9844-0.55859-0.85156-0.30812-2.0011-0.95568-2.4395-1.4238-0.01853-0.01985-0.034681-0.03321-0.050781-0.05078 0.62801-2.5016 2.3902-4.551 4.7266-5.5391 0.48886-0.20677 0.99342-0.34822 1.5254-0.45703 0.26498-0.05416 0.5389-0.0757 0.8125-0.10352zm7.625 3.8125c0.19102 0.11808 0.91325 1.6802 1.1191 2.4414 0.26582 0.98267 0.24658 2.682 0 3.6582-0.09385 0.37154-0.21585 0.71846-0.25586 0.76172s-0.18674-0.20339-0.35742-0.50586c-0.17069-0.30242-0.71291-0.94574-1.166-1.4238-1.3079-1.3801-1.5146-2.0998-0.9668-3.2012 0.27628-0.55541 1.4791-1.8217 1.627-1.7305z" opacity=".2"/>
   <path d="m16 6c-5.5229 0-10 4.4771-10 10s4.4771 10 10 10 10-4.4771 10-10-4.4771-10-10-10zm-0.93555 1.9941c0.10881-0.01139 0.24569 0.0065 0.35547 0 0.01301 0.05204-0.07708 0.23875-0.20117 0.50976-0.79022 1.7263-0.8369 3.7475-0.10352 4.8281 0.13272 0.19592 0.25391 0.38202 0.25391 0.40625 0 0.02424-0.14286 0.05078-0.30469 0.05078-0.3799 1e-6 -0.74006-0.23084-1.4746-0.8125-0.32631-0.25839-0.74971-0.47496-0.91406-0.50781-0.25808-0.05156-0.32628-0.02922-0.66016 0.30469-0.31064 0.31058-0.40625 0.47934-0.40625 0.76367 0 1.0782 1.2808 1.9331 3.6602 2.4375 3.2312 0.68484 4.0261 1.299 4.1152 2.998 0.1119 2.1306-1.0213 3.7367-3.5059 4.9805-0.29655 0.14849-0.48495 0.20788-0.60938 0.25586-0.05514-0.0049-0.09933 0.0049-0.1543 0-0.02114-0.06587-0.05078-0.21824-0.05078-0.50781 0-1.1316-0.44507-2.2978-1.1172-2.9492-0.18042-0.17487-0.68459-0.54471-1.1172-0.8125-0.43258-0.26778-0.86954-0.57822-0.9668-0.71094-0.16114-0.22023-0.17267-0.35487-0.04883-0.76172 0.22568-0.74306 0.49341-1.1594 1.0156-1.6289 0.27378-0.24614 0.54872-0.45018 0.60938-0.45508 0.06067-0.0049-0.34908-0.12989-0.96484-0.25586-0.61573-0.12621-1.5187-0.39005-1.9844-0.55859-0.85156-0.30812-2.0011-0.95568-2.4395-1.4238-0.01853-0.01985-0.034681-0.03321-0.050781-0.05078 0.62801-2.5016 2.3902-4.551 4.7266-5.5391 0.48886-0.20677 0.99342-0.34822 1.5254-0.45703 0.26498-0.05416 0.5389-0.0757 0.8125-0.10352zm7.625 3.8125c0.19102 0.11808 0.91325 1.6802 1.1191 2.4414 0.26582 0.98267 0.24658 2.682 0 3.6582-0.09385 0.37154-0.21585 0.71846-0.25586 0.76172s-0.18674-0.20339-0.35742-0.50586c-0.17069-0.30242-0.71291-0.94574-1.166-1.4238-1.3079-1.3801-1.5146-2.0998-0.9668-3.2012 0.27628-0.55541 1.4791-1.8217 1.627-1.7305z" fill="#fff"/>
  </g>
 </g>
</svg>
