<?xml version="1.0" encoding="UTF-8"?>
<svg width="32" height="32" version="1.1" xmlns="http://www.w3.org/2000/svg">
 <g id="22-22-kgpg" transform="translate(-315,267)">
  <rect x="347" y="-257" width="22" height="22" opacity=".001"/>
  <path transform="translate(347 -257)" d="m11 3c-5.0026-3e-3 -5 4.6426-5 4.6426v2.3574h-0.83398c-0.64633 0-1.166 0.36686-1.166 1v6.8574c0 0.63315 0.51969 1.1426 1.166 1.1426h11.668c0.64633 0 1.166-0.50943 1.166-1.1426v-6.8574c0-0.63314-0.52898-0.89079-1.166-1h-0.83398v-2.3574s3e-3 -4.6392-5-4.6426zm0 3c2.0026-3e-3 2 1.5723 2 1.5723v2.4277h-4v-2.4277s0.00301-1.5689 2-1.5723zm-4 7h8v3h-8z" fill="#dfdfdf"/>
 </g>
 <g id="16-16-kgpg" transform="translate(-296,302)">
  <rect x="350" y="-286" width="16" height="16" opacity=".001"/>
  <g id="layer9-4" transform="translate(2.9974 -35.003)">
   <path transform="translate(344 -275)" d="m11 25c-2.216 0-4 1.8216-4 4.0625v1.9375h-1c-0.554 0-1 0.446-1 1v6c0 0.554 0.446 1 1 1h10c0.554 0 1-0.446 1-1v-6c0-0.554-0.446-1-1-1h-1v-1.9375c0-2.24-1.784-4.0625-4-4.0625zm0 2c1.108 0 2 0.892 2 2v2h-4v-2c0-1.108 0.892-2 2-2zm-4 6h8v4h-8z" fill="#dfdfdf"/>
  </g>
 </g>
 <g id="kgpg">
  <rect width="32" height="32" opacity=".001"/>
  <path d="m16 2c-4.432 0-8 3.568-8 8v3h3v-3c0-2.77 2.23-5 5-5s5 2.23 5 5v3h3v-3c0-4.432-3.568-8-8-8z" fill="#d2d2d2"/>
  <rect transform="matrix(0,-1,-1,0,0,0)" x="-30" y="-27" width="17" height="22" rx="1.4" ry="1.4" fill="#fecd38"/>
  <path d="m16 2c-4.432 0-8 3.568-8 8v1c0-4.432 3.568-8 8-8s8 3.568 8 8v-1c0-4.432-3.568-8-8-8z" fill="#fff" opacity=".1"/>
  <path d="m6.4002 13c-0.7756 0-1.4004 0.625-1.4004 1.4v1c0-0.775 0.6248-1.4 1.4004-1.4h19.2c0.775 0 1.4 0.625 1.4 1.4v-1c0-0.775-0.625-1.4-1.4-1.4z" fill="#fff" opacity=".1"/>
  <path d="m4.9998 27.6v1c0 0.775 0.6248 1.4 1.4004 1.4h19.2c0.775 0 1.4-0.625 1.4-1.4v-1c0 0.775-0.625 1.4-1.4 1.4h-19.2c-0.7752 0-1.4-0.625-1.4-1.4z" fill="#cb9a05"/>
  <path d="m4.9998 26.6v1c0 0.775 0.6248 1.4 1.4004 1.4h19.2c0.775 0 1.4-0.625 1.4-1.4v-1c0 0.775-0.625 1.4-1.4 1.4h-19.2c-0.7752 0-1.4-0.625-1.4-1.4z" fill="#fff" opacity=".1"/>
  <rect x="8" y="17" width="16" height="10" rx="0" ry="0" opacity=".2"/>
  <rect x="8" y="16" width="16" height="10" rx="0" ry="0" fill="#fff"/>
  <path d="m16 5c-2.77 0-5 2.23-5 5v1c0-2.77 2.23-5 5-5s5 2.23 5 5v-1c0-2.77-2.23-5-5-5zm-11 23.6v1c0 0.775 0.6248 1.4 1.4004 1.4h19.2c0.775 0 1.4-0.625 1.4-1.4v-1c0 0.775-0.625 1.4-1.4 1.4h-19.2c-0.7752 0-1.4-0.625-1.4-1.4z" opacity=".2"/>
 </g>
</svg>
