<?xml version="1.0" encoding="UTF-8"?>
<svg width="32" height="32" version="1" xmlns="http://www.w3.org/2000/svg">
 <g id="kleopatra">
  <rect width="32" height="32" opacity=".001"/>
  <rect x="2" y="3" width="28" height="28" rx="8.4" ry="8.4" opacity=".2"/>
  <rect x="2" y="2" width="28" height="28" rx="8.4" ry="8.4" fill="#d5a43a"/>
  <path d="m14.01 9c-1.8887 0-3.8774 0.52008-5.9219 1.5449-1.6641 0.83419-2.3759 1.5202-1.9824 1.916 0.13881 0.13961 0.044028 0.16939 2.375-0.74414 1.593-0.62431 3.5522-1.1502 4.6113-1.2402 1.6354-0.13904 3.5832 0.19275 7.0312 1.459 1.2382 0.45471 2.6622 0.83206 3.1641 0.96094 1.0734 0.27564 1.1852 0.23327 2.0801 0.23633l0.63281 0.001954v-0.44141c0-0.61669-0.07421-0.67578-0.84766-0.67578-1.7243 0-2.1529-0.1797-4.748-1.3359-2.7797-1.2384-4.4649-1.6816-6.3945-1.6816zm-1.6641 4.0059c-0.29358 0.01094-0.55684 0.03988-0.76758 0.08399-0.97198 0.20338-2.2719 0.94337-3.0703 1.6934-1.2376 1.1625-2.635 3.3348-2.498 3.8828 0.061683 0.24678 0.12436 0.26232 1.2148 0.30859 0.63304 0.02686 1.8739 0.1738 2.8457 0.32422l1.5391 0.27148v0.76563c-0.30481 1.4025-0.08549 2.1611-0.03125 2.6719 0.20313 1.8486 0.20551 2.0494 0.67578 1.9824 0.72647-1.1997 0.80919-3.5022 0.81445-4.8281l0.74219 0.73047c0.75087 0.67277 1.2951 1.0318 1.7637 1.2754 2.0464 1.0636 4.3522 1.8687 6.5723 1.7266 0.85545 0 1.9362-0.9647 1.9355-2.0781-3.52e-4 -0.85855-0.23756-1.3218-0.81641-1.5977-1.0641-0.50707-2.2441 0.09533-2.2441 1.2207 0 1.1045 1.0468 1.7158 1.7422 1.0176 0.29006-0.29127 0.36223-0.7788 0.15625-1.0742-0.09142-0.13112-0.10005-0.11118-0.04297 0.0918 0.197 0.70048-0.34125 1.186-0.95898 0.86524-0.64559-0.33523-0.52224-1.4124 0.18164-1.5898 0.34768-0.08764 0.95563 0.22022 1.1836 0.6875 0.12285 0.2518 0.12679 0.40296 0.02148 0.75586-0.34542 1.1577-2.3424 0.95406-4.6719-0.02539-1.5212-0.63963-3.2204-1.5143-4.0547-2.2324-0.57602-0.50826-0.22498-0.39453 1.2773-0.64062 0.43192-0.07074 1.9968-0.43933 3.1074-0.81836 1.9731-0.67336 2.0462-1.0889 3.252-1.0977 0.67873-5e-3 -0.44834-0.04728 0.67773 2e-3l2.1074 0.087836v-2.4297l-2.4434-0.0625c-3.4084-0.08989-1.7456 0.39016-5.2637-0.97461-0.67178-0.2606-1.3877-0.57392-1.8574-0.69726-0.83299-0.21875-2.2091-0.33166-3.0898-0.29883zm3.9922 1.7793c0.04084 0 0.62306 0.32923 1.5605 0.73242 0.93749 0.4032 1.8249 0.76159 1.9727 0.79883 0.14775 0.03724 0.26953 0.10851 0.26953 0.15625 0 0.04774-0.56952 0.37069-1.2637 0.7168-1.4156 0.70583-2.2552 1.0021-3.623 1.0703l-0.33789 0.01367 0.36523-0.28906c0.20057-0.15873 0.50418-0.52466 0.67383-0.81445 0.26915-0.45975 0.30859-0.64606 0.30859-1.457 0-0.51116 0.03338-0.92774 0.07422-0.92774zm-6.1094 0.24219c0.16814-0.03198 0.16639 0.23084 0.16797 0.75391 0.0032 1.0294 0.24941 1.5895 0.95703 2.1797l0.46484 0.38672-2.1738-0.20312c-1.1556-0.11069-2.0546-0.22439-2.0859-0.25586-0.11231-0.11278 0.50759-0.97582 1.416-1.8516 0.67639-0.65206 1.0858-0.97778 1.2539-1.0098z" opacity=".1"/>
  <path d="m14.01 8c-1.8887 0-3.8774 0.52008-5.9219 1.5449-1.6641 0.83419-2.3759 1.5203-1.9824 1.916 0.13881 0.13961 0.044028 0.16939 2.375-0.74414 1.593-0.62431 3.5522-1.1502 4.6113-1.2402 1.6354-0.13904 3.5832 0.19275 7.0312 1.459 1.2382 0.45471 2.6622 0.83206 3.1641 0.96094 1.0734 0.27564 1.1852 0.23327 2.0801 0.23633l0.63281 0.001954v-0.44141c0-0.61669-0.07421-0.67578-0.84766-0.67578-1.7243 0-2.1529-0.1797-4.748-1.3359-2.7797-1.2384-4.4649-1.6816-6.3945-1.6816zm-1.6641 4.0059c-0.29358 0.01094-0.55684 0.03988-0.76758 0.08399-0.97198 0.20338-2.2719 0.94337-3.0703 1.6934-1.2376 1.1625-2.635 3.3348-2.498 3.8828 0.061683 0.24678 0.12436 0.26232 1.2148 0.30859 0.63304 0.02686 1.8739 0.1738 2.8457 0.32422l1.5391 0.27148v0.76563c-0.30481 1.4025-0.08549 2.1611-0.03125 2.6719 0.20313 1.8486 0.20551 2.0494 0.67578 1.9824 0.72647-1.1997 0.80919-3.5022 0.81445-4.8281l0.74219 0.73047c0.75087 0.67277 1.2951 1.0318 1.7637 1.2754 2.0464 1.0636 4.3522 1.8687 6.5723 1.7266 0.85545 0 1.9362-0.9647 1.9355-2.0781-3.52e-4 -0.85855-0.23756-1.3218-0.81641-1.5977-1.0641-0.50707-2.2441 0.09533-2.2441 1.2207 0 1.1045 1.0468 1.7158 1.7422 1.0176 0.29006-0.29127 0.36223-0.7788 0.15625-1.0742-0.09142-0.13112-0.10005-0.11118-0.04297 0.0918 0.197 0.70048-0.34125 1.186-0.95898 0.86524-0.64559-0.33523-0.52224-1.4124 0.18164-1.5898 0.34768-0.08764 0.95563 0.22022 1.1836 0.6875 0.12285 0.2518 0.12679 0.40296 0.02148 0.75586-0.34542 1.1577-2.3424 0.95406-4.6719-0.02539-1.5212-0.63963-3.2204-1.5143-4.0547-2.2324-0.57602-0.50826-0.22498-0.39453 1.2773-0.64062 0.43192-0.07074 1.9968-0.43933 3.1074-0.81836 1.9731-0.67336 2.0462-1.0889 3.252-1.0977 0.67873-5e-3 -0.44834-0.04728 0.67773 2e-3l2.1074 0.087836v-2.4297l-2.4434-0.0625c-3.4084-0.08989-1.7456 0.39016-5.2637-0.97461-0.67178-0.2606-1.3877-0.57392-1.8574-0.69726-0.83299-0.21875-2.2091-0.33166-3.0898-0.29883zm3.9922 1.7793c0.04084 0 0.62306 0.32923 1.5605 0.73242 0.93749 0.4032 1.8249 0.76159 1.9727 0.79883 0.14775 0.03724 0.26953 0.10851 0.26953 0.15625 0 0.04774-0.56952 0.37069-1.2637 0.7168-1.4156 0.70583-2.2552 1.0021-3.623 1.0703l-0.33789 0.01367 0.36523-0.28906c0.20057-0.15873 0.50418-0.52466 0.67383-0.81445 0.26915-0.45975 0.30859-0.64606 0.30859-1.457 0-0.51116 0.03338-0.92774 0.07422-0.92774zm-6.1094 0.24219c0.16814-0.03198 0.16639 0.23084 0.16797 0.75391 0.0032 1.0294 0.24941 1.5895 0.95703 2.1797l0.46484 0.38672-2.1738-0.20312c-1.1556-0.11069-2.0546-0.22439-2.0859-0.25586-0.11231-0.11278 0.50759-0.97582 1.416-1.8516 0.67639-0.65206 1.0858-0.97778 1.2539-1.0098z" fill="#482f00"/>
  <path d="m10.4 2c-4.6536 0-8.4004 3.7468-8.4004 8.4004v1c0-4.6536 3.7468-8.4004 8.4004-8.4004h11.199c4.6536 0 8.4004 3.7468 8.4004 8.4004v-1c0-4.6536-3.7468-8.4004-8.4004-8.4004z" fill="#fff" opacity=".2"/>
 </g>
 <g id="22-22-kleopatra" transform="translate(27,5)">
  <rect x="5" y="5" width="22" height="22" opacity=".001"/>
  <path d="m14.01 7.9995c-1.8887 0-3.8774 0.52008-5.9219 1.5449-1.6641 0.83419-2.3759 1.5203-1.9824 1.916 0.13881 0.13961 0.04403 0.16939 2.375-0.74414 1.593-0.62431 3.5522-1.1502 4.6113-1.2402 1.6354-0.13904 3.5832 0.19275 7.0312 1.459 1.2382 0.45471 2.6622 0.83206 3.1641 0.96094 1.0734 0.27564 1.1852 0.23327 2.0801 0.23633l0.63281 2e-3v-0.44141c0-0.61669-0.07421-0.67578-0.84766-0.67578-1.7243 0-2.1529-0.1797-4.748-1.3359-2.7797-1.2384-4.4649-1.6816-6.3945-1.6816zm-1.6641 4.0059c-0.29358 0.01094-0.55684 0.03988-0.76758 0.08399-0.97198 0.20338-2.2719 0.94337-3.0703 1.6934-1.2376 1.1625-2.635 3.3348-2.498 3.8828 0.06168 0.24678 0.12436 0.26232 1.2148 0.30859 0.63304 0.02686 1.8739 0.1738 2.8457 0.32422l1.5391 0.27148v0.76563c-0.30481 1.4025-0.08549 2.1611-0.03125 2.6719 0.20313 1.8486 0.20551 2.0494 0.67578 1.9824 0.72647-1.1997 0.80919-3.5022 0.81445-4.8281l0.74219 0.73047c0.75087 0.67277 1.2951 1.0318 1.7637 1.2754 2.0464 1.0636 4.3522 1.8687 6.5723 1.7266 0.85545 0 1.9362-0.9647 1.9355-2.0781-3.52e-4 -0.85855-0.23756-1.3218-0.81641-1.5977-1.0641-0.50707-2.2441 0.09533-2.2441 1.2207 0 1.1045 1.0468 1.7158 1.7422 1.0176 0.29006-0.29127 0.36223-0.7788 0.15625-1.0742-0.09142-0.13112-0.10005-0.11118-0.04297 0.0918 0.197 0.70048-0.34125 1.186-0.95898 0.86524-0.64559-0.33523-0.52224-1.4124 0.18164-1.5898 0.34768-0.08764 0.95563 0.22022 1.1836 0.6875 0.12285 0.2518 0.12679 0.40296 0.02148 0.75586-0.34542 1.1577-2.3424 0.95406-4.6719-0.02539-1.5212-0.63963-3.2204-1.5143-4.0547-2.2324-0.57602-0.50826-0.22498-0.39453 1.2773-0.64062 0.43192-0.07074 1.9968-0.43933 3.1074-0.81836 1.9731-0.67336 2.0462-1.0889 3.252-1.0977 0.67873-5e-3 -0.44834-0.04728 0.67773 2e-3l2.1074 0.08784v-2.4297l-2.4434-0.0625c-3.4084-0.08989-1.7456 0.39016-5.2637-0.97461-0.67178-0.2606-1.3877-0.57392-1.8574-0.69726-0.83299-0.21875-2.2091-0.33166-3.0898-0.29883zm3.9922 1.7793c0.04084 0 0.62306 0.32923 1.5605 0.73242 0.93749 0.4032 1.8249 0.76159 1.9727 0.79883 0.14775 0.03724 0.26953 0.10851 0.26953 0.15625 0 0.04774-0.56952 0.37069-1.2637 0.7168-1.4156 0.70583-2.2552 1.0021-3.623 1.0703l-0.33789 0.01367 0.36523-0.28906c0.20057-0.15873 0.50418-0.52466 0.67383-0.81445 0.26915-0.45975 0.30859-0.64606 0.30859-1.457 0-0.51116 0.03338-0.92774 0.07422-0.92774zm-6.1094 0.24219c0.16814-0.03198 0.16639 0.23084 0.16797 0.75391 0.0032 1.0294 0.24941 1.5895 0.95703 2.1797l0.46484 0.38672-2.1738-0.20312c-1.1556-0.11069-2.0546-0.22439-2.0859-0.25586-0.11232-0.11278 0.50759-0.97582 1.416-1.8516 0.67639-0.65206 1.0858-0.97778 1.2539-1.0098z" fill="#dfdfdf"/>
 </g>
</svg>
