<?xml version="1.0" encoding="UTF-8"?>
<svg width="32" height="32" version="1.1" xmlns="http://www.w3.org/2000/svg">
 <g id="22-22-klipper" transform="translate(32,10)">
  <rect width="22" height="22" opacity=".001"/>
  <path d="m5 8c-1.108 0-2 0.892-2 2v7c0 1.108 0.892 2 2 2h6c1.108 0 2-0.892 2-2v-7c0-1.108-0.892-2-2-2zm0 2h6v1h-6zm0 2h6v1h-6zm0 2h6v1h-6zm0 2h4v1h-4z" fill="#dfdfdf"/>
  <path d="m11 3c-1.108 0-2 0.892-2 2v7c0 1.108 0.892 2 2 2h6c1.108 0 2-0.892 2-2v-7c0-1.108-0.892-2-2-2zm0 2h6v1h-6zm0 2h6v1h-6zm0 2h6v1h-6zm0 2h4v1h-4z" fill="#dfdfdf" opacity=".35"/>
 </g>
 <g id="klipper">
  <rect width="32" height="32" opacity=".001"/>
  <rect transform="rotate(90)" x="2" y="-30" width="19" height="19" rx="1.5" ry="1.5" opacity=".05" stroke="#000" stroke-width="2"/>
  <rect transform="rotate(90)" x="2" y="-30" width="19" height="19" rx="1.5" ry="1.5" opacity=".2"/>
  <rect transform="rotate(90)" x="11" y="-21" width="19" height="19" rx="1.5" ry="1.5" opacity=".05" stroke="#000" stroke-width="2"/>
  <rect transform="rotate(90)" x="1" y="-30" width="19" height="19" rx="1.5" ry="1.5" fill="#d3d3d3"/>
  <g transform="translate(4,-4)" opacity=".2">
   <path d="m10 11v-1h13v1z"/>
   <path d="m10 14v-1h13v1z"/>
   <path d="m10 17v-1h13v1z"/>
   <path d="m10 20v-1h8v1z"/>
  </g>
  <rect transform="rotate(90)" x="11" y="-21" width="19" height="19" rx="1.5" ry="1.5" opacity=".2"/>
  <rect transform="rotate(90)" x="10" y="-21" width="19" height="19" rx="1.5" ry="1.5" fill="#e4e4e4"/>
  <path d="m12.5 1c-0.831 0-1.5 0.669-1.5 1.5v1c0-0.831 0.669-1.5 1.5-1.5h16c0.831 0 1.5 0.669 1.5 1.5v-1c0-0.831-0.669-1.5-1.5-1.5z" fill="#fff" opacity=".1"/>
  <path d="m3.5 10c-0.831 0-1.5 0.669-1.5 1.5v1c0-0.831 0.669-1.5 1.5-1.5h16c0.831 0 1.5 0.669 1.5 1.5v-1c0-0.831-0.669-1.5-1.5-1.5z" fill="#fff" opacity=".1"/>
  <g transform="translate(-5,5)" opacity=".5">
   <path d="m10 11v-1h13v1z"/>
   <path d="m10 14v-1h13v1z"/>
   <path d="m10 17v-1h13v1z"/>
   <path d="m10 20v-1h8v1z"/>
  </g>
 </g>
</svg>
