<?xml version="1.0" encoding="UTF-8"?>
<svg width="32" height="32" version="1.1" xmlns="http://www.w3.org/2000/svg">
 <g id="22-22-knotes">
  <path d="m32 10h22v22h-22v-22z" opacity=".001"/>
  <path d="m36.934 13c-0.93334 0-0.93359 1.2305-0.93359 1.2305v13.539s2.54e-4 1.2305 0.93359 1.2305h7.0664l6-6v-8.7695c0-1.2308-0.93359-1.2305-0.93359-1.2305h-12.133zm1.0664 3h10v2h-10v-2zm0 4h10v2h-10v-2zm0 4h6v2h-6v-2z" fill="#dfdfdf"/>
 </g>
 <g id="knotes">
  <rect width="32" height="32" opacity=".001"/>
  <path d="m4 3s-2 0-2 2v24c0 2 2 2 2 2h16l10-10v-16c0-2-2-2-2-2z" opacity=".2"/>
  <path d="m4 2s-2 0-2 2v24c0 2 2 2 2 2h16l10-10v-16c0-2-2-2-2-2z" fill="#fecd38"/>
  <path d="m30 20h-8.5c-0.828 0-1.5 0.672-1.5 1.5v8.5z" fill="#ffe69b"/>
  <path d="m21.5 20c-0.828 0-1.5 0.672-1.5 1.5v1c0-0.828 0.672-1.5 1.5-1.5h7.5l1-1z" fill="#fff" opacity=".1"/>
  <path d="m4 2c-0.831 0-2 1.169-2 2v1c0-0.831 1.169-2 2-2h24c0.831 0 2 1.169 2 2v-1c0-0.831-1.169-2-2-2z" fill="#fff" opacity=".1"/>
  <path d="m6.375 11c-0.76175 0-1.375 0.669-1.375 1.5s0.61325 1.5 1.375 1.5h19.25c0.76175 0 1.375-0.669 1.375-1.5s-0.61325-1.5-1.375-1.5zm-0.011719 5c-0.75545 0-1.3633 0.669-1.3633 1.5s0.60783 1.5 1.3633 1.5h12.273c0.75545 0 1.3633-0.669 1.3633-1.5s-0.60783-1.5-1.3633-1.5zm0.064453 5c-0.79143 0-1.4277 0.669-1.4277 1.5s0.63631 1.5 1.4277 1.5h7.1445c0.79143 0 1.4277-0.669 1.4277-1.5s-0.63631-1.5-1.4277-1.5z" opacity=".1"/>
  <path d="m6.375 10c-0.76175 0-1.375 0.669-1.375 1.5s0.61325 1.5 1.375 1.5h19.25c0.76175 0 1.375-0.669 1.375-1.5s-0.61325-1.5-1.375-1.5zm-0.011719 5c-0.75545 0-1.3633 0.669-1.3633 1.5s0.60783 1.5 1.3633 1.5h12.273c0.75545 0 1.3633-0.669 1.3633-1.5s-0.60783-1.5-1.3633-1.5zm0.064453 5c-0.79143 0-1.4277 0.669-1.4277 1.5s0.63631 1.5 1.4277 1.5h7.1445c0.79143 0 1.4277-0.669 1.4277-1.5s-0.63631-1.5-1.4277-1.5z" fill="#4f4f4f"/>
 </g>
</svg>
