<?xml version="1.0" encoding="UTF-8"?>
<svg width="32" height="32" version="1.1" xmlns="http://www.w3.org/2000/svg">
 <g id="22-22-kopete" transform="translate(32,10)">
  <rect width="22" height="22" opacity=".001"/>
  <path d="m10.5 3a7.5 6.5 0 0 0-7.5 6.5 7.5 6.5 0 0 0 7.5 6.5 7.5 6.5 0 0 0 3.5-0.75586v3.7559l3.5117-7.1758h-0.01758a7.5 6.5 0 0 0 0.50586-2.3242 7.5 6.5 0 0 0-7.5-6.5zm1.1719 3c1.838-2e-7 3.3281 1.567 3.3281 3.5 0 1.933-1.4902 3.5-3.3281 3.5-0.22578-1.13e-4 -0.45076-0.0242-0.67188-0.07226 1.5514-0.32967 2.9986-1.7631 3-3.4277-1.55e-4 -1.6604-1.4401-3.0924-2.9863-3.4277 0.21686-0.047155 0.43676-0.071234 0.6582-0.072266zm-4.1406 1a0.5 0.5 0 0 1 0.5 0.5 0.5 0.5 0 0 1-0.5 0.5 0.5 0.5 0 0 1-0.5-0.5 0.5 0.5 0 0 1 0.5-0.5zm2.0684 2h1.8008c0.3324 0 0.59961 0.223 0.59961 0.5s-0.26721 0.5-0.59961 0.5h-1.8008c-0.3324 0-0.59961-0.223-0.59961-0.5s0.26721-0.5 0.59961-0.5zm-2.0996 2c0.27614 0 0.5 0.22385 0.5 0.5 0 0.0994-0.25 1-0.25 1s-0.07326-0.5-0.25-0.5c-0.27614 0-0.5-0.22386-0.5-0.5 0-0.27614 0.22385-0.5 0.5-0.5z" fill="#dfdfdf"/>
 </g>
 <g id="22-22-kopete-offline" transform="translate(32,-22)">
  <rect width="22" height="22" opacity=".001"/>
  <path d="m10.5 3a7.5 6.5 0 0 0-7.5 6.5 7.5 6.5 0 0 0 7.5 6.5 7.5 6.5 0 0 0 3.5-0.75586v3.7559l3.5117-7.1758h-0.01758a7.5 6.5 0 0 0 0.50586-2.3242 7.5 6.5 0 0 0-7.5-6.5zm1.1719 3c1.838-2e-7 3.3281 1.567 3.3281 3.5 0 1.933-1.4902 3.5-3.3281 3.5-0.22578-1.13e-4 -0.45076-0.0242-0.67188-0.07226 1.5514-0.32967 2.9986-1.7631 3-3.4277-1.55e-4 -1.6604-1.4401-3.0924-2.9863-3.4277 0.21686-0.047155 0.43676-0.071234 0.6582-0.072266zm-4.1406 1a0.5 0.5 0 0 1 0.5 0.5 0.5 0.5 0 0 1-0.5 0.5 0.5 0.5 0 0 1-0.5-0.5 0.5 0.5 0 0 1 0.5-0.5zm2.0684 2h1.8008c0.3324 0 0.59961 0.223 0.59961 0.5s-0.26721 0.5-0.59961 0.5h-1.8008c-0.3324 0-0.59961-0.223-0.59961-0.5s0.26721-0.5 0.59961-0.5zm-2.0996 2c0.27614 0 0.5 0.22385 0.5 0.5 0 0.0994-0.25 1-0.25 1s-0.07326-0.5-0.25-0.5c-0.27614 0-0.5-0.22386-0.5-0.5 0-0.27614 0.22385-0.5 0.5-0.5z" fill="#dfdfdf" opacity=".35"/>
 </g>
 <g id="kopete">
  <rect width="32" height="32" opacity=".001"/>
  <g transform="translate(0,-1)">
   <path d="m 22,19.675 h 7.0325 L 22,32 Z" opacity=".2"/>
   <path d="m 22,18.675 h 7.0325 L 22,31 Z" fill="#4479d9"/>
   <path d="M 30,15.5 A 14.5,12.5 0 0 1 15.5,28 14.5,12.5 0 0 1 1,15.5 14.5,12.5 0 0 1 15.5,3 14.5,12.5 0 0 1 30,15.5 Z" opacity=".2"/>
   <path d="M 30,14.5 A 14.5,12.5 0 0 1 15.5,27 14.5,12.5 0 0 1 1,14.5 14.5,12.5 0 0 1 15.5,2 14.5,12.5 0 0 1 30,14.5 Z" fill="#47b4f4"/>
   <path d="m16.512 8a7.4878 7.5 0 0 0-1.4824 0.1543 7.4878 7.5 0 0 1 5.9746 7.3457 7.4878 7.5 0 0 1-6.0039 7.3457 7.4878 7.5 0 0 0 1.5117 0.1543 7.4878 7.5 0 0 0 7.4883-7.5 7.4878 7.5 0 0 0-7.4883-7.5zm-8.0117 2a1.5 1.5 0 0 0-1.5 1.5 1.5 1.5 0 0 0 1.5 1.5 1.5 1.5 0 0 0 1.5-1.5 1.5 1.5 0 0 0-1.5-1.5zm3.9004 4c-0.7756 0-1.4004 0.669-1.4004 1.5s0.62479 1.5 1.4004 1.5h4.1992c0.7756 0 1.4004-0.669 1.4004-1.5s-0.62479-1.5-1.4004-1.5zm-3.9004 4c-0.82845 0-1.5 0.67157-1.5 1.5s0.67157 1.5 1.5 1.5c0.53023 0 0.75 1.5 0.75 1.5s0.75-2.7018 0.75-3c0-0.82845-0.67157-1.5-1.5-1.5z" opacity=".1"/>
   <path d="m16.512 7a7.4878 7.5 0 0 0-1.4824 0.1543 7.4878 7.5 0 0 1 5.9746 7.3457 7.4878 7.5 0 0 1-6.0039 7.3457 7.4878 7.5 0 0 0 1.5117 0.1543 7.4878 7.5 0 0 0 7.4883-7.5 7.4878 7.5 0 0 0-7.4883-7.5zm-8.0117 2a1.5 1.5 0 0 0-1.5 1.5 1.5 1.5 0 0 0 1.5 1.5 1.5 1.5 0 0 0 1.5-1.5 1.5 1.5 0 0 0-1.5-1.5zm3.9004 4c-0.7756 0-1.4004 0.669-1.4004 1.5s0.62479 1.5 1.4004 1.5h4.1992c0.7756 0 1.4004-0.669 1.4004-1.5s-0.62479-1.5-1.4004-1.5zm-3.9004 4c-0.82845 0-1.5 0.67157-1.5 1.5s0.67157 1.5 1.5 1.5c0.53023 0 0.75 1.5 0.75 1.5s0.75-2.7018 0.75-3c0-0.82845-0.67157-1.5-1.5-1.5z" fill="#2e4e8a"/>
   <path d="M 15.5,2 A 14.5,12.5 0 0 0 1,14.5 14.5,12.5 0 0 0 1.0234375,15.080078 14.5,12.5 0 0 1 15.5,3 14.5,12.5 0 0 1 29.976562,14.919922 14.5,12.5 0 0 0 30,14.5 14.5,12.5 0 0 0 15.5,2 Z" fill="#fff" opacity=".2"/>
  </g>
 </g>
 <g id="kopete-offline" transform="translate(0,-32)">
  <rect width="32" height="32" opacity=".001"/>
  <g transform="translate(0,-1)">
   <path d="m 22,19.675 h 7.0325 L 22,32 Z" opacity=".2"/>
   <path d="m 22,18.675 h 7.0325 L 22,31 Z" fill="#8e8e8e"/>
   <path d="M 30,15.5 A 14.5,12.5 0 0 1 15.5,28 14.5,12.5 0 0 1 1,15.5 14.5,12.5 0 0 1 15.5,3 14.5,12.5 0 0 1 30,15.5 Z" opacity=".2"/>
   <path d="M 30,14.5 A 14.5,12.5 0 0 1 15.5,27 14.5,12.5 0 0 1 1,14.5 14.5,12.5 0 0 1 15.5,2 14.5,12.5 0 0 1 30,14.5 Z" fill="#9b9ea0"/>
   <path d="m16.512 8a7.4878 7.5 0 0 0-1.4824 0.1543 7.4878 7.5 0 0 1 5.9746 7.3457 7.4878 7.5 0 0 1-6.0039 7.3457 7.4878 7.5 0 0 0 1.5117 0.1543 7.4878 7.5 0 0 0 7.4883-7.5 7.4878 7.5 0 0 0-7.4883-7.5zm-8.0117 2a1.5 1.5 0 0 0-1.5 1.5 1.5 1.5 0 0 0 1.5 1.5 1.5 1.5 0 0 0 1.5-1.5 1.5 1.5 0 0 0-1.5-1.5zm3.9004 4c-0.7756 0-1.4004 0.669-1.4004 1.5s0.62479 1.5 1.4004 1.5h4.1992c0.7756 0 1.4004-0.669 1.4004-1.5s-0.62479-1.5-1.4004-1.5zm-3.9004 4c-0.82845 0-1.5 0.67157-1.5 1.5s0.67157 1.5 1.5 1.5c0.53023 0 0.75 1.5 0.75 1.5s0.75-2.7018 0.75-3c0-0.82845-0.67157-1.5-1.5-1.5z" opacity=".1"/>
   <path d="m16.512 7a7.4878 7.5 0 0 0-1.4824 0.1543 7.4878 7.5 0 0 1 5.9746 7.3457 7.4878 7.5 0 0 1-6.0039 7.3457 7.4878 7.5 0 0 0 1.5117 0.1543 7.4878 7.5 0 0 0 7.4883-7.5 7.4878 7.5 0 0 0-7.4883-7.5zm-8.0117 2a1.5 1.5 0 0 0-1.5 1.5 1.5 1.5 0 0 0 1.5 1.5 1.5 1.5 0 0 0 1.5-1.5 1.5 1.5 0 0 0-1.5-1.5zm3.9004 4c-0.7756 0-1.4004 0.669-1.4004 1.5s0.62479 1.5 1.4004 1.5h4.1992c0.7756 0 1.4004-0.669 1.4004-1.5s-0.62479-1.5-1.4004-1.5zm-3.9004 4c-0.82845 0-1.5 0.67157-1.5 1.5s0.67157 1.5 1.5 1.5c0.53023 0 0.75 1.5 0.75 1.5s0.75-2.7018 0.75-3c0-0.82845-0.67157-1.5-1.5-1.5z" fill="#5c5c5c"/>
   <path d="M 15.5,2 A 14.5,12.5 0 0 0 1,14.5 14.5,12.5 0 0 0 1.0234375,15.080078 14.5,12.5 0 0 1 15.5,3 14.5,12.5 0 0 1 29.976562,14.919922 14.5,12.5 0 0 0 30,14.5 14.5,12.5 0 0 0 15.5,2 Z" fill="#fff" opacity=".2"/>
  </g>
 </g>
</svg>
