<?xml version="1.0" encoding="UTF-8"?>
<svg width="32" height="32" version="1.1" xmlns="http://www.w3.org/2000/svg">
 <g id="22-22-korgac">
  <rect x="32" y="10" width="22" height="22" opacity=".001"/>
  <path d="m42.998 11.996c-4.9706 0-9 4.0294-9 9s4.0294 9 9 9 9-4.0294 9-9-4.0294-9-9-9zm0 3c3.3137 0 6 2.6863 6 6s-2.6863 6-6 6-6-2.6863-6-6 2.6863-6 6-6zm-0.99805 1.0039v4 2h2 4v-2h-4v-4h-2z" fill="#dfdfdf"/>
 </g>
 <g id="korgac">
  <rect width="32" height="32" opacity=".001"/>
  <circle cx="16" cy="17" r="14" opacity=".2"/>
  <circle cx="16" cy="16" r="14" fill="#ed4545"/>
  <circle cx="16" cy="16" r="10" fill="#4f4f4f"/>
  <rect x="14" y="7" width="4" height="11" rx="2" ry="2.2" fill="#fff"/>
  <path d="M 16,2 A 14,14 0 0 0 2,16 14,14 0 0 0 2.0214844,16.585938 14,14 0 0 1 16,3 14,14 0 0 1 29.978516,16.414062 14,14 0 0 0 30,16 14,14 0 0 0 16,2 Z" fill="#fff" opacity=".2"/>
  <rect transform="rotate(90)" x="14" y="-25" width="4" height="11" rx="2" ry="2.2" fill="#fff"/>
 </g>
</svg>
