<?xml version="1.0" encoding="UTF-8"?>
<svg width="32" height="32" version="1.1" xmlns="http://www.w3.org/2000/svg">
 <g id="22-22-kruler" transform="translate(-294 -524.36)">
  <rect x="326" y="534.36" width="22" height="22" opacity=".001"/>
  <path d="m328 539.33v12.033c0 1 1 1 1 1h17v-2h-16v-9h16v-3h-17s-1-0.0235-1 0.96745zm3 3.0326v3h1v-3zm2 0v3h1v-3zm2 0v6h1v-6zm2 0v3h1v-3zm2 0v3h1v-3zm2 0v6h1v-6zm2 0v3h1v-3z" fill="#dfdfdf"/>
 </g>
 <g id="kruler">
  <rect width="32" height="32" opacity=".001"/>
  <rect transform="matrix(0,-1,-1,0,0,0)" x="-28" y="-30" width="23" height="28" rx="1.438" ry="1.4" opacity=".2"/>
  <rect transform="matrix(0,-1,-1,0,0,0)" x="-27" y="-30" width="23" height="28" rx="1.438" ry="1.4" fill="#e2d144"/>
  <rect x="6" y="4" width="2" height="11" opacity=".5"/>
  <rect x="21" y="4" width="2" height="8" opacity=".5"/>
  <rect x="9" y="4" width="2" height="5" opacity=".5"/>
  <path d="m4 17v8h6v-8zm2 2h2v4h-2z" opacity=".5"/>
  <rect x="12" y="4" width="2" height="5" opacity=".5"/>
  <rect x="15" y="4" width="2" height="5" opacity=".5"/>
  <rect x="18" y="4" width="2" height="5" opacity=".5"/>
  <rect x="24" y="4" width="2" height="5" opacity=".5"/>
  <path d="m3.4004 4c-0.7756 0-1.4004 0.64112-1.4004 1.4375v1c0-0.79638 0.62479-1.4375 1.4004-1.4375h25.199c0.7756 0 1.4004 0.64112 1.4004 1.4375v-1c0-0.79638-0.62479-1.4375-1.4004-1.4375z" fill="#fff" opacity=".2"/>
  <rect x="27" y="4" width="2" height="5" opacity=".5"/>
 </g>
</svg>
