<?xml version="1.0" encoding="UTF-8"?>
<svg width="32" height="32" version="1" xmlns="http://www.w3.org/2000/svg">
 <g id="22-22-krusader_user" transform="translate(32,10)">
  <rect width="22" height="22" opacity=".001"/>
  <path d="m2 7v11.111c0 0.4928 0.40145 0.88867 0.90039 0.88867h8.0996v-4.0491l-1.4141 1.0293c-0.22586 0.18052-0.56808 0.026759-0.56836-0.25586l-0.017578-6.3906c-5.571e-4 -0.18812 0.16014-0.33882 0.35547-0.33398 0.082297 0.00189 0.16124 0.031208 0.22266 0.083984l1.4219 1.1113v-3.1951z" fill="#dfdfdf"/>
  <path d="m11 7v3.1951l3.8828 3.0352c0.22021 0.18896 0.11037 0.5379-0.18164 0.57812l-2.0566 0.28516 0.96484 1.6406c0.21546 0.36667 0.08802 0.83322-0.28516 1.0449l-0.20703 0.11719c-0.37318 0.2117-0.84704 0.08737-1.0625-0.2793l-1.002-1.7051-0.052734 0.039063v4.0491h8.1016c0.4986 0 0.89844-0.39578 0.89844-0.88867v-11.111z" fill="#dfdfdf" opacity=".35"/>
  <path d="m2.9 3c-0.49896 0-0.9 0.39622-0.9 0.88867v2.1113h18v-2.1113c0-0.49244-0.40095-0.88867-0.9-0.88867z" fill="#dfdfdf"/>
 </g>
 <g id="krusader_user">
  <rect width="32" height="32" opacity=".001"/>
  <path d="m2 7.9v19.711c0 0.77 0.62388 1.3889 1.4 1.3889h25.201c0.7756 0 1.3993-0.61875 1.3993-1.3889v-19.711z" opacity=".2"/>
  <path d="m2 6.9v19.711c0 0.77 0.62388 1.3889 1.4 1.3889h25.201c0.7756 0 1.3993-0.61875 1.3993-1.3889v-19.711z" fill="#5f5fdf"/>
  <path d="m16 6.9v21.1h12.601c0.7756 0 1.3986-0.61875 1.3986-1.3889v-19.711z" fill="#fff" opacity=".2"/>
  <path d="m3.4 3c-0.77616 0-1.4 0.6191-1.4 1.3885v2.6115h28v-2.6115c0-0.76944-0.6237-1.3885-1.4-1.3885z" fill="#bebed2"/>
  <path d="m12.572 12c0.13244 0.0031 0.25943 0.05187 0.35826 0.13764l8.5376 6.7352c0.35438 0.30706 0.17765 0.87671-0.29226 0.94208l-3.3105 0.46369 1.5516 2.6659c0.34673 0.59584 0.14128 1.3531-0.45927 1.6971l-0.33267 0.19109c-0.60055 0.34401-1.3637 0.14017-1.7105-0.45567l-1.6108-2.7688-2.361 1.8989c-0.36348 0.29334-0.91404 0.04235-0.9145-0.41692l-0.02829-10.546c-8.97e-4 -0.30569 0.25807-0.55173 0.57241-0.54387z" opacity=".1"/>
  <path d="m12.572 11c0.13244 0.0031 0.25943 0.05187 0.35826 0.13764l8.5376 6.7352c0.35438 0.30706 0.17765 0.87671-0.29226 0.94208l-3.3105 0.46369 1.5516 2.6659c0.34673 0.59584 0.14128 1.3531-0.45927 1.6971l-0.33267 0.19109c-0.60055 0.34401-1.3637 0.14017-1.7105-0.45567l-1.6108-2.7688-2.361 1.8989c-0.36348 0.29334-0.91404 0.04235-0.9145-0.41692l-0.02829-10.546c-8.97e-4 -0.30569 0.25807-0.55173 0.57241-0.54387z" fill="#33335d"/>
  <rect x="2" y="7" width="28" height="1" opacity=".2"/>
  <path d="m3.4004 3c-0.77616 0-1.4004 0.61923-1.4004 1.3887v1c0-0.76944 0.62423-1.3887 1.4004-1.3887h25.199c0.7763 0 1.4004 0.61923 1.4004 1.3887v-1c0-0.76944-0.62409-1.3887-1.4004-1.3887z" fill="#fff" opacity=".2"/>
 </g>
</svg>
