<?xml version="1.0" encoding="UTF-8"?>
<svg width="32" height="32" version="1.1" xmlns="http://www.w3.org/2000/svg">
 <g id="22-22-kteatime" transform="translate(27,5)">
  <rect x="5" y="5" width="22" height="22" opacity=".001"/>
  <path d="m14.61 8c-0.90707-0.0032666-1.8205 0.078093-2.7052 0.24805-2.9699 0.57048-5.0352 1.9546-5.692 3.8145-0.21105 0.59766-0.24889 0.98817-0.18374 1.9023 0.22206 3.1158 1.365 5.8167 3.2721 7.7266 1.2865 1.2884 2.8841 2.0931 4.5172 2.2773 0.13156 0.01483 0.44127 0.02905 0.68804 0.03125 2.6004-0.01575 5.2105-1.9394 6.1168-3.025 0.01497-0.01718 0.39492 0.13687 0.49776 0.23702 0.81741 0.79599 2.0356 1.0736 2.9828 0.67969 1.5018-0.62454 2.1896-3.0235 1.7795-4.6085-0.080493-0.31113-0.28288-0.74781-0.46716-1.0059-0.55842-0.78195-1.284-1.2696-2.2271-1.2773-0.39091-0.0032-0.36329 0.03618-0.27365-0.39453 0.09768-0.46936 0.12996-1.4501 0.07428-1.8008-0.23859-1.5024-1.1544-2.7337-2.8714-3.5996-1.5488-0.78102-3.5127-1.1979-5.5082-1.2051zm-0.1036 1c3.5927 0 6.5051 1.7909 6.5051 4s-2.9124 4-6.5051 4c-3.5927 0-6.5051-1.7909-6.5051-4 2e-7 -2.2091 2.9124-4 6.5051-4zm8.7373 7.6621c0.06431 6.66e-4 0.12926 0.0062 0.19546 0.01758 0.76823 0.13164 0.9654 0.81683 0.85692 1.5918-0.10474 0.74827-0.30741 1.9158-0.80414 2.0851-0.26507 0.09036-0.67472 0.03126-0.94801-0.13672-0.26474-0.16271-0.49576-0.44122-0.59031-0.70898-0.0429-0.12152-0.04206-0.13629 0.06841-0.47656 0.06273-0.19321 0.19266-1.0625 0.28733-1.4444l0.17201-0.69531 0.18178-0.08984c0.19853-0.09792 0.38761-0.14468 0.58053-0.14258z" fill="#dfdfdf"/>
 </g>
 <g id="kteatime">
  <rect width="32" height="32" opacity=".001"/>
  <circle cx="16" cy="17" r="14" opacity=".2"/>
  <circle cx="16" cy="16" r="14" fill="#4caf50"/>
  <path d="m16.142 8.0001c-0.96301-0.00347-1.9341 0.082276-2.8734 0.26285-3.153 0.60613-5.3456 2.0774-6.0428 4.0535-0.22407 0.63501-0.26423 1.0499-0.19506 2.0212 0.23576 3.3105 1.4505 6.1801 3.4752 8.2093 1.3659 1.3689 3.0612 2.2239 4.795 2.4196 0.13967 0.01576 0.46847 0.03086 0.73045 0.0332 1.1696 0.01019 2.2417-0.24377 3.3479-0.7927 1.2141-0.60247 2.3559-1.5748 3.2386-2.7586 0.11066-0.1484 0.2123-0.28345 0.22688-0.3002 0.0159-0.01825 0.0997 0.04023 0.2089 0.14664 0.86782 0.84574 2.161 1.1407 3.1667 0.72215 1.5944-0.66357 2.6433-2.7885 2.208-4.4726-0.08545-0.33058-0.301-0.79522-0.49665-1.0694-0.59286-0.83082-1.5746-1.3476-2.576-1.3558-0.41501-0.0034-0.38707 0.03707-0.2919-0.42056 0.1037-0.4987 0.13936-1.2211 0.08024-1.5937-0.2533-1.5963-1.3327-2.9052-3.1556-3.8252-1.6443-0.82983-3.7278-1.272-5.8464-1.2797zm9.1652 8.8844c0.06827 7.08e-4 0.13723 0.0073 0.20752 0.01937 0.8156 0.13987 1.3437 0.86715 1.2285 1.6906-0.1112 0.79504-0.6444 1.6103-1.1718 1.7902-0.28142 0.09601-0.71699 0.03321-1.0071-0.14526-0.28106-0.17288-0.52632-0.46809-0.62669-0.75259-0.04556-0.12912-0.04398-0.1448 0.07332-0.50634 0.06659-0.20528 0.20384-0.70506 0.30435-1.1109l0.18261-0.73737 0.19368-0.09684c0.21078-0.10404 0.41081-0.15302 0.61563-0.15079z" opacity=".2"/>
  <path d="m16.142 7.0001c-0.96301-0.00347-1.9341 0.082276-2.8734 0.26285-3.153 0.60613-5.3456 2.0774-6.0428 4.0535-0.22407 0.63501-0.26423 1.0499-0.19506 2.0212 0.23576 3.3105 1.4505 6.1801 3.4752 8.2093 1.3659 1.3689 3.0612 2.2239 4.795 2.4196 0.13967 0.01576 0.46847 0.03086 0.73045 0.0332 1.1696 0.01019 2.2417-0.24377 3.3479-0.7927 1.2141-0.60247 2.3559-1.5748 3.2386-2.7586 0.11066-0.1484 0.2123-0.28345 0.22688-0.3002 0.0159-0.01825 0.0997 0.04023 0.2089 0.14664 0.86782 0.84574 2.161 1.1407 3.1667 0.72215 1.5944-0.66357 2.6433-2.7885 2.208-4.4726-0.08545-0.33058-0.301-0.79522-0.49665-1.0694-0.59286-0.83082-1.5746-1.3476-2.576-1.3558-0.41501-0.0034-0.38707 0.03707-0.2919-0.42056 0.1037-0.4987 0.13936-1.2211 0.08024-1.5937-0.2533-1.5963-1.3327-2.9052-3.1556-3.8252-1.6443-0.82983-3.7278-1.272-5.8464-1.2797zm9.1652 8.8844c0.06827 7.08e-4 0.13723 0.0073 0.20752 0.01937 0.8156 0.13987 1.3437 0.86715 1.2285 1.6906-0.1112 0.79504-0.6444 1.6103-1.1718 1.7902-0.28142 0.09601-0.71699 0.03321-1.0071-0.14526-0.28106-0.17288-0.52632-0.46809-0.62669-0.75259-0.04556-0.12912-0.04398-0.1448 0.07332-0.50634 0.06659-0.20528 0.20384-0.70506 0.30435-1.1109l0.18261-0.73737 0.19368-0.09684c0.21078-0.10404 0.41081-0.15302 0.61563-0.15079z" fill="#fff"/>
  <path d="m16.033 8a7.3333 4 0 0 1 7.3333 4 7.3333 4 0 0 1-7.3333 4 7.3333 4 0 0 1-7.3333-4 7.3333 4 0 0 1 7.3333-4z" fill="#c0ca33"/>
  <path d="m16.033 8a7.3333 4 0 0 0-7.334 4 7.3333 4 0 0 0 0.0625 0.5 7.3333 4 0 0 1 7.2715-3.5 7.3333 4 0 0 1 7.2754 3.4961 7.3333 4 0 0 0 0.058594-0.49609 7.3333 4 0 0 0-7.334-4z" opacity=".2"/>
  <path d="M 16,2 A 14,14 0 0 0 2,16 14,14 0 0 0 2.0351562,16.5 14,14 0 0 1 16,3 14,14 0 0 1 29.980469,16.279297 14,14 0 0 0 30,16 14,14 0 0 0 16,2 Z" fill="#fff" opacity=".2"/>
 </g>
</svg>
