<?xml version="1.0" encoding="UTF-8"?>
<svg width="32" height="32" version="1" xmlns="http://www.w3.org/2000/svg">
 <g id="ktorrent">
  <rect width="32" height="32" opacity=".001"/>
  <path d="m17 10c-0.552 0-1 0.448-1 1s0.448 1 1 1 1-0.448 1-1-0.448-1-1-1zm-12 2c-0.552 0-1 0.448-1 1s0.448 1 1 1 1-0.448 1-1-0.448-1-1-1zm3.752 1c-0.28073 0.013-0.60743 0.29937-0.26953 0.69531 0.47983 0.56363 0.7325 1.5666 0.30469 1.7676-0.43001 0.20097-0.39941-0.74726-0.4375-1.252-0.037361-0.5047-1.2284-0.80918-1.668-0.18359s0.00236 1.2996 0.4375 1.4355c0.43514 0.13675 0.50312 0.65138 0.76172 1.1855 0.25933 0.53416 1.5204 0.40043 1.8281 0 0.30768-0.40043 0.49963-1.1453-0.099609-1.832-0.59924-0.68678-0.41818-1.3252-0.58008-1.6758-0.040291-0.08764-0.12596-0.13156-0.22266-0.14062v2e-3c-0.018085-0.0016-0.035972-0.0028-0.054688-2e-3zm3.7285 0c-0.01043 5.88e-4 -0.02095 0.0026-0.03125 0.0039v-2e-3c-0.04677 0.0057-0.09275 0.021-0.13672 0.04102-0.35318 0.15872-0.47195 0.67326-0.0078 1.7578 0.46486 1.0846 1.1273 1.8364 1.4805 1.6777s0.26104-1.1654-0.20312-2.25c-0.39354-0.91971-0.7783-1.2467-1.1016-1.2285zm9.8926 0c-0.35743 0.0078-0.51091 0.71797-0.60156 1.3867-0.0967 0.71333-0.46056 1.4488-0.14648 1.5918 0.43552 0.19012 0.6584-0.97874 1.1504-1.416 0.49199-0.43804 0.08264-1.4577-0.32812-1.5527v-2e-3c-0.02567-0.0059-0.05039-0.0083-0.07422-0.0078zm3.627 0c-0.552 0-1 0.448-1 1s0.448 1 1 1 1-0.448 1-1-0.448-1-1-1zm-15.289 0.5c-0.3961 0.0201-0.71094 0.34894-0.71094 0.75 0 0.414 0.336 0.75 0.75 0.75s0.75-0.336 0.75-0.75-0.336-0.75-0.75-0.75c-0.01294 0-0.02628-6.48e-4 -0.03906 0zm8.7949 0.46484c-0.45677 0.0336-0.9113 0.80936-1.1348 1.3477-0.25579 0.6146 0.05341 1.8143-0.54883 2.2637-0.60224 0.4501-1.043 0.46115-1.3438 0.28125s0.25778-0.1565-0.07813-0.8418c-0.33661-0.6853-1.1407-0.46965-1.3516 0.06445-0.21082 0.5341 0.22531 0.50922 0.07422 0.82422-0.15038 0.315-1.5304 0.35516-1.8164-0.58984s-1.3029-1.9736-1.6191-1.7188c-0.31623 0.2548 0.03742 1.1937 0.86523 1.9434 0.82781 0.7497-0.21205 1.154-0.93164 0.58984-0.71959-0.5649-1.5658 0.42875-2.2207 1.0938-0.65564 0.6643-1.2404 0.70885-1.707 0.31055-0.46591-0.3976-0.055461-1.4786-0.59375-2.5664-0.53759-1.0878-1.6074-0.54555-1.7578 0.18945s1.3495 1.2286 1.0586 1.6367-1.4539 0.41578-1.7969-0.35352c-0.34222-0.7693-1.0888-0.51992-1.1035 0.10938-0.014757 0.63 0.57862 0.09018 1.041 0.55078 0 0 8.431 11.9 11.945 11.9 3.5143 0 11.947-11.9 11.947-11.9 1.4055-1.4-0.20347-0.79938-0.53516-0.48438-0.33098 0.315-1.3557 0.56971-1.4766 0.22461-0.12017-0.3451 1.1466-0.9226 1.5078-1.3125 0.3612-0.3899 0.71483-1.4983 0.13086-1.9043s-1.4124 0.32749-1.7715 0.86719c-0.3612 0.5397-0.04723 1.914-0.5293 2.334-0.48207 0.42-0.74794 0.16449-0.83789-0.19531-0.09065-0.3598 1.0407-0.86446 0.56641-1.7598-0.47504-0.8953-1.3516-0.48961-1.7578-0.07031-0.40618 0.42 0.24344 1.0665 0.39453 1.7266 0.15038 0.6601-1.39 0.64244-1.9922 0.40234s-0.79889-1.7476-1.0547-1.8379-0.8082 0.79972-1.6367 0.54492c-0.82781-0.2548-0.14056-0.76338 0.11524-1.3633 0.25579-0.5999 0.66174-2.0447 0.14453-2.2715-0.06465-0.0287-0.13066-0.040056-0.19531-0.035156zm-17.295 1.5352c-0.3961 0.0201-0.71094 0.34894-0.71094 0.75 0 0.414 0.336 0.75 0.75 0.75s0.75-0.336 0.75-0.75-0.336-0.75-0.75-0.75c-0.012938 0-0.026285-6.48e-4 -0.039063 0zm27.5 1c-0.3961 0.0201-0.71094 0.34894-0.71094 0.75 0 0.414 0.336 0.75 0.75 0.75s0.75-0.336 0.75-0.75-0.336-0.75-0.75-0.75c-0.01294 0-0.02629-6.48e-4 -0.03906 0z" opacity=".2"/>
  <rect x="11" y="2" width="11" height="20" rx="2.75" ry="2.759" fill="#2c96ff"/>
  <path d="m17 9c-0.552 0-1 0.448-1 1s0.448 1 1 1 1-0.448 1-1-0.448-1-1-1zm-12 2c-0.552 0-1 0.448-1 1s0.448 1 1 1 1-0.448 1-1-0.448-1-1-1zm3.752 1c-0.28073 0.013-0.60743 0.29937-0.26953 0.69531 0.47983 0.56363 0.7325 1.5666 0.30469 1.7676-0.43001 0.20097-0.39941-0.74726-0.4375-1.252-0.037361-0.5047-1.2284-0.80918-1.668-0.18359s0.00236 1.2996 0.4375 1.4355c0.43514 0.13675 0.50312 0.65138 0.76172 1.1855 0.25933 0.53416 1.5204 0.40043 1.8281 0 0.30768-0.40043 0.49963-1.1453-0.099609-1.832-0.59924-0.68678-0.41818-1.3252-0.58008-1.6758-0.040291-0.08764-0.12596-0.13156-0.22266-0.14062v2e-3c-0.018085-0.0016-0.035972-0.0028-0.054688-2e-3zm3.7285 0c-0.01043 5.88e-4 -0.02095 0.0026-0.03125 0.0039v-2e-3c-0.04677 0.0057-0.09275 0.021-0.13672 0.04102-0.35318 0.15872-0.47195 0.67326-0.0078 1.7578 0.46486 1.0846 1.1273 1.8364 1.4805 1.6777s0.26104-1.1654-0.20312-2.25c-0.39354-0.91971-0.7783-1.2467-1.1016-1.2285zm9.8926 0c-0.35743 0.0078-0.51091 0.71797-0.60156 1.3867-0.0967 0.71333-0.46056 1.4488-0.14648 1.5918 0.43552 0.19012 0.6584-0.97874 1.1504-1.416 0.49199-0.43804 0.08264-1.4577-0.32812-1.5527v-2e-3c-0.02567-0.0059-0.05039-0.0083-0.07422-0.0078zm3.627 0c-0.552 0-1 0.448-1 1s0.448 1 1 1 1-0.448 1-1-0.448-1-1-1zm-15.289 0.5c-0.3961 0.0201-0.71094 0.34894-0.71094 0.75 0 0.414 0.336 0.75 0.75 0.75s0.75-0.336 0.75-0.75-0.336-0.75-0.75-0.75c-0.01294 0-0.02628-6.48e-4 -0.03906 0zm8.7949 0.46484c-0.45677 0.0336-0.9113 0.80936-1.1348 1.3477-0.25579 0.6146 0.05341 1.8143-0.54883 2.2637-0.60224 0.4501-1.043 0.46115-1.3438 0.28125s0.25778-0.1565-0.07813-0.8418c-0.33661-0.6853-1.1407-0.46965-1.3516 0.06445-0.21082 0.5341 0.22531 0.50922 0.07422 0.82422-0.15038 0.315-1.5304 0.35516-1.8164-0.58984s-1.3029-1.9736-1.6191-1.7188c-0.31623 0.2548 0.03742 1.1937 0.86523 1.9434 0.82781 0.7497-0.21205 1.154-0.93164 0.58984-0.71959-0.5649-1.5658 0.42875-2.2207 1.0938-0.65564 0.6643-1.2404 0.70885-1.707 0.31055-0.46591-0.3976-0.055461-1.4786-0.59375-2.5664-0.53759-1.0878-1.6074-0.54555-1.7578 0.18945s1.3495 1.2286 1.0586 1.6367-1.4539 0.41578-1.7969-0.35352c-0.34222-0.7693-1.0888-0.51992-1.1035 0.10938-0.014757 0.63 0.57862 0.09018 1.041 0.55078 0 0 8.431 11.9 11.945 11.9 3.5143 0 11.947-11.9 11.947-11.9 1.4055-1.4-0.20347-0.79938-0.53516-0.48438-0.33098 0.315-1.3557 0.56971-1.4766 0.22461-0.12017-0.3451 1.1466-0.9226 1.5078-1.3125 0.3612-0.3899 0.71483-1.4983 0.13086-1.9043s-1.4124 0.32749-1.7715 0.86719c-0.3612 0.5397-0.04723 1.914-0.5293 2.334-0.48207 0.42-0.74794 0.16449-0.83789-0.19531-0.09065-0.3598 1.0407-0.86446 0.56641-1.7598-0.47504-0.8953-1.3516-0.48961-1.7578-0.07031-0.40618 0.42 0.24344 1.0665 0.39453 1.7266 0.15038 0.6601-1.39 0.64244-1.9922 0.40234s-0.79889-1.7476-1.0547-1.8379-0.8082 0.79972-1.6367 0.54492c-0.82781-0.2548-0.14056-0.76338 0.11524-1.3633 0.25579-0.5999 0.66174-2.0447 0.14453-2.2715-0.06465-0.0287-0.13066-0.040056-0.19531-0.035156zm-17.295 1.5352c-0.3961 0.0201-0.71094 0.34894-0.71094 0.75 0 0.414 0.336 0.75 0.75 0.75s0.75-0.336 0.75-0.75-0.336-0.75-0.75-0.75c-0.012938 0-0.026285-6.48e-4 -0.039063 0zm27.5 1c-0.3961 0.0201-0.71094 0.34894-0.71094 0.75 0 0.414 0.336 0.75 0.75 0.75s0.75-0.336 0.75-0.75-0.336-0.75-0.75-0.75c-0.01294 0-0.02629-6.48e-4 -0.03906 0z" fill="#275ce3"/>
  <path d="m13.75 2c-1.5235 0-2.75 1.2295-2.75 2.7578v1c0-1.5283 1.2265-2.7578 2.75-2.7578h5.5c1.5235 0 2.75 1.2295 2.75 2.7578v-1c0-1.5283-1.2265-2.7578-2.75-2.7578z" fill="#fff" opacity=".2"/>
 </g>
 <g id="22-22-ktorrent">
  <rect x="32" y="10" width="22" height="22" opacity=".001"/>
  <path d="m41.5 13c-0.831 0-1.5 0.67716-1.5 1.5176v6.4824h6v-6.4824c0-0.84042-0.669-1.5176-1.5-1.5176zm-5.5 9s4 7 7 7c3 1e-6 7-7 7-7z" fill="#dfdfdf"/>
 </g>
</svg>
