<?xml version="1.0" encoding="UTF-8"?>
<svg width="32" height="32" version="1" xmlns="http://www.w3.org/2000/svg">
 <g id="22-22-kup" transform="translate(32,10)">
  <rect width="22" height="22" opacity=".001"/>
  <path d="m4.0029 3.0004a0.99829 0.99856 0 0 0-0.696 1.7142l2.1036 2.1042a6.9873 6.9892 0 0 0-1.3979 4.1791 6.9873 6.9892 0 0 0 1.3979 4.1791l-2.1036 2.1042a0.99829 0.99856 0 1 0 1.4115 1.4119l2.1036-2.1042a6.9873 6.9892 0 0 0 4.178 1.3982 6.9873 6.9892 0 0 0 4.178-1.3982l2.1036 2.1042a0.99829 0.99856 0 1 0 1.4115-1.4119l-2.1036-2.1042a6.9873 6.9892 0 0 0 1.3979-4.1791 6.9873 6.9892 0 0 0-1.3979-4.1791l2.1036-2.1042a0.99829 0.99856 0 0 0-0.72525-1.7142 0.99829 0.99856 0 0 0-0.68626 0.30227l-2.1036 2.1042a6.9873 6.9892 0 0 0-4.178-1.3982 6.9873 6.9892 0 0 0-4.178 1.3982l-2.1036-2.1042a0.99829 0.99856 0 0 0-0.7155-0.30227zm6.9971 3.0051a4.991 4.9923 0 0 1 2.7489 0.83075l-2.7489 2.7497-2.7489-2.7497a4.991 4.9923 0 0 1 2.7489-0.83075zm-4.1604 2.2426 2.7489 2.7497-2.7489 2.7497a4.991 4.9923 0 0 1-0.83053-2.7497 4.991 4.9923 0 0 1 0.83053-2.7497zm8.3209 0a4.991 4.9923 0 0 1 0.83053 2.7497 4.991 4.9923 0 0 1-0.83053 2.7497l-2.7489-2.7497zm-4.1604 4.1615 2.7489 2.7497a4.991 4.9923 0 0 1-2.7489 0.83075 4.991 4.9923 0 0 1-2.7489-0.83075z" fill="#dfdfdf"/>
 </g>
 <g id="kup">
  <rect width="32" height="32" opacity=".001"/>
  <rect x="1" y="2" width="29" height="29" rx="1.45" ry="1.45" opacity=".2"/>
  <rect x="1" y="1" width="29" height="29" rx="1.45" ry="1.45" fill="#e4e4e4"/>
  <path d="m6.4844 5.9847a1.5002 1.5002 0 0 0-1.0449 2.5762l3.0918 3.0918a8.5 8.5 0 0 0-1.5312 4.8477 8.5 8.5 0 0 0 1.5254 4.8535l-3.0859 3.0859a1.5002 1.5002 0 1 0 2.1211 2.1211l3.0918-3.0918a8.5 8.5 0 0 0 4.8477 1.5312 8.5 8.5 0 0 0 4.8535-1.5254l3.0859 3.0859a1.5002 1.5002 0 1 0 2.1211-2.1211l-3.0918-3.0918a8.5 8.5 0 0 0 1.5312-4.8477 8.5 8.5 0 0 0-1.5254-4.8535l3.0859-3.0859a1.5002 1.5002 0 0 0-1.0898-2.5742 1.5002 1.5002 0 0 0-1.0312 0.45312l-3.0918 3.0918a8.5 8.5 0 0 0-4.8477-1.5312 8.5 8.5 0 0 0-4.8535 1.5254l-3.0859-3.0859a1.5002 1.5002 0 0 0-1.0762-0.45508zm9.0156 5.0156a5.5 5.5 0 0 1 2.6797 0.69922l-2.6797 2.6797-2.6758-2.6758a5.5 5.5 0 0 1 2.6758-0.70312zm-4.8008 2.8203 2.6797 2.6797-2.6758 2.6758a5.5 5.5 0 0 1-0.70312-2.6758 5.5 5.5 0 0 1 0.69922-2.6797zm9.5977 0.0039a5.5 5.5 0 0 1 0.70312 2.6758 5.5 5.5 0 0 1-0.69922 2.6797l-2.6797-2.6797zm-4.7969 4.7969 2.6758 2.6758a5.5 5.5 0 0 1-2.6758 0.70312 5.5 5.5 0 0 1-2.6797-0.69922z" opacity=".1"/>
  <path d="m15.5 7a8.5 8.5 0 0 0-8.5 8.5 8.5 8.5 0 0 0 8.5 8.5 8.5 8.5 0 0 0 8.5-8.5 8.5 8.5 0 0 0-8.5-8.5zm0 3a5.5 5.5 0 0 1 5.5 5.5 5.5 5.5 0 0 1-5.5 5.5 5.5 5.5 0 0 1-5.5-5.5 5.5 5.5 0 0 1 5.5-5.5z" fill="#4f4f4f"/>
  <path d="m6.5 6.5 18 18v0" fill="none" stroke="#4f4f4f" stroke-linecap="round" stroke-width="3"/>
  <path d="m24.5 6.5-18 18" fill="none" stroke="#4f4f4f" stroke-linecap="round" stroke-width="3"/>
  <path d="m2.4492 1c-0.8033 0-1.4492 0.64592-1.4492 1.4492v1c0-0.8033 0.64592-1.4492 1.4492-1.4492h26.102c0.8033 0 1.4492 0.64592 1.4492 1.4492v-1c0-0.8033-0.64592-1.4492-1.4492-1.4492z" fill="#fff" opacity=".2"/>
 </g>
</svg>
