<?xml version="1.0" encoding="UTF-8"?>
<svg width="32" height="32" version="1.1" xmlns="http://www.w3.org/2000/svg">
 <g id="22-22-list-add" transform="translate(-253 15.003)">
  <path d="m285-5.0033h22v22h-22z" opacity=".001"/>
  <path transform="translate(285 -5.0033)" d="m9 3v6h-6v4h6v6h4v-6h6v-4h-6v-6z" fill="#dfdfdf"/>
 </g>
 <g id="16-16-list-add" transform="translate(-234,42)">
  <rect x="288" y="-26" width="16" height="16" opacity=".001"/>
  <g transform="translate(288 -26.003)">
   <g transform="translate(-285 -.99666)">
    <path d="m292 1.9967v6h-6v2h6v6h2v-6h6v-2h-6v-6z" fill="#dfdfdf"/>
   </g>
  </g>
 </g>
 <g id="list-add">
  <rect width="32" height="32" opacity=".001"/>
  <rect x="13" y="3" width="6" height="28" rx="2" ry="2" opacity=".2"/>
  <rect x="13" y="2" width="6" height="28" rx="2" ry="2" fill="#309930"/>
  <rect transform="rotate(90)" x="14" y="-30" width="6" height="28" rx="2" ry="2" opacity=".2"/>
  <rect transform="rotate(90)" x="13" y="-30" width="6" height="28" rx="2" ry="2" fill="#24c65b"/>
  <path d="m15 2c-1.108 0-2 0.892-2 2v1c0-1.108 0.892-2 2-2h2c1.108 0 2 0.892 2 2v-1c0-1.108-0.892-2-2-2h-2z" fill="#fff" opacity=".1"/>
  <path d="m4 13c-1.108 0-2 0.892-2 2v1c0-1.108 0.892-2 2-2h24c1.108 0 2 0.892 2 2v-1c0-1.108-0.892-2-2-2h-24z" fill="#fff" opacity=".2"/>
 </g>
 <g id="22-22-list-remove" transform="translate(-253 -16.997)">
  <path d="m285-5.0033h22v22h-22z" opacity=".001"/>
  <path transform="translate(285 -5.0033)" d="m3 9v4h16v-4h-16z" fill="#dfdfdf"/>
 </g>
 <g id="16-16-list-remove" transform="translate(-234,10)">
  <rect x="288" y="-26" width="16" height="16" opacity=".001"/>
  <g transform="translate(288 -26.003)">
   <g transform="translate(-285 -.99666)">
    <path d="m286 7.9967v2h14v-2h-14z" fill="#dfdfdf"/>
   </g>
  </g>
 </g>
 <g id="list-remove">
  <rect y="-32" width="32" height="32" opacity=".001"/>
  <rect transform="rotate(90)" x="-18" y="-30" width="6" height="28" rx="2" ry="2" opacity=".2"/>
  <rect transform="rotate(90)" x="-19" y="-30" width="6" height="28" rx="2" ry="2" fill="#c2352a"/>
  <path d="m4-19c-1.108 0-2 0.892-2 2v1c0-1.108 0.892-2 2-2h24c1.108 0 2 0.892 2 2v-1c0-1.108-0.892-2-2-2z" fill="#fff" opacity=".2"/>
 </g>
</svg>
