<?xml version="1.0" encoding="UTF-8"?>
<svg width="32" height="32" version="1.1" xmlns="http://www.w3.org/2000/svg">
 <g id="22-22-lutris" transform="translate(32,10)">
  <rect width="22" height="22" opacity=".001"/>
  <path d="m10.746 3c-4.1848-0.00375-7.6338 3.4427-7.7438 7.791-0.11188 4.4174 3.2642 8.0935 7.5387 8.209 3.4587 2e-3 6.4587-1.9976 7.1852-5.2578-1.0726 1.7812-3.0821 2.3334-4.8767 2.3281-1.477-0.01224-3.1165-0.3567-4.3767-1.0488-1.6465-0.911-1.5264-2.0505-1.4726-2.8477 0.031089-0.45919 0.25528-1.2364 0.84957-1.9883 0.1925 0.07091 0.37893 0.15505 0.5449 0.27148 0.40959 0.27659 0.77948 0.69065 1.3046 0.50391 0.35903-0.12594 0.37785-0.34072 0.24022-0.69141-0.11622-0.28514-0.30734-0.77606-0.5449-0.96484-0.094526-0.074819-0.23269-0.12142-0.38084-0.16211 0.2513-0.16022 0.52467-0.31142 0.83785-0.44336 0.8739-0.30864 1.8428-0.48428 2.7811-0.47266 0.19178 0.29244 0.36378 0.59354 0.66794 0.71094 0.50806 0.20643 0.71861-0.13071 0.69919-0.54102 0.04719 0.013443 0.09601 0.022113 0.14257 0.037109 1.0047 0.22674 1.7281 0.51804 2.6835 0.85547 0 0-0.0082 0.016614 0.25585 0.082031 0.7733 0.12251 1.2243-0.093624 1.4999-0.38281 0.06638-0.00381 0.12973-0.027928 0.18749-0.099609 0.10444-0.12952 0.30287-0.31848 0.18944-0.59961 0.03613-0.15253 0.04101-0.25977 0.04101-0.25977l-0.05273-0.29883-0.1621-0.4043-0.07617-0.17188-0.01562-0.03125c0.078366-0.064492 0.13812-0.17336 0.14843-0.30859 0.016489-0.21443-0.090796-0.40043-0.24022-0.42578-3.25e-4 -0.23767-0.014502-0.50931-0.05859-0.87891-0.060797-0.5099-0.39541-0.71176-0.50388-0.79102-0.10872-0.079115-0.61616-0.46181-1.1015-0.65234-0.48565-0.19054-0.97542-0.33132-1.58-0.24609-0.06713 0.00949-0.13107 0.019368-0.19726 0.029297-0.01172-0.00372-0.02052-0.00796-0.0332-0.011719-0.23054-0.068484-0.39366-0.44201-0.582-0.4375-0.01441 3.457e-4 -0.03017 0.00236-0.04492 0.00391-0.01452 0.00152-0.02803 0.00307-0.04297 0.00586h-2e-3c-0.01522 0.00284-0.02919 0.00745-0.04492 0.011719-0.01718 0.00466-0.03528 0.010376-0.05078 0.017578-0.11022 0.051252-0.17699 0.24457-0.21874 0.37109-0.9669-0.48892-2.0485-0.77574-3.1951-0.80665-0.066786-0.0018099-0.13278-0.0038462-0.19921-0.0039062zm5.6931 3.0039c0.12699-0.015117 0.26037 0.018183 0.36912 0.10352 0.21775 0.17104 0.25548 0.48416 0.08593 0.70117-0.17004 0.21702-0.48352 0.2544-0.70114 0.083984-0.21762-0.17129-0.25805-0.48403-0.08789-0.70117 0.08484-0.10832 0.20697-0.17238 0.33397-0.1875z" fill="#dfdfdf"/>
  <path d="m12.323 9.2781c-0.53811 0.019536-1.0772 0.13002-1.6054 0.27347 0.05261 0.1211 0.11699 0.2647 0.14843 0.34184a1.0001 1.0002 0 0 1 0.0059 0.01172c0.09985 0.25443 0.23292 0.59032 0.0957 1.0704-0.13693 0.47912-0.59378 0.80727-0.9355 0.92785-0.55109 0.1941-1.158 0.04918-1.5077-0.1426-0.12144-0.06658-0.14835-0.1015-0.23827-0.16408-0.07932 0.22332-0.28052 0.54728-0.2871 0.64266-0.02812 0.41652-0.04214 0.73178 0.04687 0.99426 0.08873 0.26164 0.25378 0.547 0.90816 0.91027l0.0039 2e-3c1.0622 0.58228 2.5739 0.91295 3.9002 0.92394 1.586 0.0039 3.1772-0.4585 4.0115-1.844a1.0001 1.0002 0 0 1 1.0742-0.46299 5.9996 6.0009 0 0 0 0.05664-0.76181 5.9996 6.0009 0 0 0-0.23046-1.6311c-0.26767 0.03008-0.54782 0.03711-0.84371-0.0098a1.0001 1.0002 0 0 1-0.08398-0.01758c-0.15356-0.03804-0.2406-0.0609-0.3574-0.10743-0.0047-0.0019-0.01668-0.0099-0.02148-0.01172-0.72198-0.25556-1.2945-0.43715-1.9159-0.61531-0.0032 0.00318-6.06e-4 0.0066-0.0039 0.00977-0.418 0.40355-1.1327 0.43632-1.6074 0.24807-0.38449-0.15094-0.43795-0.3672-0.61325-0.58793z" fill="#dfdfdf" opacity=".35"/>
 </g>
 <g id="lutris">
  <rect width="32" height="32" opacity=".001"/>
  <path d="m15.556 2.5012c-7.3241-0.006567-13.359 6.0249-13.551 13.633-0.19582 7.7291 5.7107 14.159 13.192 14.361 3.6446 0.09838 6.4898-1.2996 8.9858-3.653 0.26651-0.22235 0.41151-0.36093 0.41151-0.36093s2.7066-2.8407 2.8519-5.1856c-0.69063 1.141-1.3241 2.2834-3.0433 3.1294-0.78843 0.36521-1.5111 0.67594-2.2394 0.92146-0.04663 0.01187-0.09346 0.02288-0.14082 0.03418-0.34497 0.08234-0.70653 0.1515-1.0855 0.2037-0.04593 0.0063-0.09308 0.01189-0.13945 0.01777-0.39307 0.04985-0.79892 0.08615-1.2181 0.1039-0.04315 0.0018-0.08787 0.0013-0.13125 0.0027-0.41357 0.01415-0.83655 0.01293-1.266-0.0041-0.02802-0.0011-0.05533-1.21e-4 -0.0834-0.0014-0.43672-0.01937-0.38004-0.05897-0.82387-0.11074-0.06334-0.0074-0.12666-0.01245-0.19004-0.02051-0.43204-0.0549-0.8639-0.12743-1.2933-0.21328-0.06938-0.01387-0.13862-0.02771-0.20781-0.04238-0.42023-0.08918-0.8367-0.19385-1.2455-0.31308-0.13106-0.03823-0.26164-0.07761-0.39101-0.11894-0.09777-0.03124-0.19589-0.06131-0.29257-0.09433-0.13816-0.04719-0.27312-0.0982-0.40878-0.14902-0.11064-0.04145-0.22206-0.0819-0.33085-0.12578-0.12607-0.05085-0.24854-0.10585-0.37187-0.15996-0.10452-0.04586-0.2107-0.08988-0.31308-0.13808-0.22289-0.10496-0.44199-0.21472-0.6535-0.33085-0.16833-0.09311-0.32853-0.1906-0.48124-0.29257-0.35071-0.23417-0.65679-0.49227-0.93103-0.76287-1.4278-1.457-1.3615-3.1702-1.2865-4.2806 0.094459-1.3948 1.2638-4.4549 5.1118-6.0756 2.3775-0.83947 5.1736-1.4266 7.5112-0.67401 1.7583 0.39673 3.0227 0.97362 4.6948 1.564 0 0-0.01353 0.0291 0.44843 0.14355 3.2519 0.51512 2.8869-2.1638 2.8869-2.1638l-0.25489-0.62693c-0.05638-0.33037 0.19107-0.59091 0.19107-0.59091s-0.20044-0.73873-0.16666-1.2269c0.03424-0.48799 0.0066-1.1135-0.0998-2.0056-0.10641-0.89218-0.69198-1.6472-0.88182-1.7859-0.19028-0.13843-1.0769-0.80682-1.9263-1.1402-0.84996-0.33339-1.709-0.57977-2.7671-0.43065-0.11748 0.016613-0.22869 0.034578-0.34452 0.051952-0.02051-0.00651-0.0366-0.013927-0.05879-0.020507-0.40349-0.11983-0.6889-1.0734-1.0185-1.0655-0.02523 6.049e-4 -0.05074 0.00276-0.07656 0.00547-0.02542 0.00266-0.05179 0.00606-0.07793 0.010937h-0.0014c-0.02664 0.00497-0.05313 0.011676-0.08066 0.01914-0.03006 0.00816-0.05902 0.018843-0.08613 0.031445-0.1929 0.089676-0.31108 1.1275-0.38414 1.3489-1.6925-0.85547-3.5848-1.3582-5.5917-1.4123-0.11689-0.00316-0.23237-0.00536-0.34862-0.00547zm7.4573 22.588c-0.24846 0.0926-0.51816 0.17096-0.79568 0.24336 0.27737-0.07236 0.5474-0.15082 0.79568-0.24336z" opacity=".2"/>
  <path d="m17.5 6.5005a10.5 10.5 0 0 0-10.5 10.5 10.5 10.5 0 0 0 10.5 10.5 10.5 10.5 0 0 0 10.5-10.5 10.5 10.5 0 0 0-10.5-10.5z" fill="#f8952b"/>
  <path d="m17.29 10.021c1.3006 0.30775 1.4417 1.9654 2.4879 2.3691 1.396 0.56706 1.5151-1.2081 0.7943-2.1468" fill="#946857"/>
  <path d="m21.463 6.5128c-1.465-0.00175-3.0532 0.42693-4.2132 0.83034-2.1997 0.7784-3.5713 1.4083-5.3537 2.6821-0.47262 0.34319-2.3298 1.7068-3.4583 3.6084-3.1186 5.5136-0.91202 11.368 3.1208 12.698 4.4339 1.6582 8.6781 2.1371 14.016-2.5807-0.45949 0.36774 0 0-2.5622 1.3351-3.0198 1.1254-7.8548 0.76392-11.437-1.2027-2.8816-1.594-2.5924-3.941-2.4982-5.3358 0.094459-1.3948 1.0638-4.4554 4.9118-6.0762 2.3775-0.83947 5.1731-1.4265 7.5107-0.67397 1.7583 0.39673 3.0222 1.1146 4.6943 1.705 0 0-0.01377 0.02866 0.44819 0.14312 3.2519 0.51506 3.357-2.3468 3.357-2.3468l-0.09272-0.52144-0.28309-0.7075-0.13491-0.30313-0.08137-0.16427s-0.02345-0.20683-0.05632-0.41698c-0.06228 0.78552-0.37508 1.212-0.37508 1.212-2.5275-0.4792-2.9792-2.6584-5.6441-3.5731-0.56323-0.22151-1.2035-0.3113-1.8694-0.3121zm4.1121 17.238c0.29439-0.2356 0.43701-0.39658 0.43706-0.39648-0.14619 0.13659-0.29175 0.26806-0.43706 0.39648z" opacity=".2"/>
  <path d="m15.556 1.5006c-7.3241-0.006567-13.359 6.0249-13.551 13.633-0.19582 7.7291 5.7107 14.159 13.192 14.361 3.6446 0.09838 6.4898-1.2996 8.9858-3.653 0.26651-0.22235 0.41151-0.36093 0.41151-0.36093s2.7066-2.8407 2.8519-5.1856c-0.69063 1.141-1.3241 2.2834-3.0433 3.1294-0.78843 0.36521-1.5111 0.67594-2.2394 0.92146-0.04663 0.01187-0.09346 0.02288-0.14082 0.03418-0.34497 0.08234-0.70653 0.1515-1.0855 0.2037-0.04593 0.0063-0.09308 0.01189-0.13945 0.01777-0.39307 0.04985-0.79892 0.08615-1.2181 0.1039-0.04315 0.0018-0.08787 0.0013-0.13125 0.0027-0.41357 0.01415-0.83655 0.01293-1.266-0.0041-0.02802-0.0011-0.05533-1.21e-4 -0.0834-0.0014-0.43672-0.01937-0.38004-0.05897-0.82387-0.11074-0.06334-0.0074-0.12666-0.01245-0.19004-0.02051-0.43204-0.0549-0.8639-0.12743-1.2933-0.21328-0.06938-0.01387-0.13862-0.02771-0.20781-0.04238-0.42023-0.08918-0.8367-0.19385-1.2455-0.31308-0.13106-0.03823-0.26164-0.07761-0.39101-0.11894-0.09777-0.03124-0.19589-0.06131-0.29257-0.09433-0.13816-0.04719-0.27312-0.0982-0.40878-0.14902-0.11064-0.04145-0.22206-0.0819-0.33085-0.12578-0.12607-0.05085-0.24854-0.10585-0.37187-0.15996-0.10452-0.04586-0.2107-0.08988-0.31308-0.13808-0.22289-0.10496-0.44199-0.21472-0.6535-0.33085-0.16833-0.09311-0.32853-0.1906-0.48124-0.29257-0.35071-0.23417-0.65679-0.49227-0.93103-0.76287-1.4278-1.457-1.3615-3.1702-1.2865-4.2806 0.094459-1.3948 1.2638-4.4549 5.1118-6.0756 2.3775-0.83947 5.1736-1.4266 7.5112-0.67401 1.7583 0.39673 3.0227 0.97362 4.6948 1.564 0 0-0.01353 0.0291 0.44843 0.14355 3.2519 0.51512 2.8869-2.1638 2.8869-2.1638l-0.25489-0.62693c-0.05638-0.33037 0.19107-0.59091 0.19107-0.59091s-0.20044-0.73873-0.16666-1.2269c0.03424-0.48799 0.0066-1.1135-0.0998-2.0056-0.10641-0.89218-0.69198-1.6472-0.88182-1.7859-0.19028-0.13843-1.0769-0.80682-1.9263-1.1402-0.84996-0.33339-1.709-0.57977-2.7671-0.43065-0.11748 0.016613-0.22869 0.034578-0.34452 0.051952-0.02051-0.00651-0.0366-0.013927-0.05879-0.020507-0.40349-0.11983-0.6889-1.0734-1.0185-1.0655-0.02523 6.049e-4 -0.05074 0.00276-0.07656 0.00547-0.02542 0.00266-0.05179 0.00606-0.07793 0.010937h-0.0014c-0.02664 0.00497-0.05313 0.011676-0.08066 0.01914-0.03006 0.00816-0.05902 0.018843-0.08613 0.031445-0.1929 0.089676-0.31108 1.1275-0.38414 1.3489-1.6925-0.85547-3.5848-1.3582-5.5917-1.4123-0.11689-0.00316-0.23237-0.00536-0.34862-0.00547zm7.4573 22.588c-0.24846 0.0926-0.51816 0.17096-0.79568 0.24336 0.27737-0.07236 0.5474-0.15082 0.79568-0.24336z" fill="#946857"/>
  <path d="m15.557 1.5c-7.3241-0.006567-13.36 6.0264-13.553 13.635-0.00641 0.25306 0.011065 0.4999 0.017578 0.75 0.31802-7.4888 6.2923-13.389 13.535-13.383 0.11626 1.1e-4 0.23077 7.463e-4 0.34766 0.00391 2.0068 0.054079 3.8993 0.55859 5.5918 1.4141 0.07307-0.22138 0.19186-1.2599 0.38476-1.3496 0.02711-0.012602 0.05588-0.02309 0.08594-0.03125 0.02753-0.00746 0.05344-0.014561 0.08008-0.019531h2e-3c0.02614-0.00488 0.0527-0.00906 0.07813-0.011719 0.02582-0.00271 0.05094-0.0033 0.07617-0.00391 0.32963-0.0079 0.61409 0.94463 1.0176 1.0645 0.02219 0.00658 0.04004 0.014974 0.06055 0.021484 0.11583-0.017374 0.22626-0.036121 0.34375-0.052734 1.0581-0.14912 1.9176 0.09825 2.7676 0.43164 0.84944 0.33339 1.7355 1.0002 1.9258 1.1387 0.18984 0.13868 0.7764 0.89493 0.88281 1.7871 0.1064 0.89212 0.13385 1.5179 0.09961 2.0059-0.01 0.14415 0.0018 0.30638 0.02148 0.46875 0.05903-0.14505 0.14448-0.24414 0.14448-0.24414s-0.1998-0.73835-0.16602-1.2266c0.03424-0.48799 0.0068-1.1137-0.09961-2.0059-0.10641-0.89218-0.69297-1.6465-0.88281-1.7852-0.19028-0.13843-1.0763-0.80724-1.9258-1.1406-0.84996-0.33339-1.7095-0.57881-2.7676-0.42969-0.11748 0.016613-0.22792 0.033407-0.34375 0.050781-0.02051-0.00651-0.03836-0.012951-0.06055-0.019531-0.40349-0.11983-0.68795-1.0743-1.0176-1.0664-0.02523 6.049e-4 -0.05035 0.00315-0.07617 0.00586-0.02542 0.00266-0.05199 0.00684-0.07813 0.011719h-2e-3c-0.02664 0.00497-0.05255 0.010114-0.08008 0.017578-0.03006 0.00816-0.05883 0.020601-0.08594 0.033203-0.19284 0.089675-0.31164 1.1263-0.38471 1.3477-1.6925-0.85547-3.585-1.358-5.5918-1.4121-0.11689-0.00316-0.2314-0.00575-0.34766-0.00586zm13.895 8.6484c-0.02747 0.03041-0.22856 0.25908-0.17578 0.56836l0.19141 0.46875c0.11412-0.45278 0.06445-0.8418 0.06445-0.8418z" fill="#fff" opacity=".2"/>
  <path d="m21.463 5.5148c-1.465-0.00175-3.0532 0.42693-4.2132 0.83034-2.1997 0.7784-3.5713 1.4083-5.3537 2.6821-0.47262 0.34319-2.3298 1.7068-3.4583 3.6084-3.1186 5.5136-0.91202 11.368 3.1208 12.698 4.4339 1.6582 8.6781 2.1371 14.016-2.5807-0.45949 0.36774 0 0-2.5622 1.3351-3.0198 1.1254-7.8548 0.76392-11.437-1.2027-2.8816-1.594-2.5924-3.941-2.4982-5.3358 0.094459-1.3948 1.0638-4.4554 4.9118-6.0762 2.3775-0.83947 5.1731-1.4265 7.5107-0.67397 1.7583 0.39673 3.0222 1.1146 4.6943 1.705 0 0-0.01377 0.02866 0.44819 0.14312 3.2519 0.51506 3.357-2.3468 3.357-2.3468l-0.09272-0.52144-0.28309-0.7075-0.13491-0.30313-0.08137-0.16427s-0.02345-0.20683-0.05632-0.41698c-0.06228 0.78552-0.37508 1.212-0.37508 1.212-2.5275-0.4792-2.9792-2.6584-5.6441-3.5731-0.56323-0.22151-1.2035-0.3113-1.8694-0.3121zm4.1121 17.238c0.29439-0.2356 0.43701-0.39658 0.43706-0.39648-0.14619 0.13659-0.29175 0.26806-0.43706 0.39648z" fill="#d3c9c6"/>
  <path d="m8.0182 12.608-0.015169 0.1249c1.017-0.05153 2.2635 0.16885 3.1881 0.81736 0.71685 0.48394 1.3626 1.2062 2.2817 0.87943 0.62836-0.22036 0.66328-0.59352 0.42241-1.2071-0.2034-0.49891-0.53963-1.3604-0.95539-1.6907-0.59894-0.47397-2.1473-0.30846-2.225-1.2996-0.05838-0.46851 0.23673-0.82091 0.49851-1.1624-4.83e-4 0-2.9984 0.75371-3.1951 3.5382z" fill="#946857"/>
  <path d="m29.025 10.5s-0.11521 0.36329-0.6562 0.39517c-0.54078 0.0323-0.44725 0.78435 0.02168 1.2054 0.46914 0.42127 0.83603 0.53681 1.1487 0.21353 0.31226-0.32264 1.0792-0.85795-0.5142-1.8141z" opacity=".2"/>
  <path d="m29.025 9.5s-0.11521 0.36329-0.6562 0.39517c-0.54078 0.0323-0.44725 0.78435 0.02168 1.2054 0.46914 0.42127 0.83603 0.53681 1.1487 0.21353 0.31226-0.32264 1.0792-0.85795-0.5142-1.8141z" fill="#3f3f3f"/>
  <path d="m25.789 9.1189c-0.34012 0.43398-0.96846 0.50868-1.4037 0.16789-0.43529-0.34253-0.51325-0.97114-0.17289-1.4054 0.33938-0.43323 0.96821-0.50818 1.4033-0.1669 0.43554 0.34204 0.51251 0.97039 0.17338 1.4044z" opacity=".2"/>
  <path d="m25.789 8.1189c-0.34012 0.43398-0.96846 0.50868-1.4037 0.16789-0.43529-0.34253-0.51325-0.97114-0.17289-1.4054 0.33938-0.43323 0.96821-0.50818 1.4033-0.1669 0.43554 0.34204 0.51251 0.97039 0.17338 1.4044z" fill="#3f3f3f"/>
  <path d="m29.723 9.1751c-0.02942 0.38572-0.27488 0.67525-0.54792 0.64602-0.27281-0.02847-0.47001-0.36373-0.4399-0.7502 0.02965-0.38522 0.27465-0.6745 0.54746-0.64577 0.27281 0.029476 0.47001 0.36448 0.44036 0.74995z" opacity=".2"/>
  <path d="m29.723 8.1751c-0.02942 0.38572-0.27488 0.67525-0.54792 0.64602-0.27281-0.028475-0.47001-0.36373-0.4399-0.7502 0.02965-0.38522 0.27465-0.6745 0.54746-0.64577 0.27281 0.029476 0.47001 0.36448 0.44036 0.74995z" fill="#3f3f3f"/>
 </g>
</svg>
