<?xml version="1.0" encoding="UTF-8"?>
<svg width="32" height="32" version="1.1" xmlns="http://www.w3.org/2000/svg">
 <g id="22-22-mail-unread" transform="translate(-435 -61)">
  <path d="m467 135h22v22h-22z" opacity=".001"/>
  <path d="m472 140c-1.108 0-2 0.892-2 2v8c0 1.108 0.892 2 2 2h12c1.108 0 2-0.892 2-2v-8c0-1.108-0.892-2-2-2zm0 2 6 3 6-3v2l-6 3-6-3z" fill="#dfdfdf"/>
 </g>
 <g id="22-22-mail-unread-new" transform="translate(32 64)">
  <path d="m1.1e-4 -22h22v22h-22z" opacity=".001"/>
  <path d="m5-17c-1.108 0-2 0.892-2 2v8c0 1.108 0.892 2 2 2h11c-1.645 0-3-1.355-3-3s1.355-3 3-3 3 1.355 3 3v-7c0-1.108-0.892-2-2-2zm0 2 6 3 6-3v2l-6 3-6-3z" fill="#dfdfdf"/>
  <path d="m16-10a2 2 0 0 0-2 2 2 2 0 0 0 2 2 2 2 0 0 0 2-2 2 2 0 0 0-2-2z" fill="#4285f4"/>
 </g>
 <g id="22-22-mail-mark-unread-new" transform="translate(32 32)">
  <path d="m1.1e-4 -22h22v22h-22z" opacity=".001"/>
  <path d="m5-17c-1.108 0-2 0.892-2 2v8c0 1.108 0.892 2 2 2h11c-1.645 0-3-1.355-3-3s1.355-3 3-3 3 1.355 3 3v-7c0-1.108-0.892-2-2-2zm0 2 6 3 6-3v2l-6 3-6-3z" fill="#dfdfdf"/>
  <path d="m16-10a2 2 0 0 0-2 2 2 2 0 0 0 2 2 2 2 0 0 0 2-2 2 2 0 0 0-2-2z" fill="#4285f4"/>
 </g>
 <g id="mail-unread" transform="translate(0,64)">
  <rect width="32" height="32" opacity=".001"/>
  <path d="m2.6367 10.826c-0.02875 0.0187-0.05481 0.0408-0.08204 0.0615l-0.0164 0.0123v2e-3c-0.3259 0.2559-0.53868 0.64951-0.53868 1.0979l1.5e-5 12.199c2e-6 2 1.5771 2 2 2h24s2 0 2-2l-2e-5 -12.199c0-0.45851-0.22188-0.86056-0.56054-1.1156l6e-3 -8e-3 -13.445-9.876s-13.445 9.8886-13.363 9.8271z" fill="#fe9700"/>
  <path d="m2 13v16.021c0 1.4835 1 1.9785 2 1.9785h24c2 0 2-1.9785 2-1.9785v-16.021l-14 9.6914z" opacity=".2"/>
  <path d="m16 1.0012s-13.445 9.888-13.363 9.826l-3e-4 -2e-3c-0.0287 0.019-0.0548 0.042-0.082 0.063l-0.0156 0.011v2e-3c-0.3259 0.256-0.5391 0.65-0.5391 1.098v1.002c0-0.448 0.2132-0.844 0.5391-1.1v-2e-3l0.0156-0.011c0.0272-0.021 0.0533-0.042 0.082-0.061-0.082 0.062 13.363-9.826 13.363-9.826l13.445 9.875-6e-3 8e-3c0.339 0.255 0.561 0.658 0.561 1.117v-1.002c0-0.459-0.222-0.86-0.561-1.115l6e-3 -8e-3 -13.445-9.875z" fill="#fff" opacity=".1"/>
  <rect x="5" y="4" width="22" height="18" rx="1.5" ry="1.499" fill="#ebebeb"/>
  <path d="m1.9997 11.999 26 18h-24c-1-8e-6 -2-0.4945-2-1.978z" fill="#fec006"/>
  <path d="m28 29.999c2 0 2-1.978 2-1.978v-16.022l-26 18z" fill="#fecd38"/>
  <path d="m16 6.9992a5 5 0 0 0-5 5 5 5 0 0 0 5 5h3.5c0.277 0 0.5-0.223 0.5-0.5s-0.223-0.5-0.5-0.5h-3.5a4 4 0 0 1-4-4 4 4 0 0 1 4-4 4 4 0 0 1 4 4v1.5c0 0.277-0.223 0.5-0.5 0.5s-0.5-0.223-0.5-0.5v-1.5a3 3 0 0 0-3-3 3 3 0 0 0-3 3 3 3 0 0 0 3 3 3 3 0 0 0 2.1309-0.89062c0.233 0.525 0.756 0.891 1.369 0.891 0.831 0 1.5-0.669 1.5-1.5v-1.5a5 5 0 0 0-5-5zm0 3a2 2 0 0 1 2 2 2 2 0 0 1-2 2 2 2 0 0 1-2-2 2 2 0 0 1 2-2z" fill="#848484"/>
 </g>
 <g id="mail-unread-new" transform="translate(0,64)">
  <rect y="-32" width="32" height="32" opacity=".001"/>
  <path d="m2-23v16.021c0 1.4835 1 1.9785 2 1.9785h24c2 0 2-1.9785 2-1.9785v-16.021l-14 9.6914z" opacity=".2"/>
  <path d="m4-26c-0.4229 0-2 1.38e-4 -2 1.9844v12.104c0 0.44486 0.21316 0.83401 0.53906 1.0879v0.0019l0.015625 0.01367c0.02723 0.02054 0.053281 0.042 0.082031 0.06055v-2e-3c-0.039947-0.02972 3.2476 1.0698 6.5098 3.45h13.715l6.584-3.4988-0.0059-0.0078c0.3387-0.25294 0.56059-0.65049 0.56059-1.1054v-12.104c0-1.9842-2-1.9844-2-1.9844z" fill="#ffd56d"/>
  <path d="m1.9997-24.001 26 18h-24c-1-8e-6 -2-0.4945-2-1.978z" fill="#fec006"/>
  <path d="m28-6.0008c2 0 2-1.978 2-1.978v-16.022l-26 18z" fill="#fecd38"/>
  <path d="m2-24v1l14 9.6914 14-9.6914v-1l-14 9.6914z" opacity=".1"/>
  <path d="m4-26c-0.4229 0-2 1.38e-4 -2 1.9844v1c2e-6 -1.9842 1.5771-1.9844 2-1.9844h24s2 1.38e-4 2 1.9844v-1c0-1.9842-2-1.9844-2-1.9844z" fill="#fff" opacity=".2"/>
 </g>
 <g id="mail-mark-unread-new" transform="translate(0,32)">
  <rect y="-32" width="32" height="32" opacity=".001"/>
  <path d="m2-23v16.021c0 1.4835 1 1.9785 2 1.9785h24c2 0 2-1.9785 2-1.9785v-16.021l-14 9.6914z" opacity=".2"/>
  <path d="m4-26c-0.4229 0-2 1.38e-4 -2 1.9844v12.104c0 0.44486 0.21316 0.83401 0.53906 1.0879v0.0019l0.015625 0.01367c0.02723 0.02054 0.053281 0.042 0.082031 0.06055v-2e-3c-0.039947-0.02972 3.2476 1.0698 6.5098 3.45h13.715l6.584-3.4988-0.0059-0.0078c0.3387-0.25294 0.56059-0.65049 0.56059-1.1054v-12.104c0-1.9842-2-1.9844-2-1.9844z" fill="#ffd56d"/>
  <path d="m1.9997-24.001 26 18h-24c-1-8e-6 -2-0.4945-2-1.978z" fill="#fec006"/>
  <path d="m28-6.0008c2 0 2-1.978 2-1.978v-16.022l-26 18z" fill="#fecd38"/>
  <path d="m2-24v1l14 9.6914 14-9.6914v-1l-14 9.6914z" opacity=".1"/>
  <path d="m4-26c-0.4229 0-2 1.38e-4 -2 1.9844v1c2e-6 -1.9842 1.5771-1.9844 2-1.9844h24s2 1.38e-4 2 1.9844v-1c0-1.9842-2-1.9844-2-1.9844z" fill="#fff" opacity=".2"/>
 </g>
</svg>
