<?xml version="1.0" encoding="UTF-8"?>
<svg width="32" height="32" version="1" xmlns="http://www.w3.org/2000/svg">
 <g id="manjaro-settings-manager">
  <rect width="32" height="32" opacity=".001"/>
  <path d="m3.4 3c-0.7756 0-1.4 0.6244-1.4 1.4v25.2c0 0.7756 0.6244 1.4 1.4 1.4h6.6v-20h10v-8zm18.6 0v28h6.6c0.7756 0 1.4-0.6244 1.4-1.4v-25.2c0-0.7756-0.6244-1.4-1.4-1.4zm-10 10v18h8v-18z" opacity=".2"/>
  <path d="m3.4 2c-0.7756 0-1.4 0.6244-1.4 1.4v25.2c0 0.7756 0.6244 1.4 1.4 1.4h6.6v-20h10v-8zm18.6 0v28h6.6c0.7756 0 1.4-0.6244 1.4-1.4v-25.2c0-0.7756-0.6244-1.4-1.4-1.4zm-10 10v18h8v-18z" fill="#16a085"/>
  <path d="m3.4004 2c-0.7756 0-1.4004 0.62479-1.4004 1.4004v1c0-0.7756 0.62479-1.4004 1.4004-1.4004h16.6v-1zm18.6 0v1h6.5996c0.7756 0 1.4004 0.62479 1.4004 1.4004v-1c0-0.7756-0.62479-1.4004-1.4004-1.4004zm-10 10v1h8v-1z" fill="#fff" opacity=".2"/>
 </g>
 <g id="22-22-manjaro-settings-manager" transform="translate(27,5)">
  <rect x="5" y="5" width="22" height="22" opacity=".001"/>
  <path d="m9.75 9c-0.4155 0-0.75 0.3345-0.75 0.75v12.5c0 0.4155 0.35287 0.62781 0.75 0.75h3.25v-10h5v-4zm9.25 0v14h3.25c0.4155 0 0.75-0.3345 0.75-0.75v-12.5c0-0.4155-0.3345-0.75-0.75-0.75zm-5 5v9h4v-9z" fill="#dfdfdf"/>
 </g>
</svg>
