<?xml version="1.0" encoding="UTF-8"?>
<svg width="32" height="32" version="1.1" xmlns="http://www.w3.org/2000/svg">
 <g id="22-22-nepomuk" transform="translate(32,10)">
  <rect width="22" height="22" opacity=".001"/>
  <path d="m10 3.0007a7 7 0 0 0-7 7 7 7 0 0 0 7 7 7 7 0 0 0 4.0898-1.3281l2.8867 2.8867c0.58761 0.5876 1.5335 0.5876 2.1211 0 0.5876-0.58761 0.5876-1.5335 0-2.1211l-3.0059-3.0059a7 7 0 0 0 0.9082-3.4316 7 7 0 0 0-7-7zm0 3a4 4 0 0 1 4 4 4 4 0 0 1-4 4 4 4 0 0 1-4-4 4 4 0 0 1 4-4z" fill="#dfdfdf"/>
 </g>
 <g id="nepomuk">
  <rect width="32" height="32" opacity=".001"/>
  <g transform="translate(-4e-4 -.5)">
   <rect transform="rotate(-90)" x="-30" y="2" width="28" height="28" rx="14" ry="14" fill="#b87425"/>
   <path d="m14.48 9.9965c3.0288 0 5.5312 2.4746 5.5312 5.5 0 1.1499-0.38921 2.2078-1 3.0938l3.6875 3.6875a1.0055 1.0055 0 0 1-1.4063 1.4375l-3.6875-3.6875c-0.88729 0.61091-1.973 0.96875-3.125 0.96875-3.0289 0-5.5-2.4746-5.5-5.5s2.4711-5.5 5.5-5.5zm0 2c-1.9474 0-3.5 1.5548-3.5 3.5 0 1.9451 1.5526 3.5 3.5 3.5s3.5-1.5549 3.5-3.5c0-1.9452-1.5526-3.5-3.5-3.5z" opacity=".2"/>
   <path d="m 16.0008,2 c 7.756,0 14,6.244 14,14 0,0.169 -0.0195,0.333 -0.0254,0.5 C 29.7117,8.9794 23.588,3 16.0004,3 8.4132,3 2.2894,8.9794 2.0254,16.5 2.0194,16.33264 2,16.16884 2,16 2,8.244 8.244,2 16,2 Z" fill="#fff" opacity=".2"/>
   <path d="m14.48 8.9945c3.0288 0 5.5312 2.4746 5.5312 5.5 0 1.1499-0.38921 2.2078-1 3.0938l3.6875 3.6875a1.0055 1.0055 0 0 1-1.4063 1.4375l-3.6875-3.6875c-0.88729 0.61091-1.973 0.96875-3.125 0.96875-3.0289 0-5.5-2.4746-5.5-5.5s2.4711-5.5 5.5-5.5zm0 2c-1.9474 0-3.5 1.5548-3.5 3.5 0 1.9451 1.5526 3.5 3.5 3.5s3.5-1.5549 3.5-3.5c0-1.9452-1.5526-3.5-3.5-3.5z" fill="#fff"/>
   <path d="m29.975 16.5c0.0059 0.167 0.0254 0.331 0.0254 0.5 0 7.756-6.244 14-14 14s-14-6.244-14-14c0-0.16884 0.01952-0.33264 0.02539-0.5 0.264 7.521 6.388 13.5 13.975 13.5 7.5872 0 13.711-5.979 13.975-13.5z" opacity=".2"/>
  </g>
 </g>
</svg>
