<?xml version="1.0" encoding="UTF-8"?>
<svg width="32" height="32" version="1.1" xmlns="http://www.w3.org/2000/svg">
 <g id="22-22-nulloy" transform="translate(27,5)">
  <rect x="5" y="5" width="22" height="22" opacity=".001"/>
  <path d="m7.8008 8 0.015625 0.10938c0.38758 2.5687 0.61014 4.6885 0.89844 5.9766 0.2883 1.2881 0.6469 2.0554 1.3203 2.4805 0.67341 0.42504 1.6325 0.49767 3.1074 0.45117 1.4749-0.04647 3.4702-0.41522 6.2246-0.5l0.08984-2e-3 -0.01172-0.08594c-0.25947-1.9741-0.34588-3.443-0.52148-4.4277-0.1756-0.98474-0.45046-1.5993-1.0801-2.0156-0.62962-0.41637-1.5938-0.63541-3.1602-0.89062-1.5663-0.25522-3.7371-0.54334-6.7754-1.0762zm13.199 0c-1.1011 0-2 0.89314-2 2 0 1.107 0.89892 2 2 2s2-0.89302 2-2c0-1.1069-0.89891-2-2-2zm3.2305 3.5293-0.16211 0.0957c-1.2975 0.77582-2.2563 0.91491-2.998 1.3223-0.37089 0.20368-0.68509 0.47805-0.94141 0.92578-0.25632 0.44774-0.45745 1.0659-0.61914 1.9668l-0.02344 0.13867 0.12891-0.04883c2.0141-0.75382 2.9091-0.82027 3.4512-1.2129 0.27105-0.19631 0.43808-0.4738 0.5918-0.93359 0.15372-0.45979 0.29772-1.1074 0.52734-2.0703zm-0.16602 3.3711-0.21484 0.07031c-2.1522 0.71815-3.0343 0.92472-3.4863 1.2539-0.226 0.16459-0.33362 0.36525-0.41602 0.64844-0.0824 0.28319-0.14648 0.65599-0.29492 1.1992l-0.03516 0.12695 0.12891-0.0293c1.3034-0.28764 1.9037-0.35643 2.4121-0.71484 0.50839-0.35841 0.89371-0.98389 1.7832-2.3652zm-4.5469 2.0391-0.10938 0.0078c-3.2734 0.17059-4.978 0.19233-6.1133 0.91797-0.56764 0.3628-0.97857 0.94971-1.3535 1.8945s-0.71944 1.9209-1.1582 3.7461l-0.03125 0.13281 0.13086-0.03906c1.9537-0.57397 3.3396-0.82212 4.3516-0.98438 1.012-0.16225 1.6533-0.23478 2.1289-0.47656 0.47558-0.24178 0.76286-0.65391 1.0488-1.4434 0.28597-0.78945 0.57892-1.8351 1.0762-3.6484zm3.9297 0.07617c-0.96132 1.0086-1.782 1.1909-2.418 1.4141-0.31801 0.11156-0.59452 0.23546-0.80274 0.48242-0.20821 0.24696-0.34213 0.60853-0.39453 1.1816l-0.0078 0.09961 0.09766-0.01172c1.1691-0.1513 1.8253-0.26819 2.3223-0.68555s0.81356-1.1135 1.334-2.3965zm-11.787 1.8867-0.14258 0.03711c-1.4844 0.37192-2.1691 0.8277-2.5937 1.582s-0.59547 1.7844-1.1055 3.3301l-0.048828 0.14844 0.15039-0.050781c0.67387-0.22283 1.1518-0.3838 1.5176-0.56641 0.36578-0.18258 0.62019-0.38967 0.82617-0.69726 0.41197-0.61519 0.64305-1.6076 1.3477-3.6465zm11.473 0.90234-0.14453 0.05469c-1.1914 0.45363-1.8455 0.65619-2.2031 0.9668-0.17881 0.1553-0.2777 0.34252-0.3125 0.58203s-0.012 0.25718 0.03516 0.64648l0.0098 0.08984 0.08789-0.02148c0.40663-0.10282 0.7022-0.1021 0.93945-0.0918 0.23726 0.0103 0.42372 0.03653 0.59766-0.04492 0.17393-0.08146 0.30678-0.26293 0.44727-0.61328 0.14049-0.35036 0.29245-0.60673 0.50391-1.4199z" fill="#dfdfdf"/>
 </g>
 <g id="nulloy">
  <rect width="32" height="32" opacity=".001"/>
  <rect transform="matrix(0,-1,-1,0,0,0)" x="-31" y="-30" width="28" height="28" rx="1.4" ry="1.4" opacity=".2"/>
  <rect transform="matrix(0,-1,-1,0,0,0)" x="-30" y="-30" width="28" height="28" rx="1.4" ry="1.4" fill="#4f4f4f"/>
  <path d="m5.4648 6.8711 0.021484 0.13867c0.49797 3.3004 0.78193 5.6419 1.1523 7.2969s0.83206 2.6394 1.6973 3.1855c0.86521 0.5461 2.0972 0.63982 3.9922 0.58008 1.895-0.05971 4.4611-0.27779 8-0.38672l0.11328-2e-3 -0.01563-0.11133c-0.33336-2.5363-0.4443-4.2933-0.66992-5.5585-0.22562-1.2652-0.57777-2.0549-1.3867-2.5898-0.80895-0.53495-2.0481-0.81858-4.0605-1.1465-2.0125-0.32791-4.8014-0.69627-8.7051-1.3809zm17.035 1.1289c-1.3764 0-2.5 1.1164-2.5 2.5 0 1.3837 1.1236 2.5 2.5 2.5 1.3764 0 2.5-1.1163 2.5-2.5 0-1.3836-1.1236-2.5-2.5-2.5zm4.0742 3.8613-0.20898 0.125c-1.667 0.99678-2.8965 1.1758-3.8496 1.6992-0.47653 0.26169-0.88161 0.6142-1.2109 1.1895-0.32932 0.57526-0.58718 1.3699-0.79492 2.5273l-0.03125 0.17578 0.16797-0.06055c2.5877-0.96852 3.7352-1.0542 4.4316-1.5586 0.34824-0.25222 0.56422-0.61043 0.76172-1.2012 0.1975-0.59074 0.3827-1.421 0.67773-2.6582zm-0.21289 4.332-0.27539 0.0918c-2.7652 0.92268-3.8978 1.1864-4.4785 1.6094-0.29037 0.21147-0.43124 0.47015-0.53711 0.83398-0.10587 0.36384-0.18818 0.84307-0.37891 1.541l-0.04492 0.16211 0.16602-0.03516c1.6746-0.36956 2.4484-0.45943 3.1016-0.91992 0.65318-0.4605 1.1462-1.2643 2.2891-3.0391zm-5.8418 2.1934-0.14062 0.0098c-4.2058 0.21918-6.3969-0.0085-7.8555 0.92383-0.72931 0.46613-1.2565 1.2197-1.7383 2.4336s-0.9226 2.8932-1.4863 5.2383l-0.041016 0.17187 0.16797-0.04883c2.5101-0.73744 4.2896-1.0572 5.5898-1.2656 1.3002-0.20847 2.1253-0.30264 2.7363-0.61328 0.61103-0.31065 0.98024-0.83922 1.3477-1.8535s0.74393-2.5276 1.3828-4.8574zm5.0488 0.52539c-1.2351 1.2958-2.2903 1.5317-3.1074 1.8184-0.40858 0.14334-0.76374 0.30184-1.0312 0.61914-0.26751 0.3173-0.43853 0.78124-0.50586 1.5176l-0.0098 0.12695 0.125-0.01367c1.5021-0.1944 2.3459-0.34659 2.9844-0.88281 0.63849-0.53622 1.0442-1.4278 1.7129-3.0762zm-15.145 2.166-0.18164 0.04883c-1.9072 0.47784-2.7883 1.064-3.334 2.0332-0.54566 0.96918-0.76466 2.2914-1.4199 4.2773l-0.0625 0.19141 0.19336-0.06641c0.8658-0.2863 1.4793-0.49195 1.9492-0.72656 0.46997-0.23458 0.79589-0.50128 1.0605-0.89648 0.52931-0.7904 0.82713-2.066 1.7324-4.6855zm14.74 1.416-0.18359 0.07031c-1.5307 0.58283-2.3745 0.84312-2.834 1.2422-0.22974 0.19954-0.35568 0.44227-0.40039 0.75-0.04471 0.30773-0.01567 0.32989 0.04492 0.83008l0.01367 0.11523 0.11328-0.0293c0.52245-0.1321 0.9022-0.12847 1.207-0.11523 0.30483 0.01323 0.54215 0.0441 0.76562-0.06055 0.22347-0.10466 0.39372-0.33502 0.57422-0.78516 0.1805-0.45014 0.37871-0.78137 0.65039-1.8262z" opacity=".2"/>
  <path d="m5.4648 5.8711 0.021484 0.13867c0.49797 3.3004 0.78193 5.6419 1.1523 7.2969s0.83206 2.6394 1.6973 3.1855c0.86521 0.5461 2.0972 0.63982 3.9922 0.58008 1.895-0.05971 4.4611-0.27779 8-0.38672l0.11328-2e-3 -0.01563-0.11133c-0.33336-2.5363-0.4443-4.2933-0.66992-5.5585-0.22562-1.2652-0.57777-2.0549-1.3867-2.5898-0.80895-0.53495-2.0481-0.81858-4.0605-1.1465-2.0125-0.32791-4.8014-0.69627-8.7051-1.3809zm17.035 1.1289c-1.3764 0-2.5 1.1164-2.5 2.5 0 1.3837 1.1236 2.5 2.5 2.5 1.3764 0 2.5-1.1163 2.5-2.5 0-1.3836-1.1236-2.5-2.5-2.5zm4.0742 3.8613-0.20898 0.125c-1.667 0.99678-2.8965 1.1758-3.8496 1.6992-0.47653 0.26169-0.88161 0.6142-1.2109 1.1895-0.32932 0.57526-0.58718 1.3699-0.79492 2.5273l-0.03125 0.17578 0.16797-0.06055c2.5877-0.96852 3.7352-1.0542 4.4316-1.5586 0.34824-0.25222 0.56422-0.61043 0.76172-1.2012 0.1975-0.59074 0.3827-1.421 0.67773-2.6582zm-0.21289 4.332-0.27539 0.0918c-2.7652 0.92268-3.8978 1.1864-4.4785 1.6094-0.29037 0.21147-0.43124 0.47015-0.53711 0.83398-0.10587 0.36384-0.18818 0.84307-0.37891 1.541l-0.04492 0.16211 0.16602-0.03516c1.6746-0.36956 2.4484-0.45943 3.1016-0.91992 0.65318-0.4605 1.1462-1.2643 2.2891-3.0391zm-5.8418 2.1934-0.14062 0.0098c-4.2058 0.21918-6.3969-0.0085-7.8555 0.92383-0.72931 0.46613-1.2565 1.2197-1.7383 2.4336s-0.9226 2.8932-1.4863 5.2383l-0.041016 0.17187 0.16797-0.04883c2.5101-0.73744 4.2896-1.0572 5.5898-1.2656 1.3002-0.20847 2.1253-0.30264 2.7363-0.61328 0.61103-0.31065 0.98024-0.83922 1.3477-1.8535s0.74393-2.5276 1.3828-4.8574zm5.0488 0.52539c-1.2351 1.2958-2.2903 1.5317-3.1074 1.8184-0.40858 0.14334-0.76374 0.30184-1.0312 0.61914-0.26751 0.3173-0.43853 0.78124-0.50586 1.5176l-0.0098 0.12695 0.125-0.01367c1.5021-0.1944 2.3459-0.34659 2.9844-0.88281 0.63849-0.53622 1.0442-1.4278 1.7129-3.0762zm-15.145 2.166-0.18164 0.04883c-1.9072 0.47784-2.7883 1.064-3.334 2.0332-0.54566 0.96918-0.76466 2.2914-1.4199 4.2773l-0.0625 0.19141 0.19336-0.06641c0.8658-0.2863 1.4793-0.49195 1.9492-0.72656 0.46997-0.23458 0.79589-0.50128 1.0605-0.89648 0.52931-0.7904 0.82713-2.066 1.7324-4.6855zm14.74 1.416-0.18359 0.07031c-1.5307 0.58283-2.3745 0.84312-2.834 1.2422-0.22974 0.19954-0.35568 0.44227-0.40039 0.75-0.04471 0.30773-0.01567 0.32989 0.04492 0.83008l0.01367 0.11523 0.11328-0.0293c0.52245-0.1321 0.9022-0.12847 1.207-0.11523 0.30483 0.01323 0.54215 0.0441 0.76562-0.06055 0.22347-0.10466 0.39372-0.33502 0.57422-0.78516 0.1805-0.45014 0.37871-0.78137 0.65039-1.8262z" fill="#fff"/>
  <path d="m3.4004 2c-0.7756 0-1.4004 0.62479-1.4004 1.4004v1c0-0.7756 0.62479-1.4004 1.4004-1.4004h25.199c0.7756 0 1.4004 0.62479 1.4004 1.4004v-1c0-0.7756-0.62479-1.4004-1.4004-1.4004z" fill="#fff" opacity=".1"/>
 </g>
</svg>
