<?xml version="1.0" encoding="UTF-8"?>
<svg width="32" height="32" version="1" xmlns="http://www.w3.org/2000/svg">
 <g id="22-22-offline" transform="translate(27,5)">
  <path d="m22 22v1.4141l1.0859 1.0859-1.0859 1.0859v1.4141h1.4141l1.0859-1.0859 1.0859 1.0859h1.4141v-1.4141l-1.0859-1.0859 1.0859-1.0859v-1.4141h-1.4141l-1.0859 1.0859-1.0859-1.0859z" fill="#f44336"/>
  <path d="m16 6c-5.5229 0-10 4.4771-10 10 0 5.5229 4.4771 10 10 10 2.0381 0 3.9328-0.61119 5.5137-1.6582l-0.2207-0.2207a1.0001 1.0001 0 0 1-0.29297-0.70703v-1.4141a1.0001 1.0001 0 0 1 1-1h1.4141a1.0001 1.0001 0 0 1 0.70703 0.29297l0.2207 0.2207c1.047-1.5809 1.6582-3.4755 1.6582-5.5137 0-5.5229-4.4771-10-10-10zm-0.93555 1.9941c0.10881-0.01139 0.24569 0.0065 0.35547 0 0.01301 0.05204-0.07708 0.23875-0.20117 0.50977-0.79022 1.7263-0.8369 3.7475-0.10352 4.8281 0.13272 0.19592 0.25391 0.38202 0.25391 0.40625 0 0.02424-0.14286 0.05078-0.30469 0.05078-0.3799 1e-6 -0.74006-0.23084-1.4746-0.8125-0.32631-0.25839-0.74971-0.47496-0.91406-0.50781-0.25808-0.05156-0.32628-0.02922-0.66016 0.30469-0.31064 0.31058-0.40625 0.47934-0.40625 0.76367 0 1.0782 1.2808 1.9331 3.6602 2.4375 3.2312 0.68484 4.0261 1.299 4.1152 2.998 0.1119 2.1306-1.0213 3.7367-3.5059 4.9805-0.29655 0.14849-0.48495 0.20788-0.60938 0.25586-0.05514-0.0049-0.09933 0.0049-0.1543 0-0.02114-0.06587-0.05078-0.21824-0.05078-0.50781 0-1.1316-0.44507-2.2978-1.1172-2.9492-0.18042-0.17487-0.68459-0.54471-1.1172-0.8125-0.43258-0.26778-0.86954-0.57822-0.9668-0.71094-0.16114-0.22023-0.17266-0.35487-0.04883-0.76172 0.22568-0.74306 0.49341-1.1594 1.0156-1.6289 0.27378-0.24614 0.54872-0.45018 0.60938-0.45508 0.06067-0.0049-0.34908-0.12989-0.96484-0.25586-0.61573-0.12621-1.5187-0.39005-1.9844-0.55859-0.85156-0.30812-2.0011-0.95568-2.4395-1.4238-0.01853-0.01985-0.034681-0.033211-0.050781-0.050781 0.62801-2.5016 2.3902-4.551 4.7266-5.5391 0.48886-0.20677 0.99342-0.34822 1.5254-0.45703 0.26498-0.05416 0.5389-0.0757 0.8125-0.10352zm7.625 3.8125c0.19102 0.11808 0.91325 1.6802 1.1191 2.4414 0.26582 0.98267 0.24658 2.682 0 3.6582-0.09385 0.37154-0.21585 0.71846-0.25586 0.76172s-0.18674-0.20339-0.35742-0.50586c-0.17069-0.30242-0.71291-0.94574-1.166-1.4238-1.3079-1.3801-1.5146-2.0998-0.9668-3.2012 0.27628-0.55541 1.4791-1.8217 1.627-1.7305z" fill="#dfdfdf" opacity=".35"/>
  <rect x="5" y="5" width="22" height="22" opacity=".001"/>
 </g>
 <g id="offline">
  <g transform="translate(60.339 7.0508)">
   <rect transform="matrix(0,-1,-1,0,0,0)" x="-22.95" y="30.34" width="28" height="28" rx="14" ry="14" fill="#4795d1"/>
   <path d="m-44.339-0.050848c-5.5229 0-10 4.4771-10 10 0 5.5229 4.4771 10 10 10 5.5229 0 10-4.4771 10-10 0-5.5229-4.4771-10-10-10zm-0.93555 1.9941c0.10881-0.01139 0.24569 0.0065 0.35547 0 0.01301 0.05204-0.07708 0.23875-0.20117 0.50976-0.79022 1.7263-0.8369 3.7475-0.10352 4.8281 0.13272 0.19592 0.25391 0.38202 0.25391 0.40625 0 0.02424-0.14286 0.05078-0.30469 0.05078-0.3799 1e-6 -0.74006-0.23084-1.4746-0.8125-0.32631-0.25839-0.74971-0.47496-0.91406-0.50781-0.25808-0.05156-0.32628-0.02922-0.66016 0.30469-0.31064 0.31058-0.40625 0.47934-0.40625 0.76367 0 1.0782 1.2808 1.9331 3.6602 2.4375 3.2312 0.68484 4.0261 1.299 4.1152 2.998 0.1119 2.1306-1.0213 3.7367-3.5059 4.9805-0.29655 0.14849-0.48495 0.20788-0.60938 0.25586-0.05514-0.0049-0.09933 0.0049-0.1543 0-0.02114-0.06587-0.05078-0.21824-0.05078-0.50781 0-1.1316-0.44507-2.2978-1.1172-2.9492-0.18042-0.17487-0.68459-0.54471-1.1172-0.8125-0.43258-0.26778-0.86954-0.57822-0.9668-0.71094-0.16114-0.22023-0.17267-0.35487-0.04883-0.76172 0.22568-0.74306 0.49341-1.1594 1.0156-1.6289 0.27378-0.24614 0.54872-0.45018 0.60938-0.45508 0.06067-0.0049-0.34908-0.12989-0.96484-0.25586-0.61573-0.12621-1.5187-0.39005-1.9844-0.55859-0.85156-0.30812-2.0011-0.95568-2.4395-1.4238-0.01853-0.01985-0.03468-0.03321-0.05078-0.05078 0.62801-2.5016 2.3902-4.551 4.7266-5.5391 0.48886-0.20677 0.99342-0.34822 1.5254-0.45703 0.26498-0.05416 0.5389-0.0757 0.8125-0.10352zm7.625 3.8125c0.19102 0.11808 0.91325 1.6802 1.1191 2.4414 0.26582 0.98267 0.24658 2.682 0 3.6582-0.09385 0.37154-0.21585 0.71846-0.25586 0.76172s-0.18674-0.20339-0.35742-0.50586c-0.17069-0.30242-0.71291-0.94574-1.166-1.4238-1.3079-1.3801-1.5146-2.0998-0.9668-3.2012 0.27628-0.55541 1.4791-1.8217 1.627-1.7305z" opacity=".2"/>
   <path d="m-44.339-5.0508c-7.756 0-14 6.244-14 14 0 0.169 0.0195 0.333 0.0254 0.5 0.2641-7.5206 6.3878-13.5 13.975-13.5s13.711 5.9794 13.975 13.5c6e-3 -0.16736 0.0254-0.33116 0.0254-0.5 0-7.756-6.244-14-14-14z" fill="#fff" opacity=".2"/>
   <path d="m-44.339-1.0508c-5.5229 0-10 4.4771-10 10 0 5.5229 4.4771 10 10 10 5.5229 0 10-4.4771 10-10 0-5.5229-4.4771-10-10-10zm-0.93555 1.9941c0.10881-0.01139 0.24569 0.0065 0.35547 0 0.01301 0.05204-0.07708 0.23875-0.20117 0.50976-0.79022 1.7263-0.8369 3.7475-0.10352 4.8281 0.13272 0.19592 0.25391 0.38202 0.25391 0.40625 0 0.02424-0.14286 0.05078-0.30469 0.05078-0.3799 1e-6 -0.74006-0.23084-1.4746-0.8125-0.32631-0.25839-0.74971-0.47496-0.91406-0.50781-0.25808-0.05156-0.32628-0.02922-0.66016 0.30469-0.31064 0.31058-0.40625 0.47934-0.40625 0.76367 0 1.0782 1.2808 1.9331 3.6602 2.4375 3.2312 0.68484 4.0261 1.299 4.1152 2.998 0.1119 2.1306-1.0213 3.7367-3.5059 4.9805-0.29655 0.14849-0.48495 0.20788-0.60938 0.25586-0.05514-0.0049-0.09933 0.0049-0.1543 0-0.02114-0.06587-0.05078-0.21824-0.05078-0.50781 0-1.1316-0.44507-2.2978-1.1172-2.9492-0.18042-0.17487-0.68459-0.54471-1.1172-0.8125-0.43258-0.26778-0.86954-0.57822-0.9668-0.71094-0.16114-0.22023-0.17267-0.35487-0.04883-0.76172 0.22568-0.74306 0.49341-1.1594 1.0156-1.6289 0.27378-0.24614 0.54872-0.45018 0.60938-0.45508 0.06067-0.0049-0.34908-0.12989-0.96484-0.25586-0.61573-0.12621-1.5187-0.39005-1.9844-0.5586-0.85156-0.30812-2.0011-0.95568-2.4395-1.4238-0.01853-0.01985-0.03468-0.03321-0.05078-0.05078 0.62801-2.5016 2.3902-4.551 4.7266-5.5391 0.48886-0.20677 0.99342-0.34822 1.5254-0.45703 0.26498-0.05416 0.5389-0.0757 0.8125-0.10352zm7.625 3.8125c0.19102 0.11808 0.91325 1.6802 1.1191 2.4414 0.26582 0.98267 0.24658 2.682 0 3.6582-0.09385 0.37154-0.21585 0.71846-0.25586 0.76172s-0.18674-0.20339-0.35742-0.50586c-0.17069-0.30242-0.71291-0.94574-1.166-1.4238-1.3079-1.3801-1.5146-2.0998-0.9668-3.2012 0.27628-0.55541 1.4791-1.8217 1.627-1.7305z" fill="#fff"/>
   <path d="m-58.314 9.4492c-0.0059 0.167-0.0254 0.331-0.0254 0.5 0 7.756 6.244 14 14 14s14-6.244 14-14c0-0.16884-0.01952-0.33264-0.02539-0.5-0.264 7.521-6.388 13.5-13.975 13.5-7.5872 0-13.711-5.979-13.975-13.5z" opacity=".2"/>
   <circle cx="-35.339" cy="16.949" r="7" fill="#db3c30"/>
   <path d="m-28.362 17.408a7 7 0 0 1-6.977 6.541 7 7 0 0 1-6.977-6.459 7 7 0 0 0-0.023 0.459 7 7 0 0 0 7 7 7 7 0 0 0 7-7 7 7 0 0 0-0.02344-0.54102z" opacity=".2"/>
   <path d="m-37.46 13.414-1.4141 1.4141 2.1211 2.1211-2.1211 2.1211 1.4141 1.4141 2.1211-2.1211 2.1211 2.1211 1.4141-1.4141-2.1211-2.1211 2.1211-2.1211-1.4141-1.4141-2.1211 2.1211z" fill="#fff"/>
  </g>
  <rect width="32" height="32" opacity=".001"/>
 </g>
</svg>
