<?xml version="1.0" encoding="UTF-8"?>
<svg width="32" height="32" version="1.1" xmlns="http://www.w3.org/2000/svg">
 <g id="22-22-onboard" transform="translate(32,-288.53)">
  <rect y="298.53" width="22" height="22" opacity=".001"/>
  <path d="m5.2852 301.53c-1.2663 0-2.2852 1.0189-2.2852 2.2852v11.43c0 1.2663 1.0189 2.2852 2.2852 2.2852h11.43c1.2663 0 2.2852-1.0189 2.2852-2.2852v-11.43c0-1.2663-1.0189-2.2852-2.2852-2.2852zm2.2168 2c0.78133 0 1.3913 0.22266 1.834 0.66602 0.44286 0.44325 0.66406 1.0529 0.66406 1.834 0 0.77903-0.2212 1.3907-0.66406 1.834-0.44266 0.44306-1.0527 0.66602-1.834 0.66602-0.77922 0-1.3929-0.22296-1.8379-0.66602-0.44276-0.44325-0.66406-1.055-0.66406-1.834 0-0.78111 0.2213-1.3907 0.66406-1.834 0.44497-0.44336 1.0587-0.66602 1.8379-0.66602zm0 0.90039c-0.38205 0-0.67816 0.14018-0.88867 0.41992-0.21061 0.27974-0.31836 0.67186-0.31836 1.1797 0 0.50574 0.10775 0.89995 0.31836 1.1797 0.21051 0.27974 0.50663 0.41992 0.88867 0.41992 0.38415 0 0.68011-0.14018 0.89063-0.41992 0.21051-0.27974 0.31641-0.67395 0.31641-1.1797 0-0.50783-0.1059-0.89995-0.31641-1.1797-0.21051-0.27974-0.50647-0.41992-0.89063-0.41992zm5.498 6.0996h1.8809c0.67499 0 1.1634 0.10421 1.4648 0.31445 0.30445 0.21024 0.45508 0.54508 0.45508 1.0078 0 0.24322-0.05485 0.45289-0.16602 0.625-0.11016 0.17004-0.27211 0.2945-0.48242 0.37695 0.2694 0.0804 0.47974 0.22889 0.62695 0.44531 0.14722 0.21643 0.2207 0.48254 0.2207 0.79688 0 0.48231-0.15815 0.84407-0.47461 1.0801-0.31646 0.23704-0.79937 0.35352-1.4453 0.35352h-2.0801zm1.2539 0.87695v1.0586h0.69141c0.19729 0 0.34707-0.0451 0.44922-0.13477 0.10214-0.0886 0.1543-0.22036 0.1543-0.39453 0-0.17211-0.05215-0.30395-0.1543-0.39258-0.10215-0.0917-0.25193-0.13672-0.44922-0.13672zm-2e-3 1.9375v1.3086h0.73438c0.25137 0 0.44317-0.0548 0.56836-0.16407 0.12819-0.10924 0.19141-0.27554 0.19141-0.49609 0-0.21642-0.06131-0.37914-0.1875-0.48633-0.12618-0.10924-0.3189-0.16211-0.57227-0.16211z" fill="#dfdfdf"/>
 </g>
 <g id="onboard">
  <rect width="32" height="32" opacity=".001"/>
  <path d="m10.4 3c-4.6536 0-8.4004 3.7468-8.4004 8.4004v11.199c0 4.6536 3.7468 8.4004 8.4004 8.4004h11.199c4.6536 0 8.4004-3.7468 8.4004-8.4004v-11.199c0-4.6536-3.7468-8.4004-8.4004-8.4004h-5.5996z" opacity=".2"/>
  <path d="m2 16v5.6c0 4.6536 3.7464 8.4 8.4 8.4h5.6v-14z" fill="#e4e4e4"/>
  <path d="m10.4 2c-4.6536 0-8.4 3.7464-8.4 8.4v5.6h14v-14z" fill="#ebc53d"/>
  <path d="m16 2v14h14v-5.6c0-4.6536-3.7464-8.4-8.4-8.4z" fill="#e4e4e4"/>
  <path d="m16 16v14h5.6c4.6536 0 8.4-3.7464 8.4-8.4v-5.6z" fill="#008aff"/>
  <path d="m9.0038 5c-1.2468 0-2.2293 0.35562-2.9413 1.065-0.70842 0.7092-1.0625 1.6852-1.0625 2.935 0 1.2464 0.35408 2.2246 1.0625 2.9338 0.71195 0.7089 1.6945 1.0662 2.9413 1.0662 1.2501 0 2.2255-0.35735 2.9337-1.0662 0.70858-0.7092 1.0625-1.6873 1.0625-2.9338 0-1.2498-0.35392-2.2258-1.0625-2.935-0.70826-0.70938-1.6836-1.065-2.9337-1.065zm0 1.44c0.61464 0 1.0882 0.22492 1.425 0.6725 0.33682 0.44758 0.50625 1.075 0.50625 1.8875 0 0.80918-0.16943 1.4399-0.50625 1.8875-0.33682 0.44758-0.81036 0.67125-1.425 0.67125-0.61127 0-1.0857-0.22367-1.4225-0.67125-0.33698-0.44758-0.50875-1.0783-0.50875-1.8875 0-0.81253 0.17177-1.4399 0.50875-1.8875 0.33682-0.44758 0.81123-0.6725 1.4225-0.6725z" fill="#3f3f3f"/>
  <path d="m20 19v8h3.3288c1.0335 0 1.8062-0.18699 2.3125-0.56625 0.50634-0.3776 0.75875-0.9558 0.75875-1.7275 0-0.50294-0.11695-0.92871-0.3525-1.275-0.23554-0.34627-0.57272-0.58386-1.0038-0.7125 0.33649-0.13192 0.59624-0.33169 0.7725-0.60375 0.17786-0.27538 0.265-0.61085 0.265-1 0-0.74038-0.24039-1.2761-0.7275-1.6125-0.48231-0.33638-1.2638-0.5025-2.3438-0.5025zm2.0062 1.4025h1.1062c0.31567 0 0.55531 0.07203 0.71875 0.21875 0.16344 0.14181 0.2475 0.35337 0.2475 0.62875 0 0.27867-0.08407 0.48949-0.2475 0.63125-0.16344 0.14347-0.40308 0.215-0.71875 0.215h-1.1062zm-0.0025 3.1h1.175c0.4054 0 0.7131 0.08522 0.915 0.26 0.2019 0.1715 0.3 0.43123 0.3 0.7775 0 0.35288-0.10115 0.61897-0.30625 0.79375-0.2003 0.17483-0.50656 0.2625-0.90875 0.2625h-1.175z" fill="#3f3f3f"/>
  <path d="m10.4 2c-4.6536 0-8.4004 3.7468-8.4004 8.4004v1c0-4.6536 3.7468-8.4004 8.4004-8.4004h11.199c4.6536 0 8.4004 3.7468 8.4004 8.4004v-1c0-4.6536-3.7468-8.4004-8.4004-8.4004h-5.5996z" fill="#fff" opacity=".2"/>
  <rect x="16" y="16" width="14" height="1" opacity=".2"/>
  <rect x="2" y="16" width="14" height="1" fill="#fff" opacity=".2"/>
 </g>
</svg>
