<?xml version="1.0" encoding="UTF-8"?>
<svg width="32" height="32" version="1" xmlns="http://www.w3.org/2000/svg">
 <g id="22-22-org.rnd2.cpupower_gui" transform="translate(32,10)">
  <rect width="22" height="22" opacity=".001"/>
  <path d="m7 3v2h-1.1992c-0.4432 0-0.80078 0.35758-0.80078 0.80078v1.1992h-2v2h2v1h-2v2h2v1h-2v2h2v1.1992c0 0.4432 0.35758 0.80078 0.80078 0.80078h1.1992v2h2v-2h1v2h2v-2h1v2h2v-2h1.1992c0.4432 0 0.80078-0.35758 0.80078-0.80078v-1.1992h2v-2h-2v-1h2v-2h-2v-1h2v-2h-2v-1.1992c0-0.4432-0.35758-0.80078-0.80078-0.80078h-1.1992v-2h-2v2h-1v-2h-2v2h-1v-2h-2zm5.7266 3-1.0371 4h1.8105l-4.2266 6 1.0371-4h-1.8105l4.2266-6z" fill="#dfdfdf"/>
 </g>
 <g id="org.rnd2.cpupower_gui">
  <rect width="32" height="32" opacity=".001"/>
  <g fill="#8e8e8e">
   <rect transform="rotate(90)" x="20" y="-29" width="1" height="26"/>
   <rect transform="rotate(90)" x="23" y="-29" width="1" height="26"/>
   <rect transform="rotate(90)" x="26" y="-29" width="1" height="26"/>
   <rect transform="rotate(90)" x="11" y="-29" width="1" height="26"/>
   <rect transform="rotate(90)" x="14" y="-29" width="1" height="26"/>
   <rect transform="rotate(90)" x="17" y="-29" width="1" height="26"/>
   <rect transform="rotate(90)" x="8" y="-29" width="1" height="26"/>
   <rect transform="rotate(90)" x="5" y="-29" width="1" height="26"/>
   <rect transform="scale(-1)" x="-12" y="-29" width="1" height="26"/>
   <rect transform="scale(-1)" x="-9" y="-29" width="1" height="26"/>
   <rect transform="scale(-1)" x="-6" y="-29" width="1" height="26"/>
   <rect transform="scale(-1)" x="-21" y="-29" width="1" height="26"/>
   <rect transform="scale(-1)" x="-18" y="-29" width="1" height="26"/>
   <rect transform="scale(-1)" x="-15" y="-29" width="1" height="26"/>
   <rect transform="scale(-1)" x="-24" y="-29" width="1" height="26"/>
   <rect transform="scale(-1)" x="-27" y="-29" width="1" height="26"/>
  </g>
  <rect transform="matrix(0,-1,-1,0,0,0)" x="-29" y="-28" width="24" height="24" rx="1.25" ry="1.25" opacity=".2"/>
  <rect transform="matrix(0,-1,-1,0,0,0)" x="-28" y="-28" width="24" height="24" rx="1.25" ry="1.25" fill="#00b7f8"/>
  <path d="m19.109 8-7.6088 10h3.2595l-1.8683 8 7.6088-10h-3.2595z" fill-rule="evenodd" opacity=".2"/>
  <path d="m19.109 7-7.6088 10h3.2595l-1.8683 8 7.6088-10h-3.2595z" fill="#fff" fill-rule="evenodd"/>
  <path d="m5.25 4c-0.6925 0-1.25 0.5575-1.25 1.25v1c0-0.6925 0.5575-1.25 1.25-1.25h21.5c0.692 0 1.25 0.5575 1.25 1.25v-1c0-0.6925-0.558-1.25-1.25-1.25h-21.5z" fill="#fff" opacity=".2"/>
 </g>
</svg>
