<?xml version="1.0" encoding="UTF-8"?>
<svg width="64" height="64" version="1.1" xmlns="http://www.w3.org/2000/svg">
 <g id="osd-shutd-screen" transform="translate(128)">
  <rect width="64" height="64" opacity=".001"/>
  <g transform="translate(13,-28)">
   <rect x="4" y="33" width="40" height="28" rx="2" ry="2" opacity=".2"/>
   <rect x="4" y="32" width="40" height="28" rx="2" ry="2" fill="#4f4f4f"/>
   <rect x="7" y="35" width="34" height="22" fill="#333"/>
   <path d="m6 32c-1.108 0-2 0.892-2 2v1c0-1.108 0.892-2 2-2h36c1.108 0 2 0.892 2 2v-1c0-1.108-0.892-2-2-2z" fill="#fff" opacity=".1"/>
   <rect x="7" y="57" width="34" height="1" fill="#fff" opacity=".1"/>
  </g>
  <g transform="translate(20,-5)">
   <circle cx="32" cy="33" r="8" opacity=".2"/>
   <circle cx="32" cy="32" r="8" fill="#f34235"/>
  </g>
  <g transform="translate(0,-3)">
   <rect x="4" y="33" width="40" height="28" rx="2" ry="2" opacity=".2"/>
   <rect x="4" y="32" width="40" height="28" rx="2" ry="2" fill="#e4e4e4"/>
   <rect x="7" y="35" width="34" height="22" fill="#333"/>
   <path d="m6 32c-1.108 0-2 0.892-2 2v1c0-1.108 0.892-2 2-2h36c1.108 0 2 0.892 2 2v-1c0-1.108-0.892-2-2-2z" fill="#fff" opacity=".2"/>
   <rect x="7" y="57" width="34" height="1" fill="#fff" opacity=".2"/>
  </g>
  <g transform="translate(7,20)">
   <circle cx="32" cy="33" r="8" opacity=".2"/>
   <circle cx="32" cy="32" r="8" fill="#0ba037"/>
  </g>
  <path d="m36 52 2.5 3 4.5-7" fill="none" stroke="#fff" stroke-linecap="round" stroke-linejoin="round" stroke-width="2"/>
  <path d="m55 24-6 6v0m0-6 6 6" fill="none" stroke="#fff" stroke-linecap="round" stroke-linejoin="round" stroke-width="2"/>
 </g>
 <g id="osd-shutd-laptop" transform="translate(64)">
  <rect width="64" height="64" opacity=".001"/>
  <g transform="translate(13,-28)">
   <rect x="4" y="33" width="40" height="28" rx="2" ry="2" opacity=".2"/>
   <rect x="4" y="32" width="40" height="28" rx="2" ry="2" fill="#4f4f4f"/>
   <rect x="7" y="35" width="34" height="22" fill="#333"/>
   <path d="m6 32c-1.108 0-2 0.892-2 2v1c0-1.108 0.892-2 2-2h36c1.108 0 2 0.892 2 2v-1c0-1.108-0.892-2-2-2z" fill="#fff" opacity=".1"/>
   <rect x="7" y="57" width="34" height="1" fill="#fff" opacity=".1"/>
  </g>
  <g transform="translate(0,-3)">
   <rect x="4" y="33" width="40" height="28" rx="2" ry="2" opacity=".2"/>
   <rect x="4" y="32" width="40" height="28" rx="2" ry="2" fill="#e4e4e4"/>
   <rect x="7" y="35" width="34" height="22" fill="#333"/>
   <path d="m6 32c-1.108 0-2 0.892-2 2v1c0-1.108 0.892-2 2-2h36c1.108 0 2 0.892 2 2v-1c0-1.108-0.892-2-2-2z" fill="#fff" opacity=".2"/>
   <rect x="7" y="57" width="34" height="1" fill="#fff" opacity=".2"/>
  </g>
  <g transform="translate(13,-25)">
   <g transform="translate(7,20)">
    <circle cx="32" cy="33" r="8" opacity=".2"/>
    <circle cx="32" cy="32" r="8" fill="#0ba037"/>
   </g>
   <path d="m36 52 2.5 3 4.5-7" fill="none" stroke="#fff" stroke-linecap="round" stroke-linejoin="round" stroke-width="2"/>
  </g>
  <g transform="translate(-13,25)">
   <g transform="translate(20,-5)">
    <circle cx="32" cy="33" r="8" opacity=".2"/>
    <circle cx="32" cy="32" r="8" fill="#f34235"/>
   </g>
   <path d="m55 24-6 6v0m0-6 6 6" fill="none" stroke="#fff" stroke-linecap="round" stroke-linejoin="round" stroke-width="2"/>
  </g>
 </g>
 <g id="osd-duplicate">
  <rect width="64" height="64" opacity=".001"/>
  <g transform="translate(13,-28)">
   <rect x="4" y="33" width="40" height="28" rx="2" ry="2" opacity=".2"/>
   <rect x="4" y="32" width="40" height="28" rx="2" ry="2" fill="#4f4f4f"/>
   <rect x="7" y="35" width="34" height="22" fill="#333"/>
   <path d="m6 32c-1.108 0-2 0.892-2 2v1c0-1.108 0.892-2 2-2h36c1.108 0 2 0.892 2 2v-1c0-1.108-0.892-2-2-2z" fill="#fff" opacity=".1"/>
   <rect x="7" y="57" width="34" height="1" fill="#fff" opacity=".1"/>
  </g>
  <g transform="translate(0,-3)">
   <rect x="4" y="33" width="40" height="28" rx="2" ry="2" opacity=".2"/>
   <rect x="4" y="32" width="40" height="28" rx="2" ry="2" fill="#e4e4e4"/>
   <rect x="7" y="35" width="34" height="22" fill="#333"/>
   <path d="m6 32c-1.108 0-2 0.892-2 2v1c0-1.108 0.892-2 2-2h36c1.108 0 2 0.892 2 2v-1c0-1.108-0.892-2-2-2z" fill="#fff" opacity=".2"/>
   <rect x="7" y="57" width="34" height="1" fill="#fff" opacity=".2"/>
  </g>
  <g transform="translate(13,-25)">
   <g transform="translate(7,20)">
    <circle cx="32" cy="33" r="8" opacity=".2"/>
    <circle cx="32" cy="32" r="8" fill="#0ba037"/>
   </g>
   <path d="m36 52 2.5 3 4.5-7" fill="none" stroke="#fff" stroke-linecap="round" stroke-linejoin="round" stroke-width="2"/>
  </g>
  <g transform="translate(7,20)">
   <circle cx="32" cy="33" r="8" opacity=".2"/>
   <circle cx="32" cy="32" r="8" fill="#0ba037"/>
  </g>
  <path d="m36 52 2.5 3 4.5-7" fill="none" stroke="#fff" stroke-linecap="round" stroke-linejoin="round" stroke-width="2"/>
 </g>
 <g id="osd-rotate-normal" transform="translate(512)">
  <rect width="64" height="64" opacity=".001"/>
  <rect x="4" y="13" width="56" height="39" rx="2.8" ry="2.786" opacity=".2"/>
  <rect x="4" y="12" width="56" height="39" rx="2.8" ry="2.786" fill="#e4e4e4"/>
  <rect x="8" y="16" width="48" height="31" fill="#333"/>
  <path d="m6.8008 12c-1.5512 0-2.8008 1.2419-2.8008 2.7852v1c0-1.5433 1.2496-2.7852 2.8008-2.7852h50.398c1.5512 0 2.8008 1.2419 2.8008 2.7852v-1c0-1.5433-1.2496-2.7852-2.8008-2.7852z" fill="#fff" opacity=".2"/>
  <rect x="8" y="47" width="48" height="1" fill="#fff" opacity=".2"/>
 </g>
 <g id="osd-sbs-left" transform="translate(192)">
  <rect transform="scale(-1,1)" x="-64" width="64" height="64" opacity=".001"/>
  <rect transform="scale(-1,1)" x="-60" y="13" width="56" height="39" rx="2.8" ry="2.786" opacity=".2"/>
  <path d="m57.199 12c1.5512 0 2.8008 1.2419 2.8008 2.7852v33.43c0 1.5433-1.2496 2.7852-2.8008 2.7852h-25.199v-39z" fill="#e4e4e4"/>
  <rect transform="scale(-1,1)" x="-56" y="16" width="24" height="31" fill="#333"/>
  <path d="m6.8008 12c-1.5512 0-2.8008 1.2419-2.8008 2.7852v33.43c0 1.5433 1.2496 2.7852 2.8008 2.7852h25.199v-39z" fill="#4f4f4f"/>
  <path d="m6.8008 12c-1.5512 0-2.8008 1.2419-2.8008 2.7852v1c0-1.5433 1.2496-2.7852 2.8008-2.7852h25.199v-1z" fill="#fff" opacity=".1"/>
  <rect x="8" y="16" width="24" height="31" fill="#333"/>
  <rect transform="scale(-1,1)" x="-35" y="8" width="6" height="49" rx="3" ry="3" opacity=".2"/>
  <path d="m32 12v1h25.199c1.5512 0 2.8008 1.2419 2.8008 2.7852v-1c0-1.5433-1.2496-2.7852-2.8008-2.7852z" fill="#fff" opacity=".2"/>
  <rect x="32" y="47" width="24" height="1" fill="#fff" opacity=".2"/>
  <rect x="8" y="47" width="24" height="1" fill="#fff" opacity=".1"/>
  <rect transform="scale(-1,1)" x="-35" y="7" width="6" height="49" rx="3" ry="3" fill="#ff9800"/>
  <path d="m32 7c1.662 0 3 1.338 3 3v1c0-1.662-1.338-3-3-3s-3 1.338-3 3v-1c0-1.662 1.338-3 3-3z" fill="#fff" opacity=".1"/>
 </g>
 <g id="osd-sbs-sright" transform="matrix(-1,0,0,1,320,0)">
  <rect transform="scale(-1,1)" x="-64" width="64" height="64" opacity=".001"/>
  <rect transform="scale(-1,1)" x="-60" y="13" width="56" height="39" rx="2.8" ry="2.786" opacity=".2"/>
  <path d="m57.199 12c1.5512 0 2.8008 1.2419 2.8008 2.7852v33.43c0 1.5433-1.2496 2.7852-2.8008 2.7852h-25.199v-39z" fill="#e4e4e4"/>
  <rect transform="scale(-1,1)" x="-56" y="16" width="24" height="31" fill="#333"/>
  <path d="m6.8008 12c-1.5512 0-2.8008 1.2419-2.8008 2.7852v33.43c0 1.5433 1.2496 2.7852 2.8008 2.7852h25.199v-39z" fill="#4f4f4f"/>
  <path d="m6.8008 12c-1.5512 0-2.8008 1.2419-2.8008 2.7852v1c0-1.5433 1.2496-2.7852 2.8008-2.7852h25.199v-1z" fill="#fff" opacity=".1"/>
  <rect x="8" y="16" width="24" height="31" fill="#333"/>
  <rect transform="scale(-1,1)" x="-35" y="8" width="6" height="49" rx="3" ry="3" opacity=".2"/>
  <path d="m32 12v1h25.199c1.5512 0 2.8008 1.2419 2.8008 2.7852v-1c0-1.5433-1.2496-2.7852-2.8008-2.7852z" fill="#fff" opacity=".2"/>
  <rect x="32" y="47" width="24" height="1" fill="#fff" opacity=".2"/>
  <rect x="8" y="47" width="24" height="1" fill="#fff" opacity=".1"/>
  <rect transform="scale(-1,1)" x="-35" y="7" width="6" height="49" rx="3" ry="3" fill="#ff9800"/>
  <path d="m32 7c1.662 0 3 1.338 3 3v1c0-1.662-1.338-3-3-3s-3 1.338-3 3v-1c0-1.662 1.338-3 3-3z" fill="#fff" opacity=".1"/>
 </g>
 <g id="osd-rotate-flip" transform="translate(448)">
  <rect width="64" height="64" opacity=".001"/>
  <rect x="4" y="13" width="56" height="39" rx="2.8" ry="2.786" opacity=".2"/>
  <rect x="4" y="12" width="56" height="39" rx="2.8" ry="2.786" fill="#e4e4e4"/>
  <rect x="8" y="16" width="48" height="31" fill="#333"/>
  <path d="m6.8008 12c-1.5512 0-2.8008 1.2419-2.8008 2.7852v1c0-1.5433 1.2496-2.7852 2.8008-2.7852h50.398c1.5512 0 2.8008 1.2419 2.8008 2.7852v-1c0-1.5433-1.2496-2.7852-2.8008-2.7852z" fill="#fff" opacity=".2"/>
  <rect x="8" y="47" width="48" height="1" fill="#fff" opacity=".2"/>
  <circle transform="scale(-1,1)" cx="-48" cy="45" r="16" opacity=".2"/>
  <circle transform="scale(-1,1)" cx="-48" cy="44" r="16" fill="#0f88ef"/>
  <rect x="46" y="38" width="4" height="12" fill="#fff"/>
  <path d="m48.477 32.125a0.85192 0.87369 82.469 0 1 0.20007 0.16622 0.85192 0.87369 82.469 0 1 0.09666 0.13513l1.5526 2.6353 1.5585 2.6387a0.85192 0.87369 82.469 0 1-0.75985 1.2796l-3.1313 0.01002-3.1237 0.01043a0.85192 0.87369 82.469 0 1-0.75314-1.2739l1.5699-2.6503 1.5758-2.647a0.85192 0.87369 82.469 0 1 1.2145-0.30416z" fill="#fff"/>
  <path d="m48.477 55.875a0.87369 0.85192 7.5312 0 0 0.20007-0.16622 0.87369 0.85192 7.5312 0 0 0.09666-0.13513l1.5526-2.6353 1.5585-2.6387a0.87369 0.85192 7.5312 0 0-0.75985-1.2796l-3.1313-0.01002-3.1237-0.01043a0.87369 0.85192 7.5312 0 0-0.75314 1.2739l1.5699 2.6503 1.5758 2.647a0.87369 0.85192 7.5312 0 0 1.2145 0.30416z" fill="#fff"/>
 </g>
 <g id="osd-rotate-cw" transform="translate(384)">
  <rect width="64" height="64" opacity=".001"/>
  <rect x="4" y="13" width="56" height="39" rx="2.8" ry="2.786" opacity=".2"/>
  <rect x="4" y="12" width="56" height="39" rx="2.8" ry="2.786" fill="#e4e4e4"/>
  <rect x="8" y="16" width="48" height="31" fill="#333"/>
  <path d="m6.8008 12c-1.5512 0-2.8008 1.2419-2.8008 2.7852v1c0-1.5433 1.2496-2.7852 2.8008-2.7852h50.398c1.5512 0 2.8008 1.2419 2.8008 2.7852v-1c0-1.5433-1.2496-2.7852-2.8008-2.7852z" fill="#fff" opacity=".2"/>
  <rect x="8" y="47" width="48" height="1" fill="#fff" opacity=".2"/>
  <g transform="matrix(-1,0,0,1,96,0)">
   <circle transform="scale(-1,1)" cx="-48" cy="45" r="16" opacity=".2"/>
   <circle transform="scale(-1,1)" cx="-48" cy="44" r="16" fill="#0f88ef"/>
   <path transform="scale(-1,1)" d="m-49.976 51.752a8 8 0 0 1-6.0229-7.6172 8 8 0 0 1 5.7625-7.816 8 8 0 0 1 9.0575 3.5011" fill="none" stroke="#fff" stroke-linecap="round" stroke-linejoin="round" stroke-width="4"/>
   <path d="m39.005 36a0.97505 0.98246 0 0 1 0.28944 0.05372 0.97505 0.98246 0 0 1 0.17138 0.08058l3.0201 1.7575 3.0277 1.7575a0.97505 0.98246 0 0 1 0 1.6999l-3.0277 1.7613-3.0201 1.7575a0.97505 0.98246 0 0 1-1.4624-0.84805l-0.0038-3.5188 0.0038-3.5188a0.97505 0.98246 0 0 1 1.0016-0.98237z" fill="#fff"/>
  </g>
 </g>
 <g id="osd-rotate-ccw" transform="translate(320)">
  <rect width="64" height="64" opacity=".001"/>
  <rect x="4" y="13" width="56" height="39" rx="2.8" ry="2.786" opacity=".2"/>
  <rect x="4" y="12" width="56" height="39" rx="2.8" ry="2.786" fill="#e4e4e4"/>
  <rect x="8" y="16" width="48" height="31" fill="#333"/>
  <path d="m6.8008 12c-1.5512 0-2.8008 1.2419-2.8008 2.7852v1c0-1.5433 1.2496-2.7852 2.8008-2.7852h50.398c1.5512 0 2.8008 1.2419 2.8008 2.7852v-1c0-1.5433-1.2496-2.7852-2.8008-2.7852z" fill="#fff" opacity=".2"/>
  <rect x="8" y="47" width="48" height="1" fill="#fff" opacity=".2"/>
  <circle transform="scale(-1,1)" cx="-48" cy="45" r="16" opacity=".2"/>
  <circle transform="scale(-1,1)" cx="-48" cy="44" r="16" fill="#0f88ef"/>
  <path transform="scale(-1,1)" d="m-49.976 51.752a8 8 0 0 1-6.0229-7.6172 8 8 0 0 1 5.7625-7.816 8 8 0 0 1 9.0575 3.5011" fill="none" stroke="#fff" stroke-linecap="round" stroke-linejoin="round" stroke-width="4"/>
  <path d="m39.005 36a0.97505 0.98246 0 0 1 0.28944 0.05372 0.97505 0.98246 0 0 1 0.17138 0.08058l3.0201 1.7575 3.0277 1.7575a0.97505 0.98246 0 0 1 0 1.6999l-3.0277 1.7613-3.0201 1.7575a0.97505 0.98246 0 0 1-1.4624-0.84805l-0.0038-3.5188 0.0038-3.5188a0.97505 0.98246 0 0 1 1.0016-0.98237z" fill="#fff"/>
 </g>
</svg>
