<?xml version="1.0" encoding="UTF-8"?>
<svg width="32" height="32" version="1.1" xmlns="http://www.w3.org/2000/svg">
 <g id="22-22-phone" transform="translate(32 10)">
  <rect width="22" height="22" rx="0" ry="0" opacity=".001"/>
  <path transform="translate(-32 -10)" d="m39 13c-1 0-1 1-1 1v14s0 1 1 1h8c1 0 1-1 1-1v-14s0-1-1-1h-8zm7 3v9h-6v-8.998l6-0.001953zm-3.5 10h0.5 0.5c0.277 0 0.5 0.223 0.5 0.5v0.5 0.5c0 0.277-0.223 0.5-0.5 0.5h-0.5-0.5c-0.277 0-0.5-0.223-0.5-0.5v-0.5-0.5c0-0.277 0.223-0.5 0.5-0.5z" fill="#dfdfdf"/>
 </g>
 <g id="22-22-phone-battery" transform="translate(2,-22)">
  <rect x="30" width="22" height="22" rx="0" ry="0" opacity=".001"/>
  <path transform="translate(-2,22)" d="m39-19c-1 0-1 1-1 1v14s0 1 1 1h8c1 0 1-1 1-1v-14s0-1-1-1zm4 3h3v9h-6v-8.998h3zm0 2e-3 -2 4.998h2v3l2-4h-2zm-0.5 9.998h1c0.277 0 0.5 0.223 0.5 0.5v1c0 0.277-0.223 0.5-0.5 0.5h-1c-0.277 0-0.5-0.223-0.5-0.5v-1c0-0.277 0.223-0.5 0.5-0.5z" fill="#f44336"/>
 </g>
 <g id="16-16-phone-battery" transform="translate(21,-42)">
  <rect x="33" y="26" width="16" height="16" rx="0" ry="0" opacity=".001"/>
  <path transform="translate(-21,42)" d="m58.799-14c-0.8 0-0.79883 0.75-0.79883 0.75v10.5s-0.0012 0.75 0.79883 0.75h6.4004c0.8 0 0.80078-0.75 0.80078-0.75v-10.5s-8.42e-4 -0.75-0.80078-0.75h-6.4004zm1.2012 2h2 2v6h-2-2v-6zm2 6 1.5-3.75h-1.5v-2.25l-1.5 3h1.5v3zm-0.5 1h0.5 0.5c0.277 0 0.5 0.223 0.5 0.5v0.5 0.5c0 0.277-0.223 0.5-0.5 0.5h-0.5-0.5c-0.277 0-0.5-0.223-0.5-0.5v-0.5-0.5c0-0.277 0.223-0.5 0.5-0.5z" fill="#f44336"/>
 </g>
 <g id="16-16-phone" transform="translate(54,-10)">
  <rect y="26" width="16" height="16" rx="0" ry="0" opacity=".001"/>
  <path transform="translate(-54,10)" d="m58.799 18c-0.8 0-0.79883 0.75-0.79883 0.75v10.5s-0.0012 0.75 0.79883 0.75h6.4004c0.8 0 0.80078-0.75 0.80078-0.75v-10.5s-8.42e-4 -0.75-0.80078-0.75h-6.4004zm1.2012 2h2 2v6h-4v-6zm1.5 7h0.5 0.5c0.277 0 0.5 0.223 0.5 0.5v0.5 0.5c0 0.277-0.223 0.5-0.5 0.5h-0.5-0.5c-0.277 0-0.5-0.223-0.5-0.5v-0.5-0.5c0-0.277 0.223-0.5 0.5-0.5z" fill="#dfdfdf"/>
 </g>
 <g id="phone">
  <rect width="32" height="32" opacity=".001"/>
  <rect x="6" y="2" width="20" height="30" rx="1.5" ry="1.5" opacity=".2"/>
  <path d="m7.5 1c-0.831 0-1.5 0.669-1.5 1.5v1.5h20v-1.5c0-0.831-0.669-1.5-1.5-1.5h-17zm-1.5 25v3.5c0 0.831 0.669 1.5 1.5 1.5h17c0.831 0 1.5-0.669 1.5-1.5v-3.5h-20z" fill="#595959"/>
  <rect x="6" y="4" width="20" height="22" fill="#333"/>
  <path d="m14.5 2c-0.277 0-0.5 0.21962-0.5 0.49219v0.015625c0 0.27257 0.223 0.49219 0.5 0.49219h3c0.277 0 0.5-0.21962 0.5-0.49219v-0.015625c0-0.27257-0.223-0.49219-0.5-0.49219h-3zm5 0a0.5 0.5 0 0 0-0.5 0.5 0.5 0.5 0 0 0 0.5 0.5 0.5 0.5 0 0 0 0.5-0.5 0.5 0.5 0 0 0-0.5-0.5zm-4.5 25c-0.554 0-1 0.446-1 1v1c0 0.554 0.446 1 1 1h2c0.554 0 1-0.446 1-1v-1c0-0.554-0.446-1-1-1h-2zm-5.5 1c-0.277 0-0.5 0.223-0.5 0.5s0.223 0.5 0.5 0.5h2c0.277 0 0.5-0.223 0.5-0.5s-0.223-0.5-0.5-0.5h-2zm11 0c-0.277 0-0.5 0.223-0.5 0.5s0.223 0.5 0.5 0.5h2c0.277 0 0.5-0.223 0.5-0.5s-0.223-0.5-0.5-0.5h-2z" fill="#333"/>
  <path d="m7.5 1c-0.831 0-1.5 0.669-1.5 1.5v1c0-0.831 0.669-1.5 1.5-1.5h17c0.831 0 1.5 0.669 1.5 1.5v-1c0-0.831-0.669-1.5-1.5-1.5h-17z" fill="#fff" opacity=".1"/>
 </g>
 <g id="phone-battery" transform="translate(0,-32)">
  <rect width="32" height="32" opacity=".001"/>
  <rect x="6" y="2" width="20" height="30" rx="1.5" ry="1.5" opacity=".2"/>
  <path d="m7.5 1c-0.831 0-1.5 0.669-1.5 1.5v1.5h20v-1.5c0-0.831-0.669-1.5-1.5-1.5h-17zm-1.5 25v3.5c0 0.831 0.669 1.5 1.5 1.5h17c0.831 0 1.5-0.669 1.5-1.5v-3.5h-20z" fill="#595959"/>
  <rect x="6" y="4" width="20" height="22" fill="#333"/>
  <path d="m14.5 2c-0.277 0-0.5 0.21962-0.5 0.49219v0.015625c0 0.27257 0.223 0.49219 0.5 0.49219h3c0.277 0 0.5-0.21962 0.5-0.49219v-0.015625c0-0.27257-0.223-0.49219-0.5-0.49219h-3zm5 0a0.5 0.5 0 0 0-0.5 0.5 0.5 0.5 0 0 0 0.5 0.5 0.5 0.5 0 0 0 0.5-0.5 0.5 0.5 0 0 0-0.5-0.5zm-4.5 25c-0.554 0-1 0.446-1 1v1c0 0.554 0.446 1 1 1h2c0.554 0 1-0.446 1-1v-1c0-0.554-0.446-1-1-1h-2zm-5.5 1c-0.277 0-0.5 0.223-0.5 0.5s0.223 0.5 0.5 0.5h2c0.277 0 0.5-0.223 0.5-0.5s-0.223-0.5-0.5-0.5h-2zm11 0c-0.277 0-0.5 0.223-0.5 0.5s0.223 0.5 0.5 0.5h2c0.277 0 0.5-0.223 0.5-0.5s-0.223-0.5-0.5-0.5h-2z" fill="#333"/>
  <path d="m7.5 1c-0.831 0-1.5 0.669-1.5 1.5v1c0-0.831 0.669-1.5 1.5-1.5h17c0.831 0 1.5 0.669 1.5 1.5v-1c0-0.831-0.669-1.5-1.5-1.5h-17z" fill="#fff" opacity=".1"/>
  <path d="m16 10v5h4l-4 7v-5h-4z" opacity=".2"/>
  <path d="m16 9v5h4l-4 7v-5h-4z" fill="#f45744"/>
 </g>
</svg>
