<?xml version="1.0" encoding="UTF-8"?>
<svg width="32" height="32" version="1.1" xmlns="http://www.w3.org/2000/svg">
 <g id="22-22-plasmavault" transform="translate(32,10)">
  <rect width="22" height="22" opacity=".001"/>
  <path d="m4.1426 3s-1.1426 0.04269-1.1426 1.1855v12.672s-2.79e-4 1.1426 1.1426 1.1426h13.715s1.1426 2.79e-4 1.1426-1.1426v-10.686c0-1.1429-1.1426-1.1719-1.1426-1.1719h-5.7148l-2.2852-2zm6.8574 3c1.6 0 3 0.99935 3 2.916v1.084h0.33398c0.32322 0 0.66602 0.366 0.66602 0.76172v4.5234c0 0.39571-0.29668 0.71484-0.66602 0.71484h-6.668c-0.36933 0-0.66602-0.31913-0.66602-0.71484v-4.5234c0-0.39571 0.29668-0.76172 0.66602-0.76172h0.33398v-1.084c0-1.9167 1.4-2.916 3-2.916zm0 1c-0.8 0-2 0.56334-2 1.916v1.084h4v-1.084c0-1.3662-1.2-1.916-2-1.916z" fill="#dfdfdf"/>
 </g>
 <g id="plasmavault">
  <rect width="32" height="32" opacity=".001"/>
  <rect x="2" y="11" width="28" height="18" rx="1.4" ry="1.4" opacity=".2"/>
  <path d="m2 22.6c0 0.776 0.6244 1.4 1.4 1.4h25.2c0.776 0 1.4-0.624 1.4-1.4v-15.2c0-0.7756-0.624-1.4-1.4-1.4h-12.6c-2.1 0-2.8-3-4.9-3h-7.7c-0.7756 0-1.4 0.6244-1.4 1.4" fill="#3f3f3f"/>
  <rect x="2" y="9" width="28" height="18" rx="1.4" ry="1.4" opacity=".2"/>
  <rect x="4" y="8" width="24" height="11" rx="1.4" ry="1.4" fill="#dcdcdc"/>
  <rect x="2" y="10" width="28" height="18" rx="1.4" ry="1.4" fill="#4f4f4f"/>
  <path d="m3.4004 3c-0.7756 0-1.4004 0.6248-1.4004 1.4004v1c0-0.7756 0.6248-1.4004 1.4004-1.4004h7.6996c2.1 0 2.8 3 4.9 3h12.6c0.775 0 1.4 0.6248 1.4 1.4004v-1c0-0.7756-0.625-1.4004-1.4-1.4004h-12.6c-2.1 0-2.8-3-4.9-3z" fill="#fff" opacity=".1"/>
  <path d="m16 14c-1.66 0-3 1.3-3 3v1h-0.5c-0.277 0-0.5 0.223-0.5 0.5v5c0 0.277 0.223 0.5 0.5 0.5h7c0.277 0 0.5-0.223 0.5-0.5v-5c0-0.277-0.223-0.5-0.5-0.5h-0.5v-1c0-1.7-1.34-3-3-3zm0 1c1.11 0 2 0.9 2 2v1h-4v-1c0-1.1 0.89-2 2-2z" fill="#c2c2c2"/>
 </g>
</svg>
