<?xml version="1.0" encoding="UTF-8"?>
<svg width="32" height="32" version="1.1" xmlns="http://www.w3.org/2000/svg">
 <g id="22-22-plasmavault_error" transform="translate(32,10)">
  <rect width="22" height="22" opacity=".001"/>
  <path d="m4.1426 3s-1.1426 0.04269-1.1426 1.1855v12.672s-2.789e-4 1.1426 1.1426 1.1426h13.715s1.1426 2.79e-4 1.1426-1.1426v-10.686c0-1.1429-1.1426-1.1719-1.1426-1.1719h-5.7148l-2.2852-2zm5.8574 3h2v7h-2zm1 8a1 1 0 0 1 1 1 1 1 0 0 1-1 1 1 1 0 0 1-1-1 1 1 0 0 1 1-1z" fill="#f44336"/>
 </g>
 <g id="plasmavault_error">
  <rect width="32" height="32" opacity=".001"/>
  <rect x="2" y="11" width="28" height="18" rx="1.4" ry="1.4" opacity=".2"/>
  <path d="m2 22.6c0 0.776 0.6244 1.4 1.4 1.4h25.2c0.776 0 1.4-0.624 1.4-1.4v-15.2c0-0.7756-0.624-1.4-1.4-1.4h-12.6c-2.1 0-2.8-3-4.9-3h-7.7c-0.7756 0-1.4 0.6244-1.4 1.4" fill="#bf4b4b"/>
  <rect x="2" y="9" width="28" height="18" rx="1.4" ry="1.4" opacity=".2"/>
  <rect x="4" y="8" width="24" height="11" rx="1.4" ry="1.4" fill="#e4e4e4"/>
  <rect x="2" y="10" width="28" height="18" rx="1.4" ry="1.4" fill="#e25252"/>
  <path d="m3.4004 3c-0.7756 0-1.4004 0.6248-1.4004 1.4004v1c0-0.7756 0.6248-1.4004 1.4004-1.4004h7.6996c2.1 0 2.8 3 4.9 3h12.6c0.775 0 1.4 0.6248 1.4 1.4004v-1c0-0.7756-0.625-1.4004-1.4-1.4004h-12.6c-2.1 0-2.8-3-4.9-3z" fill="#fff" opacity=".1"/>
  <path d="m15 14v7h2v-7zm1 8a1 1 0 0 0-1 1 1 1 0 0 0 1 1 1 1 0 0 0 1-1 1 1 0 0 0-1-1z" fill="#4f1d1d"/>
 </g>
</svg>
