<?xml version="1.0" encoding="UTF-8"?>
<svg width="32" height="32" version="1.1" xmlns="http://www.w3.org/2000/svg">
 <g id="22-22-preferences-desktop-notification" transform="translate(32,-8)">
  <rect y="40" width="22" height="22" opacity=".001"/>
  <path d="m11 43c-4.4183 0-8 3.5817-8 8s3.5817 8 8 8 8-3.5817 8-8-3.5817-8-8-8z" fill="#4285f4"/>
  <path d="m10 47v6h2v-6zm1 7c-0.45315 0-1 0.51843-1 0.98047 0 0.46204 0.54685 1.0195 1 1.0195s1-0.55749 1-1.0195c0-0.46204-0.54685-0.98047-1-0.98047z" fill="#dfdfdf"/>
 </g>
 <g id="22-22-preferences-desktop-display-randr" transform="translate(0,32)">
  <rect width="22" height="22" opacity=".001"/>
  <path d="m3.125 3c-1.125 0-1.125 1.1432-1.125 1.1432v11.731c0 1.1432 1.125 1.1432 1.125 1.1432h5.0375s-1.2001-0.29896-1.1625 0.8436v1.1387h8v-1.1387c0-1.1432-1.0504-0.8436-1.0504-0.8436h4.9254c1.125 0 1.125-1.1432 1.125-1.1432v-11.731s0-1.1432-1.125-1.1432zm0.875 2h14v9.9855l-14 0.02902z" fill="#dfdfdf"/>
 </g>
 <g id="preferences-desktop-display-randr">
  <rect width="32" height="32" opacity=".001"/>
  <g transform="translate(0,-1)">
   <rect x="8" y="8" width="16" height="21" rx="1.25" ry="1.25" opacity=".2"/>
   <rect x="8" y="7" width="16" height="21" rx="1.25" ry="1.25" fill="#8e8e8e"/>
   <rect x="3" y="6" width="26" height="20" rx="1.25" ry="1.25" opacity=".2"/>
   <path d="m3 22v1.75c0 0.6925 0.5575 1.25 1.25 1.25h23.5c0.6925 0 1.25-0.5575 1.25-1.25v-1.75z" fill="#595959"/>
   <path d="M 4.25,5 C 3.5575,5 3,5.5575 3,6.25 V 22 H 29 V 6.25 C 29,5.5575 28.4425,5 27.75,5 Z" fill="#333"/>
   <rect x="3" y="22" width="26" height="1" fill="#fff" opacity=".1"/>
   <path d="m4.25 5c-0.6925 0-1.25 0.5575-1.25 1.25v1c0-0.6925 0.5575-1.25 1.25-1.25h23.5c0.692 0 1.25 0.5575 1.25 1.25v-1c0-0.6925-0.558-1.25-1.25-1.25h-23.5z" fill="#fff" opacity=".1"/>
  </g>
 </g>
 <g id="preferences-desktop-notification" transform="translate(32)">
  <rect width="32" height="32" opacity=".001"/>
  <path d="m16 3c-7.732 0-14 6.268-14 14 0 7.732 6.268 14 14 14 7.732 0 14-6.268 14-14 0-7.732-6.268-14-14-14z" opacity=".2"/>
  <path d="m16 2c-7.732 0-14 6.268-14 14 0 7.732 6.268 14 14 14 7.732 0 14-6.268 14-14 0-7.732-6.268-14-14-14z" fill="#4285f4"/>
  <path d="m14 8v12h4v-12zm2 14c-0.9063 0-2 1.0369-2 1.9609 0 0.92409 1.0937 2.0391 2 2.0391s2-1.115 2-2.0391c0-0.92408-1.0937-1.9609-2-1.9609z" opacity=".2"/>
  <path d="m14 7v12h4v-12zm2 14c-0.9063 0-2 1.0369-2 1.9609 0 0.92409 1.0937 2.0391 2 2.0391s2-1.115 2-2.0391c0-0.92408-1.0937-1.9609-2-1.9609z" fill="#fff"/>
  <path d="m16 2c-7.732 0-14 6.268-14 14 0 0.16878 0.019467 0.33267 0.025391 0.5 0.26543-7.4985 6.4114-13.5 13.975-13.5 7.5632 0 13.709 6.0015 13.975 13.5 0.005924-0.16733 0.025391-0.33122 0.025391-0.5 0-7.732-6.268-14-14-14z" fill="#fff" opacity=".2"/>
 </g>
 <g id="preferences-system-bluetooth" transform="translate(64)">
  <rect width="32" height="32" opacity=".001"/>
  <rect transform="matrix(0,-1,-1,0,0,0)" x="-30" y="-26" width="28" height="20" rx="11" ry="10" fill="#324090"/>
  <path d="m16 2c-5.54 0-10 4.906-10 11v1c0-6.094 4.46-11 10-11s10 4.906 10 11v-1c0-6.094-4.46-11-10-11z" fill="#fff" opacity=".1"/>
  <path d="m11 11.5 9 9-4.5 4.25v-17.5l4.5 4.25-9 8" fill="none" stroke="#fff" stroke-linecap="square"/>
  <path d="m6 19v1c0 6.094 4.46 11 10 11s10-4.906 10-11v-1c0 6.094-4.46 11-10 11s-10-4.906-10-11z" opacity=".2"/>
 </g>
 <g id="22-22-preferences-system-windows" transform="translate(155,27)">
  <rect x="5" y="5" width="22" height="22" opacity=".001"/>
  <path d="m13.5 9c-0.5 0-0.5 0.5-0.5 0.5v8c0 0.5 0.5 0.5 0.5 0.5h10s0.5 0 0.5-0.5v-8c0-0.5-0.5-0.5-0.5-0.5zm1.5 3h7v4h-7zm-7.4805 2s-0.51953 0-0.51953 0.5v8c0 0.5 0.5 0.5 0.5 0.5h10s0.5-0.02 0.5-0.5v-3.5h-2v2h-7v-4h3v-3z" fill="#dfdfdf"/>
 </g>
 <g id="preferences-system-windows" transform="translate(160)">
  <rect width="32" height="32" opacity=".001"/>
  <g transform="translate(0,1)">
   <path d="M 9.5,1 C 9.3521,1 9.2129,1.0288 9.0781,1.0684 9.2147,1.0357 9.3499,1 9.5,1 Z M 8,4.9 V 18.5 C 8,19.331 8.669,20 9.5,20 h 19 C 29.331,20 30,19.331 30,18.5 V 4.9 Z" fill="#d3d3d3"/>
   <path d="m8 18.5v1c0 0.831 0.669 1.5 1.5 1.5h19c0.831 0 1.5-0.669 1.5-1.5v-1c0 0.831-0.669 1.5-1.5 1.5h-19c-0.831 0-1.5-0.669-1.5-1.5z" opacity=".2"/>
   <path d="m2 13.9v13.6c0 0.831 0.669 1.5 1.5 1.5h19c0.831 0 1.5-0.669 1.5-1.5v-13.6z" fill="#e4e4e4"/>
   <path d="m3.5 10c-0.831 0-1.5 0.669-1.5 1.5v2.5h22v-2.5c0-0.831-0.669-1.5-1.5-1.5z" fill="#636e73"/>
   <path d="m9.5 1c-0.831 0-1.5 0.5-1.5 1.5v2.5h22v-2.5c0-0.831-0.669-1.5-1.5-1.5z" fill="#5a6367"/>
   <path d="m9.5 1c-0.831 0-1.5 0.669-1.5 1.5v1c0-0.831 0.669-1.5 1.5-1.5h19c0.831 0 1.5 0.669 1.5 1.5v-1c0-0.831-0.669-1.5-1.5-1.5z" fill="#fff" opacity=".1"/>
   <path d="m2 27.5v1c0 0.831 0.669 1.5 1.5 1.5h19c0.831 0 1.5-0.669 1.5-1.5v-1c0 0.831-0.669 1.5-1.5 1.5h-19c-0.831 0-1.5-0.669-1.5-1.5z" opacity=".2"/>
  </g>
 </g>
 <g id="preferences-desktop-notification-bell" transform="translate(-22,32)">
  <rect width="22" height="22" opacity=".001"/>
  <path d="m11 3c0.55 0 1 0.45 1 1 0 0.03 0 0.07-0.01 0.1 2.29 0.46 4.01 2.47 4.01 4.9v4.5l2 2v0.5h-14v-0.5l2-2v-4.5c0-2.43 1.72-4.44 4.01-4.9-0.01-0.03-0.01-0.07-0.01-0.1 0-0.55 0.45-1 1-1zm1.73 14c-0.36 0.62-1.02 1-1.73 1s-1.37-0.38-1.73-1z" fill="#dfdfdf"/>
 </g>
 <g id="22-22-preferences-system-bluetooth" transform="translate(-128,54)">
  <rect x="192" y="-22" width="22" height="22" opacity=".001"/>
  <path d="m201.57-18.901a1.0001 1.0001 0 0 0-0.5664 0.90039v4.0664l-2.3867-1.8555a1 1 0 0 0-1.4024 0.17578 1 1 0 0 0 0.17579 1.4023l3.6133 2.8105v0.80078l-3.6133 2.8105a1 1 0 0 0-0.17579 1.4023 1 1 0 0 0 1.4024 0.17578l2.3867-1.8555v4.0664a1.0001 1.0001 0 0 0 1.625 0.78125l5-4a1.0001 1.0001 0 0 0-0.0117-1.5703l-2.8418-2.2109 2.8418-2.2109a1.0001 1.0001 0 0 0 0.0117-1.5703l-5-4a1.0001 1.0001 0 0 0-1.0586-0.11914zm1.4336 2.9824 2.3848 1.9082-2.2422 1.7441-0.14257-0.11133zm0.14257 6.1836 2.2422 1.7441-2.3848 1.9082v-3.541z" fill="#dfdfdf"/>
 </g>
 <g id="22-22-preferences-system-bluetooth-activated" transform="translate(-128,54)">
  <rect x="224" y="-22" width="22" height="22" opacity=".001"/>
  <path d="m233.93-18.998a1.0001 1.0001 0 0 0-0.35937 0.09766 1.0001 1.0001 0 0 0-0.56641 0.90039v4.0664l-2.3867-1.8555a1 1 0 0 0-1.4023 0.17578 1 1 0 0 0 0.17578 1.4023l3.6133 2.8105v0.80078l-3.6133 2.8105a1 1 0 0 0-0.17578 1.4023 1 1 0 0 0 1.4023 0.17578l2.3867-1.8555v4.0664a1.0001 1.0001 0 0 0 1.625 0.78125l5-4a1.0001 1.0001 0 0 0-0.0117-1.5703l-2.8418-2.2109 2.8418-2.2109a1.0001 1.0001 0 0 0 0.0117-1.5703l-5-4a1.0001 1.0001 0 0 0-0.69922-0.2168zm1.0742 3.0801 2.3848 1.9082-2.2422 1.7441-0.14258-0.11133zm-6 3.918a1 1 0 0 0-1 1 1 1 0 0 0 1 1 1 1 0 0 0 1-1 1 1 0 0 0-1-1zm12 0a1 1 0 0 0-1 1 1 1 0 0 0 1 1 1 1 0 0 0 1-1 1 1 0 0 0-1-1zm-5.8574 2.2656 2.2422 1.7441-2.3848 1.9082v-3.541z" fill="#dfdfdf"/>
 </g>
 <g id="22-22-preferences-system-bluetooth-inactive">
  <rect x="128" y="32" width="22" height="22" opacity=".001"/>
  <path d="m137.93 35.003c-0.12472 0.0092-0.24662 0.04052-0.35937 0.09461-0.346 0.16651-0.56611 0.51641-0.56641 0.90039v2.0293l2 1.5586v-1.5059l2.3848 1.9082-0.93555 0.72852 1.627 1.2676 1.5371-1.1973c0.51053-0.39662 0.51628-1.1661 0.0117-1.5703l-5-4c-0.19758-0.15734-0.44738-0.233-0.69922-0.21375zm-4.6934 2.118-1.2324 1.5762 5 3.9004v0.80078l-3.6133 2.8105c-0.43546 0.33889-0.51412 0.96646-0.17578 1.4023 0.33889 0.43546 0.96645 0.51412 1.4023 0.17578l2.3867-1.8555v4.0664c-3.5e-4 0.83887 0.97005 1.3054 1.625 0.78125l4.3809-3.5039 1.7617 1.373 1.2324-1.5762zm5.9102 7.1426 2.2402 1.7461-2.3828 1.9062v-3.541z" fill="#dfdfdf" opacity=".35"/>
 </g>
 <g id="preferences-system-bluetooth-activated">
  <rect x="96" width="32" height="32" opacity=".001"/>
  <rect transform="matrix(0,-1,-1,0,0,0)" x="-30" y="-122" width="28" height="20" rx="11" ry="10" fill="#324090"/>
  <path d="m112 2c-5.54 0-10 4.906-10 11v1c0-6.094 4.46-11 10-11s10 4.906 10 11v-1c0-6.094-4.46-11-10-11z" fill="#fff" opacity=".1"/>
  <path d="m107 11.5 9 9-4.5 4.25v-17.5l4.5 4.25-9 8" fill="none" stroke="#2fec5d" stroke-linecap="square"/>
  <path d="m102 19v1c0 6.094 4.46 11 10 11s10-4.906 10-11v-1c0 6.094-4.46 11-10 11s-10-4.906-10-11z" opacity=".2"/>
  <path d="m105.5 14a1.5 1.5 0 0 0-1.5 1.5 1.5 1.5 0 0 0 1.5 1.5 1.5 1.5 0 0 0 1.5-1.5 1.5 1.5 0 0 0-1.5-1.5zm13 0a1.5 1.5 0 0 0-1.5 1.5 1.5 1.5 0 0 0 1.5 1.5 1.5 1.5 0 0 0 1.5-1.5 1.5 1.5 0 0 0-1.5-1.5z" fill="#2fec5d"/>
 </g>
 <g id="preferences-system-bluetooth-inactive">
  <rect x="128" width="32" height="32" opacity=".001"/>
  <rect transform="matrix(0,-1,-1,0,0,0)" x="-30" y="-154" width="28" height="20" rx="11" ry="10" fill="#324090"/>
  <path d="m144 2c-5.54 0-10 4.906-10 11v1c0-6.094 4.46-11 10-11s10 4.906 10 11v-1c0-6.094-4.46-11-10-11z" fill="#fff" opacity=".1"/>
  <path d="m139 11.5 9 9-4.5 4.25v-17.5l4.5 4.25-9 8" fill="none" stroke="#fff" stroke-linecap="square"/>
  <path d="m134 19v1c0 6.094 4.46 11 10 11s10-4.906 10-11v-1c0 6.094-4.46 11-10 11s-10-4.906-10-11z" opacity=".2"/>
  <circle cx="152" cy="24" r="8" opacity=".2"/>
  <circle cx="152" cy="23" r="8" fill="#db3c30"/>
  <path d="m149.14 19-1.1429 1.1426 2.8571 2.8582-2.8571 2.8566 1.1429 1.1426 2.8572-2.8566 2.8571 2.8566 1.1429-1.1426-2.8572-2.8566 2.8572-2.8582-1.1429-1.1426-2.8571 2.8566z" fill="#fff"/>
 </g>
</svg>
