<?xml version="1.0" encoding="UTF-8"?>
<svg width="32" height="32" version="1.1" xmlns="http://www.w3.org/2000/svg">
 <g id="22-22-printer" transform="translate(-473,135.01)">
  <rect x="505" y="-125.01" width="22" height="22" opacity=".001"/>
  <path transform="translate(505 -125.01)" d="m6 3v3h10v-3zm-2.7148 4c-0.64285 0-1.2852 0.58268-1.2852 1.166v4.668c0 0.58334 0.64231 1.166 1.2852 1.166h1.7148v-2h12v2h1.7148c0.64285 0 1.2852-0.58268 1.2852-1.166v-4.668c0-0.58334-0.64231-1.166-1.2852-1.166zm2.7148 6v6h10v-6zm1 2h8v1h-8zm0 2h8v1h-8z" fill="#dfdfdf"/>
 </g>
 <g id="printer">
  <rect width="32" height="32" opacity=".001"/>
  <rect transform="matrix(0,-1,-1,0,0,0)" x="-23" y="-30" width="12" height="28" rx="1.412" ry="1.4" opacity=".2"/>
  <path d="m5 19v10.588c0 0.78212 0.61325 1.4118 1.375 1.4118h19.25c0.76175 0 1.375-0.62965 1.375-1.4118v-10.588z" opacity=".2"/>
  <path d="m6.375 2c-0.76175 0-1.375 0.63714-1.375 1.4286v8.5714h22v-8.5714c0-0.79143-0.61325-1.4286-1.375-1.4286z" fill="#e4e4e4"/>
  <rect transform="matrix(0,-1,-1,0,0,0)" x="-22" y="-30" width="12" height="28" rx="1.412" ry="1.4" fill="#4f4f4f"/>
  <rect x="4" y="17" width="24" height="2" opacity=".2"/>
  <rect x="4" y="13" width="3" height="3" rx="1.125" ry="1.125" opacity=".2"/>
  <rect x="4" y="12" width="3" height="3" rx="1.125" ry="1.125" fill="#76ff03"/>
  <path d="m5 18v10.588c0 0.78212 0.61325 1.4118 1.375 1.4118h19.25c0.76175 0 1.375-0.62965 1.375-1.4118v-10.588z" fill="#e4e4e4"/>
  <path d="m8 26h14v2h-14z" opacity=".5"/>
  <path d="m8 23h11v2h-11z" opacity=".5"/>
  <path d="m8 20h16v2h-16z" opacity=".5"/>
  <path d="m5.125 12c-0.62325 0-1.125 0.50175-1.125 1.125v0.75c0 0.04435 0.020447 0.08202 0.025391 0.125 0.064534-0.56106 0.52071-1 1.0996-1h0.75c0.5789 0 1.0351 0.43894 1.0996 1 0.0049432-0.042979 0.02539-0.080653 0.02539-0.125v-0.75c0-0.62325-0.50175-1.125-1.125-1.125z" fill="#fff" opacity=".2"/>
  <path d="m3.4004 10c-0.7756 0-1.4004 0.62999-1.4004 1.4121v1c0-0.78212 0.62479-1.4121 1.4004-1.4121h25.199c0.7756 0 1.4004 0.62999 1.4004 1.4121v-1c0-0.78212-0.62479-1.4121-1.4004-1.4121z" fill="#fff" opacity=".1"/>
  <path d="M 6.375,2 C 5.61325,2 5,2.6363059 5,3.4277344 v 1 C 5,3.6363059 5.61325,3 6.375,3 h 19.25 C 26.38675,3 27,3.6363059 27,4.4277344 v -1 C 27,2.6363059 26.38675,2 25.625,2 Z" fill="#fff" opacity=".2"/>
 </g>
</svg>
