<?xml version="1.0" encoding="UTF-8"?>
<svg width="32" height="32" version="1.1" xmlns="http://www.w3.org/2000/svg">
 <g id="22-22-qbittorrent-tray" transform="translate(32,10)">
  <path d="m0 0h22v22h-22z" opacity=".001"/>
  <path d="m13 3a1 1 0 0 0-1 1v11h2v-0.54102c0.60748 0.35321 1.2973 0.53917 2 0.54102 2.2091 0 4-1.7909 4-4 0-2.2091-1.7909-4-4-4-0.70252 0.00125-1.3923 0.18656-2 0.53906v-3.5391a1 1 0 0 0-1-1zm3 6c1.1046 0 2 0.89543 2 2 0 1.1046-0.89543 2-2 2s-2-0.89543-2-2c0-1.1046 0.89543-2 2-2z" fill="#dfdfdf"/>
  <path d="m6 7c-2.2091 0-4 1.7909-4 4 0 2.2091 1.7909 4 4 4 0.70252-0.0013 1.3923-0.1885 2-0.54102v3.541a1 1 0 0 0 1 1 1 1 0 0 0 1-1v-11h-2v0.54102c-0.60748-0.35321-1.2973-0.53916-2-0.54102zm0 2c1.1046 0 2 0.89543 2 2 0 1.1046-0.89543 2-2 2-1.1046 0-2-0.89543-2-2 0-1.1046 0.89543-2 2-2z" fill="#dfdfdf" opacity=".35"/>
 </g>
 <g id="qbittorrent-tray">
  <rect width="32" height="32" opacity=".001"/>
  <path d="m22.5 23a5.5 5.5 0 0 0 5.5-5.5 5.5 5.5 0 0 0-5.5-5.5 5.5 5.5 0 0 0-2.5 0.607v-5.607h-3v16h3v-0.60156a5.5 5.5 0 0 0 2.5 0.602zm0-3a2.5 2.5 0 0 1-2.5-2.5 2.5 2.5 0 0 1 2.5-2.5 2.5 2.5 0 0 1 2.5 2.5 2.5 2.5 0 0 1-2.5 2.5z" opacity=".2"/>
  <path d="m9.5 12a5.5 5.5 0 0 0-5.5 5.5 5.5 5.5 0 0 0 5.5 5.5 5.5 5.5 0 0 0 2.5-0.607v5.607h3v-16h-3v0.60156a5.5 5.5 0 0 0-2.5-0.602zm0 3a2.5 2.5 0 0 1 2.5 2.5 2.5 2.5 0 0 1-2.5 2.5 2.5 2.5 0 0 1-2.5-2.5 2.5 2.5 0 0 1 2.5-2.5z" opacity=".2"/>
  <circle cx="16" cy="17" r="14" opacity=".2"/>
  <circle cx="16" cy="16" r="14" fill="#2f67ba"/>
  <path d="m9.5 12c-3.0376 0-5.5 2.4624-5.5 5.5s2.4624 5.5 5.5 5.5c0.8696-0.0019 1.7264-0.2103 2.5-0.60742v4.1074a1.5 1.5 0 0 0 1.5 1.5 1.5 1.5 0 0 0 1.5-1.5v-14.5h-3v0.60156c-0.77406-0.39539-1.6308-0.60126-2.5-0.60156zm0 3c1.3807 0 2.5 1.1193 2.5 2.5s-1.1193 2.5-2.5 2.5c-1.3807 0-2.5-1.1193-2.5-2.5s1.1193-2.5 2.5-2.5z" opacity=".2"/>
  <path d="m9.5 11c-3.0376 0-5.5 2.4624-5.5 5.5s2.4624 5.5 5.5 5.5c0.8696-0.0019 1.7264-0.2103 2.5-0.60742v4.1074a1.5 1.5 0 0 0 1.5 1.5 1.5 1.5 0 0 0 1.5-1.5v-14.5h-3v0.60156c-0.77406-0.39539-1.6308-0.60126-2.5-0.60156zm0 3c1.3807 0 2.5 1.1193 2.5 2.5s-1.1193 2.5-2.5 2.5c-1.3807 0-2.5-1.1193-2.5-2.5s1.1193-2.5 2.5-2.5z" fill="#64d4f9"/>
  <path d="m18.5 7a1.5 1.5 0 0 0-1.5 1.5v14.5h3v-0.60156c0.77406 0.39539 1.6308 0.60126 2.5 0.60156 3.0376 0 5.5-2.4624 5.5-5.5s-2.4624-5.5-5.5-5.5c-0.8696 0.0019-1.7264 0.2103-2.5 0.60742v-4.1074a1.5 1.5 0 0 0-1.5-1.5zm4 8c1.3807 0 2.5 1.1193 2.5 2.5s-1.1193 2.5-2.5 2.5-2.5-1.1193-2.5-2.5 1.1193-2.5 2.5-2.5z" opacity=".2"/>
  <path d="m18.5 6a1.5 1.5 0 0 0-1.5 1.5v14.5h3v-0.60156c0.77406 0.39539 1.6308 0.60126 2.5 0.60156 3.0376 0 5.5-2.4624 5.5-5.5s-2.4624-5.5-5.5-5.5c-0.8696 0.0019-1.7264 0.2103-2.5 0.60742v-4.1074a1.5 1.5 0 0 0-1.5-1.5zm4 8c1.3807 0 2.5 1.1193 2.5 2.5s-1.1193 2.5-2.5 2.5-2.5-1.1193-2.5-2.5 1.1193-2.5 2.5-2.5z" fill="#fff"/>
  <path d="m16 2a14 14 0 0 0-14 14 14 14 0 0 0 0.0215 0.586 14 14 0 0 1 13.978-13.586 14 14 0 0 1 13.979 13.414 14 14 0 0 0 0.021-0.414 14 14 0 0 0-14-14z" fill="#fff" opacity=".1"/>
 </g>
</svg>
