<?xml version="1.0" encoding="UTF-8"?>
<svg width="32" height="32" version="1.1" xmlns="http://www.w3.org/2000/svg">
 <g id="quota">
  <rect width="32" height="32" opacity=".001"/>
  <rect transform="matrix(0,-1,-1,0,0,0)" x="-29" y="-26" width="28" height="22" rx="2" ry="2" fill="#8e8e8e"/>
  <path d="m15 5c-3.866 0-7 3.134-7 7v7h7c3.866 0 7-3.134 7-7s-3.134-7-7-7zm0 3a4 4 0 0 1 4 4 4 4 0 0 1-4 4 4 4 0 0 1-4-4 4 4 0 0 1 4-4z" opacity=".5"/>
  <path d="m6 1c-1.108 0-2 0.892-2 2v1c0-1.108 0.892-2 2-2h18c1.108 0 2 0.892 2 2v-1c0-1.108-0.892-2-2-2z" fill="#fff" opacity=".2"/>
  <path d="m4 27v1c0 1.108 0.892 2 2 2h18c1.108 0 2-0.892 2-2v-1c0 1.108-0.892 2-2 2h-18c-1.108 0-2-0.892-2-2z" opacity=".2"/>
  <circle cx="23" cy="22" r="8" fill="#47cd3b"/>
  <path d="M 30.979,22.424 A 8,8 0 0 1 23,30 8,8 0 0 1 15.021,22.576 8,8 0 0 0 15,23 a 8,8 0 0 0 8,8 8,8 0 0 0 8,-8 8,8 0 0 0 -0.02148,-0.57617 z" opacity=".2"/>
  <path d="m23 19a3 1 0 0 0-3 1v5a3 1 0 0 0 3 1 3 1 0 0 0 3-1v-5a3 1 0 0 0-3-1zm0 1a3 1 0 0 1 2 0.25781v0.48633a3 1 0 0 1-2 0.25586 3 1 0 0 1-2-0.25781v-0.48633a3 1 0 0 1 2-0.25586zm-2 1.7441a3 1 0 0 0 2 0.25586 3 1 0 0 0 2-0.25586v1a3 1 0 0 1-2 0.25586 3 1 0 0 1-2-0.25781zm0 2a3 1 0 0 0 2 0.25586 3 1 0 0 0 2-0.25586v1a3 1 0 0 1-2 0.25586 3 1 0 0 1-2-0.25781z" fill="#fff"/>
 </g>
 <g id="quota-low" transform="translate(32)">
  <rect width="32" height="32" opacity=".001"/>
  <rect transform="matrix(0,-1,-1,0,0,0)" x="-29" y="-26" width="28" height="22" rx="2" ry="2" fill="#8e8e8e"/>
  <path d="m15 5c-3.866 0-7 3.134-7 7v7h7c3.866 0 7-3.134 7-7s-3.134-7-7-7zm0 3a4 4 0 0 1 4 4 4 4 0 0 1-4 4 4 4 0 0 1-4-4 4 4 0 0 1 4-4z" opacity=".5"/>
  <path d="m6 1c-1.108 0-2 0.892-2 2v1c0-1.108 0.892-2 2-2h18c1.108 0 2 0.892 2 2v-1c0-1.108-0.892-2-2-2z" fill="#fff" opacity=".2"/>
  <path d="m4 27v1c0 1.108 0.892 2 2 2h18c1.108 0 2-0.892 2-2v-1c0 1.108-0.892 2-2 2h-18c-1.108 0-2-0.892-2-2z" opacity=".2"/>
  <circle cx="23" cy="22" r="8" fill="#b658e3"/>
  <path d="M 30.979,22.424 A 8,8 0 0 1 23,30 8,8 0 0 1 15.021,22.576 8,8 0 0 0 15,23 a 8,8 0 0 0 8,8 8,8 0 0 0 8,-8 8,8 0 0 0 -0.02148,-0.57617 z" opacity=".2"/>
  <path d="m23 19c-1.6569 0-3 0.44772-3 1v5c0 0.55228 1.3431 1 3 1s3-0.44772 3-1v-5c0-0.55228-1.3431-1-3-1zm0 1c0.73919 8.7e-4 1.4514 0.09268 2 0.25781v0.48633c-0.54948 0.16443-1.2616 0.25552-2 0.25586-0.73919-8.7e-4 -1.4514-0.092677-2-0.25781v-0.48633c0.54948-0.16443 1.2616-0.25552 2-0.25586zm-2 1.7441c0.54948 0.16443 1.2616 0.25552 2 0.25586 0.73841-3.34e-4 1.4505-0.09143 2-0.25586v1c-0.54948 0.16443-1.2616 0.25552-2 0.25586-0.73919-8.7e-4 -1.4514-0.09268-2-0.25781z" fill="#fff"/>
 </g>
 <g id="quota-high" transform="translate(64)">
  <rect width="32" height="32" opacity=".001"/>
  <rect transform="matrix(0,-1,-1,0,0,0)" x="-29" y="-26" width="28" height="22" rx="2" ry="2" fill="#8e8e8e"/>
  <path d="m15 5c-3.866 0-7 3.134-7 7v7h7c3.866 0 7-3.134 7-7s-3.134-7-7-7zm0 3a4 4 0 0 1 4 4 4 4 0 0 1-4 4 4 4 0 0 1-4-4 4 4 0 0 1 4-4z" opacity=".5"/>
  <path d="m6 1c-1.108 0-2 0.892-2 2v1c0-1.108 0.892-2 2-2h18c1.108 0 2 0.892 2 2v-1c0-1.108-0.892-2-2-2z" fill="#fff" opacity=".2"/>
  <path d="m4 27v1c0 1.108 0.892 2 2 2h18c1.108 0 2-0.892 2-2v-1c0 1.108-0.892 2-2 2h-18c-1.108 0-2-0.892-2-2z" opacity=".2"/>
  <circle cx="23" cy="22" r="8" fill="#ff711b"/>
  <path d="M 30.979,22.424 A 8,8 0 0 1 23,30 8,8 0 0 1 15.021,22.576 8,8 0 0 0 15,23 a 8,8 0 0 0 8,8 8,8 0 0 0 8,-8 8,8 0 0 0 -0.02148,-0.57617 z" opacity=".2"/>
  <path d="m23 19c-1.6569 0-3 0.44772-3 1v5c0 0.55228 1.3431 1 3 1s3-0.44772 3-1v-5c0-0.55228-1.3431-1-3-1zm0 1c0.73919 8.7e-4 1.4514 0.09268 2 0.25781v0.48633c-0.54948 0.16443-1.2616 0.25552-2 0.25586-0.73919-8.7e-4 -1.4514-0.092677-2-0.25781v-0.48633c0.54948-0.16443 1.2616-0.25552 2-0.25586z" fill="#fff"/>
 </g>
 <g id="quota-critical">
  <rect x="96" width="32" height="32" opacity=".001"/>
  <rect transform="matrix(0,-1,-1,0,0,0)" x="-29" y="-122" width="28" height="22" rx="2" ry="2" fill="#8e8e8e"/>
  <path d="m111 5c-3.866 0-7 3.134-7 7v7h7c3.866 0 7-3.134 7-7s-3.134-7-7-7zm0 3a4 4 0 0 1 4 4 4 4 0 0 1-4 4 4 4 0 0 1-4-4 4 4 0 0 1 4-4z" opacity=".5"/>
  <path d="m102 1c-1.108 0-2 0.892-2 2v1c0-1.108 0.892-2 2-2h18c1.108 0 2 0.892 2 2v-1c0-1.108-0.892-2-2-2z" fill="#fff" opacity=".2"/>
  <path d="m100 27v1c0 1.108 0.892 2 2 2h18c1.108 0 2-0.892 2-2v-1c0 1.108-0.892 2-2 2h-18c-1.108 0-2-0.892-2-2z" opacity=".2"/>
  <circle cx="119" cy="22" r="8" fill="#f14f4f"/>
  <path d="m126.98 22.424a8 8 0 0 1-7.979 7.576 8 8 0 0 1-7.979-7.424 8 8 0 0 0-0.021 0.424 8 8 0 0 0 8 8 8 8 0 0 0 8-8 8 8 0 0 0-0.0215-0.57617z" opacity=".2"/>
  <path d="m118 17v7h2v-7zm1 8a1 1 0 0 0-1 1 1 1 0 0 0 1 1 1 1 0 0 0 1-1 1 1 0 0 0-1-1z" fill="#fff"/>
 </g>
 <g id="quota-missing">
  <rect x="128" width="32" height="32" opacity=".001"/>
  <rect transform="matrix(0,-1,-1,0,0,0)" x="-29" y="-154" width="28" height="22" rx="2" ry="2" fill="#8e8e8e"/>
  <path d="m143 5c-3.866 0-7 3.134-7 7v7h7c3.866 0 7-3.134 7-7s-3.134-7-7-7zm0 3a4 4 0 0 1 4 4 4 4 0 0 1-4 4 4 4 0 0 1-4-4 4 4 0 0 1 4-4z" opacity=".5"/>
  <path d="m134 1c-1.108 0-2 0.892-2 2v1c0-1.108 0.892-2 2-2h18c1.108 0 2 0.892 2 2v-1c0-1.108-0.892-2-2-2z" fill="#fff" opacity=".2"/>
  <path d="m132 27v1c0 1.108 0.892 2 2 2h18c1.108 0 2-0.892 2-2v-1c0 1.108-0.892 2-2 2h-18c-1.108 0-2-0.892-2-2z" opacity=".2"/>
  <circle cx="151" cy="22" r="8" fill="#e4e4e4"/>
  <path d="m158.98 22.424a8 8 0 0 1-7.979 7.576 8 8 0 0 1-7.979-7.424 8 8 0 0 0-0.021 0.424 8 8 0 0 0 8 8 8 8 0 0 0 8-8 8 8 0 0 0-0.0215-0.57617z" opacity=".2"/>
  <path d="m151 16c-2.21 0-4 1.79-4 4h2c0-1.1 0.9-2 2-2s2 0.9 2 2c0 0.55-0.21984 1.0502-0.58984 1.4102l-1.2402 1.2598c-0.72 0.73-1.1699 0.73008-1.1699 1.8301v0.5h2c0-1 0.44982-1.1001 1.1699-1.8301l0.90039-0.91992c0.57-0.57 0.92969-1.37 0.92969-2.25 0-2.21-1.79-4-4-4zm0 10a1 1 0 0 0-1 1 1 1 0 0 0 1 1 1 1 0 0 0 1-1 1 1 0 0 0-1-1z" fill="#3f3f3f"/>
 </g>
 <g id="22-22-quota" transform="translate(-5,-27)">
  <rect x="5" y="5" width="22" height="22" opacity=".001"/>
  <g transform="translate(8,8.0002)">
   <path transform="translate(-8,-8.0002)" d="m11 8c-1 0-1 1.1426-1 1.1426v13.715s0 1.1426 1 1.1426h7v-5c0-0.24863 0.07186-0.46416 0.17383-0.65039-0.62663 0.40747-1.3707 0.65039-2.1738 0.65039h-4v-4c0-2.2091 1.7909-4 4-4 2.209 0 4 1.7909 4 4 0 0.97422-0.36252 1.855-0.94141 2.5488 0.16076-0.08044 0.32747-0.14627 0.50391-0.20508 0.68766-0.22922 1.519-0.34375 2.4375-0.34375v-7.8574c0-1e-4 0-1.1426-1-1.1426zm5 5c-1.1046 0-2 0.8954-2 2s0.8954 2 2 2 2-0.8954 2-2-0.8954-2-2-2z" fill="#dfdfdf"/>
  </g>
  <path d="m22 18a3 1 0 0 0-3 1v5a3 1 0 0 0 3 1 3 1 0 0 0 3-1v-5a3 1 0 0 0-3-1zm0 1a3 1 0 0 1 2 0.25781v0.48633a3 1 0 0 1-2 0.25586 3 1 0 0 1-2-0.25781v-0.48633a3 1 0 0 1 2-0.25586zm-2 1.7441a3 1 0 0 0 2 0.25586 3 1 0 0 0 2-0.25586v1a3 1 0 0 1-2 0.25586 3 1 0 0 1-2-0.25781zm0 2a3 1 0 0 0 2 0.25586 3 1 0 0 0 2-0.25586v1a3 1 0 0 1-2 0.25586 3 1 0 0 1-2-0.25781z" fill="#dfdfdf"/>
 </g>
 <g id="22-22-quota-low" transform="translate(27,-27)">
  <rect x="5" y="5" width="22" height="22" opacity=".001"/>
  <g transform="translate(8,8.0002)">
   <path transform="translate(-8,-8.0002)" d="m11 8c-1 0-1 1.1426-1 1.1426v13.715s0 1.1426 1 1.1426h7v-5c0-0.24863 0.07186-0.46416 0.17383-0.65039-0.62663 0.40747-1.3707 0.65039-2.1738 0.65039h-4v-4c0-2.2091 1.7909-4 4-4 2.209 0 4 1.7909 4 4 0 0.97422-0.36252 1.855-0.94141 2.5488 0.16076-0.08044 0.32747-0.14627 0.50391-0.20508 0.68766-0.22922 1.519-0.34375 2.4375-0.34375v-7.8574c0-1e-4 0-1.1426-1-1.1426zm5 5c-1.1046 0-2 0.8954-2 2s0.8954 2 2 2 2-0.8954 2-2-0.8954-2-2-2z" fill="#dfdfdf"/>
  </g>
  <path d="m22 18c-1.6569 0-3 0.44772-3 1v5c0 0.55228 1.3431 1 3 1s3-0.44772 3-1v-5c0-0.55228-1.3431-1-3-1zm0 1c0.73919 8.7e-4 1.4514 0.09268 2 0.25781v0.48633c-0.54948 0.16443-1.2616 0.25552-2 0.25586-0.73919-8.7e-4 -1.4514-0.092677-2-0.25781v-0.48633c0.54948-0.16443 1.2616-0.25552 2-0.25586zm-2 1.7441c0.54948 0.16443 1.2616 0.25552 2 0.25586 0.73841-3.34e-4 1.4505-0.09143 2-0.25586v1c-0.54948 0.16443-1.2616 0.25552-2 0.25586-0.73919-8.7e-4 -1.4514-0.09268-2-0.25781z" fill="#dfdfdf"/>
 </g>
 <g id="22-22-quota-high" transform="translate(59,-27)">
  <rect x="5" y="5" width="22" height="22" opacity=".001"/>
  <g transform="translate(8,8.0002)">
   <path transform="translate(-8,-8.0002)" d="m11 8c-1 0-1 1.1426-1 1.1426v13.715s0 1.1426 1 1.1426h7v-5c0-0.24863 0.07186-0.46416 0.17383-0.65039-0.62663 0.40747-1.3707 0.65039-2.1738 0.65039h-4v-4c0-2.2091 1.7909-4 4-4 2.209 0 4 1.7909 4 4 0 0.97422-0.36252 1.855-0.94141 2.5488 0.16076-0.08044 0.32747-0.14627 0.50391-0.20508 0.68766-0.22922 1.519-0.34375 2.4375-0.34375v-7.8574c0-1e-4 0-1.1426-1-1.1426zm5 5c-1.1046 0-2 0.8954-2 2s0.8954 2 2 2 2-0.8954 2-2-0.8954-2-2-2z" fill="#dfdfdf"/>
  </g>
  <path d="m22 18c-1.6569 0-3 0.44772-3 1v5c0 0.55228 1.3431 1 3 1s3-0.44772 3-1v-5c0-0.55228-1.3431-1-3-1zm0 1c0.73919 8.7e-4 1.4514 0.09268 2 0.25781v0.48633c-0.54948 0.16443-1.2616 0.25552-2 0.25586-0.73919-8.7e-4 -1.4514-0.092677-2-0.25781v-0.48633c0.54948-0.16443 1.2616-0.25552 2-0.25586z" fill="#ff9800"/>
 </g>
 <g id="22-22-quota-critical" transform="translate(91,-27)">
  <rect x="5" y="5" width="22" height="22" opacity=".001"/>
  <g transform="translate(8,8.0002)">
   <path transform="translate(-8,-8.0002)" d="m11 8c-1 0-1 1.1426-1 1.1426v13.715s0 1.1426 1 1.1426h7v-5c0-0.24863 0.07186-0.46416 0.17383-0.65039-0.62663 0.40747-1.3707 0.65039-2.1738 0.65039h-4v-4c0-2.2091 1.7909-4 4-4 2.209 0 4 1.7909 4 4 0 0.97422-0.36252 1.855-0.94141 2.5488 0.16076-0.08044 0.32747-0.14627 0.50391-0.20508 0.68766-0.22922 1.519-0.34375 2.4375-0.34375v-7.8574c0-1e-4 0-1.1426-1-1.1426zm5 5c-1.1046 0-2 0.8954-2 2s0.8954 2 2 2 2-0.8954 2-2-0.8954-2-2-2z" fill="#f44336"/>
  </g>
  <path d="m22 18c-1.6569 0-3 0.44772-3 1v5c0 0.55228 1.3431 1 3 1s3-0.44772 3-1v-5c0-0.55228-1.3431-1-3-1zm0 1c0.73919 8.7e-4 1.4514 0.09268 2 0.25781v0.48633c-0.54948 0.16443-1.2616 0.25552-2 0.25586-0.73919-8.7e-4 -1.4514-0.092677-2-0.25781v-0.48633c0.54948-0.16443 1.2616-0.25552 2-0.25586z" fill="#f44336"/>
 </g>
 <g id="22-22-quota-missing" transform="translate(123,-27)">
  <rect x="5" y="5" width="22" height="22" opacity=".001"/>
  <g transform="translate(8,8.0002)">
   <path transform="translate(-8,-8.0002)" d="m11 8c-1 0-1 1.1426-1 1.1426v13.715s0 1.1426 1 1.1426h7v-5c0-0.24863 0.07186-0.46416 0.17383-0.65039-0.62663 0.40747-1.3707 0.65039-2.1738 0.65039h-4v-4c0-2.2091 1.7909-4 4-4 2.209 0 4 1.7909 4 4 0 0.97422-0.36252 1.855-0.94141 2.5488 0.16076-0.08044 0.32747-0.14627 0.50391-0.20508 0.68766-0.22922 1.519-0.34375 2.4375-0.34375v-7.8574c0-1e-4 0-1.1426-1-1.1426zm5 5c-1.1046 0-2 0.8954-2 2s0.8954 2 2 2 2-0.8954 2-2-0.8954-2-2-2z" fill="#dfdfdf" opacity=".35"/>
  </g>
  <path d="m22 18a3 1 0 0 0-3 1v5a3 1 0 0 0 3 1 3 1 0 0 0 3-1v-5a3 1 0 0 0-3-1zm0 1a3 1 0 0 1 2 0.25781v0.48633a3 1 0 0 1-2 0.25586 3 1 0 0 1-2-0.25781v-0.48633a3 1 0 0 1 2-0.25586zm-2 1.7441a3 1 0 0 0 2 0.25586 3 1 0 0 0 2-0.25586v1a3 1 0 0 1-2 0.25586 3 1 0 0 1-2-0.25781zm0 2a3 1 0 0 0 2 0.25586 3 1 0 0 0 2-0.25586v1a3 1 0 0 1-2 0.25586 3 1 0 0 1-2-0.25781z" fill="#dfdfdf" opacity=".35"/>
 </g>
</svg>
