<?xml version="1.0" encoding="UTF-8"?>
<svg width="32" height="32" version="1.1" xmlns="http://www.w3.org/2000/svg">
 <g id="22-22-slc-like" transform="translate(31,-23)">
  <rect x="1" y="1" width="22" height="22" opacity=".001"/>
  <path d="m8 4c-2.7614 0-5 2.2386-5 5 0 5 7 9 9 11 2-2 9-6 9-11 0-2.7614-2.2386-5-5-5-1.6396 0-3.0882 0.78077-4 2-0.91181-1.2192-2.3604-2-4-2z" fill="#dfdfdf"/>
 </g>
 <g id="22-22-slc-share" transform="translate(31,9)">
  <rect x="1" y="1" width="22" height="22" opacity=".001"/>
  <path d="m18 4c-1.6569 0-3 1.3431-3 3 0 0.087382 0.02393 0.16451 0.03125 0.25l-6.75 2.8125c-0.55028-0.64728-1.3651-1.0625-2.2812-1.0625-1.6569 0-3 1.3431-3 3s1.3431 3 3 3c0.91614 0 1.731-0.41522 2.2812-1.0625l6.75 2.8125c-0.007321 0.085486-0.03125 0.16262-0.03125 0.25 0 1.6569 1.3431 3 3 3s3-1.3431 3-3-1.3431-3-3-3c-0.91614 0-1.731 0.41522-2.2812 1.0625l-6.75-2.8125c0.0073208-0.085486 0.03125-0.16262 0.03125-0.25s-0.023929-0.16451-0.03125-0.25l6.75-2.8125c0.55028 0.64728 1.3651 1.0625 2.2812 1.0625 1.6569 0 3-1.3431 3-3s-1.3431-3-3-3zm0 2c0.55228 0 1 0.44772 1 1s-0.44772 1-1 1-1-0.44772-1-1 0.44772-1 1-1zm-12 5c0.55228 0 1 0.44772 1 1s-0.44772 1-1 1-1-0.44772-1-1 0.44772-1 1-1zm12 5c0.55228 0 1 0.44772 1 1s-0.44772 1-1 1-1-0.44772-1-1 0.44772-1 1-1z" fill="#dfdfdf"/>
 </g>
 <g id="22-22-slc-connect" transform="translate(31,-55)">
  <rect x="1" y="1" width="22" height="22" opacity=".001"/>
  <path d="m14 4c-0.7785 0.7785-0.93671 2.1687-0.03125 3.6875l-4.25 2.8438c-0.52841-0.21321-1.0956-0.37218-1.6562-0.375-0.72876-0.0037-1.4375 0.21875-2.0625 0.84375l3 3-4 4-1 2 2-1 4-4 3 3c1.107-1.107 0.96475-2.5078 0.46875-3.7188l2.8438-4.25c1.5188 0.90546 2.909 0.74725 3.6875-0.03125z" fill="#dfdfdf"/>
 </g>
 <g id="slc-like" transform="translate(0,-32)">
  <rect width="32" height="32" opacity=".001"/>
  <path d="m9.957 3c-4.3941 0-7.957 4.1163-7.957 9.1934 0 1.3641 0.20893 2.6761 0.57422 3.9297 0 0 0.33157 1.1313 0.625 1.7539 3.3537 7.961 12.801 13.123 12.801 13.123s9.4471-5.1621 12.801-13.123c0.29343-0.62264 0.625-1.7539 0.625-1.7539 0.36529-1.2536 0.57422-2.5656 0.57422-3.9297 0-5.0771-3.5629-9.1934-7.957-9.1934-2.3045 0-4.5896 1.191-6.043 3-1.4534-1.809-3.7385-3-6.043-3z" opacity=".2"/>
  <path d="m9.957 2c-4.3941 0-7.957 4.1163-7.957 9.1934 0 1.3641 0.20893 2.6761 0.57422 3.9297 0 0 0.33157 1.1313 0.625 1.7539 3.3537 7.961 12.801 13.123 12.801 13.123s9.4471-5.1621 12.801-13.123c0.29343-0.62264 0.625-1.7539 0.625-1.7539 0.36529-1.2536 0.57422-2.5656 0.57422-3.9297 0-5.0771-3.5629-9.1934-7.957-9.1934-2.3045 0-4.5896 1.191-6.043 3-1.4534-1.809-3.7385-3-6.043-3z" fill="#c2352a"/>
  <path d="m9.957 2c-4.3941 0-7.957 4.1163-7.957 9.1934 0 0.17872 0.012477 0.35434 0.019531 0.53125 0.2127-4.8577 3.6804-8.7246 7.9375-8.7246 2.3045 0 4.5896 1.191 6.043 3 1.4534-1.809 3.7385-3 6.043-3 4.2571 0 7.7248 3.8669 7.9375 8.7246 0.007054-0.17691 0.019531-0.35253 0.019531-0.53125 0-5.0771-3.5629-9.1934-7.957-9.1934-2.3045 0-4.5896 1.191-6.043 3-1.4534-1.809-3.7385-3-6.043-3z" fill="#fff" opacity=".2"/>
 </g>
 <g id="slc-share">
  <rect width="32" height="32" opacity=".001"/>
  <circle cx="16" cy="17" r="14" opacity=".2"/>
  <circle cx="16" cy="16" r="14" fill="#3aa3ec"/>
  <path d="m22 9c-1.6569 0-3 1.3431-3 3 0 0.08738 0.02393 0.16451 0.03125 0.25l-6.75 2.8125c-0.55028-0.64728-1.3651-1.0625-2.2812-1.0625-1.6569 0-3 1.3431-3 3s1.3431 3 3 3c0.91614 0 1.731-0.41522 2.2812-1.0625l6.75 2.8125c-0.0073 0.08549-0.03125 0.16262-0.03125 0.25 0 1.6569 1.3431 3 3 3s3-1.3431 3-3-1.3431-3-3-3c-0.91614 0-1.731 0.41522-2.2812 1.0625l-6.75-2.8125c0.0073-0.08549 0.03125-0.16262 0.03125-0.25 0-0.08738-0.02393-0.16451-0.03125-0.25l6.75-2.8125c0.55028 0.64728 1.3651 1.0625 2.2812 1.0625 1.6569 0 3-1.3431 3-3s-1.3431-3-3-3zm0 2c0.55228 0 1 0.44772 1 1s-0.44772 1-1 1-1-0.44772-1-1 0.44772-1 1-1zm-12 5c0.55228 0 1 0.44772 1 1s-0.44772 1-1 1-1-0.44772-1-1 0.44772-1 1-1zm12 5c0.55228 0 1 0.44772 1 1s-0.44772 1-1 1-1-0.44772-1-1 0.44772-1 1-1z" opacity=".2"/>
  <path d="m22 8c-1.6569 0-3 1.3431-3 3 0 0.08738 0.02393 0.16451 0.03125 0.25l-6.75 2.8125c-0.55028-0.64728-1.3651-1.0625-2.2812-1.0625-1.6569 0-3 1.3431-3 3s1.3431 3 3 3c0.91614 0 1.731-0.41522 2.2812-1.0625l6.75 2.8125c-0.0073 0.08549-0.03125 0.16262-0.03125 0.25 0 1.6569 1.3431 3 3 3s3-1.3431 3-3-1.3431-3-3-3c-0.91614 0-1.731 0.41522-2.2812 1.0625l-6.75-2.8125c0.0073-0.08549 0.03125-0.16262 0.03125-0.25 0-0.08738-0.02393-0.16451-0.03125-0.25l6.75-2.8125c0.55028 0.64728 1.3651 1.0625 2.2812 1.0625 1.6569 0 3-1.3431 3-3s-1.3431-3-3-3zm0 2c0.55228 0 1 0.44772 1 1s-0.44772 1-1 1-1-0.44772-1-1 0.44772-1 1-1zm-12 5c0.55228 0 1 0.44772 1 1s-0.44772 1-1 1-1-0.44772-1-1 0.44772-1 1-1zm12 5c0.55228 0 1 0.44772 1 1s-0.44772 1-1 1-1-0.44772-1-1 0.44772-1 1-1z" fill="#fff"/>
  <path d="M 16,2 A 14,14 0 0 0 2,16 14,14 0 0 0 2.0214844,16.585938 14,14 0 0 1 16,3 14,14 0 0 1 29.978516,16.414062 14,14 0 0 0 30,16 14,14 0 0 0 16,2 Z" fill="#fff" opacity=".2"/>
 </g>
 <g id="slc-connect" transform="translate(0,-64)">
  <rect width="32" height="32" opacity=".001"/>
  <rect transform="matrix(0,-1,-1,0,0,0)" x="-31" y="-30" width="28" height="28" rx="2.1" ry="2.1" opacity=".2"/>
  <rect transform="matrix(0,-1,-1,0,0,0)" x="-30" y="-30" width="28" height="28" rx="2.1" ry="2.1" fill="#70c74d"/>
  <path d="m4.0996 2c-1.1634 0-2.0996 0.93619-2.0996 2.0996v1c0-1.1634 0.93619-2.0996 2.0996-2.0996h23.801c1.1634 0 2.0996 0.93619 2.0996 2.0996v-1c0-1.1634-0.93619-2.0996-2.0996-2.0996z" fill="#fff" opacity=".2"/>
  <path d="m18 9c-0.7785 0.7785-0.93671 2.1687-0.03125 3.6875l-4.25 2.8438c-0.52841-0.21321-1.0956-0.37218-1.6562-0.375-0.72876-0.0037-1.4375 0.21875-2.0625 0.84375l3 3-4 4-1 2 2-1 4-4 3 3c1.107-1.107 0.96475-2.5078 0.46875-3.7188l2.8438-4.25c1.5188 0.90546 2.909 0.74725 3.6875-0.03125z" opacity=".2"/>
  <path d="m18 8c-0.7785 0.7785-0.93671 2.1687-0.03125 3.6875l-4.25 2.8438c-0.52841-0.21321-1.0956-0.37218-1.6562-0.375-0.72876-0.0037-1.4375 0.21875-2.0625 0.84375l3 3-4 4-1 2 2-1 4-4 3 3c1.107-1.107 0.96475-2.5078 0.46875-3.7188l2.8438-4.25c1.5188 0.90546 2.909 0.74725 3.6875-0.03125z" fill="#fff"/>
 </g>
</svg>
