<?xml version="1.0" encoding="UTF-8"?>
<svg width="32" height="32" version="1" xmlns="http://www.w3.org/2000/svg">
 <circle cx="16" cy="17" r="14" opacity=".2"/>
 <path d="m16 2c-7.756 0-14 6.244-14 14 0 2.572 0.68663 4.9777 1.8873 7.0446 14.455 0.50169 21.913-15.445 22.4-16.559-2.554-2.7617-6.2121-4.4859-10.288-4.4859z" fill="#1ab5bc"/>
 <path d="m29.096 11.071-19.12 7.2447 13.141 9.7371c4.121-2.4313 6.8824-6.9029 6.8824-12.053 0-1.7392-0.32913-3.3949-0.90371-4.9287z" fill="#df5b6f"/>
 <path d="m9.9994 18.254-6.2098 4.602c2.3932 4.2673 6.9506 7.1436 12.21 7.1436 2.6386 0 5.0932-0.73573 7.1955-1.9947z" fill="#445c5c"/>
 <path d="m26.138 6.3436-16.16 11.974 19.119-7.2461c-0.66593-1.7776-1.6756-3.3807-2.9586-4.7277z" fill="#9f327b"/>
 <path d="m11.5 7c-0.831 0-1.5 0.669-1.5 1.5s0.669 1.5 1.5 1.5 1.5-0.669 1.5-1.5-0.669-1.5-1.5-1.5zm7.3574 0-2.8574 2.8008 4.2852 4.1992-4.2852 4.1992 2.8574 2.8008 4.2852-4.1992 2.8574-2.8008-2.8574-2.8008zm-10.857 7c-1.108 0-2 0.89199-2 2 0 1.108 0.89201 2 2 2 1.108 0 2-0.89201 2-2 0-1.108-0.89199-2-2-2zm5.5 8c-1.385 0-2.5 1.115-2.5 2.5s1.115 2.5 2.5 2.5 2.5-1.115 2.5-2.5-1.115-2.5-2.5-2.5z" opacity=".2"/>
 <path d="m11.5 6c-0.831 0-1.5 0.669-1.5 1.5s0.669 1.5 1.5 1.5 1.5-0.669 1.5-1.5-0.669-1.5-1.5-1.5zm7.3574 0-2.8574 2.8008 4.2852 4.1992-4.2852 4.1992 2.8574 2.8008 4.2852-4.1992 2.8574-2.8008-2.8574-2.8008-4.2852-4.1992zm-10.857 7c-1.108 0-2 0.89199-2 2 0 1.108 0.89201 2 2 2 1.108 0 2-0.89201 2-2 0-1.108-0.89199-2-2-2zm5.5 8c-1.385 0-2.5 1.115-2.5 2.5s1.115 2.5 2.5 2.5 2.5-1.115 2.5-2.5-1.115-2.5-2.5-2.5z" fill="#fff"/>
 <path d="m16 2a14 14 0 0 0-14 14 14 14 0 0 0 0.021484 0.58594 14 14 0 0 1 13.979-13.586 14 14 0 0 1 13.979 13.414 14 14 0 0 0 0.021484-0.41406 14 14 0 0 0-14-14z" fill="#fff" opacity=".2"/>
</svg>
