<?xml version="1.0" encoding="UTF-8"?>
<svg width="32" height="32" version="1" xmlns="http://www.w3.org/2000/svg">
 <g id="22-22-strawberry" transform="translate(27,5)">
  <rect x="5" y="5" width="22" height="22" opacity=".001"/>
  <path d="m17.087 8c-0.08879 0-0.11528 0.18102-0.06055 0.41992 0 0 0.15734 0.76195 1.2129 1.3203 0.73416 0.36295 0.73373 0.57337-0.0039 0.79102-0.32147 0.09485-0.71323 0.27353-0.86914 0.39844-0.25713 0.20601-0.16319 0.29093 1.0098 0.91602 0.71119 0.37901 1.425 0.80028 1.5859 0.93555 0.27933 0.23484 0.26763 0.2672-0.27734 0.72266-0.6084 0.50845-1.3281 1.6972-1.3281 2.1934 0 0.26826 0.11907 0.29164 1.1211 0.20703 0.61643-0.05205 1.2933-0.11848 1.5059-0.14648l0.38672-0.05078-0.05469 1.3496c-0.03035 0.74213-0.11895 1.5341-0.19726 1.7598-0.07831 0.22569-0.11075 0.44416-0.07227 0.48633 0.16202 0.17752 0.82204-0.21355 1.2754-0.75586 0.46348-0.55442 0.49325-0.56677 0.5918-0.22656 0.33187 0.60988 0.47919 1.1452 0.99414 1.6797 0.11499 0.01131 0.20161-0.13626 0.27539-0.43945 0.22714-0.93341 0.10531-1.8364-0.37305-2.7695-0.25777-0.50281-0.5095-1.2959-0.56054-1.7617s-0.13406-1.0066-0.18555-1.2031c-0.07824-0.29868 0.07175-0.47421 0.92188-1.0625 0.96799-0.66984 1.2196-1.0509 0.85352-1.2988-0.09096-0.06159-0.57154 0.12506-1.0664 0.41406-0.49486 0.289-0.99635 0.52539-1.1152 0.52539-0.11889 0-0.49128-0.36257-0.82812-0.80469-0.58542-0.76837-0.61328-0.85618-0.61328-1.9902 0-1.0776-0.03025-1.19-0.32617-1.2363-0.23918-0.037414-0.37807 0.085476-0.52148 0.46484-0.10745 0.28422-0.24821 0.51758-0.31445 0.51758-0.06624 0-0.72716-0.30509-1.4668-0.67773-0.73966-0.37264-1.4142-0.67773-1.5-0.67773zm-0.87305 1.041c-0.06635 0.00626-0.09727 0.00375-0.17188 0.011719-2.4427 0.26091-4.4796 1.7741-6.8105 5.0547-0.70383 0.99055-1.608 2.2617-2.0098 2.8262-1.6924 2.3781-1.6203 4.8194 0.17383 5.8457 1.1595 0.66328 2.2791 0.92538 4.0527 0.95117 0.89152 0.01295 2.1985 0.07777 2.9023 0.14258 1.9637 0.18084 2.2096 0.17624 3.5918-0.06445 1.547-0.2694 2.7389-0.83045 3.6973-1.7383 0.38599-0.36563 0.85247-1.0626 1.2422-1.7715-0.13591-0.21961-0.21651-0.4261-0.32812-0.64844-0.1576 0.13251-0.29984 0.30416-0.46875 0.4043-0.181 0.1073-0.361 0.2009-0.61914 0.25781s-0.76602 0.09377-1.1582-0.33594c-0.34777-0.38103-0.27254-0.5705-0.27734-0.69726-0.0048-0.12677 0.0069-0.21382 0.01953-0.29883 0.02531-0.17002 0.06514-0.3253 0.12305-0.49219-0.04121 0.11877 0.03562-0.17892 0.06836-0.4707s0.06203-0.65616 0.07617-1.002l0.0078-0.18945c-0.27147 0.02598-0.45615 0.04825-0.76367 0.07422-0.51148 0.04319-0.77161 0.09436-1.2012 0.01563-0.21478-0.03938-0.57352-0.17616-0.79102-0.48828-0.21749-0.31212-0.21289-0.58962-0.21289-0.73047 0-0.73165 0.27918-1.1125 0.58008-1.6094 0.20503-0.33855 0.48564-0.62531 0.75392-0.91993-0.24226-0.13988-0.50395-0.29063-0.7832-0.43945-0.5933-0.31618-0.88868-0.43519-1.2422-0.75586-0.08838-0.08017-0.19239-0.18347-0.28711-0.36524-0.09471-0.18176-0.15616-0.47262-0.10742-0.72461 0.09749-0.50397 0.35904-0.64139 0.47266-0.73242 0.11232-0.08999 0.21421-0.09022 0.31836-0.15234-0.21321-0.19981-0.53536-0.39137-0.6582-0.57812-0.089451-0.13599-0.1367-0.25804-0.18945-0.37891zm-1.0234 2.9688c0.10706-0.01419 0.21215-0.01409 0.30859 2e-3 0.12859 0.02139 0.24353 0.07166 0.33008 0.1582 0.34618 0.34618 0.11902 1.1349-0.26562 1.5195-0.38465 0.38466-0.97804 0.4165-1.3242 0.07032-0.34618-0.34618-0.31434-0.93957 0.07031-1.3242 0.21637-0.21637 0.55969-0.38322 0.88086-0.42578zm-4 2c0.10706-0.01419 0.21215-0.01409 0.30859 2e-3 0.12859 0.02139 0.24353 0.07166 0.33008 0.1582 0.34618 0.34619 0.11902 1.1349-0.26562 1.5195s-0.97803 0.4165-1.3242 0.07031c-0.34618-0.34618-0.31434-0.93957 0.07031-1.3242 0.21636-0.21636 0.55969-0.38322 0.88086-0.42578zm3 2c0.10706-0.01419 0.21215-0.01414 0.30859 2e-3 0.12859 0.02139 0.24353 0.07166 0.33008 0.1582 0.34618 0.34619 0.11903 1.1349-0.26562 1.5195-0.38465 0.38465-0.97803 0.4165-1.3242 0.07031-0.34618-0.34618-0.31434-0.93957 0.07031-1.3242 0.21637-0.21637 0.55969-0.38322 0.88086-0.42578zm4 1c0.10706-0.01419 0.21215-0.01414 0.30859 2e-3 0.12859 0.02139 0.24353 0.07166 0.33008 0.1582 0.34618 0.34618 0.11902 1.1349-0.26562 1.5195-0.38465 0.38465-0.97804 0.4165-1.3242 0.07031-0.34618-0.34618-0.31434-0.93957 0.07031-1.3242 0.21637-0.21636 0.55969-0.38322 0.88086-0.42578zm-9 1c0.10706-0.01419 0.21215-0.01414 0.30859 2e-3 0.12859 0.02139 0.24353 0.07166 0.33008 0.1582 0.34618 0.34618 0.11902 1.1349-0.26562 1.5195-0.38465 0.38465-0.97803 0.4165-1.3242 0.07031-0.34618-0.34618-0.31434-0.93957 0.07031-1.3242 0.21637-0.21637 0.55969-0.38322 0.88086-0.42578zm4 2c0.10706-0.01419 0.21215-0.01414 0.30859 2e-3 0.12859 0.02139 0.24353 0.07166 0.33008 0.1582 0.34618 0.34619 0.11903 1.1349-0.26562 1.5195-0.38465 0.38465-0.97804 0.4165-1.3242 0.07031-0.34618-0.34619-0.31434-0.93957 0.07031-1.3242 0.21637-0.21637 0.55969-0.38322 0.88086-0.42578zm3 1c0.10706-0.01419 0.21215-0.01414 0.30859 2e-3 0.12859 0.02139 0.24353 0.07166 0.33008 0.1582 0.34618 0.34618 0.11902 1.1349-0.26562 1.5195-0.38465 0.38465-0.97803 0.4165-1.3242 0.07031-0.34618-0.34619-0.31434-0.93957 0.07031-1.3242 0.21637-0.21636 0.55969-0.38322 0.88086-0.42578z" fill="#dfdfdf"/>
 </g>
 <g id="strawberry">
  <rect width="32" height="32" opacity=".001"/>
  <path d="m17.901 6.0003c-0.28749-0.00384-0.65847 0.025286-1.1647 0.081796-3.584 0.40006-6.5738 2.7185-9.994 7.7487-1.0327 1.5188-2.36 3.4696-2.9495 4.3352-2.4832 3.6465-2.3762 7.3886 0.25622 8.9622 1.7013 1.017 3.3453 1.4203 5.9478 1.4599 1.3081 0.01987 3.2233 0.11758 4.256 0.21696 2.8813 0.27728 3.242 0.27082 5.2701-0.09826 2.2698-0.41308 4.0208-1.2734 5.4271-2.6654 1.1041-1.0929 2.6808-4.1183 2.9279-5.441 2.0706-6.4321-5.2517-14.275-9.9769-14.6z" opacity=".2"/>
  <path d="m17.901 5.0003c-0.28749-0.00384-0.65847 0.025286-1.1647 0.081796-3.584 0.40006-6.5738 2.7185-9.994 7.7487-1.0327 1.5188-2.36 3.4696-2.9495 4.3352-2.4832 3.6465-2.3762 7.3886 0.25622 8.9622 1.7013 1.017 3.3453 1.4203 5.9478 1.4599 1.3081 0.01987 3.2233 0.11758 4.256 0.21696 2.8813 0.27728 3.242 0.27082 5.2701-0.09826 2.2698-0.41308 4.0208-1.2734 5.4271-2.6654 1.1041-1.0929 2.6808-4.1183 2.9279-5.441 2.0706-6.4321-5.2517-14.275-9.9769-14.6z" fill="#dc3a2d"/>
  <path d="m17.9 5c-0.28749-0.00384-0.65781 0.025521-1.1641 0.082031-3.584 0.40006-6.574 2.7178-9.9941 7.748-1.0327 1.5188-2.3598 3.4703-2.9492 4.3359-1.322 1.9413-1.9041 3.9066-1.7676 5.5605 0.11818-1.4192 0.70383-2.9985 1.7676-4.5605 0.58945-0.86559 1.9165-2.8171 2.9492-4.3359 3.4202-5.0302 6.4101-7.348 9.9941-7.748 0.50625-0.05651 0.87657-0.085871 1.1641-0.082031 4.0333 0.27797 9.9397 6.0334 10.301 11.713 0.33894-5.9842-6.03-12.419-10.301-12.713z" fill="#fff" opacity=".2"/>
  <path d="m19.133 5c-0.13318 0-0.17176 0.25629-0.08968 0.59474 0 0 0.23598 1.0799 1.8193 1.8709 1.1012 0.51418 1.0993 0.81133-0.0073 1.1197-0.4822 0.13437-1.0682 0.3892-1.3021 0.56616-0.3857 0.29185-0.24493 0.41221 1.5145 1.2978 1.0668 0.53693 2.1373 1.1328 2.3786 1.3245 0.419 0.33269 0.3999 0.37929-0.41758 1.0245-0.9126 0.72031-1.9923 2.4043-1.9923 3.1073 0 0.38004 0.17814 0.41091 1.6812 0.29105 0.92465-0.07373 1.942-0.16654 2.2609-0.20622l0.57972-0.07218-0.08288 1.9117c-0.04552 1.0514-0.17873 2.1731-0.2962 2.4929-0.11747 0.31973-0.16642 0.63015-0.1087 0.68989 0.24303 0.25149 1.2344-0.30358 1.9144-1.0719 0.69522-0.78543 0.73942-0.80159 0.88724-0.31964 0.49781 0.86399 0.71816 1.6208 1.4906 2.378 0.17249 0.01601 0.3041-0.19234 0.41477-0.62186 0.34071-1.3223 0.15821-2.6023-0.55933-3.9242-0.38666-0.71231-0.76539-1.8349-0.84195-2.4947-0.07656-0.65989-0.20266-1.4275-0.2799-1.706-0.11736-0.42313 0.11022-0.67009 1.3854-1.5035 1.452-0.94894 1.8268-1.4888 1.2776-1.84-0.13644-0.087257-0.85509 0.17643-1.5974 0.58584-0.74229 0.40941-1.4956 0.74425-1.6739 0.74425-0.17833 0-0.73795-0.51254-1.2432-1.1389-0.87813-1.0885-0.91849-1.213-0.91849-2.8195 0-1.5265-0.04479-1.6873-0.48868-1.7528-0.35878-0.053003-0.56659 0.12245-0.78171 0.65989-0.16117 0.40265-0.37437 0.73207-0.47374 0.73207-0.09937 0-1.0885-0.43193-2.1979-0.95984-1.1094-0.52791-2.1226-0.95984-2.2513-0.95984z" opacity=".2"/>
  <path d="m19.133 4c-0.13318 0-0.17176 0.25629-0.08968 0.59474 0 0 0.23598 1.0799 1.8193 1.8709 1.1012 0.51418 1.0993 0.81133-0.0073 1.1197-0.4822 0.13437-1.0682 0.3892-1.3021 0.56616-0.3857 0.29185-0.24493 0.41221 1.5145 1.2978 1.0668 0.53693 2.1373 1.1328 2.3786 1.3245 0.419 0.33269 0.3999 0.37929-0.41758 1.0245-0.9126 0.72031-1.9923 2.4043-1.9923 3.1073 0 0.38004 0.17814 0.41091 1.6812 0.29105 0.92465-0.07373 1.942-0.16654 2.2609-0.20622l0.57972-0.07218-0.08288 1.9117c-0.04552 1.0514-0.17873 2.1731-0.2962 2.4929-0.11747 0.31973-0.16642 0.63015-0.1087 0.68989 0.24303 0.25149 1.2344-0.30358 1.9144-1.0719 0.69522-0.78543 0.73942-0.80159 0.88724-0.31964 0.49781 0.86399 0.71816 1.6208 1.4906 2.378 0.17249 0.01601 0.3041-0.19234 0.41477-0.62186 0.34071-1.3223 0.15821-2.6023-0.55933-3.9242-0.38666-0.71231-0.76539-1.8349-0.84195-2.4947-0.07656-0.65989-0.20266-1.4275-0.2799-1.706-0.11736-0.42313 0.11022-0.67009 1.3854-1.5035 1.452-0.94894 1.8268-1.4888 1.2776-1.84-0.13644-0.087257-0.85509 0.17643-1.5974 0.58584-0.74229 0.40941-1.4956 0.74425-1.6739 0.74425-0.17833 0-0.73795-0.51254-1.2432-1.1389-0.87813-1.0885-0.91849-1.213-0.91849-2.8195 0-1.5265-0.04479-1.6873-0.48868-1.7528-0.35878-0.053003-0.56659 0.12245-0.78171 0.65989-0.16117 0.40265-0.37437 0.73207-0.47374 0.73207-0.09937 0-1.0885-0.43193-2.1979-0.95984-1.1094-0.52791-2.1226-0.95984-2.2513-0.95984z" fill="#75ac4c"/>
  <path d="m16.346 12.535c-0.57697 0.57697-1.4657 0.62375-1.9849 0.10447-0.51928-0.51928-0.4725-1.408 0.10447-1.9849 0.57698-0.57698 1.7594-0.91748 2.2787-0.3982 0.51928 0.51928 0.17877 1.7017-0.39821 2.2787z" fill="#b4291e"/>
  <path d="m14.346 17.535c-0.57697 0.57697-1.4657 0.62375-1.9849 0.10447-0.51928-0.51928-0.4725-1.408 0.10447-1.9849 0.57698-0.57698 1.7594-0.91748 2.2787-0.3982 0.51928 0.51928 0.17877 1.7017-0.39821 2.2787z" fill="#b4291e"/>
  <path d="m21.346 20.535c-0.57698 0.57697-1.4657 0.62375-1.9849 0.10447-0.51928-0.51928-0.4725-1.408 0.10447-1.9849 0.57698-0.57697 1.7594-0.91748 2.2787-0.3982 0.51928 0.51928 0.17877 1.7017-0.39821 2.2787z" fill="#b4291e"/>
  <path d="m19.346 25.535c-0.57697 0.57697-1.4657 0.62375-1.9849 0.10447-0.51928-0.51928-0.4725-1.408 0.10447-1.9849s1.7594-0.91748 2.2787-0.3982c0.51928 0.51928 0.17877 1.7017-0.39821 2.2787z" fill="#b4291e"/>
  <path d="m13.346 24.535c-0.57697 0.57697-1.4657 0.62375-1.9849 0.10447-0.51928-0.51928-0.4725-1.408 0.10447-1.9849 0.57698-0.57697 1.7594-0.91748 2.2787-0.3982 0.51928 0.51928 0.17877 1.7017-0.39821 2.2787z" fill="#b4291e"/>
  <path d="m7.3458 22.535c-0.57697 0.57697-1.4657 0.62375-1.9849 0.10447-0.51928-0.51928-0.47251-1.408 0.10447-1.9849 0.57698-0.57698 1.7594-0.91748 2.2787-0.39821 0.51928 0.51928 0.17877 1.7017-0.39821 2.2787z" fill="#b4291e"/>
  <path d="m9.3458 16.535c-0.57697 0.57698-1.4657 0.62375-1.9849 0.10447-0.51928-0.51928-0.47251-1.408 0.10447-1.9849 0.57698-0.57697 1.7594-0.91748 2.2787-0.3982 0.51928 0.51928 0.17877 1.7017-0.39821 2.2787z" fill="#b4291e"/>
  <path d="m16.908 10.504c-0.10745 0.38808-0.3037 0.77245-0.5625 1.0312-0.57697 0.57697-1.4651 0.62279-1.9844 0.10352-0.1186-0.1186-0.20362-0.25726-0.26367-0.40625-0.18225 0.49367-0.10166 1.0409 0.26367 1.4062 0.51928 0.51928 1.4074 0.47346 1.9844-0.10352 0.4981-0.4981 0.81786-1.4468 0.5625-2.0312zm-7 4c-0.10745 0.38808-0.3037 0.77245-0.5625 1.0312-0.57697 0.57698-1.4651 0.62279-1.9844 0.10352-0.1186-0.1186-0.20362-0.25726-0.26367-0.40625-0.18225 0.49367-0.10166 1.0409 0.26367 1.4062 0.51928 0.51928 1.4074 0.47346 1.9844-0.10352 0.4981-0.4981 0.81785-1.4468 0.5625-2.0312zm5 1c-0.10745 0.38808-0.3037 0.77245-0.5625 1.0312-0.57697 0.57697-1.4651 0.62279-1.9844 0.10352-0.1186-0.1186-0.20362-0.25726-0.26367-0.40625-0.18225 0.49367-0.10166 1.0409 0.26367 1.4062 0.51928 0.51928 1.4074 0.47346 1.9844-0.10352 0.4981-0.4981 0.81786-1.4468 0.5625-2.0312zm7 3c-0.10745 0.38808-0.3037 0.77245-0.5625 1.0312-0.57698 0.57697-1.4651 0.62279-1.9844 0.10352-0.1186-0.1186-0.20362-0.25726-0.26367-0.40625-0.18225 0.49367-0.10166 1.0409 0.26367 1.4062 0.51928 0.51928 1.4074 0.47346 1.9844-0.10352 0.4981-0.4981 0.81786-1.4468 0.5625-2.0312zm-14 2c-0.10745 0.38808-0.3037 0.77245-0.5625 1.0312-0.57697 0.57697-1.4651 0.62279-1.9844 0.10352-0.1186-0.1186-0.20362-0.25726-0.26367-0.40625-0.18225 0.49367-0.10166 1.0409 0.26367 1.4062 0.51928 0.51928 1.4074 0.47346 1.9844-0.10352 0.4981-0.4981 0.81785-1.4468 0.5625-2.0312zm6 2c-0.10745 0.38808-0.3037 0.77245-0.5625 1.0312-0.57697 0.57697-1.4651 0.62279-1.9844 0.10352-0.1186-0.1186-0.20362-0.25726-0.26367-0.40625-0.18225 0.49367-0.10166 1.0409 0.26367 1.4062 0.51928 0.51928 1.4074 0.47346 1.9844-0.10352 0.4981-0.4981 0.81786-1.4468 0.5625-2.0312zm6 1c-0.10745 0.38808-0.3037 0.77245-0.5625 1.0312-0.57697 0.57697-1.4651 0.62279-1.9844 0.10352-0.1186-0.1186-0.20362-0.25726-0.26367-0.40625-0.18225 0.49367-0.10166 1.0409 0.26367 1.4062 0.51928 0.51928 1.4074 0.47346 1.9844-0.10352 0.4981-0.4981 0.81786-1.4468 0.5625-2.0312z" opacity=".2"/>
  <path d="m19.133 4c-0.13318 0-0.17193 0.25725-0.08984 0.5957 0 0 0.06732 0.19482 0.21094 0.44922 0.24381 0.061529 1.1101 0.42833 2.1309 0.91406 1.1095 0.52791 2.0979 0.96094 2.1973 0.96094 0.09936 0 0.31148-0.32977 0.47266-0.73242 0.21512-0.53744 0.42442-0.71316 0.7832-0.66016 0.44389 0.065577 0.48828 0.22736 0.48828 1.7539 0 1.6066 0.03984 1.7298 0.91797 2.8184 0.50527 0.62633 1.0658 1.1387 1.2441 1.1387 0.17833 0 0.93154-0.33473 1.6738-0.74414 0.57278-0.31592 1.1241-0.5398 1.4121-0.58789 0.46289-0.4466 0.54168-0.77028 0.18555-0.99805-0.13644-0.087257-0.85536 0.17652-1.5977 0.58594-0.74229 0.40941-1.4955 0.74414-1.6738 0.74414-0.17833 0-0.73887-0.51234-1.2441-1.1387-0.87814-1.0885-0.91797-1.2118-0.91797-2.8184 0-1.5265-0.04439-1.6883-0.48828-1.7539-0.35878-0.053003-0.56808 0.12272-0.7832 0.66016-0.16117 0.40265-0.37329 0.73242-0.47266 0.73242-0.09937 0-1.0878-0.43303-2.1973-0.96094-1.1094-0.52791-2.1233-0.95898-2.252-0.95898zm1.8555 3.5371c-0.05261 0.016373-0.07395 0.032426-0.13281 0.048828-0.4822 0.13437-1.0689 0.38945-1.3027 0.56641-0.28603 0.21643-0.2736 0.34019 0.46484 0.75 0.26161-0.12114 0.55627-0.23793 0.83789-0.31641 1.0497-0.29249 1.07-0.58164 0.13281-1.0488zm2.2344 4.1016c-0.0678 0.05485-0.10892 0.09351-0.19336 0.16016-0.9126 0.72031-1.9922 2.4045-1.9922 3.1074 0 0.15613 0.05565 0.24094 0.19531 0.29297 0.35136-0.80142 1.1191-1.8654 1.7969-2.4004 0.81747-0.64523 0.83502-0.6927 0.41602-1.0254-0.03055-0.02426-0.16722-0.09849-0.22266-0.13477zm4.9609 1.1523c-0.0987 0.15523-0.13332 0.29715-0.08789 0.46094 0.07723 0.27845 0.20274 1.0471 0.2793 1.707 0.07656 0.65989 0.45709 1.7818 0.84375 2.4941 0.39172 0.72164 0.60886 1.4303 0.68359 2.1406 0.1058-1.0484-0.1088-2.0817-0.68359-3.1406-0.38666-0.71231-0.76719-1.8342-0.84375-2.4941-0.05239-0.45152-0.12416-0.80679-0.19141-1.168zm-2.625 3.127-0.04492 0.0059-0.03906 0.90625c-0.04552 1.0514-0.17745 2.1725-0.29492 2.4922-0.11747 0.31973-0.1671 0.62972-0.10938 0.68945 0.03555 0.03679 0.09004 0.05251 0.1543 0.05664 0.10415-0.44726 0.21043-1.3244 0.25-2.2383z" fill="#fff" opacity=".2"/>
 </g>
</svg>
