<?xml version="1.0" encoding="UTF-8"?>
<svg width="32" height="32" version="1.1" xmlns="http://www.w3.org/2000/svg">
 <g id="system-software-update" transform="translate(-64)">
  <rect width="32" height="32" opacity=".001"/>
  <g transform="translate(-1 .00014318)">
   <path d="m15.928 30c0.56062 0.0035 1.1261-0.02559 1.6899-0.08985 2.2376-0.255 4.4172-1.0458 6.3323-2.3498 2.8204-1.9205 4.735-4.7927 5.5834-8.0026 0.66091-0.30091 1.2561-0.75719 1.7272-1.3829 0.93504-1.2421 1.0358-3.4713 0-4.848a3.0116 3.0005 0 0 0 0-2e-3l-0.94102-1.2501a3.0116 3.0005 0 0 0-2e-3 -2e-3l-0.94298-1.2501c-1.0368-1.3746-2.506-1.8223-3.819-1.8223s-2.7822 0.44772-3.819 1.8224l-0.94298 1.2501a3.0116 3.0005 0 0 0-2e-3 2e-3l-0.94102 1.2501a3.0116 3.0005 0 0 0 0 2e-3c-1.0358 1.3767-0.93504 3.6059 0 4.848 0.12909 0.17149 0.32603 0.23434 0.47247 0.38089-0.36689 0.61487-0.85903 1.1567-1.4723 1.5743-1.3735 0.93525-3.1029 1.1319-4.6541 0.52934l0.04705 0.01758c-1.1728-0.47801-2.6381-0.43813-3.7308 0.10938s-1.8052 1.4442-2.1879 2.4221c-0.38269 0.97782-0.4675 2.1181-0.03529 3.2581 0.42968 1.1331 1.4732 2.1407 2.6526 2.5841 1.6128 0.62272 3.303 0.93869 4.9855 0.94929z" opacity=".2"/>
   <path d="m15.928 29c0.56062 0.0035 1.1261-0.02559 1.6899-0.08985 2.2376-0.255 4.4172-1.0458 6.3323-2.3498 2.8204-1.9205 4.735-4.7927 5.5834-8.0026 0.66091-0.30091 1.2561-0.75719 1.7272-1.3829 0.93504-1.2421 1.0358-3.4713 0-4.848a3.0116 3.0005 0 0 0 0-2e-3l-0.94102-1.2501a3.0116 3.0005 0 0 0-2e-3 -2e-3l-0.94298-1.2501c-1.0368-1.3746-2.506-1.8223-3.819-1.8223s-2.7822 0.44772-3.819 1.8224l-0.94298 1.2501a3.0116 3.0005 0 0 0-2e-3 2e-3l-0.94102 1.2501a3.0116 3.0005 0 0 0 0 2e-3c-1.0358 1.3767-0.93504 3.6059 0 4.848 0.12909 0.17149 0.32603 0.23434 0.47247 0.38089-0.36689 0.61487-0.85903 1.1567-1.4723 1.5743-1.3735 0.93525-3.1029 1.1319-4.6541 0.52934l0.04705 0.01758c-1.1728-0.47801-2.6381-0.43813-3.7308 0.10938s-1.8052 1.4442-2.1879 2.4221c-0.38269 0.97782-0.4675 2.1181-0.03529 3.2581 0.42968 1.1331 1.4732 2.1407 2.6526 2.5841 1.6128 0.62272 3.303 0.93869 4.9855 0.94929z" fill="#ff9932"/>
   <path d="m17.072 3c-0.56062-0.00353-1.1256 0.025588-1.6895 0.089844-2.2376 0.255-4.4169 1.0456-6.332 2.3496-2.8204 1.9205-4.7356 4.794-5.584 8.0039-0.66091 0.30091-1.2555 0.75708-1.7266 1.3828-0.93504 1.2421-1.0358 3.4709 0 4.8477a3.0116 3.0005 0 0 0 0 2e-3l0.93945 1.25a3.0116 3.0005 0 0 0 0.00195 2e-3l0.94336 1.25c1.0368 1.3745 2.5074 1.8222 3.8203 1.8222s2.7815-0.44757 3.8184-1.8223l0.94336-1.25a3.0116 3.0005 0 0 0 2e-3 -2e-3l0.94141-1.25a3.0116 3.0005 0 0 0 0-2e-3c1.0358-1.3767 0.93504-3.6055 0-4.8477-0.12909-0.17149-0.32622-0.23431-0.47266-0.38086 0.36689-0.61487 0.85742-1.1566 1.4707-1.5742 1.3735-0.93525 3.1031-1.1338 4.6543-0.53125l-0.04687-0.01758c0.2973 0.12117 0.61344 0.20694 0.9375 0.26172 0.05276-0.08577 0.09581-0.17748 0.15625-0.25781v-2e-3l0.94141-1.25 2e-3 -2e-3 0.94336-1.25c0.89006-1.1801 2.0951-1.6525 3.25-1.7695-0.0054-0.49743-0.08125-1.0075-0.27539-1.5195-0.42978-1.1329-1.4731-2.1404-2.6524-2.5838-1.6128-0.62273-3.3039-0.93861-4.9863-0.94922z" opacity=".2"/>
   <path d="m17.072 2.0003c-0.56062-0.0035302-1.1261 0.025595-1.6899 0.089851-2.2376 0.255-4.4172 1.0458-6.3323 2.3498-2.8204 1.9205-4.735 4.7927-5.5834 8.0026-0.66091 0.30091-1.2561 0.75719-1.7272 1.3829-0.93504 1.2421-1.0358 3.4713 0 4.848a3.0116 3.0005 0 0 0 0 2e-3l0.94102 1.2501a3.0116 3.0005 0 0 0 0.00196 2e-3l0.94298 1.2501c1.0368 1.3746 2.5061 1.8223 3.819 1.8223s2.7822-0.44772 3.819-1.8224l0.94298-1.2501a3.0116 3.0005 0 0 0 2e-3 -2e-3l0.94102-1.2501a3.0116 3.0005 0 0 0 0-2e-3c1.0358-1.3767 0.93504-3.6059 0-4.848-0.12909-0.17149-0.32603-0.23434-0.47247-0.38089 0.36689-0.61487 0.85903-1.1567 1.4723-1.5743 1.3735-0.93525 3.1029-1.1319 4.6541-0.52934l-0.04705-0.01758c1.1728 0.47801 2.6381 0.43813 3.7308-0.10938s1.8052-1.4442 2.1879-2.4221c0.38269-0.97782 0.4675-2.1181 0.03529-3.2581-0.42968-1.1331-1.4732-2.1407-2.6526-2.5841-1.6128-0.62273-3.303-0.93869-4.9855-0.94929z" fill="#ffda43"/>
   <path d="m17.072 6.002c-0.44183-0.002795-0.88403 0.020188-1.3223 0.070312-1.7529 0.2005-3.458 0.82121-4.957 1.8457-2.7204 1.8592-4.4353 4.8343-4.7324 8.082h-0.4375a1.6245 1.2502 0 0 0-1.4062 1.875l0.9375 1.25 0.93945 1.25a1.6245 1.2502 0 0 0 2.8125 0l0.93945-1.25 0.9375-1.25a1.6245 1.2502 0 0 0-1.4062-1.875h-0.3125c0.28366-2.2572 1.517-4.3036 3.4219-5.6055 2.1828-1.4918 4.9567-1.808 7.4199-0.84766a1.5002 1.5002 0 1 0 1.0898-2.7949c-1.2687-0.49466-2.5983-0.74161-3.9238-0.75z" opacity=".1"/>
   <path d="m17.072 5.002c-0.44183-0.002795-0.88403 0.020188-1.3223 0.070312-1.7529 0.2005-3.458 0.82121-4.957 1.8457-2.7204 1.8592-4.4353 4.8343-4.7324 8.082h-0.4375a1.6245 1.2502 0 0 0-1.4062 1.875l0.9375 1.25 0.93945 1.25a1.6245 1.2502 0 0 0 2.8125 0l0.93945-1.25 0.9375-1.25a1.6245 1.2502 0 0 0-1.4062-1.875h-0.3125c0.28366-2.2572 1.517-4.3036 3.4219-5.6055 2.1828-1.4918 4.9567-1.808 7.4199-0.84766a1.5002 1.5002 0 1 0 1.0898-2.7949c-1.2687-0.49466-2.5983-0.74161-3.9238-0.75z" fill="#3f3f3f"/>
   <path d="m17.072 2c-0.56062-0.00353-1.1256 0.025588-1.6895 0.089844-2.2376 0.255-4.4169 1.0456-6.332 2.3496-2.8204 1.9205-4.7356 4.794-5.584 8.0039-0.66091 0.30091-1.2555 0.75708-1.7266 1.3828-0.57302 0.76122-0.83022 1.8915-0.70703 2.9707 0.073859-0.74012 0.31117-1.4448 0.70703-1.9707 0.47102-0.62573 1.0657-1.0819 1.7266-1.3828 0.84843-3.2099 2.7636-6.0834 5.584-8.0039 1.9151-1.304 4.0944-2.0946 6.332-2.3496 0.56385-0.064256 1.1288-0.093374 1.6895-0.089844 1.6824 0.010604 3.3735 0.32649 4.9863 0.94922 1.1793 0.44338 2.2227 1.4509 2.6523 2.584 0.1338 0.3529 0.20294 0.70459 0.24414 1.0527 0.07274-0.6609 0.02051-1.3547-0.24414-2.0527-0.42968-1.1331-1.473-2.1406-2.6523-2.584-1.6128-0.62273-3.3039-0.93861-4.9863-0.94922zm-3.9395 11.811c-0.1662 0.20169-0.32176 0.41133-0.45508 0.63476 0.14644 0.14655 0.34357 0.20937 0.47266 0.38086 0.39586 0.52588 0.63122 1.2306 0.70508 1.9707 0.12319-1.0792-0.13206-2.2095-0.70508-2.9707-5e-3 -0.0066-0.01242-0.0093-0.01758-0.01563z" fill="#fff" opacity=".2"/>
   <path d="m31.26 12.327v-2e-3l-0.94102-1.2501-2e-3 -2e-3 -0.94298-1.2501c-1.0368-1.3746-2.506-1.8223-3.819-1.8223s-2.7822 0.44772-3.819 1.8224l-0.94298 1.2501-2e-3 2e-3 -0.94102 1.2501v2e-3z" fill="#ff9932"/>
   <path d="m15.928 26.998c0.44183 0.0028 0.88403-0.02019 1.3223-0.07031 1.7529-0.2005 3.458-0.82121 4.957-1.8457 2.7204-1.8592 4.4353-4.8343 4.7324-8.082h0.4375a1.6245 1.2502 0 0 0 1.4062-1.875l-0.9375-1.25-0.93945-1.25a1.6245 1.2502 0 0 0-2.8125 0l-0.93945 1.25-0.9375 1.25a1.6245 1.2502 0 0 0 1.4062 1.875h0.3125c-0.28366 2.2572-1.517 4.3036-3.4219 5.6055-2.1828 1.4918-4.9567 1.808-7.4199 0.84766a1.5002 1.5002 0 1 0-1.0898 2.7949c1.2687 0.49466 2.5983 0.74162 3.9238 0.75z" opacity=".1"/>
   <path d="m15.928 25.998c0.44183 0.0028 0.88403-0.02019 1.3223-0.07031 1.7529-0.2005 3.458-0.82121 4.957-1.8457 2.7204-1.8592 4.4353-4.8343 4.7324-8.082h0.4375a1.6245 1.2502 0 0 0 1.4062-1.875l-0.9375-1.25-0.93945-1.25a1.6245 1.2502 0 0 0-2.8125 0l-0.93945 1.25-0.9375 1.25a1.6245 1.2502 0 0 0 1.4062 1.875h0.3125c-0.28366 2.2572-1.517 4.3036-3.4219 5.6055-2.1828 1.4918-4.9567 1.808-7.4199 0.84766a1.5002 1.5002 0 1 0-1.0898 2.7949c1.2687 0.49466 2.5983 0.74162 3.9238 0.75z" fill="#3f3f3f"/>
  </g>
 </g>
 <g id="22-22-system-software-update" transform="translate(-54,-72)">
  <rect y="32" width="22" height="22" opacity=".001"/>
  <path d="m11 35c-4.4183 0-8 3.5817-8 8 0 4.418 3.5817 8 8 8 4.418 0 8-3.582 8-8 0-4.4183-3.582-8-8-8zm0 2c1.4958 0 2.9891 0.56016 4.1484 1.6719-0.3707 0.14382-0.7136 0.37797-0.97656 0.75l-0.46094 0.6543c-1.5688-1.4543-4.0135-1.4299-5.5391 0.095703-0.78091 0.78091-1.1679 1.8045-1.168 2.8281h0.29688a0.69924 0.5747 1.1588e-6 0 1 0.60547 0.86133l-0.65039 0.92578-0.65234 0.92578a0.69924 0.5747 1.1588e-6 0 1-1.209 0l-1.3008-1.8516a0.69924 0.5747 1.1588e-6 0 1 0.39844-0.83594 0.69924 0.5747 1.1588e-6 0 1 0.20508-0.025391h0.30469c7.06e-5 -1.5355 0.58441-3.0707 1.7559-4.2422 1.1716-1.1716 2.7067-1.7578 4.2422-1.7578zm4.9629 3.002a0.69924 0.5747 1.1588e-6 0 1 0.64258 0.28516l1.3008 1.8516a0.69924 0.5747 1.1588e-6 0 1-0.39844 0.83594 0.69924 0.5747 1.1588e-6 0 1-0.20508 0.025391h-0.30469c-7.1e-5 1.5355-0.58441 3.0707-1.7559 4.2422-1.1716 1.1716-2.7067 1.7578-4.2422 1.7578-1.4949 0-2.9874-0.55949-4.1465-1.6699 0.36373-0.14094 0.70826-0.37348 0.97461-0.75v-2e-3l0.46094-0.6543c1.5688 1.4543 4.0135 1.4299 5.5391-0.0957 0.78091-0.78087 1.1679-1.8045 1.168-2.8281h-0.29688a0.69924 0.5747 1.1588e-6 0 1-0.60547-0.86133l0.65039-0.92578 0.65234-0.92578a0.69924 0.5747 1.1588e-6 0 1 0.56641-0.28516z" fill="#dfdfdf"/>
 </g>
 <g id="22-22-system-shutdown" transform="translate(-15,-45)">
  <rect x="5" y="5" width="22" height="22" opacity=".001"/>
  <path d="m15.985 7.9999a1.0001 0.99661 0 0 0-0.98535 1.0098v5.9795a1.0001 0.99661 0 1 0 2 0v-5.9795a1.0001 0.99661 0 0 0-1.0146-1.0098zm-3.3564 2.001a1.0002 1.001 0 0 0-0.5332 0.17676c-2.5474 1.7133-3.684 4.9001-2.7969 7.8408 0.88708 2.9407 3.595 4.9654 6.6641 4.9814 3.0691 0.01609 5.799-1.9799 6.7168-4.9111 0.9178-2.9312-0.18548-6.1293-2.7148-7.8691a1.0002 1.001 0 1 0-1.1328 1.6484c1.8126 1.2469 2.5972 3.5215 1.9395 5.6221s-2.5984 3.5193-4.7979 3.5078c-2.1994-0.01152-4.1241-1.4502-4.7598-3.5576-0.63571-2.1074 0.1715-4.3738 1.9971-5.6016a1.0002 1.001 0 0 0-0.58203-1.8379z" fill="#dfdfdf"/>
 </g>
 <g id="22-22-system-reboot" transform="translate(7,-45)">
  <rect x="5" y="5" width="22" height="22" opacity=".001"/>
  <path d="m16.016 9a1.0001 1.0001 0 1 0-0.0039 2c1.3978 0.0024 2.7305 0.58941 3.6758 1.6191 0.85054 0.92657 1.3109 2.1335 1.3105 3.3809h-1.9941l3 4 3-4h-2.0059c-2.23e-4 -1.7453-0.64834-3.4385-1.8379-4.7344-1.3225-1.4408-3.1888-2.2622-5.1445-2.2656zm-6.0156 3-3 4h2.0059c2.232e-4 1.7453 0.64834 3.4385 1.8379 4.7344 1.3225 1.4408 3.1888 2.2622 5.1445 2.2656a1.0001 1.0001 0 1 0 0.0039-2c-1.3978-0.00244-2.7305-0.58941-3.6758-1.6191-0.85054-0.92657-1.3109-2.1335-1.3105-3.3809h1.9941l-1.5-2z" fill="#dfdfdf"/>
 </g>
 <g id="22-22-system-save-session" transform="translate(-37,-45)">
  <rect x="5" y="5" width="22" height="22" opacity=".001"/>
  <path d="m10 9c-0.55 0-1 0.45-1 1v11l2 2h11c0.55 0 1-0.45 1-1v-12c0-0.55-0.45-1-1-1zm1 2h10v10h-1v-5h-8v5h-1zm5 6h2v4h-2z" fill="#dfdfdf"/>
 </g>
 <g id="22-22-system-suspend" transform="translate(29,-45)">
  <rect x="5" y="5" width="22" height="22" opacity=".001"/>
  <path d="m16 9a7 7 0 0 0-7 7 7 7 0 0 0 7 7 7 7 0 0 0 7-7 7 7 0 0 0-7-7zm0 2a5 5 0 0 1 5 5 5 5 0 0 1-5 5 5 5 0 0 1-5-5 5 5 0 0 1 5-5zm-1.9902 4a0.99537 1.0001 0 1 0 0 2h3.9805a0.99537 1.0001 0 1 0 0-2z" fill="#dfdfdf"/>
 </g>
 <g id="22-22-system-suspend-hibernate" transform="translate(51,-45)">
  <rect x="5" y="5" width="22" height="22" opacity=".001"/>
  <path d="m16 9a7 7 0 0 0-7 7 7 7 0 0 0 7 7 7 7 0 0 0 7-7 7 7 0 0 0-7-7zm0 2a5 5 0 0 1 5 5 5 5 0 0 1-5 5 5 5 0 0 1-5-5 5 5 0 0 1 5-5zm0 3a2 2 0 0 0-2 2 2 2 0 0 0 2 2 2 2 0 0 0 2-2 2 2 0 0 0-2-2z" fill="#dfdfdf"/>
 </g>
 <g id="22-22-system-log-out" transform="translate(73,-45)">
  <rect x="5" y="5" width="22" height="22" opacity=".001"/>
  <path d="m15.818 9.0027c-0.20904 0.00578-0.41747 0.020695-0.625 0.044925-1.6603 0.19386-3.2511 0.97493-4.4316 2.3047-2.361 2.6596-2.3473 6.6872 0.03223 9.3303 2.3795 2.6431 6.3872 3.0838 9.2842 1.0196 1.0899-0.77423-0.07499-2.4066-1.1631-1.6299-2.0808 1.4827-4.9227 1.1718-6.6318-0.72658-1.7091-1.8984-1.7192-4.7549-0.02343-6.6652 1.6958-1.9103 4.5359-2.2425 6.627-0.77443 1.098 0.8011 2.2783-0.87534 1.1523-1.6368-1.2737-0.89425-2.7575-1.3071-4.2207-1.2666zm4.1816 3.4971v2.5001h-3c-0.55228 0-1 0.44772-1 1s0.44772 1 1 1h3v2.5001l4.5-3.5001z" fill="#dfdfdf"/>
 </g>
 <g id="22-22-system-lock-screen" transform="translate(95,-45)">
  <rect x="5" y="5" width="22" height="22" opacity=".001"/>
  <path d="m16 9c-2.216 0-4 1.784-4 4v2h-1c-0.554 0-1 0.446-1 1v6c0 0.554 0.446 1 1 1h10c0.554 0 1-0.446 1-1v-6c0-0.554-0.446-1-1-1h-1v-2c0-2.216-1.784-4-4-4zm0 2c1.108 0 2 0.892 2 2v2h-4v-2c0-1.108 0.892-2 2-2z" fill="#dfdfdf"/>
 </g>
 <g id="22-22-system-switch-user" transform="translate(117,-45)">
  <rect x="5" y="5" width="22" height="22" opacity=".001"/>
  <path d="m20 9.0001c-0.50478 0-1.0096 0.33736-1 1.0117v7.9883h-2.5l3.5 4.5 3.5-4.5h-2.5v-7.9883c0.0096-0.67436-0.49522-1.0117-1-1.0117zm-8 0.5-3.5 4.5h2.5v7.9883c-0.01913 1.3487 2.0191 1.3487 2 0v-7.9883h2.5z" fill="#dfdfdf"/>
 </g>
 <g id="32-32-system-shutdown">
  <rect width="32" height="32" opacity=".001"/>
  <circle cx="16.5" cy="16.5" r="14.5" opacity=".2"/>
  <circle cx="16.5" cy="15.5" r="14.5" fill="#f44336"/>
  <path d="m16.477 5a1.5002 1.4948 0 0 0-1.4766 1.5156v8.9688a1.5002 1.4948 0 1 0 3 0v-8.9688a1.5002 1.4948 0 0 0-1.5234-1.5156zm-4.9863 2.5a1.5003 1.4995 0 0 0-0.80078 0.26172c-3.8459 2.5538-5.5729 7.3396-4.2461 11.76 1.3269 4.4202 5.4022 7.4624 10.02 7.4785 4.6174 0.01611 8.7165-2.9974 10.074-7.4082 1.3577-4.4108-0.33802-9.2085-4.166-11.789a1.5003 1.4995 0 1 0-1.6777 2.4863c2.7434 1.8494 3.9476 5.2589 2.9746 8.4199s-3.8843 5.3045-7.1934 5.293c-3.3091-0.01155-6.2073-2.176-7.1582-5.3438-0.9509-3.1678 0.277-6.5663 3.0332-8.3965a1.5003 1.4995 0 0 0-0.85938-2.7617z" opacity=".2"/>
  <path d="m16.477 4a1.5002 1.4948 0 0 0-1.4766 1.5156v8.9688a1.5002 1.4948 0 1 0 3 0v-8.9688a1.5002 1.4948 0 0 0-1.5234-1.5156zm-4.9863 2.5a1.5003 1.4995 0 0 0-0.80078 0.26172c-3.8459 2.5538-5.5729 7.3396-4.2461 11.76 1.3269 4.4202 5.4022 7.4624 10.02 7.4785 4.6174 0.01611 8.7165-2.9974 10.074-7.4082 1.3577-4.4108-0.33802-9.2085-4.166-11.789a1.5003 1.4995 0 1 0-1.6777 2.4863c2.7434 1.8494 3.9476 5.2589 2.9746 8.4199s-3.8843 5.3045-7.1934 5.293c-3.3091-0.01155-6.2073-2.176-7.1582-5.3438-0.9509-3.1678 0.277-6.5663 3.0332-8.3965a1.5003 1.4995 0 0 0-0.85938-2.7617z" fill="#fff"/>
  <path d="M 16.5,1 A 14.5,14.5 0 0 0 2,15.5 14.5,14.5 0 0 0 2.0214844,16.080078 14.5,14.5 0 0 1 16.5,2 14.5,14.5 0 0 1 30.978516,15.919922 14.5,14.5 0 0 0 31,15.5 14.5,14.5 0 0 0 16.5,1 Z" fill="#fff" opacity=".2"/>
 </g>
 <g id="32-32-system-save-session" transform="translate(-32)">
  <rect width="32" height="32" opacity=".001"/>
  <rect x="2" y="2" width="29" height="29" rx="8.7" ry="8.7" opacity=".2"/>
  <rect x="2" y="1" width="29" height="29" rx="8.7" ry="8.7" fill="#e91e63"/>
  <path d="m7.5 6c-0.825 0-1.5 0.675-1.5 1.5v16.5l3 3h16.5c0.825 0 1.5-0.675 1.5-1.5v-18c0-0.825-0.675-1.5-1.5-1.5zm1.5 3h15v15h-2v-8h-11v8h-2zm8 9h3v6h-3z" opacity=".2"/>
  <path d="m7.5 5c-0.825 0-1.5 0.675-1.5 1.5v16.5l3 3h16.5c0.825 0 1.5-0.675 1.5-1.5v-18c0-0.825-0.675-1.5-1.5-1.5zm1.5 3h15v15h-2v-8h-11v8h-2zm8 9h3v6h-3z" fill="#fff"/>
  <path d="m10.699 1c-4.8198 0-8.6992 3.8794-8.6992 8.6992v1c0-4.8198 3.8794-8.6992 8.6992-8.6992h11.602c4.8198 0 8.6992 3.8794 8.6992 8.6992v-1c0-4.8198-3.8794-8.6992-8.6992-8.6992z" fill="#fff" opacity=".2"/>
 </g>
 <g id="32-32-system-reboot" transform="translate(32)">
  <rect width="32" height="32" opacity=".001"/>
  <circle cx="16.5" cy="16.5" r="14.5" opacity=".2"/>
  <circle cx="16.5" cy="15.5" r="14.5" fill="#ff9800"/>
  <path d="m16.471 6.9998c-1.9611-0.02773-1.9611 3.0023 0 2.9746 1.9099 0 3.7713 0.83494 5.0117 2.2871 0.90628 1.061 1.4301 2.3731 1.5332 3.7383h-3.0156l4.5 6 4.5-6h-3.0898c-0.1078-2.051-0.86568-4.0324-2.2227-5.6211-1.7903-2.0959-4.4602-3.3789-7.2168-3.3789zm-7.9707 4-4.5 6h3.0898c0.1078 2.051 0.86568 4.0324 2.2227 5.6211 1.7903 2.0959 4.4602 3.3789 7.2168 3.3789 1.9611 0.02773 1.9611-3.0023 0-2.9746-1.9099 0-3.7713-0.83494-5.0117-2.2871-0.90628-1.061-1.4301-2.3731-1.5332-3.7383h3.0156l-2.25-3z" opacity=".2"/>
  <path d="m16.471 5.9998c-1.9611-0.02773-1.9611 3.0023 0 2.9746 1.9099 0 3.7713 0.83494 5.0117 2.2871 0.90628 1.061 1.4301 2.3731 1.5332 3.7383h-3.0156l4.5 6 4.5-6h-3.0898c-0.1078-2.051-0.86568-4.0324-2.2227-5.6211-1.7903-2.0959-4.4602-3.3789-7.2168-3.3789zm-7.9707 4-4.5 6h3.0898c0.1078 2.051 0.86568 4.0324 2.2227 5.6211 1.7903 2.0959 4.4602 3.3789 7.2168 3.3789 1.9611 0.02773 1.9611-3.0023 0-2.9746-1.9099 0-3.7713-0.83494-5.0117-2.2871-0.90628-1.061-1.4301-2.3731-1.5332-3.7383h3.0156l-2.25-3z" fill="#fff"/>
  <path d="M 16.5,1 A 14.5,14.5 0 0 0 2,15.5 14.5,14.5 0 0 0 2.0214844,16.080078 14.5,14.5 0 0 1 16.5,2 14.5,14.5 0 0 1 30.978516,15.919922 14.5,14.5 0 0 0 31,15.5 14.5,14.5 0 0 0 16.5,1 Z" fill="#fff" opacity=".2"/>
 </g>
 <g id="32-32-system-suspend" transform="translate(64)">
  <rect width="32" height="32" opacity=".001"/>
  <circle cx="16.5" cy="16.5" r="14.5" opacity=".2"/>
  <circle cx="16.5" cy="15.5" r="14.5" fill="#00bcd4"/>
  <path d="m16.5 6a10.5 10.5 0 0 0-10.5 10.5 10.5 10.5 0 0 0 10.5 10.5 10.5 10.5 0 0 0 10.5-10.5 10.5 10.5 0 0 0-10.5-10.5zm0 3a7.5 7.5 0 0 1 7.5 7.5 7.5 7.5 0 0 1-7.5 7.5 7.5 7.5 0 0 1-7.5-7.5 7.5 7.5 0 0 1 7.5-7.5zm-2.9844 6a1.4932 1.5002 0 1 0 0 3h5.9707a1.4932 1.5002 0 1 0 0-3z" opacity=".2"/>
  <path d="m16.5 5a10.5 10.5 0 0 0-10.5 10.5 10.5 10.5 0 0 0 10.5 10.5 10.5 10.5 0 0 0 10.5-10.5 10.5 10.5 0 0 0-10.5-10.5zm0 3a7.5 7.5 0 0 1 7.5 7.5 7.5 7.5 0 0 1-7.5 7.5 7.5 7.5 0 0 1-7.5-7.5 7.5 7.5 0 0 1 7.5-7.5zm-2.9844 6a1.4932 1.5002 0 1 0 0 3h5.9707a1.4932 1.5002 0 1 0 0-3z" fill="#fff"/>
  <path d="M 16.5,1 A 14.5,14.5 0 0 0 2,15.5 14.5,14.5 0 0 0 2.0214844,16.080078 14.5,14.5 0 0 1 16.5,2 14.5,14.5 0 0 1 30.978516,15.919922 14.5,14.5 0 0 0 31,15.5 14.5,14.5 0 0 0 16.5,1 Z" fill="#fff" opacity=".2"/>
 </g>
 <g id="32-32-system-suspend-hibernate" transform="translate(96)">
  <rect width="32" height="32" opacity=".001"/>
  <circle cx="16.5" cy="16.5" r="14.5" opacity=".2"/>
  <circle cx="16.5" cy="15.5" r="14.5" fill="#673ab7"/>
  <path d="m16.5 6a10.5 10.5 0 0 0-10.5 10.5 10.5 10.5 0 0 0 10.5 10.5 10.5 10.5 0 0 0 10.5-10.5 10.5 10.5 0 0 0-10.5-10.5zm0 3a7.5 7.5 0 0 1 7.5 7.5 7.5 7.5 0 0 1-7.5 7.5 7.5 7.5 0 0 1-7.5-7.5 7.5 7.5 0 0 1 7.5-7.5zm0 4a3.5 3.5 0 0 0-3.5 3.5 3.5 3.5 0 0 0 3.5 3.5 3.5 3.5 0 0 0 3.5-3.5 3.5 3.5 0 0 0-3.5-3.5z" opacity=".2"/>
  <path d="m16.5 5a10.5 10.5 0 0 0-10.5 10.5 10.5 10.5 0 0 0 10.5 10.5 10.5 10.5 0 0 0 10.5-10.5 10.5 10.5 0 0 0-10.5-10.5zm0 3a7.5 7.5 0 0 1 7.5 7.5 7.5 7.5 0 0 1-7.5 7.5 7.5 7.5 0 0 1-7.5-7.5 7.5 7.5 0 0 1 7.5-7.5zm0 4a3.5 3.5 0 0 0-3.5 3.5 3.5 3.5 0 0 0 3.5 3.5 3.5 3.5 0 0 0 3.5-3.5 3.5 3.5 0 0 0-3.5-3.5z" fill="#fff"/>
  <path d="M 16.5,1 A 14.5,14.5 0 0 0 2,15.5 14.5,14.5 0 0 0 2.0214844,16.080078 14.5,14.5 0 0 1 16.5,2 14.5,14.5 0 0 1 30.978516,15.919922 14.5,14.5 0 0 0 31,15.5 14.5,14.5 0 0 0 16.5,1 Z" fill="#fff" opacity=".1"/>
 </g>
 <g id="32-32-system-lock-screen" transform="translate(160)">
  <rect width="32" height="32" opacity=".001"/>
  <rect x="2" y="2" width="29" height="29" rx="8.7" ry="8.7" opacity=".2"/>
  <rect x="2" y="1" width="29" height="29" rx="8.7" ry="8.7" fill="#ff5722"/>
  <path d="m16.5 6c-3.5087 0-6.5 2.676-6.5 6v3h-1.4167c-0.87717 0-1.5833 0.669-1.5833 1.5v9c0 0.831 0.70617 1.5 1.5833 1.5h15.833c0.87717 0 1.5833-0.669 1.5833-1.5v-9c0-0.831-0.70617-1.5-1.5833-1.5h-1.4167v-3c0-3.324-2.9913-6-6.5-6zm0 3c1.7543 0 3.6835 1.3482 3.5 3v3h-7v-3c0-1.662 1.7457-3 3.5-3z" opacity=".2"/>
  <path d="m16.5 5c-3.5087 0-6.5 2.676-6.5 6v3h-1.4167c-0.87717 0-1.5833 0.669-1.5833 1.5v9c0 0.831 0.70617 1.5 1.5833 1.5h15.833c0.87717 0 1.5833-0.669 1.5833-1.5v-9c0-0.831-0.70617-1.5-1.5833-1.5h-1.4167v-3c0-3.324-2.9913-6-6.5-6zm0 3c1.7543 0 3.6835 1.3482 3.5 3v3h-7v-3c0-1.662 1.7457-3 3.5-3z" fill="#fff"/>
  <path d="m10.699 1c-4.8198 0-8.6992 3.8794-8.6992 8.6992v1c0-4.8198 3.8794-8.6992 8.6992-8.6992h11.602c4.8198 0 8.6992 3.8794 8.6992 8.6992v-1c0-4.8198-3.8794-8.6992-8.6992-8.6992z" fill="#fff" opacity=".2"/>
 </g>
 <g id="32-32-system-switch-user" transform="translate(192)">
  <rect width="32" height="32" opacity=".001"/>
  <rect x="2" y="2" width="29" height="29" rx="8.7" ry="8.7" opacity=".2"/>
  <rect x="2" y="1" width="29" height="29" rx="8.7" ry="8.7" fill="#3f51b5"/>
  <path d="m21.5 6c-0.75683 0-1.5137 0.49047-1.5 1.4707v12.529h-3.5l5 6.5 5-6.5h-3.5v-12.529c0.013661-0.98023-0.74317-1.4707-1.5-1.4707zm-10 0.5-5 6.5h3.5v12.529c-0.02732 1.9605 3.0273 1.9605 3 0v-12.529h3.5z" opacity=".2"/>
  <path d="m21.5 5c-0.75683 0-1.5137 0.49047-1.5 1.4707v12.529h-3.5l5 6.5 5-6.5h-3.5v-12.529c0.013661-0.98023-0.74317-1.4707-1.5-1.4707zm-10 0.5-5 6.5h3.5v12.529c-0.02732 1.9605 3.0273 1.9605 3 0v-12.529h3.5z" fill="#fff"/>
  <path d="m10.699 1c-4.8198 0-8.6992 3.8794-8.6992 8.6992v1c0-4.8198 3.8794-8.6992 8.6992-8.6992h11.602c4.8198 0 8.6992 3.8794 8.6992 8.6992v-1c0-4.8198-3.8794-8.6992-8.6992-8.6992z" fill="#fff" opacity=".1"/>
 </g>
 <g id="32-32-system-log-out" transform="translate(128)">
  <rect width="32" height="32" opacity=".001"/>
  <circle cx="16.5" cy="16.5" r="14.5" opacity=".2"/>
  <circle cx="16.5" cy="15.5" r="14.5" fill="#4caf50"/>
  <path d="m16.039 6.0098c-0.3087 0.0135-0.61576 0.041602-0.92187 0.082031-2.4489 0.32344-4.7861 1.5034-6.5176 3.4785-3.4629 3.9502-3.4678 9.8875-0.011719 13.844 3.456 3.9562 9.3359 4.7442 13.709 1.8359a1.5003 1.5018 0 1 0-1.6602-2.502c-3.1401 2.0883-7.3094 1.5322-9.791-1.3086-2.4816-2.8408-2.4768-7.0522 0.0098-9.8887 2.4866-2.8364 6.6565-3.3867 9.793-1.293a1.4998 1.5012 0 1 0 1.664-2.498c-1.911-1.2757-4.1125-1.8445-6.2734-1.75zm6.9609 5.2402v3.75h-5.5c-0.82843 0-1.5 0.67156-1.5 1.5s0.67157 1.5 1.5 1.5h5.5v3.75l6.5-5.25z" opacity=".2"/>
  <path d="m16.039 5.0098c-0.3087 0.0135-0.61576 0.041602-0.92187 0.082031-2.4489 0.32344-4.7861 1.5034-6.5176 3.4785-3.4629 3.9502-3.4678 9.8875-0.011719 13.844 3.456 3.9562 9.3359 4.7442 13.709 1.8359a1.5003 1.5018 0 1 0-1.6602-2.502c-3.1401 2.0883-7.3094 1.5322-9.791-1.3086-2.4816-2.8408-2.4768-7.0522 0.0098-9.8887 2.4866-2.8364 6.6565-3.3867 9.793-1.293a1.4998 1.5012 0 1 0 1.664-2.498c-1.911-1.2757-4.1125-1.8445-6.2734-1.75zm6.9609 5.2402v3.75h-5.5c-0.82843 0-1.5 0.67156-1.5 1.5s0.67157 1.5 1.5 1.5h5.5v3.75l6.5-5.25z" fill="#fff"/>
  <path d="M 16.5,1 A 14.5,14.5 0 0 0 2,15.5 14.5,14.5 0 0 0 2.0214844,16.080078 14.5,14.5 0 0 1 16.5,2 14.5,14.5 0 0 1 30.978516,15.919922 14.5,14.5 0 0 0 31,15.5 14.5,14.5 0 0 0 16.5,1 Z" fill="#fff" opacity=".2"/>
 </g>
 <g id="system-shutdown" transform="matrix(2 0 0 2 61 55)">
  <rect x=".5" y="-.5" width="32" height="32" opacity=".001"/>
  <circle cx="16.5" cy="16" r="14.5" opacity=".2"/>
  <circle cx="16.5" cy="15.5" r="14.5" fill="#f44336"/>
  <path d="m16.477 4.5a1.5002 1.4948 0 0 0-1.4766 1.5156v8.9688a1.5002 1.4948 0 1 0 3 0v-8.9688a1.5002 1.4948 0 0 0-1.5234-1.5156zm-4.9863 2.5a1.5003 1.4995 0 0 0-0.80078 0.26172c-3.8459 2.5538-5.5729 7.3396-4.2461 11.76 1.3269 4.4202 5.4022 7.4624 10.02 7.4785 4.6174 0.01611 8.7165-2.9974 10.074-7.4082 1.3577-4.4108-0.33802-9.2085-4.166-11.789a1.5003 1.4995 0 1 0-1.6777 2.4863c2.7434 1.8494 3.9476 5.2589 2.9746 8.4199s-3.8843 5.3045-7.1934 5.293c-3.3091-0.01155-6.2073-2.176-7.1582-5.3438-0.9509-3.1678 0.277-6.5663 3.0332-8.3965a1.5003 1.4995 0 0 0-0.85938-2.7617z" opacity=".2"/>
  <path d="m16.477 4a1.5002 1.4948 0 0 0-1.4766 1.5156v8.9688a1.5002 1.4948 0 1 0 3 0v-8.9688a1.5002 1.4948 0 0 0-1.5234-1.5156zm-4.9863 2.5a1.5003 1.4995 0 0 0-0.80078 0.26172c-3.8459 2.5538-5.5729 7.3396-4.2461 11.76 1.3269 4.4202 5.4022 7.4624 10.02 7.4785 4.6174 0.01611 8.7165-2.9974 10.074-7.4082 1.3577-4.4108-0.33802-9.2085-4.166-11.789a1.5003 1.4995 0 1 0-1.6777 2.4863c2.7434 1.8494 3.9476 5.2589 2.9746 8.4199s-3.8843 5.3045-7.1934 5.293c-3.3091-0.01155-6.2073-2.176-7.1582-5.3438-0.9509-3.1678 0.277-6.5663 3.0332-8.3965a1.5003 1.4995 0 0 0-0.85938-2.7617z" fill="#fff"/>
  <path transform="matrix(.5 0 0 .5 -64 67.5)" d="m161-133a29 29 0 0 0-29 29 29 29 0 0 0 0.0176 0.48828 29 29 0 0 1 28.982-28.488 29 29 0 0 1 28.975 28.494 29 29 0 0 0 0.02539-0.49414 29 29 0 0 0-29-29z" fill="#fff" opacity=".2"/>
 </g>
 <g id="system-save-session" transform="matrix(2 0 0 2 -2.9997 55)">
  <rect x=".5" y="-.5" width="32" height="32" opacity=".001"/>
  <rect x="2" y="1.5" width="29" height="29" rx="8.7" ry="8.7" opacity=".2"/>
  <rect x="2" y="1" width="29" height="29" rx="8.7" ry="8.7" fill="#e91e63"/>
  <path d="m7.5 5.5c-0.825 0-1.5 0.675-1.5 1.5v16.5l3 3h16.5c0.825 0 1.5-0.675 1.5-1.5v-18c0-0.825-0.675-1.5-1.5-1.5zm1.5 3h15v15h-2v-8h-11v8h-2zm8 9h3v6h-3z" opacity=".2"/>
  <path d="m7.5 5c-0.825 0-1.5 0.675-1.5 1.5v16.5l3 3h16.5c0.825 0 1.5-0.675 1.5-1.5v-18c0-0.825-0.675-1.5-1.5-1.5zm1.5 3h15v15h-2v-8h-11v8h-2zm8 9h3v6h-3z" fill="#fff"/>
  <path transform="matrix(.5 0 0 .5 -32 67.5)" d="m85.398-133c-9.6396 0-17.398 7.7588-17.398 17.398v1c0-9.6396 7.7588-17.398 17.398-17.398h23.203c9.6396 0 17.398 7.7588 17.398 17.398v-1c0-9.6396-7.7588-17.398-17.398-17.398z" fill="#fff" opacity=".2"/>
 </g>
 <g id="system-reboot" transform="matrix(2 0 0 2 125 55)">
  <rect x=".5" y="-.5" width="32" height="32" opacity=".001"/>
  <circle cx="16.5" cy="16" r="14.5" opacity=".2"/>
  <circle cx="16.5" cy="15.5" r="14.5" fill="#ff9800"/>
  <path d="m16.471 6.4998c-1.9611-0.02773-1.9611 3.0023 0 2.9746 1.9099 0 3.7713 0.83494 5.0117 2.2871 0.90628 1.061 1.4301 2.3731 1.5332 3.7383h-3.0156l4.5 6 4.5-6h-3.0898c-0.1078-2.051-0.86568-4.0324-2.2227-5.6211-1.7903-2.0959-4.4602-3.3789-7.2168-3.3789zm-7.9707 4-4.5 6h3.0898c0.1078 2.051 0.86568 4.0324 2.2227 5.6211 1.7903 2.0959 4.4602 3.3789 7.2168 3.3789 1.9611 0.02773 1.9611-3.0023 0-2.9746-1.9099 0-3.7713-0.83494-5.0117-2.2871-0.90628-1.061-1.4301-2.3731-1.5332-3.7383h3.0156l-2.25-3z" opacity=".2"/>
  <path d="m16.471 5.9998c-1.9611-0.02773-1.9611 3.0023 0 2.9746 1.9099 0 3.7713 0.83494 5.0117 2.2871 0.90628 1.061 1.4301 2.3731 1.5332 3.7383h-3.0156l4.5 6 4.5-6h-3.0898c-0.1078-2.051-0.86568-4.0324-2.2227-5.6211-1.7903-2.0959-4.4602-3.3789-7.2168-3.3789zm-7.9707 4-4.5 6h3.0898c0.1078 2.051 0.86568 4.0324 2.2227 5.6211 1.7903 2.0959 4.4602 3.3789 7.2168 3.3789 1.9611 0.02773 1.9611-3.0023 0-2.9746-1.9099 0-3.7713-0.83494-5.0117-2.2871-0.90628-1.061-1.4301-2.3731-1.5332-3.7383h3.0156l-2.25-3z" fill="#fff"/>
  <path transform="matrix(.5 0 0 .5 -96 67.5)" d="m225-133a29 29 0 0 0-29 29 29 29 0 0 0 0.0176 0.48828 29 29 0 0 1 28.982-28.488 29 29 0 0 1 28.975 28.494 29 29 0 0 0 0.02539-0.49414 29 29 0 0 0-29-29z" fill="#fff" opacity=".2"/>
 </g>
 <g id="system-suspend" transform="matrix(2 0 0 2 189 55)">
  <rect x=".5" y="-.5" width="32" height="32" opacity=".001"/>
  <circle cx="16.5" cy="16" r="14.5" opacity=".2"/>
  <circle cx="16.5" cy="15.5" r="14.5" fill="#00bcd4"/>
  <path d="m16.5 5.5a10.5 10.5 0 0 0-10.5 10.5 10.5 10.5 0 0 0 10.5 10.5 10.5 10.5 0 0 0 10.5-10.5 10.5 10.5 0 0 0-10.5-10.5zm0 3a7.5 7.5 0 0 1 7.5 7.5 7.5 7.5 0 0 1-7.5 7.5 7.5 7.5 0 0 1-7.5-7.5 7.5 7.5 0 0 1 7.5-7.5zm-2.9844 6a1.4932 1.5002 0 1 0 0 3h5.9707a1.4932 1.5002 0 1 0 0-3z" opacity=".2"/>
  <path d="m16.5 5a10.5 10.5 0 0 0-10.5 10.5 10.5 10.5 0 0 0 10.5 10.5 10.5 10.5 0 0 0 10.5-10.5 10.5 10.5 0 0 0-10.5-10.5zm0 3a7.5 7.5 0 0 1 7.5 7.5 7.5 7.5 0 0 1-7.5 7.5 7.5 7.5 0 0 1-7.5-7.5 7.5 7.5 0 0 1 7.5-7.5zm-2.9844 6a1.4932 1.5002 0 1 0 0 3h5.9707a1.4932 1.5002 0 1 0 0-3z" fill="#fff"/>
  <path transform="matrix(.5 0 0 .5 -128 67.5)" d="m289-133a29 29 0 0 0-29 29 29 29 0 0 0 0.0176 0.48828 29 29 0 0 1 28.982-28.488 29 29 0 0 1 28.975 28.494 29 29 0 0 0 0.02539-0.49414 29 29 0 0 0-29-29z" fill="#fff" opacity=".2"/>
 </g>
 <g id="system-suspend-hibernate" transform="matrix(2 0 0 2 253 55)">
  <rect x=".5" y="-.5" width="32" height="32" opacity=".001"/>
  <circle cx="16.5" cy="16" r="14.5" opacity=".2"/>
  <circle cx="16.5" cy="15.5" r="14.5" fill="#673ab7"/>
  <path d="m16.5 5.5a10.5 10.5 0 0 0-10.5 10.5 10.5 10.5 0 0 0 10.5 10.5 10.5 10.5 0 0 0 10.5-10.5 10.5 10.5 0 0 0-10.5-10.5zm0 3a7.5 7.5 0 0 1 7.5 7.5 7.5 7.5 0 0 1-7.5 7.5 7.5 7.5 0 0 1-7.5-7.5 7.5 7.5 0 0 1 7.5-7.5zm0 4a3.5 3.5 0 0 0-3.5 3.5 3.5 3.5 0 0 0 3.5 3.5 3.5 3.5 0 0 0 3.5-3.5 3.5 3.5 0 0 0-3.5-3.5z" opacity=".2"/>
  <path d="m16.5 5a10.5 10.5 0 0 0-10.5 10.5 10.5 10.5 0 0 0 10.5 10.5 10.5 10.5 0 0 0 10.5-10.5 10.5 10.5 0 0 0-10.5-10.5zm0 3a7.5 7.5 0 0 1 7.5 7.5 7.5 7.5 0 0 1-7.5 7.5 7.5 7.5 0 0 1-7.5-7.5 7.5 7.5 0 0 1 7.5-7.5zm0 4a3.5 3.5 0 0 0-3.5 3.5 3.5 3.5 0 0 0 3.5 3.5 3.5 3.5 0 0 0 3.5-3.5 3.5 3.5 0 0 0-3.5-3.5z" fill="#fff"/>
  <path transform="matrix(.5 0 0 .5 -160 67.5)" d="m353-133a29 29 0 0 0-29 29 29 29 0 0 0 0.0176 0.48828 29 29 0 0 1 28.982-28.488 29 29 0 0 1 28.975 28.494 29 29 0 0 0 0.02539-0.49414 29 29 0 0 0-29-29z" fill="#fff" opacity=".1"/>
 </g>
 <g id="system-lock-screen" transform="matrix(2 0 0 2 381 55)">
  <rect x=".5" y="-.5" width="32" height="32" opacity=".001"/>
  <rect x="2" y="1.5" width="29" height="29" rx="8.7" ry="8.7" opacity=".2"/>
  <rect x="2" y="1" width="29" height="29" rx="8.7" ry="8.7" fill="#ff5722"/>
  <path d="m16.5 5.5c-3.5087 0-6.5 2.676-6.5 6v3h-1.4167c-0.87717 0-1.5833 0.669-1.5833 1.5v9c0 0.831 0.70617 1.5 1.5833 1.5h15.833c0.87717 0 1.5833-0.669 1.5833-1.5v-9c0-0.831-0.70617-1.5-1.5833-1.5h-1.4167v-3c0-3.324-2.9913-6-6.5-6zm0 3c1.7543 0 3.6835 1.3482 3.5 3v3h-7v-3c0-1.662 1.7457-3 3.5-3z" opacity=".2"/>
  <path d="m16.5 5c-3.5087 0-6.5 2.676-6.5 6v3h-1.4167c-0.87717 0-1.5833 0.669-1.5833 1.5v9c0 0.831 0.70617 1.5 1.5833 1.5h15.833c0.87717 0 1.5833-0.669 1.5833-1.5v-9c0-0.831-0.70617-1.5-1.5833-1.5h-1.4167v-3c0-3.324-2.9913-6-6.5-6zm0 3c1.7543 0 3.6835 1.3482 3.5 3v3h-7v-3c0-1.662 1.7457-3 3.5-3z" fill="#fff"/>
  <path transform="matrix(.5 0 0 .5 -224 67.5)" d="m469.4-133c-9.6396 0-17.398 7.7588-17.398 17.398v1c0-9.6396 7.7588-17.398 17.398-17.398h23.203c9.6396 0 17.398 7.7588 17.398 17.398v-1c0-9.6396-7.7588-17.398-17.398-17.398z" fill="#fff" opacity=".2"/>
 </g>
 <g id="system-switch-user" transform="matrix(2 0 0 2 445 55)">
  <rect x=".5" y="-.5" width="32" height="32" opacity=".001"/>
  <rect x="2" y="1.5" width="29" height="29" rx="8.7" ry="8.7" opacity=".2"/>
  <rect x="2" y="1" width="29" height="29" rx="8.7" ry="8.7" fill="#3f51b5"/>
  <path d="m21.5 5.5c-0.75683 0-1.5137 0.49047-1.5 1.4707v12.529h-3.5l5 6.5 5-6.5h-3.5v-12.529c0.013661-0.98023-0.74317-1.4707-1.5-1.4707zm-10 0.5-5 6.5h3.5v12.529c-0.02732 1.9605 3.0273 1.9605 3 0v-12.529h3.5z" opacity=".2"/>
  <path d="m21.5 5c-0.75683 0-1.5137 0.49047-1.5 1.4707v12.529h-3.5l5 6.5 5-6.5h-3.5v-12.529c0.013661-0.98023-0.74317-1.4707-1.5-1.4707zm-10 0.5-5 6.5h3.5v12.529c-0.02732 1.9605 3.0273 1.9605 3 0v-12.529h3.5z" fill="#fff"/>
  <path transform="matrix(.5 0 0 .5 -256 67.5)" d="m533.4-133c-9.6396 0-17.398 7.7588-17.398 17.398v1c0-9.6396 7.7588-17.398 17.398-17.398h23.203c9.6396 0 17.398 7.7588 17.398 17.398v-1c0-9.6396-7.7588-17.398-17.398-17.398z" fill="#fff" opacity=".1"/>
 </g>
 <g id="system-log-out" transform="matrix(2 0 0 2 317 55)">
  <rect x=".5" y="-.5" width="32" height="32" opacity=".001"/>
  <circle cx="16.5" cy="16" r="14.5" opacity=".2"/>
  <circle cx="16.5" cy="15.5" r="14.5" fill="#4caf50"/>
  <path d="m16.039 5.5098c-0.3087 0.0135-0.61576 0.041602-0.92187 0.082031-2.4489 0.32344-4.7861 1.5034-6.5176 3.4785-3.4629 3.9502-3.4678 9.8875-0.011719 13.844 3.456 3.9562 9.3359 4.7442 13.709 1.8359a1.5003 1.5018 0 1 0-1.6602-2.502c-3.1401 2.0883-7.3094 1.5322-9.791-1.3086-2.4816-2.8408-2.4768-7.0522 0.0098-9.8887 2.4866-2.8364 6.6565-3.3867 9.793-1.293a1.4998 1.5012 0 1 0 1.664-2.498c-1.911-1.2757-4.1125-1.8445-6.2734-1.75zm6.9609 5.2402v3.75h-5.5c-0.82843 0-1.5 0.67156-1.5 1.5s0.67157 1.5 1.5 1.5h5.5v3.75l6.5-5.25z" opacity=".2"/>
  <path d="m16.039 5.0098c-0.3087 0.0135-0.61576 0.041602-0.92187 0.082031-2.4489 0.32344-4.7861 1.5034-6.5176 3.4785-3.4629 3.9502-3.4678 9.8875-0.011719 13.844 3.456 3.9562 9.3359 4.7442 13.709 1.8359a1.5003 1.5018 0 1 0-1.6602-2.502c-3.1401 2.0883-7.3094 1.5322-9.791-1.3086-2.4816-2.8408-2.4768-7.0522 0.0098-9.8887 2.4866-2.8364 6.6565-3.3867 9.793-1.293a1.4998 1.5012 0 1 0 1.664-2.498c-1.911-1.2757-4.1125-1.8445-6.2734-1.75zm6.9609 5.2402v3.75h-5.5c-0.82843 0-1.5 0.67156-1.5 1.5s0.67157 1.5 1.5 1.5h5.5v3.75l6.5-5.25z" fill="#fff"/>
  <path transform="matrix(.5 0 0 .5 -192 67.5)" d="m417-133a29 29 0 0 0-29 29 29 29 0 0 0 0.0176 0.48828 29 29 0 0 1 28.982-28.488 29 29 0 0 1 28.975 28.494 29 29 0 0 0 0.02539-0.49414 29 29 0 0 0-29-29z" fill="#fff" opacity=".2"/>
 </g>
 <g id="system-users" transform="translate(224)">
  <rect width="32" height="32" opacity=".001"/>
  <circle cx="16" cy="17" r="14" fill="#00100f" opacity=".2"/>
  <circle cx="16" cy="16" r="14" fill="#009587"/>
  <g transform="translate(0,1)" opacity=".2">
   <path d="m16 6c-2.2096 0-4 1.7912-4 4s1.7904 4 4 4 4-1.7912 4-4-1.7904-4-4-4z"/>
   <path d="m16 16c-6.9993 0.0042-7 4.4308-7 4.4308v1.8s1.2923 2.7692 7 2.7692 7-2.7692 7-2.7692v-1.8s0-4.4335-6.9986-4.4308z"/>
  </g>
  <g fill="#fff">
   <path d="m16 6c-2.2096 0-4 1.7912-4 4s1.7904 4 4 4 4-1.7912 4-4-1.7904-4-4-4z"/>
   <path d="m16 16c-6.9993 0.0042-7 4.4308-7 4.4308v1.8s1.2923 2.7692 7 2.7692 7-2.7692 7-2.7692v-1.8s0-4.4335-6.9986-4.4308z"/>
  </g>
  <path d="M 16,2 A 14,14 0 0 0 2,16 14,14 0 0 0 2.0214844,16.585938 14,14 0 0 1 16,3 14,14 0 0 1 29.978516,16.414062 14,14 0 0 0 30,16 14,14 0 0 0 16,2 Z" fill="#fff" opacity=".2"/>
 </g>
 <g id="system-user-prompt" transform="translate(288)">
  <rect width="32" height="32" opacity=".001"/>
  <circle cx="16" cy="17" r="14" opacity=".2"/>
  <circle cx="16" cy="16" r="14" fill="#818181"/>
  <path d="m7.8867 11a0.88579 0.78166 0 0 0-0.76758 1.1719l1.8809 2.875v5.1289c0 1.5642 1.2746 2.8242 2.8574 2.8242h9.2852c1.5829 0 2.8574-1.26 2.8574-2.8242v-6.3516c0-1.5642-1.2746-2.8242-2.8574-2.8242h-9.2852z" opacity=".2"/>
  <rect x="9" y="10" width="15" height="12" rx="2.857" ry="2.824" fill="#fff"/>
  <path d="m7.8867 10a0.88579 0.78166 0 0 0-0.76807 1.1724l2.0084 3.0683 2.0067 3.0683a0.88579 0.78166 0 0 0 1.5344 0l4.0133-6.1367a0.88579 0.78166 0 0 0-0.76634-1.1724h-4.0151z" fill="#fff"/>
  <rect x="11" y="13" width="11" height="1" rx=".5" ry=".5" fill="#4a8bf4"/>
  <rect x="11.1" y="19" width="8" height="1" rx=".5" ry=".5" fill="#4a8bf4"/>
  <rect x="11" y="16" width="11" height="1" rx=".5" ry=".5" fill="#4a8bf4"/>
  <path d="M 16,2 A 14,14 0 0 0 2,16 14,14 0 0 0 2.0214844,16.585938 14,14 0 0 1 16,3 14,14 0 0 1 29.978516,16.414062 14,14 0 0 0 30,16 14,14 0 0 0 16,2 Z" fill="#fff" opacity=".1"/>
 </g>
 <g id="system-user-list" transform="translate(256)">
  <rect width="32" height="32" opacity=".001"/>
  <circle cx="16" cy="17" r="14" fill="#00100f" opacity=".2"/>
  <circle cx="16" cy="16" r="14" fill="#8e24aa"/>
  <path d="m19 9c-1.6572 0-3 1.3434-3 3 0 1.6566 1.3428 3 3 3 1.6572 0 3-1.3434 3-3 0-1.6566-1.3428-3-3-3zm-6 3c-1.6572 0-3 1.3434-3 3 0 1.6566 1.3428 3 3 3 1.6572 0 3-1.3434 3-3 0-1.6566-1.3428-3-3-3zm6 4c-0.88919 4.98e-4 -1.6177 0.09621-2.2188 0.25-0.31193 0.87444-0.93573 1.6024-1.7227 2.0918 1.3981 0.31563 2.5066 0.81025 3.0801 1.4883 0.83706 0.98966 0.86133 2.123 0.86133 2.123v0.046875c4.0769 0 5-1.8457 5-1.8457v-1.2012s9.54e-4 -2.955-4.998-2.9531zm-6 3c-4.9995 0.0028-5 2.9531-5 2.9531v1.2012s0.92307 1.8457 5 1.8457c4.0769 0 5-1.8457 5-1.8457v-1.2012s9.54e-4 -2.955-4.998-2.9531z" opacity=".2"/>
  <path d="m19 8c-1.6572 0-3 1.3434-3 3 0 1.6566 1.3428 3 3 3 1.6572 0 3-1.3434 3-3 0-1.6566-1.3428-3-3-3zm-6 3c-1.6572 0-3 1.3434-3 3 0 1.6566 1.3428 3 3 3 1.6572 0 3-1.3434 3-3 0-1.6566-1.3428-3-3-3zm6 4c-0.88919 4.98e-4 -1.6177 0.09621-2.2188 0.25-0.31193 0.87444-0.93573 1.6024-1.7227 2.0918 1.3981 0.31563 2.5066 0.81025 3.0801 1.4883 0.83706 0.98966 0.86133 2.123 0.86133 2.123v0.046875c4.0769 0 5-1.8457 5-1.8457v-1.2012s9.54e-4 -2.955-4.998-2.9531zm-6 3c-4.9995 0.0028-5 2.9531-5 2.9531v1.2012s0.92307 1.8457 5 1.8457c4.0769 0 5-1.8457 5-1.8457v-1.2012s9.54e-4 -2.955-4.998-2.9531z" fill="#fff"/>
  <path d="M 16,2 A 14,14 0 0 0 2,16 14,14 0 0 0 2.0214844,16.585938 14,14 0 0 1 16,3 14,14 0 0 1 29.978516,16.414062 14,14 0 0 0 30,16 14,14 0 0 0 16,2 Z" fill="#fff" opacity=".1"/>
 </g>
 <g id="22-22-system-user-prompt" transform="translate(183,-45)">
  <rect x="5" y="5" width="22" height="22" opacity=".001"/>
  <path d="m8.8357 10c-0.64199-7.92e-4 -1.0433 0.60189-0.72265 1.084l1.4902 2.8359 0.39844 0.59766v3.8926c0 1.4339 1.1549 2.5898 2.5898 2.5898h8.8184c1.435 0 2.5898-1.156 2.5898-2.5898v-5.8203c0-1.4339-1.1549-2.5898-2.5898-2.5898h-9.1973zm4.4941 2h7.2734c0.20146 0 0.36328 0.223 0.36328 0.5 0 0.277-0.16182 0.5-0.36328 0.5h-7.2734c-0.20145 0-0.36328-0.223-0.36328-0.5 0-0.277 0.16183-0.5 0.36328-0.5zm0 3h7.2734c0.20146 0 0.36328 0.223 0.36328 0.5 0 0.277-0.16182 0.5-0.36328 0.5h-7.2734c-0.20145 0-0.36328-0.223-0.36328-0.5 0-0.277 0.16183-0.5 0.36328-0.5zm0.0996 3h5.1426c0.23743 0 0.42773 0.223 0.42773 0.5s-0.1903 0.5-0.42773 0.5h-5.1426c-0.23743 0-0.42969-0.223-0.42969-0.5s0.19226-0.5 0.42969-0.5z" fill="#dfdfdf"/>
 </g>
 <g id="22-22-system-user-list" transform="translate(161,-45)">
  <rect x="5" y="5" width="22" height="22" opacity=".001"/>
  <path d="m19 8c-1.6572 0-3 1.3434-3 3s1.3428 3 3 3 3-1.3434 3-3-1.3428-3-3-3zm-6 3c-1.6572 0-3 1.3434-3 3s1.3428 3 3 3 3-1.3434 3-3-1.3428-3-3-3zm6 4c-0.88919 5e-4 -1.6177 0.0962-2.2188 0.25-0.31193 0.87444-0.93573 1.6024-1.7227 2.0918 1.3981 0.31564 2.5066 0.81025 3.0801 1.4883 0.83706 0.98967 0.86133 2.123 0.86133 2.123v0.0469c4.0769 0 5-1.8457 5-1.8457v-1.2012s9.5e-4 -2.955-4.998-2.9531zm-6 3c-4.9995 3e-3 -5 2.9531-5 2.9531v1.2012s0.92307 1.8457 5 1.8457 5-1.8457 5-1.8457v-1.2012s9.5e-4 -2.955-4.998-2.9531z" fill="#dfdfdf"/>
 </g>
 <g id="22-22-system-users" transform="translate(139,-45)">
  <rect x="5" y="5" width="22" height="22" opacity=".001"/>
  <path d="m16 8c-1.6572 0-3 1.3434-3 3 0 1.6566 1.3428 3 3 3s3-1.3434 3-3c0-1.6566-1.3428-3-3-3zm0 7c-5.9994 0.0037-6 3.9375-6 3.9375v1.6016s1.1077 2.4609 6 2.4609c4.8923 0 6-2.4609 6-2.4609v-1.6016s7.53e-4 -3.94-5.998-3.9375z" fill="#dfdfdf"/>
 </g>
</svg>
