<?xml version="1.0" encoding="UTF-8"?>
<svg width="32" height="32" version="1.1" xmlns="http://www.w3.org/2000/svg">
 <g id="22-22-TeamViewer" transform="translate(32,10)">
  <rect width="22" height="22" opacity=".001"/>
  <path d="m11 3c-4.4179-1e-7 -8 3.5821-8 8-1e-7 4.4179 3.5821 8 8 8 4.4179 0 8-3.5821 8-8 0-4.4179-3.5821-8-8-8zm-2 5v2h4v-2l3 3-3 3v-2h-4v2l-3-3z" fill="#dfdfdf"/>
 </g>
 <g id="TeamViewer">
  <rect width="32" height="32" opacity=".001"/>
  <rect transform="matrix(0,-1,-1,0,0,0)" x="-31" y="-30" width="28" height="28" rx="8.4" ry="8.4" opacity=".2"/>
  <rect transform="matrix(0,-1,-1,0,0,0)" x="-30" y="-30" width="28" height="28" rx="8.4" ry="8.4" fill="#4e7ad9"/>
  <path d="m16 6c-6.0751 0-11 4.9249-11 11s4.9249 11 11 11c6.0751 0 11-4.9249 11-11s-4.9249-11-11-11zm-4 6.5v2.5h8v-2.5l6 4.5-6 4.5v-2.5h-8v2.5l-6-4.5z" opacity=".2"/>
  <path d="m16 5c-6.0751 0-11 4.9249-11 11 0 6.0751 4.9249 11 11 11 6.0751 0 11-4.9249 11-11 0-6.0751-4.9249-11-11-11zm-4 6.5v2.5h8v-2.5l6 4.5-6 4.5v-2.5h-8v2.5l-6-4.5z" fill="#fff"/>
  <path d="m10.4 2c-4.6536 0-8.4004 3.7468-8.4004 8.4004v1c0-4.6536 3.7468-8.4004 8.4004-8.4004h11.199c4.6536 0 8.4004 3.7468 8.4004 8.4004v-1c0-4.6536-3.7468-8.4004-8.4004-8.4004z" fill="#fff" opacity=".2"/>
 </g>
</svg>
