<?xml version="1.0" encoding="UTF-8"?>
<svg width="32" height="32" version="1.1" xml:space="preserve" xmlns="http://www.w3.org/2000/svg">
 <g id="thunderbird">
  <rect width="32" height="32" opacity=".001"/>
  <path d="m13 3.0003c-2.191 0.058478-3.4763 2.1283-4.3984 3.9219-0.17523 0.092854-0.35089 0.18258-0.52539 0.2793-1.7407 1.1703-3.1665 2.7913-4.2676 4.5645-0.96854 1.7096-1.5553 3.6118-1.7734 5.5605-0.12965 1.9757 0.095855 3.9875 0.83984 5.8359 1.4084 3.1749 4.8947 6.8775 8.125 6.8379-0.69984-0.40463-2.4515-1.9907-3-5 0.58226 1.1404 3.211 2.6529 4 3-0.39195-0.36601-1.8969-2.5608-2-3.8496l-5.0254-1.5449c-0.4435-1.4029-0.70755-2.8545-0.86914-4.3379-0.020632-0.33146-0.062782-0.68992 0.056641-0.60156 0.44673 0.70803 1.0624 0.93198 1.8379 1.334-0.73546-1.1567-1.0701-2.4824-0.94922-3.8574 0.12131-1.3797 0.89898-2.7178 1.7539-3.709 0.10132-0.11599 0.21491-0.22585 0.32031-0.33984 0.045713 0.35497 0.10521 0.70941 0.14648 1.0527-0.012278 0.26567 0.1509 0.82272 0.023437 0.87891-0.25715 0.77681-0.50356 1.7807 0.11133 2.459 0.19476-0.87798 1.1531-1.3026 1.9082-1.6719 0.85358-0.37058 1.5455-0.93084 2.3906-1.3203 1.1137-0.63887 2.1885 0.30273 3.6191 0.30273 1.3678 0 2.8125-0.79178 4.166-1.4004 0.315 0.32586 0.87868 0.85552 1.125 1.2422h-0.0039c0.70549 1.1283 1.1948 2.4393 1.3555 3.7266 0.20048 1.6837 0.03266 3.3618-0.96289 4.6367 0.02052 0.0027 1.8051 0.13041 2.9961-1-0.84974 6.5702-4.8784 10.082-7 11 2.8242 0.19007 5-2 5-2 0.41071-0.58496-0.99275 1.3981-2 2 1.8455-0.51675 3.0815-0.70496 4.2461-1.5547-4.36e-4 0 0.94634-0.51454 1.9336-1.6406 0.13134-0.14981 0.35697-0.35869 0.49219-0.5293 0.08405-0.10606 0.16199-0.21375 0.24414-0.32031 0.01448-0.01752 0.031-0.03496 0.04492-0.05273 2.0779-2.5419 3.0887-5.7024 3.0137-8.5664 0.014586-3.4718-1.3947-6.4851-3.7617-8.9766-1.7118-1.8018-3.6554-3.0031-5.4062-3.5996-2.2684-0.65138-5.0664-0.92957-7.0684-0.55078-0.18959 0.063386 0.02773-1.0426 0.26172-1.209-0.49911 0.046723-1.0304 1.0027-1.4629 1.416-0.03138 0.00734-0.06991 0.013685-0.09961 0.021484 0.2661-0.53486 0.1496-0.90005 0.5625-1.4375-1.199 0.22385-1.4337 1.0079-1.8496 1.791-0.15813 0.053385-0.31135 0.11869-0.4668 0.17773 0.39402-1.3063 1.1108-1.9716 2.3164-2.9688z" opacity=".2"/>
  <path d="m6.4262 24.918c1.215 1.7475 2.7833 3.8064 4.5738 4.0825-0.69984-0.40463-2.4515-1.9907-3-5 0.58226 1.1404 3.211 2.6529 4 3-0.39195-0.36601-1.8969-2.5612-2-3.85l-5.0443-1.5508c0.031428 0.04782 0.14309 1.4513 1.4705 3.3183z" fill="#304776"/>
  <path d="m24.388 13.494-9.0949-3.1895-9.7468 0.64948-2.4876 3.1044c0.44263 2.8696 0.16762 5.976 1.7091 8.4831l17.232 5.4584 2.3732-6.6242z" opacity=".2"/>
  <path d="m24.388 12.494-9.0949-3.1895-9.7468 0.64947-2.4876 3.1044c0.44263 2.8696 0.16762 5.976 1.7091 8.4831l17.232 5.4584 2.3732-6.6242z" fill="#ebebeb"/>
  <path d="m5.7794 9.7676 1.6421 0.23452 0.45082-2.1976-0.90163 0.43951z" fill="#3f7da7" fill-rule="evenodd"/>
  <path d="m23.648 15.243-1.3493-4.4326-16.504-0.16564-0.093576 0.1153-0.15466 0.19386 6.2487 8.8364z" opacity=".2"/>
  <path d="m23.648 14.243-1.3493-4.4326-16.504-0.16564-0.093576 0.1153-0.15466 0.19386 6.2487 8.8364z" fill="#f7f7f7"/>
  <path d="m15.257 4.1685c-0.0017 3.96e-4 -2.0751 0.00999-2.9802 0.30061-1.5081 0.34803-2.8611 0.98959-4.2017 1.7326-1.7407 1.1703-3.1662 2.7907-4.2673 4.5638-0.96854 1.7096-1.5554 3.6112-1.7736 5.5599-0.12965 1.9757 0.096358 3.9889 0.84035 5.8373 1.4084 3.1749 4.8948 6.8767 8.1251 6.8372-0.41032-0.063267-0.72276-0.47879-1.1082-0.70411-1.2964-0.7579-2.5291-2.0314-3.4656-3.3783-1.3274-1.867-1.4388-3.2698-1.4703-3.3177l0.017763 0.0055c-0.4435-1.4029-0.70745-2.8537-0.86904-4.337-0.020632-0.33146-0.062033-0.69094 0.05739-0.60259 0.44673 0.70803 1.0625 0.93225 1.838 1.3342-0.73546-1.1567-1.0709-2.483-0.95-3.858 0.12131-1.3797 0.89976-2.7173 1.7547-3.7085 2.2398-2.5642 5.508-4.6386 8.4527-6.265z" fill="#2f67a4"/>
  <path d="m15.258 4.168c-0.0017 3.96e-4 -2.0754 0.01016-2.9805 0.30078-1.5081 0.34803-2.8606 0.98939-4.2012 1.7324-1.7407 1.1703-3.1665 2.7913-4.2676 4.5645-0.96854 1.7096-1.5553 3.6118-1.7734 5.5605-0.036687 0.55909-0.037621 1.1192-0.013672 1.6797 0.00528-0.22685-0.00117-0.45352 0.013672-0.67969 0.21816-1.9487 0.8049-3.851 1.7734-5.5605 1.1011-1.7732 2.5269-3.3942 4.2676-4.5645 1.3406-0.74303 2.6931-1.3844 4.2012-1.7324 0.27674-0.088862 0.66383-0.14537 1.0664-0.18945 0.64315-0.38725 1.2872-0.76508 1.9141-1.1113z" fill="#fff" opacity=".1"/>
  <path d="m13 2c-2.3697 0.063246-3.7004 2.4899-4.6343 4.3629-0.33637 0.59531-0.68504 1.3017-0.97885 1.864-0.56234 0.8861-0.23227 1.9503-0.11571 2.9197-0.012278 0.26567 0.15047 0.82343 0.023001 0.87962-0.25715 0.77681-0.50219 1.7792 0.1127 2.4575 0.19476-0.87798 1.1529-1.301 1.908-1.6703 0.85358-0.37058 1.5445-0.93198 2.3897-1.3215 1.1137-0.63887 2.1891 0.30253 3.6197 0.30253 1.3678 0 2.8127-0.7906 4.1662-1.3992 0.315 0.32586 0.8784 0.85513 1.1247 1.2418h-0.0035c0.70549 1.1283 1.1946 2.4399 1.3553 3.7272 0.20048 1.6837 0.0325 3.36-0.96305 4.6349-1.18e-4 2e-5 -0.0079 0.0017-0.0079 0.0017 2.3e-5 0 0.0069-1.8e-5 7e-3 0 0.02052 0.0027 1.806 0.12956 2.997-1.0008-0.84974 6.5702-4.8784 10.082-7 11 2.8242 0.19007 5-2 5-2 0.41071-0.58496-0.99275 1.3981-2 2 1.8455-0.51675 3.0809-0.70455 4.2455-1.5543-4.36e-4 0 0.94632-0.51516 1.9336-1.6412 0.13134-0.14981 0.35699-0.35769 0.4922-0.5283 0.08405-0.10606 0.16175-0.21482 0.2439-0.32138 0.01448-0.01752 0.03099-0.03418 0.04491-0.05195 2.0779-2.5419 3.0899-5.7024 3.0148-8.5664 0.01459-3.4718-1.3945-6.4855-3.7615-8.977-1.7118-1.8018-3.6559-3.0041-5.4067-3.6006-2.2684-0.65138-5.0671-0.92908-7.0691-0.55029-0.18959 0.063386 0.028387-1.0422 0.26238-1.2086-0.5613 0.052545-1.1697 1.2967-1.6245 1.5737 0.37326-0.61841 0.17552-0.98925 0.62451-1.5737-1.6691 0.31162-1.4642 1.7042-2.4903 2.677 0.33806-1.8075 1.0835-2.5134 2.4903-3.677z" fill="#4a96e1"/>
  <path d="m8.3103 12c3.3336-0.09595 1.2405-2.162 5.6897-6-3.6247 1.8768-7.0747 1.8742-5.6854 6h-0.0042z" fill="#4271a3"/>
  <path d="m10.806 10.319c-0.31964 0.58383-1.0655 0.81913-1.478 0.59936-0.42165-0.21977-0.41938-0.95454-0.09298-1.5384 0.3151-0.58383 1.707-0.32188 1.7138-0.32188 0.0066 0 0.17682 0.67928-0.14282 1.2609z" fill="#fff"/>
  <path d="m8.9105 12.984s0.17951-0.17323 0.085935-0.49c-1.119 0.36999-1.6685-0.70115-1.6646-0.70115 0.00378 0-0.83836 2.2071 0.16689 3.2071 0.087079-0.8236 1.3702-1.9728 1.3741-1.9728" fill="#5c5f60"/>
  <path d="m13 2c-2.3697 0.063246-3.7009 2.4903-4.6348 4.3633-0.33637 0.59531-0.6847 1.301-0.97852 1.8633-0.34266 0.53995-0.34523 1.1473-0.27539 1.7578 0.04328-0.26115 0.12284-0.51743 0.27539-0.75781 0.29381-0.56229 0.64214-1.268 0.97852-1.8633 0.71735-1.4387 1.6756-3.1929 3.1523-3.9629 0.38384-0.4653 0.86598-0.89053 1.4824-1.4004zm0 1c-1.4068 1.1635-2.1522 1.8702-2.4902 3.6777 0.92584-0.8777 0.86214-2.09 2.0645-2.5488 0.11572-0.38317 0.094961-0.6983 0.42578-1.1289zm1 0c-0.37044 0.034678-0.75755 0.58105-1.1113 1.0332 0.040203-0.0093345 0.068736-0.025251 0.11133-0.033203-0.44899 0.58441-0.25174 0.95581-0.625 1.5742 0.36937-0.22491 0.84022-1.0794 1.3047-1.4238-0.058017-0.21583 0.1238-1.0107 0.32031-1.1504zm1.3672 1.043c-0.52598 0.015484-1.0218 0.065387-1.4844 0.14453-0.17833 0.35547-0.30084 1.0737-0.14453 1.0215 2.002-0.37879 4.8-0.1006 7.0684 0.55078 1.7508 0.59654 3.6944 1.7978 5.4062 3.5996 2.2988 2.4196 3.6829 5.3356 3.748 8.6816 0.0082-0.23586 0.01976-0.47264 0.01367-0.70508 0.014591-3.4718-1.3947-6.4851-3.7617-8.9766-1.7118-1.8018-3.6554-3.0031-5.4062-3.5996-1.7013-0.48854-3.7014-0.76796-5.4395-0.7168z" fill="#fff" opacity=".1"/>
 </g>
 <g id="22-22-thunderbird" transform="translate(27,5)">
  <rect x="5" y="5" width="22" height="22" opacity=".001"/>
  <path d="m17.818 13.311c-0.5678 0.23176-1.1015 0.48438-1.8242 0.48438-0.02606 3.7e-4 -0.05212-2.84e-4 -0.07813-2e-3 -1.2918-0.10124-1.8946-0.02099-2.8379 0.89843-0.07581 0.07372-0.16283 0.13518-0.25781 0.18164-0.05975 0.02922-0.11626 0.05116-0.17383 0.07617-0.06556 0.04068-0.13586 0.07308-0.20898 0.09766l1.5566 1.748 4.9141-1.5449c0.04003-0.14776 0.07825-0.31613 0.08399-0.30078-0.2267-0.92237-0.49696-1.3026-1.1738-1.6387zm-5.6738 1.9062c-0.20877 0.43906-0.69974 0.67502-1.1738 0.53711-4e-5 0.26259-0.07252 0.54836-0.0098 0.7832 0.10269 0.39009-0.03903 0.80369-0.35938 1.0488 0.19151 0.66902 0.43816 1.3102 0.76172 1.9219l6.2051 1.9023c0.03813-0.04568 0.07765-0.08161 0.11524-0.12891 0.38941-0.49004 0.75445-1.0686 1.0547-1.7246-0.0088 0.0042-0.0247 0.01162-0.0332 0.01563-0.09192 0.04338-0.1677 0.07808-0.22461 0.10352-0.02846 0.01272-0.05156 0.02165-0.07422 0.03125-0.01133 0.0048-0.02051 0.01028-0.03906 0.01758-0.0093 0.0037-0.01904 0.0067-0.04492 0.01563-0.01294 0.0045-0.06611 0.01945-0.06641 0.01953-1.5e-4 4e-5 -0.08975 0.02147-0.08984 0.02148-9.2e-5 1e-4 -0.25773 0.0053-0.28906 0.0059-0.77437-0.09183-1.1504-0.9952-0.66992-1.6094 0.0027-0.0034 0.01097-0.01603 0.01367-0.01953 0.24317-0.31318 0.75166-1.0427 1.1582-1.7656 0.11257-0.20019 0.18144-0.37224 0.27148-0.56055l-4.6563 1.4629z" fill="#dfdfdf" opacity=".35"/>
  <path d="m14.397 7.7953c-1.2048 0.032155-1.8596 1.1268-2.3672 2.123-0.1852 0.09344-0.37336 0.17576-0.55664 0.27734-0.99468 0.66874-1.8103 1.5961-2.4395 2.6094-0.55345 0.97691-0.88901 2.0622-1.0137 3.1758-0.074085 1.129 0.055332 2.2797 0.48047 3.3359 0.32952 0.92833 0.90975 1.9478 1.6523 2.5833 0.98588 0.65786 1.7699 1.1337 2.8457 1.0879-2.2398-1.7915-3.4216-3.9398-3.7949-6.468-0.011789-0.1894-0.035038-0.39424 0.033203-0.34375 0.25528 0.40459 0.31467 0.38942 0.75781 0.61914-0.38204-1.4298 0.12814-3.0204 0.75195-4.1816 0.07805-0.08935 0.1628-0.17507 0.24609-0.26172l0.03906 0.0059c0.01402 0.22327 0.04043 0.44804 0.06641 0.66406-0.0048 0.10408 0.0616 0.28185 0.08203 0.39648-0.01537 0.04023-0.09877 0.28085-0.13086 0.58203-0.01935 0.11929-0.02002 0.23651-2e-3 0.35156 0.0032 0.02268 5e-3 0.0441 0.0098 0.06641 0.0097 0.04048 0.02065 0.08136 0.03711 0.12109 0.03475 0.09384 0.08104 0.18254 0.15624 0.25586 0.02782-0.12543 0.08458-0.22661 0.16211-0.31055 0.01936-0.02096 0.04863-0.03376 0.07031-0.05273 0.07025-0.05953 0.1436-0.11696 0.22266-0.16016 0.01556-0.0085 0.01582-0.0058 0.03125-0.01367 0.19636-0.10023 0.38959-0.16211 0.39062-0.16211l0.01563-0.01563c0.08124-0.03308 0.16319-0.06874 0.23828-0.10547 1.1272-1.0987 2.1932-1.291 3.6133-1.1797 0.78159 0 1.2266-0.203 2-0.55078 1.1865 0.49605 1.6958 1.2707 2 2.5508 0.11456 0.96212-1.4311 3.2695-2 3.998-6.8e-5 1.1e-5 -0.0039 2e-3 -0.0039 2e-3 1.2e-5 0 0.0039-1e-5 0.0039 0 0.01173 0.0016 1.7179-0.7603 2.3984-1.4062-0.48557 3.7544-3.1861 6.0819-4.3984 6.6062 0.93696 0.06306 2.2202-0.52096 3.1035-1.0605-0.40326 0.43212-0.83457 0.89984-1.1035 1.0605 1.0546-0.29529 2.0533-0.40311 2.7188-0.88867-2.49e-4 0 0.53937-0.49394 1.1035-1.1374 0.07505-0.08561 0.20399-0.20329 0.28125-0.30078 0.04803-0.06061 0.09368-0.1227 0.14062-0.18359 0.0083-0.01001 0.01744-0.02109 0.02539-0.03125 1.1874-1.4525 1.7655-3.258 1.7227-4.8945 0.0083-1.9839-0.79781-3.7053-2.1504-5.129-0.97817-1.0296-2.0894-1.6611-3.0898-2.002-1.0353-0.2973-2.2535-0.44812-3.2891-0.39062-0.1037 0.00127-0.39121 0.00968-0.7832 0.042969-0.04584-0.086358 0.0112-0.40681 0.12305-0.48633-0.24516 0.02295-0.47103 0.34186-0.67969 0.5625-0.03512 0.00685-0.07117 0.013798-0.10352 0.021484 0.18793-0.32513 0.37954-0.69089 0.60352-0.98242-0.69386 0.12952-0.99666 0.67505-1.3359 1.1777-0.09792 0.032234-0.19297 0.071367-0.28906 0.10742 0.25167-0.72619 0.72492-1.1236 1.4043-1.6855zm-1.7988 4.2002c0.1941-0.0038 0.36939 0.0293 0.37109 0.0293 0.0033 0 0.08755 0.34006-0.07227 0.63086-0.15982 0.29191-0.53199 0.40871-0.73828 0.29883-0.21082-0.10988-0.21008-0.47762-0.04687-0.76953 0.07878-0.14596 0.29222-0.18571 0.48633-0.18945z" fill="#dfdfdf"/>
 </g>
</svg>
