<?xml version="1.0" encoding="UTF-8"?>
<svg width="32" height="32" version="1.1" xmlns="http://www.w3.org/2000/svg">
 <g id="update-low">
  <rect width="32" height="32" opacity=".001"/>
  <g transform="translate(-1 .00014318)">
   <path d="m15.928 30c0.56062 0.0035 1.1261-0.02559 1.6899-0.08985 2.2376-0.255 4.4172-1.0458 6.3323-2.3498 2.8204-1.9205 4.735-4.7927 5.5834-8.0026 0.66091-0.30091 1.2561-0.75719 1.7272-1.3829 0.93504-1.2421 1.0358-3.4713 0-4.848a3.0116 3.0005 0 0 0 0-2e-3l-0.94102-1.2501a3.0116 3.0005 0 0 0-2e-3 -2e-3l-0.94298-1.2501c-1.0368-1.3746-2.506-1.8223-3.819-1.8223s-2.7822 0.44772-3.819 1.8224l-0.94298 1.2501a3.0116 3.0005 0 0 0-2e-3 2e-3l-0.94102 1.2501a3.0116 3.0005 0 0 0 0 2e-3c-1.0358 1.3767-0.93504 3.6059 0 4.848 0.12909 0.17149 0.32603 0.23434 0.47247 0.38089-0.36689 0.61487-0.85903 1.1567-1.4723 1.5743-1.3735 0.93525-3.1029 1.1319-4.6541 0.52934l0.04705 0.01758c-1.1728-0.47801-2.6381-0.43813-3.7308 0.10938s-1.8052 1.4442-2.1879 2.4221c-0.38269 0.97782-0.4675 2.1181-0.03529 3.2581 0.42968 1.1331 1.4732 2.1407 2.6526 2.5841 1.6128 0.62272 3.303 0.93869 4.9855 0.94929z" opacity=".2"/>
   <path d="m15.928 29c0.56062 0.0035 1.1261-0.02559 1.6899-0.08985 2.2376-0.255 4.4172-1.0458 6.3323-2.3498 2.8204-1.9205 4.735-4.7927 5.5834-8.0026 0.66091-0.30091 1.2561-0.75719 1.7272-1.3829 0.93504-1.2421 1.0358-3.4713 0-4.848a3.0116 3.0005 0 0 0 0-2e-3l-0.94102-1.2501a3.0116 3.0005 0 0 0-2e-3 -2e-3l-0.94298-1.2501c-1.0368-1.3746-2.506-1.8223-3.819-1.8223s-2.7822 0.44772-3.819 1.8224l-0.94298 1.2501a3.0116 3.0005 0 0 0-2e-3 2e-3l-0.94102 1.2501a3.0116 3.0005 0 0 0 0 2e-3c-1.0358 1.3767-0.93504 3.6059 0 4.848 0.12909 0.17149 0.32603 0.23434 0.47247 0.38089-0.36689 0.61487-0.85903 1.1567-1.4723 1.5743-1.3735 0.93525-3.1029 1.1319-4.6541 0.52934l0.04705 0.01758c-1.1728-0.47801-2.6381-0.43813-3.7308 0.10938s-1.8052 1.4442-2.1879 2.4221c-0.38269 0.97782-0.4675 2.1181-0.03529 3.2581 0.42968 1.1331 1.4732 2.1407 2.6526 2.5841 1.6128 0.62272 3.303 0.93869 4.9855 0.94929z" fill="#3281ff"/>
   <path d="m17.072 3c-0.56062-0.00353-1.1256 0.025588-1.6895 0.089844-2.2376 0.255-4.4169 1.0456-6.332 2.3496-2.8204 1.9205-4.7356 4.794-5.584 8.0039-0.66091 0.30091-1.2555 0.75708-1.7266 1.3828-0.93504 1.2421-1.0358 3.4709 0 4.8477a3.0116 3.0005 0 0 0 0 2e-3l0.93945 1.25a3.0116 3.0005 0 0 0 0.00195 2e-3l0.94336 1.25c1.0368 1.3745 2.5074 1.8222 3.8203 1.8222s2.7815-0.44757 3.8184-1.8223l0.94336-1.25a3.0116 3.0005 0 0 0 2e-3 -2e-3l0.94141-1.25a3.0116 3.0005 0 0 0 0-2e-3c1.0358-1.3767 0.93504-3.6055 0-4.8477-0.12909-0.17149-0.32622-0.23431-0.47266-0.38086 0.36689-0.61487 0.85742-1.1566 1.4707-1.5742 1.3735-0.93525 3.1031-1.1338 4.6543-0.53125l-0.04687-0.01758c0.2973 0.12117 0.61344 0.20694 0.9375 0.26172 0.05276-0.08577 0.09581-0.17748 0.15625-0.25781v-2e-3l0.94141-1.25 2e-3 -2e-3 0.94336-1.25c0.89006-1.1801 2.0951-1.6525 3.25-1.7695-0.0054-0.49743-0.08125-1.0075-0.27539-1.5195-0.42978-1.1329-1.4731-2.1404-2.6524-2.5838-1.6128-0.62273-3.3039-0.93861-4.9863-0.94922z" opacity=".2"/>
   <path d="m17.072 2.0003c-0.56062-0.0035302-1.1261 0.025595-1.6899 0.089851-2.2376 0.255-4.4172 1.0458-6.3323 2.3498-2.8204 1.9205-4.735 4.7927-5.5834 8.0026-0.66091 0.30091-1.2561 0.75719-1.7272 1.3829-0.93504 1.2421-1.0358 3.4713 0 4.848a3.0116 3.0005 0 0 0 0 2e-3l0.94102 1.2501a3.0116 3.0005 0 0 0 0.00196 2e-3l0.94298 1.2501c1.0368 1.3746 2.5061 1.8223 3.819 1.8223s2.7822-0.44772 3.819-1.8224l0.94298-1.2501a3.0116 3.0005 0 0 0 2e-3 -2e-3l0.94102-1.2501a3.0116 3.0005 0 0 0 0-2e-3c1.0358-1.3767 0.93504-3.6059 0-4.848-0.12909-0.17149-0.32603-0.23434-0.47247-0.38089 0.36689-0.61487 0.85903-1.1567 1.4723-1.5743 1.3735-0.93525 3.1029-1.1319 4.6541-0.52934l-0.04705-0.01758c1.1728 0.47801 2.6381 0.43813 3.7308-0.10938s1.8052-1.4442 2.1879-2.4221c0.38269-0.97782 0.4675-2.1181 0.03529-3.2581-0.42968-1.1331-1.4732-2.1407-2.6526-2.5841-1.6128-0.62273-3.303-0.93869-4.9855-0.94929z" fill="#43ffc5"/>
   <path d="m17.072 6.002c-0.44183-0.002795-0.88403 0.020188-1.3223 0.070312-1.7529 0.2005-3.458 0.82121-4.957 1.8457-2.7204 1.8592-4.4353 4.8343-4.7324 8.082h-0.4375a1.6245 1.2502 0 0 0-1.4062 1.875l0.9375 1.25 0.93945 1.25a1.6245 1.2502 0 0 0 2.8125 0l0.93945-1.25 0.9375-1.25a1.6245 1.2502 0 0 0-1.4062-1.875h-0.3125c0.28366-2.2572 1.517-4.3036 3.4219-5.6055 2.1828-1.4918 4.9567-1.808 7.4199-0.84766a1.5002 1.5002 0 1 0 1.0898-2.7949c-1.2687-0.49466-2.5983-0.74161-3.9238-0.75z" opacity=".1"/>
   <path d="m17.072 5.002c-0.44183-0.002795-0.88403 0.020188-1.3223 0.070312-1.7529 0.2005-3.458 0.82121-4.957 1.8457-2.7204 1.8592-4.4353 4.8343-4.7324 8.082h-0.4375a1.6245 1.2502 0 0 0-1.4062 1.875l0.9375 1.25 0.93945 1.25a1.6245 1.2502 0 0 0 2.8125 0l0.93945-1.25 0.9375-1.25a1.6245 1.2502 0 0 0-1.4062-1.875h-0.3125c0.28366-2.2572 1.517-4.3036 3.4219-5.6055 2.1828-1.4918 4.9567-1.808 7.4199-0.84766a1.5002 1.5002 0 1 0 1.0898-2.7949c-1.2687-0.49466-2.5983-0.74161-3.9238-0.75z" fill="#3f3f3f"/>
   <path d="m17.072 2c-0.56062-0.00353-1.1256 0.025588-1.6895 0.089844-2.2376 0.255-4.4169 1.0456-6.332 2.3496-2.8204 1.9205-4.7356 4.794-5.584 8.0039-0.66091 0.30091-1.2555 0.75708-1.7266 1.3828-0.57302 0.76122-0.83022 1.8915-0.70703 2.9707 0.073859-0.74012 0.31117-1.4448 0.70703-1.9707 0.47102-0.62573 1.0657-1.0819 1.7266-1.3828 0.84843-3.2099 2.7636-6.0834 5.584-8.0039 1.9151-1.304 4.0944-2.0946 6.332-2.3496 0.56385-0.064256 1.1288-0.093374 1.6895-0.089844 1.6824 0.010604 3.3735 0.32649 4.9863 0.94922 1.1793 0.44338 2.2227 1.4509 2.6523 2.584 0.1338 0.3529 0.20294 0.70459 0.24414 1.0527 0.07274-0.6609 0.02051-1.3547-0.24414-2.0527-0.42968-1.1331-1.473-2.1406-2.6523-2.584-1.6128-0.62273-3.3039-0.93861-4.9863-0.94922zm-3.9395 11.811c-0.1662 0.20169-0.32176 0.41133-0.45508 0.63476 0.14644 0.14655 0.34357 0.20937 0.47266 0.38086 0.39586 0.52588 0.63122 1.2306 0.70508 1.9707 0.12319-1.0792-0.13206-2.2095-0.70508-2.9707-5e-3 -0.0066-0.01242-0.0093-0.01758-0.01563z" fill="#fff" opacity=".2"/>
   <path d="m31.26 12.327v-2e-3l-0.94102-1.2501-2e-3 -2e-3 -0.94298-1.2501c-1.0368-1.3746-2.506-1.8223-3.819-1.8223s-2.7822 0.44772-3.819 1.8224l-0.94298 1.2501-2e-3 2e-3 -0.94102 1.2501v2e-3z" fill="#3286ff"/>
   <path d="m15.928 26.998c0.44183 0.0028 0.88403-0.02019 1.3223-0.07031 1.7529-0.2005 3.458-0.82121 4.957-1.8457 2.7204-1.8592 4.4353-4.8343 4.7324-8.082h0.4375a1.6245 1.2502 0 0 0 1.4062-1.875l-0.9375-1.25-0.93945-1.25a1.6245 1.2502 0 0 0-2.8125 0l-0.93945 1.25-0.9375 1.25a1.6245 1.2502 0 0 0 1.4062 1.875h0.3125c-0.28366 2.2572-1.517 4.3036-3.4219 5.6055-2.1828 1.4918-4.9567 1.808-7.4199 0.84766a1.5002 1.5002 0 1 0-1.0898 2.7949c1.2687 0.49466 2.5983 0.74162 3.9238 0.75z" opacity=".1"/>
   <path d="m15.928 25.998c0.44183 0.0028 0.88403-0.02019 1.3223-0.07031 1.7529-0.2005 3.458-0.82121 4.957-1.8457 2.7204-1.8592 4.4353-4.8343 4.7324-8.082h0.4375a1.6245 1.2502 0 0 0 1.4062-1.875l-0.9375-1.25-0.93945-1.25a1.6245 1.2502 0 0 0-2.8125 0l-0.93945 1.25-0.9375 1.25a1.6245 1.2502 0 0 0 1.4062 1.875h0.3125c-0.28366 2.2572-1.517 4.3036-3.4219 5.6055-2.1828 1.4918-4.9567 1.808-7.4199 0.84766a1.5002 1.5002 0 1 0-1.0898 2.7949c1.2687 0.49466 2.5983 0.74162 3.9238 0.75z" fill="#3f3f3f"/>
  </g>
 </g>
 <g id="update-medium" transform="translate(0,-32)">
  <rect width="32" height="32" opacity=".001"/>
  <g transform="translate(-1 .00014318)">
   <path d="m15.928 30c0.56062 0.0035 1.1261-0.02559 1.6899-0.08985 2.2376-0.255 4.4172-1.0458 6.3323-2.3498 2.8204-1.9205 4.735-4.7927 5.5834-8.0026 0.66091-0.30091 1.2561-0.75719 1.7272-1.3829 0.93504-1.2421 1.0358-3.4713 0-4.848a3.0116 3.0005 0 0 0 0-2e-3l-0.94102-1.2501a3.0116 3.0005 0 0 0-2e-3 -2e-3l-0.94298-1.2501c-1.0368-1.3746-2.506-1.8223-3.819-1.8223s-2.7822 0.44772-3.819 1.8224l-0.94298 1.2501a3.0116 3.0005 0 0 0-2e-3 2e-3l-0.94102 1.2501a3.0116 3.0005 0 0 0 0 2e-3c-1.0358 1.3767-0.93504 3.6059 0 4.848 0.12909 0.17149 0.32603 0.23434 0.47247 0.38089-0.36689 0.61487-0.85903 1.1567-1.4723 1.5743-1.3735 0.93525-3.1029 1.1319-4.6541 0.52934l0.04705 0.01758c-1.1728-0.47801-2.6381-0.43813-3.7308 0.10938s-1.8052 1.4442-2.1879 2.4221c-0.38269 0.97782-0.4675 2.1181-0.03529 3.2581 0.42968 1.1331 1.4732 2.1407 2.6526 2.5841 1.6128 0.62272 3.303 0.93869 4.9855 0.94929z" opacity=".2"/>
   <path d="m15.928 29c0.56062 0.0035 1.1261-0.02559 1.6899-0.08985 2.2376-0.255 4.4172-1.0458 6.3323-2.3498 2.8204-1.9205 4.735-4.7927 5.5834-8.0026 0.66091-0.30091 1.2561-0.75719 1.7272-1.3829 0.93504-1.2421 1.0358-3.4713 0-4.848a3.0116 3.0005 0 0 0 0-2e-3l-0.94102-1.2501a3.0116 3.0005 0 0 0-2e-3 -2e-3l-0.94298-1.2501c-1.0368-1.3746-2.506-1.8223-3.819-1.8223s-2.7822 0.44772-3.819 1.8224l-0.94298 1.2501a3.0116 3.0005 0 0 0-2e-3 2e-3l-0.94102 1.2501a3.0116 3.0005 0 0 0 0 2e-3c-1.0358 1.3767-0.93504 3.6059 0 4.848 0.12909 0.17149 0.32603 0.23434 0.47247 0.38089-0.36689 0.61487-0.85903 1.1567-1.4723 1.5743-1.3735 0.93525-3.1029 1.1319-4.6541 0.52934l0.04705 0.01758c-1.1728-0.47801-2.6381-0.43813-3.7308 0.10938s-1.8052 1.4442-2.1879 2.4221c-0.38269 0.97782-0.4675 2.1181-0.03529 3.2581 0.42968 1.1331 1.4732 2.1407 2.6526 2.5841 1.6128 0.62272 3.303 0.93869 4.9855 0.94929z" fill="#ff9932"/>
   <path d="m17.072 3c-0.56062-0.00353-1.1256 0.025588-1.6895 0.089844-2.2376 0.255-4.4169 1.0456-6.332 2.3496-2.8204 1.9205-4.7356 4.794-5.584 8.0039-0.66091 0.30091-1.2555 0.75708-1.7266 1.3828-0.93504 1.2421-1.0358 3.4709 0 4.8477a3.0116 3.0005 0 0 0 0 2e-3l0.93945 1.25a3.0116 3.0005 0 0 0 0.00195 2e-3l0.94336 1.25c1.0368 1.3745 2.5074 1.8222 3.8203 1.8222s2.7815-0.44757 3.8184-1.8223l0.94336-1.25a3.0116 3.0005 0 0 0 2e-3 -2e-3l0.94141-1.25a3.0116 3.0005 0 0 0 0-2e-3c1.0358-1.3767 0.93504-3.6055 0-4.8477-0.12909-0.17149-0.32622-0.23431-0.47266-0.38086 0.36689-0.61487 0.85742-1.1566 1.4707-1.5742 1.3735-0.93525 3.1031-1.1338 4.6543-0.53125l-0.04687-0.01758c0.2973 0.12117 0.61344 0.20694 0.9375 0.26172 0.05276-0.08577 0.09581-0.17748 0.15625-0.25781v-2e-3l0.94141-1.25 2e-3 -2e-3 0.94336-1.25c0.89006-1.1801 2.0951-1.6525 3.25-1.7695-0.0054-0.49743-0.08125-1.0075-0.27539-1.5195-0.42978-1.1329-1.4731-2.1404-2.6524-2.5838-1.6128-0.62273-3.3039-0.93861-4.9863-0.94922z" opacity=".2"/>
   <path d="m17.072 2.0003c-0.56062-0.0035302-1.1261 0.025595-1.6899 0.089851-2.2376 0.255-4.4172 1.0458-6.3323 2.3498-2.8204 1.9205-4.735 4.7927-5.5834 8.0026-0.66091 0.30091-1.2561 0.75719-1.7272 1.3829-0.93504 1.2421-1.0358 3.4713 0 4.848a3.0116 3.0005 0 0 0 0 2e-3l0.94102 1.2501a3.0116 3.0005 0 0 0 0.00196 2e-3l0.94298 1.2501c1.0368 1.3746 2.5061 1.8223 3.819 1.8223s2.7822-0.44772 3.819-1.8224l0.94298-1.2501a3.0116 3.0005 0 0 0 2e-3 -2e-3l0.94102-1.2501a3.0116 3.0005 0 0 0 0-2e-3c1.0358-1.3767 0.93504-3.6059 0-4.848-0.12909-0.17149-0.32603-0.23434-0.47247-0.38089 0.36689-0.61487 0.85903-1.1567 1.4723-1.5743 1.3735-0.93525 3.1029-1.1319 4.6541-0.52934l-0.04705-0.01758c1.1728 0.47801 2.6381 0.43813 3.7308-0.10938s1.8052-1.4442 2.1879-2.4221c0.38269-0.97782 0.4675-2.1181 0.03529-3.2581-0.42968-1.1331-1.4732-2.1407-2.6526-2.5841-1.6128-0.62273-3.303-0.93869-4.9855-0.94929z" fill="#ffda43"/>
   <path d="m17.072 6.002c-0.44183-0.002795-0.88403 0.020188-1.3223 0.070312-1.7529 0.2005-3.458 0.82121-4.957 1.8457-2.7204 1.8592-4.4353 4.8343-4.7324 8.082h-0.4375a1.6245 1.2502 0 0 0-1.4062 1.875l0.9375 1.25 0.93945 1.25a1.6245 1.2502 0 0 0 2.8125 0l0.93945-1.25 0.9375-1.25a1.6245 1.2502 0 0 0-1.4062-1.875h-0.3125c0.28366-2.2572 1.517-4.3036 3.4219-5.6055 2.1828-1.4918 4.9567-1.808 7.4199-0.84766a1.5002 1.5002 0 1 0 1.0898-2.7949c-1.2687-0.49466-2.5983-0.74161-3.9238-0.75z" opacity=".1"/>
   <path d="m17.072 5.002c-0.44183-0.002795-0.88403 0.020188-1.3223 0.070312-1.7529 0.2005-3.458 0.82121-4.957 1.8457-2.7204 1.8592-4.4353 4.8343-4.7324 8.082h-0.4375a1.6245 1.2502 0 0 0-1.4062 1.875l0.9375 1.25 0.93945 1.25a1.6245 1.2502 0 0 0 2.8125 0l0.93945-1.25 0.9375-1.25a1.6245 1.2502 0 0 0-1.4062-1.875h-0.3125c0.28366-2.2572 1.517-4.3036 3.4219-5.6055 2.1828-1.4918 4.9567-1.808 7.4199-0.84766a1.5002 1.5002 0 1 0 1.0898-2.7949c-1.2687-0.49466-2.5983-0.74161-3.9238-0.75z" fill="#3f3f3f"/>
   <path d="m17.072 2c-0.56062-0.00353-1.1256 0.025588-1.6895 0.089844-2.2376 0.255-4.4169 1.0456-6.332 2.3496-2.8204 1.9205-4.7356 4.794-5.584 8.0039-0.66091 0.30091-1.2555 0.75708-1.7266 1.3828-0.57302 0.76122-0.83022 1.8915-0.70703 2.9707 0.073859-0.74012 0.31117-1.4448 0.70703-1.9707 0.47102-0.62573 1.0657-1.0819 1.7266-1.3828 0.84843-3.2099 2.7636-6.0834 5.584-8.0039 1.9151-1.304 4.0944-2.0946 6.332-2.3496 0.56385-0.064256 1.1288-0.093374 1.6895-0.089844 1.6824 0.010604 3.3735 0.32649 4.9863 0.94922 1.1793 0.44338 2.2227 1.4509 2.6523 2.584 0.1338 0.3529 0.20294 0.70459 0.24414 1.0527 0.07274-0.6609 0.02051-1.3547-0.24414-2.0527-0.42968-1.1331-1.473-2.1406-2.6523-2.584-1.6128-0.62273-3.3039-0.93861-4.9863-0.94922zm-3.9395 11.811c-0.1662 0.20169-0.32176 0.41133-0.45508 0.63476 0.14644 0.14655 0.34357 0.20937 0.47266 0.38086 0.39586 0.52588 0.63122 1.2306 0.70508 1.9707 0.12319-1.0792-0.13206-2.2095-0.70508-2.9707-5e-3 -0.0066-0.01242-0.0093-0.01758-0.01563z" fill="#fff" opacity=".2"/>
   <path d="m31.26 12.327v-2e-3l-0.94102-1.2501-2e-3 -2e-3 -0.94298-1.2501c-1.0368-1.3746-2.506-1.8223-3.819-1.8223s-2.7822 0.44772-3.819 1.8224l-0.94298 1.2501-2e-3 2e-3 -0.94102 1.2501v2e-3z" fill="#ff9932"/>
   <path d="m15.928 26.998c0.44183 0.0028 0.88403-0.02019 1.3223-0.07031 1.7529-0.2005 3.458-0.82121 4.957-1.8457 2.7204-1.8592 4.4353-4.8343 4.7324-8.082h0.4375a1.6245 1.2502 0 0 0 1.4062-1.875l-0.9375-1.25-0.93945-1.25a1.6245 1.2502 0 0 0-2.8125 0l-0.93945 1.25-0.9375 1.25a1.6245 1.2502 0 0 0 1.4062 1.875h0.3125c-0.28366 2.2572-1.517 4.3036-3.4219 5.6055-2.1828 1.4918-4.9567 1.808-7.4199 0.84766a1.5002 1.5002 0 1 0-1.0898 2.7949c1.2687 0.49466 2.5983 0.74162 3.9238 0.75z" opacity=".1"/>
   <path d="m15.928 25.998c0.44183 0.0028 0.88403-0.02019 1.3223-0.07031 1.7529-0.2005 3.458-0.82121 4.957-1.8457 2.7204-1.8592 4.4353-4.8343 4.7324-8.082h0.4375a1.6245 1.2502 0 0 0 1.4062-1.875l-0.9375-1.25-0.93945-1.25a1.6245 1.2502 0 0 0-2.8125 0l-0.93945 1.25-0.9375 1.25a1.6245 1.2502 0 0 0 1.4062 1.875h0.3125c-0.28366 2.2572-1.517 4.3036-3.4219 5.6055-2.1828 1.4918-4.9567 1.808-7.4199 0.84766a1.5002 1.5002 0 1 0-1.0898 2.7949c1.2687 0.49466 2.5983 0.74162 3.9238 0.75z" fill="#3f3f3f"/>
  </g>
 </g>
 <g id="update-high" transform="translate(0,-64)">
  <rect width="32" height="32" opacity=".001"/>
  <g transform="translate(-1 .00014318)">
   <path d="m15.928 30c0.56062 0.0035 1.1261-0.02559 1.6899-0.08985 2.2376-0.255 4.4172-1.0458 6.3323-2.3498 2.8204-1.9205 4.735-4.7927 5.5834-8.0026 0.66091-0.30091 1.2561-0.75719 1.7272-1.3829 0.93504-1.2421 1.0358-3.4713 0-4.848a3.0116 3.0005 0 0 0 0-2e-3l-0.94102-1.2501a3.0116 3.0005 0 0 0-2e-3 -2e-3l-0.94298-1.2501c-1.0368-1.3746-2.506-1.8223-3.819-1.8223s-2.7822 0.44772-3.819 1.8224l-0.94298 1.2501a3.0116 3.0005 0 0 0-2e-3 2e-3l-0.94102 1.2501a3.0116 3.0005 0 0 0 0 2e-3c-1.0358 1.3767-0.93504 3.6059 0 4.848 0.12909 0.17149 0.32603 0.23434 0.47247 0.38089-0.36689 0.61487-0.85903 1.1567-1.4723 1.5743-1.3735 0.93525-3.1029 1.1319-4.6541 0.52934l0.04705 0.01758c-1.1728-0.47801-2.6381-0.43813-3.7308 0.10938s-1.8052 1.4442-2.1879 2.4221c-0.38269 0.97782-0.4675 2.1181-0.03529 3.2581 0.42968 1.1331 1.4732 2.1407 2.6526 2.5841 1.6128 0.62272 3.303 0.93869 4.9855 0.94929z" opacity=".2"/>
   <path d="m15.928 29c0.56062 0.0035 1.1261-0.02559 1.6899-0.08985 2.2376-0.255 4.4172-1.0458 6.3323-2.3498 2.8204-1.9205 4.735-4.7927 5.5834-8.0026 0.66091-0.30091 1.2561-0.75719 1.7272-1.3829 0.93504-1.2421 1.0358-3.4713 0-4.848a3.0116 3.0005 0 0 0 0-2e-3l-0.94102-1.2501a3.0116 3.0005 0 0 0-2e-3 -2e-3l-0.94298-1.2501c-1.0368-1.3746-2.506-1.8223-3.819-1.8223s-2.7822 0.44772-3.819 1.8224l-0.94298 1.2501a3.0116 3.0005 0 0 0-2e-3 2e-3l-0.94102 1.2501a3.0116 3.0005 0 0 0 0 2e-3c-1.0358 1.3767-0.93504 3.6059 0 4.848 0.12909 0.17149 0.32603 0.23434 0.47247 0.38089-0.36689 0.61487-0.85903 1.1567-1.4723 1.5743-1.3735 0.93525-3.1029 1.1319-4.6541 0.52934l0.04705 0.01758c-1.1728-0.47801-2.6381-0.43813-3.7308 0.10938s-1.8052 1.4442-2.1879 2.4221c-0.38269 0.97782-0.4675 2.1181-0.03529 3.2581 0.42968 1.1331 1.4732 2.1407 2.6526 2.5841 1.6128 0.62272 3.303 0.93869 4.9855 0.94929z" fill="#ff4545"/>
   <path d="m17.072 3c-0.56062-0.00353-1.1256 0.025588-1.6895 0.089844-2.2376 0.255-4.4169 1.0456-6.332 2.3496-2.8204 1.9205-4.7356 4.794-5.584 8.0039-0.66091 0.30091-1.2555 0.75708-1.7266 1.3828-0.93504 1.2421-1.0358 3.4709 0 4.8477a3.0116 3.0005 0 0 0 0 2e-3l0.93945 1.25a3.0116 3.0005 0 0 0 0.00195 2e-3l0.94336 1.25c1.0368 1.3745 2.5074 1.8222 3.8203 1.8222s2.7815-0.44757 3.8184-1.8223l0.94336-1.25a3.0116 3.0005 0 0 0 2e-3 -2e-3l0.94141-1.25a3.0116 3.0005 0 0 0 0-2e-3c1.0358-1.3767 0.93504-3.6055 0-4.8477-0.12909-0.17149-0.32622-0.23431-0.47266-0.38086 0.36689-0.61487 0.85742-1.1566 1.4707-1.5742 1.3735-0.93525 3.1031-1.1338 4.6543-0.53125l-0.04687-0.01758c0.2973 0.12117 0.61344 0.20694 0.9375 0.26172 0.05276-0.08577 0.09581-0.17748 0.15625-0.25781v-2e-3l0.94141-1.25 2e-3 -2e-3 0.94336-1.25c0.89006-1.1801 2.0951-1.6525 3.25-1.7695-0.0054-0.49743-0.08125-1.0075-0.27539-1.5195-0.42978-1.1329-1.4731-2.1404-2.6524-2.5838-1.6128-0.62273-3.3039-0.93861-4.9863-0.94922z" opacity=".2"/>
   <path d="m17.072 2.0003c-0.56062-0.0035302-1.1261 0.025595-1.6899 0.089851-2.2376 0.255-4.4172 1.0458-6.3323 2.3498-2.8204 1.9205-4.735 4.7927-5.5834 8.0026-0.66091 0.30091-1.2561 0.75719-1.7272 1.3829-0.93504 1.2421-1.0358 3.4713 0 4.848a3.0116 3.0005 0 0 0 0 2e-3l0.94102 1.2501a3.0116 3.0005 0 0 0 0.00196 2e-3l0.94298 1.2501c1.0368 1.3746 2.5061 1.8223 3.819 1.8223s2.7822-0.44772 3.819-1.8224l0.94298-1.2501a3.0116 3.0005 0 0 0 2e-3 -2e-3l0.94102-1.2501a3.0116 3.0005 0 0 0 0-2e-3c1.0358-1.3767 0.93504-3.6059 0-4.848-0.12909-0.17149-0.32603-0.23434-0.47247-0.38089 0.36689-0.61487 0.85903-1.1567 1.4723-1.5743 1.3735-0.93525 3.1029-1.1319 4.6541-0.52934l-0.04705-0.01758c1.1728 0.47801 2.6381 0.43813 3.7308-0.10938s1.8052-1.4442 2.1879-2.4221c0.38269-0.97782 0.4675-2.1181 0.03529-3.2581-0.42968-1.1331-1.4732-2.1407-2.6526-2.5841-1.6128-0.62273-3.303-0.93869-4.9855-0.94929z" fill="#ff43a6"/>
   <path d="m17.072 6.002c-0.44183-0.002795-0.88403 0.020188-1.3223 0.070312-1.7529 0.2005-3.458 0.82121-4.957 1.8457-2.7204 1.8592-4.4353 4.8343-4.7324 8.082h-0.4375a1.6245 1.2502 0 0 0-1.4062 1.875l0.9375 1.25 0.93945 1.25a1.6245 1.2502 0 0 0 2.8125 0l0.93945-1.25 0.9375-1.25a1.6245 1.2502 0 0 0-1.4062-1.875h-0.3125c0.28366-2.2572 1.517-4.3036 3.4219-5.6055 2.1828-1.4918 4.9567-1.808 7.4199-0.84766a1.5002 1.5002 0 1 0 1.0898-2.7949c-1.2687-0.49466-2.5983-0.74161-3.9238-0.75z" opacity=".1"/>
   <path d="m17.072 5.002c-0.44183-0.002795-0.88403 0.020188-1.3223 0.070312-1.7529 0.2005-3.458 0.82121-4.957 1.8457-2.7204 1.8592-4.4353 4.8343-4.7324 8.082h-0.4375a1.6245 1.2502 0 0 0-1.4062 1.875l0.9375 1.25 0.93945 1.25a1.6245 1.2502 0 0 0 2.8125 0l0.93945-1.25 0.9375-1.25a1.6245 1.2502 0 0 0-1.4062-1.875h-0.3125c0.28366-2.2572 1.517-4.3036 3.4219-5.6055 2.1828-1.4918 4.9567-1.808 7.4199-0.84766a1.5002 1.5002 0 1 0 1.0898-2.7949c-1.2687-0.49466-2.5983-0.74161-3.9238-0.75z" fill="#3f3f3f"/>
   <path d="m17.072 2c-0.56062-0.00353-1.1256 0.025588-1.6895 0.089844-2.2376 0.255-4.4169 1.0456-6.332 2.3496-2.8204 1.9205-4.7356 4.794-5.584 8.0039-0.66091 0.30091-1.2555 0.75708-1.7266 1.3828-0.57302 0.76122-0.83022 1.8915-0.70703 2.9707 0.073859-0.74012 0.31117-1.4448 0.70703-1.9707 0.47102-0.62573 1.0657-1.0819 1.7266-1.3828 0.84843-3.2099 2.7636-6.0834 5.584-8.0039 1.9151-1.304 4.0944-2.0946 6.332-2.3496 0.56385-0.064256 1.1288-0.093374 1.6895-0.089844 1.6824 0.010604 3.3735 0.32649 4.9863 0.94922 1.1793 0.44338 2.2227 1.4509 2.6523 2.584 0.1338 0.3529 0.20294 0.70459 0.24414 1.0527 0.07274-0.6609 0.02051-1.3547-0.24414-2.0527-0.42968-1.1331-1.473-2.1406-2.6523-2.584-1.6128-0.62273-3.3039-0.93861-4.9863-0.94922zm-3.9395 11.811c-0.1662 0.20169-0.32176 0.41133-0.45508 0.63476 0.14644 0.14655 0.34357 0.20937 0.47266 0.38086 0.39586 0.52588 0.63122 1.2306 0.70508 1.9707 0.12319-1.0792-0.13206-2.2095-0.70508-2.9707-5e-3 -0.0066-0.01242-0.0093-0.01758-0.01563z" fill="#fff" opacity=".2"/>
   <path d="m31.26 12.327v-2e-3l-0.94102-1.2501-2e-3 -2e-3 -0.94298-1.2501c-1.0368-1.3746-2.506-1.8223-3.819-1.8223s-2.7822 0.44772-3.819 1.8224l-0.94298 1.2501-2e-3 2e-3 -0.94102 1.2501v2e-3z" fill="#ff4545"/>
   <path d="m15.928 26.998c0.44183 0.0028 0.88403-0.02019 1.3223-0.07031 1.7529-0.2005 3.458-0.82121 4.957-1.8457 2.7204-1.8592 4.4353-4.8343 4.7324-8.082h0.4375a1.6245 1.2502 0 0 0 1.4062-1.875l-0.9375-1.25-0.93945-1.25a1.6245 1.2502 0 0 0-2.8125 0l-0.93945 1.25-0.9375 1.25a1.6245 1.2502 0 0 0 1.4062 1.875h0.3125c-0.28366 2.2572-1.517 4.3036-3.4219 5.6055-2.1828 1.4918-4.9567 1.808-7.4199 0.84766a1.5002 1.5002 0 1 0-1.0898 2.7949c1.2687 0.49466 2.5983 0.74162 3.9238 0.75z" opacity=".1"/>
   <path d="m15.928 25.998c0.44183 0.0028 0.88403-0.02019 1.3223-0.07031 1.7529-0.2005 3.458-0.82121 4.957-1.8457 2.7204-1.8592 4.4353-4.8343 4.7324-8.082h0.4375a1.6245 1.2502 0 0 0 1.4062-1.875l-0.9375-1.25-0.93945-1.25a1.6245 1.2502 0 0 0-2.8125 0l-0.93945 1.25-0.9375 1.25a1.6245 1.2502 0 0 0 1.4062 1.875h0.3125c-0.28366 2.2572-1.517 4.3036-3.4219 5.6055-2.1828 1.4918-4.9567 1.808-7.4199 0.84766a1.5002 1.5002 0 1 0-1.0898 2.7949c1.2687 0.49466 2.5983 0.74162 3.9238 0.75z" fill="#3f3f3f"/>
  </g>
 </g>
 <g id="22-22-update-low" transform="translate(32,-22)">
  <rect y="32" width="22" height="22" opacity=".001"/>
  <path d="m11 35c-4.4183 0-8 3.5817-8 8 0 4.418 3.5817 8 8 8 4.418 0 8-3.582 8-8 0-4.4183-3.582-8-8-8zm0 2c1.4958 0 2.9891 0.56016 4.1484 1.6719-0.3707 0.14382-0.7136 0.37797-0.97656 0.75l-0.46094 0.6543c-1.5688-1.4543-4.0135-1.4299-5.5391 0.095703-0.78091 0.78091-1.1679 1.8045-1.168 2.8281h0.29688a0.69924 0.5747 1.1588e-6 0 1 0.60547 0.86133l-0.65039 0.92578-0.65234 0.92578a0.69924 0.5747 1.1588e-6 0 1-1.209 0l-1.3008-1.8516a0.69924 0.5747 1.1588e-6 0 1 0.39844-0.83594 0.69924 0.5747 1.1588e-6 0 1 0.20508-0.025391h0.30469c7.06e-5 -1.5355 0.58441-3.0707 1.7559-4.2422 1.1716-1.1716 2.7067-1.7578 4.2422-1.7578zm4.9629 3.002a0.69924 0.5747 1.1588e-6 0 1 0.64258 0.28516l1.3008 1.8516a0.69924 0.5747 1.1588e-6 0 1-0.39844 0.83594 0.69924 0.5747 1.1588e-6 0 1-0.20508 0.025391h-0.30469c-7.1e-5 1.5355-0.58441 3.0707-1.7559 4.2422-1.1716 1.1716-2.7067 1.7578-4.2422 1.7578-1.4949 0-2.9874-0.55949-4.1465-1.6699 0.36373-0.14094 0.70826-0.37348 0.97461-0.75v-2e-3l0.46094-0.6543c1.5688 1.4543 4.0135 1.4299 5.5391-0.0957 0.78091-0.78087 1.1679-1.8045 1.168-2.8281h-0.29688a0.69924 0.5747 1.1588e-6 0 1-0.60547-0.86133l0.65039-0.92578 0.65234-0.92578a0.69924 0.5747 1.1588e-6 0 1 0.56641-0.28516z" fill="#dfdfdf"/>
  <circle cx="20" cy="50" r="2" fill="#4285f4"/>
 </g>
 <g id="22-22-update-medium" transform="translate(32,-54)">
  <rect y="32" width="22" height="22" opacity=".001"/>
  <path d="m11 35c-4.4183 0-8 3.5817-8 8 0 4.418 3.5817 8 8 8 4.418 0 8-3.582 8-8 0-4.4183-3.582-8-8-8zm0 2c1.4958 0 2.9891 0.56016 4.1484 1.6719-0.3707 0.14382-0.7136 0.37797-0.97656 0.75l-0.46094 0.6543c-1.5688-1.4543-4.0135-1.4299-5.5391 0.095703-0.78091 0.78091-1.1679 1.8045-1.168 2.8281h0.29688a0.69924 0.5747 1.1588e-6 0 1 0.60547 0.86133l-0.65039 0.92578-0.65234 0.92578a0.69924 0.5747 1.1588e-6 0 1-1.209 0l-1.3008-1.8516a0.69924 0.5747 1.1588e-6 0 1 0.39844-0.83594 0.69924 0.5747 1.1588e-6 0 1 0.20508-0.025391h0.30469c7.06e-5 -1.5355 0.58441-3.0707 1.7559-4.2422 1.1716-1.1716 2.7067-1.7578 4.2422-1.7578zm4.9629 3.002a0.69924 0.5747 1.1588e-6 0 1 0.64258 0.28516l1.3008 1.8516a0.69924 0.5747 1.1588e-6 0 1-0.39844 0.83594 0.69924 0.5747 1.1588e-6 0 1-0.20508 0.025391h-0.30469c-7.1e-5 1.5355-0.58441 3.0707-1.7559 4.2422-1.1716 1.1716-2.7067 1.7578-4.2422 1.7578-1.4949 0-2.9874-0.55949-4.1465-1.6699 0.36373-0.14094 0.70826-0.37348 0.97461-0.75v-2e-3l0.46094-0.6543c1.5688 1.4543 4.0135 1.4299 5.5391-0.0957 0.78091-0.78087 1.1679-1.8045 1.168-2.8281h-0.29688a0.69924 0.5747 1.1588e-6 0 1-0.60547-0.86133l0.65039-0.92578 0.65234-0.92578a0.69924 0.5747 1.1588e-6 0 1 0.56641-0.28516z" fill="#dfdfdf"/>
  <circle cx="20" cy="50" r="2" fill="#ff9800"/>
 </g>
 <g id="22-22-update-high" transform="translate(32,-86)">
  <rect y="32" width="22" height="22" opacity=".001"/>
  <path d="m11 35c-4.4183 0-8 3.5817-8 8 0 4.418 3.5817 8 8 8 4.418 0 8-3.582 8-8 0-4.4183-3.582-8-8-8zm0 2c1.4958 0 2.9891 0.56016 4.1484 1.6719-0.3707 0.14382-0.7136 0.37797-0.97656 0.75l-0.46094 0.6543c-1.5688-1.4543-4.0135-1.4299-5.5391 0.095703-0.78091 0.78091-1.1679 1.8045-1.168 2.8281h0.29688a0.69924 0.5747 1.1588e-6 0 1 0.60547 0.86133l-0.65039 0.92578-0.65234 0.92578a0.69924 0.5747 1.1588e-6 0 1-1.209 0l-1.3008-1.8516a0.69924 0.5747 1.1588e-6 0 1 0.39844-0.83594 0.69924 0.5747 1.1588e-6 0 1 0.20508-0.025391h0.30469c7.06e-5 -1.5355 0.58441-3.0707 1.7559-4.2422 1.1716-1.1716 2.7067-1.7578 4.2422-1.7578zm4.9629 3.002a0.69924 0.5747 1.1588e-6 0 1 0.64258 0.28516l1.3008 1.8516a0.69924 0.5747 1.1588e-6 0 1-0.39844 0.83594 0.69924 0.5747 1.1588e-6 0 1-0.20508 0.025391h-0.30469c-7.1e-5 1.5355-0.58441 3.0707-1.7559 4.2422-1.1716 1.1716-2.7067 1.7578-4.2422 1.7578-1.4949 0-2.9874-0.55949-4.1465-1.6699 0.36373-0.14094 0.70826-0.37348 0.97461-0.75v-2e-3l0.46094-0.6543c1.5688 1.4543 4.0135 1.4299 5.5391-0.0957 0.78091-0.78087 1.1679-1.8045 1.168-2.8281h-0.29688a0.69924 0.5747 1.1588e-6 0 1-0.60547-0.86133l0.65039-0.92578 0.65234-0.92578a0.69924 0.5747 1.1588e-6 0 1 0.56641-0.28516z" fill="#dfdfdf"/>
  <circle cx="20" cy="50" r="2" fill="#f44336"/>
 </g>
 <g id="22-22-update-none" transform="translate(32,-118)">
  <rect y="32" width="22" height="22" opacity=".001"/>
  <path d="m11 35c-4.4183 0-8 3.5817-8 8 0 4.418 3.5817 8 8 8 4.418 0 8-3.582 8-8 0-4.4183-3.582-8-8-8zm0 2c1.4958 0 2.9891 0.56016 4.1484 1.6719-0.3707 0.14382-0.7136 0.37797-0.97656 0.75l-0.46094 0.6543c-1.5688-1.4543-4.0135-1.4299-5.5391 0.095703-0.78091 0.78091-1.1679 1.8045-1.168 2.8281h0.29688a0.69924 0.5747 1.1588e-6 0 1 0.60547 0.86133l-0.65039 0.92578-0.65234 0.92578a0.69924 0.5747 1.1588e-6 0 1-1.209 0l-1.3008-1.8516a0.69924 0.5747 1.1588e-6 0 1 0.39844-0.83594 0.69924 0.5747 1.1588e-6 0 1 0.20508-0.025391h0.30469c7.06e-5 -1.5355 0.58441-3.0707 1.7559-4.2422 1.1716-1.1716 2.7067-1.7578 4.2422-1.7578zm4.9629 3.002a0.69924 0.5747 1.1588e-6 0 1 0.64258 0.28516l1.3008 1.8516a0.69924 0.5747 1.1588e-6 0 1-0.39844 0.83594 0.69924 0.5747 1.1588e-6 0 1-0.20508 0.025391h-0.30469c-7.1e-5 1.5355-0.58441 3.0707-1.7559 4.2422-1.1716 1.1716-2.7067 1.7578-4.2422 1.7578-1.4949 0-2.9874-0.55949-4.1465-1.6699 0.36373-0.14094 0.70826-0.37348 0.97461-0.75v-2e-3l0.46094-0.6543c1.5688 1.4543 4.0135 1.4299 5.5391-0.0957 0.78091-0.78087 1.1679-1.8045 1.168-2.8281h-0.29688a0.69924 0.5747 1.1588e-6 0 1-0.60547-0.86133l0.65039-0.92578 0.65234-0.92578a0.69924 0.5747 1.1588e-6 0 1 0.56641-0.28516z" fill="#dfdfdf" opacity=".35"/>
 </g>
 <g id="update-none" transform="translate(0,-96)">
  <rect width="32" height="32" opacity=".001"/>
  <g transform="translate(-1 .00014318)">
   <path d="m15.928 30c0.56062 0.0035 1.1261-0.02559 1.6899-0.08985 2.2376-0.255 4.4172-1.0458 6.3323-2.3498 2.8204-1.9205 4.735-4.7927 5.5834-8.0026 0.66091-0.30091 1.2561-0.75719 1.7272-1.3829 0.93504-1.2421 1.0358-3.4713 0-4.848a3.0116 3.0005 0 0 0 0-2e-3l-0.94102-1.2501a3.0116 3.0005 0 0 0-2e-3 -2e-3l-0.94298-1.2501c-1.0368-1.3746-2.506-1.8223-3.819-1.8223s-2.7822 0.44772-3.819 1.8224l-0.94298 1.2501a3.0116 3.0005 0 0 0-2e-3 2e-3l-0.94102 1.2501a3.0116 3.0005 0 0 0 0 2e-3c-1.0358 1.3767-0.93504 3.6059 0 4.848 0.12909 0.17149 0.32603 0.23434 0.47247 0.38089-0.36689 0.61487-0.85903 1.1567-1.4723 1.5743-1.3735 0.93525-3.1029 1.1319-4.6541 0.52934l0.04705 0.01758c-1.1728-0.47801-2.6381-0.43813-3.7308 0.10938s-1.8052 1.4442-2.1879 2.4221c-0.38269 0.97782-0.4675 2.1181-0.03529 3.2581 0.42968 1.1331 1.4732 2.1407 2.6526 2.5841 1.6128 0.62272 3.303 0.93869 4.9855 0.94929z" opacity=".2"/>
   <path d="m15.928 29c0.56062 0.0035 1.1261-0.02559 1.6899-0.08985 2.2376-0.255 4.4172-1.0458 6.3323-2.3498 2.8204-1.9205 4.735-4.7927 5.5834-8.0026 0.66091-0.30091 1.2561-0.75719 1.7272-1.3829 0.93504-1.2421 1.0358-3.4713 0-4.848a3.0116 3.0005 0 0 0 0-2e-3l-0.94102-1.2501a3.0116 3.0005 0 0 0-2e-3 -2e-3l-0.94298-1.2501c-1.0368-1.3746-2.506-1.8223-3.819-1.8223s-2.7822 0.44772-3.819 1.8224l-0.94298 1.2501a3.0116 3.0005 0 0 0-2e-3 2e-3l-0.94102 1.2501a3.0116 3.0005 0 0 0 0 2e-3c-1.0358 1.3767-0.93504 3.6059 0 4.848 0.12909 0.17149 0.32603 0.23434 0.47247 0.38089-0.36689 0.61487-0.85903 1.1567-1.4723 1.5743-1.3735 0.93525-3.1029 1.1319-4.6541 0.52934l0.04705 0.01758c-1.1728-0.47801-2.6381-0.43813-3.7308 0.10938s-1.8052 1.4442-2.1879 2.4221c-0.38269 0.97782-0.4675 2.1181-0.03529 3.2581 0.42968 1.1331 1.4732 2.1407 2.6526 2.5841 1.6128 0.62272 3.303 0.93869 4.9855 0.94929z" fill="#808080"/>
   <path d="m17.072 3c-0.56062-0.00353-1.1256 0.025588-1.6895 0.089844-2.2376 0.255-4.4169 1.0456-6.332 2.3496-2.8204 1.9205-4.7356 4.794-5.584 8.0039-0.66091 0.30091-1.2555 0.75708-1.7266 1.3828-0.93504 1.2421-1.0358 3.4709 0 4.8477a3.0116 3.0005 0 0 0 0 2e-3l0.93945 1.25a3.0116 3.0005 0 0 0 0.00195 2e-3l0.94336 1.25c1.0368 1.3745 2.5074 1.8222 3.8203 1.8222s2.7815-0.44757 3.8184-1.8223l0.94336-1.25a3.0116 3.0005 0 0 0 2e-3 -2e-3l0.94141-1.25a3.0116 3.0005 0 0 0 0-2e-3c1.0358-1.3767 0.93504-3.6055 0-4.8477-0.12909-0.17149-0.32622-0.23431-0.47266-0.38086 0.36689-0.61487 0.85742-1.1566 1.4707-1.5742 1.3735-0.93525 3.1031-1.1338 4.6543-0.53125l-0.04687-0.01758c0.2973 0.12117 0.61344 0.20694 0.9375 0.26172 0.05276-0.08577 0.09581-0.17748 0.15625-0.25781v-2e-3l0.94141-1.25 2e-3 -2e-3 0.94336-1.25c0.89006-1.1801 2.0951-1.6525 3.25-1.7695-0.0054-0.49743-0.08125-1.0075-0.27539-1.5195-0.42978-1.1329-1.4731-2.1404-2.6524-2.5838-1.6128-0.62273-3.3039-0.93861-4.9863-0.94922z" opacity=".2"/>
   <path d="m17.072 2.0003c-0.56062-0.0035302-1.1261 0.025595-1.6899 0.089851-2.2376 0.255-4.4172 1.0458-6.3323 2.3498-2.8204 1.9205-4.735 4.7927-5.5834 8.0026-0.66091 0.30091-1.2561 0.75719-1.7272 1.3829-0.93504 1.2421-1.0358 3.4713 0 4.848a3.0116 3.0005 0 0 0 0 2e-3l0.94102 1.2501a3.0116 3.0005 0 0 0 0.00196 2e-3l0.94298 1.2501c1.0368 1.3746 2.5061 1.8223 3.819 1.8223s2.7822-0.44772 3.819-1.8224l0.94298-1.2501a3.0116 3.0005 0 0 0 2e-3 -2e-3l0.94102-1.2501a3.0116 3.0005 0 0 0 0-2e-3c1.0358-1.3767 0.93504-3.6059 0-4.848-0.12909-0.17149-0.32603-0.23434-0.47247-0.38089 0.36689-0.61487 0.85903-1.1567 1.4723-1.5743 1.3735-0.93525 3.1029-1.1319 4.6541-0.52934l-0.04705-0.01758c1.1728 0.47801 2.6381 0.43813 3.7308-0.10938s1.8052-1.4442 2.1879-2.4221c0.38269-0.97782 0.4675-2.1181 0.03529-3.2581-0.42968-1.1331-1.4732-2.1407-2.6526-2.5841-1.6128-0.62273-3.303-0.93869-4.9855-0.94929z" fill="#b0b0b0"/>
   <path d="m17.072 6.002c-0.44183-0.002795-0.88403 0.020188-1.3223 0.070312-1.7529 0.2005-3.458 0.82121-4.957 1.8457-2.7204 1.8592-4.4353 4.8343-4.7324 8.082h-0.4375a1.6245 1.2502 0 0 0-1.4062 1.875l0.9375 1.25 0.93945 1.25a1.6245 1.2502 0 0 0 2.8125 0l0.93945-1.25 0.9375-1.25a1.6245 1.2502 0 0 0-1.4062-1.875h-0.3125c0.28366-2.2572 1.517-4.3036 3.4219-5.6055 2.1828-1.4918 4.9567-1.808 7.4199-0.84766a1.5002 1.5002 0 1 0 1.0898-2.7949c-1.2687-0.49466-2.5983-0.74161-3.9238-0.75z" opacity=".1"/>
   <path d="m17.072 5.002c-0.44183-0.002795-0.88403 0.020188-1.3223 0.070312-1.7529 0.2005-3.458 0.82121-4.957 1.8457-2.7204 1.8592-4.4353 4.8343-4.7324 8.082h-0.4375a1.6245 1.2502 0 0 0-1.4062 1.875l0.9375 1.25 0.93945 1.25a1.6245 1.2502 0 0 0 2.8125 0l0.93945-1.25 0.9375-1.25a1.6245 1.2502 0 0 0-1.4062-1.875h-0.3125c0.28366-2.2572 1.517-4.3036 3.4219-5.6055 2.1828-1.4918 4.9567-1.808 7.4199-0.84766a1.5002 1.5002 0 1 0 1.0898-2.7949c-1.2687-0.49466-2.5983-0.74161-3.9238-0.75z" fill="#3f3f3f"/>
   <path d="m17.072 2c-0.56062-0.00353-1.1256 0.025588-1.6895 0.089844-2.2376 0.255-4.4169 1.0456-6.332 2.3496-2.8204 1.9205-4.7356 4.794-5.584 8.0039-0.66091 0.30091-1.2555 0.75708-1.7266 1.3828-0.57302 0.76122-0.83022 1.8915-0.70703 2.9707 0.073859-0.74012 0.31117-1.4448 0.70703-1.9707 0.47102-0.62573 1.0657-1.0819 1.7266-1.3828 0.84843-3.2099 2.7636-6.0834 5.584-8.0039 1.9151-1.304 4.0944-2.0946 6.332-2.3496 0.56385-0.064256 1.1288-0.093374 1.6895-0.089844 1.6824 0.010604 3.3735 0.32649 4.9863 0.94922 1.1793 0.44338 2.2227 1.4509 2.6523 2.584 0.1338 0.3529 0.20294 0.70459 0.24414 1.0527 0.07274-0.6609 0.02051-1.3547-0.24414-2.0527-0.42968-1.1331-1.473-2.1406-2.6523-2.584-1.6128-0.62273-3.3039-0.93861-4.9863-0.94922zm-3.9395 11.811c-0.1662 0.20169-0.32176 0.41133-0.45508 0.63476 0.14644 0.14655 0.34357 0.20937 0.47266 0.38086 0.39586 0.52588 0.63122 1.2306 0.70508 1.9707 0.12319-1.0792-0.13206-2.2095-0.70508-2.9707-5e-3 -0.0066-0.01242-0.0093-0.01758-0.01563z" fill="#fff" opacity=".2"/>
   <path d="m31.26 12.327v-2e-3l-0.94102-1.2501-2e-3 -2e-3 -0.94298-1.2501c-1.0368-1.3746-2.506-1.8223-3.819-1.8223s-2.7822 0.44772-3.819 1.8224l-0.94298 1.2501-2e-3 2e-3 -0.94102 1.2501v2e-3z" fill="#808080"/>
   <path d="m15.928 26.998c0.44183 0.0028 0.88403-0.02019 1.3223-0.07031 1.7529-0.2005 3.458-0.82121 4.957-1.8457 2.7204-1.8592 4.4353-4.8343 4.7324-8.082h0.4375a1.6245 1.2502 0 0 0 1.4062-1.875l-0.9375-1.25-0.93945-1.25a1.6245 1.2502 0 0 0-2.8125 0l-0.93945 1.25-0.9375 1.25a1.6245 1.2502 0 0 0 1.4062 1.875h0.3125c-0.28366 2.2572-1.517 4.3036-3.4219 5.6055-2.1828 1.4918-4.9567 1.808-7.4199 0.84766a1.5002 1.5002 0 1 0-1.0898 2.7949c1.2687 0.49466 2.5983 0.74162 3.9238 0.75z" opacity=".1"/>
   <path d="m15.928 25.998c0.44183 0.0028 0.88403-0.02019 1.3223-0.07031 1.7529-0.2005 3.458-0.82121 4.957-1.8457 2.7204-1.8592 4.4353-4.8343 4.7324-8.082h0.4375a1.6245 1.2502 0 0 0 1.4062-1.875l-0.9375-1.25-0.93945-1.25a1.6245 1.2502 0 0 0-2.8125 0l-0.93945 1.25-0.9375 1.25a1.6245 1.2502 0 0 0 1.4062 1.875h0.3125c-0.28366 2.2572-1.517 4.3036-3.4219 5.6055-2.1828 1.4918-4.9567 1.808-7.4199 0.84766a1.5002 1.5002 0 1 0-1.0898 2.7949c1.2687 0.49466 2.5983 0.74162 3.9238 0.75z" fill="#3f3f3f"/>
  </g>
 </g>
</svg>
