<?xml version="1.0" encoding="UTF-8"?>
<svg width="32" height="32" version="1.1" xmlns="http://www.w3.org/2000/svg">
 <g id="22-22-user-identity" transform="translate(0,-22)">
  <rect width="22" height="22" opacity=".001"/>
  <path d="m11 3c-4.432 0-8 3.568-8 8s3.568 8 8 8 8-3.568 8-8-3.568-8-8-8zm0 3c1.1045 0 2 0.89547 2 2 0 1.1044-0.8956 2-2 2s-2-0.8956-2-2 0.8956-2 2-2zm0 5c3.9992-0.0015 4 2.4609 4 2.4609v1c0-1e-6 -0.73846 1.5391-4 1.5391-3.2615 0-4-1.5391-4-1.5391v-1c0-1e-6 3.998e-4 -2.4586 4-2.4609z" fill="#dfdfdf"/>
 </g>
 <g id="user-identity">
  <rect width="32" height="32" opacity=".001"/>
  <g transform="translate(0 -.5)">
   <circle cx="16" cy="17" r="14" fill="#00100f" opacity=".2"/>
   <circle cx="16" cy="16" r="14" fill="#009587"/>
   <g transform="translate(0,1)" opacity=".2">
    <path d="m16 6c-2.2096 0-4 1.7912-4 4s1.7904 4 4 4 4-1.7912 4-4-1.7904-4-4-4z"/>
    <path d="m16 16c-6.9993 0.0042-7 4.4308-7 4.4308v1.8s1.2923 2.7692 7 2.7692 7-2.7692 7-2.7692v-1.8s0-4.4335-6.9986-4.4308z"/>
   </g>
   <g fill="#fff">
    <path d="m16 6c-2.2096 0-4 1.7912-4 4s1.7904 4 4 4 4-1.7912 4-4-1.7904-4-4-4z"/>
    <path d="m16 16c-6.9993 0.0042-7 4.4308-7 4.4308v1.8s1.2923 2.7692 7 2.7692 7-2.7692 7-2.7692v-1.8s0-4.4335-6.9986-4.4308z"/>
   </g>
   <path d="M 16,2 A 14,14 0 0 0 2,16 14,14 0 0 0 2.0214844,16.585938 14,14 0 0 1 16,3 14,14 0 0 1 29.978516,16.414062 14,14 0 0 0 30,16 14,14 0 0 0 16,2 Z" fill="#fff" opacity=".2"/>
  </g>
 </g>
 <g id="user-busy" transform="translate(98 4.5)">
  <rect x="-66" y="-4.5" width="32" height="32" opacity=".001"/>
  <g transform="translate(-66,-5)">
   <circle cx="16" cy="17" r="14" fill="#00100f" opacity=".2"/>
   <circle cx="16" cy="16" r="14" fill="#009587"/>
   <g transform="translate(0,1)" opacity=".2">
    <path d="m16 6c-2.2096 0-4 1.7912-4 4s1.7904 4 4 4 4-1.7912 4-4-1.7904-4-4-4z"/>
    <path d="m16 16c-6.9993 0.0042-7 4.4308-7 4.4308v1.8s1.2923 2.7692 7 2.7692 7-2.7692 7-2.7692v-1.8s0-4.4335-6.9986-4.4308z"/>
   </g>
   <g fill="#fff">
    <path d="m16 6c-2.2096 0-4 1.7912-4 4s1.7904 4 4 4 4-1.7912 4-4-1.7904-4-4-4z"/>
    <path d="m16 16c-6.9993 0.0042-7 4.4308-7 4.4308v1.8s1.2923 2.7692 7 2.7692 7-2.7692 7-2.7692v-1.8s0-4.4335-6.9986-4.4308z"/>
   </g>
   <path d="M 16,2 A 14,14 0 0 0 2,16 14,14 0 0 0 2.0214844,16.585938 14,14 0 0 1 16,3 14,14 0 0 1 29.978516,16.414062 14,14 0 0 0 30,16 14,14 0 0 0 16,2 Z" fill="#fff" opacity=".2"/>
  </g>
  <circle cx="-42" cy="18.5" r="8" fill="#f15757"/>
  <path d="m-34.021 18.924a8 8 0 0 1-7.979 7.576 8 8 0 0 1-7.979-7.424 8 8 0 0 0-0.021 0.424 8 8 0 0 0 8 8 8 8 0 0 0 8-8 8 8 0 0 0-0.02148-0.57617z" opacity=".2"/>
  <rect x="-43" y="12.5" width="2" height="7" rx="1" ry=".875" fill="#fff"/>
  <rect transform="rotate(90)" x="17.5" y="36" width="2" height="7" rx="1" ry=".875" fill="#fff"/>
 </g>
 <g id="user-away" transform="translate(64)">
  <rect width="32" height="32" opacity=".001"/>
  <g transform="translate(0 -.5)">
   <circle cx="16" cy="17" r="14" fill="#00100f" opacity=".2"/>
   <circle cx="16" cy="16" r="14" fill="#009587"/>
   <g transform="translate(0,1)" opacity=".2">
    <path d="m16 6c-2.2096 0-4 1.7912-4 4s1.7904 4 4 4 4-1.7912 4-4-1.7904-4-4-4z"/>
    <path d="m16 16c-6.9993 0.0042-7 4.4308-7 4.4308v1.8s1.2923 2.7692 7 2.7692 7-2.7692 7-2.7692v-1.8s0-4.4335-6.9986-4.4308z"/>
   </g>
   <g fill="#fff">
    <path d="m16 6c-2.2096 0-4 1.7912-4 4s1.7904 4 4 4 4-1.7912 4-4-1.7904-4-4-4z"/>
    <path d="m16 16c-6.9993 0.0042-7 4.4308-7 4.4308v1.8s1.2923 2.7692 7 2.7692 7-2.7692 7-2.7692v-1.8s0-4.4335-6.9986-4.4308z"/>
   </g>
   <path d="M 16,2 A 14,14 0 0 0 2,16 14,14 0 0 0 2.0214844,16.585938 14,14 0 0 1 16,3 14,14 0 0 1 29.978516,16.414062 14,14 0 0 0 30,16 14,14 0 0 0 16,2 Z" fill="#fff" opacity=".2"/>
  </g>
  <circle cx="24" cy="23" r="8" fill="#f3931a"/>
  <path d="M 31.979,23.424 A 8,8 0 0 1 24,31 8,8 0 0 1 16.021,23.576 8,8 0 0 0 16,24 a 8,8 0 0 0 8,8 8,8 0 0 0 8,-8 8,8 0 0 0 -0.02148,-0.57617 z" opacity=".2"/>
  <path d="m28 19-8 4 2 1 1 3 1-2 2 1z" fill="#fff"/>
 </g>
 <g id="user-offline" transform="translate(96)">
  <rect width="32" height="32" opacity=".001"/>
  <g transform="translate(0 -.5)">
   <circle cx="16" cy="17" r="14" opacity=".2"/>
   <circle cx="16" cy="16" r="14" fill="#009587"/>
   <g transform="translate(0,1)" opacity=".2">
    <path d="m16 6c-2.2096 0-4 1.7912-4 4s1.7904 4 4 4 4-1.7912 4-4-1.7904-4-4-4z"/>
    <path d="m16 16c-6.9993 0.0042-7 4.4308-7 4.4308v1.8s1.2923 2.7692 7 2.7692 7-2.7692 7-2.7692v-1.8s0-4.4335-6.9986-4.4308z"/>
   </g>
   <g fill="#fff">
    <path d="m16 6c-2.2096 0-4 1.7912-4 4s1.7904 4 4 4 4-1.7912 4-4-1.7904-4-4-4z"/>
    <path d="m16 16c-6.9993 0.0042-7 4.4308-7 4.4308v1.8s1.2923 2.7692 7 2.7692 7-2.7692 7-2.7692v-1.8s0-4.4335-6.9986-4.4308z"/>
   </g>
   <path d="M 16,2 A 14,14 0 0 0 2,16 14,14 0 0 0 2.0214844,16.585938 14,14 0 0 1 16,3 14,14 0 0 1 29.978516,16.414062 14,14 0 0 0 30,16 14,14 0 0 0 16,2 Z" fill="#fff" opacity=".2"/>
  </g>
  <circle cx="24" cy="23" r="8" fill="#a7a7a7"/>
  <path d="M 31.979,23.424 A 8,8 0 0 1 24,31 8,8 0 0 1 16.021,23.576 8,8 0 0 0 16,24 a 8,8 0 0 0 8,8 8,8 0 0 0 8,-8 8,8 0 0 0 -0.02148,-0.57617 z" opacity=".2"/>
  <rect transform="rotate(90)" x="22" y="-29" width="2" height="10" rx="1" ry="1" fill="#fff"/>
 </g>
 <g id="user-invisible" transform="translate(160)">
  <rect width="32" height="32" opacity=".001"/>
  <g transform="translate(0 -.5)">
   <circle cx="16" cy="17" r="14" opacity=".2"/>
   <circle cx="16" cy="16" r="14" fill="#009587"/>
   <g transform="translate(0,1)" opacity=".2">
    <path d="m16 6c-2.2096 0-4 1.7912-4 4s1.7904 4 4 4 4-1.7912 4-4-1.7904-4-4-4z"/>
    <path d="m16 16c-6.9993 0.0042-7 4.4308-7 4.4308v1.8s1.2923 2.7692 7 2.7692 7-2.7692 7-2.7692v-1.8s0-4.4335-6.9986-4.4308z"/>
   </g>
   <g fill="#fff">
    <path d="m16 6c-2.2096 0-4 1.7912-4 4s1.7904 4 4 4 4-1.7912 4-4-1.7904-4-4-4z"/>
    <path d="m16 16c-6.9993 0.0042-7 4.4308-7 4.4308v1.8s1.2923 2.7692 7 2.7692 7-2.7692 7-2.7692v-1.8s0-4.4335-6.9986-4.4308z"/>
   </g>
   <path d="M 16,2 A 14,14 0 0 0 2,16 14,14 0 0 0 2.0214844,16.585938 14,14 0 0 1 16,3 14,14 0 0 1 29.978516,16.414062 14,14 0 0 0 30,16 14,14 0 0 0 16,2 Z" fill="#fff" opacity=".2"/>
  </g>
  <circle cx="24" cy="23" r="8" fill="#4f4f4f"/>
  <path d="M 31.979,23.424 A 8,8 0 0 1 24,31 8,8 0 0 1 16.021,23.576 8,8 0 0 0 16,24 a 8,8 0 0 0 8,8 8,8 0 0 0 8,-8 8,8 0 0 0 -0.02148,-0.57617 z" opacity=".2"/>
  <rect transform="rotate(30)" x="31.29" y="2.92" width="2" height="10" rx="1" ry="1" fill="#fff"/>
 </g>
 <g id="user-online" transform="translate(128)">
  <rect width="32" height="32" opacity=".001"/>
  <g transform="translate(0 -.5)">
   <circle cx="16" cy="17" r="14" opacity=".2"/>
   <circle cx="16" cy="16" r="14" fill="#009587"/>
   <g transform="translate(0,1)" opacity=".2">
    <path d="m16 6c-2.2096 0-4 1.7912-4 4s1.7904 4 4 4 4-1.7912 4-4-1.7904-4-4-4z"/>
    <path d="m16 16c-6.9993 0.0042-7 4.4308-7 4.4308v1.8s1.2923 2.7692 7 2.7692 7-2.7692 7-2.7692v-1.8s0-4.4335-6.9986-4.4308z"/>
   </g>
   <g fill="#fff">
    <path d="m16 6c-2.2096 0-4 1.7912-4 4s1.7904 4 4 4 4-1.7912 4-4-1.7904-4-4-4z"/>
    <path d="m16 16c-6.9993 0.0042-7 4.4308-7 4.4308v1.8s1.2923 2.7692 7 2.7692 7-2.7692 7-2.7692v-1.8s0-4.4335-6.9986-4.4308z"/>
   </g>
   <path d="M 16,2 A 14,14 0 0 0 2,16 14,14 0 0 0 2.0214844,16.585938 14,14 0 0 1 16,3 14,14 0 0 1 29.978516,16.414062 14,14 0 0 0 30,16 14,14 0 0 0 16,2 Z" fill="#fff" opacity=".2"/>
  </g>
  <circle cx="24" cy="23" r="8" fill="#79b81d"/>
  <path d="M 31.979,23.424 A 8,8 0 0 1 24,31 8,8 0 0 1 16.021,23.576 8,8 0 0 0 16,24 a 8,8 0 0 0 8,8 8,8 0 0 0 8,-8 8,8 0 0 0 -0.02148,-0.57617 z" opacity=".2"/>
  <path d="m21 23 3 3 4-5" fill="none" stroke="#fff" stroke-linecap="round" stroke-linejoin="round" stroke-width="2"/>
 </g>
 <g id="user-away-extended" transform="translate(192)">
  <rect width="32" height="32" opacity=".001"/>
  <g transform="translate(0 -.5)">
   <circle cx="16" cy="17" r="14" opacity=".2"/>
   <circle cx="16" cy="16" r="14" fill="#009587"/>
   <g transform="translate(0,1)" opacity=".2">
    <path d="m16 6c-2.2096 0-4 1.7912-4 4s1.7904 4 4 4 4-1.7912 4-4-1.7904-4-4-4z"/>
    <path d="m16 16c-6.9993 0.0042-7 4.4308-7 4.4308v1.8s1.2923 2.7692 7 2.7692 7-2.7692 7-2.7692v-1.8s0-4.4335-6.9986-4.4308z"/>
   </g>
   <g fill="#fff">
    <path d="m16 6c-2.2096 0-4 1.7912-4 4s1.7904 4 4 4 4-1.7912 4-4-1.7904-4-4-4z"/>
    <path d="m16 16c-6.9993 0.0042-7 4.4308-7 4.4308v1.8s1.2923 2.7692 7 2.7692 7-2.7692 7-2.7692v-1.8s0-4.4335-6.9986-4.4308z"/>
   </g>
   <path d="M 16,2 A 14,14 0 0 0 2,16 14,14 0 0 0 2.0214844,16.585938 14,14 0 0 1 16,3 14,14 0 0 1 29.978516,16.414062 14,14 0 0 0 30,16 14,14 0 0 0 16,2 Z" fill="#fff" opacity=".2"/>
  </g>
  <circle cx="24" cy="23" r="8" fill="#b754e6"/>
  <path d="M 31.979,23.424 A 8,8 0 0 1 24,31 8,8 0 0 1 16.021,23.576 8,8 0 0 0 16,24 a 8,8 0 0 0 8,8 8,8 0 0 0 8,-8 8,8 0 0 0 -0.02148,-0.57617 z" opacity=".2"/>
  <circle cx="24" cy="23" r="1" fill="#fff"/>
  <circle cx="28" cy="23" r="1" fill="#fff"/>
  <circle cx="20" cy="23" r="1" fill="#fff"/>
 </g>
 <g id="22-22-user-online" transform="translate(123,-27)">
  <rect x="5" y="5" width="22" height="22" opacity=".001"/>
  <path d="m16 8c-4.432 0-8 3.568-8 8s3.568 8 8 8c0.40259 0 0.79534-0.03885 1.1816-0.0957a5.5 5.5 0 0 1-1.1543-2.9062c-0.010026 2.6e-5 -0.017271 0.00195-0.027344 0.00195-3.2615 0-4-1.5391-4-1.5391v-1c0-1e-6 4e-4 -2.4586 4-2.4609 0.82331-3.09e-4 1.469 0.10788 1.9883 0.27344a5.5 5.5 0 0 1 3.5117-1.2734 5.5 5.5 0 0 1 2.4805 0.59766c-0.20957-4.2423-3.6843-7.5977-7.9805-7.5977zm0 3c1.1045 0 2 0.89547 2 2 0 1.1044-0.8956 2-2 2s-2-0.8956-2-2 0.8956-2 2-2z" fill="#dfdfdf"/>
  <path d="m21.188 16.01c-1.441 0.10184-2.8073 0.89504-3.584 2.2402-1.2426 2.1523-0.50583 4.9038 1.6465 6.1465 2.1523 1.2426 4.9038 0.50583 6.1465-1.6465 1.2426-2.1523 0.50583-4.9038-1.6465-6.1465-0.80712-0.46599-1.6979-0.65485-2.5625-0.59375zm2.459 2.6367 0.70703 0.70703-3.3535 3.3535-2.3535-2.3535 0.70703-0.70703 1.6465 1.6465z" fill="#4caf50"/>
 </g>
 <g id="22-22-user-busy" transform="translate(27,-27)">
  <rect x="5" y="5" width="22" height="22" opacity=".001"/>
  <path d="m16 8c-4.432 0-8 3.568-8 8s3.568 8 8 8c0.40259 0 0.79534-0.03885 1.1816-0.0957a5.5 5.5 0 0 1-1.1543-2.9062c-0.010026 2.6e-5 -0.017271 0.00195-0.027344 0.00195-3.2615 0-4-1.5391-4-1.5391v-1c0-1e-6 4e-4 -2.4586 4-2.4609 0.82331-3.09e-4 1.469 0.10788 1.9883 0.27344a5.5 5.5 0 0 1 3.5117-1.2734 5.5 5.5 0 0 1 2.4805 0.59766c-0.20957-4.2423-3.6843-7.5977-7.9805-7.5977zm0 3c1.1045 0 2 0.89547 2 2 0 1.1044-0.8956 2-2 2s-2-0.8956-2-2 0.8956-2 2-2z" fill="#dfdfdf"/>
  <path d="m21.5 16a4.5 4.5 0 0 0-4.5 4.5 4.5 4.5 0 0 0 4.5 4.5 4.5 4.5 0 0 0 4.5-4.5 4.5 4.5 0 0 0-4.5-4.5zm-0.5 1h1v3h3v1h-4v-1z" fill="#f44336"/>
 </g>
 <g id="22-22-user-offline" transform="translate(91,-27)">
  <rect x="5" y="5" width="22" height="22" opacity=".001"/>
  <path d="m16 8c-4.432 0-8 3.568-8 8s3.568 8 8 8c0.40259 0 0.79534-0.03885 1.1816-0.0957a5.5 5.5 0 0 1-1.1543-2.9062c-0.010026 2.6e-5 -0.017271 0.00195-0.027344 0.00195-3.2615 0-4-1.5391-4-1.5391v-1c0-1e-6 4e-4 -2.4586 4-2.4609 0.82331-3.09e-4 1.469 0.10788 1.9883 0.27344a5.5 5.5 0 0 1 3.5117-1.2734 5.5 5.5 0 0 1 2.4805 0.59766c-0.20957-4.2423-3.6843-7.5977-7.9805-7.5977zm0 3c1.1045 0 2 0.89547 2 2 0 1.1044-0.8956 2-2 2s-2-0.8956-2-2 0.8956-2 2-2z" fill="#dfdfdf" opacity=".35"/>
  <path d="m21.5 16c-2.4853 0-4.5 2.0147-4.5 4.5s2.0147 4.5 4.5 4.5 4.5-2.0147 4.5-4.5-2.0147-4.5-4.5-4.5zm2.5 4v1h-5v-1z" fill="#dfdfdf"/>
 </g>
 <g id="22-22-user-invisible" transform="translate(155,-27)">
  <rect x="5" y="5" width="22" height="22" opacity=".001"/>
  <path d="m16 8c-4.432 0-8 3.568-8 8s3.568 8 8 8c0.40259 0 0.79534-0.03885 1.1816-0.0957a5.5 5.5 0 0 1-1.1543-2.9062c-0.010026 2.6e-5 -0.017271 0.00195-0.027344 0.00195-3.2615 0-4-1.5391-4-1.5391v-1c0-1e-6 4e-4 -2.4586 4-2.4609 0.82331-3.09e-4 1.469 0.10788 1.9883 0.27344a5.5 5.5 0 0 1 3.5117-1.2734 5.5 5.5 0 0 1 2.4805 0.59766c-0.20957-4.2423-3.6843-7.5977-7.9805-7.5977zm0 3c1.1045 0 2 0.89547 2 2 0 1.1044-0.8956 2-2 2s-2-0.8956-2-2 0.8956-2 2-2z" fill="#dfdfdf"/>
  <path d="m17.603 18.25c-1.2426 2.1523-0.5052 4.9045 1.6471 6.1471 2.1523 1.2426 4.9045 0.5052 6.1471-1.6471 1.2426-2.1523 0.5052-4.9045-1.6471-6.1471-2.1523-1.2426-4.9045-0.5052-6.1471 1.6471zm4.7141-0.16506 0.86602 0.5-2.5 4.3301-0.86602-0.5z" fill="#dfdfdf"/>
 </g>
 <g id="22-22-user-away-extended" transform="translate(187,-27)">
  <rect x="5" y="5" width="22" height="22" opacity=".001"/>
  <path d="m16 8c-4.432 0-8 3.568-8 8s3.568 8 8 8c0.40259 0 0.79534-0.03885 1.1816-0.0957a5.5 5.5 0 0 1-1.1543-2.9062c-0.010026 2.6e-5 -0.017271 0.00195-0.027344 0.00195-3.2615 0-4-1.5391-4-1.5391v-1c0-1e-6 4e-4 -2.4586 4-2.4609 0.82331-3.09e-4 1.469 0.10788 1.9883 0.27344a5.5 5.5 0 0 1 3.5117-1.2734 5.5 5.5 0 0 1 2.4805 0.59766c-0.20957-4.2423-3.6843-7.5977-7.9805-7.5977zm0 3c1.1045 0 2 0.89547 2 2 0 1.1044-0.8956 2-2 2s-2-0.8956-2-2 0.8956-2 2-2z" fill="#dfdfdf"/>
  <path d="m21.5 16c-2.4853 0-4.5 2.0147-4.5 4.5s2.0147 4.5 4.5 4.5 4.5-2.0147 4.5-4.5-2.0147-4.5-4.5-4.5zm-2.5 4h1v1h-1zm2 0h1v1h-1zm2 0h1v1h-1z" fill="#dfdfdf"/>
 </g>
 <g id="22-22-user-away" transform="translate(59,-27)">
  <rect x="5" y="5" width="22" height="22" opacity=".001"/>
  <path d="m16 8c-4.432 0-8 3.568-8 8s3.568 8 8 8c0.40259 0 0.79534-0.03885 1.1816-0.0957a5.5 5.5 0 0 1-1.1543-2.9062c-0.010026 2.6e-5 -0.017271 0.00195-0.027344 0.00195-3.2615 0-4-1.5391-4-1.5391v-1c0-1e-6 4e-4 -2.4586 4-2.4609 0.82331-3.09e-4 1.469 0.10788 1.9883 0.27344a5.5 5.5 0 0 1 3.5117-1.2734 5.5 5.5 0 0 1 2.4805 0.59766c-0.20957-4.2423-3.6843-7.5977-7.9805-7.5977zm0 3c1.1045 0 2 0.89547 2 2 0 1.1044-0.8956 2-2 2s-2-0.8956-2-2 0.8956-2 2-2z" fill="#dfdfdf"/>
  <path d="m21.5 16c-2.4853 0-4.5 2.0147-4.5 4.5s2.0147 4.5 4.5 4.5 4.5-2.0147 4.5-4.5-2.0147-4.5-4.5-4.5zm2.5 2-1.25 4.375-1.25-0.625-0.625 1.25-0.625-1.875-1.25-0.625z" fill="#ff9800"/>
 </g>
 <g id="22-22-user-trash" transform="translate(75,88)">
  <rect x="5" y="5" width="22" height="22" opacity=".001"/>
  <path d="m14 9c-1 0-1 1-1 1h-3s-1 0-1 1v1h13v-1c0-1-1-1-1-1h-3s0-1-1-1zm-4 4v9c0 0.52 0.48 1 1 1h9c0.52 0 1-0.48 1-1v-9z" fill="#dfdfdf"/>
 </g>
 <g id="22-22-user-trash-full" transform="translate(75,136)">
  <rect x="5" y="5" width="22" height="22" opacity=".001"/>
  <path d="m14 9c-1 0-1 1-1 1h-3s-1 0-1 1v1h13v-1c0-1-1-1-1-1h-3s0-1-1-1zm-5 4v3c0 1 0.05922 2.15 0.19922 3 0.14 0.85 0.80078 3 0.80078 3s0.48 1 1 1h9c0.52 0 1-1 1-1s0.66078-2.15 0.80078-3 0.19922-2 0.19922-3v-3z" fill="#dfdfdf"/>
 </g>
 <g id="user-desktop" transform="translate(0,32)">
  <rect width="32" height="32" opacity=".001"/>
  <rect x="3" y="6" width="25" height="22" rx="1.25" ry="1.25" opacity=".2"/>
  <path d="m3 7.9v17.85c0 0.6925 0.5575 1.25 1.25 1.25h22.5c0.6925 0 1.25-0.5575 1.25-1.25v-17.85z" fill="#4285f4"/>
  <path d="M 4.25,5 C 3.5575,5 3,5.5575 3,6.25 V 8 H 28 V 6.25 C 28,5.5575 27.442,5 26.75,5 Z" fill="#1d344f"/>
  <path d="m10.5 24c-0.831 0-1.5 0.669-1.5 1.5v1.5h13v-1.5c0-0.831-0.669-1.5-1.5-1.5z" fill="#1d344f"/>
  <path d="M 4.25,5 C 3.5575,5 3,5.5575 3,6.25 v 1 C 3,6.5575 3.5575,6 4.25,6 h 22.5 C 27.442,6 28,6.5575 28,7.25 v -1 C 28,5.5575 27.442,5 26.75,5 Z" fill="#fff" opacity=".1"/>
 </g>
 <g id="22-22-user-desktop" transform="translate(27,37)">
  <rect x="5" y="5" width="22" height="22" opacity=".001"/>
  <path d="m8 11v11.205c0 0.44068 0.35758 0.79492 0.80078 0.79492h3.1992v-1c0-0.554 0.41244-1 0.92383-1h6.1523c0.51138 0 0.92383 0.446 0.92383 1v1h3.1992c0.4432 0 0.80078-0.35424 0.80078-0.79492v-11.205z" fill="#dfdfdf"/>
  <path d="m8.8 9c-0.4432 0-0.8 0.35477-0.8 0.79545v1.2045h16v-1.2045c0-0.44068-0.35712-0.79545-0.8-0.79545z" fill="#dfdfdf" opacity=".35"/>
 </g>
 <g id="user-trash-full" transform="translate(8,123)">
  <rect x="-8" y="-8" width="48" height="48" opacity=".001"/>
  <g transform="translate(-8,-8)">
   <path d="m11 10h26c1.108 0 2 0.91831 2 2.059 0 0 3 8.941 3 15.941s-2 17-5 17h-26c-3 0-5-10-5-17s3-15.941 3-15.941c0.21097-1.121 0.892-2.059 2-2.059z" opacity=".2"/>
   <rect x="18" y="4" width="12" height="4" fill="#9f9f9f"/>
   <path d="m11 9h26c1.108 0 2 0.91831 2 2.059 0 0 3 8.941 3 15.941s-2 17-5 17h-26c-3 0-5-10-5-17s3-15.941 3-15.941c0.21097-1.121 0.892-2.059 2-2.059z" fill="#8e8e8e"/>
   <path d="m16 21s-1.0002 4-1.0002 8 1.0002 8 1.0002 8" fill="none" opacity=".35" stroke="#000" stroke-linecap="round" stroke-width="4"/>
   <rect x="6" y="6" width="36" height="8" rx="2" ry="2" fill="#9f9f9f"/>
   <path d="m24 21v16" fill="none" opacity=".35" stroke="#000" stroke-linecap="round" stroke-width="4"/>
   <path d="m8 6c-1.108 0-2 0.892-2 2v1c0-1.108 0.892-2 2-2h32c1.108 0 2 0.892 2 2v-1c0-1.108-0.892-2-2-2z" fill="#fff" opacity=".2"/>
   <path d="m6 12v1c0 1.108 0.892 2 2 2h32c1.108 0 2-0.892 2-2v-1c0 1.108-0.892 2-2 2h-32c-1.108 0-2-0.892-2-2z" opacity=".2"/>
   <path d="m32 21s0.9998 4 0.9998 8-0.9998 8-0.9998 8" fill="none" opacity=".35" stroke="#000" stroke-linecap="round" stroke-width="4"/>
  </g>
 </g>
 <g id="user-trash" transform="translate(8,75)">
  <rect x="-8" y="-8" width="48" height="48" opacity=".001"/>
  <g transform="translate(-8,-8)">
   <rect x="9" y="10" width="30" height="35" rx="2" ry="2.059" opacity=".2"/>
   <rect x="9" y="9" width="30" height="35" rx="2" ry="2.059" fill="#8e8e8e"/>
   <rect x="18" y="4" width="12" height="4" fill="#9f9f9f"/>
   <path d="m16 21s-2e-4 4-2e-4 8 2e-4 8 2e-4 8" fill="none" opacity=".35" stroke="#000" stroke-linecap="round" stroke-width="4"/>
   <rect x="6" y="6" width="36" height="8" rx="2" ry="2" fill="#9f9f9f"/>
   <path d="m24 21v16" fill="none" opacity=".35" stroke="#000" stroke-linecap="round" stroke-width="4"/>
   <path d="m8 6c-1.108 0-2 0.892-2 2v1c0-1.108 0.892-2 2-2h32c1.108 0 2 0.892 2 2v-1c0-1.108-0.892-2-2-2z" fill="#fff" opacity=".2"/>
   <path d="m6 12v1c0 1.108 0.892 2 2 2h32c1.108 0 2-0.892 2-2v-1c0 1.108-0.892 2-2 2h-32c-1.108 0-2-0.892-2-2z" opacity=".2"/>
   <path d="m32 21s-2e-4 4-2e-4 8 2e-4 8 2e-4 8" fill="none" opacity=".35" stroke="#000" stroke-linecap="round" stroke-width="4"/>
  </g>
 </g>
 <g id="32-32-user-trash" transform="translate(48,83)">
  <rect width="32" height="32" opacity=".001"/>
  <rect x="5" y="5" width="23" height="26" rx="1.534" ry="1.529" opacity=".2"/>
  <rect x="5" y="4" width="23" height="26" rx="1.534" ry="1.529" fill="#8e8e8e"/>
  <rect x="12" y="1" width="9" height="3" fill="#9f9f9f"/>
  <path d="m10.5 12.5s-1.5e-4 3.25-1.5e-4 6.25 1.5e-4 5.75 1.5e-4 5.75" fill="none" opacity=".35" stroke="#000" stroke-linecap="round" stroke-width="3"/>
  <rect x="3" y="3" width="27" height="6" rx="1.5" ry="1.5" opacity=".2"/>
  <rect x="3" y="2" width="27" height="6" rx="1.5" ry="1.5" fill="#9f9f9f"/>
  <path d="m16.5 12.5v12" fill="none" opacity=".35" stroke="#000" stroke-linecap="round" stroke-width="3"/>
  <path d="m22.5 12.5s-1.5e-4 3.25-1.5e-4 6.25 1.5e-4 5.75 1.5e-4 5.75" fill="none" opacity=".35" stroke="#000" stroke-linecap="round" stroke-width="3"/>
  <path d="m4.5 2c-0.831 0-1.5 0.669-1.5 1.5v1c0-0.831 0.669-1.5 1.5-1.5h24c0.831 0 1.5 0.669 1.5 1.5v-1c0-0.831-0.669-1.5-1.5-1.5z" fill="#fff" opacity=".2"/>
 </g>
 <g id="32-32-user-trash-full" transform="translate(48,131)">
  <rect width="32" height="32" opacity=".001"/>
  <path d="m6.75 4.75h19.5c0.831 0 1.5 0.68874 1.5 1.5442 0 0 2.25 6.7058 2.25 11.956s-1.5 12.75-3.75 12.75h-19.5c-2.25 0-3.75-7.5-3.75-12.75s2.25-11.956 2.25-11.956c0.15823-0.84076 0.669-1.5442 1.5-1.5442z" opacity=".2"/>
  <rect x="12" y="1" width="9" height="3" fill="#9f9f9f"/>
  <path d="m6.75 3.75h19.5c0.831 0 1.5 0.68874 1.5 1.5442 0 0 2.25 6.7058 2.25 11.956s-1.5 12.75-3.75 12.75h-19.5c-2.25 0-3.75-7.5-3.75-12.75s2.25-11.956 2.25-11.956c0.15823-0.84076 0.669-1.5442 1.5-1.5442z" fill="#8e8e8e"/>
  <path d="m10.5 12.5s-1.0002 3.25-1.0002 6.25 1.0002 5.75 1.0002 5.75" fill="none" opacity=".35" stroke="#000" stroke-linecap="round" stroke-width="3"/>
  <rect x="3" y="3" width="27" height="6" rx="1.5" ry="1.5" opacity=".2"/>
  <rect x="3" y="2" width="27" height="6" rx="1.5" ry="1.5" fill="#9f9f9f"/>
  <path d="m16.5 12.5v12" fill="none" opacity=".35" stroke="#000" stroke-linecap="round" stroke-width="3"/>
  <path d="m22.5 12.5s0.99985 3.25 0.99985 6.25-0.99985 5.75-0.99985 5.75" fill="none" opacity=".35" stroke="#000" stroke-linecap="round" stroke-width="3"/>
  <path d="m4.5 2c-0.831 0-1.5 0.669-1.5 1.5v1c0-0.831 0.669-1.5 1.5-1.5h24c0.831 0 1.5 0.669 1.5 1.5v-1c0-0.831-0.669-1.5-1.5-1.5z" fill="#fff" opacity=".2"/>
 </g>
</svg>
