<?xml version="1.0" encoding="UTF-8"?>
<svg width="32" height="32" version="1" xmlns="http://www.w3.org/2000/svg">
 <g id="22-22-utilities-terminal" transform="translate(27,5)">
  <rect x="5" y="5" width="22" height="22" opacity=".001"/>
  <path d="m8.8008 9c-0.4432 0-0.80078 0.35758-0.80078 0.80078v12.398c0 0.4432 0.35758 0.80078 0.80078 0.80078h14.398c0.4432 0 0.80078-0.35758 0.80078-0.80078v-12.398c0-0.4432-0.35758-0.80078-0.80078-0.80078zm3.1992 3h1v1h0.5c0.654 0 1.2022 0.418 1.4082 1h-1.9082v1h0.5c0.831 0 1.5 0.669 1.5 1.5s-0.669 1.5-1.5 1.5h-0.5v1h-1v-1h-0.5c-0.6542 0-1.2022-0.418-1.4082-1h1.9082v-1h-0.5c-0.831 0-1.5-0.669-1.5-1.5s0.669-1.5 1.5-1.5h0.5zm-0.5 2c-0.277 0-0.5 0.223-0.5 0.5s0.223 0.5 0.5 0.5h0.5v-1zm1.5 2v1h0.5c0.2767 0.0129 0.5-0.223 0.5-0.5s-0.223-0.5-0.5-0.5zm4 2h6v1h-6z" fill="#dfdfdf"/>
 </g>
 <g id="utilities-terminal">
  <rect width="32" height="32" opacity=".001"/>
  <path d="m2 26.5v1c0 0.831 0.669 1.5 1.5 1.5h25c0.831 0 1.5-0.669 1.5-1.5v-1c0 0.831-0.669 1.5-1.5 1.5h-25c-0.831 0-1.5-0.669-1.5-1.5z" opacity=".2"/>
  <rect x="2" y="4" width="28" height="24" rx="1.5" ry="1.5" fill="#4f4f4f"/>
  <path d="m3.5 4c-0.831 0-1.5 0.669-1.5 1.5v1c0-0.831 0.669-1.5 1.5-1.5h25c0.831 0 1.5 0.669 1.5 1.5v-1c0-0.831-0.669-1.5-1.5-1.5z" fill="#fff" opacity=".1"/>
  <path d="m6 8v1h-0.5c-0.831 0-1.5 0.669-1.5 1.5s0.669 1.5 1.5 1.5h0.5v1h-1.9082c0.206 0.582 0.754 1 1.4082 1h0.5v1h1v-1h0.5c0.831 0 1.5-0.669 1.5-1.5s-0.669-1.5-1.5-1.5h-0.5v-1h1.9082c-0.206-0.582-0.754-1-1.408-1h-0.5v-1h-1zm-0.5 2h0.5v1h-0.5c-0.277 0-0.5-0.223-0.5-0.5s0.223-0.5 0.5-0.5zm1.5 2h0.5c0.277 0 0.5 0.223 0.5 0.5s-0.2233 0.513-0.5 0.5h-0.5zm4 2v1h6v-1z" opacity=".2"/>
  <path d="m6 7v1h-0.5c-0.831 0-1.5 0.669-1.5 1.5s0.669 1.5 1.5 1.5h0.5v1h-1.9082c0.206 0.582 0.754 1 1.4082 1h0.5v1h1v-1h0.5c0.831 0 1.5-0.669 1.5-1.5s-0.669-1.5-1.5-1.5h-0.5v-1h1.9082c-0.206-0.582-0.754-1-1.408-1h-0.5v-1h-1zm-0.5 2h0.5v1h-0.5c-0.277 0-0.5-0.223-0.5-0.5s0.223-0.5 0.5-0.5zm1.5 2h0.5c0.277 0 0.5 0.223 0.5 0.5s-0.2233 0.513-0.5 0.5h-0.5zm4 2v1h6v-1z" fill="#fff"/>
 </g>
</svg>
