<?xml version="1.0" encoding="UTF-8"?>
<svg width="32" height="32" version="1.1" xmlns="http://www.w3.org/2000/svg">
 <g id="22-22-veracrypt" transform="translate(32,10)">
  <rect width="22" height="22" opacity=".001"/>
  <path d="m2 3 4.4492 16 0.29102-0.95508 1.6152-7.0293h0.085937l-2.1406-8.0156z" fill="#dfdfdf" opacity=".35"/>
  <path d="m12.036 11.02-3.6796-0.0049-1.6154 7.0294-0.29231 0.95508 4.1588-7e-6c1.6878-7.3182 1.4288-7.9802 1.4288-7.9802z" fill="#dfdfdf" opacity=".15"/>
  <path d="m11.038 3-2.599 8.0155 2.1605 7.9845h8.6314l-1.8462-4h-3.7l-1.1227-3.9845 1.4304-4.0155h3.3923l1.8462-4z" fill="#dfdfdf"/>
 </g>
 <g id="veracrypt">
  <rect width="32" height="32" opacity=".001"/>
  <rect transform="matrix(0,-1,-1,0,0,0)" x="-30" y="-30" width="28" height="28" rx="1.5" ry="1.5" fill="#4f4f4f"/>
  <path d="m5 8 6 20h15l-2-5h-4.5l-1.5-4.5 1.5-5.5h4.5l2-5h-10l-2.992 10.471-3.008-10.471z" opacity=".2"/>
  <path d="m3.5 2c-0.831 0-1.5 0.669-1.5 1.5v1c0-0.831 0.669-1.5 1.5-1.5h25c0.831 0 1.5 0.669 1.5 1.5v-1c0-0.831-0.669-1.5-1.5-1.5z" fill="#fff" opacity=".1"/>
  <path d="m2 28.5v1c0 0.831 0.669 1.5 1.5 1.5h25c0.831 0 1.5-0.669 1.5-1.5v-1c0 0.831-0.669 1.5-1.5 1.5h-25c-0.831 0-1.5-0.669-1.5-1.5z" opacity=".2"/>
  <path d="m5 7 5-8e-7 5.269 18.335 0.356 1.665h-4.625z" fill="#0198c4"/>
  <path d="m17.344 17.505-4.119-5e-3 -2.225 9.5h4.5c2.0569-8.9187 1.8443-9.4947 1.8443-9.4947z" fill="#4dbac2"/>
  <path d="m16 7-3 10.5 2.625 9.5h10.375l-2-5h-4.5l-1.5-4.5 1.5-5.5h4.5l2-5z" fill="#06b788"/>
 </g>
</svg>
