<?xml version="1.0" encoding="UTF-8"?>
<svg width="32" height="32" version="1.1" xmlns="http://www.w3.org/2000/svg">
 <g id="22-22-video-display-brightness" transform="translate(32,10)">
  <rect width="22" height="22" opacity=".001"/>
  <path d="m11 1.0996-2.9004 2.9004h-4.0996v4.0996l-2.9004 2.9004 2.9004 2.9004v4.0996h4.0996l2.9004 2.9004 2.9004-2.9004h4.0996v-4.0996l2.9004-2.9004-2.9004-2.9004v-4.0996h-4.0996zm0 3.9004a6 6 0 0 1 6 6 6 6 0 0 1-6 6 6 6 0 0 1-6-6 6 6 0 0 1 6-6zm0 2c-2.2091 0-4 1.7909-4 4s1.7909 4 4 4z" fill="#dfdfdf"/>
 </g>
 <g id="video-display-brightness" transform="translate(0 34.01)">
  <rect y="-34.01" width="32" height="32" opacity=".001"/>
  <g transform="translate(-1.3663e-6 -35)">
   <rect x="8" y="8" width="16" height="21" rx="1.25" ry="1.25" opacity=".2"/>
   <rect x="8" y="7" width="16" height="21" rx="1.25" ry="1.25" fill="#8e8e8e"/>
   <rect x="3" y="6" width="26" height="20" rx="1.25" ry="1.25" opacity=".2"/>
   <path d="m3 22v1.75c0 0.6925 0.5575 1.25 1.25 1.25h23.5c0.6925 0 1.25-0.5575 1.25-1.25v-1.75z" fill="#595959"/>
   <path d="M 4.25,5 C 3.5575,5 3,5.5575 3,6.25 V 22 H 29 V 6.25 C 29,5.5575 28.4425,5 27.75,5 Z" fill="#333"/>
   <rect x="3" y="22" width="26" height="1" fill="#fff" opacity=".1"/>
   <path d="m4.25 5c-0.6925 0-1.25 0.5575-1.25 1.25v1c0-0.6925 0.5575-1.25 1.25-1.25h23.5c0.692 0 1.25 0.5575 1.25 1.25v-1c0-0.6925-0.558-1.25-1.25-1.25h-23.5z" fill="#fff" opacity=".1"/>
   <path d="m16 7.7188c0.73778 0.72803 1.443 1.5569 2.1895 2.2812h2.8105v2.8086c0.72444 0.74643 1.5531 1.4536 2.2812 2.1914-0.72806 0.7378-1.5569 1.472-2.2812 2.2207v2.7793h-2.8105c-0.747 0.724-1.452 1.553-2.19 2.281-0.738-0.728-1.472-1.557-2.221-2.281h-2.779v-2.782c-0.724-0.748-1.5532-1.48-2.2812-2.218 0.728-0.738 1.5572-1.445 2.2812-2.192v-2.8086h2.7793c0.749-0.724 1.483-1.5524 2.221-2.2805zm0 3.2812v8a4 4 0 0 0 4-4 4 4 0 0 0-4-4z" opacity=".2"/>
   <path d="m16 6.7191c0.738 0.728 1.443 1.5569 2.189 2.2812h2.811v2.809c0.724 0.746 1.553 1.453 2.281 2.191-0.728 0.738-1.557 1.472-2.281 2.221v2.779h-2.811c-0.746 0.724-1.451 1.553-2.189 2.281-0.738-0.728-1.472-1.557-2.221-2.281h-2.779v-2.781c-0.724-0.749-1.5532-1.481-2.2812-2.219 0.728-0.738 1.5572-1.445 2.2812-2.191v-2.809h2.779c0.749-0.7244 1.483-1.5532 2.221-2.2812zm0 3.2812v8a4 4 0 0 0 4-4 4 4 0 0 0-4-4z" fill="#fff"/>
  </g>
 </g>
 <g id="video-card-inactive" transform="translate(0,-32)">
  <rect width="32" height="32" opacity=".001"/>
  <path d="m7.3333 8.0004c-0.7386 0-1.3333 0.6175-1.3333 1.3846v15.23c0 0.767 0.5947 1.385 1.3333 1.385h2.6667v-3h6v3h12.667c0.738 0 1.333-0.618 1.333-1.385v-15.23c0-0.7675-0.595-1.385-1.333-1.385z" opacity=".2"/>
  <path d="m7.3333 7c-0.7386 0-1.3333 0.6175-1.3333 1.3846v15.23c0 0.767 0.5947 1.385 1.3333 1.385h2.6667v-3h6v3h12.667c0.738 0 1.333-0.618 1.333-1.385v-15.23c0-0.7675-0.595-1.385-1.333-1.385z" fill="#419d45"/>
  <path d="M 7.334,7 C 6.5953,7 6,7.6177 6,8.3848 v 1 C 6,8.6177 6.5953,8 7.334,8 H 28.666 C 29.405,8 30,8.6177 30,9.3848 v -1 C 30,7.6177 29.405,7 28.666,7 Z" fill="#fff" opacity=".1"/>
  <path d="m15 7v2h1v-2zm2 0v2h1v-2zm2 0v2h1v-2zm2 0v2h1v-2zm-10 4v1h2v-1zm13 0v1h2v-1zm-13 2v1h2v-1zm13 0v1h2v-1zm-13 2v1h2v-1zm13 0v1h2v-1zm0 2v1h2v-1zm-9 3v2h1v-2zm2 0v2h1v-2zm2 0v2h1v-2zm2 0v2h1v-2z" fill="#b7b7b7"/>
  <path d="m11 17v1h2v-1z" fill="#b7b7b7"/>
  <rect x="12" y="8" width="13" height="13" rx="2.6" ry="2.6" fill="#4e4e4e"/>
  <path d="m3 6h2v21" fill="none" opacity=".2" stroke="#000" stroke-linecap="round" stroke-linejoin="round" stroke-width="2"/>
  <path d="m3 5h2v21" fill="none" stroke="#b7b7b7" stroke-linecap="round" stroke-linejoin="round" stroke-width="2"/>
  <g transform="translate(0,1)" opacity=".2">
   <rect x="17" y="22" width="2" height="4"/>
   <rect x="20" y="22" width="2" height="4"/>
   <rect x="23" y="22" width="2" height="4"/>
   <rect x="26" y="22" width="2" height="4"/>
  </g>
  <g fill="#f8c44e">
   <rect x="17" y="22" width="2" height="4"/>
   <rect x="20" y="22" width="2" height="4"/>
   <rect x="23" y="22" width="2" height="4"/>
   <rect x="26" y="22" width="2" height="4"/>
  </g>
  <path d="m3 4a1.0001 1.0001 0 0 0-0.8828 1.4941 1.0001 1.0001 0 0 1 0.8828-0.5078h2a1.0001 1.0001 0 0 1 1 1v-0.9863a1.0001 1.0001 0 0 0-1-1z" fill="#fff" opacity=".2"/>
  <path d="m13 12v5h3v-3h-1v2h-1v-3h2v-1h-2zm4 0v5h1v-2h2v-3zm4 0v5h3v-5h-1v4h-1v-4zm-3 1h1v1h-1z" fill="#fff"/>
  <g transform="translate(-23,95)">
   <circle id="22-22-circle2691" cx="48" cy="-70" r="7" opacity=".2"/>
   <circle cx="48" cy="-71" r="7" fill="#db3c30"/>
   <path d="m45-74v1.1992c0 0.0926 0.0311 0.17623 0.04883 0.26367l1.5371 1.5371-1.5371 1.5371c-0.01844 0.087591-0.048828 0.17258-0.048828 0.26367v1.1992h1.1992c0.09036 0 0.17566-0.03068 0.26367-0.04883l1.5371-1.5371 1.5371 1.5371c0.08802 0.018146 0.17331 0.048828 0.26367 0.048828h1.1992v-1.1992c0-0.09109-0.03039-0.17608-0.04883-0.26367l-1.5371-1.5371 1.5371-1.5371c0.01773-0.087444 0.048828-0.17107 0.048828-0.26367v-1.1992h-1.1992c-0.0926 0-0.17623 0.0311-0.26367 0.04883l-1.5371 1.5371-1.5371-1.5371c-0.087444-0.017725-0.17108-0.048828-0.26367-0.048828z" fill="#fff"/>
  </g>
 </g>
 <g id="22-22-video-card-inactive" transform="translate(27,-27)">
  <rect x="5" y="5" width="22" height="22" opacity=".001"/>
  <path d="m9 8c-1.325 0-1.325 2 0 2h1v3h-2v3h2v1h-2v3h2v2c0 1.325 2 1.325 2 0v-13c0-0.99996-1-1-1-1zm4 3v2h9v5h0.19922c0.31658 0 0.47709 0.07124 0.46289 0.06836a1.0001 1.0001 0 0 1 0.50781 0.27344l0.83008 0.83008v-8.1719zm-4 3h1v1h-1zm5 0v4h1v-4zm2 0v4h1v-4zm2 0v4h1v-4zm2 0v4h1v-4zm-11 4h1v1h-1zm4 1v2h1v2h6.2051a1.0001 1.0001 0 0 1 0.13672-0.16992l0.83008-0.83008-0.83008-0.83008a1.0001 1.0001 0 0 1-0.13477-0.16992h-4.207v-2z" fill="#dfdfdf"/>
  <path d="m21 19v1.1992c0 0.0926 0.0311 0.17623 0.04883 0.26367l1.5371 1.5371-1.5371 1.5371c-0.01844 0.08759-0.04883 0.17258-0.04883 0.26367v1.1992h1.1992c0.09036 0 0.17566-0.03068 0.26367-0.04883l1.5371-1.5371 1.5371 1.5371c0.08802 0.01815 0.17331 0.04883 0.26367 0.04883h1.1992v-1.1992c0-0.09109-0.03039-0.17608-0.04883-0.26367l-1.5371-1.5371 1.5371-1.5371c0.01773-0.08744 0.04883-0.17107 0.04883-0.26367v-1.1992h-1.1992c-0.0926 0-0.17623 0.0311-0.26367 0.04883l-1.5371 1.5371-1.5371-1.5371c-0.08744-0.01772-0.17108-0.04883-0.26367-0.04883z" fill="#f44336"/>
 </g>
 <g id="video-display" transform="translate(0 66.01)">
  <rect y="-34" width="32" height="32" opacity=".001"/>
  <g transform="translate(-1.3663e-6 -35)">
   <rect x="8" y="8" width="16" height="21" rx="1.25" ry="1.25" opacity=".2"/>
   <rect x="8" y="7" width="16" height="21" rx="1.25" ry="1.25" fill="#8e8e8e"/>
   <rect x="3" y="6" width="26" height="20" rx="1.25" ry="1.25" opacity=".2"/>
   <path d="m3 22v1.75c0 0.6925 0.5575 1.25 1.25 1.25h23.5c0.6925 0 1.25-0.5575 1.25-1.25v-1.75z" fill="#595959"/>
   <path d="M 4.25,5 C 3.5575,5 3,5.5575 3,6.25 V 22 H 29 V 6.25 C 29,5.5575 28.4425,5 27.75,5 Z" fill="#333"/>
   <rect x="3" y="22" width="26" height="1" fill="#fff" opacity=".1"/>
   <path d="m4.25 5c-0.6925 0-1.25 0.5575-1.25 1.25v1c0-0.6925 0.5575-1.25 1.25-1.25h23.5c0.692 0 1.25 0.5575 1.25 1.25v-1c0-0.6925-0.558-1.25-1.25-1.25h-23.5z" fill="#fff" opacity=".1"/>
  </g>
 </g>
 <g id="22-22-video-display" transform="translate(27,37)">
  <rect x="5" y="5" width="22" height="22" opacity=".001"/>
  <path d="m9 9c-0.554 0-1 0.446-1 1v10c0 0.554 0.446 1 1 1h5c-0.554 0-1 0.446-1 1v1h6v-1c0-0.554-0.446-1-1-1h5c0.554 0 1-0.446 1-1v-10c0-0.554-0.446-1-1-1zm1 2h12v8h-12z" fill="#dfdfdf"/>
 </g>
</svg>
