<?xml version="1.0" encoding="UTF-8"?>
<svg width="32" height="32" version="1.1" xmlns="http://www.w3.org/2000/svg">
 <g id="view-refresh" transform="translate(-250 54)">
  <path d="m282-38h16v16h-16z" opacity=".001"/>
  <g transform="translate(281.97 -37)">
   <g transform="translate(-485.03 -41.017)">
    <path d="m499.06 49.018c0 3.3137-2.6863 6-6 6-3.2801 0-5.9403-2.6332-5.9941-5.9004a1 1 0 0 1-6e-3 -0.09961 1 1 0 0 1 1-1 1 1 0 0 1 1 1c0 2.2091 1.7909 4 4 4s4-1.7909 4-4-1.7909-4-4-4v2l-4-3 4-3v2c3.3137 0 6 2.6863 6 6z" fill="#dfdfdf"/>
   </g>
  </g>
 </g>
 <g id="view-history">
  <rect width="32" height="32" opacity=".001"/>
  <path d="m16 3c-7.7247 0-14 6.2753-14 14 0 7.7247 6.2753 14 14 14 7.7247 0 14-6.2753 14-14 0-7.7247-6.2753-14-14-14z" opacity=".2"/>
  <path d="m16 2c-7.7247 0-14 6.2753-14 14 0 7.7247 6.2753 14 14 14 7.7247 0 14-6.2753 14-14 0-7.7247-6.2753-14-14-14z" fill="#ff9800"/>
  <path d="m16 6c-6.0694 0-11 4.9306-11 11 0 6.0694 4.9306 11 11 11 6.0694 0 11-4.9306 11-11 0-6.0694-4.9306-11-11-11z" opacity=".2"/>
  <path d="m16 5c-6.0694 0-11 4.9306-11 11 0 6.0694 4.9306 11 11 11 6.0694 0 11-4.9306 11-11 0-6.0694-4.9306-11-11-11z" fill="#fff"/>
  <path d="m16.238 15.742-0.47656 0.51562 8.0742 7.4512c0.16352-0.16619 0.31792-0.34132 0.4707-0.51758z" fill="#ff4747"/>
  <path d="m15.99 16.301a0.7 0.7 0 0 0-0.3125 0.07813l-8.2988 4.2988a0.7 0.7 0 0 0-0.30078 0.94336 0.7 0.7 0 0 0 0.94336 0.30078l8.3008-4.3008a0.7 0.7 0 0 0 0.29883-0.94336 0.7 0.7 0 0 0-0.63086-0.37695z" opacity=".1"/>
  <path d="M 7.7,20.3 16,16" fill="none" stroke="#4f4f4f" stroke-linecap="round" stroke-linejoin="round" stroke-width="1.4"/>
  <path d="m19.977 9a1.05 1.05 0 0 0-0.93945 0.53125l-3.9492 6.9492a1.05 1.05 0 0 0 0.39258 1.4316 1.05 1.05 0 0 0 1.4316-0.39258l3.9512-6.9512a1.05 1.05 0 0 0-0.39453-1.4316 1.05 1.05 0 0 0-0.49219-0.13672z" opacity=".1"/>
  <path d="m16 16 3.95-6.95" fill="none" stroke="#4f4f4f" stroke-linecap="round" stroke-linejoin="round" stroke-width="2.1"/>
  <path d="m16 15c-1.1035 0-2 0.89647-2 2s0.89647 2 2 2 2-0.89647 2-2-0.89647-2-2-2z" opacity=".1"/>
  <path d="m16 14c-1.1035 0-2 0.89647-2 2s0.89647 2 2 2 2-0.89647 2-2-0.89647-2-2-2z" fill="#4f4f4f"/>
  <path d="m16 2c-7.7247 0-14 6.2753-14 14 0 0.16885 0.019445 0.33259 0.025391 0.5 0.26608-7.4916 6.4187-13.5 13.975-13.5 7.5559 0 13.709 6.0084 13.975 13.5 0.005946-0.16741 0.025391-0.33115 0.025391-0.5 0-7.7247-6.2753-14-14-14z" fill="#fff" opacity=".2"/>
  <path d="m16 14.5c-0.82765 0-1.5 0.67235-1.5 1.5s0.67235 1.5 1.5 1.5 1.5-0.67235 1.5-1.5-0.67235-1.5-1.5-1.5z" fill="#fff"/>
 </g>
</svg>
