<?xml version="1.0" encoding="UTF-8"?>
<svg width="32" height="32" version="1.1" xmlns="http://www.w3.org/2000/svg">
 <g id="wallet-open">
  <rect y="-32" width="32" height="32" opacity=".001"/>
  <path d="m29.6-19h-5.6v8h5.6c0.776 0 1.4-0.595 1.4-1.333v-5.3333c0-0.739-0.624-1.334-1.4-1.334z" opacity=".2"/>
  <path d="m29.6-20h-5.6v8h5.6c0.776 0 1.4-0.595 1.4-1.333v-5.3333c0-0.739-0.624-1.334-1.4-1.334z" fill="#9b6e3e"/>
  <path d="m29-4.2857v-21.429c0-0.71229-0.57777-1.2857-1.2955-1.2857h-16.409c-0.71768 0-1.2955 0.57343-1.2955 1.2857v21.429c0 0.71228 0.57777 1.2857 1.2955 1.2857h16.409c0.71768 0 1.2955-0.57343 1.2955-1.2857z" opacity=".2"/>
  <path d="m29-5.2857v-21.429c0-0.71229-0.57777-1.2857-1.2955-1.2857h-16.409c-0.71768 0-1.2955 0.57343-1.2955 1.2857v21.429c0 0.71228 0.57777 1.2857 1.2955 1.2857h16.409c0.71768 0 1.2955-0.57343 1.2955-1.2857z" fill="#e4e4e4"/>
  <path d="m26-3.4v-25.2c0-0.7756-0.61325-1.4-1.375-1.4h-19.25c-0.7618 0-1.375 0.6244-1.375 1.4v25.2c0 0.776 0.6132 1.4 1.375 1.4h19.25c0.762 0 1.375-0.624 1.375-1.4z" fill="#c49a6c"/>
  <path d="m6.8423-29v0.7027h2.0343v-0.7027zm2.7124 0v0.7027h2.0343v-0.7027zm2.7124 0v0.7027h1.8833v-0.7027zm2.5614 0v0.7027h1.6952v-0.7027zm2.3733 0v0.7027h2.0343v-0.7027zm2.7124 0v0.7027h2.0343v-0.7027zm2.7124 0v0.7027h0.65691l0.22647 0.02196 0.19204 0.06313 0.17217 0.09744 0.14966 0.12627 0.12317 0.15509 0.02119 0.02745 0.13509-0.11529 0.43971-0.24704-0.01457-0.02882-0.0159-0.03019-0.02119-0.02608-0.16555-0.20861-0.01986-0.02608-0.02516-0.02059-0.20131-0.17156-0.02516-0.02196-0.02914-0.01647-0.23045-0.12901-0.02914-0.01647-0.03179-0.0096-0.25561-0.08235-0.03179-0.0096-0.03443-0.0041-0.27283-0.02882-0.01722-0.0014h-0.69532zm-16.494 0.0206-0.0861 0.0096-0.0345 0.0041-0.0317 0.0096-0.2557 0.0824-0.031782 0.0096-0.029138 0.01647-0.23045 0.12901-0.029138 0.01647-0.025165 0.02196-0.20132 0.17156-0.025164 0.02059-0.019867 0.02608-0.13112 0.1647h1.1973l-0.066221-0.68211zm18.858 1.6044-0.67545 0.07 8e-3 0.08372v1.9887h0.6781v-2.0285l-0.0014-0.01784-0.0093-0.09607zm-0.6675 2.8451v2.1081h0.6781v-2.1081zm0 2.8108v2.1081h0.6781v-2.1081zm0 2.8108v2.1081h0.6781v-2.1081zm0 2.8108v2.1081h0.6781v-2.1081zm0 2.8108v2.1081h0.6781v-2.1081zm0 2.8108v2.1081h0.6781v-2.1081zm0 2.8108v2.1081h0.6781v-2.1081zm0 2.8108v0.07549l-0.02119 0.23469-0.06093 0.19901-0.09404 0.17842-0.12185 0.15509-0.14966 0.12627-0.17217 0.09744-0.19072 0.06176-0.05298 0.0055 0.06754 0.69996 0.08609-0.0096 0.03443-0.0041 0.03179-0.0096 0.25561-0.08235 0.03179-0.0096 0.02914-0.01647 0.23045-0.12901 0.02914-0.01647 0.02517-0.02196 0.20131-0.17156 0.02516-0.02059 0.01986-0.02608 0.16555-0.20861 0.02119-0.02608 0.0159-0.0302 0.1245-0.23881 0.0159-0.0302 0.0093-0.03294 0.07947-0.26488 0.0093-0.03294 0.0039-0.03569 0.02782-0.28273 0.0013-0.01781v-0.11528h-0.6781zm-19.322 1.1515 0.13112 0.1647 0.019867 0.02608 0.025164 0.02059 0.20131 0.17156 0.025164 0.02196 0.029138 0.01647 0.23045 0.12901 0.029138 0.01647 0.031782 0.0096 0.25561 0.08235 0.031782 0.0096 0.034434 0.0041 0.27283 0.02882 0.017217 0.0014h0.69532v-0.7027h-2.0303zm2.7084 0v0.7027h2.0343v-0.7027zm2.7124 0v0.7027h2.0343v-0.7027zm2.7124 0v0.7027h1.6952v-0.7027zm2.3733 0v0.7027h1.8833v-0.7027zm2.5614 0v0.7027h2.0343v-0.7027zm2.7124 0v0.7027h2.0343v-0.7027z" fill="#fff"/>
  <path d="m11.83-14-1.7568 0.15979v6.8467l1.738-0.24856v-2.9191l2.3386 3.2387 1.8318-0.55043-2.3949-3.1144 2.4137-2.9368-1.8694-0.40484-2.3198 2.9368 0.01873-3.0079zm-3.9832 1.669c-0.019814 0.0038-0.0414 7e-3 -0.056308 0.02149l-0.6907 0.654c-0.029 0.028-0.0325 0.07-0.0112 0.103l0.80706 1.2607c-0.1433 0.228-0.2597 0.472-0.3416 0.731l-1.4828 0.291c-0.0413 8e-3 -0.0713 0.045-0.0713 0.085v0.92331c0 0.03908 0.031386 0.07252 0.071321 0.08168l1.4377 0.33024c0.076873 0.30008 0.19564 0.5872 0.35285 0.84875l-0.83332 1.2003c-0.023265 0.03337-0.018722 0.07824 0.011235 0.10653l0.6907 0.65341c0.029114 0.0274 0.073725 0.03084 0.10886 0.0105l1.3063-0.749c0.25621 0.13993 0.53361 0.25204 0.82582 0.3267l0.3046 1.385c8e-3 0.039 0.044 0.067 0.086 0.067h0.97598c0.04094 0 0.07661-0.02593 0.08634-0.06392l0.36036-1.392c0.30138-0.07688 0.58554-0.19099 0.84835-0.33737l1.2875 0.79902c0.03547 0.0217 0.08253 0.01751 0.11261-0.01053l0.68694-0.6534c0.02919-0.0277 0.03641-0.06972 0.01508-0.10299l-0.46922-0.73151-0.1539 0.04615c-0.02223 0.0065-0.04685-0.0038-0.06006-0.02147 0 0-0.2964-0.4125-0.68318-0.94814-0.46259 0.85628-1.406 1.4418-2.4925 1.4418-1.544 0-2.7965-1.185-2.7965-2.6456 0-1.0744 0.67913-1.9972 1.6517-2.4113v-0.6818c-0.177 0.05861-0.34799 0.1293-0.51051 0.21306-2.029e-4 -1.49e-4 3.278e-4 -0.0038 0-0.0038l-1.3178-0.817c-0.017665-0.01084-0.036465-0.01259-0.056322-0.01049z" opacity=".4"/>
  <path d="m5.375-30c-0.7618 0-1.375 0.6248-1.375 1.4004v1c0-0.7756 0.6132-1.4004 1.375-1.4004h19.25c0.762 0 1.375 0.6248 1.375 1.4004v-1c0-0.7756-0.613-1.4004-1.375-1.4004z" fill="#fff" opacity=".2"/>
  <path d="m4-3.4v1c0 0.775 0.6132 1.4 1.375 1.4h19.25c0.762 0 1.375-0.625 1.375-1.4v-1c0 0.775-0.613 1.4-1.375 1.4h-19.25c-0.7618 0-1.375-0.625-1.375-1.4z" opacity=".2"/>
 </g>
 <g id="wallet-closed">
  <rect width="32" height="32" opacity=".001"/>
  <path d="m26 28.6v-25.2c0-0.7756-0.61325-1.4-1.375-1.4h-19.25c-0.7618 0-1.375 0.6244-1.375 1.4v25.2c0 0.776 0.6132 1.4 1.375 1.4h19.25c0.762 0 1.375-0.624 1.375-1.4z" fill="#c49a6c"/>
  <path d="m21.4 13h5.6v8h-5.6c-0.776 0-1.4-0.595-1.4-1.333v-5.3333c0-0.739 0.624-1.334 1.4-1.334z" opacity=".1"/>
  <path d="m6.8423 3.0001v0.7027h2.0343v-0.7027zm2.7124 0v0.7027h2.0343v-0.7027zm2.7124 0v0.7027h1.8833v-0.7027zm2.5614 0v0.7027h1.6952v-0.7027zm2.3733 0v0.7027h2.0343v-0.7027zm2.7124 0v0.7027h2.0343v-0.7027zm2.7124 0v0.7027h0.65691l0.22647 0.021959 0.19204 0.063134 0.17217 0.097444 0.14966 0.12627 0.12317 0.15509 0.02119 0.027449 0.13509-0.11529 0.43971-0.24704-0.01457-0.028822-0.0159-0.030194-0.02119-0.026076-0.16555-0.20861-0.01986-0.026076-0.02516-0.020587-0.20131-0.17156-0.02516-0.021959-0.02914-0.016469-0.23045-0.12901-0.02914-0.016469-0.03179-0.00961-0.25561-0.082348-0.03179-0.00961-0.03443-0.00412-0.27283-0.028822-0.01722-0.00137h-0.69532zm-16.494 0.0206-0.0861 0.0096-0.0345 0.0041-0.0317 0.0096-0.2557 0.0824-0.031782 0.00961-0.029138 0.016469-0.23045 0.12901-0.029138 0.016469-0.025165 0.021959-0.20132 0.17156-0.025164 0.020587-0.019867 0.026076-0.13112 0.1647h1.1973l-0.066221-0.68211zm18.858 1.6044-0.67545 0.069996 8e-3 0.08372v1.9887h0.6781v-2.0285l-0.0014-0.017842-0.0093-0.096072zm-0.6675 2.8451v2.1081h0.6781v-2.1081zm0 2.8108v2.1081h0.6781v-2.1081zm0 2.8108v2.1081h0.6781v-2.1081zm0 2.8108v2.1081h0.6781v-2.1081zm0 2.8108v2.1081h0.6781v-2.1081zm0 2.8108v2.1081h0.6781v-2.1081zm0 2.8108v2.1081h0.6781v-2.1081zm0 2.8108v0.07549l-0.02119 0.23469-0.06093 0.19901-0.09404 0.17842-0.12185 0.15509-0.14966 0.12627-0.17217 0.09744-0.19072 0.06176-0.05298 0.0055 0.06754 0.69996 0.08609-0.0096 0.03443-0.0041 0.03179-0.0096 0.25561-0.08235 0.03179-0.0096 0.02914-0.01647 0.23045-0.12901 0.02914-0.01647 0.02517-0.02196 0.20131-0.17156 0.02516-0.02059 0.01986-0.02608 0.16555-0.20861 0.02119-0.02608 0.0159-0.0302 0.1245-0.23881 0.0159-0.0302 0.0093-0.03294 0.07947-0.26488 0.0093-0.03294 0.0039-0.03569 0.02782-0.28273 0.0013-0.01781v-0.11528h-0.6781zm-19.322 1.1515 0.13112 0.1647 0.019867 0.02608 0.025164 0.02059 0.20131 0.17156 0.025164 0.02196 0.029138 0.01647 0.23045 0.12901 0.029138 0.01647 0.031782 0.0096 0.25561 0.08235 0.031782 0.0096 0.034434 0.0041 0.27283 0.02882 0.017217 0.0014h0.69532v-0.7027h-2.0303zm2.7084 0v0.7027h2.0343v-0.7027zm2.7124 0v0.7027h2.0343v-0.7027zm2.7124 0v0.7027h1.6952v-0.7027zm2.3733 0v0.7027h1.8833v-0.7027zm2.5614 0v0.7027h2.0343v-0.7027zm2.7124 0v0.7027h2.0343v-0.7027z" fill="#fff"/>
  <path d="m21.4 12h5.6v8h-5.6c-0.776 0-1.4-0.595-1.4-1.333v-5.3333c0-0.739 0.624-1.334 1.4-1.334z" fill="#9b6e3e"/>
  <path d="m22.088 13v0.14285l-0.01494-0.14173-0.05515 0.0057 0.03102 0.28346 0.03907-0.0049h0.58822v-0.28569h-0.58825zm0.88234 0v0.28569h0.58824v-0.28569zm0.88234 0v0.28569h0.58824v-0.28569zm0.88234 0v0.28569h0.58824v-0.28569zm0.88234 0v0.28569h0.38259v-0.2857h-0.38259zm-3.9143 0.07369-0.02643 0.0077-0.01494 0.0049-0.01263 0.0065-0.1597 0.08816-0.01263 0.0065-0.01148 0.0086-0.13902 0.11606-0.01034 0.0086-0.0092 0.01118-0.11489 0.14061-8e-3 0.01118-0.0069 0.01227-0.0035 0.0065 0.16774 0.08479 0.08157 0.06248 0.10799-0.13169 0.11374-0.09597 0.13557-0.07368 0.01263-0.0049-0.0012-0.0021 0.0022-8.47e-4 -0.0057-0.0086-0.08501-0.2589zm-0.65602 0.71645-0.02183 0.07255-0.0046 0.01227-0.0012 0.01449-0.01838 0.19194-0.0012 0.0065v0.31006h0.29412v-0.30371l0.01723-0.16628 0.01724-0.05693-0.28148-0.08149zm-0.0471 0.8939v0.57138h0.29412v-0.57138zm0 0.85706v0.57138h0.29412v-0.57138zm0 0.85707v0.57138h0.29412v-0.57138zm0 0.85706v0.57139h0.29412v-0.57139zm0.31135 0.81466-0.28148 0.08149 0.0494 0.16516 0.0046 0.01339 0.0069 0.01118 0.08617 0.16182 0.0069 0.01226 8e-3 0.01118 0.11489 0.14061 0.0092 0.01118 0.01034 0.0086 0.02873 0.02343 0.19187-0.2165-0.01608-0.01339-0.09881-0.12053-0.07468-0.1395-0.04596-0.15066zm0.45152 0.57138-0.14362 0.24887 0.02987 0.01676 0.01263 0.0065 0.01494 0.0049 0.17578 0.0558 0.01494 0.0049 0.01494 8.46e-4 0.19072 0.01899 8e-3 8.46e-4h0.18385v-0.28569h-0.17692l-0.16199-0.01788-0.14821-0.04685-0.01494-0.0077zm0.79619 0.07256v0.2857h0.58824v-0.2857zm0.88234 0v0.2857h0.58824v-0.2857zm0.88234 0v0.2857h0.58824v-0.2857zm0.88234 0v0.2857h0.58824v-0.2857z" fill="#fff"/>
  <g transform="matrix(.5 0 0 .5 6 4.5)">
   <path d="m36 23a2 2 0 0 1-2 2 2 2 0 0 1-2-2 2 2 0 0 1 2-2 2 2 0 0 1 2 2z" fill="#c8c8c8"/>
   <path d="m35.5 22.25a1.5 1.25 0 0 1-1.5 1.25 1.5 1.25 0 0 1-1.5-1.25 1.5 1.25 0 0 1 1.5-1.25 1.5 1.25 0 0 1 1.5 1.25z" fill="#fff"/>
  </g>
  <path d="m11.83 18-1.7568 0.15979v6.8467l1.738-0.24856v-2.9191l2.3386 3.2387 1.8318-0.55043-2.3949-3.1144 2.4137-2.9368-1.8694-0.40484-2.3198 2.9368 0.01873-3.0079zm-3.9832 1.669c-0.019814 0.0038-0.0414 7e-3 -0.056308 0.02149l-0.6907 0.654c-0.029 0.028-0.0325 0.07-0.0112 0.103l0.80706 1.2607c-0.1433 0.228-0.2597 0.472-0.3416 0.731l-1.4828 0.291c-0.0413 8e-3 -0.0713 0.045-0.0713 0.085v0.92331c0 0.03908 0.031386 0.07252 0.071321 0.08168l1.4377 0.33024c0.076873 0.30008 0.19564 0.5872 0.35285 0.84875l-0.83332 1.2003c-0.023265 0.03337-0.018722 0.07824 0.011235 0.10653l0.6907 0.65341c0.029114 0.0274 0.073725 0.03084 0.10886 0.0105l1.3063-0.749c0.25621 0.13993 0.53361 0.25204 0.82582 0.3267l0.3046 1.385c8e-3 0.039 0.044 0.067 0.086 0.067h0.97598c0.04094 0 0.07661-0.02593 0.08634-0.06392l0.36036-1.392c0.30138-0.07688 0.58554-0.19099 0.84835-0.33737l1.2875 0.79902c0.03547 0.0217 0.08253 0.01751 0.11261-0.01053l0.68694-0.6534c0.02919-0.0277 0.03641-0.06972 0.01508-0.10299l-0.46922-0.73151-0.1539 0.04615c-0.02223 0.0065-0.04685-0.0038-0.06006-0.02147 0 0-0.2964-0.4125-0.68318-0.94814-0.46259 0.85628-1.406 1.4418-2.4925 1.4418-1.544 0-2.7965-1.185-2.7965-2.6456 0-1.0744 0.67913-1.9972 1.6517-2.4113v-0.6818c-0.177 0.05861-0.34799 0.1293-0.51051 0.21306-2.029e-4 -1.49e-4 3.278e-4 -0.0038 0-0.0038l-1.3178-0.817c-0.017665-0.01084-0.036465-0.01259-0.056322-0.01049z" opacity=".4"/>
  <path d="M 5.375,2 C 4.6132,2 4,2.6248 4,3.4004 v 1 C 4,3.6248 4.6132,3 5.375,3 h 19.25 C 25.387,3 26,3.6248 26,4.4004 v -1 C 26,2.6248 25.387,2 24.625,2 Z" fill="#fff" opacity=".2"/>
  <path d="m4 28.6v1c0 0.775 0.6132 1.4 1.375 1.4h19.25c0.762 0 1.375-0.625 1.375-1.4v-1c0 0.775-0.613 1.4-1.375 1.4h-19.25c-0.7618 0-1.375-0.625-1.375-1.4z" opacity=".2"/>
 </g>
 <g id="22-22-wallet-closed" transform="translate(61.659 40.085)">
  <rect x="-29.66" y="-30.09" width="22" height="22" opacity=".001"/>
  <path d="m-25.159-27.085c-0.831 0-1.5 0.669-1.5 1.5v13c0 0.831 0.669 1.5 1.5 1.5h11c0.831 0 1.5-0.669 1.5-1.5v-1.5h-1.5996c-1.2872 0-2.4004-1.0303-2.4004-2.332v-5.334c0-1.3019 1.1132-2.334 2.4004-2.334h1.5996v-1.5c0-0.831-0.669-1.5-1.5-1.5zm10.9 4c-0.776 0-1.4004 0.59498-1.4004 1.334v5.334c0 0.738 0.62439 1.332 1.4004 1.332h3.5996v-8zm0.59961 3a1 1 0 0 1 1 1 1 1 0 0 1-1 1 1 1 0 0 1-1-1 1 1 0 0 1 1-1z" fill="#dfdfdf"/>
 </g>
 <g id="22-22-wallet-open" transform="translate(27,-27)">
  <rect x="5" y="5" width="22" height="22" opacity=".001"/>
  <path d="m9.5 8c-0.831 0-1.5 0.669-1.5 1.5v13c0 0.831 0.669 1.5 1.5 1.5h11c0.831 0 1.5-0.669 1.5-1.5v-13c0-0.831-0.669-1.5-1.5-1.5zm16.5 5v6h0.14258c0.47486 0 0.85742-0.25088 0.85742-0.5625v-4.875c0-0.31162-0.38256-0.5625-0.85742-0.5625z" fill="#dfdfdf"/>
  <path d="m22.908 9c0.055658 0.15722 0.091797 0.32324 0.091797 0.5v13c0 0.17676-0.03614 0.34278-0.0918 0.5h0.80664c0.71229 0 1.2852-0.58538 1.2852-1.3125v-11.375c0-0.72712-0.57287-1.3125-1.2852-1.3125z" fill="#4285f4"/>
 </g>
</svg>
