<?xml version="1.0" encoding="UTF-8"?>
<svg width="32" height="32" version="1.1" xmlns="http://www.w3.org/2000/svg">
 <g id="16-16-zoom-fit-width" transform="translate(-435 43)">
  <rect x="489" y="-59" width="16" height="16" opacity=".001"/>
  <path d="m494-54.003-4 3 4 3v-2h6v2l4-3-4-3v2h-6z" fill="#dfdfdf"/>
 </g>
 <g id="16-16-zoom-fit-height" transform="rotate(90,242,-231)">
  <rect x="489" y="-59" width="16" height="16" opacity=".001"/>
  <path d="m494-54.003-4 3 4 3v-2h6v2l4-3-4-3v2h-6z" fill="#dfdfdf"/>
 </g>
 <g id="22-22-zoom-fit-width" transform="translate(-433,43)">
  <rect x="465" y="-65" width="22" height="22" opacity=".001"/>
  <path d="m472-58.003-5 4 5 4v-3h8v3l5-4-5-4v3h-8z" fill="#dfdfdf"/>
 </g>
 <g id="zoom-fit-width" transform="translate(0,-32)">
  <rect width="32" height="32" opacity=".001"/>
  <rect x="9" y="15" width="14" height="4" opacity=".2"/>
  <path d="m10.203 11.001a1.746 1.723 0 0 0-0.82179 0.22965l-3.7543 2.1384-3.7543 2.1392a1.746 1.723 0 0 0 0 2.9838l3.7543 2.1392 3.7543 2.1384a1.746 1.723 0 0 0 2.6188-1.4915v-8.5551a1.746 1.723 0 0 0-1.797-1.722z" opacity=".2"/>
  <path d="m21.797 11.001a1.746 1.723 0 0 1 0.82179 0.22965l3.7543 2.1384 3.7543 2.1392a1.746 1.723 0 0 1 0 2.9838l-3.7543 2.1392-3.7543 2.1384a1.746 1.723 0 0 1-2.6188-1.4915v-8.5551a1.746 1.723 0 0 1 1.797-1.722z" opacity=".2"/>
  <rect x="9" y="14" width="14" height="4" fill="#8e8e8e"/>
  <path d="m10.203 10.001a1.746 1.723 0 0 0-0.82179 0.22965l-3.7543 2.1384-3.7543 2.1392a1.746 1.723 0 0 0 0 2.9838l3.7543 2.1392 3.7543 2.1384a1.746 1.723 0 0 0 2.6188-1.4915v-8.5551a1.746 1.723 0 0 0-1.797-1.722z" fill="#e4e4e4"/>
  <path d="m21.797 10.001a1.746 1.723 0 0 1 0.82179 0.22965l3.7543 2.1384 3.7543 2.1392a1.746 1.723 0 0 1 0 2.9838l-3.7543 2.1392-3.7543 2.1384a1.746 1.723 0 0 1-2.6188-1.4915v-8.5551a1.746 1.723 0 0 1 1.797-1.722z" fill="#e4e4e4"/>
  <path d="m10.203 10a1.746 1.723 0 0 0-0.82227 0.23047l-7.5078 4.2773a1.746 1.723 0 0 0-0.79688 1.9922 1.746 1.723 0 0 1 0.79688-0.99219l7.5078-4.2773a1.746 1.723 0 0 1 0.82227-0.23047 1.746 1.723 0 0 1 1.7969 1.7227v-1a1.746 1.723 0 0 0-1.7969-1.7227z" fill="#fff" opacity=".2"/>
  <path d="m21.797 10a1.746 1.723 0 0 0-1.7969 1.7227v1a1.746 1.723 0 0 1 1.7969-1.7227 1.746 1.723 0 0 1 0.82227 0.23047l7.5078 4.2773a1.746 1.723 0 0 1 0.79688 0.99219 1.746 1.723 0 0 0-0.79688-1.9922l-7.5078-4.2773a1.746 1.723 0 0 0-0.82227-0.23047z" fill="#fff" opacity=".2"/>
 </g>
 <g id="22-22-zoom-fit-height" transform="rotate(90,222,-233)">
  <rect x="465" y="-65" width="22" height="22" opacity=".001"/>
  <path d="m472-58.003-5 4 5 4v-3h8v3l5-4-5-4v3h-8z" fill="#dfdfdf"/>
 </g>
 <g id="zoom-fit-height" transform="translate(0,32)">
  <rect transform="rotate(90)" x="-32" y="-32" width="32" height="32" opacity=".001"/>
  <rect transform="rotate(90)" x="-23" y="-18" width="14" height="4" fill="#8e8e8e"/>
  <path d="m21.999-20.797a1.723 1.746 0 0 0-0.22965-0.82179l-2.1384-3.7543-2.1392-3.7543a1.723 1.746 0 0 0-2.9838 0l-2.1392 3.7543-2.1384 3.7543a1.723 1.746 0 0 0 1.4915 2.6188h8.5551a1.723 1.746 0 0 0 1.722-1.797z" opacity=".2"/>
  <path d="m21.999-21.797a1.723 1.746 0 0 0-0.22965-0.82179l-2.1384-3.7543-2.1392-3.7543a1.723 1.746 0 0 0-2.9838 0l-2.1392 3.7543-2.1384 3.7543a1.723 1.746 0 0 0 1.4915 2.6188h8.5551a1.723 1.746 0 0 0 1.722-1.797z" fill="#e4e4e4"/>
  <path d="m21.999-9.203a1.723 1.746 0 0 1-0.22965 0.82179l-2.1384 3.7543-2.1392 3.7543a1.723 1.746 0 0 1-2.9838 0l-2.1392-3.7543-2.1384-3.7543a1.723 1.746 0 0 1 1.4915-2.6188h8.5551a1.723 1.746 0 0 1 1.722 1.797z" opacity=".2"/>
  <path d="m21.999-10.203a1.723 1.746 0 0 1-0.22965 0.82179l-2.1384 3.7543-2.1392 3.7543a1.723 1.746 0 0 1-2.9838 0l-2.1392-3.7543-2.1384-3.7543a1.723 1.746 0 0 1 1.4915-2.6188h8.5551a1.723 1.746 0 0 1 1.722 1.797z" fill="#e4e4e4"/>
  <path d="m15.908-30.998a1.723 1.746 0 0 0-1.4004 0.87109l-4.2773 7.5078a1.723 1.746 0 0 0-0.15625 1.373 1.723 1.746 0 0 1 0.15625-0.37305l4.2773-7.5078a1.723 1.746 0 0 1 2.9844 0l4.2773 7.5078a1.723 1.746 0 0 1 0.15625 0.37305 1.723 1.746 0 0 0 0.074219-0.55078 1.723 1.746 0 0 0-0.23047-0.82227l-4.2773-7.5078a1.723 1.746 0 0 0-1.584-0.87109z" fill="#fff" opacity=".2"/>
  <path d="m11.723-12a1.723 1.746 0 0 0-1.6484 2.2461 1.723 1.746 0 0 1 1.6484-1.2461h8.5547a1.723 1.746 0 0 1 1.6484 1.2461 1.723 1.746 0 0 0 0.074219-0.44922 1.723 1.746 0 0 0-1.7227-1.7969h-4.2773z" fill="#fff" opacity=".2"/>
 </g>
</svg>
