<?xml version="1.0" encoding="UTF-8"?>
<svg width="48" height="48" version="1.1" xmlns="http://www.w3.org/2000/svg">
 <defs id="materia">
  <style id="current-color-scheme" type="text/css">.ColorScheme-Background {color:#181818; } .ColorScheme-ButtonBackground { color:#343434; } .ColorScheme-Highlight { color:#4285f4; } .ColorScheme-Text { color:#dfdfdf; } .ColorScheme-ViewBackground { color:#242424; } .ColorScheme-NegativeText { color:#f44336; } .ColorScheme-PositiveText { color:#4caf50; } .ColorScheme-NeutralText { color:#ff9800; }</style>
 </defs>
 <g id="16-16-remove-normal" transform="translate(0,-18)">
  <rect y="34" width="16" height="16" opacity=".001"/>
  <path class="ColorScheme-Text" d="m15 42a7 7 0 0 1-7 7 7 7 0 0 1-7-7 7 7 0 0 1 7-7 7 7 0 0 1 7 7z" fill="currentColor" opacity=".1"/>
  <rect class="ColorScheme-Text" transform="rotate(90)" x="41" y="-12" width="2" height="8" fill="currentColor"/>
 </g>
 <g id="16-16-add-normal" transform="translate(0,-18)">
  <rect y="18" width="16" height="16" opacity=".001"/>
  <path class="ColorScheme-Text" d="m15 26a7 7 0 0 1-7 7 7 7 0 0 1-7-7 7 7 0 0 1 7-7 7 7 0 0 1 7 7z" fill="currentColor" opacity=".1"/>
  <path class="ColorScheme-Text" transform="translate(0,18)" d="m7 4v3h-3v2h3v3h2v-3h3v-2h-3v-3h-2z" fill="currentColor"/>
 </g>
 <g id="16-16-open-normal" transform="translate(0,-18)">
  <rect y="50" width="16" height="16" opacity=".001"/>
  <path class="ColorScheme-Text" d="m15 58a7 7 0 0 1-7 7 7 7 0 0 1-7-7 7 7 0 0 1 7-7 7 7 0 0 1 7 7z" fill="currentColor" opacity=".1"/>
  <path class="ColorScheme-Text" transform="matrix(1.0756 0 0 .77622 -.90682 26.622)" d="m8.281 36.559 3.719 6.4414h-7.4379l1.8595-3.2207z" fill="currentColor"/>
 </g>
 <g id="16-16-remove-hover" transform="translate(16,-18)">
  <rect y="34" width="16" height="16" opacity=".001"/>
  <path class="ColorScheme-NegativeText" d="m15 42a7 7 0 0 1-7 7 7 7 0 0 1-7-7 7 7 0 0 1 7-7 7 7 0 0 1 7 7z" fill="currentColor"/>
  <rect class="ColorScheme-Text" transform="rotate(90)" x="41" y="-12" width="2" height="8" fill="currentColor"/>
 </g>
 <g id="16-16-add-hover" transform="translate(16,-18)">
  <rect y="18" width="16" height="16" opacity=".001"/>
  <path class="ColorScheme-PositiveText" d="m15 26a7 7 0 0 1-7 7 7 7 0 0 1-7-7 7 7 0 0 1 7-7 7 7 0 0 1 7 7z" fill="currentColor"/>
  <path class="ColorScheme-Text" transform="translate(-16,18)" d="m23 4v3h-3v2h3v3h2v-3h3v-2h-3v-3h-2z" fill="currentColor"/>
 </g>
 <g id="16-16-open-hover" transform="translate(16,-18)">
  <rect y="50" width="16" height="16" opacity=".001"/>
  <path class="ColorScheme-Highlight" d="m15 58a7 7 0 0 1-7 7 7 7 0 0 1-7-7 7 7 0 0 1 7-7 7 7 0 0 1 7 7z" fill="currentColor"/>
  <path class="ColorScheme-Text" transform="matrix(1.0756 0 0 .77622 -.90682 26.622)" d="m8.281 36.559 3.719 6.4414h-7.4379l1.8595-3.2207z" fill="currentColor"/>
 </g>
 <g id="16-16-remove-pressed" transform="translate(32,-18)">
  <rect y="34" width="16" height="16" opacity=".001"/>
  <path class="ColorScheme-NegativeText" d="m15 42a7 7 0 0 1-7 7 7 7 0 0 1-7-7 7 7 0 0 1 7-7 7 7 0 0 1 7 7z" fill="currentColor"/>
  <rect class="ColorScheme-Text" transform="rotate(90)" x="41" y="-12" width="2" height="8" fill="currentColor"/>
 </g>
 <g id="16-16-add-pressed" transform="translate(32,-18)">
  <rect y="18" width="16" height="16" opacity=".001"/>
  <path class="ColorScheme-PositiveText" d="m15 26a7 7 0 0 1-7 7 7 7 0 0 1-7-7 7 7 0 0 1 7-7 7 7 0 0 1 7 7z" fill="currentColor"/>
  <path class="ColorScheme-Text" transform="translate(-32,18)" d="m39 4v3h-3v2h3v3h2v-3h3v-2h-3v-3h-2z" fill="currentColor"/>
 </g>
 <g id="16-16-open-pressed" transform="translate(32,-18)">
  <rect y="50" width="16" height="16" opacity=".001"/>
  <path class="ColorScheme-Highlight" d="m15 58a7 7 0 0 1-7 7 7 7 0 0 1-7-7 7 7 0 0 1 7-7 7 7 0 0 1 7 7z" fill="currentColor"/>
  <path class="ColorScheme-Text" transform="matrix(1.0756 0 0 .77622 -.90682 26.622)" d="m8.281 36.559 3.719 6.4414h-7.4379l1.8595-3.2207z" fill="currentColor"/>
 </g>
 <g id="22-22-add-normal" transform="translate(-13,-79)">
  <rect x="13" y="13" width="22" height="22" opacity=".001"/>
  <path class="ColorScheme-Text" d="m34 24a10 10 0 0 1-10 10 10 10 0 0 1-10-10 10 10 0 0 1 10-10 10 10 0 0 1 10 10z" fill="currentColor" opacity=".1"/>
  <path class="ColorScheme-Text" transform="translate(13,79)" d="m10-60v4h-4v2h4v4h2v-4h4v-2h-4v-4h-2z" fill="currentColor"/>
 </g>
 <g id="22-22-open-normal" transform="translate(-13,-35)">
  <rect x="13" y="13" width="22" height="22" opacity=".001"/>
  <path class="ColorScheme-Text" d="m34 24a10 10 0 0 1-10 10 10 10 0 0 1-10-10 10 10 0 0 1 10-10 10 10 0 0 1 10 10z" fill="currentColor" opacity=".1"/>
  <path class="ColorScheme-Text" d="m24 20 5 6h-10l2.5-3z" fill="currentColor"/>
 </g>
 <g id="22-22-remove-normal" transform="translate(-13,-57)">
  <rect x="13" y="13" width="22" height="22" opacity=".001"/>
  <path class="ColorScheme-Text" d="m34 24a10 10 0 0 1-10 10 10 10 0 0 1-10-10 10 10 0 0 1 10-10 10 10 0 0 1 10 10z" fill="currentColor" opacity=".1"/>
  <rect class="ColorScheme-Text" transform="rotate(90)" x="23" y="-29" width="2" height="10" fill="currentColor"/>
 </g>
 <g id="remove-normal" transform="matrix(2,0,0,2,0,-198)">
  <rect y="34" width="16" height="16" opacity=".001"/>
  <path class="ColorScheme-Text" d="m15 42a7 7 0 0 1-7 7 7 7 0 0 1-7-7 7 7 0 0 1 7-7 7 7 0 0 1 7 7z" fill="currentColor" opacity=".1"/>
  <rect class="ColorScheme-Text" transform="rotate(90)" x="41" y="-12" width="2" height="8" fill="currentColor"/>
 </g>
 <g id="add-normal" transform="matrix(2,0,0,2,0,-198)">
  <rect y="18" width="16" height="16" opacity=".001"/>
  <path class="ColorScheme-Text" d="m15 26a7 7 0 0 1-7 7 7 7 0 0 1-7-7 7 7 0 0 1 7-7 7 7 0 0 1 7 7z" fill="currentColor" opacity=".1"/>
  <path class="ColorScheme-Text" transform="matrix(.5 0 0 .5 0 99)" d="m14-154v6h-6v4h6v6h4v-6h6v-4h-6v-6h-4z" fill="currentColor"/>
 </g>
 <g id="open-normal" transform="matrix(2,0,0,2,0,-198)">
  <rect y="50" width="16" height="16" opacity=".001"/>
  <path class="ColorScheme-Text" d="m15 58a7 7 0 0 1-7 7 7 7 0 0 1-7-7 7 7 0 0 1 7-7 7 7 0 0 1 7 7z" fill="currentColor" opacity=".1"/>
  <path class="ColorScheme-Text" transform="matrix(1.0756 0 0 .77622 -.90682 26.622)" d="m8.281 36.559 3.719 6.4414h-7.4379l1.8595-3.2207z" fill="currentColor"/>
 </g>
 <g id="22-22-add-hover" transform="translate(9,-79)">
  <rect x="13" y="13" width="22" height="22" opacity=".001"/>
  <path class="ColorScheme-PositiveText" d="m34 24a10 10 0 0 1-10 10 10 10 0 0 1-10-10 10 10 0 0 1 10-10 10 10 0 0 1 10 10z" fill="currentColor"/>
  <path class="ColorScheme-Text" transform="translate(-9,79)" d="m32-60v4h-4v2h4v4h2v-4h4v-2h-4v-4h-2z" fill="currentColor"/>
 </g>
 <g id="22-22-open-hover" transform="translate(9,-35)">
  <rect x="13" y="13" width="22" height="22" opacity=".001"/>
  <path class="ColorScheme-Highlight" d="m34 24a10 10 0 0 1-10 10 10 10 0 0 1-10-10 10 10 0 0 1 10-10 10 10 0 0 1 10 10z" fill="currentColor"/>
  <path class="ColorScheme-Text" d="m24 20 5 6h-10l2.5-3z" fill="currentColor"/>
 </g>
 <g id="22-22-remove-hover" transform="translate(9,-57)">
  <rect x="13" y="13" width="22" height="22" opacity=".001"/>
  <path class="ColorScheme-NegativeText" d="m34 24a10 10 0 0 1-10 10 10 10 0 0 1-10-10 10 10 0 0 1 10-10 10 10 0 0 1 10 10z" fill="currentColor"/>
  <rect class="ColorScheme-Text" transform="rotate(90)" x="23" y="-29" width="2" height="10" fill="currentColor"/>
 </g>
 <g id="22-22-add-pressed" transform="translate(31,-79)">
  <rect x="13" y="13" width="22" height="22" opacity=".001"/>
  <path class="ColorScheme-PositiveText" d="m34 24a10 10 0 0 1-10 10 10 10 0 0 1-10-10 10 10 0 0 1 10-10 10 10 0 0 1 10 10z" fill="currentColor"/>
  <path class="ColorScheme-Text" transform="translate(-31,79)" d="m54-60v4h-4v2h4v4h2v-4h4v-2h-4v-4h-2z" fill="currentColor"/>
 </g>
 <g id="22-22-open-pressed" transform="translate(31,-35)">
  <rect x="13" y="13" width="22" height="22" opacity=".001"/>
  <path class="ColorScheme-Highlight" d="m34 24a10 10 0 0 1-10 10 10 10 0 0 1-10-10 10 10 0 0 1 10-10 10 10 0 0 1 10 10z" fill="currentColor"/>
  <path class="ColorScheme-Text" d="m24 20 5 6h-10l2.5-3z" fill="currentColor"/>
 </g>
 <g id="22-22-remove-pressed" transform="translate(31,-57)">
  <rect x="13" y="13" width="22" height="22" opacity=".001"/>
  <path class="ColorScheme-NegativeText" d="m34 24a10 10 0 0 1-10 10 10 10 0 0 1-10-10 10 10 0 0 1 10-10 10 10 0 0 1 10 10z" fill="currentColor"/>
  <rect class="ColorScheme-Text" transform="rotate(90)" x="23" y="-29" width="2" height="10" fill="currentColor"/>
 </g>
 <g id="remove-hover" transform="matrix(2,0,0,2,34,-198)">
  <rect y="34" width="16" height="16" opacity=".001"/>
  <path class="ColorScheme-NegativeText" d="m15 42a7 7 0 0 1-7 7 7 7 0 0 1-7-7 7 7 0 0 1 7-7 7 7 0 0 1 7 7z" fill="currentColor"/>
  <rect class="ColorScheme-Text" transform="rotate(90)" x="41" y="-12" width="2" height="8" fill="currentColor"/>
 </g>
 <g id="add-hover" transform="matrix(2,0,0,2,34,-198)">
  <rect y="18" width="16" height="16" opacity=".001"/>
  <path class="ColorScheme-PositiveText" d="m15 26a7 7 0 0 1-7 7 7 7 0 0 1-7-7 7 7 0 0 1 7-7 7 7 0 0 1 7 7z" fill="currentColor"/>
  <path class="ColorScheme-Text" transform="matrix(.5 0 0 .5 -17 99)" d="m48-154v6h-6v4h6v6h4v-6h6v-4h-6v-6h-4z" fill="currentColor"/>
 </g>
 <g id="open-hover" transform="matrix(2,0,0,2,34,-198)">
  <rect y="50" width="16" height="16" opacity=".001"/>
  <path class="ColorScheme-Highlight" d="m15 58a7 7 0 0 1-7 7 7 7 0 0 1-7-7 7 7 0 0 1 7-7 7 7 0 0 1 7 7z" fill="currentColor"/>
  <path class="ColorScheme-Text" transform="matrix(1.0756 0 0 .77622 -.90682 26.622)" d="m8.281 36.559 3.719 6.4414h-7.4379l1.8595-3.2207z" fill="currentColor"/>
 </g>
 <g id="remove-pressed" transform="matrix(2,0,0,2,66,-198)">
  <rect y="34" width="16" height="16" opacity=".001"/>
  <path class="ColorScheme-NegativeText" d="m15 42a7 7 0 0 1-7 7 7 7 0 0 1-7-7 7 7 0 0 1 7-7 7 7 0 0 1 7 7z" fill="currentColor"/>
  <rect class="ColorScheme-Text" transform="rotate(90)" x="41" y="-12" width="2" height="8" fill="currentColor"/>
 </g>
 <g id="add-pressed" transform="matrix(2,0,0,2,66,-198)">
  <rect y="18" width="16" height="16" opacity=".001"/>
  <path class="ColorScheme-PositiveText" d="m15 26a7 7 0 0 1-7 7 7 7 0 0 1-7-7 7 7 0 0 1 7-7 7 7 0 0 1 7 7z" fill="currentColor"/>
  <path class="ColorScheme-Text" transform="matrix(.5 0 0 .5 -33 99)" d="m80-154v6h-6v4h6v6h4v-6h6v-4h-6v-6h-4z" fill="currentColor"/>
 </g>
 <g id="open-pressed" transform="matrix(2,0,0,2,66,-198)">
  <rect y="50" width="16" height="16" opacity=".001"/>
  <path class="ColorScheme-Highlight" d="m15 58a7 7 0 0 1-7 7 7 7 0 0 1-7-7 7 7 0 0 1 7-7 7 7 0 0 1 7 7z" fill="currentColor"/>
  <path class="ColorScheme-Text" transform="matrix(1.0756 0 0 .77622 -.90682 26.622)" d="m8.281 36.559 3.719 6.4414h-7.4379l1.8595-3.2207z" fill="currentColor"/>
 </g>
</svg>
