<?xml version="1.0" encoding="UTF-8"?>
<svg width="44" height="44" version="1.1" xmlns="http://www.w3.org/2000/svg">
 <defs id="materia">
  <style id="current-color-scheme" type="text/css">.ColorScheme-Background {color:#181818; } .ColorScheme-ButtonBackground { color:#343434; } .ColorScheme-Highlight { color:#4285f4; } .ColorScheme-Text { color:#dfdfdf; } .ColorScheme-ViewBackground { color:#242424; } .ColorScheme-NegativeText { color:#f44336; } .ColorScheme-PositiveText { color:#4caf50; } .ColorScheme-NeutralText { color:#ff9800; }</style>
 </defs>
 <g id="up-arrow" transform="matrix(3.7797 0 0 3.7797 -44.001 -963.56)">
  <rect transform="matrix(0,1,1,0,0,0)" x="254.93" y="15.61" width="3.704" height="3.704" fill="none"/>
  <path class="ColorScheme-Text" d="m17.462 256.25-1.0583 1.0583h2.1167z" fill="currentColor"/>
 </g>
 <g id="down-arrow" transform="matrix(3.7797 0 0 -3.7797 -44.001 1007.6)">
  <rect transform="matrix(0,1,1,0,0,0)" x="254.93" y="15.61" width="3.704" height="3.704" fill="none"/>
  <path class="ColorScheme-Text" d="m17.462 256.25-1.0583 1.0583h2.1167z" fill="currentColor"/>
 </g>
 <g id="right-arrow" transform="matrix(0 3.7797 -3.7797 0 1007.6 -44.001)">
  <rect transform="matrix(0,1,1,0,0,0)" x="254.93" y="15.61" width="3.704" height="3.704" fill="none"/>
  <path class="ColorScheme-Text" d="m17.462 256.25-1.0583 1.0583h2.1167z" fill="currentColor"/>
 </g>
 <g id="left-arrow" transform="matrix(0 3.7797 3.7797 0 -963.56 -44.001)">
  <rect transform="matrix(0,1,1,0,0,0)" x="254.93" y="15.61" width="3.704" height="3.704" fill="none"/>
  <path class="ColorScheme-Text" d="m17.462 256.25-1.0583 1.0583h2.1167z" fill="currentColor"/>
 </g>
</svg>
