<?xml version="1.0" encoding="UTF-8"?>
<svg width="84" height="94" version="1" xmlns="http://www.w3.org/2000/svg" xmlns:xlink="http://www.w3.org/1999/xlink">
 <defs id="materia">
  <linearGradient id="linearGradient925">
   <stop stop-opacity=".30196" offset="0"/>
   <stop stop-opacity="0" offset="1"/>
  </linearGradient>
  <radialGradient id="radialGradient918" cx="984" cy="905.36" r="8.5" gradientTransform="matrix(3.5711e-6 -1.6469 1.647 3.5713e-6 -1353.2 1670.5)" gradientUnits="userSpaceOnUse" xlink:href="#linearGradient925"/>
  <linearGradient id="linearGradient920" x1="83.6" x2="83.6" y1="-969.36" y2="-955.36" gradientTransform="matrix(.71429 0 0 1 -87.715 952.36)" gradientUnits="userSpaceOnUse" xlink:href="#linearGradient925"/>
  <radialGradient id="radialGradient922" cx="984" cy="905.36" r="8.5" gradientTransform="matrix(2.2546e-6 1.6472 -1.6471 2.2544e-6 1558.2 -1543.8)" gradientUnits="userSpaceOnUse" xlink:href="#linearGradient925"/>
  <linearGradient id="linearGradient924" x1="83.6" x2="83.6" y1="-969.36" y2="-955.36" gradientTransform="matrix(.71429 0 0 1 6.2857 1046.4)" gradientUnits="userSpaceOnUse" xlink:href="#linearGradient925"/>
  <linearGradient id="linearGradient926" x1="-260" x2="-260" y1="281" y2="295" gradientTransform="translate(230 -214)" gradientUnits="userSpaceOnUse" xlink:href="#linearGradient925"/>
  <linearGradient id="linearGradient928" x1="83.6" x2="83.6" y1="-969.36" y2="-955.36" gradientTransform="matrix(.71429 0 0 1 127.29 919.42)" gradientUnits="userSpaceOnUse" xlink:href="#linearGradient925"/>
  <radialGradient id="radialGradient930" cx="982.91" cy="906.45" r="8.5" gradientTransform="matrix(1.6471 -3.6294e-6 3.629e-6 1.6469 -1551.9 -1465.9)" gradientUnits="userSpaceOnUse" xlink:href="#linearGradient925"/>
  <radialGradient id="radialGradient932" cx="984" cy="905.36" r="8.5" gradientTransform="matrix(-1.6471 9.3332e-6 -9.3337e-6 -1.6471 1637.7 1568.2)" gradientUnits="userSpaceOnUse" xlink:href="#linearGradient925"/>
  <style id="current-color-scheme" type="text/css">.ColorScheme-Background {color:#181818; } .ColorScheme-ButtonBackground { color:#343434; } .ColorScheme-Highlight { color:#4285f4; } .ColorScheme-Text { color:#dfdfdf; } .ColorScheme-ViewBackground { color:#242424; } .ColorScheme-NegativeText { color:#f44336; } .ColorScheme-PositiveText { color:#4caf50; } .ColorScheme-NeutralText { color:#ff9800; }</style>
 </defs>
 <g id="topleft">
  <g id="shadow-topleft" transform="translate(-121 -22.94)">
   <path d="m138 42.939v7h-7v-2c0-2.77 2.23-5 5-5z" opacity=".001"/>
   <path d="m121 49.939h10v-2c0-2.77 2.23-5 5-5h2v-10h-17z" fill="url(#radialGradient918)"/>
  </g>
  <path class="ColorScheme-Background" d="m17 19.999v7h-7v-2c0-2.77 2.23-5 5-5z" fill="currentColor"/>
  <path id="path-topleft" d="m0 26.999h10v-2c0-2.77 2.23-5 5-5h2v-10h-17z" opacity=".001"/>
 </g>
 <g id="left">
  <path d="m10 27v50l7 1e-5v-50z" opacity=".001"/>
  <rect transform="matrix(0,-1,-1,0,0,0)" x="-77" y="-10" width="50" height="10" fill="url(#linearGradient920)"/>
  <path class="ColorScheme-Background" d="m10 26.999v50l7 1e-5v-50z" fill="currentColor"/>
  <rect transform="matrix(0,-1,-1,0,0,0)" x="-77" y="-10" width="50" height="10" opacity=".001"/>
 </g>
 <g id="bottomright">
  <path d="m67 84.001v-7h7v2c0 2.77-2.23 5-5 5z" opacity=".001"/>
  <path d="m84 77.001h-10v2c0 2.77-2.23 5-5 5h-2v10h17z" fill="url(#radialGradient922)"/>
  <path class="ColorScheme-Background" d="m67 83.999v-7h7v2c0 2.77-2.23 5-5 5z" fill="currentColor"/>
  <path id="path-bottomright" d="m84 76.999h-10v2c0 2.77-2.23 5-5 5h-2v10h17z" opacity=".001"/>
 </g>
 <g id="bottom">
  <path d="m17 84h50v-7h-50z" opacity=".001"/>
  <rect x="17" y="84" width="50" height="10" fill="url(#linearGradient924)"/>
  <path class="ColorScheme-Background" d="m17 83.999h50v-7h-50z" fill="currentColor"/>
  <rect x="17" y="84" width="50" height="10" opacity=".001"/>
 </g>
 <g id="right">
  <path d="m74 26.998v50l-7 1e-5v-50z" opacity=".001"/>
  <rect transform="rotate(-90)" x="-77" y="74" width="50" height="10" fill="url(#linearGradient926)"/>
  <path class="ColorScheme-Background" d="m74 26.999v50l-7 1e-5v-50z" fill="currentColor"/>
  <rect transform="rotate(-90)" x="-77" y="74" width="50" height="10" opacity=".001"/>
 </g>
 <g id="top">
  <g id="shadow-top" transform="translate(-121 -22.939)">
   <path d="m138 42.939h50v7h-50z" opacity=".001"/>
   <rect transform="scale(1,-1)" x="138" y="-42.94" width="50" height="10" fill="url(#linearGradient928)"/>
  </g>
  <path class="ColorScheme-Background" d="m17 19.999h50v7h-50z" fill="currentColor"/>
  <rect transform="scale(1,-1)" x="17" y="-20" width="50" height="10" opacity=".001"/>
 </g>
 <g id="topright">
  <path d="m67 19.999v7h7v-2c0-2.77-2.23-5-5-5z" opacity=".001"/>
  <path d="m67 9.9991v10h2c2.77 0 5 2.23 5 5v2h10v-17z" fill="url(#radialGradient930)"/>
  <path class="ColorScheme-Background" d="m67 19.999v7h7v-2c0-2.77-2.23-5-5-5z" fill="currentColor"/>
  <path id="path-topright" d="m67 9.9991v10h2c2.77 0 5 2.23 5 5v2h10v-17z" opacity=".001"/>
 </g>
 <g id="bottomleft">
  <path d="m17 83.999v-7h-7v2c0 2.77 2.23 5 5 5z" opacity=".001"/>
  <path d="m17 93.999v-10h-2c-2.77 0-5-2.23-5-5v-2h-10v17z" fill="url(#radialGradient932)"/>
  <path class="ColorScheme-Background" d="m17 83.999v-7h-7v2c0 2.77 2.23 5 5 5z" fill="currentColor"/>
  <path id="path-bottomleft" d="m17 93.999v-10h-2c-2.77 0-5-2.23-5-5v-2h-10v17z" opacity=".001"/>
 </g>
 <g id="center" transform="translate(99.178 19.117)">
  <rect class="ColorScheme-Background" x="-82.18" y="7.88" width="50" height="50" fill="currentColor"/>
 </g>
 <rect id="hint-tile-center" width="5" height="5" fill="#f0f"/>
 <rect id="hint-top-margin" x="39" y="10" width="4" height="17" fill="#f0f"/>
 <rect id="hint-bottom-margin" x="39" y="77" width="4" height="17" fill="#f0f"/>
 <rect id="hint-right-margin" transform="rotate(90)" x="49" y="-84" width="4" height="17" fill="#f0f"/>
 <rect id="hint-left-margin" transform="rotate(90)" x="49" y="-17" width="4" height="17" fill="#f0f"/>
</svg>
