<?xml version="1.0" encoding="UTF-8"?>
<svg width="11" height="10" version="1.1" xmlns="http://www.w3.org/2000/svg">
 <defs id="materia">
  <style id="current-color-scheme" type="text/css">.ColorScheme-Background {color:#181818; } .ColorScheme-ButtonBackground { color:#343434; } .ColorScheme-Highlight { color:#4285f4; } .ColorScheme-Text { color:#dfdfdf; } .ColorScheme-ViewBackground { color:#242424; } .ColorScheme-NegativeText { color:#f44336; } .ColorScheme-PositiveText { color:#4caf50; } .ColorScheme-NeutralText { color:#ff9800; }</style>
 </defs>
 <rect id="hint-tile-center" x="2" width="1" height="1" fill="#f0f"/>
 <rect id="hint-bar-size" x="5" width="3" height="3" fill="#f0f"/>
 <path id="bar-inactive-bottomright" class="ColorScheme-Text" d="m10 9v1h1v-1z" fill="currentColor" opacity=".12"/>
 <path id="bar-inactive-right" class="ColorScheme-Text" d="m10 7v1h1v-1z" fill="currentColor" opacity=".12"/>
 <path id="bar-inactive-topright" class="ColorScheme-Text" d="m10 5v1h1v-1z" fill="currentColor" opacity=".12"/>
 <path id="bar-inactive-bottomleft" class="ColorScheme-Text" d="m6 9v1h1v-1z" fill="currentColor" opacity=".12"/>
 <path id="bar-inactive-left" class="ColorScheme-Text" d="m6 7v1h1v-1z" fill="currentColor" opacity=".12"/>
 <path id="bar-inactive-topleft" class="ColorScheme-Text" d="m7 5h-1v1h1z" fill="currentColor" opacity=".12"/>
 <path id="bar-inactive-bottom" class="ColorScheme-Text" d="m8 9v1h1v-1z" fill="currentColor" opacity=".12"/>
 <path id="bar-inactive-center" class="ColorScheme-Text" d="m9 7h-1v1h1z" fill="currentColor" opacity=".12"/>
 <path id="bar-inactive-top" class="ColorScheme-Text" d="m8 5v1h1v-1z" fill="currentColor" opacity=".12"/>
 <path id="bar-active-bottomright" class="ColorScheme-Highlight" d="m4 9v1h1v-1z" fill="currentColor"/>
 <path id="bar-active-right" class="ColorScheme-Highlight" d="m4 7v1h1v-1z" fill="currentColor"/>
 <path id="bar-active-topright" class="ColorScheme-Highlight" d="m4 5v1h1v-1z" fill="currentColor"/>
 <path id="bar-active-bottomleft" class="ColorScheme-Highlight" d="m0 9v1h1v-1z" fill="currentColor"/>
 <path id="bar-active-left" class="ColorScheme-Highlight" d="m0 7v1h1v-1z" fill="currentColor"/>
 <path id="bar-active-topleft" class="ColorScheme-Highlight" d="m1 5h-1v1h1z" fill="currentColor"/>
 <path id="bar-active-bottom" class="ColorScheme-Highlight" d="m2 9v1h1v-1z" fill="currentColor"/>
 <path id="bar-active-center" class="ColorScheme-Highlight" d="m3 7h-1v1h1z" fill="currentColor"/>
 <path id="bar-active-top" class="ColorScheme-Highlight" d="m2 5v1h1v-1z" fill="currentColor"/>
 <rect id="hint-stretch-borders" x="1" width="1" height="1" fill="#f0f"/>
 <rect id="hint-bar-stretch" width="1" height="1" fill="#f0f"/>
</svg>
