<?xml version="1.0" encoding="UTF-8"?>
<svg width="182" height="46" version="1.1" xmlns="http://www.w3.org/2000/svg" xmlns:xlink="http://www.w3.org/1999/xlink">
 <defs id="materia">
  <linearGradient id="linearGradient4311">
   <stop offset="0"/>
   <stop stop-opacity="0" offset="1"/>
  </linearGradient>
  <linearGradient id="linearGradient2643">
   <stop stop-opacity=".353" offset="0"/>
   <stop stop-opacity=".137" offset=".45"/>
   <stop stop-opacity="0" offset="1"/>
  </linearGradient>
  <radialGradient id="radialGradient1933" cx="52" cy="20.518" r="3" gradientTransform="matrix(1.7928e-6 -2.3333 1 7.6805e-7 29.482 131.33)" gradientUnits="userSpaceOnUse" xlink:href="#linearGradient2643"/>
  <radialGradient id="radialGradient1562" cx="53.802" cy="23.591" r="3" gradientTransform="matrix(-3.981e-7 -1.3333 1.6667 -4.9298e-7 12.682 77.736)" gradientUnits="userSpaceOnUse" xlink:href="#linearGradient2643"/>
  <radialGradient id="radialGradient1987" cx="52.776" cy="51.595" r="3" gradientTransform="matrix(-1.6667 -2.1836e-7 2.1836e-7 -1.6667 139.96 1133.4)" gradientUnits="userSpaceOnUse" xlink:href="#linearGradient2643"/>
  <radialGradient id="radialGradient2009" cx="53.027" cy="52.74" r="3" gradientTransform="matrix(-.92011 -.0018406 .0023338 -1.1667 98.428 1107)" gradientUnits="userSpaceOnUse" xlink:href="#linearGradient2643"/>
  <linearGradient id="linearGradient7337" x1="53" x2="53" y1="53" y2="59" gradientTransform="matrix(1 0 0 .83333 -1 1003.2)" gradientUnits="userSpaceOnUse" xlink:href="#linearGradient2643"/>
  <linearGradient id="linearGradient7463" x1="53" x2="53" y1="21.514" y2="16.5" gradientTransform="translate(-1 991.36)" gradientUnits="userSpaceOnUse" xlink:href="#linearGradient2643"/>
  <linearGradient id="linearGradient2050" x1="50.181" x2="47" y1="35" y2="35" gradientTransform="matrix(.9 0 0 1.1034 4.7 987.98)" gradientUnits="userSpaceOnUse" xlink:href="#linearGradient2643"/>
  <radialGradient id="radialGradient5890" cx="5" cy="1050.5" r="2.5" gradientTransform="matrix(-2 -1.4533e-6 1.0048e-6 -1.382 16.999 1490.7)" gradientUnits="userSpaceOnUse" xlink:href="#linearGradient4311"/>
  <radialGradient id="radialGradient5892" cx="31.583" cy="1048.4" r="2.5" gradientTransform="matrix(.0015231 1.3136 -2 .0023189 2131.7 -4.9192)" gradientUnits="userSpaceOnUse" xlink:href="#linearGradient4311"/>
  <radialGradient id="radialGradient4309" cx="20" cy="1033.4" r="16" gradientTransform="matrix(0 .125 -1.25 0 1311.7 1045.9)" gradientUnits="userSpaceOnUse">
   <stop offset="0"/>
   <stop stop-opacity="0" offset="1"/>
  </radialGradient>
  <radialGradient id="radialGradient4525" cx="53.027" cy="52.74" r="3" gradientTransform="matrix(.92011 -.0018406 -.0023338 -1.1667 37.572 1107)" gradientUnits="userSpaceOnUse" xlink:href="#linearGradient2643"/>
  <radialGradient id="radialGradient4527" cx="52.776" cy="51.595" r="3" gradientTransform="matrix(1.6667 -2.1836e-7 -2.1836e-7 -1.6667 -3.9603 1133.4)" gradientUnits="userSpaceOnUse" xlink:href="#linearGradient2643"/>
  <radialGradient id="radialGradient4529" cx="53.802" cy="23.591" r="3" gradientTransform="matrix(3.981e-7 -1.3333 -1.6667 -4.9298e-7 123.32 77.736)" gradientUnits="userSpaceOnUse" xlink:href="#linearGradient2643"/>
  <linearGradient id="linearGradient4531" x1="50.181" x2="47" y1="35" y2="35" gradientTransform="matrix(-.9 0 0 1.1034 131.3 987.98)" gradientUnits="userSpaceOnUse" xlink:href="#linearGradient2643"/>
  <radialGradient id="radialGradient4533" cx="52" cy="20.518" r="3" gradientTransform="matrix(-1.7928e-6 -2.3333 -1 7.6805e-7 106.52 131.33)" gradientUnits="userSpaceOnUse" xlink:href="#linearGradient2643"/>
  <style id="current-color-scheme" type="text/css">.ColorScheme-Background {color:#181818; } .ColorScheme-ButtonBackground { color:#343434; } .ColorScheme-Highlight { color:#4285f4; } .ColorScheme-Text { color:#dfdfdf; } .ColorScheme-ViewBackground { color:#242424; } .ColorScheme-NegativeText { color:#f44336; } .ColorScheme-PositiveText { color:#4caf50; } .ColorScheme-NeutralText { color:#ff9800; }</style>
 </defs>
 <g id="focus-left" transform="translate(45 -1006.4)">
  <path d="m47 1013.4v32h2v-32z" fill="url(#linearGradient2050)"/>
  <path class="ColorScheme-Text" d="m52 1045.4v-32h-3v32z" fill="currentColor" opacity=".08"/>
 </g>
 <g id="focus-top" transform="translate(45 -1006.4)">
  <path d="m84 1009.4h-32v1h32z" fill="url(#linearGradient7463)"/>
  <path class="ColorScheme-Text" d="m52 1013.4h32v-3h-32z" fill="currentColor" opacity=".08"/>
  <path d="m52 1010.4v1h32v-1z" fill="#fff" opacity=".05"/>
 </g>
 <g id="focus-right" transform="translate(45 -1006.4)">
  <path d="m89 1013.4v32h-2v-32z" fill="url(#linearGradient4531)"/>
  <path class="ColorScheme-Text" d="m84 1045.4v-32h3v32z" fill="currentColor" opacity=".08"/>
 </g>
 <g id="focus-bottom" transform="translate(45 -1006.4)">
  <path d="m52 1052.4h32v-5h-32z" fill="url(#linearGradient7337)"/>
  <path class="ColorScheme-Text" d="m84 1045.4h-32v2h32z" fill="currentColor" opacity=".08"/>
 </g>
 <g id="focus-bottomleft" transform="translate(45 -1006.4)">
  <path d="m47 1045.4v7h5v-5h-1c-1.5 0-2-0.5-2-2z" fill="url(#radialGradient2009)" opacity=".6"/>
  <path d="m47 1045.4v7h5v-5h-1c-1.5 0-2-0.5-2-2z" fill="url(#radialGradient1987)"/>
  <path class="ColorScheme-Text" d="m52 1047.4h-1c-1.5 0-2-0.5-2-2h3z" fill="currentColor" opacity=".08"/>
 </g>
 <g id="focus-topleft" transform="translate(45 -1006.4)">
  <path transform="translate(-7.6294e-6 1006.4)" d="m47 3v4h2v-1c0-1.5 0.5-2 2-2h1v-1z" fill="url(#radialGradient1933)"/>
  <path transform="translate(-7.6294e-6 1006.4)" d="m47 3v4h2v-1c0-1.5 0.5-2 2-2h1v-1z" fill="url(#radialGradient1562)"/>
  <path class="ColorScheme-Text" d="m52 1010.4h-1c-1.5 0-2 0.5-2 2v1h3z" fill="currentColor" opacity=".08"/>
  <path d="m51 1010.4c-1.5 0-2 0.5-2 2v1c0-1.5 0.5-2 2-2h1v-1z" fill="#fff" opacity=".05"/>
 </g>
 <g id="focus-bottomright" transform="translate(45 -1006.4)">
  <path d="m89 1045.4v7h-5v-5h1c1.5 0 2-0.5 2-2z" fill="url(#radialGradient4525)" opacity=".6"/>
  <path d="m89 1045.4v7h-5v-5h1c1.5 0 2-0.5 2-2z" fill="url(#radialGradient4527)"/>
  <path class="ColorScheme-Text" d="m84 1047.4h1c1.5 0 2-0.5 2-2h-3z" fill="currentColor" opacity=".08"/>
 </g>
 <g id="focus-topright" transform="translate(45 -1006.4)">
  <path transform="translate(-7.6294e-6 1006.4)" d="m84 3v1h1c1.5 0 2 0.5 2 2v1h2v-4z" fill="url(#radialGradient4533)"/>
  <path transform="translate(-7.6294e-6 1006.4)" d="m84 3v1h1c1.5 0 2 0.5 2 2v1h2v-4z" fill="url(#radialGradient4529)"/>
  <path class="ColorScheme-Text" d="m84 1010.4h1c1.5 0 2 0.5 2 2v1h-3z" fill="currentColor" opacity=".08"/>
  <path d="m85 1010.4c1.5 0 2 0.5 2 2v1c0-1.5-0.5-2-2-2h-1v-1z" fill="#fff" opacity=".05"/>
 </g>
 <g id="hover-left" transform="translate(0 -1006.4)">
  <path d="m47 1013.4v32h2v-32z" fill="url(#linearGradient2050)"/>
  <path class="ColorScheme-Text" d="m52 1045.4v-32h-3v32z" fill="currentColor" opacity=".08"/>
 </g>
 <g id="hover-top" transform="translate(0 -1006.4)">
  <path d="m84 1009.4h-32v1h32z" fill="url(#linearGradient7463)"/>
  <path class="ColorScheme-Text" d="m52 1013.4h32v-3h-32z" fill="currentColor" opacity=".08"/>
  <path d="m52 1010.4v1h32v-1z" fill="#fff" opacity=".05"/>
 </g>
 <g id="hover-right" transform="translate(0 -1006.4)">
  <path d="m89 1013.4v32h-2v-32z" fill="url(#linearGradient4531)"/>
  <path class="ColorScheme-Text" d="m84 1045.4v-32h3v32z" fill="currentColor" opacity=".08"/>
 </g>
 <g id="normal-right">
  <rect x="37" y="7" width="5" height="32" opacity=".001"/>
  <path class="ColorScheme-Text" d="m37 39v-32h3v32z" fill="currentColor" opacity=".08"/>
 </g>
 <g id="normal-bottomright">
  <rect x="37" y="39" width="5" height="4" opacity=".001"/>
  <path d="m40 39c0 1.5-0.52041 1.2534-2 1.5l-0.99998 0.5v2c2.1589-0.3132 2.9733-0.5985 3-2.5v-1z" fill="url(#radialGradient5892)" opacity=".3"/>
  <path class="ColorScheme-Text" d="m37 41h0.99998c1.5 0 2-0.5 2-2v4.2e-5h-3z" fill="currentColor" opacity=".08"/>
 </g>
 <g id="normal-center">
  <path class="ColorScheme-Text" d="m37 39v-32h-32v32z" fill="currentColor" opacity=".08"/>
 </g>
 <g id="normal-left">
  <rect y="7" width="5" height="32" opacity=".001"/>
  <path class="ColorScheme-Text" d="m5 39v-32h-3v32z" fill="currentColor" opacity=".08"/>
 </g>
 <g id="normal-bottom" transform="translate(0 -1007.4)">
  <path d="m5 1048.4v2h32v-2z" fill="url(#radialGradient4309)" opacity=".3"/>
  <g transform="translate(-48 994.36)">
   <path class="ColorScheme-Text" d="m85 52h-32v2h32z" fill="currentColor" opacity=".08"/>
  </g>
 </g>
 <g id="normal-bottomleft">
  <rect y="39" width="5" height="4" opacity=".001"/>
  <path d="m2 39v1.5c0.53714 2.5133 0.71024 2.1184 3 2.5v-2l-1-0.5c-1.3416-0.6708-2 0-2-1.5z" fill="url(#radialGradient5890)" opacity=".3"/>
  <path class="ColorScheme-Text" d="m5 41h-1c-1.5 0-2-0.5-2-2v4.2e-5h3z" fill="currentColor" opacity=".08"/>
 </g>
 <g id="normal-top">
  <rect x="5" y="3" width="32" height="4" opacity=".001"/>
  <path class="ColorScheme-Text" d="m5.0001 7h32v-3h-32z" fill="currentColor" opacity=".08"/>
  <path d="m5 4v1h32v-1z" fill="#fff" opacity=".05"/>
 </g>
 <g id="pressed-left">
  <rect x="138" y="7" width="5" height="32" opacity=".001"/>
  <path class="ColorScheme-Text" d="m143 39v-32h-3v32z" fill="currentColor" opacity=".24"/>
 </g>
 <g id="pressed-bottom">
  <rect x="143" y="39" width="32" height="4" opacity=".001"/>
  <path class="ColorScheme-Text" d="m175 39h-32v2h32z" fill="currentColor" opacity=".24"/>
 </g>
 <g id="pressed-top">
  <rect x="143" y="3" width="32" height="4" opacity=".001"/>
  <path class="ColorScheme-Text" d="m143 7h32v-3h-32z" fill="currentColor" opacity=".24"/>
 </g>
 <g id="normal-topleft">
  <rect y="3" width="5" height="4" opacity=".001"/>
  <path class="ColorScheme-Text" d="m5 4h-1c-1.5 0-2 0.5-2 2v1h3z" fill="currentColor" opacity=".08"/>
  <path d="m4 4c-1.5 0-2 0.5-2 2v1c0-1.5 0.5-2 2-2h1v-1z" fill="#fff" opacity=".05"/>
 </g>
 <g id="normal-topright">
  <rect x="37" y="3" width="5" height="4" opacity=".001"/>
  <path class="ColorScheme-Text" d="m37 4h0.99998c1.5 0 2 0.5 2 2v1h-3z" fill="currentColor" opacity=".08"/>
  <path d="m38 4c1.5 0 2 0.5 2 2v1c0-1.5-0.5-2-2-2h-0.99998v-1z" fill="#fff" opacity=".05"/>
 </g>
 <g id="pressed-bottomleft">
  <rect x="138" y="39" width="5" height="4" opacity=".001"/>
  <path class="ColorScheme-Text" d="m143 41h-1c-1.5 0-2-0.5-2-2v4.2e-5h3z" fill="currentColor" opacity=".24"/>
 </g>
 <g id="pressed-topleft">
  <rect x="138" y="3" width="5" height="4" opacity=".001"/>
  <path class="ColorScheme-Text" d="m143 4h-1c-1.5 0-2 0.5-2 2v1h3z" fill="currentColor" opacity=".24"/>
 </g>
 <g id="pressed-right">
  <rect x="175" y="7" width="5" height="32" opacity=".001"/>
  <path class="ColorScheme-Text" d="m175 39v-32h3v32z" fill="currentColor" opacity=".24"/>
 </g>
 <g id="pressed-bottomright">
  <rect x="175" y="39" width="5" height="4" opacity=".001"/>
  <g id="ff" transform="matrix(-1 0 0 1 180 -13)">
   <path class="ColorScheme-Text" d="m5 54h-1c-1.5 0-2-0.5-2-2v4.2e-5h3z" fill="currentColor" opacity=".24"/>
  </g>
 </g>
 <g id="pressed-topright">
  <rect x="175" y="3" width="5" height="4" opacity=".001"/>
  <path class="ColorScheme-Text" d="m175 4h1c1.5 0 2 0.5 2 2v1h-3z" fill="currentColor" opacity=".24"/>
 </g>
 <rect id="focus-hint-top-margin" x="112" y="3.9" width="2" height=".1" fill="#f0f"/>
 <rect id="focus-hint-right-margin" transform="rotate(-90)" x="-22" y="132" width="2" height=".1" fill="#f0f"/>
 <rect id="focus-hint-left-margin" transform="rotate(-90)" x="-22" y="93.9" width="2" height=".1" fill="#f0f"/>
 <rect id="focus-hint-bottom-margin" x="112" y="41" width="2" height="3" fill="#f0f"/>
 <rect id="hint-stretch-borders" y="-4" width="2" height="2" ry="0" fill="#f0f"/>
 <rect id="hover-hint-top-margin" x="67" y="3.9" width="2" height=".1" fill="#f0f"/>
 <rect id="hover-hint-right-margin" transform="rotate(-90)" x="-22" y="87" width="2" height=".1" fill="#f0f"/>
 <rect id="hover-hint-left-margin" transform="rotate(-90)" x="-22" y="48.9" width="2" height=".1" fill="#f0f"/>
 <g id="hover-bottom" transform="translate(0 -1006.4)">
  <path d="m52 1052.4h32v-5h-32z" fill="url(#linearGradient7337)"/>
  <path class="ColorScheme-Text" d="m84 1045.4h-32v2h32z" fill="currentColor" opacity=".08"/>
 </g>
 <g id="hover-bottomleft" transform="translate(0 -1006.4)">
  <path d="m47 1045.4v7h5v-5h-1c-1.5 0-2-0.5-2-2z" fill="url(#radialGradient2009)" opacity=".6"/>
  <path d="m47 1045.4v7h5v-5h-1c-1.5 0-2-0.5-2-2z" fill="url(#radialGradient1987)"/>
  <path class="ColorScheme-Text" d="m52 1047.4h-1c-1.5 0-2-0.5-2-2h3z" fill="currentColor" opacity=".08"/>
 </g>
 <g id="hover-topleft" transform="translate(0 -1006.4)">
  <path transform="translate(-7.6294e-6 1006.4)" d="m47 3v4h2v-1c0-1.5 0.5-2 2-2h1v-1z" fill="url(#radialGradient1933)"/>
  <path transform="translate(-7.6294e-6 1006.4)" d="m47 3v4h2v-1c0-1.5 0.5-2 2-2h1v-1z" fill="url(#radialGradient1562)"/>
  <path class="ColorScheme-Text" d="m52 1010.4h-1c-1.5 0-2 0.5-2 2v1h3z" fill="currentColor" opacity=".08"/>
  <path d="m51 1010.4c-1.5 0-2 0.5-2 2v1c0-1.5 0.5-2 2-2h1v-1z" fill="#fff" opacity=".05"/>
 </g>
 <g id="hover-bottomright" transform="translate(0 -1006.4)">
  <path d="m89 1045.4v7h-5v-5h1c1.5 0 2-0.5 2-2z" fill="url(#radialGradient4525)" opacity=".6"/>
  <path d="m89 1045.4v7h-5v-5h1c1.5 0 2-0.5 2-2z" fill="url(#radialGradient4527)"/>
  <path class="ColorScheme-Text" d="m84 1047.4h1c1.5 0 2-0.5 2-2h-3z" fill="currentColor" opacity=".08"/>
 </g>
 <g id="hover-topright" transform="translate(0 -1006.4)">
  <path transform="translate(-7.6294e-6 1006.4)" d="m84 3v1h1c1.5 0 2 0.5 2 2v1h2v-4z" fill="url(#radialGradient4533)"/>
  <path transform="translate(-7.6294e-6 1006.4)" d="m84 3v1h1c1.5 0 2 0.5 2 2v1h2v-4z" fill="url(#radialGradient4529)"/>
  <path class="ColorScheme-Text" d="m84 1010.4h1c1.5 0 2 0.5 2 2v1h-3z" fill="currentColor" opacity=".08"/>
  <path d="m85 1010.4c1.5 0 2 0.5 2 2v1c0-1.5-0.5-2-2-2h-1v-1z" fill="#fff" opacity=".05"/>
 </g>
 <rect id="hover-hint-bottom-margin" x="67" y="41" width="2" height="3" fill="#f0f"/>
 <rect id="normal-hint-top-margin" x="19" y="3" width="2" height="4" fill="#f0f"/>
 <rect id="normal-hint-right-margin" transform="rotate(-90)" x="-22" y="37" width="2" height="5" fill="#f0f"/>
 <rect id="normal-hint-left-margin" transform="rotate(-90)" x="-22" width="2" height="5" fill="#f0f"/>
 <rect id="normal-hint-bottom-margin" x="19" y="39" width="2" height="4" fill="#f0f"/>
 <rect id="pressed-hint-top-margin" x="158" y="3" width="2" height="4" fill="#f0f"/>
 <rect id="pressed-hint-right-margin" transform="rotate(-90)" x="-22" y="175" width="2" height="5" fill="#f0f"/>
 <rect id="pressed-hint-left-margin" transform="rotate(-90)" x="-22" y="138" width="2" height="5" fill="#f0f"/>
 <rect id="pressed-hint-bottom-margin" x="158" y="39" width="2" height="4" fill="#f0f"/>
 <path id="toolbutton-hover-center" class="ColorScheme-Text" d="m206 38v-16h-16v16z" fill="currentColor" opacity=".1"/>
 <g id="toolbutton-hover-left" transform="matrix(1 0 0 .5 2 3.9999)">
  <path class="ColorScheme-Text" d="m188 68v-32h-3v32z" fill="currentColor" opacity=".1"/>
 </g>
 <g id="toolbutton-hover-top" transform="matrix(.5 0 0 1 96 -14)">
  <path class="ColorScheme-Text" d="m188 36h32v-3h-32z" fill="currentColor" opacity=".1"/>
 </g>
 <g id="toolbutton-hover-topleft" transform="translate(2,-14)">
  <path class="ColorScheme-Text" d="m188 33c-2 0-2.9921 2-3 3h3z" fill="currentColor" opacity=".1"/>
 </g>
 <g id="toolbutton-hover-right" transform="matrix(1 0 0 .5 -14 3.9999)">
  <path class="ColorScheme-Text" d="m220 68v-32h3v32z" fill="currentColor" opacity=".1"/>
 </g>
 <g id="toolbutton-hover-topright" transform="translate(-14 -14)">
  <path class="ColorScheme-Text" d="m220 33c2.0001 0 3.0001 2 3 3h-3z" fill="currentColor" opacity=".1"/>
 </g>
 <g id="toolbutton-hover-bottom" transform="matrix(.5 0 0 1 96 -30)">
  <path class="ColorScheme-Text" d="m188 68h32v3h-32z" fill="currentColor" opacity=".1"/>
 </g>
 <g id="toolbutton-hover-bottomleft" transform="translate(2 -30)">
  <path class="ColorScheme-Text" d="m188 71c-2-4e-5 -3-2-3-3h3z" fill="currentColor" opacity=".1"/>
 </g>
 <g id="toolbutton-hover-bottomright" transform="translate(-14 -30)">
  <path class="ColorScheme-Text" d="m220 71c2-8e-5 3-2.0001 3-3h-3z" fill="currentColor" opacity=".1"/>
 </g>
 <path id="toolbutton-pressed-center" class="ColorScheme-Text" d="m231 38v-16h-16v16z" fill="currentColor" opacity=".2"/>
 <g id="toolbutton-pressed-left" transform="matrix(1 0 0 .5 27 4)">
  <path class="ColorScheme-Text" d="m188 68v-32h-3v32z" fill="currentColor" opacity=".2"/>
 </g>
 <g id="toolbutton-pressed-top" transform="matrix(.5 0 0 1 121 -14)">
  <path class="ColorScheme-Text" d="m188 36h32v-3h-32z" fill="currentColor" opacity=".2"/>
 </g>
 <g id="toolbutton-pressed-topleft" transform="translate(27 -14)">
  <path class="ColorScheme-Text" d="m188 33c-2 8e-5 -3 2.0001-3 3h3z" fill="currentColor" opacity=".2"/>
 </g>
 <g id="toolbutton-pressed-right" transform="matrix(1 0 0 .5 11 3.9999)">
  <path class="ColorScheme-Text" d="m220 68v-32h3v32z" fill="currentColor" opacity=".2"/>
 </g>
 <g id="toolbutton-pressed-topright" transform="translate(11 -14)">
  <path class="ColorScheme-Text" d="m220 33c2.0001 8e-5 3.0001 2.0001 3 3h-3z" fill="currentColor" opacity=".2"/>
 </g>
 <g id="toolbutton-pressed-bottom" transform="matrix(.5 0 0 1 121 -30)">
  <path class="ColorScheme-Text" d="m188 68h32v3h-32z" fill="currentColor" opacity=".2"/>
 </g>
 <g id="toolbutton-pressed-bottomleft" transform="translate(27,-30)">
  <path class="ColorScheme-Text" d="m188 71c-2 0-3-2-3-3h3z" fill="currentColor" opacity=".2"/>
 </g>
 <g id="toolbutton-pressed-bottomright" transform="translate(11,-30)">
  <path class="ColorScheme-Text" d="m220 71c2 4e-5 3-2 3-3h-3z" fill="currentColor" opacity=".2"/>
 </g>
 <rect id="toolbutton-hover-hint-left-margin" transform="rotate(-90)" x="-31" y="187" width="2" height="4" fill="#f0f"/>
 <rect id="toolbutton-hover-hint-top-margin" transform="scale(-1,1)" x="-199" y="19" width="2" height="4" fill="#f0f"/>
 <rect id="toolbutton-hover-hint-right-margin" transform="rotate(-90)" x="-31" y="205" width="2" height="4" fill="#f0f"/>
 <rect id="toolbutton-hover-hint-bottom-margin" x="197" y="37" width="2" height="4" fill="#f0f"/>
 <rect id="toolbutton-pressed-hint-left-margin" transform="rotate(-90)" x="-31" y="212" width="2" height="4" fill="#f0f"/>
 <rect id="toolbutton-pressed-hint-top-margin" x="222" y="19" width="2" height="4" fill="#f0f"/>
 <rect id="toolbutton-pressed-hint-right-margin" transform="rotate(-90)" x="-31" y="230" width="2" height="4" fill="#f0f"/>
 <rect id="toolbutton-pressed-hint-bottom-margin" x="222" y="37" width="2" height="4" fill="#f0f"/>
 <g id="pressed-center" transform="translate(4.4989 -44.859)">
  <path class="ColorScheme-Text" d="m170.5 83.859v-32h-32v32z" fill="currentColor" opacity=".24"/>
 </g>
 <g id="focus-center" transform="translate(-41.501 -44.859)">
  <path class="ColorScheme-Text" d="m170.5 83.859v-32h-32v32z" fill="currentColor" opacity=".08"/>
 </g>
 <g id="hover-center" transform="translate(-86.501 -44.859)">
  <path class="ColorScheme-Text" d="m170.5 83.859v-32h-32v32z" fill="currentColor" opacity=".08"/>
 </g>
</svg>
