<?xml version="1.0" encoding="UTF-8"?>
<svg width="160" height="160" version="1" xmlns="http://www.w3.org/2000/svg">
 <defs id="materia">
  <style id="current-color-scheme" type="text/css">.ColorScheme-Background {color:#181818; } .ColorScheme-ButtonBackground { color:#343434; } .ColorScheme-Highlight { color:#4285f4; } .ColorScheme-Text { color:#dfdfdf; } .ColorScheme-ViewBackground { color:#242424; } .ColorScheme-NegativeText { color:#f44336; } .ColorScheme-PositiveText { color:#4caf50; } .ColorScheme-NeutralText { color:#ff9800; }</style>
 </defs>
 <g id="ClockFace" transform="translate(-6,-6)">
  <rect x="6" y="6" width="160" height="160" opacity=".001"/>
  <path d="m86 11c41.55 0 75 33.45 75 75s-33.45 75-75 75-75-33.45-75-75 33.45-75 75-75zm0 0c-42.658 0-77 34.342-77 77s34.342 77 77 77 77-34.342 77-77-34.342-77-77-77z" opacity=".03"/>
  <path d="m35.357 30.596c-15.866 13.997-25.857 34.486-25.857 57.404 0 42.381 34.119 76.5 76.5 76.5s76.5-34.119 76.5-76.5c0-22.919-9.991-43.407-25.857-57.404 14.983 13.695 24.357 33.413 24.357 55.404 0 41.55-33.45 75-75 75s-75-33.45-75-75c0-21.992 9.3749-41.71 24.357-55.404z" opacity=".03"/>
  <path d="m21.027 48.447c-6.9998 11.509-11.027 25.043-11.027 39.553 0 42.104 33.896 76 76 76s76-33.896 76-76c0-14.51-4.0275-28.044-11.027-39.553 6.3698 11.033 10.027 23.847 10.027 37.553 0 41.55-33.45 75-75 75s-75-33.45-75-75c0-13.706 3.6575-26.519 10.027-37.553z" opacity=".03"/>
  <path d="m13.154 68.076c-1.7201 6.3449-2.6543 13.02-2.6543 19.924 0 41.827 33.673 75.5 75.5 75.5s75.5-33.673 75.5-75.5c0-6.904-0.93422-13.579-2.6543-19.924 1.3982 5.7414 2.1543 11.74 2.1543 17.924 0 41.55-33.45 75-75 75s-75-33.45-75-75c0-6.1837 0.75607-12.182 2.1543-17.924z" opacity=".03"/>
  <path d="m15.23 61.07c-3.0544 8.2198-4.7305 17.121-4.7305 26.43 0 41.827 33.673 75.5 75.5 75.5s75.5-33.673 75.5-75.5c0-9.3088-1.676-18.21-4.7305-26.43 2.7304 7.7952 4.2305 16.179 4.2305 24.93 0 41.55-33.45 75-75 75s-75-33.45-75-75c0-8.7505 1.5001-17.135 4.2305-24.93z" opacity=".03"/>
  <path d="m21.428 47.75c-6.9376 11.424-10.928 24.854-10.928 39.25 0 41.827 33.673 75.5 75.5 75.5s75.5-33.673 75.5-75.5c0-14.396-3.9901-27.826-10.928-39.25 6.6207 11.188 10.428 24.255 10.428 38.25 0 41.55-33.45 75-75 75s-75-33.45-75-75c0-13.995 3.8071-27.062 10.428-38.25z" opacity=".03"/>
  <path d="m82.104 11.098c-40.002 2.0147-71.604 34.882-71.604 75.402 0 41.827 33.673 75.5 75.5 75.5s75.5-33.673 75.5-75.5c0-40.528-31.615-73.4-71.629-75.402 39.737 2.0013 71.129 34.651 71.129 74.902 0 41.55-33.45 75-75 75s-75-33.45-75-75c0-40.252 31.392-72.901 71.129-74.902-0.0084 4.21e-4 -0.01699-4.23e-4 -0.02539 0z" opacity=".03"/>
  <path d="m86 10.5c-41.827 0-75.5 33.673-75.5 75.5s33.673 75.5 75.5 75.5 75.5-33.673 75.5-75.5-33.673-75.5-75.5-75.5zm0 0.5c41.55 0 75 33.45 75 75s-33.45 75-75 75-75-33.45-75-75 33.45-75 75-75z" opacity=".03"/>
  <rect class="ColorScheme-Background" transform="matrix(0,-1,-1,0,0,0)" x="-161" y="-161" width="150" height="150" rx="75" ry="75" fill="currentColor"/>
  <path transform="translate(6,6)" d="m85.205 15.436c-0.52854 0-1.0441 0.1242-1.5469 0.36914-0.50276 0.24493-1.0316 0.59177-1.5859 1.043l-1.084-1.2812c-0.17179 0.13266-0.3411 0.26685-0.50195 0.40625l1.5859 1.875c0.55433-0.4512 1.0832-0.79803 1.5859-1.043 0.50276-0.24494 1.0183-0.36914 1.5469-0.36914 0.51565 0 0.9203 0.13553 1.2168 0.40625 0.20862 0.18254 0.34003 0.43635 0.4082 0.74805 0.029354-0.16732 0.056641-0.3345 0.056641-0.50977 0-0.55433-0.15545-0.96756-0.46484-1.2383-0.2965-0.27072-0.70114-0.40625-1.2168-0.40625zm-11.377 0.83203c-0.064457 0.077348-0.20468 0.21952-0.42383 0.42578-0.20626 0.19337-0.3996 0.36679-0.58008 0.52148l-1.5859 1.2773-0.92188-1.1504-0.49023 0.39062 1.4121 1.7598 1.5859-1.2773c0.18048-0.1547 0.37382-0.32811 0.58008-0.52148 0.19799-0.18635 0.31134-0.30358 0.38281-0.38476 0.011464-0.36917 0.022522-0.74508 0.041016-1.041zm15.93 1.0234c-0.058223 0.54613-0.2035 1.0555-0.43555 1.5293-0.2965 0.63168-0.73434 1.2562-1.3145 1.875-0.56722 0.61878-1.2562 1.3031-2.0684 2.0508l-1.7793 1.6621v0.13672h0.92383l0.85547-0.79883c0.81216-0.7477 1.5011-1.432 2.0684-2.0508 0.58011-0.61878 1.018-1.2433 1.3145-1.875 0.30939-0.63168 0.46484-1.3273 0.46484-2.0879 0-0.15119-0.012914-0.29728-0.029297-0.44141zm-44.768 6.8652c-0.065359 0.078431-0.20942 0.22249-0.43164 0.43164-0.20915 0.19608-0.40488 0.37243-0.58789 0.5293l-1.6074 1.293-0.94141-1.1738-0.49023 0.39062 1.4316 1.7832 1.6074-1.293c0.18301-0.15686 0.37874-0.33322 0.58789-0.5293 0.20111-0.18928 0.31794-0.30836 0.39062-0.39062 0.011888-0.36816 0.022513-0.74493 0.041015-1.041zm11.221 0c-0.06536 0.078431-0.20942 0.22249-0.43164 0.43164-0.20915 0.19608-0.40488 0.37243-0.58789 0.5293l-1.6074 1.293-0.94141-1.1738-0.49023 0.39062 1.4316 1.7832 1.6074-1.293c0.18301-0.15686 0.37874-0.33322 0.58789-0.5293 0.20111-0.18928 0.31794-0.30836 0.39062-0.39062 0.011888-0.36816 0.022513-0.74493 0.041016-1.041zm54.369 0.052734c-0.06447 0.077348-0.20664 0.21952-0.42578 0.42578-0.20626 0.19337-0.3996 0.36679-0.58008 0.52148l-1.584 1.2773-0.92187-1.1504-0.49024 0.39062 1.4121 1.7598 1.584-1.2773c0.18048-0.1547 0.37382-0.32811 0.58008-0.52148 0.19803-0.18639 0.31298-0.30359 0.38476-0.38477 0.01144-0.36917 0.02251-0.74508 0.04102-1.041zm-36.828 2.791v1h2.9199v-1h-2.9199zm6.7734 0v1h9.6484v-1h-9.6484zm29.979 7.9414v1h2.9199v-1h-2.9199zm-65.592 0.095703v1h2.9609v-1h-2.9609zm11.221 0v1h2.9609v-1h-2.9609zm-22.93 10.287c-0.72381 0-1.2197 0.39239-1.4863 1.1797-0.26667 0.7873-0.40039 1.9567-0.40039 3.5059 0 0.17769 0.008202 0.33236 0.011719 0.5 0.027148-1.2944 0.15259-2.3089 0.38867-3.0059 0.26667-0.7873 0.76252-1.1797 1.4863-1.1797 0.71111 0 1.207 0.39239 1.4863 1.1797 0.24745 0.69736 0.37817 1.7125 0.40625 3.0078 0.003626-0.16825 0.011719-0.32339 0.011719-0.50195 0-1.5492-0.1386-2.7186-0.41797-3.5059-0.27936-0.7873-0.77522-1.1797-1.4863-1.1797zm98.633 0.11133c-0.52855 0-1.0441 0.12225-1.5469 0.36719-0.50276 0.24494-1.0316 0.59373-1.5859 1.0449l-1.084-1.2812c-0.17183 0.13242-0.34142 0.26712-0.50195 0.40625l1.5859 1.875c0.55433-0.4512 1.0832-0.79999 1.5859-1.0449 0.50276-0.24494 1.0183-0.36719 1.5469-0.36719 0.51565 0 0.92225 0.13553 1.2188 0.40625 0.20816 0.18214 0.33849 0.43536 0.40625 0.74609 0.02877-0.16672 0.05664-0.33322 0.05664-0.50781 0-0.55433-0.1535-0.96756-0.46289-1.2383-0.2965-0.27072-0.7031-0.40625-1.2188-0.40625zm-109.89 0.80273c-0.063492 0.076191-0.20405 0.21479-0.41992 0.41797-0.20317 0.19048-0.39253 0.36324-0.57031 0.51562l-1.5625 1.2559-0.90039-1.123-0.49023 0.39062 1.3906 1.7324 1.5625-1.2559c0.17778-0.15238 0.36714-0.32515 0.57031-0.51562 0.19373-0.18234 0.3058-0.29511 0.37695-0.375 0.01219-0.37114 0.024413-0.74613 0.042968-1.043zm114.45 1.0527c-0.05767 0.54613-0.20155 1.0555-0.43359 1.5293-0.2965 0.63168-0.73435 1.2562-1.3145 1.875-0.56721 0.61878-1.2582 1.3031-2.0703 2.0508l-1.7793 1.6621v0.13672h0.92382l0.85547-0.79883c0.81216-0.7477 1.5031-1.432 2.0703-2.0508 0.58011-0.61878 1.018-1.2433 1.3145-1.875 0.30939-0.63168 0.46289-1.3273 0.46289-2.0879 0-0.15119-0.01292-0.29715-0.0293-0.44141zm-107.91 3.0918c-0.006702 0.20738-0.017578 0.41033-0.017578 0.62695 0 2.1968 0.38067 3.9108 1.1426 5.1426 0.7619 1.2317 1.9615 1.8477 3.5996 1.8477 1.1556 0 2.0828-0.27916 2.7812-0.83789 0.69841-0.55873 1.1991-1.3591 1.5039-2.4004 0.31746-1.0413 0.47656-2.2916 0.47656-3.752 0-0.13225-0.014802-0.24626-0.017578-0.375-0.040083 1.1915-0.18847 2.2397-0.45898 3.127-0.30476 1.0413-0.80549 1.8417-1.5039 2.4004-0.69841 0.55873-1.6257 0.83789-2.7812 0.83789-1.6381 0-2.8377-0.61591-3.5996-1.8477-0.71626-1.1579-1.0821-2.7587-1.125-4.7695zm-6.6133 6.4258v1h2.875v-1h-2.875zm105.29 0.19141v1h9.6484v-1h-9.6484zm8.6309 18.045c-0.16093 0.095526-0.33114 0.18379-0.47852 0.28906l1.334 1.9844c0.31789-0.20345 0.71993-0.41955 1.2031-0.64844 0.4832-0.22888 1.0488-0.34375 1.6973-0.34375 0.69937 0 1.1939 0.14018 1.4863 0.41992 0.19395 0.16971 0.31958 0.38761 0.39062 0.64453 0.04393-0.16357 0.06836-0.33606 0.06836-0.51953 0-0.4832-0.15381-0.85797-0.45898-1.125-0.29246-0.27975-0.78696-0.41992-1.4863-0.41992-0.6485 0-1.2141 0.11487-1.6973 0.34375-0.48319 0.22888-0.88523 0.44499-1.2031 0.64844l-0.85547-1.2734zm-116.1 0.26953c-0.56102 0-1.0199 0.19849-1.377 0.59375-0.35701 0.38251-0.53711 0.98085-0.53711 1.7969 0 0.16814 0.011574 0.32646 0.03125 0.47656 0.063559-0.55187 0.23077-0.9787 0.50586-1.2734 0.35701-0.39526 0.81593-0.59375 1.377-0.59375 0.45901 0 0.84047 0.13458 1.1465 0.40234 0.30601 0.25501 0.53645 0.58613 0.68945 0.99414 0.077452 0.20654 0.13388 0.41544 0.17188 0.625 0.03156-0.12679 0.056641-0.25407 0.056641-0.38281 0-0.42076-0.075509-0.83417-0.22852-1.2422-0.153-0.40802-0.38344-0.73913-0.68945-0.99414-0.30601-0.26776-0.68747-0.40234-1.1465-0.40234zm124.58 1.5039c-0.09634 0.67409-0.36331 1.2346-0.8125 1.6738-0.55948 0.55949-1.2536 0.94108-2.0801 1.1445v0.058593c0.52234 0.067597 0.98295 0.18436 1.3867 0.34375 0.24798-0.15993 0.48323-0.33674 0.69335-0.54687 0.57222-0.55949 0.85743-1.309 0.85743-2.25 0-0.14978-0.02743-0.28398-0.04493-0.42383zm-129.25 1.4473c-0.010758 0.16038-0.035156 0.30983-0.035156 0.47852 0 1.377 0.34951 2.4411 1.0508 3.1934 0.70128 0.75228 1.6327 1.1289 2.793 1.1289 0.86703 0 1.5177-0.15297 1.9512-0.45898 0.44548-0.30547 0.80076-0.68172 1.0684-1.127 0.054326-0.32018 0.1011-0.64807 0.11719-1.002h-0.11524c-0.26776 0.44627-0.62405 0.8229-1.0703 1.1289-0.43351 0.30601-1.0841 0.45898-1.9512 0.45898-1.1603 0-2.0917-0.37663-2.793-1.1289-0.60747-0.65165-0.9346-1.5515-1.0156-2.6719zm9.584 1.2539c-0.020145 0.60042-0.063784 1.2005-0.15234 1.8008-0.11475 0.76503-0.31807 1.4912-0.61133 2.1797-0.28051 0.67577-0.6823 1.2809-1.2051 1.8164-0.51001 0.52277-1.1674 0.93813-1.9707 1.2441-0.79053 0.29326-1.7539 0.43945-2.8887 0.43945-0.26776 0-0.57853-0.011609-0.93555-0.037109-0.35701-0.01275-0.65813-0.044703-0.90039-0.095703v1c0.24226 0.051 0.54338 0.082953 0.90039 0.095703 0.35701 0.0255 0.66779 0.037109 0.93555 0.037109 1.1348 0 2.0981-0.14619 2.8887-0.43945 0.80328-0.30601 1.4607-0.72137 1.9707-1.2441 0.52277-0.53552 0.92457-1.1406 1.2051-1.8164 0.29326-0.68852 0.49657-1.4147 0.61133-2.1797 0.11475-0.77778 0.17188-1.5562 0.17188-2.334 0-0.16271-0.013171-0.311-0.019532-0.4668zm112.79 1.3965v1h1.0312c0.85195 0 1.5119 0.06911 1.9824 0.20898 0.4832 0.12716 0.82099 0.32477 1.0117 0.5918 0.10584 0.14818 0.17581 0.31478 0.22266 0.49414 0.03787-0.16867 0.0625-0.34603 0.0625-0.54102 0-0.36876-0.09443-0.6861-0.28516-0.95312s-0.52852-0.46464-1.0117-0.5918c-0.47048-0.13987-1.1305-0.20898-1.9824-0.20898h-1.0312zm7.2871 2.4883c-0.07233 0.56792-0.25476 1.0936-0.55274 1.5742-0.38147 0.62307-0.97916 1.1176-1.793 1.4863-0.80108 0.35604-1.8378 0.53516-3.1094 0.53516-1.475 0-2.7853-0.24823-3.9297-0.74414v1c1.1444 0.49591 2.4547 0.74414 3.9297 0.74414 1.2716 0 2.3083-0.17912 3.1094-0.53516 0.81381-0.36876 1.4115-0.86326 1.793-1.4863 0.39419-0.63579 0.58985-1.3483 0.58985-2.1367 0-0.15339-0.02016-0.29466-0.03711-0.4375zm-116.64 21.697c-0.47113 0-0.86722 0.1262-1.1855 0.38086-0.30559 0.24193-0.45703 0.58075-0.45703 1.0137 0 0.18702 0.033865 0.35502 0.085937 0.51368 0.073843-0.20695 0.19255-0.386 0.37109-0.52735 0.31833-0.25466 0.71442-0.38086 1.1855-0.38086 0.47112 0 0.86527 0.1262 1.1836 0.38086 0.19113 0.14526 0.31647 0.3304 0.39258 0.54492 0.050646-0.16307 0.083984-0.33684 0.083984-0.53125 0-0.43292-0.15824-0.77174-0.47656-1.0137-0.31833-0.25466-0.71247-0.38086-1.1836-0.38086zm104.68 1.291c-0.11765 0.26144-0.24879 0.51531-0.39258 0.76367-0.13072 0.24837-0.28124 0.50418-0.45117 0.76563l-2.5684 3.8828h0.66211l1.9062-2.8828c0.16993-0.26145 0.32045-0.51726 0.45117-0.76563 0.14379-0.24836 0.27493-0.50223 0.39258-0.76367h0.01172c0.00278-0.08128 0.00501-0.17765 0.00781-0.25586 0.0261-0.37909 0.0455-0.6265 0.0586-0.74414h-0.07813zm-100.34 0.38867c-0.078128 0.60381-0.29753 1.1166-0.66992 1.5293-0.45839 0.52205-1.038 0.95502-1.7383 1.2988 0.28713 0.15111 0.56289 0.32174 0.83203 0.5039 0.33968-0.23955 0.64513-0.50535 0.90625-0.80273 0.47112-0.52206 0.70703-1.1978 0.70703-2.0254 0-0.17532-0.013323-0.34271-0.03711-0.50391zm-8.6562 0.01758c-0.021039 0.15012-0.035156 0.30481-0.035156 0.46679 0 0.81493 0.21067 1.4974 0.63086 2.0449 0.24187 0.29877 0.51882 0.56731 0.81641 0.81836 0.2373-0.16146 0.4837-0.31255 0.75-0.44336-0.61119-0.382-1.1335-0.84022-1.5664-1.375-0.3246-0.42297-0.5217-0.92883-0.5957-1.5117zm4.2051 4.0703c-0.59845 0.28013-1.0819 0.60535-1.4512 0.97461-0.35653 0.36926-0.53516 0.81388-0.53516 1.3359 0 0.17608 0.029052 0.33652 0.072266 0.49023 0.080736-0.30679 0.22956-0.58451 0.46289-0.82617 0.36926-0.36926 0.85272-0.69448 1.4512-0.97461l0.24805 0.13281c0.30559 0.17826 0.61042 0.37729 0.91602 0.59375 0.30559 0.20373 0.5619 0.43769 0.76562 0.70508 0.10036 0.12545 0.17391 0.26289 0.22461 0.41016 0.047441-0.15865 0.080078-0.32605 0.080079-0.51172 0-0.34379-0.10096-0.64378-0.30469-0.89844-0.20373-0.26739-0.46003-0.50135-0.76562-0.70508-0.3056-0.21646-0.61042-0.41549-0.91602-0.59375l-0.24805-0.13281zm-4.6191 2.9043c-0.024105 0.18543-0.041016 0.37581-0.041016 0.57812 0 1.1332 0.41259 2.0244 1.2402 2.6738 0.84039 0.64939 2.0248 0.97461 3.5527 0.97461 0.94225 0 1.7713-0.15339 2.4844-0.45898 0.72579-0.3056 1.285-0.73858 1.6797-1.2988 0.40745-0.56026 0.61133-1.2156 0.61133-1.9668 0-0.17032-0.014451-0.33313-0.03711-0.49219-0.072856 0.54195-0.2617 1.0293-0.57422 1.459-0.39472 0.56025-0.9539 0.99323-1.6797 1.2988-0.71305 0.30559-1.5421 0.45898-2.4844 0.45898-1.528 0-2.7123-0.32522-3.5527-0.97461-0.71917-0.56427-1.1052-1.3224-1.1992-2.252zm103.39 0.32422v1h5.9805v-1h-5.9805zm8.8633 0v1h1.6856v-1h-1.6856zm-2.8828 2.9023v1h2.8828v-1h-2.8828zm-77.648 9.8242-5.2949 12.137h-2.6406l-0.45703 1h3.0977l5.2949-12.137v-1zm53.715 0.61328-0.25196 2.707c0.02954-0.00521 0.06377-0.01037 0.09375-0.01562l0.15821-1.6914h4.9297v-1h-4.9297zm-63.754 0.01367v1h6.4453l0.45703-1h-6.9023zm60.75 4.5859-0.07031 0.96289 1.1602 0.61914c0.25783-0.0644 0.58006-0.12889 0.9668-0.19336 0.38674-0.0773 0.76013-0.11523 1.1211-0.11523 1.6158 0 2.523 0.53404 2.7227 1.6035 0.02826-0.16061 0.04297-0.33147 0.04297-0.51562 0-1.3923-0.92217-2.0879-2.7656-2.0879-0.36096 0-0.73435 0.03793-1.1211 0.11523-0.38674 0.06447-0.70897 0.12896-0.9668 0.19336l-1.0898-0.58203zm8.8476 2.5195c-0.08067 1.2961-0.51881 2.3485-1.3574 3.1289-0.92817 0.85082-2.3015 1.2754-4.1191 1.2754-0.72192 0-1.4062-0.06445-2.0508-0.19336-0.63167-0.12892-1.1851-0.31561-1.6621-0.56055v1c0.47698 0.24494 1.0304 0.43163 1.6621 0.56055 0.64457 0.12891 1.3289 0.19336 2.0508 0.19336 1.8177 0 3.191-0.42457 4.1191-1.2754 0.92818-0.86372 1.3906-2.0437 1.3906-3.5391 0-0.20505-0.0138-0.39969-0.03321-0.58984zm-32.359 0.70117c-1.1348 0-2.0139 0.17815-2.6387 0.53516-0.61202 0.35701-1.0458 0.85949-1.3008 1.5098-0.25501 0.63753-0.4012 1.3772-0.43945 2.2188h0.11328c0.001162-0.00203 0.002739-0.00382 0.003906-0.00586 0.074846-0.43477 0.17543-0.84579 0.32227-1.2129 0.25501-0.65027 0.68876-1.1528 1.3008-1.5098 0.62477-0.35701 1.5039-0.53516 2.6387-0.53516 0.28051 0 0.56128 0.01844 0.8418 0.05664 0.29326 0.0383 0.56047 0.0838 0.80273 0.13477v-1c-0.24226-0.05097-0.50947-0.09647-0.80273-0.13477-0.28051-0.0382-0.56129-0.05664-0.8418-0.05664zm-2.0469 4.8965c-0.43351 0-0.80819 0.09389-1.127 0.28515-0.30601 0.19126-0.55001 0.43526-0.72852 0.72852-0.17851 0.28051-0.26758 0.5729-0.26758 0.87891 0 0.20577 0.019812 0.41031 0.056641 0.61328 0.043709-0.16783 0.10925-0.3324 0.21094-0.49219 0.17851-0.29326 0.42251-0.53726 0.72852-0.72852 0.31877-0.19126 0.69344-0.28515 1.127-0.28515 0.62477 0 1.0905 0.18975 1.3965 0.57226 0.22841 0.28552 0.36982 0.65 0.42774 1.0918 0.018642-0.16473 0.03125-0.33682 0.03125-0.52344 0-0.66302-0.15297-1.1858-0.45898-1.5684-0.30601-0.38251-0.77171-0.57226-1.3965-0.57226zm-4.9727 1.3281c-0.006132 0.17713-0.019531 0.35347-0.019531 0.53125 0 1.3643 0.22366 2.4922 0.66992 3.3848 0.44627 0.87978 1.0466 1.5372 1.7988 1.9707 0.75227 0.42076 1.5926 0.63086 2.5234 0.63086 1.4281 0 2.556-0.42019 3.3848-1.2617 0.84153-0.84153 1.2637-2.0014 1.2637-3.4805 0-0.18694-0.022205-0.35382-0.035156-0.52929-0.084059 1.2496-0.48139 2.2626-1.2285 3.0098-0.82878 0.84153-1.9567 1.2617-3.3848 1.2617-0.93079 0-1.7712-0.2101-2.5234-0.63086-0.75227-0.43352-1.3526-1.0909-1.7988-1.9707-0.39282-0.78565-0.60325-1.7649-0.65039-2.916z" opacity=".2"/>
  <path class="ColorScheme-Text" transform="translate(6,6)" d="m85.416 13c-0.82505 0-1.534 0.09764-2.127 0.29102-0.58011 0.18048-1.0957 0.42498-1.5469 0.73438-0.4512 0.2965-0.86912 0.61209-1.2559 0.94726l1.5859 1.875c0.55433-0.4512 1.0832-0.79803 1.5859-1.043 0.50276-0.24494 1.0183-0.36914 1.5469-0.36914 0.51565 0 0.9203 0.13553 1.2168 0.40625 0.30939 0.27072 0.46484 0.68395 0.46484 1.2383 0 0.4512-0.09765 0.87576-0.29102 1.2754-0.19337 0.38674-0.50232 0.82654-0.92773 1.3164-0.42542 0.47698-0.98551 1.075-1.6816 1.7969l-3.4609 3.5v2.0312h9.6484v-2.4551h-6.0137v-0.13672l1.7793-1.6621c0.81216-0.7477 1.5011-1.432 2.0684-2.0508 0.58011-0.61878 1.018-1.2433 1.3145-1.875 0.30939-0.63168 0.46484-1.3273 0.46484-2.0879 0-0.70902-0.18006-1.3402-0.54102-1.8945-0.34807-0.56722-0.85035-1.0137-1.5078-1.3359-0.64457-0.33518-1.4199-0.50195-2.3223-0.50195zm-11.143 0.19336-4.4473 3.5391 1.4121 1.7598 1.5859-1.2773c0.18048-0.1547 0.37382-0.32811 0.58008-0.52148 0.21915-0.20626 0.35937-0.34843 0.42383-0.42578-0.02578 0.41252-0.043751 0.89684-0.056641 1.4512-0.01289 0.54144-0.019531 0.97264-0.019531 1.2949v7.9863h2.9199v-13.807h-2.3984zm-54.646 59.807c-1.4281 0-2.5628 0.42214-3.4043 1.2637-0.82878 0.84153-1.2422 2.0014-1.2422 3.4805 0 1.377 0.34951 2.4411 1.0508 3.1934 0.70128 0.75228 1.6327 1.1289 2.793 1.1289 0.86703 0 1.5177-0.15297 1.9512-0.45898 0.44627-0.30601 0.80255-0.68264 1.0703-1.1289h0.11524c-0.038251 0.84153-0.18444 1.588-0.43945 2.2383-0.25501 0.63752-0.69554 1.1352-1.3203 1.4922-0.61202 0.35701-1.4843 0.53516-2.6191 0.53516-0.28051 0-0.56128-0.020344-0.8418-0.058594-0.28051-0.03825-0.54967-0.08181-0.80469-0.13281v2.3145c0.24226 0.051 0.54338 0.082953 0.90039 0.095703 0.35701 0.025499 0.66779 0.037109 0.93555 0.037109 1.1348 0 2.0981-0.14619 2.8887-0.43945 0.80328-0.30601 1.4607-0.72137 1.9707-1.2441 0.52277-0.53552 0.92457-1.1406 1.2051-1.8164 0.29326-0.68852 0.49657-1.4147 0.61133-2.1797 0.11475-0.77778 0.17188-1.5562 0.17188-2.334 0-1.3643-0.22366-2.4855-0.66992-3.3652-0.44627-0.89253-1.0446-1.5499-1.7969-1.9707-0.75227-0.43352-1.5946-0.65039-2.5254-0.65039zm120.12 0c-0.99182 0-1.8494 0.12655-2.5742 0.38086-0.71208 0.25432-1.3351 0.57165-1.8691 0.95312l1.334 1.9844c0.31789-0.20345 0.71993-0.41955 1.2031-0.64844 0.4832-0.22888 1.0488-0.34375 1.6973-0.34375 0.69937 0 1.1939 0.14018 1.4863 0.41992 0.30517 0.26703 0.45898 0.6418 0.45898 1.125 0 0.35604-0.0828 0.67533-0.24805 0.95508-0.15259 0.26703-0.45143 0.48313-0.89648 0.64844-0.43233 0.15259-1.069 0.22852-1.9082 0.22852h-1.0488v2.2129h1.0312c0.85195 0 1.5119 0.06911 1.9824 0.20898 0.4832 0.12716 0.82099 0.32477 1.0117 0.5918s0.28516 0.58437 0.28516 0.95312c0 0.6485-0.2093 1.1518-0.62891 1.5078-0.40691 0.35604-1.1243 0.5332-2.1543 0.5332-0.55949 0-1.1572-0.07593-1.793-0.22852-0.63578-0.15259-1.2471-0.37551-1.832-0.66797v2.4414c1.1444 0.49591 2.4547 0.74414 3.9297 0.74414 1.2716 0 2.3083-0.17912 3.1094-0.53516 0.81381-0.36876 1.4115-0.86326 1.793-1.4863 0.39419-0.63579 0.58985-1.3483 0.58985-2.1367 0-0.8901-0.28522-1.6027-0.85742-2.1367-0.57221-0.53406-1.3996-0.86989-2.4805-1.0098v-0.058593c0.82652-0.20345 1.5206-0.58504 2.0801-1.1445 0.57222-0.55949 0.85743-1.309 0.85743-2.25 0-1.03-0.41372-1.8253-1.2402-2.3848-0.8138-0.57221-1.9196-0.85742-3.3184-0.85742zm-120.07 2.3145c0.45901 0 0.84047 0.13458 1.1465 0.40234 0.30601 0.25501 0.53645 0.58613 0.68945 0.99414 0.15301 0.40801 0.22852 0.82142 0.22852 1.2422 0 0.30601-0.08907 0.60713-0.26758 0.90039-0.17851 0.28051-0.42733 0.51577-0.74609 0.70703s-0.68861 0.28711-1.1094 0.28711c-0.62477 0-1.0905-0.19171-1.3965-0.57422-0.30601-0.38252-0.45898-0.90534-0.45898-1.5684 0-0.81603 0.1801-1.4144 0.53711-1.7969 0.35701-0.39526 0.81593-0.59375 1.377-0.59375zm62.342 57.686c-1.1348 0-2.103 0.15298-2.9062 0.45898-0.79053 0.29326-1.4479 0.70865-1.9707 1.2441-0.51001 0.52279-0.91182 1.1279-1.2051 1.8164-0.28051 0.67577-0.47704 1.4019-0.5918 2.1797-0.11475 0.76503-0.17383 1.5367-0.17383 2.3144 0 1.3643 0.22366 2.4922 0.66992 3.3848 0.44627 0.87978 1.0466 1.5372 1.7988 1.9707 0.75227 0.42076 1.5926 0.63086 2.5234 0.63086 1.4281 0 2.556-0.42019 3.3848-1.2617 0.84153-0.84153 1.2637-2.0014 1.2637-3.4805 0-1.377-0.35146-2.443-1.0527-3.1953-0.70128-0.75228-1.6511-1.127-2.8496-1.127-0.76503 0-1.3885 0.15297-1.873 0.45898-0.47176 0.30601-0.83678 0.68069-1.0918 1.127h-0.11328c0.03825-0.84152 0.18444-1.5812 0.43945-2.2188 0.25501-0.65027 0.68876-1.1528 1.3008-1.5098 0.62477-0.35701 1.5039-0.53516 2.6387-0.53516 0.28051 0 0.56128 0.01844 0.8418 0.05664 0.29326 0.0383 0.56047 0.0838 0.80273 0.13477v-2.3144c-0.24226-0.051-0.54142-0.08301-0.89844-0.09571-0.35701-0.0255-0.66974-0.03906-0.9375-0.03906zm-1.8555 7.1543c0.62477 0 1.0905 0.18975 1.3965 0.57226 0.30601 0.38252 0.45898 0.90534 0.45898 1.5684 0 0.81603-0.17814 1.4231-0.53516 1.8184-0.35702 0.38251-0.81593 0.57227-1.377 0.57227-0.44627 0-0.82968-0.12586-1.1484-0.38086-0.30601-0.26776-0.53449-0.60565-0.6875-1.0137s-0.23047-0.82338-0.23047-1.2441c0-0.30601 0.08907-0.5984 0.26758-0.87891 0.17851-0.29326 0.42251-0.53726 0.72852-0.72852 0.31877-0.19126 0.69344-0.28515 1.127-0.28515z" fill="currentColor"/>
  <path class="ColorScheme-Text" transform="translate(6,6)" d="m45.441 21.037-4.5098 3.5898 1.4316 1.7832 1.6074-1.293c0.18301-0.15686 0.37874-0.33322 0.58789-0.5293 0.22222-0.20915 0.36628-0.35321 0.43164-0.43164-0.02614 0.4183-0.045523 0.90861-0.058593 1.4707-0.01307 0.54902-0.019532 0.9857-0.019532 1.3125v8.0977h2.9609v-14h-2.4316zm11.221 0-4.5098 3.5898 1.4316 1.7832 1.6074-1.293c0.18301-0.15686 0.37874-0.33322 0.58789-0.5293 0.22222-0.20915 0.36628-0.35321 0.43164-0.43164-0.02614 0.4183-0.045524 0.90861-0.058594 1.4707-0.01307 0.54902-0.019532 0.9857-0.019532 1.3125v8.0977h2.9609v-14h-2.4316zm54.363 0.097657-4.4473 3.5391 1.4121 1.7598 1.584-1.2773c0.18048-0.1547 0.37382-0.32811 0.58008-0.52148 0.21914-0.20626 0.36131-0.34843 0.42578-0.42578-0.0258 0.41252-0.04384 0.89684-0.05664 1.4512-0.0129 0.54144-0.01953 0.97264-0.01953 1.2949v7.9863h2.9199v-13.807h-2.3984zm-77.822 21.865c-1.1556 0-2.0828 0.27916-2.7812 0.83789-0.69841 0.55873-1.1991 1.366-1.5039 2.4199-0.30476 1.0413-0.45703 2.2916-0.45703 3.752 0 2.1968 0.38067 3.9108 1.1426 5.1426 0.7619 1.2317 1.9615 1.8477 3.5996 1.8477 1.1556 0 2.0828-0.27916 2.7812-0.83789 0.69841-0.55873 1.1991-1.3591 1.5039-2.4004 0.31746-1.0413 0.47656-2.2916 0.47656-3.752 0-2.2095-0.38751-3.9304-1.1621-5.1621-0.7746-1.2317-1.9742-1.8477-3.5996-1.8477zm98.846 0c-0.82505 0-1.534 0.09569-2.127 0.28906-0.58011 0.18048-1.0957 0.42694-1.5469 0.73633-0.45119 0.2965-0.87107 0.61209-1.2578 0.94726l1.5859 1.875c0.55433-0.4512 1.0832-0.79999 1.5859-1.0449 0.50276-0.24494 1.0183-0.36719 1.5469-0.36719 0.51565 0 0.92225 0.13553 1.2188 0.40625 0.30939 0.27072 0.46289 0.68395 0.46289 1.2383 0 0.4512-0.0957 0.87576-0.28906 1.2754-0.19337 0.38674-0.50233 0.82654-0.92774 1.3164-0.42541 0.47698-0.98746 1.075-1.6836 1.7969l-3.4609 3.5v2.0312h9.6484v-2.4551h-6.0137v-0.13672l1.7793-1.6621c0.81216-0.7477 1.5031-1.432 2.0703-2.0508 0.58011-0.61878 1.018-1.2433 1.3145-1.875 0.30939-0.63168 0.46289-1.3273 0.46289-2.0879 0-0.70902-0.18006-1.3422-0.54102-1.8965-0.34806-0.56722-0.85035-1.0117-1.5078-1.334-0.64457-0.33518-1.4179-0.50195-2.3203-0.50195zm-109.67 0.20898-4.3809 3.4863 1.3906 1.7324 1.5625-1.2559c0.17778-0.15238 0.36714-0.32515 0.57031-0.51562 0.21587-0.20318 0.35643-0.34178 0.41992-0.41797-0.0254 0.40635-0.045903 0.8817-0.058594 1.4277-0.012699 0.53333-0.017578 0.95988-0.017578 1.2773v7.8652h2.875v-13.6h-2.3613zm10.824 2.1152c0.71111 0 1.207 0.39239 1.4863 1.1797 0.27936 0.7873 0.41797 1.9567 0.41797 3.5059 0 1.5619-0.1386 2.7293-0.41797 3.5039s-0.77522 1.1621-1.4863 1.1621c-0.72381 0-1.2197-0.38751-1.4863-1.1621-0.26667-0.7873-0.40039-1.9547-0.40039-3.5039 0-1.5492 0.13372-2.7186 0.40039-3.5059 0.26667-0.7873 0.76252-1.1797 1.4863-1.1797zm-5.1562 57.676c-0.76399 0-1.4834 0.12135-2.1582 0.36328-0.66212 0.24193-1.1961 0.61084-1.6035 1.1074-0.40746 0.48386-0.61133 1.0819-0.61133 1.7949 0 0.81494 0.21067 1.4974 0.63086 2.0449 0.43292 0.53478 0.95522 0.993 1.5664 1.375-0.72578 0.35652-1.3442 0.82639-1.8535 1.4121-0.50932 0.57298-0.76367 1.3244-0.76367 2.2539 0 1.1332 0.41259 2.0244 1.2402 2.6738 0.84039 0.64939 2.0248 0.97461 3.5527 0.97461 0.94225 0 1.7713-0.15339 2.4844-0.45898 0.72579-0.3056 1.285-0.73858 1.6797-1.2988 0.40745-0.56026 0.61133-1.2156 0.61133-1.9668 0-0.59845-0.1398-1.1276-0.41992-1.5859-0.26739-0.45839-0.62466-0.85253-1.0703-1.1836-0.43293-0.34379-0.89115-0.64184-1.375-0.89648 0.70031-0.34382 1.2799-0.77678 1.7383-1.2988 0.47112-0.52206 0.70703-1.1978 0.70703-2.0254 0-0.72579-0.20388-1.3306-0.61133-1.8145-0.39473-0.49658-0.92382-0.86549-1.5859-1.1074-0.64938-0.24193-1.3688-0.36328-2.1582-0.36328zm104.78 0-6.1367 9.0391v2.0586h5.9805v2.9023h2.8828v-2.9023h1.6856v-2.293h-1.6856v-8.8047h-2.7266zm-104.79 2.1016c0.47112 0 0.86527 0.1262 1.1836 0.38086 0.31833 0.24193 0.47656 0.58075 0.47656 1.0137 0 0.49659-0.16503 0.89074-0.49609 1.1836-0.33106 0.28012-0.71356 0.52283-1.1465 0.72656-0.44566-0.21647-0.833-0.47274-1.1641-0.76563-0.33106-0.29283-0.49609-0.67341-0.49609-1.1445 0-0.43292 0.15144-0.77174 0.45703-1.0137 0.31833-0.25466 0.71442-0.38086 1.1855-0.38086zm104.68 1.291h0.07813c-0.0131 0.11764-0.0325 0.36505-0.0586 0.74414-0.0131 0.36601-0.02596 0.7659-0.03906 1.1973-0.0131 0.43138-0.01953 0.79701-0.01953 1.0977v2.373h-3.373l2.5684-3.8828c0.16993-0.26145 0.32045-0.51726 0.45117-0.76563 0.14379-0.24836 0.27493-0.50223 0.39258-0.76367zm-104.79 4.4766 0.24805 0.13281c0.30559 0.17826 0.61042 0.37729 0.91602 0.59375 0.30559 0.20373 0.5619 0.43769 0.76562 0.70508 0.20373 0.25466 0.30469 0.55465 0.30469 0.89844-1e-6 0.50933-0.17863 0.91706-0.53516 1.2227-0.35652 0.30558-0.89046 0.45898-1.6035 0.45898-0.68759 0-1.2099-0.16019-1.5664-0.47852-0.34379-0.31832-0.51562-0.72606-0.51562-1.2226 0-0.52206 0.17863-0.96668 0.53516-1.3359 0.36926-0.36926 0.85272-0.69448 1.4512-0.97461zm17.066 14.092v2.4902h6.9023l-5.2559 11.51h3.0977l5.2949-12.137v-1.8633h-10.039zm61.201 0-0.52148 7.0391 1.1602 0.61914c0.25783-0.0644 0.58006-0.12889 0.9668-0.19336 0.38674-0.0773 0.76013-0.11523 1.1211-0.11523 1.8435 0 2.7656 0.69562 2.7656 2.0879 0 0.7477-0.23318 1.3012-0.69727 1.6621-0.4512 0.34806-1.1089 0.52343-1.9726 0.52343-0.593 0-1.2242-0.0844-1.8945-0.25195-0.67035-0.18047-1.2437-0.39373-1.7207-0.63867v2.5137c0.47698 0.24494 1.0304 0.43163 1.6621 0.56055 0.64457 0.12891 1.3289 0.19336 2.0508 0.19336 1.8177 0 3.191-0.42457 4.1191-1.2754 0.92818-0.86372 1.3906-2.0437 1.3906-3.5391 0-0.91528-0.19334-1.682-0.58008-2.3008-0.37385-0.61878-0.88943-1.0898-1.5469-1.4121-0.65747-0.32228-1.4042-0.48242-2.2422-0.48242-0.4512 0-0.80663 0.02457-1.0645 0.07617-0.24494 0.0387-0.47615 0.0785-0.69531 0.11719l0.25196-2.707h4.9297v-2.4766h-7.4824z" fill="currentColor" opacity=".28"/>
 </g>
 <g id="HourHand">
  <rect x="69" y="69" width="22" height="91" opacity=".001"/>
  <path class="ColorScheme-Text" d="m80 80c2.216 0 4 1.784 4 4v34c0 2.216-1.784 4-4 4s-4-1.784-4-4v-34c0-2.216 1.784-4 4-4z" fill="currentColor"/>
 </g>
 <g id="SecondHand">
  <rect x="69" y="69" width="22" height="91" opacity=".001"/>
  <path class="ColorScheme-Highlight" d="m81 76v79s0 4.2e-4 -1 4.2e-4 -1 4.2e-4 -1 4.2e-4v-79z" fill="currentColor"/>
  <circle cx="80" cy="80" r="10" opacity=".05"/>
  <circle cx="80" cy="80" r="10" opacity=".05"/>
  <circle class="ColorScheme-ViewBackground" cx="80" cy="80" r="10" fill="currentColor"/>
 </g>
 <g id="MinuteHand">
  <rect x="69" y="69" width="22" height="91" opacity=".001"/>
  <path class="ColorScheme-Text" d="m80 80c1.662 0 3 1.338 3 3v44c0 1.662-1.338 3-3 3s-3-1.338-3-3v-44c0-1.662 1.338-3 3-3z" fill="currentColor"/>
  <path class="ColorScheme-Background" d="m80 80c1.662 0 3 1.338 3 3v44c0 1.662-1.338 3-3 3s-3-1.338-3-3v-44c0-1.662 1.338-3 3-3z" fill="currentColor" opacity=".72"/>
  <circle cx="80" cy="80" r="10" opacity=".05"/>
  <circle cx="80" cy="80" r="10" opacity=".05"/>
  <circle class="ColorScheme-ViewBackground" cx="80" cy="80" r="10" fill="currentColor"/>
 </g>
 <circle id="hint-hourhand-rotation-center-offset" cx="80" cy="80" r="2" fill="#f0f"/>
 <circle id="hint-minutehand-rotation-center-offset" cx="80" cy="80" r="2" fill="#f0f"/>
 <circle id="hint-secondhand-rotation-center-offset" cx="80" cy="80" r="2" fill="#f0f"/>
</svg>
