<?xml version="1.0" encoding="UTF-8"?>
<svg width="112" height="48" version="1" xmlns="http://www.w3.org/2000/svg">
 <defs id="materia">
  <style id="current-color-scheme" type="text/css">.ColorScheme-Background {color:#181818; } .ColorScheme-ButtonBackground { color:#343434; } .ColorScheme-Highlight { color:#4285f4; } .ColorScheme-Text { color:#dfdfdf; } .ColorScheme-ViewBackground { color:#242424; } .ColorScheme-NegativeText { color:#f44336; } .ColorScheme-PositiveText { color:#4caf50; } .ColorScheme-NeutralText { color:#ff9800; }</style>
 </defs>
 <g id="configure" transform="translate(-76,-42)">
  <rect x="92" y="42" width="16" height="16" opacity=".001"/>
  <g transform="translate(-332,-386)">
   <path class="ColorScheme-Text" d="m430.25 429-0.1543 1.8438a5.5 5.5 0 0 0-1.6074 0.92969l-1.6758-0.78906-1.75 3.0312 1.5215 1.0566a5.5 5.5 0 0 0-0.084 0.92773 5.5 5.5 0 0 0 0.0801 0.93164l-1.5176 1.0527 1.75 3.0312 1.6719-0.7871a5.5 5.5 0 0 0 1.6113 0.92382l0.1543 1.8477h3.5l0.1543-1.8438a5.5 5.5 0 0 0 1.6074-0.92969l1.6758 0.78906 1.75-3.0312-1.5215-1.0566a5.5 5.5 0 0 0 0.084-0.92773 5.5 5.5 0 0 0-0.0801-0.93164l1.5176-1.0527-1.75-3.0312-1.6719 0.7871a5.5 5.5 0 0 0-1.6113-0.92382l-0.1543-1.8477zm1.75 5a2 2 0 0 1 2 2 2 2 0 0 1-2 2 2 2 0 0 1-2-2 2 2 0 0 1 2-2z" fill="currentColor"/>
  </g>
 </g>
 <g id="size-vertical" transform="translate(-28,-42)">
  <rect x="92" y="42" width="16" height="16" opacity=".001"/>
  <path class="ColorScheme-Text" d="m100 43-3 4h6c0 0.04158-3-4-3-4zm0 5a2 2 0 0 0-2 2 2 2 0 0 0 2 2 2 2 0 0 0 2-2 2 2 0 0 0-2-2zm-3 5 3 4s3-4.0416 3-4z" fill="currentColor"/>
 </g>
 <g id="menu" transform="translate(-92,-42)">
  <rect x="92" y="42" width="16" height="16" opacity=".001"/>
  <path class="ColorScheme-Text" d="m100 43a2 2 0 0 0-2 2 2 2 0 0 0 2 2 2 2 0 0 0 2-2 2 2 0 0 0-2-2zm0 5a2 2 0 0 0-2 2 2 2 0 0 0 2 2 2 2 0 0 0 2-2 2 2 0 0 0-2-2zm0 5a2 2 0 0 0-2 2 2 2 0 0 0 2 2 2 2 0 0 0 2-2 2 2 0 0 0-2-2z" fill="currentColor"/>
 </g>
 <g id="rotate" transform="translate(-60,-42)">
  <rect x="92" y="42" width="16" height="16" opacity=".001"/>
  <g transform="translate(92.002 41.984)">
   <g transform="translate(-425 99.016)">
    <path class="ColorScheme-Text" d="m433-98c-3.866 0-7 3.134-7 7s3.134 7 7 7c3.1748 0 5.8615-2.1032 6.7188-5h-2.1562c-0.77427 1.7595-2.5168 3-4.5625 3-2.7614 0-5-2.2386-5-5s2.2386-5 5-5c1.3816 0 2.6155 0.57505 3.5156 1.4844l-2.5156 2.5156h6v-6l-2.0527 2.0527c-1.2685-1.2648-3.0134-2.0527-4.9473-2.0527z" fill="currentColor"/>
   </g>
  </g>
 </g>
 <g id="move" transform="translate(-44,-42)">
  <rect x="92" y="42" width="16" height="16" opacity=".001"/>
  <path class="ColorScheme-Text" d="m100 43-3 4h6c0 0.04158-3-4-3-4zm3 4v6c-0.0416 0 4-3 4-3zm0 6h-6l3 4s3-4.0416 3-4zm-6 0v-6l-4 3s4.0416 3 4 3zm3-5a2 2 0 0 0-2 2 2 2 0 0 0 2 2 2 2 0 0 0 2-2 2 2 0 0 0-2-2z" fill="currentColor"/>
 </g>
 <g id="size-horizontal" transform="translate(21.2 -39.2)">
  <rect x="58.8" y="39.2" width="16" height="16" opacity=".001"/>
  <path class="ColorScheme-Text" d="m73.8 47.2-4-3v6c-0.0416 0 4-3 4-3zm-5 0a2 2 0 0 0-2-2 2 2 0 0 0-2 2 2 2 0 0 0 2 2 2 2 0 0 0 2-2zm-5-3-4 3s4.0416 3 4 3z" fill="currentColor"/>
 </g>
 <g id="size-diagonal-tr2bl" transform="translate(4 -42)">
  <rect x="92" y="42" width="16" height="16" opacity=".001"/>
  <path class="ColorScheme-Text" d="m94 44s-1 0-1 1v4h2v-3h3v-2zm8 0v2h1.6289l-3.2852 3.2852 1.4141 1.4141 3.2422-3.2422v1.543h2v-4s0-1-1-1zm-3.7578 5.3008-3.2422 3.2422v-1.543h-2v4s0 1 1 1h4v-2h-1.6289l3.2852-3.2852zm6.7578 1.6992v3h-3v2h4s1 0 1-1v-4z" fill="currentColor"/>
 </g>
 <g id="size-diagonal-tl2br" transform="translate(-92,-26)">
  <rect x="92" y="42" width="16" height="16" opacity=".001"/>
  <path class="ColorScheme-Text" d="m94 44c-1 0-1 1-1 1v4h2v-1.543l3.2422 3.2422 1.4141-1.4141-3.2852-3.2852h1.6289v-2zm8 0v2h3v3h2v-4c0-1-1-1-1-1zm-9 7v4c0 1 1 1 1 1h4v-2h-3v-3zm12 0v3h-3v2h4s1 0 1-1v-4z" fill="currentColor"/>
 </g>
 <g id="maximize" transform="translate(-76,-26)">
  <rect x="92" y="42" width="16" height="16" opacity=".001"/>
  <path class="ColorScheme-Text" d="m106 44c1 0 1 1 1 1v4h-2v-1.543l-3.2422 3.2422-1.4141-1.4141 3.2852-3.2852h-1.6289v-2zm-8 0v2h-3v3h-2v-4c0-1 1-1 1-1zm9 7v4c0 1-1 1-1 1h-4v-2h3v-3zm-12 0v3h3v2h-4s-1 0-1-1v-4z" fill="currentColor"/>
 </g>
 <g id="unmaximize" transform="translate(-60,-26)">
  <rect x="92" y="42" width="16" height="16" opacity=".001"/>
  <path class="ColorScheme-Text" d="m94 44s-1 1e-5 -1 1v4h2v-3h3v-2zm10.242 0.30078-3.2422 3.2422v-1.543h-2v4s0 1 1 1h4v-2h-1.6289l3.2852-3.2852zm-11.242 6.6992v4c0 0.99999 1 1 1 1h4v-2h-3v-3zm12 0v3h-3v2h4s1-1e-5 1-1v-4z" fill="currentColor"/>
 </g>
 <g id="status" transform="translate(-44,-26)">
  <rect x="92" y="42" width="16" height="16" opacity=".001"/>
  <path class="ColorScheme-Text" d="m105.66 44.018c-0.25623 0.05414-0.49235 0.19518-0.65847 0.39343l-7.3529 8.2263-2.6339-3.2756c-0.44054-0.43078-1.2422-0.4308-1.6828-5.7e-5 -0.44056 0.43075-0.44054 1.2146 5.9e-5 1.6453 1.4589 1.6843 4.4264 4.9923 4.4264 4.9923l0.80479-0.92992 8.1943-9.1562c0.66423-0.70701-0.13559-2.0885-1.0974-1.8956z" fill="currentColor"/>
 </g>
 <g id="return-to-source" transform="translate(-28,-26)">
  <rect x="92" y="42" width="16" height="16" opacity=".001"/>
  <path class="ColorScheme-Text" d="m94.891 43c-1.0469 0-1.8906 0.84369-1.8906 1.8906v10.219c0 1.0469 0.8437 1.8906 1.8906 1.8906h10.219c1.0469 0 1.8906-0.8437 1.8906-1.8906v-10.219c0-1.0469-0.84369-1.8906-1.8906-1.8906zm2.1094 1h6c0-0.0416-3 4-3 4zm-3 5h12v2h-12zm6 3s3 4.0416 3 4h-6z" fill="currentColor"/>
 </g>
 <g id="collapse" transform="translate(-12,-26)">
  <rect x="92" y="42" width="16" height="16" opacity=".001"/>
  <path class="ColorScheme-Text" d="m97 43 3 4s3-4.0416 3-4zm-4 6v2h14v-2zm7 4-3 4h6c0 0.0416-3-4-3-4z" fill="currentColor"/>
 </g>
 <g id="restore" transform="translate(4,-26)">
  <rect x="92" y="42" width="16" height="16" opacity=".001"/>
  <path class="ColorScheme-Text" d="m100 43-3 4h6c0 0.0416-3-4-3-4zm-7 6v2h14v-2zm4 4 3 4s3-4.0416 3-4z" fill="currentColor"/>
 </g>
 <g id="help" transform="translate(-92,-10)">
  <rect x="92" y="42" width="16" height="16" opacity=".001"/>
  <path class="ColorScheme-Text" d="m101 57h-2v-2h2zm2.07-7.75-0.9 0.92c-0.72 0.73-1.17 1.33-1.17 2.83h-2v-0.5c0-1.1 0.45-2.1 1.17-2.83l1.24-1.26c0.37-0.36 0.59-0.86 0.59-1.41 0-1.1-0.9-2-2-2s-2 0.9-2 2h-2c0-2.21 1.79-4 4-4s4 1.79 4 4c0 0.88-0.36 1.68-0.93 2.25z" fill="currentColor"/>
 </g>
 <g id="delete" transform="translate(-76,-10)">
  <rect x="92" y="42" width="16" height="16" opacity=".001"/>
  <path class="ColorScheme-Text" d="m98 42.998c-1 0-1 1-1 1h-3s-1 4e-3 -1 1.0039v1l13-4e-3v-0.9961c0-1-1-1.0039-1-1.0039h-3s0-1-1-1zm-4 4.0039v9c5e-5 0.52358 0.47642 0.99995 1 1h9c0.52358-5e-5 0.99995-0.47642 1-1v-9z" fill="currentColor"/>
 </g>
 <g id="add" transform="translate(-60,-10)">
  <rect x="92" y="42" width="16" height="16" opacity=".001"/>
  <path class="ColorScheme-Text" d="m99 44v5h-5v2h5v5h2v-5h5v-2h-5v-5z" fill="currentColor"/>
 </g>
 <g id="remove" transform="translate(-44,-10)">
  <rect x="92" y="42" width="16" height="16" opacity=".001"/>
  <rect class="ColorScheme-Text" transform="rotate(90)" x="49" y="-106" width="2" height="12" fill="currentColor"/>
 </g>
 <g id="filter" transform="translate(-28,-10)">
  <rect x="92" y="42" width="16" height="16" opacity=".001"/>
  <path class="ColorScheme-Text" d="m96 44-1 1v1l3 5.2598v2.7422l3 1.9961v2e-3h1v-4.7402l3-5.2598v-1l-1-1h-8zm1 2h3l-1 1v1z" fill="currentColor"/>
 </g>
 <g id="close" transform="translate(-12,-10)">
  <rect x="92" y="42" width="16" height="16" opacity=".001"/>
  <path class="ColorScheme-Text" d="m94.005 44h1.4994c0.0156-1.8e-4 0.0312-6.9e-4 0.0469 0 0.38228 0.0168 0.76451 0.19286 1.0308 0.46874l3.4205 3.4218 3.4674-3.4218c0.39828-0.34574 0.66975-0.45824 1.0308-0.46874h1.4994v1.5c0 0.42969-0.0515 0.82595-0.37486 1.125l-3.4205 3.4218 3.3737 3.3749c0.28217 0.28225 0.4217 0.68015 0.42171 1.0781v1.5h-1.4994c-0.3978-2e-5 -0.79557-0.13965-1.0777-0.42186l-3.4205-3.4218-3.4205 3.4218c-0.28214 0.28227-0.67993 0.42186-1.0777 0.42186h-1.4994v-1.5c0-0.39792 0.13954-0.79584 0.42171-1.0781l3.4205-3.3749-3.4205-3.4218c-0.31599-0.29193-0.45456-0.70385-0.42171-1.125z" fill="currentColor"/>
 </g>
 <g id="showbackground">
  <rect x="96" y="32" width="16" height="16" opacity=".001"/>
  <path class="ColorScheme-Text" d="m100 34c-1.108 0-2 0.892-2 2v8c0 1.108 0.892 2 2 2h8c1.108 0 2-0.892 2-2v-8c0-1.108-0.892-2-2-2h-8zm4.3457 2c0.90323 0 1.5707 0.20593 2.0039 0.61914 0.43318 0.41321 0.65039 1.0713 0.65039 1.9746v5.2617h-0.88477l-0.23437-1.0957h-0.05664c-0.32258 0.42282-0.66204 0.7357-1.0215 0.9375-0.35023 0.2018-0.84006 0.30273-1.4668 0.30273-0.67281 0-1.2295-0.18171-1.6719-0.54688-0.44239-0.37478-0.66406-0.95615-0.66406-1.7441 0-0.76877 0.29045-1.3602 0.87109-1.7734 0.58065-0.42282 1.4743-0.65297 2.6816-0.69141l1.2578-0.044922v-0.46094c0-0.64384-0.13311-1.09-0.40039-1.3398-0.26728-0.24985-0.64434-0.375-1.1328-0.375-0.38709 0-0.75719 0.062575-1.1074 0.1875-0.35023 0.11532-0.67632 0.25054-0.98047 0.4043l-0.37304-0.95312c0.32258-0.18258 0.70408-0.33601 1.1465-0.46094 0.4424-0.13454 0.90355-0.20117 1.3828-0.20117zm1.4512 4.0801-1.0918 0.042969c-0.92166 0.038438-1.5624 0.19187-1.9219 0.46094-0.35023 0.26907-0.52539 0.64858-0.52539 1.1387 0 0.43243 0.1242 0.74937 0.37305 0.95117 0.25806 0.2018 0.58611 0.30273 0.98242 0.30273 0.62673 0 1.1478-0.17765 1.5625-0.5332 0.41475-0.36516 0.62109-0.92232 0.6211-1.6719v-0.69141z" fill="currentColor"/>
 </g>
</svg>
