<?xml version="1.0" encoding="UTF-8"?>
<svg width="88" height="24" version="1" xmlns="http://www.w3.org/2000/svg">
 <defs id="materia">
  <style id="current-color-scheme" type="text/css">.ColorScheme-Background {color:#181818; } .ColorScheme-ButtonBackground { color:#343434; } .ColorScheme-Highlight { color:#4285f4; } .ColorScheme-Text { color:#dfdfdf; } .ColorScheme-ViewBackground { color:#242424; } .ColorScheme-NegativeText { color:#f44336; } .ColorScheme-PositiveText { color:#4caf50; } .ColorScheme-NeutralText { color:#ff9800; }</style>
 </defs>
 <rect id="base-center" class="ColorScheme-Text" x="8" y="8" width="8" height="8" fill="currentColor" opacity=".04"/>
 <path id="base-topleft" class="ColorScheme-Text" d="m7.9995 3.08e-4v7.9999h-7.9995c0-7.0002 0-8.0002 7.9995-7.9999z" fill="currentColor" opacity=".04"/>
 <rect id="base-top" class="ColorScheme-Text" x="8" width="8" height="8" fill="currentColor" opacity=".04"/>
 <path id="base-topright" class="ColorScheme-Text" d="M 15.99901,3.08e-4 C 24,0 24,2 23.998517,8.0002052 H 15.99901 Z" fill="currentColor" opacity=".04"/>
 <rect id="base-left" class="ColorScheme-Text" y="8" width="8" height="8" fill="currentColor" opacity=".04"/>
 <rect id="base-right" class="ColorScheme-Text" x="16" y="8" width="8" height="8" fill="currentColor" opacity=".04"/>
 <g id="base-bottom" transform="matrix(.24998 0 0 3.9999 -95.994 -423.99)" fill="currentColor">
  <path class="ColorScheme-Text" transform="matrix(16,0,0,1,-5936,5)" d="m397 105v1.75h2v-1.75z" opacity=".04"/>
  <path class="ColorScheme-Text" d="m416 112h32v-0.25h-32z" opacity=".26"/>
 </g>
 <g id="base-bottomright" transform="matrix(3.9998 0 0 3.9999 -1579.9 -403.99)" fill="currentColor">
  <path class="ColorScheme-Text" d="m399 105v1.75h2v-1.75z" opacity=".04"/>
  <path class="ColorScheme-Text" d="m399 106.75h2v0.25h-2z" opacity=".26"/>
 </g>
 <g id="base-bottomleft" transform="matrix(3.9998 0 0 3.9999 -1579.9 -403.99)" fill="currentColor">
  <path class="ColorScheme-Text" d="m395 105v1.75h2v-1.75z" opacity=".04"/>
  <path class="ColorScheme-Text" d="m395 106.75h2v0.25h-2z" opacity=".26"/>
 </g>
 <rect id="hover-center" x="40" y="8" width="8" height="8" opacity=".001"/>
 <path id="hover-topleft" d="m39.999 2.68e-4v7.9999h-7.9999s0-7.9999 7.9999-7.9999z" opacity=".001"/>
 <rect id="hover-top" x="40" width="8" height="8" opacity=".001"/>
 <path id="hover-topright" d="m47.999 2.68e-4c7.9999 0 7.9999 7.9999 7.9999 7.9999h-7.9999z" opacity=".001"/>
 <rect id="hover-left" x="32" y="8" width="8" height="8" opacity=".001"/>
 <rect id="hover-right" x="48" y="8" width="8" height="8" opacity=".001"/>
 <g id="hover-bottom" transform="matrix(.25 0 0 3.9999 -63.999 -423.99)">
  <path transform="matrix(16,0,0,1,-5936,5)" d="m397 105v2h2v-2z" opacity=".001"/>
  <path class="ColorScheme-Highlight" d="m416 112h32v-0.5h-32z" fill="currentColor"/>
 </g>
 <g id="hover-bottomright" transform="matrix(3.9999 0 0 3.9999 -1548 -403.99)">
  <path d="m399 105v2h2v-2z" opacity=".001"/>
  <path class="ColorScheme-Highlight" d="m399 106.5h0.49987v0.5h-0.49987z" fill="currentColor"/>
 </g>
 <g id="hover-bottomleft" transform="matrix(3.9999 0 0 3.9999 -1548 -403.99)">
  <path d="m395 105v2h2v-2z" opacity=".001"/>
  <path class="ColorScheme-Highlight" d="m396.5 106.5h0.50016v0.5h-0.50016z" fill="currentColor"/>
 </g>
 <rect id="focus-center" x="72" y="8" width="8" height="8" opacity=".001"/>
 <path id="focus-topleft" d="m71.999 3.08e-4v7.9999h-7.9999s0-7.9999 7.9999-7.9999z" opacity=".001"/>
 <rect id="focus-top" x="72" width="8" height="8" opacity=".001"/>
 <path id="focus-topright" d="m79.999 3.08e-4c7.9999 0 7.9999 7.9999 7.9999 7.9999h-7.9999z" opacity=".001"/>
 <rect id="focus-left" x="64" y="8" width="8" height="8" opacity=".001"/>
 <rect id="focus-right" x="80" y="8" width="8" height="8" opacity=".001"/>
 <g id="focus-bottom" transform="matrix(.25 0 0 3.9999 -32 -423.99)">
  <path transform="matrix(16,0,0,1,-5936,5)" d="m397 105v2h2v-2z" opacity=".001"/>
  <path class="ColorScheme-Highlight" d="m416 112h32v-0.5h-32z" fill="currentColor"/>
 </g>
 <g id="focus-bottomright" transform="matrix(3.9999 0 0 3.9999 -1516 -403.99)">
  <path d="m399 105v2h2v-2z" opacity=".001"/>
  <path class="ColorScheme-Highlight" d="m399 106.5h0.49998v0.5h-0.49998z" fill="currentColor"/>
 </g>
 <g id="focus-bottomleft" transform="matrix(3.9999 0 0 3.9999 -1516 -403.99)">
  <path d="m395 105v2h2v-2z" opacity=".001"/>
  <path class="ColorScheme-Highlight" d="m396.5 106.5h0.50006v0.5h-0.50006z" fill="currentColor"/>
 </g>
 <rect id="hover-hint-bottom-margin" x="43" y="23.9" width="2" height=".1" fill="#f0f"/>
 <rect id="hover-hint-top-margin" x="43" width="2" height="6" fill="#f0f"/>
 <rect id="hover-hint-left-margin" transform="rotate(-90)" x="-13" y="32" width="2" height="6" fill="#f0f"/>
 <rect id="hover-hint-right-margin" transform="rotate(-90)" x="-13" y="50" width="2" height="6" fill="#f0f"/>
 <rect id="focus-hint-bottom-margin" x="75" y="23.9" width="2" height=".1" fill="#f0f"/>
 <rect id="focus-hint-top-margin" x="75" width="2" height="6" fill="#f0f"/>
 <rect id="focus-hint-left-margin" transform="rotate(-90)" x="-13" y="64" width="2" height="6" fill="#f0f"/>
 <rect id="focus-hint-right-margin" transform="rotate(-90)" x="-13" y="82" width="2" height="6" fill="#f0f"/>
 <rect id="base-hint-top-margin" x="11" width="2" height="6" fill="#f0f"/>
 <rect id="base-hint-right-margin" transform="rotate(-90)" x="-13" y="18" width="2" height="6" fill="#f0f"/>
 <rect id="base-hint-left-margin" transform="rotate(-90)" x="-13" width="2" height="6" fill="#f0f"/>
 <rect id="base-hint-bottom-margin" x="11" y="18" width="2" height="6" fill="#f0f"/>
</svg>
