<?xml version="1.0" encoding="UTF-8"?>
<svg width="102" height="34" version="1.1" xmlns="http://www.w3.org/2000/svg">
 <defs id="materia">
  <style id="current-color-scheme" type="text/css">.ColorScheme-Background {color:#181818; } .ColorScheme-ButtonBackground { color:#343434; } .ColorScheme-Highlight { color:#4285f4; } .ColorScheme-Text { color:#dfdfdf; } .ColorScheme-ViewBackground { color:#242424; } .ColorScheme-NegativeText { color:#f44336; } .ColorScheme-PositiveText { color:#4caf50; } .ColorScheme-NeutralText { color:#ff9800; }</style>
 </defs>
 <path id="hover-center" class="ColorScheme-Text" d="m62 6v22h-22v-22z" fill="currentColor" opacity=".08"/>
 <g id="hover-left" transform="translate(34)">
  <path d="m0 6h6v22h-6z" opacity=".001"/>
  <path class="ColorScheme-Text" d="m2 6h4v22h-4z" fill="currentColor" opacity=".08"/>
 </g>
 <g id="hover-topleft" transform="translate(34)">
  <path d="m0 0h6v6h-6z" opacity=".001"/>
  <path class="ColorScheme-Text" d="m6 2v4h-4c0-4 4-4 4-4z" fill="currentColor" opacity=".08"/>
 </g>
 <g id="hover-right" transform="translate(34)">
  <path d="m28 6h6v22h-6z" opacity=".001"/>
  <path class="ColorScheme-Text" d="m28 6h4v22h-4z" fill="currentColor" opacity=".08"/>
 </g>
 <g id="hover-top" transform="translate(34)">
  <path d="m28 0v6h-22v-6z" opacity=".001"/>
  <path class="ColorScheme-Text" d="m28 2v4h-22v-4z" fill="currentColor" opacity=".08"/>
 </g>
 <g id="hover-bottom" transform="translate(34)">
  <path d="m28 28v6h-22v-6z" opacity=".001"/>
  <path class="ColorScheme-Text" d="m28 28v4h-22v-4z" fill="currentColor" opacity=".08"/>
 </g>
 <g id="hover-bottomright" transform="translate(34)">
  <path d="m28 28h6v6h-6z" opacity=".001"/>
  <path class="ColorScheme-Text" d="m28 32v-4h4c0 4-4 4-4 4z" fill="currentColor" opacity=".08"/>
 </g>
 <g id="hover-topright" transform="translate(34)">
  <path d="m28 0h6v6h-6z" opacity=".001"/>
  <path class="ColorScheme-Text" d="m28 2v4h4c0-4-4-4-4-4z" fill="currentColor" opacity=".08"/>
 </g>
 <g id="hover-bottomleft" transform="translate(34)">
  <path d="m0 28h6v6h-6z" opacity=".001"/>
  <path class="ColorScheme-Text" d="m6 32v-4h-4c0 4 4 4 4 4z" fill="currentColor" opacity=".08"/>
 </g>
 <path id="normal-center" d="m28 6v22h-22v-22z" fill="transparent"/>
 <g id="normal-left">
  <path d="m0 6h6v22h-6z" opacity=".001"/>
  <path d="m2 6h4v22h-4z" fill="transparent"/>
 </g>
 <g id="normal-topleft">
  <path d="m0 0h6v6h-6z" opacity=".001"/>
  <path d="m6 2v4h-4c0-4 4-4 4-4z" fill="transparent"/>
 </g>
 <g id="normal-right">
  <path d="m28 6h6v22h-6z" opacity=".001"/>
  <path d="m28 6h4v22h-4z" fill="transparent"/>
 </g>
 <g id="normal-top">
  <path d="m28 0v6h-22v-6z" opacity=".001"/>
  <path d="m28 2v4h-22v-4z" fill="transparent"/>
 </g>
 <g id="normal-bottom">
  <path d="m28 28v6h-22v-6z" opacity=".001"/>
  <path d="m28 28v4h-22v-4z" fill="transparent"/>
 </g>
 <g id="normal-bottomright">
  <path d="m28 28h6v6h-6z" opacity=".001"/>
  <path d="m28 32v-4h4c0 4-4 4-4 4z" fill="transparent"/>
 </g>
 <g id="normal-topright">
  <path d="m28 0h6v6h-6z" opacity=".001"/>
  <path d="m28 2v4h4c0-4-4-4-4-4z" fill="transparent"/>
 </g>
 <g id="normal-bottomleft">
  <path d="m0 28h6v6h-6z" opacity=".001"/>
  <path d="m6 32v-4h-4c0 4 4 4 4 4z" fill="transparent"/>
 </g>
 <path id="pressed-center" class="ColorScheme-Text" d="m96 6v22h-22v-22z" fill="currentColor" opacity=".16"/>
 <g id="pressed-left" transform="translate(68)">
  <path d="m0 6h6v22h-6z" opacity=".001"/>
  <path class="ColorScheme-Text" d="m2 6h4v22h-4z" fill="currentColor" opacity=".16"/>
 </g>
 <g id="pressed-topleft" transform="translate(68)">
  <path d="m0 0h6v6h-6z" opacity=".001"/>
  <path class="ColorScheme-Text" d="m6 2v4h-4c0-4 4-4 4-4z" fill="currentColor" opacity=".16"/>
 </g>
 <g id="pressed-right" transform="translate(68)">
  <path d="m28 6h6v22h-6z" opacity=".001"/>
  <path class="ColorScheme-Text" d="m28 6h4v22h-4z" fill="currentColor" opacity=".16"/>
 </g>
 <g id="pressed-top" transform="translate(68)">
  <path d="m28 0v6h-22v-6z" opacity=".001"/>
  <path class="ColorScheme-Text" d="m28 2v4h-22v-4z" fill="currentColor" opacity=".16"/>
 </g>
 <g id="pressed-bottom" transform="translate(68)">
  <path d="m28 28v6h-22v-6z" opacity=".001"/>
  <path class="ColorScheme-Text" d="m28 28v4h-22v-4z" fill="currentColor" opacity=".16"/>
 </g>
 <g id="pressed-bottomright" transform="translate(68)">
  <path d="m28 28h6v6h-6z" opacity=".001"/>
  <path class="ColorScheme-Text" d="m28 32v-4h4c0 4-4 4-4 4z" fill="currentColor" opacity=".16"/>
 </g>
 <g id="pressed-topright" transform="translate(68)">
  <path d="m28 0h6v6h-6z" opacity=".001"/>
  <path class="ColorScheme-Text" d="m28 2v4h4c0-4-4-4-4-4z" fill="currentColor" opacity=".16"/>
 </g>
 <g id="pressed-bottomleft" transform="translate(68)">
  <path d="m0 28h6v6h-6z" opacity=".001"/>
  <path class="ColorScheme-Text" d="m6 32v-4h-4c0 4 4 4 4 4z" fill="currentColor" opacity=".16"/>
 </g>
 <path id="normal-hint-top-margin" d="m16 0h2v6h-2z" fill="#f0f"/>
 <path id="normal-hint-bottom-margin" d="m16 28h2v6h-2z" fill="#f0f"/>
 <path id="normal-hint-left-margin" d="m0 16h6v2h-6z" fill="#f0f"/>
 <path id="normal-hint-right-margin" d="m28 16h6v2h-6z" fill="#f0f"/>
 <path id="hover-hint-top-margin" d="m50 0h2v6h-2z" fill="#f0f"/>
 <path id="hover-hint-bottom-margin" d="m50 28h2v6h-2z" fill="#f0f"/>
 <path id="hover-hint-left-margin" d="m34 16h6v2h-6z" fill="#f0f"/>
 <path id="hover-hint-right-margin" d="m62 16h6v2h-6z" fill="#f0f"/>
 <path id="pressed-hint-top-margin" d="m84 0h2v6h-2z" fill="#f0f"/>
 <path id="pressed-hint-bottom-margin" d="m84 28h2v6h-2z" fill="#f0f"/>
 <path id="pressed-hint-left-margin" d="m68 16h6v2h-6z" fill="#f0f"/>
 <path id="pressed-hint-right-margin" d="m96 16h6v2h-6z" fill="#f0f"/>
</svg>
