<?xml version="1.0" encoding="UTF-8"?>
<svg width="13" height="23" version="1" xmlns="http://www.w3.org/2000/svg">
 <defs id="materia">
  <style id="current-color-scheme" type="text/css">.ColorScheme-Background {color:#181818; } .ColorScheme-ButtonBackground { color:#343434; } .ColorScheme-Highlight { color:#4285f4; } .ColorScheme-Text { color:#dfdfdf; } .ColorScheme-ViewBackground { color:#242424; } .ColorScheme-NegativeText { color:#f44336; } .ColorScheme-PositiveText { color:#4caf50; } .ColorScheme-NeutralText { color:#ff9800; }</style>
 </defs>
 <path id="normal-left" class="ColorScheme-Text" d="m9.5e-6 0.999v5h1v-5z" fill="currentColor" opacity=".08"/>
 <path id="normal-right" class="ColorScheme-Text" d="m13 0.999v5h-1v-5z" fill="currentColor" opacity=".08"/>
 <rect id="normal-bottom" class="ColorScheme-Text" x="1" y="6" width="11" height="1" fill="currentColor" opacity=".08"/>
 <path id="normal-top" class="ColorScheme-Text" d="m1-1e-3v1h11v-1z" fill="currentColor" opacity=".08"/>
 <path id="hover-left" class="ColorScheme-Highlight" d="m9.5e-6 8.999v5h1v-5z" fill="currentColor" opacity=".5"/>
 <path id="hover-right" class="ColorScheme-Highlight" d="m13 8.999v5h-1v-5z" fill="currentColor" opacity=".5"/>
 <path id="hover-top" class="ColorScheme-Highlight" d="m1 7.999v0.99875h11v-0.99875z" fill="currentColor" opacity=".5"/>
 <path id="active-left" class="ColorScheme-Highlight" d="m0 16.999v5h1v-5z" fill="currentColor" opacity=".8"/>
 <path id="active-right" class="ColorScheme-Highlight" d="m13 16.999v5h-1v-5z" fill="currentColor" opacity=".8"/>
 <rect id="active-bottom" class="ColorScheme-Highlight" x="1" y="22" width="11" height="1.001" fill="currentColor" opacity=".8"/>
 <path id="active-top" class="ColorScheme-Highlight" d="m1 15.999v1h11v-1z" fill="currentColor" opacity=".8"/>
 <rect id="normal-center" class="ColorScheme-Text" transform="scale(1,-1)" x="1" y="-6" width="11" height="5" fill="currentColor" opacity=".08"/>
 <rect id="active-center" class="ColorScheme-Highlight" transform="scale(1,-1)" x="1" y="-22" width="11" height="5" fill="currentColor" opacity=".8"/>
 <rect id="hover-center" class="ColorScheme-Highlight" transform="scale(1,-1)" x="1" y="-14" width="11" height="5" fill="currentColor" opacity=".5"/>
 <g id="hover-bottom" transform="matrix(2.2 0 0 .99875 -1.2 -2.4479)">
  <rect class="ColorScheme-Highlight" x="1" y="16.47" width="5" height="1.001" fill="currentColor" opacity=".5"/>
 </g>
 <path id="hover-bottomleft" class="ColorScheme-Highlight" d="m9.5e-6 13.999c0 0.55228 0.44772 1 1 1v-1z" fill="currentColor" opacity=".5"/>
 <path id="hover-topleft" class="ColorScheme-Highlight" d="m9.5e-6 8.999c0-0.55228 0.44772-1 1-1v1z" fill="currentColor" opacity=".5"/>
 <path id="hover-topright" class="ColorScheme-Highlight" d="m13 8.999c0-0.55228-0.44772-1-1-1v1z" fill="currentColor" opacity=".5"/>
 <path id="hover-bottomright" class="ColorScheme-Highlight" d="m13 13.999c0 0.55228-0.44772 1-1 1v-1z" fill="currentColor" opacity=".5"/>
 <path id="normal-bottomleft" class="ColorScheme-Text" d="m9.5e-6 5.999c0 0.55228 0.44772 1 1 1v-1z" fill="currentColor" opacity=".08"/>
 <path id="normal-topleft" class="ColorScheme-Text" d="m9.5e-6 0.999c0-0.55228 0.44772-1 1-1v1z" fill="currentColor" opacity=".08"/>
 <path id="normal-topright" class="ColorScheme-Text" d="m13 0.999c0-0.55228-0.44772-1-1-1v1z" fill="currentColor" opacity=".08"/>
 <path id="normal-bottomright" class="ColorScheme-Text" d="m13 5.999c0 0.55228-0.44772 1-1 1v-1z" fill="currentColor" opacity=".08"/>
 <path id="active-bottomleft" class="ColorScheme-Highlight" d="m9.5e-6 21.999c0 0.55228 0.44772 1 1 1v-1z" fill="currentColor" opacity=".8"/>
 <path id="active-topleft" class="ColorScheme-Highlight" d="m9.5e-6 16.999c0-0.55228 0.44772-1 1-1v1z" fill="currentColor" opacity=".8"/>
 <path id="active-topright" class="ColorScheme-Highlight" d="m13 16.999c0-0.55228-0.44772-1-1-1v1z" fill="currentColor" opacity=".8"/>
 <path id="active-bottomright" class="ColorScheme-Highlight" d="m13 21.999c0 0.55228-0.44772 1-1 1v-1z" fill="currentColor" opacity=".8"/>
</svg>
