<?xml version="1.0" encoding="UTF-8"?>
<svg width="76" height="66" version="1.1" xmlns="http://www.w3.org/2000/svg">
 <defs id="materia">
  <style id="current-color-scheme" type="text/css">.ColorScheme-Background {color:#181818; } .ColorScheme-ButtonBackground { color:#343434; } .ColorScheme-Highlight { color:#4285f4; } .ColorScheme-Text { color:#dfdfdf; } .ColorScheme-ViewBackground { color:#242424; } .ColorScheme-NegativeText { color:#f44336; } .ColorScheme-PositiveText { color:#4caf50; } .ColorScheme-NeutralText { color:#ff9800; }</style>
 </defs>
 <rect id="hint-tile-center" y="36" width="2" height="2" fill="#f0f"/>
 <path id="groove-bottomright" class="ColorScheme-Text" d="m7 53v1h1v-1z" fill="currentColor" opacity=".3"/>
 <path id="groove-right" class="ColorScheme-Text" d="m7 51v1h1v-1z" fill="currentColor" opacity=".3"/>
 <path id="groove-topright" class="ColorScheme-Text" d="m7 49v1h1v-1z" fill="currentColor" opacity=".3"/>
 <path id="groove-bottomleft" class="ColorScheme-Text" d="m3 53v1h1v-1z" fill="currentColor" opacity=".3"/>
 <path id="groove-left" class="ColorScheme-Text" d="m3 51v1h1v-1z" fill="currentColor" opacity=".3"/>
 <path id="groove-topleft" class="ColorScheme-Text" d="m4 49h-1v1h1z" fill="currentColor" opacity=".3"/>
 <path id="groove-bottom" class="ColorScheme-Text" d="m5 53v1h1v-1z" fill="currentColor" opacity=".3"/>
 <path id="groove-center" class="ColorScheme-Text" d="m6 51h-1v1h1z" fill="currentColor" opacity=".3"/>
 <path id="groove-top" class="ColorScheme-Text" d="m5 49v1h1v-1z" fill="currentColor" opacity=".3"/>
 <path id="groove-highlight-bottomright" class="ColorScheme-Highlight" d="m7 62v1h1v-1z" fill="currentColor"/>
 <path id="groove-highlight-right" class="ColorScheme-Highlight" d="m7 60v1h1v-1z" fill="currentColor"/>
 <path id="groove-highlight-topright" class="ColorScheme-Highlight" d="m7 58v1h1v-1z" fill="currentColor"/>
 <path id="groove-highlight-bottomleft" class="ColorScheme-Highlight" d="m3 62v1h1v-1z" fill="currentColor"/>
 <path id="groove-highlight-left" class="ColorScheme-Highlight" d="m3 60v1h1v-1z" fill="currentColor"/>
 <path id="groove-highlight-topleft" class="ColorScheme-Highlight" d="m4 58h-1v1h1z" fill="currentColor"/>
 <path id="groove-highlight-bottom" class="ColorScheme-Highlight" d="m5 62v1h1v-1z" fill="currentColor"/>
 <path id="groove-highlight-center" class="ColorScheme-Highlight" d="m6 60h-1v1h1z" fill="currentColor"/>
 <path id="groove-highlight-top" class="ColorScheme-Highlight" d="m5 58v1h1v-1z" fill="currentColor"/>
 <g id="horizontal-slider-handle" transform="matrix(.6875 0 0 .6875 -7.1875 41.25)">
  <rect x="25" y="4" width="32" height="32" opacity="0"/>
  <circle class="ColorScheme-Highlight" cx="41" cy="20" r="7.273" fill="currentColor"/>
 </g>
 <g id="horizontal-slider-hover" transform="matrix(.6875 0 0 .6875 14.812 41.25)">
  <rect x="25" y="4" width="32" height="32" opacity="0"/>
  <circle class="ColorScheme-Highlight" cx="41" cy="20" r="16" fill="currentColor" opacity=".2"/>
  <circle class="ColorScheme-Highlight" cx="41" cy="20" r="7.273" fill="currentColor"/>
 </g>
 <g id="horizontal-slider-focus" transform="matrix(.6875 0 0 .6875 36.812 41.25)">
  <rect x="25" y="4" width="32" height="32" opacity="0"/>
  <circle class="ColorScheme-Highlight" cx="41" cy="20" r="16" fill="currentColor" opacity=".3"/>
  <circle class="ColorScheme-Highlight" cx="41" cy="20" r="7.273" fill="currentColor"/>
 </g>
 <g id="vertical-slider-handle" transform="matrix(.6875 0 0 .6875 -7.1875 19.25)">
  <rect x="25" y="4" width="32" height="32" opacity="0"/>
  <circle class="ColorScheme-Highlight" cx="41" cy="20" r="7.273" fill="currentColor"/>
 </g>
 <g id="vertical-slider-hover" transform="matrix(.6875 0 0 .6875 14.812 19.25)">
  <rect x="25" y="4" width="32" height="32" opacity="0"/>
  <circle class="ColorScheme-Highlight" cx="41" cy="20" r="16" fill="currentColor" opacity=".2"/>
  <circle class="ColorScheme-Highlight" cx="41" cy="20" r="7.273" fill="currentColor"/>
 </g>
 <g id="vertical-slider-focus" transform="matrix(.6875 0 0 .6875 36.812 19.25)">
  <rect x="25" y="4" width="32" height="32" opacity="0"/>
  <circle class="ColorScheme-Highlight" cx="41" cy="20" r="16" fill="currentColor" opacity=".3"/>
  <circle class="ColorScheme-Highlight" cx="41" cy="20" r="7.273" fill="currentColor"/>
 </g>
 <circle id="hint-handle-size" cx="65" cy="11" r="11" fill="#f0f"/>
</svg>
