<?xml version="1.0" encoding="UTF-8"?>
<svg width="90" height="55" version="1.0" xmlns="http://www.w3.org/2000/svg" xmlns:xlink="http://www.w3.org/1999/xlink">
 <defs id="materia">
  <radialGradient id="radialGradient4203" cx="-31.636" cy="8.519" r="8.182" gradientTransform="matrix(0 1.5888 -1.1 0 20.371 94.264)" gradientUnits="userSpaceOnUse" xlink:href="#linearGradient4209"/>
  <linearGradient id="linearGradient4209">
   <stop offset="0"/>
   <stop stop-opacity="0" offset="1"/>
  </linearGradient>
  <style id="current-color-scheme" type="text/css">.ColorScheme-Background {color:#181818; } .ColorScheme-ButtonBackground { color:#343434; } .ColorScheme-Highlight { color:#4285f4; } .ColorScheme-Text { color:#dfdfdf; } .ColorScheme-ViewBackground { color:#242424; } .ColorScheme-NegativeText { color:#f44336; } .ColorScheme-PositiveText { color:#4caf50; } .ColorScheme-NeutralText { color:#ff9800; }</style>
 </defs>
 <g id="handle" transform="matrix(1.1,0,0,1.1,46.299,35.101)">
  <rect x="-42.09" y="-1.91" width="20" height="20" opacity=".001"/>
  <path transform="matrix(.90909 0 0 .90909 -42.09 -31.001)" d="m19.996 43.252a9 9 0 0 1-8.9961 8.748 9 9 0 0 1-8.9961-8.7383 9 9 0 0 0-0.0039062 0.23828 9 9 0 0 0 9 9 9 9 0 0 0 9-9 9 9 0 0 0-0.0039-0.24805z" fill="url(#radialGradient4203)"/>
  <path class="ColorScheme-ButtonBackground" transform="matrix(1.0227 0 0 1.0227 .63712 -.091818)" d="m-24 8a8 8 0 0 1-8 8 8 8 0 0 1-8-8 8 8 0 0 1 8-8 8 8 0 0 1 8 8z" fill="currentColor"/>
  <path transform="matrix(.90909 0 0 .90909 -93.908 -11.91)" d="m68 13a9 9 0 0 0-9 9 9 9 0 0 0 0.0098 0.28711 9 9 0 0 1 8.9902-8.7871 9 9 0 0 1 8.9902 8.7129 9 9 0 0 0 0.009766-0.21289 9 9 0 0 0-9-9z" fill="#fff" opacity=".05"/>
 </g>
 <g id="handle-hover" transform="matrix(1.1,0,0,1.1,68.299,35.101)">
  <rect x="-42.09" y="-1.91" width="20" height="20" opacity=".001"/>
  <path transform="matrix(.90909 0 0 .90909 -42.09 -31.001)" d="m19.996 43.252a9 9 0 0 1-8.9961 8.748 9 9 0 0 1-8.9961-8.7383 9 9 0 0 0-0.0039062 0.23828 9 9 0 0 0 9 9 9 9 0 0 0 9-9 9 9 0 0 0-0.0039-0.24805z" fill="url(#radialGradient4203)"/>
  <path class="ColorScheme-Text" transform="matrix(1.0227 0 0 1.0227 .63712 -.091818)" d="m-24 8a8 8 0 0 1-8 8 8 8 0 0 1-8-8 8 8 0 0 1 8-8 8 8 0 0 1 8 8z" fill="currentColor" opacity=".08"/>
  <path transform="matrix(.90909 0 0 .90909 -93.908 -11.91)" d="m68 13a9 9 0 0 0-9 9 9 9 0 0 0 0.0098 0.28711 9 9 0 0 1 8.9902-8.7871 9 9 0 0 1 8.9902 8.7129 9 9 0 0 0 0.009766-0.21289 9 9 0 0 0-9-9z" fill="#fff" opacity=".05"/>
 </g>
 <g id="handle-focus" transform="matrix(1.1,0,0,1.1,90.299,35.101)">
  <rect x="-42.09" y="-1.91" width="20" height="20" opacity=".001"/>
  <path transform="matrix(.90909 0 0 .90909 -42.09 -31.001)" d="m19.996 43.252a9 9 0 0 1-8.9961 8.748 9 9 0 0 1-8.9961-8.7383 9 9 0 0 0-0.0039062 0.23828 9 9 0 0 0 9 9 9 9 0 0 0 9-9 9 9 0 0 0-0.0039-0.24805z" fill="url(#radialGradient4203)"/>
  <path class="ColorScheme-Text" transform="matrix(1.0227 0 0 1.0227 .63712 -.091818)" d="m-24 8a8 8 0 0 1-8 8 8 8 0 0 1-8-8 8 8 0 0 1 8-8 8 8 0 0 1 8 8z" fill="currentColor" opacity=".16"/>
  <path transform="matrix(.90909 0 0 .90909 -93.908 -11.91)" d="m68 13a9 9 0 0 0-9 9 9 9 0 0 0 0.0098 0.28711 9 9 0 0 1 8.9902-8.7871 9 9 0 0 1 8.9902 8.7129 9 9 0 0 0 0.009766-0.21289 9 9 0 0 0-9-9z" fill="#fff" opacity=".05"/>
 </g>
 <g id="handle-shadow" transform="matrix(1.1 0 0 1.1 112.3 35.101)">
  <rect x="-42.09" y="-1.91" width="20" height="20" opacity=".001"/>
 </g>
 <path id="groove-bottomright" class="ColorScheme-Text" d="m22 22v11c11 0 11-11 11-11z" fill="currentColor" opacity=".3"/>
 <path id="groove-right" class="ColorScheme-Text" d="m22 11v11h11v-11z" fill="currentColor" opacity=".3"/>
 <path id="groove-topright" class="ColorScheme-Text" d="m22-3.6716e-8v11h11c0-11-11-11-11-11z" fill="currentColor" opacity=".3"/>
 <path id="groove-bottomleft" class="ColorScheme-Text" d="m8.3215e-7 22s0 11 11 11v-11z" fill="currentColor" opacity=".3"/>
 <path id="groove-left" class="ColorScheme-Text" d="m8.3215e-7 11v11h11v-11z" fill="currentColor" opacity=".3"/>
 <path id="groove-topleft" class="ColorScheme-Text" d="m11-3.6716e-8s-11 0-11 11h11z" fill="currentColor" opacity=".3"/>
 <path id="groove-bottom" class="ColorScheme-Text" d="m11 22v11h11v-11z" fill="currentColor" opacity=".3"/>
 <path id="groove-center" class="ColorScheme-Text" d="m22 11h-11v11h11z" fill="currentColor" opacity=".3"/>
 <path id="groove-top" class="ColorScheme-Text" d="m11-3.6716e-8v11h11v-11z" fill="currentColor" opacity=".3"/>
 <path id="groove-highlight-bottomright" class="ColorScheme-Highlight" d="m55 22v11c11 0 11-11 11-11z" fill="currentColor"/>
 <path id="groove-highlight-right" class="ColorScheme-Highlight" d="m55 11v11h11v-11z" fill="currentColor"/>
 <path id="groove-highlight-topright" class="ColorScheme-Highlight" d="m55-3.6716e-8v11h11s0-11-11-11z" fill="currentColor"/>
 <path id="groove-highlight-bottomleft" class="ColorScheme-Highlight" d="m33 22s0 11 11 11v-11z" fill="currentColor"/>
 <path id="groove-highlight-left" class="ColorScheme-Highlight" d="m33 11v11h11v-11z" fill="currentColor"/>
 <path id="groove-highlight-topleft" class="ColorScheme-Highlight" d="m44-3.6716e-8c-11 0-11 11-11 11h11z" fill="currentColor"/>
 <path id="groove-highlight-bottom" class="ColorScheme-Highlight" d="m44 22v11h11v-11z" fill="currentColor"/>
 <path id="groove-highlight-center" class="ColorScheme-Highlight" d="m55 11h-11v11h11z" fill="currentColor"/>
 <path id="groove-highlight-top" class="ColorScheme-Highlight" d="m44-3.6716e-8v11h11v-11z" fill="currentColor"/>
 <rect id="hint-handle-size" x="66" y="15" width="24" height="18" fill="#f0f"/>
</svg>
