<?xml version="1.0" encoding="UTF-8"?>
<svg width="109" height="125" version="1" xmlns="http://www.w3.org/2000/svg">
 <defs id="materia">
  <style id="current-color-scheme" type="text/css">.ColorScheme-Background {color:#181818; } .ColorScheme-ButtonBackground { color:#343434; } .ColorScheme-Highlight { color:#4285f4; } .ColorScheme-Text { color:#dfdfdf; } .ColorScheme-ViewBackground { color:#242424; } .ColorScheme-NegativeText { color:#f44336; } .ColorScheme-PositiveText { color:#4caf50; } .ColorScheme-NeutralText { color:#ff9800; }</style>
 </defs>
 <g id="minimized-bottom">
  <rect x="3" y="122" width="14" height="3" opacity=".001"/>
  <path class="ColorScheme-Text" d="m3 122v2h14v-2z" fill="currentColor" opacity=".1"/>
 </g>
 <g id="minimized-left" transform="translate(-1,42)">
  <rect x="1" y="66" width="3" height="14" opacity=".001"/>
  <path class="ColorScheme-Text" d="m2 66v14h2v-14h-1z" fill="currentColor" opacity=".1"/>
 </g>
 <g id="minimized-right" transform="translate(-1,42)">
  <rect x="18" y="66" width="3" height="14" opacity=".001"/>
  <path class="ColorScheme-Text" d="m18 66v14h2v-14h-1z" fill="currentColor" opacity=".1"/>
 </g>
 <g id="minimized-center" transform="matrix(.51852 0 0 1.0769 .40741 103.58)">
  <rect class="ColorScheme-Text" x="5" y="4.1" width="27" height="13" fill="currentColor" opacity=".1"/>
 </g>
 <g id="minimized-topleft" transform="translate(-1,42)">
  <rect x="1" y="63" width="3" height="3" opacity=".001"/>
  <path class="ColorScheme-Text" d="m3 64h-1v2h2v-2z" fill="currentColor" opacity=".1"/>
 </g>
 <g id="minimized-topright" transform="translate(-1,42)">
  <rect x="18" y="63" width="3" height="3" opacity=".001"/>
  <path class="ColorScheme-Text" d="m18 64v2h2v-1-1z" fill="currentColor" opacity=".1"/>
 </g>
 <g id="minimized-bottomleft" transform="translate(-1,42)">
  <rect x="1" y="80" width="3" height="3" opacity=".001"/>
  <path class="ColorScheme-Text" d="m2 80v1s0 1 1 1h1v-2h-1z" fill="currentColor" opacity=".1"/>
 </g>
 <g id="minimized-bottomright" transform="translate(-1,42)">
  <rect x="18" y="80" width="3" height="3" opacity=".001"/>
  <path class="ColorScheme-Text" d="m18 80v2h1s1 0 1-1v-1h-1z" fill="currentColor" opacity=".1"/>
 </g>
 <g id="attention-bottom">
  <rect x="3" y="101" width="14" height="3" opacity=".001"/>
  <path class="ColorScheme-NegativeText" d="m3 101v2h14v-2z" fill="currentColor" opacity=".12"/>
 </g>
 <g id="attention-left" transform="translate(-1,21)">
  <rect x="1" y="66" width="3" height="14" opacity=".001"/>
  <path class="ColorScheme-NegativeText" d="m2 66v14h2v-14h-1z" fill="currentColor" opacity=".12"/>
 </g>
 <g id="attention-right" transform="translate(-1,21)">
  <rect x="18" y="66" width="3" height="14" opacity=".001"/>
  <path class="ColorScheme-NegativeText" d="m18 66v14h2v-14h-1z" fill="currentColor" opacity=".12"/>
 </g>
 <g id="attention-center" transform="matrix(.51852 0 0 1.0769 .40741 82.585)">
  <rect class="ColorScheme-NegativeText" x="5" y="4.1" width="27" height="13" fill="currentColor" opacity=".12"/>
 </g>
 <g id="attention-top" transform="translate(-1,21)">
  <rect x="4" y="63" width="14" height="3" opacity=".001"/>
  <g transform="matrix(.53846 0 0 -1 1.3077 93)">
   <path class="ColorScheme-NegativeText" transform="matrix(1,0,0,-1,0,93)" d="m5 64v2h26v-2z" fill="currentColor"/>
  </g>
 </g>
 <g id="attention-topleft" transform="translate(-1,21)">
  <rect x="1" y="63" width="3" height="3" opacity=".001"/>
  <path class="ColorScheme-NegativeText" d="m3 64h-1v2h2v-2z" fill="currentColor"/>
 </g>
 <g id="attention-topright" transform="translate(-1,21)">
  <rect x="18" y="63" width="3" height="3" opacity=".001"/>
  <path class="ColorScheme-NegativeText" d="m18 64v2h2v-1-1z" fill="currentColor"/>
 </g>
 <g id="attention-bottomleft" transform="translate(-1,21)">
  <rect x="1" y="80" width="3" height="3" opacity=".001"/>
  <path class="ColorScheme-NegativeText" d="m2 80v1s0 1 1 1h1v-2h-1z" fill="currentColor" opacity=".12"/>
 </g>
 <g id="attention-bottomright" transform="translate(-1,21)">
  <rect x="18" y="80" width="3" height="3" opacity=".001"/>
  <path class="ColorScheme-NegativeText" d="m18 80v2h1s1 0 1-1v-1h-1z" fill="currentColor" opacity=".12"/>
 </g>
 <g id="hover-bottom">
  <rect x="3" y="80" width="14" height="3" opacity=".001"/>
  <path class="ColorScheme-Text" d="m3 80v2h14v-2z" fill="currentColor" opacity=".1"/>
 </g>
 <g id="hover-left" transform="translate(-1)">
  <rect x="1" y="66" width="3" height="14" opacity=".001"/>
  <path class="ColorScheme-Text" d="m2 66v14h2v-14h-1z" fill="currentColor" opacity=".1"/>
 </g>
 <g id="hover-right" transform="translate(-1)">
  <rect x="18" y="66" width="3" height="14" opacity=".001"/>
  <path class="ColorScheme-Text" d="m18 66v14h2v-14h-1z" fill="currentColor" opacity=".1"/>
 </g>
 <g id="hover-center" transform="matrix(.51852 0 0 1.0769 .40741 61.585)">
  <rect class="ColorScheme-Text" x="5" y="4.1" width="27" height="13" fill="currentColor" opacity=".1"/>
 </g>
 <g id="hover-top" transform="translate(-1)">
  <rect x="4" y="63" width="14" height="3" opacity=".001"/>
  <g transform="matrix(.53846 0 0 -1 1.3077 93)">
   <path class="ColorScheme-Highlight" transform="matrix(1,0,0,-1,0,93)" d="m5 64v2h26v-2z" fill="currentColor"/>
  </g>
 </g>
 <g id="hover-topleft" transform="translate(-1)">
  <rect x="1" y="63" width="3" height="3" opacity=".001"/>
  <path class="ColorScheme-Highlight" d="m3 64h-1v2h2v-2z" fill="currentColor"/>
 </g>
 <g id="hover-topright" transform="translate(-1)">
  <rect x="18" y="63" width="3" height="3" opacity=".001"/>
  <path class="ColorScheme-Highlight" d="m18 64v2h2v-1-1z" fill="currentColor"/>
 </g>
 <g id="hover-bottomleft" transform="translate(-1)">
  <rect x="1" y="80" width="3" height="3" opacity=".001"/>
  <path class="ColorScheme-Text" d="m2 80v1s0 1 1 1h1v-2h-1z" fill="currentColor" opacity=".1"/>
 </g>
 <g id="hover-bottomright" transform="translate(-1)">
  <rect x="18" y="80" width="3" height="3" opacity=".001"/>
  <path class="ColorScheme-Text" d="m18 80v2h1s1 0 1-1v-1h-1z" fill="currentColor" opacity=".1"/>
 </g>
 <g id="normal-bottom">
  <rect x="3" y="59" width="14" height="3" opacity=".001"/>
  <path class="ColorScheme-Text" d="m3 59v2h14v-2z" fill="currentColor" opacity=".1"/>
 </g>
 <g id="normal-left" transform="translate(-1,-21)">
  <rect x="1" y="66" width="3" height="14" opacity=".001"/>
  <path class="ColorScheme-Text" d="m2 66v14h2v-14h-1z" fill="currentColor" opacity=".1"/>
 </g>
 <g id="normal-right" transform="translate(-1,-21)">
  <rect x="18" y="66" width="3" height="14" opacity=".001"/>
  <path class="ColorScheme-Text" d="m18 66v14h2v-14h-1z" fill="currentColor" opacity=".1"/>
 </g>
 <g id="normal-center" transform="matrix(.51852 0 0 1.0769 .40741 40.585)">
  <rect class="ColorScheme-Text" x="5" y="4.1" width="27" height="13" fill="currentColor" opacity=".1"/>
 </g>
 <g id="normal-top" transform="translate(-1,-21)">
  <rect x="4" y="63" width="14" height="3" opacity=".001"/>
  <g transform="matrix(.53846 0 0 -1 1.3077 93)" fill="currentColor">
   <path class="ColorScheme-Text" transform="matrix(1,0,0,-1,0,93)" d="m5 64v2h26v-2z" opacity=".1"/>
   <path class="ColorScheme-Text" d="m5 29v-1h26v1z" opacity=".2"/>
  </g>
 </g>
 <g id="normal-topleft" transform="translate(-1,-21)">
  <rect x="1" y="63" width="3" height="3" opacity=".001"/>
  <path class="ColorScheme-Text" d="m3 64h-1v2h2v-2z" fill="currentColor" opacity=".1"/>
  <path class="ColorScheme-Text" d="m2 64v1h2v-1z" fill="currentColor" opacity=".2"/>
 </g>
 <g id="normal-topright" transform="translate(-1,-21)">
  <rect x="18" y="63" width="3" height="3" opacity=".001"/>
  <path class="ColorScheme-Text" d="m18 64v2h2v-1-1z" fill="currentColor" opacity=".1"/>
  <path class="ColorScheme-Text" d="m18 64v1h2v-1z" fill="currentColor" opacity=".2"/>
 </g>
 <g id="normal-bottomleft" transform="translate(-1,-21)">
  <rect x="1" y="80" width="3" height="3" opacity=".001"/>
  <path class="ColorScheme-Text" d="m2 80v1s0 1 1 1h1v-2h-1z" fill="currentColor" opacity=".1"/>
 </g>
 <g id="normal-bottomright" transform="translate(-1,-21)">
  <rect x="18" y="80" width="3" height="3" opacity=".001"/>
  <path class="ColorScheme-Text" d="m18 80v2h1s1 0 1-1v-1h-1z" fill="currentColor" opacity=".1"/>
 </g>
 <g id="focus-bottom">
  <rect x="3" y="38" width="14" height="3" opacity=".001"/>
  <path class="ColorScheme-Text" d="m3 38v2h14v-2z" fill="currentColor" opacity=".1"/>
 </g>
 <g id="focus-left" transform="translate(-1,-42)">
  <rect x="1" y="66" width="3" height="14" opacity=".001"/>
  <path class="ColorScheme-Text" d="m2 66v14h2v-14h-1z" fill="currentColor" opacity=".1"/>
 </g>
 <g id="focus-right" transform="translate(-1,-42)">
  <rect x="18" y="66" width="3" height="14" opacity=".001"/>
  <path class="ColorScheme-Text" d="m18 66v14h2v-14h-1z" fill="currentColor" opacity=".1"/>
 </g>
 <g id="focus-center" transform="matrix(.51852 0 0 1.0769 .40741 19.585)">
  <rect class="ColorScheme-Text" x="5" y="4.1" width="27" height="13" fill="currentColor" opacity=".1"/>
 </g>
 <g id="focus-top" transform="translate(-1,-42)">
  <rect x="4" y="63" width="14" height="3" opacity=".001"/>
  <g transform="matrix(.53846 0 0 -1 1.3077 93)">
   <path class="ColorScheme-Highlight" transform="matrix(1,0,0,-1,0,93)" d="m5 64v2h26v-2z" fill="currentColor"/>
  </g>
 </g>
 <g id="focus-topleft" transform="translate(-1,-42)">
  <rect x="1" y="63" width="3" height="3" opacity=".001"/>
  <path class="ColorScheme-Highlight" d="m2 64v2h2v-2h-2z" fill="currentColor"/>
 </g>
 <g id="focus-topright" transform="translate(-1,-42)">
  <rect x="18" y="63" width="3" height="3" opacity=".001"/>
  <path class="ColorScheme-Highlight" d="m18 64v2h2v-1-1z" fill="currentColor"/>
 </g>
 <g id="focus-bottomleft" transform="translate(-1,-42)">
  <rect x="1" y="80" width="3" height="3" opacity=".001"/>
  <path class="ColorScheme-Text" d="m2 80v1s0 1 1 1h1v-2h-1z" fill="currentColor" opacity=".1"/>
 </g>
 <g id="focus-bottomright" transform="translate(-1,-42)">
  <rect x="18" y="80" width="3" height="3" opacity=".001"/>
  <path class="ColorScheme-Text" d="m18 80v2h1s1 0 1-1v-1h-1z" fill="currentColor" opacity=".1"/>
 </g>
 <g id="north-progress-bottom" transform="translate(21)">
  <rect x="3" y="17" width="14" height="3" opacity=".001"/>
  <path d="m3 17v2h14v-2z" fill="#4caf50"/>
 </g>
 <g id="north-progress-left" transform="translate(20,-63)">
  <rect x="1" y="66" width="3" height="14" opacity=".001"/>
 </g>
 <g id="north-progress-right" transform="translate(20,-63)">
  <rect x="18" y="66" width="3" height="14" opacity=".001"/>
 </g>
 <g id="north-progress-center" transform="matrix(.51852 0 0 1.0769 21.407 -1.4154)">
  <rect x="5" y="4.1" width="27" height="13" opacity=".001"/>
 </g>
 <g id="north-progress-top" transform="translate(20,-63)">
  <rect x="4" y="63" width="14" height="3" opacity=".001"/>
 </g>
 <g id="north-progress-topleft" transform="translate(20,-63)">
  <rect x="1" y="63" width="3" height="3" opacity=".001"/>
 </g>
 <g id="north-progress-topright" transform="translate(20,-63)">
  <rect x="18" y="63" width="3" height="3" opacity=".001"/>
 </g>
 <g id="north-progress-bottomleft" transform="translate(20,-63)">
  <rect x="1" y="80" width="3" height="3" opacity=".001"/>
  <path d="m2 80v2h1 1v-2h-1z" fill="#4caf50"/>
 </g>
 <g id="north-progress-bottomright" transform="translate(20,-63)">
  <rect x="18" y="80" width="3" height="3" opacity=".001"/>
  <path d="m18 80v2h2v-1-1h-1z" fill="#4caf50"/>
 </g>
 <g id="north-minimized-bottom" transform="translate(21)">
  <rect x="3" y="122" width="14" height="3" opacity=".001"/>
  <path class="ColorScheme-Text" d="m3 122v2h14v-2z" fill="currentColor" opacity=".1"/>
 </g>
 <g id="north-minimized-left" transform="translate(20,42)">
  <rect x="1" y="66" width="3" height="14" opacity=".001"/>
  <path class="ColorScheme-Text" d="m2 66v14h2v-14h-1z" fill="currentColor" opacity=".1"/>
 </g>
 <g id="north-minimized-right" transform="translate(20,42)">
  <rect x="18" y="66" width="3" height="14" opacity=".001"/>
  <path class="ColorScheme-Text" d="m18 66v14h2v-14h-1z" fill="currentColor" opacity=".1"/>
 </g>
 <g id="north-minimized-center" transform="matrix(.51852 0 0 1.0769 21.407 103.58)">
  <rect class="ColorScheme-Text" x="5" y="4.1" width="27" height="13" fill="currentColor" opacity=".1"/>
 </g>
 <g id="north-minimized-top" transform="translate(20,42)">
  <rect x="4" y="63" width="14" height="3" opacity=".001"/>
  <g id="hover-top-9" transform="matrix(.53846 0 0 -1 1.3077 93)">
   <path class="ColorScheme-Text" transform="matrix(1,0,0,-1,0,93)" d="m5 64v2h26v-2z" fill="currentColor" opacity=".1"/>
  </g>
 </g>
 <g id="north-minimized-topleft" transform="translate(20,42)">
  <rect x="1" y="63" width="3" height="3" opacity=".001"/>
  <path class="ColorScheme-Text" d="m3 64c-1 0-1 1-1 1v1h2v-2z" fill="currentColor" opacity=".1"/>
 </g>
 <g id="north-minimized-topright" transform="translate(20,42)">
  <rect x="18" y="63" width="3" height="3" opacity=".001"/>
  <path class="ColorScheme-Text" d="m18 64v2h2v-1c0-1-1-1-1-1z" fill="currentColor" opacity=".1"/>
 </g>
 <g id="north-minimized-bottomleft" transform="translate(20,42)">
  <rect x="1" y="80" width="3" height="3" opacity=".001"/>
  <path class="ColorScheme-Text" d="m2 80v2h1 1v-2h-1z" fill="currentColor" opacity=".1"/>
 </g>
 <g id="north-minimized-bottomright" transform="translate(20,42)">
  <rect x="18" y="80" width="3" height="3" opacity=".001"/>
  <path class="ColorScheme-Text" d="m18 80v2h2v-1-1h-1z" fill="currentColor" opacity=".1"/>
 </g>
 <g id="north-attention-bottom" transform="translate(21)">
  <rect x="3" y="101" width="14" height="3" opacity=".001"/>
  <path class="ColorScheme-NegativeText" d="m3 101v2h14v-2z" fill="currentColor"/>
 </g>
 <g id="north-attention-left" transform="translate(20,21)">
  <rect x="1" y="66" width="3" height="14" opacity=".001"/>
  <path class="ColorScheme-NegativeText" d="m2 66v14h2v-14h-1z" fill="currentColor" opacity=".12"/>
 </g>
 <g id="north-attention-right" transform="translate(20,21)">
  <rect x="18" y="66" width="3" height="14" opacity=".001"/>
  <path class="ColorScheme-NegativeText" d="m18 66v14h2v-14h-1z" fill="currentColor" opacity=".12"/>
 </g>
 <g id="north-attention-center" transform="matrix(.51852 0 0 1.0769 21.407 82.585)">
  <rect class="ColorScheme-NegativeText" x="5" y="4.1" width="27" height="13" fill="currentColor" opacity=".12"/>
 </g>
 <g id="north-attention-top" transform="translate(20,21)">
  <rect x="4" y="63" width="14" height="3" opacity=".001"/>
  <g transform="matrix(.53846 0 0 -1 1.3077 93)">
   <path transform="matrix(1,0,0,-1,0,93)" d="m5 64v2h26v-2z" fill="#f44336" opacity=".12"/>
  </g>
 </g>
 <g id="north-attention-topleft" transform="translate(20,21)">
  <rect x="1" y="63" width="3" height="3" opacity=".001"/>
  <path d="m3 64c-1 0-1 1-1 1v1h2v-2z" fill="#f44336" opacity=".12"/>
 </g>
 <g id="north-attention-topright" transform="translate(20,21)">
  <rect x="18" y="63" width="3" height="3" opacity=".001"/>
  <path d="m18 64v2h2v-1c0-1-1-1-1-1z" fill="#f44336" opacity=".12"/>
 </g>
 <g id="north-attention-bottomleft" transform="translate(20,21)">
  <rect x="1" y="80" width="3" height="3" opacity=".001"/>
  <path class="ColorScheme-NegativeText" d="m2 80v2h1 1v-2h-1z" fill="currentColor"/>
 </g>
 <g id="north-attention-bottomright" transform="translate(20,21)">
  <rect x="18" y="80" width="3" height="3" opacity=".001"/>
  <path class="ColorScheme-NegativeText" d="m18 80v2h2v-1-1h-1z" fill="currentColor"/>
 </g>
 <g id="north-hover-bottom" transform="translate(21)">
  <rect x="3" y="80" width="14" height="3" opacity=".001"/>
  <path class="ColorScheme-Highlight" d="m3 80v2h14v-2z" fill="currentColor"/>
 </g>
 <g id="north-hover-left" transform="translate(20)">
  <rect x="1" y="66" width="3" height="14" opacity=".001"/>
  <path class="ColorScheme-Text" d="m2 66v14h2v-14h-1z" fill="currentColor" opacity=".1"/>
 </g>
 <g id="north-hover-right" transform="translate(20)">
  <rect x="18" y="66" width="3" height="14" opacity=".001"/>
  <path class="ColorScheme-Text" d="m18 66v14h2v-14h-1z" fill="currentColor" opacity=".1"/>
 </g>
 <g id="north-hover-center" transform="matrix(.51852 0 0 1.0769 21.407 61.585)">
  <rect class="ColorScheme-Text" x="5" y="4.1" width="27" height="13" fill="currentColor" opacity=".1"/>
 </g>
 <g id="north-hover-top" transform="translate(20)">
  <rect x="4" y="63" width="14" height="3" opacity=".001"/>
  <g transform="matrix(.53846 0 0 -1 1.3077 93)">
   <path class="ColorScheme-Text" transform="matrix(1,0,0,-1,0,93)" d="m5 64v2h26v-2z" fill="currentColor" opacity=".1"/>
  </g>
 </g>
 <g id="north-hover-topleft" transform="translate(20)">
  <rect x="1" y="63" width="3" height="3" opacity=".001"/>
  <path class="ColorScheme-Text" d="m3 64c-1 0-1 1-1 1v1h2v-2z" fill="currentColor" opacity=".1"/>
 </g>
 <g id="north-hover-topright" transform="translate(20)">
  <rect x="18" y="63" width="3" height="3" opacity=".001"/>
  <path class="ColorScheme-Text" d="m18 64v2h2v-1c0-1-1-1-1-1z" fill="currentColor" opacity=".1"/>
 </g>
 <g id="north-hover-bottomleft" transform="translate(20)">
  <rect x="1" y="80" width="3" height="3" opacity=".001"/>
  <path class="ColorScheme-Highlight" d="m2 80v2h1 1v-2h-1z" fill="currentColor"/>
 </g>
 <g id="north-hover-bottomright" transform="translate(20)">
  <rect x="18" y="80" width="3" height="3" opacity=".001"/>
  <path class="ColorScheme-Highlight" d="m18 80v2h2v-1-1h-1z" fill="currentColor"/>
 </g>
 <g id="north-normal-bottom" transform="translate(21)">
  <rect x="3" y="59" width="14" height="3" opacity=".001"/>
  <path class="ColorScheme-Text" d="m3 59v2h14v-2z" fill="currentColor" opacity=".1"/>
  <path class="ColorScheme-Text" d="m3 60v1h14v-1z" fill="currentColor" opacity=".2"/>
 </g>
 <g id="north-normal-left" transform="translate(20,-21)">
  <rect x="1" y="66" width="3" height="14" opacity=".001"/>
  <path class="ColorScheme-Text" d="m2 66v14h2v-14h-1z" fill="currentColor" opacity=".1"/>
 </g>
 <g id="north-normal-right" transform="translate(20,-21)">
  <rect x="18" y="66" width="3" height="14" opacity=".001"/>
  <path class="ColorScheme-Text" d="m18 66v14h2v-14h-1z" fill="currentColor" opacity=".1"/>
 </g>
 <g id="north-normal-center" transform="matrix(.51852 0 0 1.0769 21.407 40.585)">
  <rect class="ColorScheme-Text" x="5" y="4.1" width="27" height="13" fill="currentColor" opacity=".1"/>
 </g>
 <g id="north-normal-top" transform="translate(20,-21)">
  <rect x="4" y="63" width="14" height="3" opacity=".001"/>
  <g transform="matrix(.53846 0 0 -1 1.3077 93)">
   <path class="ColorScheme-Text" transform="matrix(1,0,0,-1,0,93)" d="m5 64v2h26v-2z" fill="currentColor" opacity=".1"/>
  </g>
 </g>
 <g id="north-normal-topleft" transform="translate(20,-21)">
  <rect x="1" y="63" width="3" height="3" opacity=".001"/>
  <path class="ColorScheme-Text" d="m3 64c-1 0-1 1-1 1v1h2v-2z" fill="currentColor" opacity=".1"/>
 </g>
 <g id="north-normal-topright" transform="translate(20,-21)">
  <rect x="18" y="63" width="3" height="3" opacity=".001"/>
  <path class="ColorScheme-Text" d="m18 64v2h2v-1c0-1-1-1-1-1z" fill="currentColor" opacity=".1"/>
 </g>
 <g id="north-normal-bottomleft" transform="translate(20,-21)">
  <rect x="1" y="80" width="3" height="3" opacity=".001"/>
  <path class="ColorScheme-Text" d="m2 80v2h1 1v-2h-1z" fill="currentColor" opacity=".1"/>
  <path class="ColorScheme-Text" d="m2 81v1h2v-1h-1z" fill="currentColor" opacity=".2"/>
 </g>
 <g id="north-normal-bottomright" transform="translate(20,-21)">
  <rect x="18" y="80" width="3" height="3" opacity=".001"/>
  <path class="ColorScheme-Text" d="m18 80v2h2v-1-1h-1z" fill="currentColor" opacity=".1"/>
  <path class="ColorScheme-Text" d="m18 81v1h2v-1h-1z" fill="currentColor" opacity=".2"/>
 </g>
 <g id="north-focus-bottom" transform="translate(21)">
  <rect x="3" y="38" width="14" height="3" opacity=".001"/>
  <path class="ColorScheme-Highlight" d="m3 38v2h14v-2z" fill="currentColor"/>
 </g>
 <g id="north-focus-left" transform="translate(20,-42)">
  <rect x="1" y="66" width="3" height="14" opacity=".001"/>
  <path class="ColorScheme-Text" d="m2 66v14h2v-14h-1z" fill="currentColor" opacity=".1"/>
 </g>
 <g id="north-focus-right" transform="translate(20,-42)">
  <rect x="18" y="66" width="3" height="14" opacity=".001"/>
  <path class="ColorScheme-Text" d="m18 66v14h2v-14h-1z" fill="currentColor" opacity=".1"/>
 </g>
 <g id="north-focus-center" transform="matrix(.51852 0 0 1.0769 21.407 19.585)">
  <rect class="ColorScheme-Text" x="5" y="4.1" width="27" height="13" fill="currentColor" opacity=".1"/>
 </g>
 <g id="north-focus-top" transform="translate(20,-42)">
  <rect x="4" y="63" width="14" height="3" opacity=".001"/>
  <g transform="matrix(.53846 0 0 -1 1.3077 93)">
   <path class="ColorScheme-Text" transform="matrix(1,0,0,-1,0,93)" d="m5 64v2h26v-2z" fill="currentColor" opacity=".1"/>
  </g>
 </g>
 <g id="north-focus-topleft" transform="translate(20,-42)">
  <rect x="1" y="63" width="3" height="3" opacity=".001"/>
  <path class="ColorScheme-Text" d="m3 64c-1 0-1 1-1 1v1h2v-2z" fill="currentColor" opacity=".1"/>
 </g>
 <g id="north-focus-topright" transform="translate(20,-42)">
  <rect x="18" y="63" width="3" height="3" opacity=".001"/>
  <path class="ColorScheme-Text" d="m18 64v2h2v-1c0-1-1-1-1-1z" fill="currentColor" opacity=".1"/>
 </g>
 <g id="north-focus-bottomleft" transform="translate(20,-42)">
  <rect x="1" y="80" width="3" height="3" opacity=".001"/>
  <path class="ColorScheme-Highlight" d="m2 80v2h1 1v-2h-1z" fill="currentColor"/>
 </g>
 <g id="north-focus-bottomright" transform="translate(20,-42)">
  <rect x="18" y="80" width="3" height="3" opacity=".001"/>
  <path class="ColorScheme-Highlight" d="m18 80v2h2v-1-1h-1z" fill="currentColor"/>
 </g>
 <g id="progress-top">
  <rect transform="scale(1,-1)" x="3" y="-3" width="14" height="3" opacity=".001"/>
  <path d="m3 3v-2h14v2z" fill="#4caf50"/>
 </g>
 <rect id="progress-left" transform="scale(1,-1)" y="-17" width="3" height="14" opacity=".001"/>
 <rect id="progress-right" transform="scale(1,-1)" x="17" y="-17" width="3" height="14" opacity=".001"/>
 <rect id="progress-center" transform="scale(1,-1)" x="3" y="-17" width="14" height="14" opacity=".001"/>
 <rect id="progress-bottom" transform="scale(1,-1)" x="3" y="-20" width="14" height="3" opacity=".001"/>
 <rect id="progress-bottomleft" transform="scale(1,-1)" y="-20" width="3" height="3" opacity=".001"/>
 <rect id="progress-bottomright" transform="scale(1,-1)" x="17" y="-20" width="3" height="3" opacity=".001"/>
 <g id="progress-topleft">
  <rect transform="scale(1,-1)" y="-3" width="3" height="3" opacity=".001"/>
  <path d="m1 3v-2h1 1v2h-1z" fill="#4caf50"/>
 </g>
 <g id="progress-topright">
  <rect transform="scale(1,-1)" x="17" y="-3" width="3" height="3" opacity=".001"/>
  <path d="m17 3v-2h2v1 1h-1z" fill="#4caf50"/>
 </g>
 <g id="east-minimized-bottom" transform="translate(42)">
  <rect x="3" y="122" width="14" height="3" opacity=".001"/>
  <path class="ColorScheme-Text" d="m3 122v2h14v-2z" fill="currentColor" opacity=".1"/>
 </g>
 <g id="east-minimized-left" transform="translate(41,42)">
  <rect x="1" y="66" width="3" height="14" opacity=".001"/>
  <path class="ColorScheme-Text" d="m2 66v14h2v-14h-1z" fill="currentColor" opacity=".1"/>
 </g>
 <g id="east-minimized-right" transform="translate(41,42)">
  <rect x="18" y="66" width="3" height="14" opacity=".001"/>
  <path class="ColorScheme-Text" d="m18 66v14h2v-14h-1z" fill="currentColor" opacity=".1"/>
 </g>
 <g id="east-minimized-center" transform="matrix(.51852 0 0 1.0769 42.407 103.58)">
  <rect class="ColorScheme-Text" x="5" y="4.1" width="27" height="13" fill="currentColor" opacity=".1"/>
 </g>
 <g id="east-minimized-top" transform="translate(41,42)">
  <rect x="4" y="63" width="14" height="3" opacity=".001"/>
  <g id="hover-top-1" transform="matrix(.53846 0 0 -1 1.3077 93)">
   <path class="ColorScheme-Text" transform="matrix(1,0,0,-1,0,93)" d="m5 64v2h26v-2z" fill="currentColor" opacity=".1"/>
  </g>
 </g>
 <g id="east-minimized-topleft" transform="translate(41,42)">
  <rect x="1" y="63" width="3" height="3" opacity=".001"/>
  <path class="ColorScheme-Text" d="m3 64h-1v2h2v-2z" fill="currentColor" opacity=".1"/>
 </g>
 <g id="east-minimized-topright" transform="translate(41,42)">
  <rect x="18" y="63" width="3" height="3" opacity=".001"/>
  <path class="ColorScheme-Text" d="m18 64v2h2v-1c0-1-1-1-1-1z" fill="currentColor" opacity=".1"/>
 </g>
 <g id="east-minimized-bottomleft" transform="translate(41,42)">
  <rect x="1" y="80" width="3" height="3" opacity=".001"/>
  <path class="ColorScheme-Text" d="m2 80v2h1 1v-2h-1z" fill="currentColor" opacity=".1"/>
 </g>
 <g id="east-minimized-bottomright" transform="translate(41,42)">
  <rect x="18" y="80" width="3" height="3" opacity=".001"/>
  <path class="ColorScheme-Text" d="m18 80v2h1s1 0 1-1v-1h-1z" fill="currentColor" opacity=".1"/>
 </g>
 <g id="east-attention-bottom" transform="translate(42)">
  <rect x="3" y="101" width="14" height="3" opacity=".001"/>
  <path class="ColorScheme-NegativeText" d="m3 101v2h14v-2z" fill="currentColor" opacity=".12"/>
 </g>
 <g id="east-attention-left" transform="translate(41,21)">
  <rect x="1" y="66" width="3" height="14" opacity=".001"/>
  <path class="ColorScheme-NegativeText" d="m2 66v14h2v-14h-1z" fill="currentColor"/>
 </g>
 <g id="east-attention-right" transform="translate(41,21)">
  <rect x="18" y="66" width="3" height="14" opacity=".001"/>
  <path class="ColorScheme-NegativeText" d="m18 66v14h2v-14h-1z" fill="currentColor" opacity=".12"/>
 </g>
 <g id="east-attention-center" transform="matrix(.51852 0 0 1.0769 42.407 82.585)">
  <rect class="ColorScheme-NegativeText" x="5" y="4.1" width="27" height="13" fill="currentColor" opacity=".12"/>
 </g>
 <g id="east-attention-top" transform="translate(41,21)">
  <rect x="4" y="63" width="14" height="3" opacity=".001"/>
  <g transform="matrix(.53846 0 0 -1 1.3077 93)">
   <path class="ColorScheme-NegativeText" transform="matrix(1,0,0,-1,0,93)" d="m5 64v2h26v-2z" fill="currentColor" opacity=".12"/>
  </g>
 </g>
 <g id="east-attention-topleft" transform="translate(41,21)">
  <rect x="1" y="63" width="3" height="3" opacity=".001"/>
  <path class="ColorScheme-NegativeText" d="m3 64h-1v2h2v-2z" fill="currentColor"/>
 </g>
 <g id="east-attention-topright" transform="translate(41,21)">
  <rect x="18" y="63" width="3" height="3" opacity=".001"/>
  <path class="ColorScheme-NegativeText" d="m18 64v2h2v-1c0-1-1-1-1-1z" fill="currentColor" opacity=".12"/>
 </g>
 <g id="east-attention-bottomleft" transform="translate(41,21)">
  <rect x="1" y="80" width="3" height="3" opacity=".001"/>
  <path class="ColorScheme-NegativeText" d="m2 80v2h1 1v-2h-1z" fill="currentColor"/>
 </g>
 <g id="east-attention-bottomright" transform="translate(41,21)">
  <rect x="18" y="80" width="3" height="3" opacity=".001"/>
  <path class="ColorScheme-NegativeText" d="m18 80v2h1s1 0 1-1v-1h-1z" fill="currentColor" opacity=".12"/>
 </g>
 <g id="east-hover-bottom" transform="translate(42)">
  <rect x="3" y="80" width="14" height="3" opacity=".001"/>
  <path class="ColorScheme-Text" d="m3 80v2h14v-2z" fill="currentColor" opacity=".1"/>
 </g>
 <g id="east-hover-left" transform="translate(41)">
  <rect x="1" y="66" width="3" height="14" opacity=".001"/>
  <path class="ColorScheme-Highlight" d="m2 66v14h2v-14h-1z" fill="currentColor"/>
 </g>
 <g id="east-hover-right" transform="translate(41)">
  <rect x="18" y="66" width="3" height="14" opacity=".001"/>
  <path class="ColorScheme-Text" d="m18 66v14h2v-14h-1z" fill="currentColor" opacity=".1"/>
 </g>
 <g id="east-hover-center" transform="matrix(.51852 0 0 1.0769 42.407 61.585)">
  <rect class="ColorScheme-Text" x="5" y="4.1" width="27" height="13" fill="currentColor" opacity=".1"/>
 </g>
 <g id="east-hover-top" transform="translate(41)">
  <rect x="4" y="63" width="14" height="3" opacity=".001"/>
  <g transform="matrix(.53846 0 0 -1 1.3077 93)">
   <path class="ColorScheme-Text" transform="matrix(1,0,0,-1,0,93)" d="m5 64v2h26v-2z" fill="currentColor" opacity=".1"/>
  </g>
 </g>
 <g id="east-hover-topleft" transform="translate(41)">
  <rect x="1" y="63" width="3" height="3" opacity=".001"/>
  <path class="ColorScheme-Highlight" d="m3 64h-1v2h2v-2z" fill="currentColor"/>
 </g>
 <g id="east-hover-topright" transform="translate(41)">
  <rect x="18" y="63" width="3" height="3" opacity=".001"/>
  <path class="ColorScheme-Text" d="m18 64v2h2v-1c0-1-1-1-1-1z" fill="currentColor" opacity=".1"/>
 </g>
 <g id="east-hover-bottomleft" transform="translate(41)">
  <rect x="1" y="80" width="3" height="3" opacity=".001"/>
  <path class="ColorScheme-Highlight" d="m2 80v2h1 1v-2h-1z" fill="currentColor"/>
 </g>
 <g id="east-hover-bottomright" transform="translate(41)">
  <rect x="18" y="80" width="3" height="3" opacity=".001"/>
  <path class="ColorScheme-Text" d="m18 80v2h1s1 0 1-1v-1h-1z" fill="currentColor" opacity=".1"/>
 </g>
 <g id="east-normal-bottom" transform="translate(42)">
  <rect x="3" y="59" width="14" height="3" opacity=".001"/>
  <path class="ColorScheme-Text" d="m3 59v2h14v-2z" fill="currentColor" opacity=".1"/>
 </g>
 <g id="east-normal-left" transform="translate(41,-21)">
  <rect x="1" y="66" width="3" height="14" opacity=".001"/>
  <path class="ColorScheme-Text" d="m2 66v14h2v-14h-1z" fill="currentColor" opacity=".1"/>
  <path class="ColorScheme-Text" d="m2 66v14h1v-14z" fill="currentColor" opacity=".2"/>
 </g>
 <g id="east-normal-right" transform="translate(41,-21)">
  <rect x="18" y="66" width="3" height="14" opacity=".001"/>
  <path class="ColorScheme-Text" d="m18 66v14h2v-14h-1z" fill="currentColor" opacity=".1"/>
 </g>
 <g id="east-normal-center" transform="matrix(.51852 0 0 1.0769 42.407 40.585)">
  <rect class="ColorScheme-Text" x="5" y="4.1" width="27" height="13" fill="currentColor" opacity=".1"/>
 </g>
 <g id="east-normal-top" transform="translate(41,-21)">
  <rect x="4" y="63" width="14" height="3" opacity=".001"/>
  <g transform="matrix(.53846 0 0 -1 1.3077 93)">
   <path class="ColorScheme-Text" transform="matrix(1,0,0,-1,0,93)" d="m5 64v2h26v-2z" fill="currentColor" opacity=".1"/>
  </g>
 </g>
 <g id="east-normal-topleft" transform="translate(41,-21)">
  <rect x="1" y="63" width="3" height="3" opacity=".001"/>
  <path class="ColorScheme-Text" d="m3 64h-1v2h2v-2z" fill="currentColor" opacity=".1"/>
  <path class="ColorScheme-Text" d="m2 64v2h1v-2z" fill="currentColor" opacity=".2"/>
 </g>
 <g id="east-normal-topright" transform="translate(41,-21)">
  <rect x="18" y="63" width="3" height="3" opacity=".001"/>
  <path class="ColorScheme-Text" d="m18 64v2h2v-1c0-1-1-1-1-1z" fill="currentColor" opacity=".1"/>
 </g>
 <g id="east-normal-bottomleft" transform="translate(41,-21)">
  <rect x="1" y="80" width="3" height="3" opacity=".001"/>
  <path class="ColorScheme-Text" d="m2 80v2h1 1v-2h-1z" fill="currentColor" opacity=".1"/>
  <path class="ColorScheme-Text" d="m2 80v2h1v-2z" fill="currentColor" opacity=".2"/>
 </g>
 <g id="east-normal-bottomright" transform="translate(41,-21)">
  <rect x="18" y="80" width="3" height="3" opacity=".001"/>
  <path class="ColorScheme-Text" d="m18 80v2h1s1 0 1-1v-1h-1z" fill="currentColor" opacity=".1"/>
 </g>
 <g id="east-focus-bottom" transform="translate(42)">
  <rect x="3" y="38" width="14" height="3" opacity=".001"/>
  <path class="ColorScheme-Text" d="m3 38v2h14v-2z" fill="currentColor" opacity=".1"/>
 </g>
 <g id="east-focus-left" transform="translate(41,-42)">
  <rect x="1" y="66" width="3" height="14" opacity=".001"/>
  <path class="ColorScheme-Highlight" d="m2 66v14h2v-14h-1z" fill="currentColor"/>
 </g>
 <g id="east-focus-right" transform="translate(41,-42)">
  <rect x="18" y="66" width="3" height="14" opacity=".001"/>
  <path class="ColorScheme-Text" d="m18 66v14h2v-14h-1z" fill="currentColor" opacity=".1"/>
 </g>
 <g id="east-focus-center" transform="matrix(.51852 0 0 1.0769 42.407 19.585)">
  <rect class="ColorScheme-Text" x="5" y="4.1" width="27" height="13" fill="currentColor" opacity=".1"/>
 </g>
 <g id="east-focus-top" transform="translate(41,-42)">
  <rect x="4" y="63" width="14" height="3" opacity=".001"/>
  <g transform="matrix(.53846 0 0 -1 1.3077 93)">
   <path class="ColorScheme-Text" transform="matrix(1,0,0,-1,0,93)" d="m5 64v2h26v-2z" fill="currentColor" opacity=".1"/>
  </g>
 </g>
 <g id="east-focus-topleft" transform="translate(41,-42)">
  <rect x="1" y="63" width="3" height="3" opacity=".001"/>
  <path class="ColorScheme-Highlight" d="m3 64h-1v2h2v-2z" fill="currentColor"/>
 </g>
 <g id="east-focus-topright" transform="translate(41,-42)">
  <rect x="18" y="63" width="3" height="3" opacity=".001"/>
  <path class="ColorScheme-Text" d="m18 64v2h2v-1c0-1-1-1-1-1z" fill="currentColor" opacity=".1"/>
 </g>
 <g id="east-focus-bottomleft" transform="translate(41,-42)">
  <rect x="1" y="80" width="3" height="3" opacity=".001"/>
  <path class="ColorScheme-Highlight" d="m2 80v2h1 1v-2h-1z" fill="currentColor"/>
 </g>
 <g id="east-focus-bottomright" transform="translate(41,-42)">
  <rect x="18" y="80" width="3" height="3" opacity=".001"/>
  <path class="ColorScheme-Text" d="m18 80v2h1s1 0 1-1v-1h-1z" fill="currentColor" opacity=".1"/>
 </g>
 <g id="east-progress-left">
  <rect transform="rotate(90)" x="3" y="-45" width="14" height="3" opacity=".001"/>
  <path d="m45 3h-2v14h2z" fill="#4caf50"/>
 </g>
 <rect id="east-progress-top" transform="rotate(90)" y="-59" width="3" height="14" opacity=".001"/>
 <rect id="east-progress-bottom" transform="rotate(90)" x="17" y="-59" width="3" height="14" opacity=".001"/>
 <rect id="east-progress-center" transform="rotate(90)" x="3" y="-59" width="14" height="14" opacity=".001"/>
 <rect id="east-progress-right" transform="rotate(90)" x="3" y="-62" width="14" height="3" opacity=".001"/>
 <rect id="east-progress-topright" transform="rotate(90)" y="-62" width="3" height="3" opacity=".001"/>
 <rect id="east-progress-bottomright" transform="rotate(90)" x="17" y="-62" width="3" height="3" opacity=".001"/>
 <g id="east-progress-topleft">
  <rect transform="rotate(90)" y="-45" width="3" height="3" opacity=".001"/>
  <path d="m45 1h-2v1 1h2v-1z" fill="#4caf50"/>
 </g>
 <g id="east-progress-bottomleft">
  <rect transform="rotate(90)" x="17" y="-45" width="3" height="3" opacity=".001"/>
  <path d="m45 17h-2v2h1 1v-1z" fill="#4caf50"/>
 </g>
 <g id="west-minimized-bottom" transform="translate(63)">
  <rect x="3" y="122" width="14" height="3" opacity=".001"/>
  <path class="ColorScheme-Text" d="m3 122v2h14v-2z" fill="currentColor" opacity=".1"/>
 </g>
 <g id="west-minimized-left" transform="translate(62,42)">
  <rect x="1" y="66" width="3" height="14" opacity=".001"/>
  <path class="ColorScheme-Text" d="m2 66v14h2v-14h-1z" fill="currentColor" opacity=".1"/>
 </g>
 <g id="west-minimized-right" transform="translate(62,42)">
  <rect x="18" y="66" width="3" height="14" opacity=".001"/>
  <path class="ColorScheme-Text" d="m18 66v14h2v-14h-1z" fill="currentColor" opacity=".1"/>
 </g>
 <g id="west-minimized-center" transform="matrix(.51852 0 0 1.0769 63.407 103.58)">
  <rect class="ColorScheme-Text" x="5" y="4.1" width="27" height="13" fill="currentColor" opacity=".1"/>
 </g>
 <g id="west-minimized-top" transform="translate(62,42)">
  <rect x="4" y="63" width="14" height="3" opacity=".001"/>
  <g id="hover-top-94" transform="matrix(.53846 0 0 -1 1.3077 93)">
   <path class="ColorScheme-Text" transform="matrix(1,0,0,-1,0,93)" d="m5 64v2h26v-2z" fill="currentColor" opacity=".1"/>
  </g>
 </g>
 <g id="west-minimized-topleft" transform="translate(62,42)">
  <rect x="1" y="63" width="3" height="3" opacity=".001"/>
  <path class="ColorScheme-Text" d="m3 64c-1 0-1 1-1 1v1h2v-2z" fill="currentColor" opacity=".1"/>
 </g>
 <g id="west-minimized-topright" transform="translate(62,42)">
  <rect x="18" y="63" width="3" height="3" opacity=".001"/>
  <path class="ColorScheme-Text" d="m18 64v2h2v-1-1z" fill="currentColor" opacity=".1"/>
 </g>
 <g id="west-minimized-bottomleft" transform="translate(62,42)">
  <rect x="1" y="80" width="3" height="3" opacity=".001"/>
  <path class="ColorScheme-Text" d="m2 80v1s0 1 1 1h1v-2h-1z" fill="currentColor" opacity=".1"/>
 </g>
 <g id="west-minimized-bottomright" transform="translate(62,42)">
  <rect x="18" y="80" width="3" height="3" opacity=".001"/>
  <path class="ColorScheme-Text" d="m18 80v2h2v-1-1h-1z" fill="currentColor" opacity=".1"/>
 </g>
 <g id="west-attention-bottom" transform="translate(63)">
  <rect x="3" y="101" width="14" height="3" opacity=".001"/>
  <path class="ColorScheme-NegativeText" d="m3 101v2h14v-2z" fill="currentColor" opacity=".12"/>
 </g>
 <g id="west-attention-left" transform="translate(62,21)">
  <rect x="1" y="66" width="3" height="14" opacity=".001"/>
  <path class="ColorScheme-NegativeText" d="m2 66v14h2v-14h-1z" fill="currentColor" opacity=".12"/>
 </g>
 <g id="west-attention-right" transform="translate(62,21)">
  <rect x="18" y="66" width="3" height="14" opacity=".001"/>
  <path class="ColorScheme-NegativeText" d="m18 66v14h2v-14h-1z" fill="currentColor"/>
 </g>
 <g id="west-attention-center" transform="matrix(.51852 0 0 1.0769 63.407 82.585)">
  <rect class="ColorScheme-NegativeText" x="5" y="4.1" width="27" height="13" fill="currentColor" opacity=".12"/>
 </g>
 <g id="west-attention-top" transform="translate(62,21)">
  <rect x="4" y="63" width="14" height="3" opacity=".001"/>
  <g transform="matrix(.53846 0 0 -1 1.3077 93)">
   <path class="ColorScheme-NegativeText" transform="matrix(1,0,0,-1,0,93)" d="m5 64v2h26v-2z" fill="currentColor" opacity=".12"/>
  </g>
 </g>
 <g id="west-attention-topleft" transform="translate(62,21)">
  <rect x="1" y="63" width="3" height="3" opacity=".001"/>
  <path class="ColorScheme-NegativeText" d="m3 64c-1 0-1 1-1 1v1h2v-2z" fill="currentColor" opacity=".12"/>
 </g>
 <g id="west-attention-topright" transform="translate(62,21)">
  <rect x="18" y="63" width="3" height="3" opacity=".001"/>
  <path class="ColorScheme-NegativeText" d="m18 64v2h2v-1-1z" fill="currentColor"/>
 </g>
 <g id="west-attention-bottomleft" transform="translate(62,21)">
  <rect x="1" y="80" width="3" height="3" opacity=".001"/>
  <path class="ColorScheme-NegativeText" d="m2 80v1s0 1 1 1h1v-2h-1z" fill="currentColor" opacity=".12"/>
 </g>
 <g id="west-attention-bottomright" transform="translate(62,21)">
  <rect x="18" y="80" width="3" height="3" opacity=".001"/>
  <path class="ColorScheme-NegativeText" d="m18 80v2h2v-1-1h-1z" fill="currentColor"/>
 </g>
 <g id="west-hover-bottom" transform="translate(63)">
  <rect x="3" y="80" width="14" height="3" opacity=".001"/>
  <path class="ColorScheme-Text" d="m3 80v2h14v-2z" fill="currentColor" opacity=".1"/>
 </g>
 <g id="west-hover-left" transform="translate(62)">
  <rect x="1" y="66" width="3" height="14" opacity=".001"/>
  <path class="ColorScheme-Text" d="m2 66v14h2v-14h-1z" fill="currentColor" opacity=".1"/>
 </g>
 <g id="west-hover-right" transform="translate(62)">
  <rect x="18" y="66" width="3" height="14" opacity=".001"/>
  <path class="ColorScheme-Highlight" d="m18 66v14h2v-14h-1z" fill="currentColor"/>
 </g>
 <g id="west-hover-center" transform="matrix(.51852 0 0 1.0769 63.407 61.585)">
  <rect class="ColorScheme-Text" x="5" y="4.1" width="27" height="13" fill="currentColor" opacity=".1"/>
 </g>
 <g id="west-hover-top" transform="translate(62)">
  <rect x="4" y="63" width="14" height="3" opacity=".001"/>
  <g transform="matrix(.53846 0 0 -1 1.3077 93)">
   <path class="ColorScheme-Text" transform="matrix(1,0,0,-1,0,93)" d="m5 64v2h26v-2z" fill="currentColor" opacity=".1"/>
  </g>
 </g>
 <g id="west-hover-topleft" transform="translate(62)">
  <rect x="1" y="63" width="3" height="3" opacity=".001"/>
  <path class="ColorScheme-Text" d="m3 64c-1 0-1 1-1 1v1h2v-2z" fill="currentColor" opacity=".1"/>
 </g>
 <g id="west-hover-topright" transform="translate(62)">
  <rect x="18" y="63" width="3" height="3" opacity=".001"/>
  <path class="ColorScheme-Highlight" d="m18 64v2h2v-1-1z" fill="currentColor"/>
 </g>
 <g id="west-hover-bottomleft" transform="translate(62)">
  <rect x="1" y="80" width="3" height="3" opacity=".001"/>
  <path class="ColorScheme-Text" d="m2 80v1s0 1 1 1h1v-2h-1z" fill="currentColor" opacity=".1"/>
 </g>
 <g id="west-hover-bottomright" transform="translate(62)">
  <rect x="18" y="80" width="3" height="3" opacity=".001"/>
  <path class="ColorScheme-Highlight" d="m18 80v2h2v-1-1h-1z" fill="currentColor"/>
 </g>
 <g id="west-normal-bottom" transform="translate(63)">
  <rect x="3" y="59" width="14" height="3" opacity=".001"/>
  <path class="ColorScheme-Text" d="m3 59v2h14v-2z" fill="currentColor" opacity=".1"/>
 </g>
 <g id="west-normal-left" transform="translate(62,-21)">
  <rect x="1" y="66" width="3" height="14" opacity=".001"/>
  <path class="ColorScheme-Text" d="m2 66v14h2v-14h-1z" fill="currentColor" opacity=".1"/>
 </g>
 <g id="west-normal-right" transform="translate(62,-21)">
  <rect x="18" y="66" width="3" height="14" opacity=".001"/>
  <path class="ColorScheme-Text" d="m18 66v14h2v-14h-1z" fill="currentColor" opacity=".1"/>
  <path class="ColorScheme-Text" d="m19 66v14h1v-14z" fill="currentColor" opacity=".2"/>
 </g>
 <g id="west-normal-center" transform="matrix(.51852 0 0 1.0769 63.407 40.585)">
  <rect class="ColorScheme-Text" x="5" y="4.1" width="27" height="13" fill="currentColor" opacity=".1"/>
 </g>
 <g id="west-normal-top" transform="translate(62,-21)">
  <rect x="4" y="63" width="14" height="3" opacity=".001"/>
  <g transform="matrix(.53846 0 0 -1 1.3077 93)">
   <path class="ColorScheme-Text" transform="matrix(1,0,0,-1,0,93)" d="m5 64v2h26v-2z" fill="currentColor" opacity=".1"/>
  </g>
 </g>
 <g id="west-normal-topleft" transform="translate(62,-21)">
  <rect x="1" y="63" width="3" height="3" opacity=".001"/>
  <path class="ColorScheme-Text" d="m3 64c-1 0-1 1-1 1v1h2v-2z" fill="currentColor" opacity=".1"/>
 </g>
 <g id="west-normal-topright" transform="translate(62,-21)">
  <rect x="18" y="63" width="3" height="3" opacity=".001"/>
  <path class="ColorScheme-Text" d="m18 64v2h2v-1-1z" fill="currentColor" opacity=".1"/>
  <path class="ColorScheme-Text" d="m19 64v2h1v-2z" fill="currentColor" opacity=".2"/>
 </g>
 <g id="west-normal-bottomleft" transform="translate(62,-21)">
  <rect x="1" y="80" width="3" height="3" opacity=".001"/>
  <path class="ColorScheme-Text" d="m2 80v1s0 1 1 1h1v-2h-1z" fill="currentColor" opacity=".1"/>
 </g>
 <g id="west-normal-bottomright" transform="translate(62,-21)">
  <rect x="18" y="80" width="3" height="3" opacity=".001"/>
  <path class="ColorScheme-Text" d="m18 80v2h2v-1-1h-1z" fill="currentColor" opacity=".1"/>
  <path class="ColorScheme-Text" d="m19 80v2h1v-2z" fill="currentColor" opacity=".2"/>
 </g>
 <g id="west-focus-bottom" transform="translate(63)">
  <rect x="3" y="38" width="14" height="3" opacity=".001"/>
  <path class="ColorScheme-Text" d="m3 38v2h14v-2z" fill="currentColor" opacity=".1"/>
 </g>
 <g id="west-focus-left" transform="translate(62,-42)">
  <rect x="1" y="66" width="3" height="14" opacity=".001"/>
  <path class="ColorScheme-Text" d="m2 66v14h2v-14h-1z" fill="currentColor" opacity=".1"/>
 </g>
 <g id="west-focus-right" transform="translate(62,-42)">
  <rect x="18" y="66" width="3" height="14" opacity=".001"/>
  <path class="ColorScheme-Highlight" d="m18 66v14h2v-14h-1z" fill="currentColor"/>
 </g>
 <g id="west-focus-center" transform="matrix(.51852 0 0 1.0769 63.407 19.585)">
  <rect class="ColorScheme-Text" x="5" y="4.1" width="27" height="13" fill="currentColor" opacity=".1"/>
 </g>
 <g id="west-focus-top" transform="translate(62,-42)">
  <rect x="4" y="63" width="14" height="3" opacity=".001"/>
  <g transform="matrix(.53846 0 0 -1 1.3077 93)">
   <path class="ColorScheme-Text" transform="matrix(1,0,0,-1,0,93)" d="m5 64v2h26v-2z" fill="currentColor" opacity=".1"/>
  </g>
 </g>
 <g id="west-focus-topleft" transform="translate(62,-42)">
  <rect x="1" y="63" width="3" height="3" opacity=".001"/>
  <path class="ColorScheme-Text" d="m3 64c-1 0-1 1-1 1v1h2v-2z" fill="currentColor" opacity=".1"/>
 </g>
 <g id="west-focus-topright" transform="translate(62,-42)">
  <rect x="18" y="63" width="3" height="3" opacity=".001"/>
  <path class="ColorScheme-Highlight" d="m18 64v2h2v-1-1z" fill="currentColor"/>
 </g>
 <g id="west-focus-bottomleft" transform="translate(62,-42)">
  <rect x="1" y="80" width="3" height="3" opacity=".001"/>
  <path class="ColorScheme-Text" d="m2 80v1s0 1 1 1h1v-2h-1z" fill="currentColor" opacity=".1"/>
 </g>
 <g id="west-focus-bottomright" transform="translate(62,-42)">
  <rect x="18" y="80" width="3" height="3" opacity=".001"/>
  <path class="ColorScheme-Highlight" d="m18 80v2h2v-1-1h-1z" fill="currentColor"/>
 </g>
 <g id="west-progress-right">
  <rect transform="rotate(-90)" x="-17" y="80" width="14" height="3" opacity=".001"/>
  <path d="m80 17h2v-14h-2z" fill="#4caf50"/>
 </g>
 <rect id="west-progress-bottom" transform="rotate(-90)" x="-20" y="66" width="3" height="14" opacity=".001"/>
 <rect id="west-progress-top" transform="rotate(-90)" x="-3" y="66" width="3" height="14" opacity=".001"/>
 <rect id="west-progress-center" transform="rotate(-90)" x="-17" y="66" width="14" height="14" opacity=".001"/>
 <rect id="west-progress-left" transform="rotate(-90)" x="-17" y="63" width="14" height="3" opacity=".001"/>
 <rect id="west-progress-bottomleft" transform="rotate(-90)" x="-20" y="63" width="3" height="3" opacity=".001"/>
 <rect id="west-progress-topleft" transform="rotate(-90)" x="-3" y="63" width="3" height="3" opacity=".001"/>
 <g id="west-progress-bottomright">
  <rect transform="rotate(-90)" x="-20" y="80" width="3" height="3" opacity=".001"/>
  <path d="m80 19h2v-1-1h-2v1z" fill="#4caf50"/>
 </g>
 <g id="west-progress-topright">
  <rect transform="rotate(-90)" x="-3" y="80" width="3" height="3" opacity=".001"/>
  <path d="m80 3h2v-2h-1-1v1z" fill="#4caf50"/>
 </g>
 <g id="minimized-top" transform="translate(-1,42)">
  <rect x="4" y="63" width="14" height="3" opacity=".001"/>
  <g transform="matrix(.53846 0 0 -1 1.3077 93)">
   <path class="ColorScheme-Text" transform="matrix(1,0,0,-1,0,93)" d="m5 64v2h26v-2z" fill="currentColor" opacity=".1"/>
  </g>
 </g>
 <g id="group-expander-bottom" transform="matrix(1,0,0,-1,-23,240)">
  <path d="m119 115h-10v10h10z" opacity=".001"/>
  <circle class="ColorScheme-Highlight" cx="111.5" cy="117.5" r="1.5" fill="currentColor"/>
  <circle class="ColorScheme-Highlight" cx="116.5" cy="117.5" r="1.5" fill="currentColor"/>
 </g>
 <g id="group-expander-top" transform="translate(-13)">
  <path d="m119 115h-10v10h10z" opacity=".001"/>
  <circle class="ColorScheme-Highlight" cx="111.5" cy="117.5" r="1.5" fill="currentColor"/>
  <circle class="ColorScheme-Highlight" cx="116.5" cy="117.5" r="1.5" fill="currentColor"/>
 </g>
 <g id="group-expander-right" transform="matrix(0,-1,-1,0,211,224)">
  <path d="m119 115h-10v10h10z" opacity=".001"/>
  <circle class="ColorScheme-Highlight" cx="111.5" cy="117.5" r="1.5" fill="currentColor"/>
  <circle class="ColorScheme-Highlight" cx="116.5" cy="117.5" r="1.5" fill="currentColor"/>
 </g>
 <g id="group-expander-left" transform="rotate(-90,102.5,121.5)">
  <path d="m119 115h-10v10h10z" opacity=".001"/>
  <circle class="ColorScheme-Highlight" cx="111.5" cy="117.5" r="1.5" fill="currentColor"/>
  <circle class="ColorScheme-Highlight" cx="116.5" cy="117.5" r="1.5" fill="currentColor"/>
 </g>
</svg>
