<?xml version="1.0" encoding="UTF-8"?>
<svg width="32" height="32" version="1.1" xmlns="http://www.w3.org/2000/svg">
 <rect width="32" height="32" opacity=".001"/>
 <circle cx="16" cy="17" r="14" opacity=".1"/>
 <circle cx="16" cy="16" r="14" fill="#3d3d3d"/>
 <path d="m8 10v11h16z" fill="#4285f4"/>
 <path d="m24 10v11h-16z" fill="#7baaf7"/>
 <path d="M 16,2 A 14,14 0 0 0 2,16 14,14 0 0 0 2.0214844,16.585938 14,14 0 0 1 16,3 14,14 0 0 1 29.978516,16.414062 14,14 0 0 0 30,16 14,14 0 0 0 16,2 Z" fill="#fff" opacity=".1"/>
</svg>
