<?xml version="1.0" encoding="UTF-8"?>
<svg id="svg2" width="384" height="384" version="1.1" xmlns="http://www.w3.org/2000/svg">
 <path id="rect4140" d="m170.94 0-0.93555 38.922v190.99l60-9.3477v-48.84l42.098 60.141 109.22 152.14h2.6836v-384h-213.06z" fill="#f9f9f9"/>
 <path id="path4140" d="m220 48.998-40 3.9784v170.26l40-6.232v-72l56 80 47.544-16-63.544-72 64-72-48-16-56 80v-80.002z" opacity=".05"/>
 <path id="path4141" d="m220 47.998-40 3.9784v170.26l40-6.232v-72l56 80 47.544-16-63.544-72 64-72-48-16-56 80v-80.002z" opacity=".05"/>
 <path id="path4139" d="m220 46.998-40 3.9784v170.26l40-6.232v-72l56 80 47.544-16-63.544-72 64-72-48-16-56 80v-80.002z" opacity=".05"/>
 <path id="path4137" d="m220 45.998-40 3.9784v170.26l40-6.232v-72l56 80 47.544-16-63.544-72 64-72-48-16-56 80v-80.002z" opacity=".05"/>
 <path id="path4135" d="m220 44.998-40 3.9784v170.26l40-6.232v-72l56 80 47.544-16-63.544-72 64-72-48-16-56 80v-80.002z" opacity=".05"/>
 <path id="path14" d="m220 43.998-40 3.9784v170.26l40-6.232v-72l56 80 47.544-16-63.544-72 64-72-48-16-56 80v-80.002z" fill="#2d2d2d"/>
</svg>
