<?xml version="1.0" encoding="UTF-8"?>
<svg id="svg2" width="384" height="384" version="1.1" xmlns="http://www.w3.org/2000/svg" xmlns:cc="http://creativecommons.org/ns#" xmlns:dc="http://purl.org/dc/elements/1.1/" xmlns:rdf="http://www.w3.org/1999/02/22-rdf-syntax-ns#">
 <metadata id="metadata8">
  <rdf:RDF>
   <cc:Work rdf:about="">
    <dc:format>image/svg+xml</dc:format>
    <dc:type rdf:resource="http://purl.org/dc/dcmitype/StillImage"/>
   </cc:Work>
  </rdf:RDF>
 </metadata>
 <path id="path4136" d="m179.7 72c-1.048 0-1.909 0.70424-2.125 1.6875l-6.8906 31.891c-8.4616 2.041-16.425 5.2654-23.719 9.4844l-29.547-17.234c-0.86401-0.50512-1.9831-0.42534-2.7031 0.26562l-17.047 16.391c-0.73976 0.71424-0.85478 1.8455-0.28125 2.6875l18.922 27.688c-4.5835 7.4905-8.0356 15.683-10.078 24.422l-32.469 7.5781c-0.98637 0.22643-1.7656 1.0656-1.7656 2.0469v13.094 13.094c0 0.98131 0.77926 1.8204 1.7656 2.0469l32.469 7.5781c2.0425 8.7394 5.4946 16.931 10.078 24.422l-18.922 27.688c-0.5736 0.84196-0.45851 1.9733 0.28125 2.6875l17.047 16.391c0.72 0.69096 1.8391 0.77083 2.7031 0.26563l29.547-17.234c7.2936 4.219 15.257 7.4434 23.719 9.4844l6.8906 31.891c0.21591 0.98327 1.077 1.6875 2.125 1.6875h12.297 12.297c1.048 0 1.909-0.70424 2.125-1.6875l6.8906-31.891c8.4616-2.041 16.425-5.2654 23.719-9.4844l29.547 17.234c0.864 0.50511 1.9831 0.42533 2.7031-0.26563l17.047-16.391c0.73976-0.71415 0.85475-1.8455 0.28126-2.6875l-18.922-27.688c4.5835-7.4905 8.0356-15.683 10.078-24.422l32.469-7.5781c0.9863-0.22647 1.7656-1.0656 1.7656-2.0469v-13.094-13.094c0-0.98131-0.77928-1.8204-1.7656-2.0469l-32.469-7.5781c-2.0425-8.7394-5.4946-16.931-10.078-24.422l18.922-27.688c0.57359-0.84197 0.4585-1.9733-0.28126-2.6875l-17.047-16.391c-0.72-0.69096-1.8391-0.77082-2.7031-0.26562l-29.547 17.234c-7.2936-4.219-15.257-7.4434-23.719-9.4844l-6.8906-31.891c-0.21601-0.98324-1.077-1.6875-2.125-1.6875h-12.297-12.297zm12.297 56a64 64 0 0 1 64 64 64 64 0 0 1-64 64 64 64 0 0 1-64-64 64 64 0 0 1 64-64z" fill="#2d2d2d"/>
</svg>
