<?xml version="1.0" encoding="UTF-8"?>
<svg width="24" height="24" version="1.1" xmlns="http://www.w3.org/2000/svg">
 <g id="active-center" transform="scale(1.0909)">
  <rect width="22" height="22" opacity=".001"/>
  <circle cx="11" cy="11" r="3.667" fill="#676767"/>
 </g>
 <g id="hover-center" transform="matrix(1.0909 0 0 1.0909 -1.0909 0)">
  <g transform="translate(23)">
   <rect width="22" height="22" opacity=".001"/>
  </g>
  <circle cx="34" cy="11" r="11" opacity=".07"/>
  <circle cx="34" cy="11" r="3.667" fill="#676767"/>
 </g>
 <g id="pressed-center" transform="matrix(1.0909 0 0 1.0909 -2.1818 0)">
  <g transform="translate(46)">
   <rect width="22" height="22" opacity=".001"/>
  </g>
  <circle cx="57" cy="11" r="11" opacity=".16"/>
  <circle cx="57" cy="11" r="3.667" fill="#676767"/>
 </g>
 <g id="inactive-center" transform="matrix(1.0909 0 0 1.0909 -3.2727 0)">
  <rect x="69" width="22" height="22" opacity=".001"/>
  <circle cx="80" cy="11" r="3.667" fill="#676767" opacity=".7"/>
 </g>
 <g id="deactivated-center" transform="matrix(1.0909 0 0 1.0909 -4.3636 0)">
  <rect x="92" width="22" height="22" opacity=".001"/>
  <circle cx="103" cy="11" r="3.667" fill="#676767" opacity=".7"/>
 </g>
</svg>
