<?xml version="1.0" encoding="UTF-8"?>
<svg width="24" height="24" version="1.1" xmlns="http://www.w3.org/2000/svg">
 <g id="active-center" transform="scale(1.0909)">
  <rect width="22" height="22" opacity=".001"/>
  <path d="m7.3362 7.3335h0.91631c0.0095-1.1e-4 0.01905-4.217e-4 0.028635 0 0.23361 0.010267 0.4672 0.11786 0.62996 0.28645l2.0903 2.0911 2.119-2.0911c0.24339-0.21129 0.40929-0.28003 0.62996-0.28645h0.91631v0.91664c0 0.26259-0.03147 0.50475-0.22908 0.68748l-2.0903 2.0911 2.0617 2.0624c0.17244 0.17248 0.2577 0.41565 0.25771 0.65884v0.91664h-0.91631c-0.2431-9e-6 -0.48618-0.08534-0.6586-0.2578l-2.0903-2.0911-2.0903 2.0911c-0.17242 0.1725-0.41551 0.2578-0.6586 0.2578h-0.91631v-0.91664c-2.7e-6 -0.24318 0.085272-0.48635 0.25771-0.65884l2.0903-2.0624-2.0903-2.0911c-0.1931-0.17841-0.27779-0.43013-0.25771-0.68748z" fill="#676767"/>
 </g>
 <g id="pressed-center" transform="matrix(1.0909 0 0 1.0909 -2.1818 0)">
  <rect x="46" width="22" height="22" opacity=".001"/>
  <circle cx="57" cy="11" r="11" opacity=".16"/>
  <path d="m53.336 7.3335h0.91631c0.0095-1.1e-4 0.01905-4.217e-4 0.02864 0 0.23361 0.010267 0.4672 0.11786 0.62996 0.28645l2.0903 2.0911 2.119-2.0911c0.24339-0.21129 0.40929-0.28003 0.62996-0.28645h0.9163v0.91664c0 0.26259-0.03147 0.50475-0.22908 0.68748l-2.0903 2.0911 2.0617 2.0624c0.17244 0.17248 0.2577 0.41565 0.25771 0.65884v0.91664h-0.9163c-0.2431-9e-6 -0.48618-0.08534-0.6586-0.2578l-2.0903-2.0911-2.0903 2.0911c-0.17242 0.1725-0.41551 0.2578-0.6586 0.2578h-0.91631v-0.91664c-2e-6 -0.24318 0.08527-0.48635 0.25771-0.65884l2.0903-2.0624-2.0903-2.0911c-0.1931-0.17841-0.27779-0.43013-0.25771-0.68748z" fill="#676767"/>
 </g>
 <g id="inactive-center" transform="matrix(1.0909 0 0 1.0909 -3.2727 0)">
  <rect x="69" width="22" height="22" opacity=".001"/>
  <path d="m76.336 7.3335h0.91631c0.0095-1.1e-4 0.01905-4.217e-4 0.02864 0 0.23361 0.010267 0.4672 0.11786 0.62996 0.28645l2.0903 2.0911 2.119-2.0911c0.24339-0.21129 0.40929-0.28003 0.62996-0.28645h0.9163v0.91664c0 0.26259-0.03147 0.50475-0.22908 0.68748l-2.0903 2.0911 2.0617 2.0624c0.17244 0.17248 0.2577 0.41565 0.25771 0.65884v0.91664h-0.91631c-0.2431-9e-6 -0.48618-0.08534-0.65859-0.2578l-2.0903-2.0911-2.0903 2.0911c-0.17242 0.1725-0.41551 0.2578-0.65859 0.2578h-0.91631v-0.91664c-3e-6 -0.24318 0.08527-0.48635 0.25771-0.65884l2.0903-2.0624-2.0903-2.0911c-0.1931-0.17841-0.27779-0.43013-0.25771-0.68748z" fill="#676767" opacity=".7"/>
 </g>
 <g id="deactivated-center" transform="matrix(1.0909 0 0 1.0909 -4.3636 0)">
  <rect x="92" width="22" height="22" opacity=".001"/>
  <path d="m99.336 7.3335h0.9163c0.01-1.1e-4 0.0191-4.217e-4 0.0286 0 0.23361 0.010267 0.4672 0.11786 0.62996 0.28645l2.0903 2.0911 2.119-2.0911c0.24339-0.21129 0.40929-0.28003 0.62996-0.28645h0.91635v0.91664c0 0.26259-0.0314 0.50475-0.22908 0.68748l-2.0903 2.0911 2.0617 2.0624c0.17244 0.17248 0.25771 0.41565 0.25772 0.65884v0.91664h-0.91631c-0.24309-9e-6 -0.48618-0.08534-0.65859-0.2578l-2.0903-2.0911-2.0903 2.0911c-0.17242 0.1725-0.41551 0.2578-0.6586 0.2578h-0.9163v-0.91664c-3e-6 -0.24318 0.08527-0.48635 0.25771-0.65884l2.0903-2.0624-2.0903-2.0911c-0.1931-0.17841-0.27779-0.43013-0.25771-0.68748z" fill="#676767" opacity=".7"/>
 </g>
 <g id="hover-center" transform="matrix(1.0909 0 0 1.0909 -1.0909 0)">
  <rect x="23" width="22" height="22" opacity=".001"/>
  <circle cx="34" cy="11" r="11" opacity=".07"/>
  <path d="m30.336 7.3335h0.91631c0.0095-1.1e-4 0.01905-4.217e-4 0.02864 0 0.23361 0.010267 0.4672 0.11786 0.62996 0.28645l2.0903 2.0911 2.119-2.0911c0.24339-0.21129 0.40929-0.28003 0.62996-0.28645h0.9163v0.91664c0 0.26259-0.03147 0.50475-0.22908 0.68748l-2.0903 2.0911 2.0617 2.0624c0.17244 0.17248 0.2577 0.41565 0.25771 0.65884v0.91664h-0.91631c-0.2431-9e-6 -0.48618-0.08534-0.6586-0.2578l-2.0903-2.0911-2.0903 2.0911c-0.17242 0.1725-0.41551 0.2578-0.6586 0.2578h-0.91631v-0.91664c-3e-6 -0.24318 0.08527-0.48635 0.25771-0.65884l2.0903-2.0624-2.0903-2.0911c-0.1931-0.17841-0.27779-0.43013-0.25771-0.68748z" fill="#676767"/>
 </g>
</svg>
