<?xml version="1.0" encoding="UTF-8"?>
<svg width="24" height="24" version="1.1" xmlns="http://www.w3.org/2000/svg">
 <g id="active-center" transform="scale(1.0909)">
  <rect width="22" height="22" opacity=".001"/>
  <path transform="scale(.91667)" d="m12 8c-1.2705 9.552e-4 -2.5765 0.80214-3 2h3c0.55228 0 1 0.44772 1 1s-0.44772 1-1 1h-1v2h1c1.6569 0 3-1.3431 3-3 0-1.6569-1.3431-3-3-3zm-1 7v1h2v-1z" fill="#676767"/>
 </g>
 <g id="pressed-center">
  <path d="m60 8c-1.2705 9.55e-4 -2.5765 0.80214-3 2h3c0.55228 0 1 0.44772 1 1s-0.44772 1-1 1h-1v2h1c1.6569 0 3-1.3431 3-3s-1.3431-3-3-3zm-1 7v1h2v-1z" fill="#676767"/>
  <rect x="48" width="24" height="24" opacity=".001"/>
  <circle cx="60" cy="12" r="12" opacity=".16"/>
 </g>
 <g id="hover-center">
  <rect x="24" width="24" height="24" opacity=".001"/>
  <circle cx="36" cy="12" r="12" opacity=".07"/>
  <path d="m36 8c-1.2705 9.551e-4 -2.5765 0.80214-3 2h3c0.55228 0 1 0.44772 1 1s-0.44772 1-1 1h-1v2h1c1.6569 0 3-1.3431 3-3 0-1.6569-1.3431-3-3-3zm-1 7v1h2v-1z" fill="#676767"/>
 </g>
 <g id="deactivated-center">
  <rect x="96" width="24" height="24" opacity=".001"/>
  <path d="m108 8c-1.2705 9.55e-4 -2.5765 0.80214-3 2h3c0.55228 0 1 0.44772 1 1s-0.44772 1-1 1h-1v2h1c1.6568 0 3-1.3431 3-3 0-1.6569-1.3432-3-3-3zm-1 7v1h2v-1z" fill="#676767" opacity=".7"/>
 </g>
 <g id="inactive-center">
  <rect x="72" width="24" height="24" opacity=".001"/>
  <path d="m84 8c-1.2705 9.551e-4 -2.5765 0.80214-3 2h3c0.55228 0 1 0.44772 1 1s-0.44772 1-1 1h-1v2h1c1.6569 0 3-1.3431 3-3 0-1.6569-1.3431-3-3-3zm-1 7v1h2v-1z" fill="#676767" opacity=".7"/>
 </g>
</svg>
