<?xml version="1.0" encoding="UTF-8"?>
<svg width="24" height="24" version="1.1" xmlns="http://www.w3.org/2000/svg">
 <g id="pressed-center" transform="matrix(1.0909 0 0 1.0909 -2.1818 0)">
  <g transform="translate(46)">
   <rect width="22" height="22" opacity=".001"/>
  </g>
  <circle cx="57" cy="11" r="11" opacity=".16"/>
  <path d="m53.333 14.667h7.3333v-1.8333h-7.3333z" fill="#676767"/>
 </g>
 <g id="hover-center" transform="matrix(1.0909 0 0 1.0909 -1.0909 0)">
  <g transform="translate(23)">
   <rect width="22" height="22" opacity=".001"/>
  </g>
  <circle cx="34" cy="11" r="11" opacity=".07"/>
  <path d="m30.333 14.667h7.3333v-1.8333h-7.3333z" fill="#676767"/>
 </g>
 <g id="active-center" transform="scale(1.0909)">
  <rect width="22" height="22" opacity=".001"/>
  <path d="m7.3334 12.833v1.8333h7.3333v-1.8333z" fill="#676767"/>
 </g>
 <g id="inactive-center" transform="matrix(1.0909 0 0 1.0909 72 0)">
  <rect width="22" height="22" opacity=".001"/>
  <path d="m7.3334 12.833v1.8333h7.3333v-1.8333z" fill="#676767" opacity=".7"/>
 </g>
 <g id="deactivated-center" transform="matrix(1.0909 0 0 1.0909 96 0)">
  <rect width="22" height="22" opacity=".001"/>
  <path d="m7.3334 12.833v1.8333h7.3333v-1.8333z" fill="#676767" opacity=".7"/>
 </g>
</svg>
