<?xml version="1.0" encoding="UTF-8"?>
<svg width="228" height="84" version="1" xmlns="http://www.w3.org/2000/svg">
 <defs id="materia">
  <style id="current-color-scheme" type="text/css">.ColorScheme-Background {color:#181818; } .ColorScheme-ButtonBackground { color:#343434; } .ColorScheme-Highlight { color:#4285f4; } .ColorScheme-Text { color:#dfdfdf; } .ColorScheme-ViewBackground { color:#242424; } .ColorScheme-NegativeText { color:#f44336; } .ColorScheme-PositiveText { color:#4caf50; } .ColorScheme-NeutralText { color:#ff9800; }</style>
 </defs>
 <g id="center">
  <rect class="ColorScheme-Background" x="7" y="27" width="50" height="50" fill="currentColor"/>
 </g>
 <g id="topleft" transform="translate(-183 -232)">
  <path class="ColorScheme-Background" d="m190 252v7h-7v-2c0-2.77 2.23-5 5-5z" fill="currentColor"/>
 </g>
 <g id="left" transform="translate(-183 -232)">
  <path class="ColorScheme-Background" d="m183 259v50l7 1e-5v-50z" fill="currentColor"/>
 </g>
 <g id="right" transform="translate(-183 -232)">
  <path class="ColorScheme-Background" d="m247 259v50l-7 1e-5v-50z" fill="currentColor"/>
 </g>
 <g id="bottomleft" transform="translate(-183 -232)">
  <path class="ColorScheme-Background" d="m190 316v-7h-7v2c0 2.77 2.23 5 5 5z" fill="currentColor"/>
 </g>
 <g id="bottom" transform="translate(-183 -232)">
  <path class="ColorScheme-Background" d="m190 316h50v-7h-50z" fill="currentColor"/>
 </g>
 <g id="bottomright" transform="translate(-183 -232)">
  <path class="ColorScheme-Background" d="m240 316v-7h7v2c0 2.77-2.23 5-5 5z" fill="currentColor"/>
 </g>
 <g id="topright" transform="translate(-183 -232)">
  <path class="ColorScheme-Background" d="m240 252v7h7v-2c0-2.77-2.23-5-5-5z" fill="currentColor"/>
 </g>
 <g id="top" transform="translate(-183 -232)">
  <path class="ColorScheme-Background" d="m190 252h50v7h-50z" fill="currentColor"/>
 </g>
 <rect id="hint-top-margin" x="29" y="27" width="4" height="10" fill="#f0f"/>
 <rect id="hint-bottom-margin" x="29" y="67" width="4" height="10" fill="#f0f"/>
 <rect id="hint-left-margin" x="7" y="49" width="10" height="4" fill="#f0f"/>
 <rect id="hint-right-margin" x="47" y="49" width="10" height="4" fill="#f0f"/>
 <rect id="hint-tile-center" y="2" width="5" height="5" fill="#f0f"/>
 <rect id="mask-center" x="79" y="27" width="50" height="50"/>
 <path id="mask-topleft" d="m79 20v7h-7v-2c0-2.77 2.23-5 5-5z"/>
 <path id="mask-left" d="m72 27v50l7 1e-5v-50z"/>
 <path id="mask-right" d="m136 27v50l-7 1e-5v-50z"/>
 <path id="mask-bottomleft" d="m79 84v-7h-7v2c0 2.77 2.23 5 5 5z"/>
 <path id="mask-bottom" d="m79 84h50v-7h-50z"/>
 <path id="mask-bottomright" d="m129 84v-7h7v2c0 2.77-2.23 5-5 5z"/>
 <path id="mask-topright" d="m129 20v7h7v-2c0-2.77-2.23-5-5-5z"/>
 <path id="mask-top" d="m79 20h50v7h-50z"/>
</svg>
