<?xml version="1.0" encoding="UTF-8"?>
<svg width="88" height="110" version="1.0" xmlns="http://www.w3.org/2000/svg">
 <g id="S">
  <rect width="22" height="22" opacity=".01"/>
  <path d="m11 2a1.0001 1.0001 0 0 0-0.98047 0.80469l-3 15a1.0001 1.0001 0 0 0 1.5352 1.0273l2.4453-1.6309 2.4453 1.6309a1.0001 1.0001 0 0 0 1.5352-1.0273l-3-15a1.0001 1.0001 0 0 0-0.98047-0.80469z" fill="#dfdfdf"/>
 </g>
 <g id="SSW">
  <rect x="22" width="22" height="22" opacity=".01"/>
  <path d="m35.996 2.6133a1.0001 1.0001 0 0 0-0.76562 0.44141l-8.5117 12.709a1.0001 1.0001 0 0 0 1.0254 1.5371l2.8828-0.57031 1.6348 2.4434a1.0001 1.0001 0 0 0 1.8125-0.36328l2.9688-15.006a1.0001 1.0001 0 0 0-1.0469-1.1914z" fill="#dfdfdf"/>
 </g>
 <g id="SW">
  <rect x="44" width="22" height="22" opacity=".01"/>
  <path d="m60.979 4.4004a1.0001 1.0001 0 0 0-0.87695 0.11328l-12.729 8.4863a1.0001 1.0001 0 0 0 0.35938 1.8125l2.8809 0.57617 0.57812 2.8809a1.0001 1.0001 0 0 0 1.8125 0.35938l8.4844-12.729a1.0001 1.0001 0 0 0-0.50976-1.5z" fill="#dfdfdf"/>
 </g>
 <g id="WSW">
  <rect x="66" width="22" height="22" opacity=".01"/>
  <path d="m84.195 6.9609-15.006 2.9688a1.0001 1.0001 0 0 0-0.36328 1.8125l2.4434 1.6348-0.57031 2.8828a1.0001 1.0001 0 0 0 1.5371 1.0254l12.709-8.5117a1.0001 1.0001 0 0 0-0.75-1.8125z" fill="#dfdfdf"/>
 </g>
 <g id="W">
  <rect y="22" width="22" height="22" opacity=".01"/>
  <path d="m4.1934 29.023a1.0001 1.0001 0 0 0-1.0273 1.5371l1.6289 2.4453-1.6289 2.4453a1.0001 1.0001 0 0 0 1.0273 1.5352l15-3a1.0001 1.0001 0 0 0 0-1.9629z" fill="#dfdfdf"/>
 </g>
 <g id="N">
  <rect y="44" width="22" height="22" opacity=".01"/>
  <path d="m14.188 47.021a1.0001 1.0001 0 0 0-0.75 0.14844l-2.4453 1.6309-2.4453-1.6309a1.0001 1.0001 0 0 0-1.5352 1.0293l3 15a1.0001 1.0001 0 0 0 1.9609 0l3-15a1.0001 1.0001 0 0 0-0.78516-1.1777z" fill="#dfdfdf"/>
 </g>
 <g id="E">
  <rect y="66" width="22" height="22" opacity=".01"/>
  <path d="m17.799 73.016-15 3a1.0001 1.0001 0 0 0 0 1.9629l15 3a1.0001 1.0001 0 0 0 1.0273-1.5352l-1.6289-2.4453 1.6289-2.4453a1.0001 1.0001 0 0 0-1.0273-1.5371z" fill="#dfdfdf"/>
 </g>
 <g id="ESE">
  <rect x="22" y="66" width="22" height="22" opacity=".01"/>
  <path d="m25.799 72.955a1.0001 1.0001 0 0 0-0.75 1.8105l12.711 8.5137a1.0001 1.0001 0 0 0 1.5371-1.0254l-0.57031-2.8828 2.4414-1.6367a1.0001 1.0001 0 0 0-0.36133-1.8105z" fill="#dfdfdf"/>
 </g>
 <g id="SE">
  <rect x="44" y="66" width="22" height="22" opacity=".01"/>
  <path d="m49.896 70.508a1.0001 1.0001 0 0 0-1.3867 1.3867l8.4844 12.729a1.0001 1.0001 0 0 0 1.8125-0.35742l0.57617-2.8828 2.8828-0.57617a1.0001 1.0001 0 0 0 0.35742-1.8125z" fill="#dfdfdf"/>
 </g>
 <g id="SSE">
  <rect x="66" y="66" width="22" height="22" opacity=".01"/>
  <path d="m73.555 68.684a1.0001 1.0001 0 0 0-0.59766 1.1172l2.9688 15.008a1.0001 1.0001 0 0 0 1.8125 0.36133l1.6348-2.4414 2.8828 0.57031a1.0001 1.0001 0 0 0 1.0254-1.5371l-8.5117-12.711a1.0001 1.0001 0 0 0-1.2148-0.36719z" fill="#dfdfdf"/>
 </g>
 <g id="NNE">
  <rect x="22" y="44" width="22" height="22" opacity=".01"/>
  <path d="m32.703 46.404a1.0001 1.0001 0 0 0-0.78516 0.78711l-2.9688 15.006a1.0001 1.0001 0 0 0 1.8125 0.75l8.5117-12.709a1.0001 1.0001 0 0 0-1.0254-1.5371l-2.8828 0.57031-1.6348-2.4434a1.0001 1.0001 0 0 0-1.0273-0.42383z" fill="#dfdfdf"/>
 </g>
 <g id="NE">
  <rect x="44" y="44" width="22" height="22" opacity=".01"/>
  <path d="m58.016 46.947a1.0001 1.0001 0 0 0-1.0273 0.42578l-8.4844 12.729a1.0001 1.0001 0 0 0 1.3867 1.3867l12.729-8.4863a1.0001 1.0001 0 0 0-0.35938-1.8125l-2.8809-0.57617-0.57812-2.8809a1.0001 1.0001 0 0 0-0.78516-0.78516z" fill="#dfdfdf"/>
 </g>
 <g id="ENE">
  <rect x="66" y="44" width="22" height="22" opacity=".01"/>
  <path d="m82.506 48.566a1.0001 1.0001 0 0 0-0.75 0.15039l-12.709 8.5117a1.0001 1.0001 0 0 0 0.75 1.8125l15.006-2.9688a1.0001 1.0001 0 0 0 0.36328-1.8125l-2.4434-1.6348 0.57031-2.8828a1.0001 1.0001 0 0 0-0.78711-1.1758z" fill="#dfdfdf"/>
 </g>
 <g id="WNW">
  <rect x="22" y="22" width="22" height="22" opacity=".01"/>
  <path d="m27.121 26.723a1.0001 1.0001 0 0 0-0.42578 1.0254l0.57031 2.8828-2.4414 1.6367a1.0001 1.0001 0 0 0 0.36133 1.8105l15.008 2.9688a1.0001 1.0001 0 0 0 0.75-1.8105l-12.711-8.5117a1.0001 1.0001 0 0 0-1.1113-2e-3z" fill="#dfdfdf"/>
 </g>
 <g id="NW">
  <rect x="44" y="22" width="22" height="22" opacity=".01"/>
  <path d="m51.971 24.953a1.0001 1.0001 0 0 0-0.78516 0.78516l-0.57617 2.8809-2.8828 0.57617a1.0001 1.0001 0 0 0-0.35742 1.8125l12.727 8.4863a1.0001 1.0001 0 0 0 1.3867-1.3867l-8.4844-12.729a1.0001 1.0001 0 0 0-1.0273-0.42578z" fill="#dfdfdf"/>
 </g>
 <g id="NNW">
  <rect x="66" y="22" width="22" height="22" opacity=".01"/>
  <path d="m77.281 24.408a1.0001 1.0001 0 0 0-1.0273 0.42383l-1.6348 2.4414-2.8828-0.57031a1.0001 1.0001 0 0 0-1.0254 1.5371l8.5117 12.711a1.0001 1.0001 0 0 0 1.8125-0.75l-2.9688-15.008a1.0001 1.0001 0 0 0-0.78516-0.78516z" fill="#dfdfdf"/>
 </g>
</svg>
