<?xml version="1.0" encoding="UTF-8"?>
<svg width="128" height="70" version="1" xmlns="http://www.w3.org/2000/svg" xmlns:xlink="http://www.w3.org/1999/xlink">
 <defs>
  <linearGradient id="linearGradient4209">
   <stop offset="0"/>
   <stop stop-opacity="0" offset="1"/>
  </linearGradient>
  <radialGradient id="radialGradient4201" cx="63.894" cy="61.058" r="9" gradientTransform="matrix(-6.1375e-7 1.2222 -1.2222 -6.256e-7 142.63 -21.092)" gradientUnits="userSpaceOnUse" xlink:href="#linearGradient4209"/>
  <radialGradient id="radialGradient4203" cx="-31.636" cy="8.519" r="8.182" gradientTransform="matrix(0 1.5888 -1.1 0 20.371 94.264)" gradientUnits="userSpaceOnUse" xlink:href="#linearGradient4209"/>
  <radialGradient id="radialGradient4205" cx="27" cy="43.961" r="13" gradientTransform="matrix(6.1944e-8 1.3846 -1.1538 5.162e-8 77.724 12.615)" gradientUnits="userSpaceOnUse" xlink:href="#linearGradient4209"/>
  <radialGradient id="radialGradient4207" cx="-32.298" cy="8.715" r="8.125" gradientTransform="matrix(0 2.2153 -1.6 0 29.944 88.55)" gradientUnits="userSpaceOnUse" xlink:href="#linearGradient4209"/>
  <radialGradient id="radialGradient4231" cx="25.188" cy="82.744" r="13" gradientTransform="matrix(-9.7841e-8 1.3846 -1.2308 -8.697e-8 127.84 52.125)" gradientUnits="userSpaceOnUse" xlink:href="#linearGradient4209"/>
  <radialGradient id="radialGradient4233" cx="68" cy="90.554" r="9" gradientTransform="matrix(-1.0678e-6 1.2222 -1.2222 -1.0678e-6 178.68 10.889)" gradientUnits="userSpaceOnUse" xlink:href="#linearGradient4209"/>
  <radialGradient id="radialGradient4189" cx="25.188" cy="82.744" r="13" gradientTransform="matrix(-9.7841e-8 1.3846 -1.2308 -8.697e-8 180.84 -19.875)" gradientUnits="userSpaceOnUse" xlink:href="#linearGradient4209"/>
  <radialGradient id="radialGradient4193" cx="27" cy="43.961" r="13" gradientTransform="matrix(6.1944e-8 1.3846 -1.1538 5.162e-8 98.724 -22.385)" gradientUnits="userSpaceOnUse" xlink:href="#linearGradient4209"/>
  <radialGradient id="radialGradient4197" cx="63.894" cy="61.058" r="9" gradientTransform="matrix(-6.1375e-7 1.2222 -1.2222 -6.256e-7 117.63 -34.592)" gradientUnits="userSpaceOnUse" xlink:href="#linearGradient4209"/>
  <radialGradient id="radialGradient4202" cx="68" cy="90.554" r="9" gradientTransform="matrix(-1.0678e-6 1.2222 -1.2222 -1.0678e-6 185.68 -39.611)" gradientUnits="userSpaceOnUse" xlink:href="#linearGradient4209"/>
  <radialGradient id="radialGradient943" cx="27" cy="43.961" r="13" gradientTransform="matrix(6.1944e-8 1.3846 -1.1538 5.162e-8 162.72 -22.385)" gradientUnits="userSpaceOnUse" xlink:href="#linearGradient4209"/>
  <radialGradient id="radialGradient961" cx="63.894" cy="61.058" r="9" gradientTransform="matrix(-6.1375e-7 1.2222 -1.2222 -6.256e-7 181.63 -34.592)" gradientUnits="userSpaceOnUse" xlink:href="#linearGradient4209"/>
 </defs>
 <g id="normal" transform="matrix(1.6,0,0,1.6,67.344,3.056)">
  <rect x="-42.09" y="-1.91" width="20" height="20" opacity=".001"/>
  <path transform="matrix(.625 0 0 .625 -42.09 -1.91)" d="m28.99 16.496a13 13 0 0 1-12.99 12.504 13 13 0 0 1-12.99-12.496 13 13 0 0 0-0.0097656 0.49609 13 13 0 0 0 13 13 13 13 0 0 0 13-13 13 13 0 0 0-0.009766-0.50391z" fill="url(#radialGradient4207)"/>
  <circle transform="matrix(1.0156 0 0 1.0156 .40985 -.035)" cx="-32" cy="8" r="8" fill="#fff" opacity=".08"/>
  <path transform="matrix(.625 0 0 .625 -48.965 -1.91)" d="M 27,3 A 13,13 0 0 0 14,16 13,13 0 0 0 14.021484,16.580078 13,13 0 0 1 27,4 13,13 0 0 1 39.978516,16.419922 13,13 0 0 0 40,16 13,13 0 0 0 27,3 Z" fill="#fff" opacity=".05"/>
 </g>
 <g id="22-22-normal" transform="matrix(1.1,0,0,1.1,46.299,34.101)">
  <rect x="-42.09" y="-1.91" width="20" height="20" opacity=".001"/>
  <path transform="matrix(.90909 0 0 .90909 -42.09 -31.001)" d="m19.996 43.252a9 9 0 0 1-8.9961 8.748 9 9 0 0 1-8.9961-8.7383 9 9 0 0 0-0.0039062 0.23828 9 9 0 0 0 9 9 9 9 0 0 0 9-9 9 9 0 0 0-0.003906-0.24805z" fill="url(#radialGradient4203)"/>
  <path transform="matrix(1.0227 0 0 1.0227 .63712 -.091818)" d="m-24 8a8 8 0 0 1-8 8 8 8 0 0 1-8-8 8 8 0 0 1 8-8 8 8 0 0 1 8 8z" fill="#fff" opacity=".08"/>
  <path transform="matrix(.90909 0 0 .90909 -93.908 -11.91)" d="m68 13a9 9 0 0 0-9 9 9 9 0 0 0 0.0098 0.28711 9 9 0 0 1 8.9902-8.7871 9 9 0 0 1 8.9902 8.7129 9 9 0 0 0 0.009766-0.21289 9 9 0 0 0-9-9z" fill="#fff" opacity=".05"/>
 </g>
 <g id="hover" transform="translate(21,-34)">
  <rect x="11" y="34" width="32" height="32" opacity=".001"/>
  <path d="m39.979 50.42a13 13 0 0 1-0.08398 1.0137 13 13 0 0 1-0.05859 0.47852 13 13 0 0 1-0.14648 0.78906 13 13 0 0 1-0.11328 0.49805 13 13 0 0 1-0.22266 0.76562 13 13 0 0 1-0.15625 0.46484 13 13 0 0 1-0.29297 0.73242 13 13 0 0 1-0.22266 0.49024 13 13 0 0 1-0.3418 0.6543 13 13 0 0 1-0.27734 0.48047 13 13 0 0 1-0.41406 0.62891 13 13 0 0 1-0.32031 0.44531 13 13 0 0 1-0.47266 0.58203 13 13 0 0 1-0.36719 0.41211 13 13 0 0 1-0.51562 0.51953 13 13 0 0 1-0.41992 0.39062 13 13 0 0 1-0.55664 0.45703 13 13 0 0 1-0.4668 0.35352 13 13 0 0 1-0.58789 0.39062 13 13 0 0 1-0.50195 0.30664 13 13 0 0 1-0.64648 0.34375 13 13 0 0 1-0.49609 0.23828 13 13 0 0 1-0.68945 0.28125 13 13 0 0 1-0.53906 0.19531 13 13 0 0 1-0.66602 0.19727 13 13 0 0 1-0.5918 0.15039 13 13 0 0 1-0.69531 0.13086 13 13 0 0 1-0.57812 0.08594 13 13 0 0 1-0.70898 0.0625 13 13 0 0 1-0.82813 0.041013 13 13 0 0 1-1.2969-0.066406 13 13 0 0 1-11.682-12.354 13 13 0 0 0-0.021484 0.41992 13 13 0 0 0 0.025391 0.49609 13 13 0 0 0-0.025391 0.50391 13 13 0 0 0 13 13 13 13 0 0 0 13-13 13 13 0 0 0-0.019531-0.44531 13 13 0 0 0 0.019531-0.55469 13 13 0 0 0-0.021484-0.58008z" fill="url(#radialGradient4205)"/>
  <path d="M 27,37 A 13,13 0 0 0 14,50 13,13 0 0 0 14.021484,50.580078 13,13 0 0 1 27,38 13,13 0 0 1 39.978516,50.419922 13,13 0 0 0 40,50 13,13 0 0 0 27,37 Z" fill="#fff" opacity=".001"/>
  <path transform="translate(-21,34)" d="m60.984 16.633a13 13 0 0 1-12.984 12.367 13 13 0 0 1-12.984-12.352 13 13 0 0 0-0.015625 0.35156 13 13 0 0 0 13 13 13 13 0 0 0 13-13 13 13 0 0 0-0.015625-0.36719z" fill="url(#radialGradient4193)"/>
  <circle cx="27" cy="50" r="13" fill="#fff" opacity=".08"/>
  <path d="M 27,37 A 13,13 0 0 0 14,50 13,13 0 0 0 14.021484,50.580078 13,13 0 0 1 27,38 13,13 0 0 1 39.978516,50.419922 13,13 0 0 0 40,50 13,13 0 0 0 27,37 Z" fill="#fff" opacity=".05"/>
 </g>
 <g id="focus" transform="translate(53,-71)">
  <path d="m39.979 87.42a13 13 0 0 1-0.08398 1.0137 13 13 0 0 1-0.05859 0.47852 13 13 0 0 1-0.14648 0.78906 13 13 0 0 1-0.11328 0.49805 13 13 0 0 1-0.22266 0.76562 13 13 0 0 1-0.15625 0.46484 13 13 0 0 1-0.29297 0.73242 13 13 0 0 1-0.22266 0.49024 13 13 0 0 1-0.3418 0.6543 13 13 0 0 1-0.27734 0.48047 13 13 0 0 1-0.41406 0.62891 13 13 0 0 1-0.32031 0.44531 13 13 0 0 1-0.47266 0.58203 13 13 0 0 1-0.36719 0.41211 13 13 0 0 1-0.51562 0.51953 13 13 0 0 1-0.41992 0.39062 13 13 0 0 1-0.55664 0.45703 13 13 0 0 1-0.4668 0.35352 13 13 0 0 1-0.58789 0.39062 13 13 0 0 1-0.50195 0.30664 13 13 0 0 1-0.64648 0.34375 13 13 0 0 1-0.49609 0.23828 13 13 0 0 1-0.68945 0.28125 13 13 0 0 1-0.53906 0.19531 13 13 0 0 1-0.66602 0.19727 13 13 0 0 1-0.5918 0.15039 13 13 0 0 1-0.69531 0.13086 13 13 0 0 1-0.57812 0.08594 13 13 0 0 1-0.70898 0.0625 13 13 0 0 1-0.82813 0.041013 13 13 0 0 1-1.2969-0.066406 13 13 0 0 1-11.682-12.354 13 13 0 0 0-0.021484 0.41992 13 13 0 0 0 0.025391 0.49609 13 13 0 0 0-0.025391 0.50391 13 13 0 0 0 13 13 13 13 0 0 0 13-13 13 13 0 0 0-0.019531-0.44531 13 13 0 0 0 0.019531-0.55469 13 13 0 0 0-0.021484-0.58008z" fill="url(#radialGradient4231)"/>
  <rect x="11" y="71" width="32" height="32" opacity=".001"/>
  <path d="M 27,74 A 13,13 0 0 0 14,87 13,13 0 0 0 14.021484,87.580078 13,13 0 0 1 27,75 13,13 0 0 1 39.978516,87.419922 13,13 0 0 0 40,87 13,13 0 0 0 27,74 Z" fill="#fff" opacity=".001"/>
  <path transform="translate(-53,71)" d="m92.984 16.633a13 13 0 0 1-12.984 12.367 13 13 0 0 1-12.984-12.352 13 13 0 0 0-0.015625 0.35156 13 13 0 0 0 13 13 13 13 0 0 0 13-13 13 13 0 0 0-0.015625-0.36719z" fill="url(#radialGradient4189)"/>
  <circle cx="27" cy="87" r="13" fill="#fff" opacity=".08"/>
  <path d="M 27,74 A 13,13 0 0 0 14,87 13,13 0 0 0 14.021484,87.580078 13,13 0 0 1 27,75 13,13 0 0 1 39.978516,87.419922 13,13 0 0 0 40,87 13,13 0 0 0 27,74 Z" fill="#fff" opacity=".05"/>
 </g>
 <g id="22-22-hover" transform="translate(-25,-13)">
  <rect x="57" y="45" width="22" height="22" opacity=".001"/>
  <path d="m76.99 56.213a9 9 0 0 1-0.02734 0.37305 9 9 0 0 1-0.06836 0.69141 9 9 0 0 1-0.0293 0.16602 9 9 0 0 1-0.14258 0.7207 9 9 0 0 1-0.04492 0.16016 9 9 0 0 1-0.21289 0.69141 9 9 0 0 1-0.07422 0.19336 9 9 0 0 1-0.26758 0.63477 9 9 0 0 1-0.09375 0.18555 9 9 0 0 1-0.33398 0.61328 9 9 0 0 1-0.10937 0.16992 9 9 0 0 1-0.37695 0.55664 9 9 0 0 1-0.19141 0.23828 9 9 0 0 1-0.37891 0.45312 9 9 0 0 1-0.19336 0.19726 9 9 0 0 1-0.45898 0.44922 9 9 0 0 1-0.19141 0.16016 9 9 0 0 1-0.49414 0.39258 9 9 0 0 1-0.24023 0.16406 9 9 0 0 1-0.51758 0.33398 9 9 0 0 1-0.25781 0.14063 9 9 0 0 1-0.51367 0.26367 9 9 0 0 1-0.37695 0.1582 9 9 0 0 1-0.44922 0.17578 9 9 0 0 1-0.38476 0.11719 9 9 0 0 1-0.49024 0.13867 9 9 0 0 1-0.38867 0.07617 9 9 0 0 1-0.47461 0.08398 9 9 0 0 1-0.45703 0.044928 9 9 0 0 1-0.49414 0.03711 9 9 0 0 1-0.25586 0.005859 9 9 0 0 1-1.7871-0.17969 9 9 0 0 1-2.5273-0.92383 9 9 0 0 1-0.76758-0.4707 9 9 0 0 1-0.71484-0.54492 9 9 0 0 1-1.252-1.2891 9 9 0 0 1 0-2e-3 9 9 0 0 1-1.9414-5.3027 9 9 0 0 0-0.009766 0.21289 9 9 0 0 0 0.011719 0.25195 9 9 0 0 0-0.011719 0.24805 9 9 0 0 0 9 9 9 9 0 0 0 9-9 9 9 0 0 0-0.0098-0.24805 9 9 0 0 0 0.0098-0.25195 9 9 0 0 0-0.0098-0.28711z" fill="url(#radialGradient4201)"/>
  <path d="m68 47a9 9 0 0 0-9 9 9 9 0 0 0 0.0098 0.28711 9 9 0 0 1 8.9902-8.7871 9 9 0 0 1 8.9902 8.7129 9 9 0 0 0 0.009766-0.21289 9 9 0 0 0-9-9z" fill="#fff" opacity=".001"/>
  <path transform="translate(25,13)" d="m51.994 43.326a9 9 0 0 1-8.9941 8.6738 9 9 0 0 1-8.9922-8.6602 9 9 0 0 0-0.007812 0.16016 9 9 0 0 0 9 9 9 9 0 0 0 9-9 9 9 0 0 0-0.005859-0.17383z" fill="url(#radialGradient4197)"/>
  <circle cx="68" cy="56" r="9" fill="#fff" opacity=".08"/>
  <path d="m 68,47 a 9,9 0 0 0 -9,9 9,9 0 0 0 0.0098,0.287109 A 9,9 0 0 1 68,47.5 9,9 0 0 1 76.990234,56.212891 9,9 0 0 0 77,56 9,9 0 0 0 68,47 Z" fill="#fff" opacity=".05"/>
 </g>
 <g id="22-22-focus" transform="translate(7 -50)">
  <rect x="57" y="82" width="22" height="22" opacity=".001"/>
  <path d="m76.99 93.213a9 9 0 0 1-0.02734 0.37305 9 9 0 0 1-0.06836 0.69141 9 9 0 0 1-0.0293 0.16602 9 9 0 0 1-0.14258 0.7207 9 9 0 0 1-0.04492 0.16016 9 9 0 0 1-0.21289 0.69141 9 9 0 0 1-0.07422 0.19336 9 9 0 0 1-0.26758 0.63477 9 9 0 0 1-0.09375 0.18555 9 9 0 0 1-0.33398 0.61328 9 9 0 0 1-0.10937 0.16992 9 9 0 0 1-0.37695 0.55664 9 9 0 0 1-0.19141 0.23828 9 9 0 0 1-0.37891 0.45312 9 9 0 0 1-0.19336 0.19726 9 9 0 0 1-0.45898 0.44922 9 9 0 0 1-0.19141 0.16016 9 9 0 0 1-0.49414 0.39258 9 9 0 0 1-0.24023 0.16406 9 9 0 0 1-0.51758 0.33398 9 9 0 0 1-0.25781 0.14063 9 9 0 0 1-0.51367 0.26367 9 9 0 0 1-0.37695 0.1582 9 9 0 0 1-0.44922 0.17578 9 9 0 0 1-0.38476 0.11719 9 9 0 0 1-0.49024 0.13867 9 9 0 0 1-0.38867 0.0762 9 9 0 0 1-0.47461 0.084 9 9 0 0 1-0.45703 0.0449 9 9 0 0 1-0.49414 0.0371 9 9 0 0 1-0.25586 0.00585 9 9 0 0 1-1.7871-0.17969 9 9 0 0 1-2.5273-0.92383 9 9 0 0 1-0.76562-0.4707 9 9 0 0 1-2e-3 0 9 9 0 0 1-1.9668-1.8359 9 9 0 0 1-1.9414-5.3027 9 9 0 0 0-0.009766 0.21289 9 9 0 0 0 0.011719 0.25195 9 9 0 0 0-0.011719 0.24805 9 9 0 0 0 9 9 9 9 0 0 0 9-9 9 9 0 0 0-0.0098-0.24805 9 9 0 0 0 0.0098-0.25195 9 9 0 0 0-0.0098-0.28711z" fill="url(#radialGradient4233)"/>
  <path d="m68 84a9 9 0 0 0-9 9 9 9 0 0 0 0.0098 0.28711 9 9 0 0 1 8.9902-8.7871 9 9 0 0 1 8.9902 8.7129 9 9 0 0 0 0.009766-0.21289 9 9 0 0 0-9-9z" fill="#fff" opacity=".001"/>
  <path transform="translate(-7 50)" d="m83.994 43.326a9 9 0 0 1-8.9941 8.6738 9 9 0 0 1-8.9922-8.6602 9 9 0 0 0-0.007812 0.16016 9 9 0 0 0 9 9 9 9 0 0 0 9-9 9 9 0 0 0-0.005859-0.17383z" fill="url(#radialGradient4202)"/>
  <circle cx="68" cy="93" r="9" fill="#fff" opacity=".08"/>
  <path d="m 68,84 a 9,9 0 0 0 -9,9 9,9 0 0 0 0.0098,0.287109 A 9,9 0 0 1 68,84.5 9,9 0 0 1 76.990234,93.212891 9,9 0 0 0 77,93 9,9 0 0 0 68,84 Z" fill="#fff" opacity=".05"/>
 </g>
 <g id="pressed" transform="translate(85,-34)">
  <rect x="11" y="34" width="32" height="32" opacity=".001"/>
  <path d="m39.979 50.42a13 13 0 0 1-0.08398 1.0137 13 13 0 0 1-0.05859 0.47852 13 13 0 0 1-0.14648 0.78906 13 13 0 0 1-0.11328 0.49805 13 13 0 0 1-0.22266 0.76562 13 13 0 0 1-0.15625 0.46484 13 13 0 0 1-0.29297 0.73242 13 13 0 0 1-0.22266 0.49024 13 13 0 0 1-0.3418 0.6543 13 13 0 0 1-0.27734 0.48047 13 13 0 0 1-0.41406 0.62891 13 13 0 0 1-0.32031 0.44531 13 13 0 0 1-0.47266 0.58203 13 13 0 0 1-0.36719 0.41211 13 13 0 0 1-0.51562 0.51953 13 13 0 0 1-0.41992 0.39062 13 13 0 0 1-0.55664 0.45703 13 13 0 0 1-0.4668 0.35352 13 13 0 0 1-0.58789 0.39062 13 13 0 0 1-0.50195 0.30664 13 13 0 0 1-0.64648 0.34375 13 13 0 0 1-0.49609 0.23828 13 13 0 0 1-0.68945 0.28125 13 13 0 0 1-0.53906 0.19531 13 13 0 0 1-0.66602 0.19727 13 13 0 0 1-0.5918 0.15039 13 13 0 0 1-0.69531 0.13086 13 13 0 0 1-0.57812 0.08594 13 13 0 0 1-0.70898 0.0625 13 13 0 0 1-0.82813 0.041013 13 13 0 0 1-1.2969-0.066406 13 13 0 0 1-11.682-12.354 13 13 0 0 0-0.021484 0.41992 13 13 0 0 0 0.025391 0.49609 13 13 0 0 0-0.025391 0.50391 13 13 0 0 0 13 13 13 13 0 0 0 13-13 13 13 0 0 0-0.019531-0.44531 13 13 0 0 0 0.019531-0.55469 13 13 0 0 0-0.021484-0.58008z" fill="url(#radialGradient4205)"/>
  <path d="M 27,37 A 13,13 0 0 0 14,50 13,13 0 0 0 14.021484,50.580078 13,13 0 0 1 27,38 13,13 0 0 1 39.978516,50.419922 13,13 0 0 0 40,50 13,13 0 0 0 27,37 Z" fill="#fff" opacity=".001"/>
  <path transform="translate(-85,34)" d="m124.98 16.633a13 13 0 0 1-12.984 12.367 13 13 0 0 1-12.984-12.352 13 13 0 0 0-0.015625 0.35156 13 13 0 0 0 13 13 13 13 0 0 0 13-13 13 13 0 0 0-0.01562-0.36719z" fill="url(#radialGradient943)"/>
  <circle cx="27" cy="50" r="13" fill="#fff" opacity=".24"/>
  <path d="M 27,37 A 13,13 0 0 0 14,50 13,13 0 0 0 14.021484,50.580078 13,13 0 0 1 27,38 13,13 0 0 1 39.978516,50.419922 13,13 0 0 0 40,50 13,13 0 0 0 27,37 Z" fill="#fff" opacity=".05"/>
 </g>
 <g id="22-22-pressed" transform="translate(39 -13)">
  <rect x="57" y="45" width="22" height="22" opacity=".001"/>
  <path d="m76.99 56.213a9 9 0 0 1-0.02734 0.37305 9 9 0 0 1-0.06836 0.69141 9 9 0 0 1-0.0293 0.16602 9 9 0 0 1-0.14258 0.7207 9 9 0 0 1-0.04492 0.16016 9 9 0 0 1-0.21289 0.69141 9 9 0 0 1-0.07422 0.19336 9 9 0 0 1-0.26758 0.63477 9 9 0 0 1-0.09375 0.18555 9 9 0 0 1-0.33398 0.61328 9 9 0 0 1-0.10937 0.16992 9 9 0 0 1-0.37695 0.55664 9 9 0 0 1-0.19141 0.23828 9 9 0 0 1-0.37891 0.45312 9 9 0 0 1-0.19336 0.19726 9 9 0 0 1-0.45898 0.44922 9 9 0 0 1-0.19141 0.16016 9 9 0 0 1-0.49414 0.39258 9 9 0 0 1-0.24023 0.16406 9 9 0 0 1-0.51758 0.33398 9 9 0 0 1-0.25781 0.14063 9 9 0 0 1-0.51367 0.26367 9 9 0 0 1-0.37695 0.1582 9 9 0 0 1-0.44922 0.17578 9 9 0 0 1-0.38476 0.11719 9 9 0 0 1-0.49024 0.13867 9 9 0 0 1-0.38867 0.07617 9 9 0 0 1-0.47461 0.08398 9 9 0 0 1-0.45703 0.044928 9 9 0 0 1-0.49414 0.03711 9 9 0 0 1-0.25586 0.005859 9 9 0 0 1-1.7871-0.17969 9 9 0 0 1-2.5273-0.92383 9 9 0 0 1-0.76758-0.4707 9 9 0 0 1-0.71484-0.54492 9 9 0 0 1-1.252-1.2891 9 9 0 0 1 0-2e-3 9 9 0 0 1-1.9414-5.3027 9 9 0 0 0-0.009766 0.21289 9 9 0 0 0 0.011719 0.25195 9 9 0 0 0-0.011719 0.24805 9 9 0 0 0 9 9 9 9 0 0 0 9-9 9 9 0 0 0-0.0098-0.24805 9 9 0 0 0 0.0098-0.25195 9 9 0 0 0-0.0098-0.28711z" fill="url(#radialGradient4201)"/>
  <path d="m68 47a9 9 0 0 0-9 9 9 9 0 0 0 0.0098 0.28711 9 9 0 0 1 8.9902-8.7871 9 9 0 0 1 8.9902 8.7129 9 9 0 0 0 0.009766-0.21289 9 9 0 0 0-9-9z" fill="#fff" opacity=".001"/>
  <path transform="translate(-39 13)" d="m115.99 43.326a9 9 0 0 1-8.9941 8.6738 9 9 0 0 1-8.9922-8.6602 9 9 0 0 0-0.007812 0.16016 9 9 0 0 0 9 9 9 9 0 0 0 9-9 9 9 0 0 0-0.00586-0.17383z" fill="url(#radialGradient961)"/>
  <circle cx="68" cy="56" r="9" fill="#fff" opacity=".24"/>
  <path d="m 68,47 a 9,9 0 0 0 -9,9 9,9 0 0 0 0.0098,0.287109 A 9,9 0 0 1 68,47.5 9,9 0 0 1 76.990234,56.212891 9,9 0 0 0 77,56 9,9 0 0 0 68,47 Z" fill="#fff" opacity=".05"/>
 </g>
 <g id="16-16-normal" transform="translate(-47,10)">
  <rect x="47" y="44" width="16" height="16" opacity=".001"/>
  <path transform="translate(47,-10)" d="m1.0059 62.246a7 7 0 0 0-0.0058594 0.25391 7 7 0 0 0 7 7 7 7 0 0 0 7-7 7 7 0 0 0-0.005859-0.24609 7 7 0 0 1-6.9941 6.7461 7 7 0 0 1-6.9941-6.7539z" opacity=".2"/>
  <circle cx="55" cy="52" r="7" fill="#fff" opacity=".08"/>
  <path d="M 54.90625,45 A 7,7 0 0 0 48,52 7,7 0 0 0 48.005859,52.246094 7,7 0 0 1 55,45.5 7,7 0 0 1 61.994141,52.253906 7,7 0 0 0 62,52 7,7 0 0 0 55,45 7,7 0 0 0 54.90625,45 Z" fill="#fff" opacity=".1"/>
 </g>
 <g id="16-16-hover" transform="translate(-118.14 33.1)">
  <rect x="150.14" y="20.9" width="16" height="16" opacity=".001"/>
  <path transform="translate(118.14 -33.1)" d="m33.02 62.492a7 7 0 0 0-0.019531 0.50781 7 7 0 0 0 7 7 7 7 0 0 0 7-7 7 7 0 0 0-0.019531-0.49219 7 7 0 0 1-6.9805 6.4922 7 7 0 0 1-6.9805-6.5078z" opacity=".2"/>
  <path transform="translate(118.14 -33.1)" d="m33.006 62.246a7 7 0 0 0-0.005859 0.25391 7 7 0 0 0 7 7 7 7 0 0 0 7-7 7 7 0 0 0-0.005859-0.24609 7 7 0 0 1-6.9941 6.7461 7 7 0 0 1-6.9941-6.7539z" opacity=".2"/>
  <circle cx="158.14" cy="28.9" r="7" fill="#fff" opacity=".08"/>
  <path d="m158.04 21.9a7 7 0 0 0-6.9062 7 7 7 0 0 0 6e-3 0.24609 7 7 0 0 1 6.9941-6.7461 7 7 0 0 1 6.9941 6.7539 7 7 0 0 0 6e-3 -0.25391 7 7 0 0 0-7-7 7 7 0 0 0-0.0937 0z" fill="#fff" opacity=".1"/>
 </g>
 <g id="16-16-focus" transform="translate(-86.136 33.1)">
  <rect x="150.14" y="20.9" width="16" height="16" opacity=".001"/>
  <path transform="translate(86.136 -33.1)" d="m65.02 62.492a7 7 0 0 0-0.019531 0.50781 7 7 0 0 0 7 7 7 7 0 0 0 7-7 7 7 0 0 0-0.019531-0.49219 7 7 0 0 1-6.9805 6.4922 7 7 0 0 1-6.9805-6.5078z" opacity=".2"/>
  <path transform="translate(86.136 -33.1)" d="m65.006 62.246a7 7 0 0 0-0.005859 0.25391 7 7 0 0 0 7 7 7 7 0 0 0 7-7 7 7 0 0 0-0.005859-0.24609 7 7 0 0 1-6.9941 6.7461 7 7 0 0 1-6.9941-6.7539z" opacity=".2"/>
  <circle cx="158.14" cy="28.9" r="7" fill="#fff" opacity=".08"/>
  <path d="m158.04 21.9a7 7 0 0 0-6.9062 7 7 7 0 0 0 6e-3 0.24609 7 7 0 0 1 6.9941-6.7461 7 7 0 0 1 6.9941 6.7539 7 7 0 0 0 6e-3 -0.25391 7 7 0 0 0-7-7 7 7 0 0 0-0.0937 0z" fill="#fff" opacity=".1"/>
 </g>
 <g id="16-16-pressed" transform="translate(-54.136 33.1)">
  <rect x="150.14" y="20.9" width="16" height="16" opacity=".001"/>
  <path transform="translate(54.136 -33.1)" d="m97.02 62.492a7 7 0 0 0-0.019531 0.50781 7 7 0 0 0 7 7 7 7 0 0 0 7-7 7 7 0 0 0-0.01953-0.49219 7 7 0 0 1-6.9805 6.4922 7 7 0 0 1-6.9805-6.5078z" opacity=".2"/>
  <path transform="translate(54.136 -33.1)" d="m97.006 62.246a7 7 0 0 0-0.005859 0.25391 7 7 0 0 0 7 7 7 7 0 0 0 7-7 7 7 0 0 0-0.00586-0.24609 7 7 0 0 1-6.9941 6.7461 7 7 0 0 1-6.9941-6.7539z" opacity=".2"/>
  <circle cx="158.14" cy="28.9" r="7" fill="#fff" opacity=".24"/>
  <path d="m158.04 21.9a7 7 0 0 0-6.9062 7 7 7 0 0 0 6e-3 0.24609 7 7 0 0 1 6.9941-6.7461 7 7 0 0 1 6.9941 6.7539 7 7 0 0 0 6e-3 -0.25391 7 7 0 0 0-7-7 7 7 0 0 0-0.0937 0z" fill="#fff" opacity=".1"/>
 </g>
</svg>
