<?xml version="1.0" encoding="UTF-8"?>
<svg width="11" height="10" version="1.1" xmlns="http://www.w3.org/2000/svg">
 <rect id="hint-tile-center" x="2" width="1" height="1" fill="#f0f"/>
 <rect id="hint-bar-size" x="4" width="3" height="3" fill="#f0f"/>
 <path id="bar-inactive-bottomright" d="m10 9v1h1v-1z" fill="#fff" opacity=".12"/>
 <path id="bar-inactive-right" d="m10 7v1h1v-1z" fill="#fff" opacity=".12"/>
 <path id="bar-inactive-topright" d="m10 5v1h1v-1z" fill="#fff" opacity=".12"/>
 <path id="bar-inactive-bottomleft" d="m6 9v1h1v-1z" fill="#fff" opacity=".12"/>
 <path id="bar-inactive-left" d="m6 7v1h1v-1z" fill="#fff" opacity=".12"/>
 <path id="bar-inactive-topleft" d="m7 5h-1v1h1z" fill="#fff" opacity=".12"/>
 <path id="bar-inactive-bottom" d="m8 9v1h1v-1z" fill="#fff" opacity=".12"/>
 <path id="bar-inactive-center" d="m9 7h-1v1h1z" fill="#fff" opacity=".12"/>
 <path id="bar-inactive-top" d="m8 5v1h1v-1z" fill="#fff" opacity=".12"/>
 <path id="bar-active-bottomright" d="m4 9v1h1v-1z" fill="#8ab4f8"/>
 <path id="bar-active-right" d="m4 7v1h1v-1z" fill="#8ab4f8"/>
 <path id="bar-active-topright" d="m4 5v1h1v-1z" fill="#8ab4f8"/>
 <path id="bar-active-bottomleft" d="m0 9v1h1v-1z" fill="#8ab4f8"/>
 <path id="bar-active-left" d="m0 7v1h1v-1z" fill="#8ab4f8"/>
 <path id="bar-active-topleft" d="m1 5h-1v1h1z" fill="#8ab4f8"/>
 <path id="bar-active-bottom" d="m2 9v1h1v-1z" fill="#8ab4f8"/>
 <path id="bar-active-center" d="m3 7h-1v1h1z" fill="#8ab4f8"/>
 <path id="bar-active-top" d="m2 5v1h1v-1z" fill="#8ab4f8"/>
 <rect id="hint-stretch-borders" x="1" width="1" height="1" fill="#f0f"/>
 <rect id="hint-bar-stretch" width="1" height="1" fill="#f0f"/>
</svg>
