<?xml version="1.0" encoding="UTF-8"?>
<svg width="112" height="41" version="1.1" xmlns="http://www.w3.org/2000/svg">
 <rect id="hint-rotation-angle" width="3.704" height="3.704" fill="#f0f"/>
 <g id="22-22-busywidget" transform="matrix(3.7773 0 0 3.7773 -6.968 1.0317)">
  <rect x="6.61" y="4.76" width="5.82" height="5.82" opacity=".001"/>
  <path transform="matrix(.26456 0 0 .26456 0 -.0011762)" d="m36 18a2 2 0 0 0-2 2 2 2 0 0 0 2 2 2 2 0 0 0 2-2 2 2 0 0 0-2-2zm-6.3926 2.6367a2 2 0 0 0-1.3848 0.58594 2 2 0 0 0 0 2.8281 2 2 0 0 0 2.8281 0 2 2 0 0 0 0-2.8281 2 2 0 0 0-1.4434-0.58594zm12.727 0a2 2 0 0 0-1.3848 0.58594 2 2 0 0 0 0 2.8281 2 2 0 0 0 2.8281 0 2 2 0 0 0 0-2.8281 2 2 0 0 0-1.4434-0.58594zm-15.334 6.3633a2 2 0 0 0-2 2 2 2 0 0 0 2 2 2 2 0 0 0 2-2 2 2 0 0 0-2-2zm18 0a2 2 0 0 0-2 2 2 2 0 0 0 2 2 2 2 0 0 0 2-2 2 2 0 0 0-2-2zm-15.393 6.3633a2 2 0 0 0-1.3848 0.58594 2 2 0 0 0 0 2.8281 2 2 0 0 0 2.8281 0 2 2 0 0 0 0-2.8281 2 2 0 0 0-1.4434-0.58594zm12.727 0a2 2 0 0 0-1.3848 0.58594 2 2 0 0 0 0 2.8281 2 2 0 0 0 2.8281 0 2 2 0 0 0 0-2.8281 2 2 0 0 0-1.4434-0.58594zm-6.334 2.6367a2 2 0 0 0-2 2 2 2 0 0 0 2 2 2 2 0 0 0 2-2 2 2 0 0 0-2-2z" fill="#8ab4f8"/>
 </g>
 <g id="16-16-busywidget" transform="matrix(3.7798 0 0 3.7798 0 .99811)">
  <rect y="6.35" width="4.233" height="4.233" opacity=".001"/>
  <path d="m2.1165 6.3482a0.39684 0.39684 0 0 0-0.39684 0.39684 0.39684 0.39684 0 0 0 0.39684 0.39684 0.39684 0.39684 0 0 0 0.39684-0.39684 0.39684 0.39684 0 0 0-0.39684-0.39684zm-1.2215 0.5038a0.39684 0.39684 0 0 0-0.27489 0.11626 0.39684 0.39684 0 0 0 0 0.56115 0.39684 0.39684 0 0 0 0.56115 0 0.39684 0.39684 0 0 0 0-0.56115 0.39684 0.39684 0 0 0-0.28626-0.11626zm2.4317 0a0.39684 0.39684 0 0 0-0.27489 0.11626 0.39684 0.39684 0 0 0 0 0.56115 0.39684 0.39684 0 0 0 0.56115 0 0.39684 0.39684 0 0 0 0-0.56115 0.39684 0.39684 0 0 0-0.28626-0.11626zm-2.9298 1.2158a0.39684 0.39684 0 0 0-0.39684 0.39684 0.39684 0.39684 0 0 0 0.39684 0.39684 0.39684 0.39684 0 0 0 0.39684-0.39684 0.39684 0.39684 0 0 0-0.39684-0.39684zm3.4393 0a0.39684 0.39684 0 0 0-0.39684 0.39684 0.39684 0.39684 0 0 0 0.39684 0.39684 0.39684 0.39684 0 0 0 0.39684-0.39684 0.39684 0.39684 0 0 0-0.39684-0.39684zm-2.9412 1.2158a0.39684 0.39684 0 0 0-0.27489 0.11626 0.39684 0.39684 0 0 0 0 0.56115 0.39684 0.39684 0 0 0 0.56115 0 0.39684 0.39684 0 0 0 0-0.56115 0.39684 0.39684 0 0 0-0.28626-0.11626zm2.4317 0a0.39684 0.39684 0 0 0-0.27489 0.11626 0.39684 0.39684 0 0 0 0 0.56115 0.39684 0.39684 0 0 0 0.56115 0 0.39684 0.39684 0 0 0 0-0.56115 0.39684 0.39684 0 0 0-0.28626-0.11626zm-1.2102 0.5038a0.39684 0.39684 0 0 0-0.39684 0.39684 0.39684 0.39684 0 0 0 0.39684 0.39684 0.39684 0.39684 0 0 0 0.39684-0.39684 0.39684 0.39684 0 0 0-0.39684-0.39684z" fill="#8ab4f8"/>
 </g>
 <g id="busywidget" transform="matrix(7.5597 0 0 7.5597 44 -39.004)">
  <rect y="6.35" width="4.233" height="4.233" opacity=".001"/>
  <path d="m2.1165 6.3482a0.39684 0.39684 0 0 0-0.39684 0.39684 0.39684 0.39684 0 0 0 0.39684 0.39684 0.39684 0.39684 0 0 0 0.39684-0.39684 0.39684 0.39684 0 0 0-0.39684-0.39684zm-1.2215 0.5038a0.39684 0.39684 0 0 0-0.27489 0.11626 0.39684 0.39684 0 0 0 0 0.56115 0.39684 0.39684 0 0 0 0.56115 0 0.39684 0.39684 0 0 0 0-0.56115 0.39684 0.39684 0 0 0-0.28626-0.11626zm2.4317 0a0.39684 0.39684 0 0 0-0.27489 0.11626 0.39684 0.39684 0 0 0 0 0.56115 0.39684 0.39684 0 0 0 0.56115 0 0.39684 0.39684 0 0 0 0-0.56115 0.39684 0.39684 0 0 0-0.28626-0.11626zm-2.9298 1.2158a0.39684 0.39684 0 0 0-0.39684 0.39684 0.39684 0.39684 0 0 0 0.39684 0.39684 0.39684 0.39684 0 0 0 0.39684-0.39684 0.39684 0.39684 0 0 0-0.39684-0.39684zm3.4393 0a0.39684 0.39684 0 0 0-0.39684 0.39684 0.39684 0.39684 0 0 0 0.39684 0.39684 0.39684 0.39684 0 0 0 0.39684-0.39684 0.39684 0.39684 0 0 0-0.39684-0.39684zm-2.9412 1.2158a0.39684 0.39684 0 0 0-0.27489 0.11626 0.39684 0.39684 0 0 0 0 0.56115 0.39684 0.39684 0 0 0 0.56115 0 0.39684 0.39684 0 0 0 0-0.56115 0.39684 0.39684 0 0 0-0.28626-0.11626zm2.4317 0a0.39684 0.39684 0 0 0-0.27489 0.11626 0.39684 0.39684 0 0 0 0 0.56115 0.39684 0.39684 0 0 0 0.56115 0 0.39684 0.39684 0 0 0 0-0.56115 0.39684 0.39684 0 0 0-0.28626-0.11626zm-1.2102 0.5038a0.39684 0.39684 0 0 0-0.39684 0.39684 0.39684 0.39684 0 0 0 0.39684 0.39684 0.39684 0.39684 0 0 0 0.39684-0.39684 0.39684 0.39684 0 0 0-0.39684-0.39684z" fill="#8ab4f8"/>
 </g>
 <g id="stopped" transform="matrix(3.7796 0 0 3.7796 -11.992 .98955)">
  <rect x="24.34" y="2.12" width="8.466" height="8.466" opacity=".001"/>
  <path d="m28.572 2.1153a4.2329 4.2329 0 0 0-4.2329 4.2329 4.2329 4.2329 0 0 0 4.2329 4.2329 4.2329 4.2329 0 0 0 4.2329-4.2329 4.2329 4.2329 0 0 0-4.2329-4.2329zm0 1.5874a2.6456 2.6456 0 0 1 2.6456 2.6456 2.6456 2.6456 0 0 1-2.6456 2.6456 2.6456 2.6456 0 0 1-2.6456-2.6456 2.6456 2.6456 0 0 1 2.6456-2.6456z" fill="#8ab4f8"/>
 </g>
</svg>
