<?xml version="1.0" encoding="UTF-8"?>
<svg width="70" height="64" version="1" xmlns="http://www.w3.org/2000/svg">
 <g id="radiobutton" transform="translate(0,8)">
  <rect y="-8" width="32" height="32" opacity=".001"/>
  <path d="m16-5c-7.1605 0-13 5.8395-13 13 8e-6 7.1605 5.8395 13 13 13 7.1604 0 13-5.8396 13-13s-5.8396-13-13-13zm0 3c5.5428 0 10 4.4572 10 10s-4.4572 10-10 10c-5.5428 0-10-4.4572-10-10 5e-6 -5.5428 4.4572-10 10-10zm0 5a5 5 0 0 0-5 5 5 5 0 0 0 5 5 5 5 0 0 0 5-5 5 5 0 0 0-5-5z" fill="#8ab4f8"/>
 </g>
 <g id="checkbox" transform="translate(0,40)">
  <rect y="-8" width="32" height="32" opacity=".001"/>
  <path d="m6.25-5c-1.8005 0-3.25 1.4495-3.25 3.25v19.5c0 1.8005 1.4495 3.25 3.25 3.25h19.5c1.8005 0 3.25-1.4495 3.25-3.25v-19.5c0-1.8005-1.4495-3.25-3.25-3.25zm15.471 6.0039c1.5654-0.09093 3.1426 1.5562 1.7305 3.2461l-8.9844 10.75-5.7871-4.916c-1.8075-1.5349 0.31831-5.1675 2.5254-3.5879l3.1172 2.2285 5.9473-6.9863c0.40801-0.47947 0.92937-0.70407 1.4512-0.73438z" fill="#8ab4f8"/>
 </g>
 <g id="22-22-radiobutton" transform="translate(27,13)">
  <rect x="5" y="-3" width="22" height="22" opacity=".001"/>
  <path d="m16-1c-4.9572 0-9 4.0428-9 9 6e-6 4.9572 4.0428 9 9 9 4.9572 0 9-4.0428 9-9s-4.0428-9-9-9zm0 2c3.8799 0 7 3.1201 7 7 0 3.8799-3.1201 7-7 7-3.88 0-7-3.12-7-7 3e-6 -3.88 3.12-7 7-7zm0 3a4 4 0 0 0-4 4 4 4 0 0 0 4 4 4 4 0 0 0 4-4 4 4 0 0 0-4-4z" fill="#8ab4f8"/>
 </g>
 <g id="22-22-checkbox" transform="translate(27,45)">
  <rect x="5" y="-3" width="22" height="22" opacity=".001"/>
  <path d="m9.25-1c-1.2465 0-2.25 1.0035-2.25 2.25v13.5c0 1.2465 1.0035 2.25 2.25 2.25h13.5c1.2465 0 2.25-1.0035 2.25-2.25v-13.5c0-1.2465-1.0035-2.25-2.25-2.25zm11.039 4.002c1.1741-0.06494 2.3579 1.1113 1.2988 2.3184l-6.7383 7.6797-4.3398-3.5117c-1.3557-1.0963 0.23727-3.6908 1.8926-2.5625l2.3398 1.5918 4.4609-4.9902c0.30601-0.34248 0.69458-0.50374 1.0859-0.52539z" fill="#8ab4f8"/>
 </g>
 <g id="16-16-checkbox" transform="translate(46,48)">
  <rect x="8" width="16" height="16" opacity=".001"/>
  <path d="m10.75 1c-0.9695 0-1.75 0.7805-1.75 1.75v10.5c0 0.9695 0.7805 1.75 1.75 1.75h10.5c0.9695 0 1.75-0.7805 1.75-1.75v-10.5c0-0.9695-0.7805-1.75-1.75-1.75zm8.8242 3.002c0.97838-0.051955 1.9646 0.8898 1.082 1.8555l-5.6133 6.1426-3.6172-2.8086c-1.1297-0.87708 0.19675-2.9534 1.5762-2.0508l1.9492 1.2734 3.7168-3.9922c0.25501-0.27398 0.58012-0.4026 0.90625-0.41992z" fill="#8ab4f8"/>
 </g>
 <g id="16-16-radiobutton" transform="translate(46,16)">
  <rect x="8" width="16" height="16" opacity=".001"/>
  <path d="m16 1c-3.8556 0-7 3.1444-7 7 4e-6 3.8556 3.1444 7 7 7 3.8556 0 7-3.1444 7-7 0-3.8556-3.1444-7-7-7zm0 2c2.7714 0 5 2.2286 5 5 0 2.7714-2.2286 5-5 5-2.7714 0-5-2.2286-5-5 3e-6 -2.7714 2.2286-5 5-5zm0 2a3 3 0 0 0-3 3 3 3 0 0 0 3 3 3 3 0 0 0 3-3 3 3 0 0 0-3-3z" fill="#8ab4f8"/>
 </g>
</svg>
