<?xml version="1.0" encoding="UTF-8"?>
<svg width="36" height="52" version="1" xmlns="http://www.w3.org/2000/svg">
 <rect id="hint-glow-radius" width="5" height="5" fill="#f0f"/>
 <rect id="hint-stretch-borders" y="8" width="5" height="5" fill="#f0f"/>
 <rect id="center" x="12" y="27" width="12" height="12" opacity=".001"/>
 <rect x="12" y="28" width="12" height="12" opacity=".01"/>
 <g id="topleft" transform="translate(-36,1)" fill="#8ab4f8">
  <path d="m36 27c0-12 12-12 12-12v12z" opacity=".25"/>
  <path d="m39 27c0-9 9-9 9-9v9z" opacity=".5"/>
  <path d="m42 27c0-6 6-6 6-6v6z" opacity=".7"/>
  <path d="m45 27c0-3 3-3 3-3v3z"/>
 </g>
 <g id="left" transform="translate(-36,1)" fill="#8ab4f8">
  <rect transform="matrix(0,1,1,0,0,0)" x="27" y="36" width="12" height="12" opacity=".25"/>
  <rect transform="matrix(0,1,1,0,0,0)" x="27" y="39" width="12" height="9" opacity=".5"/>
  <rect transform="matrix(0,1,1,0,0,0)" x="27" y="42" width="12" height="6" opacity=".7"/>
  <rect transform="matrix(0,1,1,0,0,0)" x="27" y="45" width="12" height="3"/>
 </g>
 <g id="bottomleft" transform="translate(-36,1)" fill="#8ab4f8">
  <path d="m48 51c-12 0-12-12-12-12h12z" opacity=".25"/>
  <path d="m48 48c-9 0-9-9-9-9h9z" opacity=".5"/>
  <path d="m48 45c-6 0-6-6-6-6h6z" opacity=".7"/>
  <path d="m45 39c0 3 3 3 3 3v-3z"/>
 </g>
 <g id="topright" transform="translate(-36,1)" fill="#8ab4f8">
  <path d="m72 27c0-12-12-12-12-12v12z" opacity=".25"/>
  <path d="m69 27c0-9-9-9-9-9v9z" opacity=".5"/>
  <path d="m66 27c0-6-6-6-6-6v6z" opacity=".7"/>
  <path d="m63 27c0-3-3-3-3-3v3z"/>
 </g>
 <g id="bottomright" transform="translate(-36,1)" fill="#8ab4f8">
  <path d="m60 51c12 0 12-12 12-12h-12z" opacity=".25"/>
  <path d="m60 48c9 0 9-9 9-9h-9z" opacity=".5"/>
  <path d="m60 45c6 0 6-6 6-6h-6z" opacity=".7"/>
  <path d="m63 39c0 3-3 3-3 3v-3z"/>
 </g>
 <g id="right" transform="translate(-36,1)" fill="#8ab4f8">
  <rect transform="rotate(90)" x="27" y="-72" width="12" height="12" opacity=".25"/>
  <rect transform="rotate(90)" x="27" y="-69" width="12" height="9" opacity=".5"/>
  <rect transform="rotate(90)" x="27" y="-66" width="12" height="6" opacity=".7"/>
  <rect transform="matrix(0,1,1,0,0,0)" x="27" y="60" width="12" height="3"/>
 </g>
 <g id="top" transform="translate(-36,1)" fill="#8ab4f8">
  <rect x="48" y="15" width="12" height="12" opacity=".25"/>
  <rect x="48" y="18" width="12" height="9" opacity=".5"/>
  <rect x="48" y="21" width="12" height="6" opacity=".7"/>
  <rect transform="scale(-1,1)" x="-60" y="24" width="12" height="3"/>
 </g>
 <g id="bottom" transform="translate(-36,1)" fill="#8ab4f8">
  <rect transform="scale(1,-1)" x="48" y="-51" width="12" height="12" opacity=".25"/>
  <rect transform="scale(1,-1)" x="48" y="-48" width="12" height="9" opacity=".5"/>
  <rect transform="scale(1,-1)" x="48" y="-45" width="12" height="6" opacity=".7"/>
  <rect transform="scale(-1,1)" x="-60" y="39" width="12" height="3"/>
 </g>
</svg>
