<?xml version="1.0" encoding="UTF-8"?>
<svg width="69" height="25" version="1" xmlns="http://www.w3.org/2000/svg">
 <rect id="hint-tile-center" width="2" height="2" rx="0" ry="2" fill="#f0f"/>
 <rect id="separator" transform="scale(1,-1)" x="82" y="29" width="40" height="1" opacity=".001"/>
 <path id="normal-center" d="m29 10v11h11v-11z" opacity=".001"/>
 <path id="normal-right" d="m40 10v11h2c6.68e-4 -0.0184 0-0.0344 0-0.0529v-10.894c0-0.0185 6.68e-4 -0.0345 0-0.0529h-2z" opacity=".001"/>
 <path id="normal-top" d="m29 8.0003v2h11v-2c-0.0041-6.7e-4 0.0042 0 1e-6 0h-10.988c-4e-3 0-8e-3 -6.7e-4 -0.0119 0z" opacity=".001"/>
 <path id="normal-left" d="m27 10c-6.7e-4 0.0183 0 0.0344 0 0.0529v10.894c0 0.0185-6.7e-4 0.0345 0 0.0529h2v-11h-2z" opacity=".001"/>
 <path id="normal-bottom" d="m29 21v2h11v-1.9997z" opacity=".001"/>
 <path id="normal-topleft" d="m27 8.0003v2h1.9998v-2c-7.46e-4 -6.7e-4 7.63e-4 0 0 0h-1.9976c-7.28e-4 0-0.0015-6.7e-4 -0.0022 0z" opacity=".001"/>
 <path id="normal-topright" d="m40 8.0006v1.9997h1.9998v-1.9997c-7.46e-4 -6.7e-4 7.63e-4 0 0 0h-1.9976c-7.28e-4 0-0.0015-6.7e-4 -0.0022 0z" opacity=".001"/>
 <path id="normal-bottomright" d="m40 21v1.9997h1.9998v-1.9997c-7.46e-4 -6.7e-4 7.63e-4 0 0 0h-1.9976c-7.28e-4 0-0.0015-6.7e-4 -0.0022 0z" opacity=".001"/>
 <path id="normal-bottomleft" d="m27 21v1.9997h1.9998v-1.9997c-7.46e-4 -6.7e-4 7.63e-4 0 0 0h-1.9976c-7.28e-4 0-0.0015-6.7e-4 -0.0022 0z" opacity=".001"/>
 <path id="pressed-center" d="m3.9997 10v11h11v-11z" fill="#fff" opacity=".2"/>
 <path id="pressed-right" d="m15 10v11h2c6.68e-4 -0.0183 0-0.0344 0-0.0529v-10.894c0-0.0185 6.68e-4 -0.0345 0-0.0529h-2z" fill="#fff" opacity=".2"/>
 <path id="pressed-top" d="m3.9997 8v2h11v-2c-0.0041-6.7e-4 0.0045 0 3.01e-4 0h-10.988c-4e-3 0-8e-3 -6.7e-4 -0.0119 0z" fill="#fff" opacity=".2"/>
 <path id="pressed-left" d="m2 10c-6.7e-4 0.0183 0 0.0344 0 0.0529v10.894c0 0.0185-6.7e-4 0.0345 0 0.0529h2v-11h-2z" fill="#fff" opacity=".2"/>
 <path id="pressed-bottom" d="m4 21v2h11v-2z" fill="#fff" opacity=".2"/>
 <path id="pressed-topleft" d="m1.9997 8v2h1.9997v-2c-7.45e-4 -6.7e-4 8.18e-4 0 5.5e-5 0h-1.9976c-7.27e-4 0-0.0015-6.7e-4 -0.0022 0z" fill="#fff" opacity=".2"/>
 <path id="pressed-topright" d="m15 8v2h1.9997v-2c-7.45e-4 -6.7e-4 8.18e-4 0 5.5e-5 0h-1.9976c-7.27e-4 0-0.0015-6.7e-4 -0.0022 0z" fill="#fff" opacity=".2"/>
 <path id="pressed-bottomright" d="m15 21v2h1.9997v-2c-7.45e-4 -6.7e-4 8.18e-4 0 5.5e-5 0h-1.9976c-7.27e-4 0-0.0015-6.7e-4 -0.0022 0z" fill="#fff" opacity=".2"/>
 <path id="pressed-bottomleft" d="m2 21v2h1.9997v-2c-7.45e-4 -6.7e-4 8.18e-4 0 5.5e-5 0h-1.9976c-7.27e-4 0-0.0015-6.7e-4 -0.0022 0z" fill="#fff" opacity=".2"/>
 <path id="section-center" d="m54 10v11h11v-11z" fill="#fff" opacity=".1"/>
 <path id="section-right" d="m65 10v11h2c6.68e-4 -0.0183 0-0.0344 0-0.0529v-10.894c0-0.0185 6.68e-4 -0.0345 0-0.0529h-2z" fill="#fff" opacity=".1"/>
 <path id="section-top" d="m54 7.9999v2h11v-2c-0.0041-6.7e-4 0.0042 0 1e-6 0h-10.988c-4e-3 0-8e-3 -6.7e-4 -0.0119 0z" fill="#fff" opacity=".1"/>
 <path id="section-left" d="m52 10c-6.7e-4 0.0183 0 0.0344 0 0.0529v10.894c0 0.0185-6.7e-4 0.0345 0 0.0529h2v-11h-2z" fill="#fff" opacity=".1"/>
 <path id="section-bottom" d="m54 21v2h11v-1.9997z" fill="#fff" opacity=".1"/>
 <path id="section-topleft" d="m52 7.9999v2h1.9998v-2c-7.46e-4 -6.7e-4 7.63e-4 0 0 0h-1.9976c-7.28e-4 0-0.0015-6.7e-4 -0.0022 0z" fill="#fff" opacity=".1"/>
 <path id="section-topright" d="m65 8.0003v1.9997h1.9998v-1.9997c-7.46e-4 -6.7e-4 7.63e-4 0 0 0h-1.9976c-7.28e-4 0-0.0015-6.7e-4 -0.0022 0z" fill="#fff" opacity=".1"/>
 <path id="section-bottomright" d="m65 21v1.9997h1.9998v-1.9997c-7.46e-4 -6.7e-4 7.63e-4 0 0 0h-1.9976c-7.28e-4 0-0.0015-6.7e-4 -0.0022 0z" fill="#fff" opacity=".1"/>
 <path id="section-bottomleft" d="m52 21v1.9997h1.9998v-1.9997c-7.46e-4 -6.7e-4 7.63e-4 0 0 0h-1.9976c-7.28e-4 0-0.0015-6.7e-4 -0.0022 0z" fill="#fff" opacity=".1"/>
 <rect id="section-hint-top-margin" x="59" y="6" width="1" height="4" fill="#f0f"/>
 <rect id="section-hint-left-margin" x="50" y="15" width="4" height="1" fill="#f0f"/>
 <rect id="section-hint-right-margin" x="65" y="15" width="4" height="1" fill="#f0f"/>
 <rect id="section-hint-bottom-margin" x="59" y="21" width="1" height="4" fill="#f0f"/>
 <path id="hover-center" d="m70-70.616v11h11v-11z" opacity=".001"/>
 <path id="hover-right" d="m81-70.616v11h2c6.68e-4 -0.0183 0-0.0344 0-0.0529v-10.894c0-0.0185 6.68e-4 -0.0345 0-0.0529h-2z" opacity=".001"/>
 <path id="hover-top" d="m70-72.616v2h11v-2c-0.0041-6.7e-4 0.0045 0 3.01e-4 0h-10.988c-4e-3 0-8e-3 -6.7e-4 -0.0119 0z" opacity=".001"/>
 <path id="hover-left" d="m68-70.616c-6.7e-4 0.0183 0 0.0344 0 0.0529v10.894c0 0.0185-6.7e-4 0.0345 0 0.0529h2v-11h-2z" opacity=".001"/>
 <path id="hover-bottom" d="m70-59.616v2h11v-2z" opacity=".001"/>
 <path id="hover-topleft" d="m68-72.616v2h1.9997v-2c-7.45e-4 -6.7e-4 8.18e-4 0 5.5e-5 0h-1.9976c-7.27e-4 0-0.0015-6.7e-4 -0.0022 0z" opacity=".001"/>
 <path id="hover-topright" d="m81-72.616v2h1.9997v-2c-7.45e-4 -6.7e-4 8.18e-4 0 5.5e-5 0h-1.9976c-7.27e-4 0-0.0015-6.7e-4 -0.0022 0z" opacity=".001"/>
 <path id="hover-bottomright" d="m81-59.616v2h1.9997v-2c-7.45e-4 -6.7e-4 8.18e-4 0 5.5e-5 0h-1.9976c-7.27e-4 0-0.0015-6.7e-4 -0.0022 0z" opacity=".001"/>
 <path id="hover-bottomleft" d="m68-59.616v2h1.9997v-2c-7.45e-4 -6.7e-4 8.18e-4 0 5.5e-5 0h-1.9976c-7.27e-4 0-0.0015-6.7e-4 -0.0022 0z" opacity=".001"/>
 <rect id="pressed-hint-left-margin" y="15" width="4" height="1" fill="#f0f"/>
 <rect id="pressed-hint-right-margin" x="15" y="15" width="4" height="1" fill="#f0f"/>
 <rect id="pressed-hint-top-margin" x="9" y="6" width="1" height="4" fill="#f0f"/>
 <rect id="pressed-hint-bottom-margin" x="9" y="21" width="1" height="4" fill="#f0f"/>
 <rect id="normal-hint-top-margin" x="34" y="6" width="1" height="4" fill="#f0f"/>
 <rect id="normal-hint-bottom-margin" x="34" y="21" width="1" height="4" fill="#f0f"/>
 <rect id="normal-hint-left-margin" x="25" y="15" width="4" height="1" fill="#f0f"/>
 <rect id="normal-hint-right-margin" x="40" y="15" width="4" height="1" fill="#f0f"/>
</svg>
