<?xml version="1.0" encoding="UTF-8"?>
<svg width="232" height="232" version="1" xmlns="http://www.w3.org/2000/svg" xmlns:xlink="http://www.w3.org/1999/xlink">
 <defs>
  <linearGradient id="linearGradient3837">
   <stop offset="0"/>
   <stop stop-opacity="0" offset="1"/>
  </linearGradient>
  <radialGradient id="radialGradient1125" cx="-24.992" cy="1132.5" r="3.625" gradientTransform="matrix(6.5689e-5 1.3794 1.379 -6.5672e-5 -1556.7 145.55)" gradientUnits="userSpaceOnUse" xlink:href="#linearGradient3837"/>
  <radialGradient id="radialGradient1128" cx="-24.992" cy="1132.5" r="3.625" gradientTransform="matrix(-.00031087 1.3794 -1.379 -.00031078 1614.7 145.82)" gradientUnits="userSpaceOnUse" xlink:href="#linearGradient3837"/>
  <radialGradient id="radialGradient1130" cx="-24.992" cy="1132.5" r="3.625" gradientTransform="matrix(-5.7944e-5 -1.3794 -1.379 5.7929e-5 1614.7 28.461)" gradientUnits="userSpaceOnUse" xlink:href="#linearGradient3837"/>
  <radialGradient id="radialGradient1132" cx="-24.992" cy="1132.5" r="3.625" gradientTransform="matrix(4.4045e-5 -1.3794 1.379 4.4034e-5 -1556.7 28.477)" gradientUnits="userSpaceOnUse" xlink:href="#linearGradient3837"/>
  <linearGradient id="linearGradient1134" x1="-73" x2="-73" y1="1134.4" y2="1139.6" gradientTransform="matrix(1 0 0 .96552 80 -1040.3)" gradientUnits="userSpaceOnUse" xlink:href="#linearGradient3837"/>
  <linearGradient id="linearGradient1136" x1="-73" x2="-73" y1="1134.4" y2="1139.6" gradientTransform="matrix(1 0 0 -.96552 80 1102.3)" gradientUnits="userSpaceOnUse" xlink:href="#linearGradient3837"/>
  <linearGradient id="linearGradient1138" x1="-73" x2="-73" y1="1134.4" y2="1139.6" gradientTransform="matrix(0 -1 -.96552 0 1102.3 -18)" gradientUnits="userSpaceOnUse" xlink:href="#linearGradient3837"/>
  <linearGradient id="linearGradient1140" x1="-73" x2="-73" y1="1134.4" y2="1139.6" gradientTransform="matrix(0 -1 .96552 0 -1040.3 -18)" gradientUnits="userSpaceOnUse" xlink:href="#linearGradient3837"/>
 </defs>
 <g id="yellow-notes" transform="matrix(4,0,0,4,1152,-8)">
  <path transform="translate(2,-56)" d="m0 111v5h5v-2h-2s-1 0-1-1v-2z" fill="url(#radialGradient1125)" opacity=".3"/>
  <path transform="translate(2,-56)" d="m56 111v2c0 1-1 1-1 1h-2v2h5v-5z" fill="url(#radialGradient1128)" opacity=".3"/>
  <path transform="translate(2,-56)" d="m53 58v2h2c1 0 1 1 1 1v2h2v-5z" fill="url(#radialGradient1130)" opacity=".3"/>
  <path transform="translate(2,-56)" d="m0 58v5h2v-2s0-1 1-1h2v-2z" fill="url(#radialGradient1132)" opacity=".3"/>
  <path d="m5 4c-1 0-1 1-1 1v52c0 1 1 1 1 1h52s1 0 1-1v-52s0-1-1-1z" fill="#ffca28"/>
  <path d="m7 58v2h48v-2z" fill="url(#linearGradient1134)" opacity=".3"/>
  <path d="m7 4v-2h48v2z" fill="url(#linearGradient1136)" opacity=".3"/>
  <path d="m4 55h-2v-48h2z" fill="url(#linearGradient1138)" opacity=".3"/>
  <path d="m58 55h2v-48h-2z" fill="url(#linearGradient1140)" opacity=".3"/>
 </g>
 <g id="red-notes" transform="matrix(4,0,0,4,1384,-8)">
  <path transform="translate(2,-56)" d="m0 111v5h5v-2h-2s-1 0-1-1v-2z" fill="url(#radialGradient1125)" opacity=".3"/>
  <path transform="translate(2,-56)" d="m56 111v2c0 1-1 1-1 1h-2v2h5v-5z" fill="url(#radialGradient1128)" opacity=".3"/>
  <path transform="translate(2,-56)" d="m53 58v2h2c1 0 1 1 1 1v2h2v-5z" fill="url(#radialGradient1130)" opacity=".3"/>
  <path transform="translate(2,-56)" d="m0 58v5h2v-2s0-1 1-1h2v-2z" fill="url(#radialGradient1132)" opacity=".3"/>
  <path d="m5 4c-1 0-1 1-1 1v52c0 1 1 1 1 1h52s1 0 1-1v-52s0-1-1-1z" fill="#ef5350"/>
  <path d="m7 58v2h48v-2z" fill="url(#linearGradient1134)" opacity=".3"/>
  <path d="m7 4v-2h48v2z" fill="url(#linearGradient1136)" opacity=".3"/>
  <path d="m4 55h-2v-48h2z" fill="url(#linearGradient1138)" opacity=".3"/>
  <path d="m58 55h2v-48h-2z" fill="url(#linearGradient1140)" opacity=".3"/>
 </g>
 <g id="white-notes" transform="matrix(4,0,0,4,920,-8)">
  <path transform="translate(2,-56)" d="m0 111v5h5v-2h-2s-1 0-1-1v-2z" fill="url(#radialGradient1125)" opacity=".3"/>
  <path transform="translate(2,-56)" d="m56 111v2c0 1-1 1-1 1h-2v2h5v-5z" fill="url(#radialGradient1128)" opacity=".3"/>
  <path transform="translate(2,-56)" d="m53 58v2h2c1 0 1 1 1 1v2h2v-5z" fill="url(#radialGradient1130)" opacity=".3"/>
  <path transform="translate(2,-56)" d="m0 58v5h2v-2s0-1 1-1h2v-2z" fill="url(#radialGradient1132)" opacity=".3"/>
  <path d="m5 4c-1 0-1 1-1 1v52c0 1 1 1 1 1h52s1 0 1-1v-52s0-1-1-1z" fill="#f9f9f9"/>
  <path d="m7 58v2h48v-2z" fill="url(#linearGradient1134)" opacity=".3"/>
  <path d="m7 4v-2h48v2z" fill="url(#linearGradient1136)" opacity=".3"/>
  <path d="m4 55h-2v-48h2z" fill="url(#linearGradient1138)" opacity=".3"/>
  <path d="m58 55h2v-48h-2z" fill="url(#linearGradient1140)" opacity=".3"/>
 </g>
 <g id="black-notes" transform="matrix(4,0,0,4,688,-8)">
  <path transform="translate(2,-56)" d="m0 111v5h5v-2h-2s-1 0-1-1v-2z" fill="url(#radialGradient1125)" opacity=".3"/>
  <path transform="translate(2,-56)" d="m56 111v2c0 1-1 1-1 1h-2v2h5v-5z" fill="url(#radialGradient1128)" opacity=".3"/>
  <path transform="translate(2,-56)" d="m53 58v2h2c1 0 1 1 1 1v2h2v-5z" fill="url(#radialGradient1130)" opacity=".3"/>
  <path transform="translate(2,-56)" d="m0 58v5h2v-2s0-1 1-1h2v-2z" fill="url(#radialGradient1132)" opacity=".3"/>
  <path d="m5 4c-1 0-1 1-1 1v52c0 1 1 1 1 1h52s1 0 1-1v-52s0-1-1-1z" fill="#121212"/>
  <path d="m7 58v2h48v-2z" fill="url(#linearGradient1134)" opacity=".3"/>
  <path d="m7 4v-2h48v2z" fill="url(#linearGradient1136)" opacity=".3"/>
  <path d="m4 55h-2v-48h2z" fill="url(#linearGradient1138)" opacity=".3"/>
  <path d="m58 55h2v-48h-2z" fill="url(#linearGradient1140)" opacity=".3"/>
 </g>
 <g id="blue-notes" transform="matrix(4,0,0,4,456,-8)">
  <path transform="translate(2,-56)" d="m0 111v5h5v-2h-2s-1 0-1-1v-2z" fill="url(#radialGradient1125)" opacity=".3"/>
  <path transform="translate(2,-56)" d="m56 111v2c0 1-1 1-1 1h-2v2h5v-5z" fill="url(#radialGradient1128)" opacity=".3"/>
  <path transform="translate(2,-56)" d="m53 58v2h2c1 0 1 1 1 1v2h2v-5z" fill="url(#radialGradient1130)" opacity=".3"/>
  <path transform="translate(2,-56)" d="m0 58v5h2v-2s0-1 1-1h2v-2z" fill="url(#radialGradient1132)" opacity=".3"/>
  <path d="m5 4c-1 0-1 1-1 1v52c0 1 1 1 1 1h52s1 0 1-1v-52s0-1-1-1z" fill="#1a73e8"/>
  <path d="m7 58v2h48v-2z" fill="url(#linearGradient1134)" opacity=".3"/>
  <path d="m7 4v-2h48v2z" fill="url(#linearGradient1136)" opacity=".3"/>
  <path d="m4 55h-2v-48h2z" fill="url(#linearGradient1138)" opacity=".3"/>
  <path d="m58 55h2v-48h-2z" fill="url(#linearGradient1140)" opacity=".3"/>
 </g>
 <g id="pink-notes" transform="matrix(4,0,0,4,1616,-8)">
  <path transform="translate(2,-56)" d="m0 111v5h5v-2h-2s-1 0-1-1v-2z" fill="url(#radialGradient1125)" opacity=".3"/>
  <path transform="translate(2,-56)" d="m56 111v2c0 1-1 1-1 1h-2v2h5v-5z" fill="url(#radialGradient1128)" opacity=".3"/>
  <path transform="translate(2,-56)" d="m53 58v2h2c1 0 1 1 1 1v2h2v-5z" fill="url(#radialGradient1130)" opacity=".3"/>
  <path transform="translate(2,-56)" d="m0 58v5h2v-2s0-1 1-1h2v-2z" fill="url(#radialGradient1132)" opacity=".3"/>
  <path d="m5 4c-1 0-1 1-1 1v52c0 1 1 1 1 1h52s1 0 1-1v-52s0-1-1-1z" fill="#ec407a"/>
  <path d="m7 58v2h48v-2z" fill="url(#linearGradient1134)" opacity=".3"/>
  <path d="m7 4v-2h48v2z" fill="url(#linearGradient1136)" opacity=".3"/>
  <path d="m4 55h-2v-48h2z" fill="url(#linearGradient1138)" opacity=".3"/>
  <path d="m58 55h2v-48h-2z" fill="url(#linearGradient1140)" opacity=".3"/>
 </g>
 <g id="green-notes" transform="matrix(4,0,0,4,224,-8)">
  <path transform="translate(2,-56)" d="m0 111v5h5v-2h-2s-1 0-1-1v-2z" fill="url(#radialGradient1125)" opacity=".3"/>
  <path transform="translate(2,-56)" d="m56 111v2c0 1-1 1-1 1h-2v2h5v-5z" fill="url(#radialGradient1128)" opacity=".3"/>
  <path transform="translate(2,-56)" d="m53 58v2h2c1 0 1 1 1 1v2h2v-5z" fill="url(#radialGradient1130)" opacity=".3"/>
  <path transform="translate(2,-56)" d="m0 58v5h2v-2s0-1 1-1h2v-2z" fill="url(#radialGradient1132)" opacity=".3"/>
  <path d="m5 4c-1 0-1 1-1 1v52c0 1 1 1 1 1h52s1 0 1-1v-52s0-1-1-1z" fill="#4caf50"/>
  <path d="m7 58v2h48v-2z" fill="url(#linearGradient1134)" opacity=".3"/>
  <path d="m7 4v-2h48v2z" fill="url(#linearGradient1136)" opacity=".3"/>
  <path d="m4 55h-2v-48h2z" fill="url(#linearGradient1138)" opacity=".3"/>
  <path d="m58 55h2v-48h-2z" fill="url(#linearGradient1140)" opacity=".3"/>
 </g>
 <g id="orange-notes" transform="matrix(4,0,0,4,-8,-8)">
  <path transform="translate(2,-56)" d="m0 111v5h5v-2h-2s-1 0-1-1v-2z" fill="url(#radialGradient1125)" opacity=".3"/>
  <path transform="translate(2,-56)" d="m56 111v2c0 1-1 1-1 1h-2v2h5v-5z" fill="url(#radialGradient1128)" opacity=".3"/>
  <path transform="translate(2,-56)" d="m53 58v2h2c1 0 1 1 1 1v2h2v-5z" fill="url(#radialGradient1130)" opacity=".3"/>
  <path transform="translate(2,-56)" d="m0 58v5h2v-2s0-1 1-1h2v-2z" fill="url(#radialGradient1132)" opacity=".3"/>
  <path d="m5 4c-1 0-1 1-1 1v52c0 1 1 1 1 1h52s1 0 1-1v-52s0-1-1-1z" fill="#ff9800"/>
  <path d="m7 58v2h48v-2z" fill="url(#linearGradient1134)" opacity=".3"/>
  <path d="m7 4v-2h48v2z" fill="url(#linearGradient1136)" opacity=".3"/>
  <path d="m4 55h-2v-48h2z" fill="url(#linearGradient1138)" opacity=".3"/>
  <path d="m58 55h2v-48h-2z" fill="url(#linearGradient1140)" opacity=".3"/>
 </g>
</svg>
