<?xml version="1.0" encoding="UTF-8"?>
<svg width="13" height="23" version="1" xmlns="http://www.w3.org/2000/svg">
 <path id="normal-left" d="m9.5e-6 0.999v5h1v-5z" fill="#fff" opacity=".08"/>
 <path id="normal-right" d="m13 0.999v5h-1v-5z" fill="#fff" opacity=".08"/>
 <rect id="normal-bottom" x="1" y="6" width="11" height="1" fill="#fff" opacity=".08"/>
 <path id="normal-top" d="m1-1e-3v1h11v-1z" fill="#fff" opacity=".08"/>
 <path id="hover-left" d="m9.5e-6 8.999v5h1v-5z" fill="#8ab4f8" opacity=".5"/>
 <path id="hover-right" d="m13 8.999v5h-1v-5z" fill="#8ab4f8" opacity=".5"/>
 <path id="hover-top" d="m1 7.999v0.99875h11v-0.99875z" fill="#8ab4f8" opacity=".5"/>
 <path id="active-left" d="m0 16.999v5h1v-5z" fill="#8ab4f8" opacity=".8"/>
 <path id="active-right" d="m13 16.999v5h-1v-5z" fill="#8ab4f8" opacity=".8"/>
 <rect id="active-bottom" x="1" y="22" width="11" height="1.001" fill="#8ab4f8" opacity=".8"/>
 <path id="active-top" d="m1 15.999v1h11v-1z" fill="#8ab4f8" opacity=".8"/>
 <rect id="normal-center" transform="scale(1,-1)" x="1" y="-6" width="11" height="5" fill="#fff" opacity=".08"/>
 <rect id="active-center" transform="scale(1,-1)" x="1" y="-22" width="11" height="5" fill="#8ab4f8" opacity=".8"/>
 <rect id="hover-center" transform="scale(1,-1)" x="1" y="-14" width="11" height="5" fill="#8ab4f8" opacity=".5"/>
 <g id="hover-bottom" transform="matrix(2.2 0 0 .99875 -1.2 -2.4479)">
  <rect x="1" y="16.47" width="5" height="1.001" fill="#8ab4f8" opacity=".5"/>
 </g>
 <path id="hover-bottomleft" d="m9.5e-6 13.999c0 0.55228 0.44772 1 1 1v-1z" fill="#8ab4f8" opacity=".5"/>
 <path id="hover-topleft" d="m9.5e-6 8.999c0-0.55228 0.44772-1 1-1v1z" fill="#8ab4f8" opacity=".5"/>
 <path id="hover-topright" d="m13 8.999c0-0.55228-0.44772-1-1-1v1z" fill="#8ab4f8" opacity=".5"/>
 <path id="hover-bottomright" d="m13 13.999c0 0.55228-0.44772 1-1 1v-1z" fill="#8ab4f8" opacity=".5"/>
 <path id="normal-bottomleft" d="m9.5e-6 5.999c0 0.55228 0.44772 1 1 1v-1z" fill="#fff" opacity=".08"/>
 <path id="normal-topleft" d="m9.5e-6 0.999c0-0.55228 0.44772-1 1-1v1z" fill="#fff" opacity=".08"/>
 <path id="normal-topright" d="m13 0.999c0-0.55228-0.44772-1-1-1v1z" fill="#fff" opacity=".08"/>
 <path id="normal-bottomright" d="m13 5.999c0 0.55228-0.44772 1-1 1v-1z" fill="#fff" opacity=".08"/>
 <path id="active-bottomleft" d="m9.5e-6 21.999c0 0.55228 0.44772 1 1 1v-1z" fill="#8ab4f8" opacity=".8"/>
 <path id="active-topleft" d="m9.5e-6 16.999c0-0.55228 0.44772-1 1-1v1z" fill="#8ab4f8" opacity=".8"/>
 <path id="active-topright" d="m13 16.999c0-0.55228-0.44772-1-1-1v1z" fill="#8ab4f8" opacity=".8"/>
 <path id="active-bottomright" d="m13 21.999c0 0.55228-0.44772 1-1 1v-1z" fill="#8ab4f8" opacity=".8"/>
</svg>
