<?xml version="1.0" encoding="UTF-8"?>
<svg width="220" height="85" version="1" xmlns="http://www.w3.org/2000/svg" xmlns:xlink="http://www.w3.org/1999/xlink">
 <defs>
  <linearGradient id="linearGradient905">
   <stop stop-opacity=".4" offset="0"/>
   <stop stop-opacity="0" offset="1"/>
  </linearGradient>
  <radialGradient id="radialGradient4263" cx="984" cy="905.36" r="8.5" gradientTransform="matrix(-1.6471 -5.6462e-8 5.6464e-8 -1.6471 1773.7 1559.3)" gradientUnits="userSpaceOnUse" xlink:href="#linearGradient905"/>
  <linearGradient id="linearGradient4259" x1="83.6" x2="83.6" y1="-969.36" y2="-955.36" gradientTransform="matrix(.71429 0 0 1 -317.71 1250.4)" gradientUnits="userSpaceOnUse" xlink:href="#linearGradient905"/>
  <radialGradient id="radialGradient3382" cx="984" cy="905.36" r="8.5" gradientTransform="matrix(2.3679e-6 1.6472 -1.647 2.3677e-6 1694.2 -1552.8)" gradientUnits="userSpaceOnUse" xlink:href="#linearGradient905"/>
  <linearGradient id="linearGradient4452" x1="-260" x2="-260" y1="281" y2="295" gradientUnits="userSpaceOnUse" xlink:href="#linearGradient905"/>
  <radialGradient id="radialGradient4255" cx="982.91" cy="906.45" r="8.5" gradientTransform="matrix(1.6471 -3.7716e-6 3.7713e-6 1.6469 -1415.9 -1474.9)" gradientUnits="userSpaceOnUse" xlink:href="#linearGradient905"/>
  <radialGradient id="radialGradient4275" cx="984" cy="905.36" r="8.5" gradientTransform="matrix(3.2746e-6 -1.6469 1.647 3.2748e-6 -1338.2 1638.6)" gradientUnits="userSpaceOnUse" xlink:href="#linearGradient905"/>
  <linearGradient id="linearGradient4385" x1="83.6" x2="83.6" y1="-969.36" y2="-955.36" gradientTransform="matrix(.71429 0 0 1 -317.71 1250.4)" gradientUnits="userSpaceOnUse" xlink:href="#linearGradient905"/>
  <linearGradient id="linearGradient4387" x1="83.6" x2="83.6" y1="-969.36" y2="-955.36" gradientTransform="matrix(.71429 0 0 1 -317.71 1250.4)" gradientUnits="userSpaceOnUse" xlink:href="#linearGradient905"/>
 </defs>
 <path id="shadow-topleft" d="m136 17.999h10v-2c0-2.77 2.23-5 5-5h2v-10h-17z" fill="url(#radialGradient4275)"/>
 <g id="shadow-left" transform="matrix(-1 0 0 1 434 -239)">
  <rect transform="rotate(-90)" x="-307" y="288" width="50" height="10" fill="url(#linearGradient4385)"/>
  <rect transform="translate(3,2)" x="278" y="257" width="7" height="1" opacity=".001"/>
 </g>
 <path id="shadow-bottomright" d="m220 67.999h-10v2c0 2.77-2.23 5-5 5h-2v10h17z" fill="url(#radialGradient3382)"/>
 <g id="shadow-bottom" transform="rotate(90 336.5 123.5)">
  <rect transform="rotate(-90)" x="-307" y="288" width="50" height="10" fill="url(#linearGradient4387)"/>
  <rect transform="translate(3,2)" x="278" y="257" width="7" height="1" opacity=".001"/>
 </g>
 <g id="shadow-right" transform="translate(-78 -239)">
  <rect transform="rotate(-90)" x="-307" y="288" width="50" height="10" fill="url(#linearGradient4452)"/>
  <rect transform="translate(3,2)" x="278" y="257" width="7" height="1" opacity=".001"/>
 </g>
 <g id="shadow-top" transform="matrix(0 -1 -1 0 460 299)">
  <rect transform="rotate(-90)" x="-307" y="288" width="50" height="10" fill="url(#linearGradient4259)"/>
  <rect transform="translate(3,2)" x="278" y="257" width="7" height="1" opacity=".001"/>
 </g>
 <path id="shadow-topright" d="m203 0.99899v10h2c2.77 0 5 2.23 5 5v2h10v-17z" fill="url(#radialGradient4255)"/>
 <path id="shadow-bottomleft" d="m153 84.999v-10h-2c-2.77 0-5-2.23-5-5v-2h-10v17z" fill="url(#radialGradient4263)"/>
 <rect id="center" x="7" y="28" width="50" height="50" fill="#121212"/>
 <g id="topleft" transform="translate(-183 -231)">
  <path d="m190 252v7h-7v-2c0-2.77 2.23-5 5-5z" fill="#121212"/>
 </g>
 <g id="left" transform="translate(-183 -231)">
  <path d="m183 259v50l7 1e-5v-50z" fill="#121212"/>
 </g>
 <g id="right" transform="translate(-183 -231)">
  <path d="m247 259v50l-7 1e-5v-50z" fill="#121212"/>
 </g>
 <g id="bottomleft" transform="translate(-183 -231)">
  <path d="m190 316v-7h-7v2c0 2.77 2.23 5 5 5z" fill="#121212"/>
 </g>
 <g id="bottom" transform="translate(-183 -231)">
  <path d="m190 316h50v-7h-50z" fill="#121212"/>
 </g>
 <g id="bottomright" transform="translate(-183 -231)">
  <path d="m240 316v-7h7v2c0 2.77-2.23 5-5 5z" fill="#121212"/>
 </g>
 <g id="topright" transform="translate(-183 -231)">
  <path d="m240 252v7h7v-2c0-2.77-2.23-5-5-5z" fill="#121212"/>
 </g>
 <g id="top" transform="translate(-183 -231)">
  <path d="m190 252h50v7h-50z" fill="#121212"/>
 </g>
 <rect id="shadow-hint-right-margin" x="210" y="41" width="10" height="4" fill="#f0f"/>
 <rect id="shadow-hint-bottom-margin" x="176" y="75" width="4" height="10" fill="#f0f"/>
 <rect id="shadow-hint-left-margin" x="136" y="41" width="10" height="4" fill="#f0f"/>
 <rect id="shadow-hint-top-margin" x="177" y="1" width="4" height="10" fill="#f0f"/>
 <rect id="mask-center" x="75" y="28" width="50" height="50"/>
 <path id="mask-topleft" d="m75 21v7h-7v-2c0-2.77 2.23-5 5-5z"/>
 <path id="mask-left" d="m68 28v50l7 1e-5v-50z"/>
 <path id="mask-right" d="m132 28v50l-7 1e-5v-50z"/>
 <path id="mask-bottomleft" d="m75 85v-7h-7v2c0 2.77 2.23 5 5 5z"/>
 <path id="mask-bottom" d="m75 85h50v-7h-50z"/>
 <path id="mask-bottomright" d="m125 85v-7h7v2c0 2.77-2.23 5-5 5z"/>
 <path id="mask-topright" d="m125 21v7h7v-2c0-2.77-2.23-5-5-5z"/>
 <path id="mask-top" d="m75 21h50v7h-50z"/>
 <rect id="hint-tile-center" width="5" height="5" fill="#f0f"/>
 <rect id="shadow-center" x="153" y="18.06" width="50" height="50" fill="none"/>
 <rect id="shadow-hint-top-inset" x="172" y="75" width="4" height="10" fill="#0f0"/>
 <rect id="shadow-hint-bottom-inset" x="173" y="1" width="4" height="10" fill="#0f0"/>
 <rect id="shadow-hint-right-inset" transform="rotate(90)" x="37" y="-220" width="4" height="10" fill="#0f0"/>
 <rect id="shadow-hint-left-inset" transform="rotate(90)" x="37" y="-146" width="4" height="10" fill="#0f0"/>
 <rect id="thick-hint-top-margin" x="29" y="21" width="4" height="8" fill="#f0f"/>
 <rect id="thick-hint-bottom-margin" x="29" y="77" width="4" height="8" fill="#f0f"/>
 <rect id="thick-hint-right-margin" transform="rotate(90)" x="51" y="-64" width="4" height="8" fill="#f0f"/>
 <rect id="thick-hint-left-margin" transform="rotate(90)" x="51" y="-8" width="4" height="8" fill="#f0f"/>
 <rect id="thick-center" x="5" width="2" height="2" fill="#800080"/>
 <rect id="hint-top-margin" x="29" y="21" width="4" height="4" fill="#800080"/>
 <rect id="hint-bottom-margin" x="29" y="81" width="4" height="4" fill="#800080"/>
 <rect id="hint-left-margin" y="51" width="4" height="4" fill="#800080"/>
 <rect id="hint-right-margin" x="60" y="51" width="4" height="4" fill="#800080"/>
</svg>
