<?xml version="1.0" encoding="UTF-8"?>
<svg width="129" height="85" version="1" xmlns="http://www.w3.org/2000/svg">
 <rect id="header-center" x="7" y="28" width="50" height="50" fill="#121212"/>
 <g id="header-topleft" transform="matrix(1 0 0 1 -183 -231)">
  <path d="m190 252v7h-7c-1e-5 -5 2-7 7-7z" fill="#121212"/>
 </g>
 <g id="header-left" transform="translate(-183 -231)">
  <path d="m183 259v50l7 1e-5v-50z" fill="#121212"/>
 </g>
 <g id="header-right" transform="translate(-183 -231)">
  <path d="m247 259v50l-7 1e-5v-50z" fill="#121212"/>
 </g>
 <g id="header-topright" transform="translate(-183 -231)">
  <path d="m240 252v7h7c-3e-5 -5-2-7-7-7z" fill="#121212"/>
 </g>
 <g id="header-top" transform="translate(-183 -231)">
  <path d="m190 252h50v7h-50z" fill="#121212"/>
 </g>
 <rect id="hint-top-margin" x="30" y="28" width="4" height="7" fill="#f0f"/>
 <rect id="hint-left-margin" x="7" y="50" width="7" height="4" fill="#f0f"/>
 <rect id="hint-right-margin" x="50" y="50" width="7" height="4" fill="#f0f"/>
 <rect id="hint-tile-center" width="5" height="5" fill="#f0f"/>
 <g id="header-bottomleft" transform="matrix(1 0 0 6.9987 1.69e-6 -509.9)">
  <path d="m7 84.858v-0.85726h-7l-1e-5 0.85741z" fill="#121212"/>
  <path d="m7 85.001v-0.14285h-7l-1e-5 0.14287z" fill="#fff" opacity=".1"/>
 </g>
 <g id="header-bottom" transform="matrix(1 0 0 6.9992 1.69e-6 -509.93)">
  <path d="m7 84.857h50v-0.85727h-50z" fill="#121212"/>
  <path d="m7 85h50v-0.14285h-50z" fill="#fff" opacity=".1"/>
 </g>
 <g id="header-bottomright" transform="matrix(1 0 0 6.9992 -8.31e-6 -509.94)">
  <path d="m57 84.857v-0.85727h7v0.85742z" fill="#121212"/>
  <path d="m57 85v-0.14285h7v0.14287z" fill="#fff" opacity=".1"/>
 </g>
 <rect id="hint-bottom-margin" x="30" y="71" width="4" height="7" fill="#f0f"/>
 <rect id="footer-center" x="72" y="28" width="50" height="50" fill="#121212"/>
 <g id="footer-bottomleft" transform="matrix(1 0 0 1 -118 -174)">
  <path d="m190 252v7c-5 0-7-2-7-6.999 0 0 7 0 7-1e-3z" fill="#121212"/>
 </g>
 <g id="footer-left" transform="translate(-118 -231)">
  <path d="m183 259v50l7 1e-5v-50z" fill="#121212"/>
 </g>
 <g id="footer-right" transform="translate(-118 -231)">
  <path d="m247 259v50l-7 1e-5v-50z" fill="#121212"/>
 </g>
 <g id="footer-bottomright" transform="translate(-118 -174)">
  <path d="m240 252v7c5 0 7-2 7-6.999z" fill="#121212"/>
 </g>
 <g id="footer-bottom" transform="translate(-118 -174)">
  <path d="m190 252h50v7h-50z" fill="#121212"/>
 </g>
 <g id="footer-topleft" transform="matrix(1 0 0 -.99986 65 105.99)">
  <path d="m7 83.998v-5.9991h-7l-1e-5 6z" fill="#121212"/>
  <path d="m7 84.999v-0.99914h-7l-1e-5 0.99928z" fill="#fff" opacity=".1"/>
 </g>
 <g id="footer-top" transform="matrix(1 0 0 -1 65 106)">
  <path d="m7 83.998h50v-5.9991h-50z" fill="#121212"/>
  <path d="m7 84.999h50v-0.99914h-50z" fill="#fff" opacity=".1"/>
 </g>
 <g id="footer-topright" transform="matrix(1 0 0 -.99986 65 105.99)">
  <path d="m57 83.998v-5.9991h7v6z" fill="#121212"/>
  <path d="m57 84.999v-0.99914h7v0.99928z" fill="#fff" opacity=".1"/>
 </g>
</svg>
