<?xml version="1.0" encoding="UTF-8"?>
<svg width="25" height="64" version="1" xmlns="http://www.w3.org/2000/svg">
 <rect id="slider-center" x="5" y="5" width="1" height="10" fill="#fff" opacity=".32"/>
 <g id="slider-right" transform="matrix(.75 0 0 1 .25 -2)">
  <path d="m9 7v10h2.6667v-10z" fill="#fff" opacity=".32"/>
  <rect transform="matrix(1.3333 0 0 1 -25.667 -13)" x="29" y="20" width="1" height="10" opacity=".01"/>
 </g>
 <g id="slider-topright" transform="matrix(.75 0 0 .75 .25 -1.25)">
  <rect transform="matrix(1.3333 0 0 1.3333 -25.667 -18.333)" x="26" y="15" width="4" height="4" opacity=".01"/>
  <path d="m9 3v4h2.6667c0-2.216-0.45067-4-2.6667-4z" fill="#fff" opacity=".32"/>
 </g>
 <g id="slider-bottomright" transform="matrix(.75 0 0 .75 .25 3.25)">
  <rect transform="matrix(1.3333 0 0 1.3333 -25.667 -24.333)" x="26" y="31" width="4" height="4" opacity=".01"/>
  <path d="m9 21v-4h2.6667c0 2.216-0.45067 4-2.6667 4z" fill="#fff" opacity=".32"/>
 </g>
 <g id="slider-left" transform="matrix(-.75 0 0 1 10.75 -2)">
  <path d="m9 7v10h2.6667v-10z" fill="#fff" opacity=".32"/>
  <rect transform="matrix(-1.3333 0 0 1 39.667 -13)" x="19" y="20" width="1" height="10" opacity=".01"/>
 </g>
 <g id="slider-topleft" transform="matrix(-.75 0 0 .75 10.75 -1.25)">
  <rect transform="matrix(-1.3333 0 0 1.3333 39.667 -18.333)" x="19" y="15" width="4" height="4" opacity=".01"/>
  <path d="m9 3v4h2.6667c0-2.216-0.45067-4-2.6667-4z" fill="#fff" opacity=".32"/>
 </g>
 <g id="slider-bottomleft" transform="matrix(-.75 0 0 .75 10.75 3.25)">
  <rect transform="matrix(-1.3333 0 0 1.3333 39.667 -24.333)" x="19" y="31" width="4" height="4" opacity=".01"/>
  <path d="m9 21v-4h2.6667c0 2.216-0.45067 4-2.6667 4z" fill="#fff" opacity=".32"/>
 </g>
 <g id="slider-top" transform="matrix(0 -.75 -.1 0 6.7 10.75)">
  <rect transform="matrix(0 -10 -1.3333 0 34.333 257)" x="24" y="15" width="1" height="4" opacity=".01"/>
  <path d="m9 7v10h4v-10z" fill="#fff" opacity=".32"/>
 </g>
 <g id="slider-bottom" transform="matrix(0 .75 -.1 0 6.7 9.25)">
  <rect transform="matrix(0 -10 1.3333 0 -32.333 257)" x="24" y="31" width="1" height="4" opacity=".001"/>
  <path d="m9 7v10h4v-10z" fill="#fff" opacity=".32"/>
 </g>
 <rect id="hint-scrollbar-size" x="15" y="44" width="8" height="8" rx="0" ry="8" fill="#f0f"/>
 <rect id="hint-tile-center" x="18" y="54" width="2" height="2" rx="0" ry="2" fill="#f0f"/>
 <g id="background-vertical-right" transform="matrix(.75 0 0 1 14.25 -2)">
  <path transform="matrix(1.3333 0 0 1 -19 2)" d="m21 5v10h3 1v-10h-1-3z" opacity=".01"/>
 </g>
 <g id="background-vertical-topright" transform="matrix(.75 0 0 .75 14.25 -1.25)">
  <rect transform="matrix(1.3333 0 0 1.3333 -44.333 -18.333)" x="40" y="15" width="4" height="4" opacity=".01"/>
 </g>
 <g id="background-vertical-bottomright" transform="matrix(.75 0 0 .75 14.25 3.25)">
  <rect transform="matrix(1.3333 0 0 1.3333 -44.333 -24.333)" x="40" y="31" width="4" height="4" opacity=".01"/>
 </g>
 <g id="background-vertical-left" transform="matrix(-.75 0 0 1 24.75 -2)">
  <path transform="matrix(-1.3333 0 0 1 33 2)" d="m14 5v10h1 3v-10h-3-1z" opacity=".01"/>
 </g>
 <g id="background-vertical-topleft" transform="matrix(-.75 0 0 .75 24.75 -1.25)">
  <rect transform="matrix(-1.3333 0 0 1.3333 58.333 -18.333)" x="33" y="15" width="4" height="4" opacity=".01"/>
 </g>
 <g id="background-vertical-bottomleft" transform="matrix(-.75 0 0 .75 24.75 3.25)">
  <rect transform="matrix(-1.3333 0 0 1.3333 58.333 -24.333)" x="33" y="31" width="4" height="4" opacity=".01"/>
 </g>
 <g id="background-vertical-top" transform="matrix(0 -.75 -.1 0 20.7 10.75)">
  <rect transform="matrix(0 -10 -1.3333 0 34.333 397)" x="38" y="15" width="1" height="4" opacity=".01"/>
 </g>
 <g id="background-vertical-bottom" transform="matrix(0 .75 -.1 0 20.7 9.25)">
  <rect transform="matrix(0 -10 1.3333 0 -32.333 397)" x="38" y="31" width="1" height="4" opacity=".01"/>
 </g>
 <rect id="sunken-slider-center" x="5" y="49" width="1" height="10" fill="#fff" opacity=".75"/>
 <g id="sunken-slider-right" transform="matrix(.75 0 0 1 .25 42)">
  <path d="m9 7v10h4v-10z" fill="#fff" opacity=".75"/>
  <rect transform="matrix(1.3333 0 0 1 -25.667 -57)" x="29" y="64" width="1" height="10" opacity=".01"/>
 </g>
 <g id="sunken-slider-topright" transform="matrix(.75 0 0 .75 .25 42.75)">
  <rect transform="matrix(1.3333 0 0 1.3333 -25.667 -77)" x="26" y="59" width="4" height="4" opacity=".01"/>
  <path d="m9 3v4h4c0-2.216-1.784-4-4-4z" fill="#fff" opacity=".75"/>
 </g>
 <g id="sunken-slider-bottomright" transform="matrix(.75 0 0 .75 .25 47.25)">
  <rect transform="matrix(1.3333 0 0 1.3333 -25.667 -83)" x="26" y="75" width="4" height="4" opacity=".01"/>
  <path d="m9 21v-4h4c0 2.216-1.784 4-4 4z" fill="#fff" opacity=".75"/>
 </g>
 <g id="sunken-slider-left" transform="matrix(-.75 0 0 1 10.75 42)">
  <path d="m9 7v10h4v-10z" fill="#fff" opacity=".75"/>
  <rect transform="matrix(-1.3333 0 0 1 39.667 -57)" x="19" y="64" width="1" height="10" opacity=".01"/>
 </g>
 <g id="sunken-slider-topleft" transform="matrix(-.75 0 0 .75 10.75 42.75)">
  <rect transform="matrix(-1.3333 0 0 1.3333 39.667 -77)" x="19" y="59" width="4" height="4" opacity=".01"/>
  <path d="m9 3v4h4c0-2.216-1.784-4-4-4z" fill="#fff" opacity=".75"/>
 </g>
 <g id="sunken-slider-bottomleft" transform="matrix(-.75 0 0 .75 10.75 47.25)">
  <rect transform="matrix(-1.3333 0 0 1.3333 39.667 -83)" x="19" y="75" width="4" height="4" opacity=".01"/>
  <path d="m9 21v-4h4c0 2.216-1.784 4-4 4z" fill="#fff" opacity=".75"/>
 </g>
 <g id="sunken-slider-top" transform="matrix(0 -.75 -.1 0 6.7 54.75)">
  <rect transform="matrix(0 -10 -1.3333 0 93 257)" x="24" y="59" width="1" height="4" opacity=".01"/>
  <path d="m9 7v10h4v-10z" fill="#fff" opacity=".75"/>
 </g>
 <g id="sunken-slider-bottom" transform="matrix(0 .75 -.1 0 6.7 53.25)">
  <rect transform="matrix(0 -10 1.3333 0 -91 257)" x="24" y="75" width="1" height="4" opacity=".01"/>
  <path d="m9 7v10h4v-10z" fill="#fff" opacity=".75"/>
 </g>
 <rect id="mouseover-slider-center" x="5" y="27" width="1" height="10" fill="#fff" opacity=".51"/>
 <g id="mouseover-slider-right" transform="matrix(.75 0 0 1 .25 20)">
  <path d="m9 7v10h4v-10z" fill="#fff" opacity=".51"/>
  <rect transform="matrix(1.3333 0 0 1 -25.667 -57)" x="29" y="64" width="1" height="10" opacity=".01"/>
 </g>
 <g id="mouseover-slider-topright" transform="matrix(.75 0 0 .75 .25 20.75)">
  <rect transform="matrix(1.3333 0 0 1.3333 -25.667 -77)" x="26" y="59" width="4" height="4" opacity=".01"/>
  <path d="m9 3v4h4c0-2.216-1.784-4-4-4z" fill="#fff" opacity=".51"/>
 </g>
 <g id="mouseover-slider-bottomright" transform="matrix(.75 0 0 .75 .25 25.25)">
  <rect transform="matrix(1.3333 0 0 1.3333 -25.667 -83)" x="26" y="75" width="4" height="4" opacity=".01"/>
  <path d="m9 21v-4h4c0 2.216-1.784 4-4 4z" fill="#fff" opacity=".51"/>
 </g>
 <g id="mouseover-slider-left" transform="matrix(-.75 0 0 1 10.75 20)">
  <path d="m9 7v10h4v-10z" fill="#fff" opacity=".51"/>
  <rect transform="matrix(-1.3333 0 0 1 39.667 -57)" x="19" y="64" width="1" height="10" opacity=".01"/>
 </g>
 <g id="mouseover-slider-topleft" transform="matrix(-.75 0 0 .75 10.75 20.75)">
  <rect transform="matrix(-1.3333 0 0 1.3333 39.667 -77)" x="19" y="59" width="4" height="4" opacity=".01"/>
  <path d="m9 3v4h4c0-2.216-1.784-4-4-4z" fill="#fff" opacity=".51"/>
 </g>
 <g id="mouseover-slider-bottomleft" transform="matrix(-.75 0 0 .75 10.75 25.25)">
  <rect transform="matrix(-1.3333 0 0 1.3333 39.667 -83)" x="19" y="75" width="4" height="4" opacity=".01"/>
  <path d="m9 21v-4h4c0 2.216-1.784 4-4 4z" fill="#fff" opacity=".51"/>
 </g>
 <g id="mouseover-slider-top" transform="matrix(0 -.75 -.1 0 6.7 32.75)">
  <rect transform="matrix(0 -10 -1.3333 0 93 257)" x="24" y="59" width="1" height="4" opacity=".01"/>
  <path d="m9 7v10h4v-10z" fill="#fff" opacity=".51"/>
 </g>
 <g id="mouseover-slider-bottom" transform="matrix(0 .75 -.1 0 6.7 31.25)">
  <rect transform="matrix(0 -10 1.3333 0 -91 257)" x="24" y="75" width="1" height="4" opacity=".01"/>
  <path d="m9 7v10h4v-10z" fill="#fff" opacity=".51"/>
 </g>
 <g id="background-vertical-center" transform="translate(-19 -15)">
  <rect x="38" y="20" width="1" height="10" opacity=".01"/>
 </g>
 <g id="background-horizontal-right" transform="matrix(.75 0 0 1 14.25 20)">
  <path transform="matrix(1.3333 0 0 1 -19 -20)" d="m21 27v10h3 1v-10h-1-3z" opacity=".01"/>
 </g>
 <g id="background-horizontal-topright" transform="matrix(.75 0 0 .75 14.25 20.75)">
  <rect transform="matrix(1.3333 0 0 1.3333 -44.333 -18.333)" x="40" y="15" width="4" height="4" opacity=".01"/>
 </g>
 <g id="background-horizontal-bottomright" transform="matrix(.75 0 0 .75 14.25 25.25)">
  <rect transform="matrix(1.3333 0 0 1.3333 -44.333 -24.333)" x="40" y="31" width="4" height="4" opacity=".01"/>
 </g>
 <g id="background-horizontal-left" transform="matrix(-.75 0 0 1 24.75 20)">
  <path transform="matrix(-1.3333 0 0 1 33 -20)" d="m14 27v10h1 3v-10h-3-1z" opacity=".01"/>
 </g>
 <g id="background-horizontal-topleft" transform="matrix(-.75 0 0 .75 24.75 20.75)">
  <rect transform="matrix(-1.3333 0 0 1.3333 58.333 -18.333)" x="33" y="15" width="4" height="4" opacity=".01"/>
 </g>
 <g id="background-horizontal-bottomleft" transform="matrix(-.75 0 0 .75 24.75 25.25)">
  <rect transform="matrix(-1.3333 0 0 1.3333 58.333 -24.333)" x="33" y="31" width="4" height="4" opacity=".01"/>
 </g>
 <g id="background-horizontal-top" transform="matrix(0 -.75 -.1 0 20.7 32.75)">
  <rect transform="matrix(0 -10 -1.3333 0 34.333 397)" x="38" y="15" width="1" height="4" opacity=".01"/>
 </g>
 <g id="background-horizontal-bottom" transform="matrix(0 .75 -.1 0 20.7 31.25)">
  <rect transform="matrix(0 -10 1.3333 0 -32.333 397)" x="38" y="31" width="1" height="4" opacity=".01"/>
 </g>
 <g id="background-horizontal-center" transform="translate(-19 7)">
  <rect x="38" y="20" width="1" height="10" opacity=".01"/>
 </g>
</svg>
