<?xml version="1.0" encoding="UTF-8"?>
<svg width="76" height="66" version="1.1" xmlns="http://www.w3.org/2000/svg">
 <rect id="hint-tile-center" y="36" width="2" height="2" fill="#f0f"/>
 <path id="groove-bottomright" d="m7 53v1h1v-1z" fill="#fff" opacity=".3"/>
 <path id="groove-right" d="m7 51v1h1v-1z" fill="#fff" opacity=".3"/>
 <path id="groove-topright" d="m7 49v1h1v-1z" fill="#fff" opacity=".3"/>
 <path id="groove-bottomleft" d="m3 53v1h1v-1z" fill="#fff" opacity=".3"/>
 <path id="groove-left" d="m3 51v1h1v-1z" fill="#fff" opacity=".3"/>
 <path id="groove-topleft" d="m4 49h-1v1h1z" fill="#fff" opacity=".3"/>
 <path id="groove-bottom" d="m5 53v1h1v-1z" fill="#fff" opacity=".3"/>
 <path id="groove-center" d="m6 51h-1v1h1z" fill="#fff" opacity=".3"/>
 <path id="groove-top" d="m5 49v1h1v-1z" fill="#fff" opacity=".3"/>
 <path id="groove-highlight-bottomright" d="m7 62v1h1v-1z" fill="#8ab4f8"/>
 <path id="groove-highlight-right" d="m7 60v1h1v-1z" fill="#8ab4f8"/>
 <path id="groove-highlight-topright" d="m7 58v1h1v-1z" fill="#8ab4f8"/>
 <path id="groove-highlight-bottomleft" d="m3 62v1h1v-1z" fill="#8ab4f8"/>
 <path id="groove-highlight-left" d="m3 60v1h1v-1z" fill="#8ab4f8"/>
 <path id="groove-highlight-topleft" d="m4 58h-1v1h1z" fill="#8ab4f8"/>
 <path id="groove-highlight-bottom" d="m5 62v1h1v-1z" fill="#8ab4f8"/>
 <path id="groove-highlight-center" d="m6 60h-1v1h1z" fill="#8ab4f8"/>
 <path id="groove-highlight-top" d="m5 58v1h1v-1z" fill="#8ab4f8"/>
 <g id="horizontal-slider-handle" transform="matrix(.6875 0 0 .6875 -7.1875 41.25)">
  <rect x="25" y="4" width="32" height="32" opacity="0"/>
  <circle cx="41" cy="20" r="7.273" fill="#8ab4f8"/>
 </g>
 <g id="horizontal-slider-hover" transform="matrix(.6875 0 0 .6875 14.812 41.25)">
  <rect x="25" y="4" width="32" height="32" opacity="0"/>
  <circle cx="41" cy="20" r="16" fill="#8ab4f8" opacity=".2"/>
  <circle cx="41" cy="20" r="7.273" fill="#8ab4f8"/>
 </g>
 <g id="horizontal-slider-focus" transform="matrix(.6875 0 0 .6875 36.812 41.25)">
  <rect x="25" y="4" width="32" height="32" opacity="0"/>
  <circle cx="41" cy="20" r="16" fill="#8ab4f8" opacity=".3"/>
  <circle cx="41" cy="20" r="7.273" fill="#8ab4f8"/>
 </g>
 <g id="vertical-slider-handle" transform="matrix(.6875 0 0 .6875 -7.1875 19.25)">
  <rect x="25" y="4" width="32" height="32" opacity="0"/>
  <circle cx="41" cy="20" r="7.273" fill="#8ab4f8"/>
 </g>
 <g id="vertical-slider-hover" transform="matrix(.6875 0 0 .6875 14.812 19.25)">
  <rect x="25" y="4" width="32" height="32" opacity="0"/>
  <circle cx="41" cy="20" r="16" fill="#8ab4f8" opacity=".2"/>
  <circle cx="41" cy="20" r="7.273" fill="#8ab4f8"/>
 </g>
 <g id="vertical-slider-focus" transform="matrix(.6875 0 0 .6875 36.812 19.25)">
  <rect x="25" y="4" width="32" height="32" opacity="0"/>
  <circle cx="41" cy="20" r="16" fill="#8ab4f8" opacity=".3"/>
  <circle cx="41" cy="20" r="7.273" fill="#8ab4f8"/>
 </g>
 <circle id="hint-handle-size" cx="65" cy="11" r="11" fill="#f0f"/>
</svg>
