<?xml version="1.0" encoding="UTF-8"?>
<svg width="280" height="240" version="1.1" xmlns="http://www.w3.org/2000/svg">
 <g id="south-active-tab-top" transform="rotate(-90 148 141)">
  <rect x="65" y="69" width="4" height="80" opacity=".001"/>
  <path d="m67.002 69v80h-2v-80z" fill="#8ab4f8"/>
 </g>
 <g id="east-active-tab-left" transform="matrix(-1 0 0 1 274 -2.9978)">
  <rect x="65" y="69" width="4" height="80" opacity=".001"/>
  <path d="m68 68.998v80h-1.9998v-80z" fill="#8ab4f8"/>
 </g>
 <g id="north-active-tab-bottom" transform="rotate(90 140.5 91.501)">
  <rect x="65" y="69" width="4" height="80" opacity=".001"/>
  <path d="m67.998 69v80h-2v-80z" fill="#8ab4f8"/>
 </g>
 <g id="west-active-tab-right" transform="translate(-48.998 -2.9978)">
  <rect x="65" y="69" width="4" height="80" opacity=".001"/>
  <path d="m67.998 68.998v80h-2v-80z" fill="#8ab4f8"/>
 </g>
 <rect id="hint-tile-center" x="240" y="200" width="40" height="40" fill="#f0f"/>
 <g id="south-active-tab-topleft" transform="translate(36 -138.36)">
  <path d="m30 358.36h10v4h-10z" opacity=".001"/>
  <path d="m40 360.36v2h-7v-2z" fill="#8ab4f8"/>
 </g>
 <g id="south-active-tab-topright" transform="translate(36 -138.36)">
  <path d="m120 358.36h10v4h-10z" opacity=".001"/>
  <path d="m120 360.36 7-2e-5v2h-7z" fill="#8ab4f8"/>
 </g>
 <rect id="south-active-tab-left" x="66" y="224" width="10" height="12" opacity=".001"/>
 <rect id="south-active-tab-center" x="76" y="224" width="80" height="12" opacity=".001"/>
 <rect id="south-active-tab-right" x="156" y="224" width="10" height="12" opacity=".001"/>
 <rect id="south-active-tab-bottomright" x="156" y="236" width="10" height="4" opacity=".001"/>
 <rect id="south-active-tab-bottom" x="76" y="236" width="80" height="4" opacity=".001"/>
 <rect id="south-active-tab-bottomleft" x="66" y="236" width="10" height="4" opacity=".001"/>
 <rect id="south-active-tab-hint-left-margin" x="66" y="227" width="6" height="5" fill="#f0f"/>
 <rect id="south-active-tab-hint-right-margin" x="160" y="227" width="6" height="5" fill="#f0f"/>
 <rect id="south-active-tab-hint-top-margin" x="114" y="221" width="5" height="4" fill="#f0f"/>
 <rect id="south-active-tab-hint-bottom-margin" x="114" y="236" width="5" height="4" fill="#f0f"/>
 <rect id="east-active-tab-bottom" transform="rotate(-90)" x="-156" y="209" width="10" height="12" opacity=".001"/>
 <rect id="east-active-tab-center" transform="rotate(-90)" x="-146" y="209" width="80" height="12" opacity=".001"/>
 <rect id="east-active-tab-top" transform="rotate(-90)" x="-66" y="209" width="10" height="12" opacity=".001"/>
 <rect id="east-active-tab-topright" transform="rotate(-90)" x="-65.7" y="221" width="10" height="4" opacity=".001"/>
 <rect id="east-active-tab-right" transform="rotate(-90)" x="-145.7" y="221" width="80" height="4" opacity=".001"/>
 <rect id="east-active-tab-bottomright" transform="rotate(-90)" x="-155.7" y="221" width="10" height="4" opacity=".001"/>
 <rect id="east-active-tab-hint-bottom-margin" transform="rotate(-90)" x="-156" y="212" width="6" height="5" fill="#f0f"/>
 <rect id="east-active-tab-hint-top-margin" transform="rotate(-90)" x="-62" y="212" width="6" height="5" fill="#f0f"/>
 <rect id="east-active-tab-hint-left-margin" transform="rotate(-90)" x="-102" y="205" width="5" height="4" fill="#f0f"/>
 <rect id="east-active-tab-hint-right-margin" transform="rotate(-90)" x="-102" y="221" width="5" height="4" fill="#f0f"/>
 <rect id="west-active-tab-top" transform="rotate(90)" x="56" y="-16" width="10" height="12" opacity=".001"/>
 <rect id="west-active-tab-center" transform="rotate(90)" x="66" y="-16" width="80" height="12" opacity=".001"/>
 <rect id="west-active-tab-bottom" transform="rotate(90)" x="146" y="-16" width="10" height="12" opacity=".001"/>
 <rect id="west-active-tab-bottomleft" transform="rotate(90)" x="146" y="-4" width="10" height="4" opacity=".001"/>
 <rect id="west-active-tab-left" transform="rotate(90)" x="66" y="-4" width="80" height="4" opacity=".001"/>
 <rect id="west-active-tab-topleft" transform="rotate(90)" x="56" y="-4" width="10" height="4" opacity=".001"/>
 <rect id="west-active-tab-hint-top-margin" transform="rotate(90)" x="56" y="-13" width="6" height="5" fill="#f0f"/>
 <rect id="west-active-tab-hint-bottom-margin" transform="rotate(90)" x="150" y="-13" width="6" height="5" fill="#f0f"/>
 <g id="west-active-tab-topright" transform="rotate(90 176.18 202.18)">
  <path d="m29.998 358.36h10v4h-10z" opacity=".001"/>
  <path d="m39.998 359.36v2l-7 1e-5v-2z" fill="#8ab4f8"/>
 </g>
 <g id="west-active-tab-bottomright" transform="rotate(90 176.18 202.18)">
  <path d="m120 358.36h10v4h-10z" opacity=".001"/>
  <path d="m120 359.36 7-1e-5v2l-7-1e-5z" fill="#8ab4f8"/>
 </g>
 <rect id="west-active-tab-hint-right-margin" transform="rotate(90)" x="97" y="-20" width="5" height="4" fill="#f0f"/>
 <rect id="west-active-tab-hint-left-margin" transform="rotate(90)" x="97" y="-4" width="5" height="4" fill="#f0f"/>
 <rect id="north-active-tab-right" transform="scale(-1)" x="-173" y="-16" width="10" height="12" opacity=".001"/>
 <rect id="north-active-tab-center" transform="scale(-1)" x="-163" y="-16" width="80" height="12" opacity=".001"/>
 <rect id="north-active-tab-left" transform="scale(-1)" x="-83" y="-16" width="10" height="12" opacity=".001"/>
 <rect id="north-active-tab-topleft" transform="scale(-1)" x="-83" y="-4" width="10" height="4" opacity=".001"/>
 <rect id="north-active-tab-top" transform="scale(-1)" x="-163" y="-4" width="80" height="4" opacity=".001"/>
 <rect id="north-active-tab-topright" transform="scale(-1)" x="-173" y="-4" width="10" height="4" opacity=".001"/>
 <rect id="north-focus-hint-right-margin" transform="scale(-1)" x="-173" y="-13" width="6" height="5" fill="#f0f"/>
 <rect id="north-focus-hint-left-margin" transform="scale(-1)" x="-79" y="-13" width="6" height="5" fill="#f0f"/>
 <rect id="north-focus-hint-bottom-margin" transform="scale(-1)" x="-119" y="-20" width="5" height="4" fill="#f0f"/>
 <rect id="north-focus-hint-top-margin" transform="scale(-1)" x="-119" y="-4" width="5" height="4" fill="#f0f"/>
 <g id="north-active-tab-bottomleft" transform="translate(43 -343.36)">
  <path d="m30 359.36h10v4h-10z" opacity=".001"/>
  <path d="m40 360.36v2h-7v-2l7 2e-5z" fill="#8ab4f8"/>
 </g>
 <g id="north-active-tab-bottomright" transform="translate(-200 -211.36)">
  <rect x="363" y="227.36" width="10" height="3" opacity=".001"/>
  <path d="m363 227.36h10v4h-10z" opacity=".001"/>
  <path d="m363 228.36 7-2e-5v2h-7z" fill="#8ab4f8"/>
 </g>
 <g id="east-active-tab-topleft" transform="rotate(90 271.18 297.18)">
  <path d="m29.998 359.37h10v4h-10z" opacity=".001"/>
  <path d="m39.998 360.37v1.9996l-7 2.3e-4v-2l7-9e-5z" fill="#8ab4f8"/>
 </g>
 <g id="east-active-tab-bottomleft" transform="rotate(90 271.18 297.18)">
  <path d="m120 359.36h10v4h-10z" opacity=".001"/>
  <path d="m120 360.36c0 2.1e-4 7 2.1e-4 7 2.1e-4v1.9999l-7-2.3e-4z" fill="#8ab4f8"/>
 </g>
</svg>
