<?xml version="1.0" encoding="UTF-8"?>
<svg width="220" height="85" version="1" xmlns="http://www.w3.org/2000/svg">
 <path id="shadow-topleft" d="m136 17.999h10v-2c0-2.77 2.23-5 5-5h2v-10h-17z" opacity=".001"/>
 <g id="shadow-left" transform="matrix(-1 0 0 1 434 -239)">
  <rect transform="rotate(-90)" x="-307" y="288" width="50" height="10" opacity=".001"/>
 </g>
 <path id="shadow-bottomright" d="m220 67.999h-10v2c0 2.77-2.23 5-5 5h-2v10h17z" opacity=".001"/>
 <g id="shadow-bottom" transform="rotate(90 336.5 123.5)">
  <rect transform="rotate(-90)" x="-307" y="288" width="50" height="10" opacity=".001"/>
 </g>
 <g id="shadow-right" transform="translate(-78 -239)">
  <rect transform="rotate(-90)" x="-307" y="288" width="50" height="10" opacity=".001"/>
 </g>
 <g id="shadow-top" transform="matrix(0 -1 -1 0 460 299)">
  <rect transform="rotate(-90)" x="-307" y="288" width="50" height="10" opacity=".001"/>
 </g>
 <path id="shadow-topright" d="m203 0.99899v10h2c2.77 0 5 2.23 5 5v2h10v-17z" opacity=".001"/>
 <path id="shadow-bottomleft" d="m153 84.999v-10h-2c-2.77 0-5-2.23-5-5v-2h-10v17z" opacity=".001"/>
 <rect id="center" x="7" y="28" width="50" height="50" fill="#616161" opacity=".9"/>
 <g id="topleft" transform="translate(-183 -231)">
  <path d="m190 252v7h-7v-2c0-2.77 2.23-5 5-5z" fill="#616161" opacity=".9"/>
 </g>
 <g id="left" transform="translate(-183 -231)">
  <path d="m183 259v50l7 1e-5v-50z" fill="#616161" opacity=".9"/>
 </g>
 <g id="right" transform="translate(-183 -231)">
  <path d="m247 259v50l-7 1e-5v-50z" fill="#616161" opacity=".9"/>
 </g>
 <g id="bottomleft" transform="translate(-183 -231)">
  <path d="m190 316v-7h-7v2c0 2.77 2.23 5 5 5z" fill="#616161" opacity=".9"/>
 </g>
 <g id="bottom" transform="translate(-183 -231)">
  <path d="m190 316h50v-7h-50z" fill="#616161" opacity=".9"/>
 </g>
 <g id="bottomright" transform="translate(-183 -231)">
  <path d="m240 316v-7h7v2c0 2.77-2.23 5-5 5z" fill="#616161" opacity=".9"/>
 </g>
 <g id="topright" transform="translate(-183 -231)">
  <path d="m240 252v7h7v-2c0-2.77-2.23-5-5-5z" fill="#616161" opacity=".9"/>
 </g>
 <g id="top" transform="translate(-183 -231)">
  <path d="m190 252h50v7h-50z" fill="#616161" opacity=".9"/>
 </g>
 <rect id="shadow-hint-right-margin" x="210" y="41" width="10" height="4" fill="#f0f"/>
 <rect id="shadow-hint-bottom-margin" x="176" y="75" width="4" height="10" fill="#f0f"/>
 <rect id="shadow-hint-left-margin" x="136" y="41" width="10" height="4" fill="#f0f"/>
 <rect id="shadow-hint-top-margin" x="177" y="1" width="4" height="10" fill="#f0f"/>
 <rect id="hint-top-margin" x="29" y="28" width="4" height="10" fill="#f0f"/>
 <rect id="hint-bottom-margin" x="29" y="68" width="4" height="10" fill="#f0f"/>
 <rect id="hint-left-margin" x="7" y="49" width="10" height="4" fill="#f0f"/>
 <rect id="hint-right-margin" x="47" y="49" width="10" height="4" fill="#f0f"/>
 <rect id="mask-center" x="75" y="28" width="50" height="50"/>
 <path id="mask-topleft" d="m75 21v7h-7v-2c0-2.77 2.23-5 5-5z"/>
 <path id="mask-left" d="m68 28v50l7 1e-5v-50z"/>
 <path id="mask-right" d="m132 28v50l-7 1e-5v-50z"/>
 <path id="mask-bottomleft" d="m75 85v-7h-7v2c0 2.77 2.23 5 5 5z"/>
 <path id="mask-bottom" d="m75 85h50v-7h-50z"/>
 <path id="mask-bottomright" d="m125 85v-7h7v2c0 2.77-2.23 5-5 5z"/>
 <path id="mask-topright" d="m125 21v7h7v-2c0-2.77-2.23-5-5-5z"/>
 <path id="mask-top" d="m75 21h50v7h-50z"/>
 <rect id="hint-tile-center" width="5" height="5" fill="#f0f"/>
 <rect id="shadow-center" x="153" y="18.06" width="50" height="50" fill="none"/>
</svg>
