<?xml version="1.0" encoding="UTF-8"?>
<svg width="236" height="102" version="1" xmlns="http://www.w3.org/2000/svg">
 <rect id="hint-tile-center" width="40" height="40" fill="#f0f"/>
 <path id="selected-center" d="m124 50v48h48v-48z" fill="#8ab4f8" opacity=".24"/>
 <g id="selected-left" transform="matrix(1 0 0 3.001 -66.143 -2440.4)">
  <path d="m186.14 829.86v16h4v-16z" fill="#8ab4f8" opacity=".24"/>
 </g>
 <g id="selected-topleft" transform="translate(-66.143 -779.87)">
  <path d="m186.14 829.86h4v-4h-1.4688c-1.405 0-2.5312 1.1159-2.5312 2.5312z" fill="#8ab4f8" opacity=".24"/>
 </g>
 <g id="selected-top" transform="matrix(.36658 0 0 1 54.288 -779.86)">
  <path d="m190.14 825.86v4h131v-4z" fill="#8ab4f8" opacity=".24"/>
 </g>
 <g id="selected-topright" transform="translate(-149.14 -779.86)">
  <path d="m321.14 825.86v4h4v-1.4688c0-1.405-1.1159-2.5312-2.5312-2.5312z" fill="#8ab4f8" opacity=".24"/>
 </g>
 <g id="selected-right" transform="matrix(1 0 0 3 -149.14 -2439.6)">
  <path d="m325.14 829.86v16h-4v-16z" fill="#8ab4f8" opacity=".24"/>
 </g>
 <path id="hover-center" d="m64 50v48h48v-48z" fill="#fff" opacity=".08"/>
 <g id="hover-left" transform="matrix(1 0 0 3.001 -126.14 -2440.4)">
  <path d="m186.14 829.86v16h4v-16z" fill="#fff" opacity=".08"/>
 </g>
 <g id="hover-topleft" transform="translate(-126.14 -779.86)">
  <path d="m186.14 829.86h4v-4h-1.4688c-1.405 0-2.5312 1.1159-2.5312 2.5312z" fill="#fff" opacity=".08"/>
 </g>
 <g id="hover-top" transform="matrix(.36658 0 0 1 -5.712 -779.86)">
  <path d="m190.14 825.86v4h131v-4z" fill="#fff" opacity=".08"/>
 </g>
 <g id="hover-topright" transform="translate(-209.14 -779.86)">
  <path d="m321.14 825.86v4h4v-1.4688c0-1.405-1.1159-2.5312-2.5312-2.5312z" fill="#fff" opacity=".08"/>
 </g>
 <g id="hover-right" transform="matrix(1 0 0 3 -209.14 -2439.6)">
  <path d="m325.14 829.86v16h-4v-16z" fill="#fff" opacity=".08"/>
 </g>
 <path id="selected+hover-center" d="m184 50v48h48v-48z" fill="#8ab4f8" opacity=".5"/>
 <g id="selected+hover-left" transform="matrix(1 0 0 3.001 -6.1428 -2440.4)">
  <path d="m186.14 829.86v16h4v-16z" fill="#8ab4f8" opacity=".5"/>
 </g>
 <g id="selected+hover-topleft" transform="translate(-6.1428 -779.87)">
  <path d="m186.14 829.86h4v-4h-1.4688c-1.405 0-2.5312 1.1159-2.5312 2.5312z" fill="#8ab4f8" opacity=".5"/>
 </g>
 <g id="selected+hover-top" transform="matrix(.36658 0 0 1 114.29 -779.86)">
  <path d="m190.14 825.86v4h131v-4z" fill="#8ab4f8" opacity=".5"/>
 </g>
 <g id="selected+hover-topright" transform="translate(-89.143 -779.86)">
  <path d="m321.14 825.86v4h4v-1.4688c0-1.405-1.1159-2.5312-2.5312-2.5312z" fill="#8ab4f8" opacity=".5"/>
 </g>
 <g id="selected+hover-right" transform="matrix(1 0 0 3 -89.143 -2439.6)">
  <path d="m325.14 829.86v16h-4v-16z" fill="#8ab4f8" opacity=".5"/>
 </g>
 <g id="selected-bottomright" transform="rotate(180 181.07 463.93)">
  <path d="m186.14 829.86h4v-4h-1.4688c-1.405 0-2.5312 1.1159-2.5312 2.5312z" fill="#8ab4f8" opacity=".24"/>
 </g>
 <g id="selected-bottom" transform="matrix(-.36658 0 0 -1 241.72 927.86)">
  <path d="m190.14 825.86v4h131v-4z" fill="#8ab4f8" opacity=".24"/>
 </g>
 <g id="selected-bottomleft" transform="rotate(180 222.57 463.93)">
  <path d="m321.14 825.86v4h4v-1.4688c0-1.405-1.1159-2.5312-2.5312-2.5312z" fill="#8ab4f8" opacity=".24"/>
 </g>
 <g id="hover-bottomright" transform="rotate(180 151.07 463.93)">
  <path d="m186.14 829.86h4v-4h-1.4688c-1.405 0-2.5312 1.1159-2.5312 2.5312z" fill="#fff" opacity=".08"/>
 </g>
 <g id="hover-bottom" transform="matrix(-.36658 0 0 -1 181.72 927.86)">
  <path d="m190.14 825.86v4h131v-4z" fill="#fff" opacity=".08"/>
 </g>
 <g id="hover-bottomleft" transform="rotate(180 192.57 463.93)">
  <path d="m321.14 825.86v4h4v-1.4688c0-1.405-1.1159-2.5312-2.5312-2.5312z" fill="#fff" opacity=".08"/>
 </g>
 <g id="selected_hover-bottomright" transform="rotate(180 211.07 463.93)">
  <path d="m186.14 829.86h4v-4h-1.4688c-1.405 0-2.5312 1.1159-2.5312 2.5312z" fill="#8ab4f8" opacity=".5"/>
 </g>
 <g id="selected_hover-bottom" transform="matrix(-.36658 0 0 -1 301.72 927.86)">
  <path d="m190.14 825.86v4h131v-4z" fill="#8ab4f8" opacity=".5"/>
 </g>
 <g id="selected_hover-bottomleft" transform="rotate(180 252.57 463.93)">
  <path d="m321.14 825.86v4h4v-1.4688c0-1.405-1.1159-2.5312-2.5312-2.5312z" fill="#8ab4f8" opacity=".5"/>
 </g>
 <path id="normal-center" d="m3.9985 50.015v47.987h47.981v-47.987z" opacity=".001"/>
 <path id="normal-left" d="m0 49.999v48.002h3.9985v-48.002z" opacity=".001"/>
 <path id="normal-topleft" d="m0 49.999h3.9985v-3.9989h-1.4682c-1.4045 0-2.5303 1.1156-2.5303 2.5305z" opacity=".001"/>
 <path id="normal-top" d="m3.9985 46.016v3.9989h48.003v-3.9989z" opacity=".001"/>
 <path id="normal-topright" d="m52.002 46.016v3.9989h3.9984v-1.4683c0-1.4046-1.1154-2.5305-2.5303-2.5305z" opacity=".001"/>
 <path id="normal-right" d="m56 50.015v47.987h-3.9984v-47.987z" opacity=".001"/>
 <path id="normal-bottomright" d="m56 98.001h-3.9984v3.9989h1.4682c1.4045 0 2.5303-1.1156 2.5303-2.5305z" opacity=".001"/>
 <path id="normal-bottom" d="m52.002 102v-3.9989h-48.003v3.9989z" opacity=".001"/>
 <path id="normal-bottomleft" d="m3.9985 102v-3.9989h-3.9985v1.4683c0 1.4046 1.1154 2.5305 2.5303 2.5305z" opacity=".001"/>
</svg>
