<?xml version="1.0" encoding="UTF-8"?>
<svg width="32" height="32" version="1.1" xmlns="http://www.w3.org/2000/svg">
 <defs id="materia">
  <style id="current-color-scheme" type="text/css">.ColorScheme-Background {color:#181818; } .ColorScheme-ButtonBackground { color:#343434; } .ColorScheme-Highlight { color:#4285f4; } .ColorScheme-Text { color:#dfdfdf; } .ColorScheme-ViewBackground { color:#242424; } .ColorScheme-NegativeText { color:#f44336; } .ColorScheme-PositiveText { color:#4caf50; } .ColorScheme-NeutralText { color:#ff9800; }</style>
 </defs>
 <g id="22-22-accessories-dictionary" transform="translate(-5 -27)">
  <rect x="5" y="5" width="22" height="22" opacity=".001"/>
  <g transform="translate(8,-9)" fill="currentColor">
   <path class="ColorScheme-Text" d="m0.94 30.75v-2.19l4.22-1.13 2.34 0.6 2.39-0.67 3.74 1v2.45z" opacity=".35"/>
   <path class="ColorScheme-Text" d="m10.03 17.15c-0.15 0-0.3 0.01-0.46 0.03-0.57 0.08-1.25 0.35-2.02 0.76-1.54-0.85-2.74-0.9-3.74-0.64-1.07 0.27-1.94 0.72-3.29 0.68l-0.52-0.02v14.04h15v-14.02l-0.52 0.02c-1.51 0.05-2.27-0.39-3.25-0.68-0.36-0.11-0.76-0.18-1.2-0.17zm-5.29 0.99c0.62-0.07 1.3 0.08 2.26 0.6v8.64c-1.1-0.63-2.21-0.68-3.18-0.44-0.66 0.16-1.25 0.34-1.82 0.49v-8.64c0.8-0.14 1.47-0.37 2.05-0.52 0.24-0.06 0.46-0.11 0.69-0.13zm5.6 0c0.2 0.02 0.4 0.07 0.61 0.14 0.53 0.15 1.19 0.4 2.05 0.55v8.6c-0.57-0.15-1.16-0.34-1.81-0.5-0.98-0.24-2.09-0.18-3.19 0.48v-8.61c0.7-0.38 1.25-0.59 1.68-0.66 0.24-0.03 0.45-0.03 0.66 0zm-0.54 9.61c0.37-0.01 0.75 0.05 1.15 0.15 0.64 0.16 1.32 0.43 2.05 0.63v1.47h-11v-1.46c0.72-0.2 1.41-0.47 2.05-0.63 1.08-0.27 2-0.3 3.15 0.74l0.34 0.3 0.33-0.31c0.7-0.64 1.31-0.87 1.93-0.89z"/>
  </g>
 </g>
 <g id="22-22-accessories-calculator" transform="translate(0,-32)">
  <rect x="32" y="10" width="22" height="22" opacity=".001"/>
  <path class="ColorScheme-Text" d="m38 13s-2 0-2 2v11s0 2 2 2h11s2 0 2-2v-11c0-2-2-2-2-2zm0 2h5v5h-5v-4zm6 0h5v5h-5zm1.44 1c-0.34 0.08-0.54 0.58-0.28 0.84l0.65 0.66-0.65 0.66c-0.26 0.15-0.31 0.56-0.1 0.78 0.22 0.21 0.63 0.16 0.78-0.1l0.66-0.65 0.66 0.65c0.15 0.26 0.56 0.31 0.78 0.1 0.21-0.22 0.16-0.63-0.1-0.78l-0.65-0.66 0.65-0.66c0.26-0.23 0.15-0.73-0.18-0.84h-0.07c-0.16-0.02-0.32 0.04-0.43 0.16l-0.66 0.65-0.66-0.65c-0.06-0.08-0.15-0.13-0.25-0.16-0.05-0.01-0.1-0.01-0.15 0zm-6.44 1v1h3v-1h-2zm-1 4h5v5h-5v-1zm6 0h5v5h-5zm-4 1v1h-1v1h1v1h1v-1h1v-1h-1v-1zm5 0v1h3v-1zm0 2v1h3v-1z" fill="currentColor"/>
 </g>
 <g id="accessories-dictionary">
  <rect width="32" height="32" opacity=".001"/>
  <path class="ColorScheme-Text" d="m19.345 21.001c0.53818-0.01332 1.0909 0.06663 1.6727 0.1999 0.93091 0.21323 1.92 0.57306 2.9818 0.8396v1.9591h-16v-1.9457c1.0473-0.26654 2.0509-0.62636 2.9818-0.8396 1.5709-0.35983 2.9091-0.39981 4.5818 0.98619l0.49455 0.39981 0.48-0.41313c1.0182-0.85292 1.9055-1.1594 2.8073-1.1861z" fill="currentColor" opacity=".35"/>
  <path class="ColorScheme-Text" d="m19.711 5.002c-0.22 0-0.44112 0.013341-0.67578 0.042969-0.836 0.11851-1.8316 0.51958-2.9609 1.127-2.2587-1.2592-4.0197-1.3344-5.4863-0.94922-1.5693 0.39997-2.8462 0.8366-4.8262 0.77734l-0.76172-0.029297v21.029h22v-21l-0.76172 0.029297c-2.2147 0.074069-3.3302-0.34579-4.7676-0.77539-0.528-0.16295-1.1144-0.26677-1.7598-0.25195zm-7.2031 2.0101c0.69694 0.055709 1.4842 0.32931 2.4922 0.91602v12.996c-1.54-0.94776-3.0932-1.0212-4.4512-0.66016-0.924 0.2407-1.7508 0.51067-2.5488 0.73633v-12.998c1.12-0.21061 2.0571-0.55559 2.8691-0.78125 0.336-0.090263 0.6448-0.16718 0.9668-0.19727 0.217-0.026327 0.43956-0.030289 0.67187-0.011719zm6.9844 0c0.23231-0.01857 0.45488-0.014608 0.67187 0.011719 0.322 0.030088 0.6308 0.107 0.9668 0.19727 0.812 0.22566 1.7491 0.57064 2.8691 0.78125v12.998c-0.798-0.22566-1.6248-0.49563-2.5488-0.73633-1.358-0.36105-2.9112-0.2876-4.4512 0.66016v-12.996c1.008-0.58671 1.7952-0.86031 2.4922-0.91602zm-0.14648 14.49c0.53818-0.01332 1.0901 0.06594 1.6719 0.19922 0.93091 0.21323 1.9206 0.57331 2.9824 0.83984v1.4586h-16v-1.445c1.0473-0.26654 2.0515-0.62661 2.9824-0.83984 1.5709-0.35983 2.9093-0.39967 4.582 0.98633l0.49414 0.40039 0.48047-0.41406c1.0182-0.85292 1.9048-1.1589 2.8066-1.1855z" fill="currentColor"/>
 </g>
 <g id="accessories-calculator" transform="translate(32 -1.4073e-6)">
  <rect width="32" height="32" opacity=".001"/>
  <path class="ColorScheme-Text" d="m7.9336 5s-2.9336 2.603e-4 -2.9336 2.9336v16.133s2.604e-4 2.9336 2.9336 2.9336h16.133s2.9336-2.61e-4 2.9336-2.9336v-16.133c0-2.9333-2.9336-2.9336-2.9336-2.9336zm0.066406 3h7v7h-7v-5.5996zm9 0h7v7h-7zm1.4941 0.99414a0.50005 0.50005 0 0 0-0.34766 0.85938l1.6465 1.6465-1.6465 1.6465a0.50005 0.50005 0 1 0 0.70703 0.70703l1.6465-1.6465 1.6465 1.6465a0.50005 0.50005 0 1 0 0.70703-0.70703l-1.6465-1.6465 1.6465-1.6465a0.50005 0.50005 0 0 0-0.36328-0.85742 0.50005 0.50005 0 0 0-0.34375 0.15039l-1.6465 1.6465-1.6465-1.6465a0.50005 0.50005 0 0 0-0.35938-0.15234zm-9.4941 2.0059v1h5v-1h-3.334zm-1 6h7v7h-7v-1.4004zm9 0h7v7h-7zm-6 1v2h-2v1h2v2h1v-2h2v-1h-2v-2zm7 1v1h5v-1h-3.334zm0 2v1h5v-1h-3.334z" fill="currentColor"/>
 </g>
</svg>
