<?xml version="1.0" encoding="UTF-8"?>
<svg width="32" height="32" version="1.1" xmlns="http://www.w3.org/2000/svg">
 <defs id="materia">
  <style id="current-color-scheme" type="text/css">.ColorScheme-Background {color:#181818; } .ColorScheme-ButtonBackground { color:#343434; } .ColorScheme-Highlight { color:#4285f4; } .ColorScheme-Text { color:#dfdfdf; } .ColorScheme-ViewBackground { color:#242424; } .ColorScheme-NegativeText { color:#f44336; } .ColorScheme-PositiveText { color:#4caf50; } .ColorScheme-NeutralText { color:#ff9800; }</style>
 </defs>
 <g id="22-22-akonadi" transform="translate(32,10)">
  <path d="m0 2.5e-7h22v22h-22z" opacity=".001"/>
  <path class="ColorScheme-Text" d="m8.002 3c-2.2069 1.2739-3.5715 3.4318-3.9121 5.7637 0.24138-0.11452 0.49066-0.21684 0.74609-0.29883 1.102-0.3537 2.3312-0.45973 3.6172-0.46484 1.7806-0.0070863 3.6821 0.225 5.4668 0.56641-1.3891-2.9982-3.3958-5.5781-5.918-5.5664zm4.2402 1.1172c1.0427 1.1189 1.8919 2.5314 2.5859 4.0293l0.31836 0.6875c0.96302 0.21955 1.8868 0.45627 2.6914 0.70898-0.5927-2.7758-2.8029-4.9189-5.5957-5.4258zm-3.7852 4.8828c-2.4581 0.0097826-4.5647 0.43797-5.457 2 0 4.418 3.5817 8 8 8 4.418 0 8-3.582 8-8-2.3409-0.91539-6.8403-2.0147-10.543-2z" fill="currentColor"/>
 </g>
 <g id="akonadi">
  <path d="m0 0h32v32h-32z" opacity=".001"/>
  <path class="ColorScheme-Text" d="m11.503 4c-3.3103 1.9109-5.3572 5.1476-5.8682 8.6455 0.36208-0.17179 0.73599-0.32526 1.1191-0.44824 1.6529-0.53054 3.4968-0.68959 5.4258-0.69726 2.6709-0.01063 5.5231 0.3375 8.2002 0.84961-2.0836-4.4973-5.0938-8.3671-8.877-8.3496zm6.3604 1.6758c1.5641 1.6783 2.8379 3.7971 3.8789 6.0439l0.47754 1.0312c1.4445 0.32933 2.8301 0.6844 4.0371 1.0635-0.88905-4.1637-4.2044-7.3784-8.3936-8.1387zm-5.6777 7.3242c-3.6872 0.01467-6.8471 0.65696-8.1855 3 0 6.627 5.3726 12 12 12 6.627 0 12-5.373 12-12-3.5114-1.3731-10.26-3.0221-15.814-3z" fill="currentColor"/>
 </g>
</svg>
