<?xml version="1.0" encoding="UTF-8"?>
<svg width="32" height="32" version="1.1" xmlns="http://www.w3.org/2000/svg">
 <defs id="materia">
  <style id="current-color-scheme" type="text/css">.ColorScheme-Background {color:#181818; } .ColorScheme-ButtonBackground { color:#343434; } .ColorScheme-Highlight { color:#4285f4; } .ColorScheme-Text { color:#dfdfdf; } .ColorScheme-ViewBackground { color:#242424; } .ColorScheme-NegativeText { color:#f44336; } .ColorScheme-PositiveText { color:#4caf50; } .ColorScheme-NeutralText { color:#ff9800; }</style>
 </defs>
 <g id="22-22-akregator" transform="translate(32,10)">
  <rect width="22" height="22" opacity=".001"/>
  <path class="ColorScheme-Text" d="m5 3c-1.108 0-2 0.892-2 2v12c0 1.108 0.892 2 2 2h12c1.108 0 2-0.892 2-2 0-14-10-14-14-14zm0 2c6.2222 0 9.461 2.205 10.885 4.9102 1.4238 2.7052 1.1152 5.701 1.1152 7.0898h-2c0-1.6111 0.19146-4.1153-0.88477-6.1602-1.0762-2.0448-3.3375-3.8398-9.1152-3.8398zm0 4c3.9108 0 6.1297 1.1322 7.1582 2.8633s0.8418 3.6883 0.8418 5.1367h-2c0-1.5516 0.04484-3.0944-0.56055-4.1133-0.60538-1.0189-1.8859-1.8867-5.4395-1.8867zm2.002 4c1.1043 0 1.9974 0.89632 1.998 2 0 1.105-0.89371 2-1.998 2-1.107 0-2.002-0.89501-2.002-2 0-1.1037 0.89498-2 2.002-2z" fill="currentColor"/>
 </g>
 <g id="akregator">
  <rect width="32" height="32" opacity=".001"/>
  <path class="ColorScheme-Text" d="m7 4c-1.662 0-3 1.338-3 3v18c0 1.662 1.338 3 3 3h18c1.662 0 3-1.338 3-3 0-21-15-21-21-21zm0 3c9.3333 0 14.191 3.3075 16.327 7.3652 2.1357 4.0577 1.6729 8.5514 1.6729 10.635h-3c0-2.4167 0.2872-6.173-1.3271-9.2402-1.6143-3.0673-5.0062-5.7598-13.673-5.7598zm0 6c5.8662 0 9.1945 1.6983 10.737 4.2949 1.5428 2.5966 1.2627 5.5325 1.2627 7.7051h-3c0-2.3274 0.06726-4.6416-0.84082-6.1699-0.90807-1.5284-2.8288-2.8301-8.1592-2.8301zm3.0029 6c1.6565 0 2.9961 1.3445 2.9971 3 0 1.6575-1.3406 3-2.9971 3-1.6605 0-3.0029-1.3425-3.0029-3 0-1.6555 1.3425-3 3.0029-3z" fill="currentColor"/>
 </g>
</svg>
