<?xml version="1.0" encoding="UTF-8"?>
<svg width="32" height="32" version="1.1" xmlns="http://www.w3.org/2000/svg">
 <defs id="materia">
  <style id="current-color-scheme" type="text/css">.ColorScheme-Background {color:#181818; } .ColorScheme-ButtonBackground { color:#343434; } .ColorScheme-Highlight { color:#4285f4; } .ColorScheme-Text { color:#dfdfdf; } .ColorScheme-ViewBackground { color:#242424; } .ColorScheme-NegativeText { color:#f44336; } .ColorScheme-PositiveText { color:#4caf50; } .ColorScheme-NeutralText { color:#ff9800; }</style>
 </defs>
 <g id="22-22-amarok" transform="translate(32)">
  <rect y="10" width="22" height="22" opacity=".001"/>
  <path class="ColorScheme-Text" d="m16.087 13c-0.381 0-1.1195 0.931-1.3965 1.0781-0.278 0.1472-2.5705 2.2154-2.778 2.5098-0.208 0.2943-0.48516 0.41708-0.78516 0.39258-0.3005-0.0245-1.2488-0.03409-1.5723 0.16211-0.323 0.1963-1.7983 1.8-2.168 1.9961-0.3694 0.1962-0.85308 0.29777-1.084 0.32227s-0.99532 0.92986-1.2031 1.1016-1.8492 0.92527-2.0801 1.0723c-0.23094 0.1472 1.4838 1.8084 1.7608 1.8574 0.27707 0.04913-0.71866 0.69978-0.72461 1.166-0.0059 0.46514 0.67784 1.8503 3.4756 3.4805 2.4186 1.4093 5.2729 0.7304 6.2372 0.44336 0.38258-0.11389 0.2417-1.4219 0.3125-2.1172 0.04622-0.44146 0.20821-4.2436 0.80859-5.2246 0.6003-0.98095 2.016-2.1586 2.6163-2.2812 0.60035-0.12263 0.48438-0.36915 0.48438-0.58984 0-0.22071-0.09226-0.71161-0.25391-0.78516-0.16161-0.07356-0.79225 0.36894-1 0.41797-0.2078 0.04904-1.1993 0.1222-1.3379-0.12305-0.1385-0.24511 1.22-2.6471 1.3815-2.9414 0.1615-0.29435 0.23019-0.68663-0.07031-1.1035-0.299-0.41742-0.5061-0.83398-0.6211-0.83398zm-5.5338 5.0098c0.24463-0.02466 0.43555 0.0039 0.43555 0.0039 0.0876 0.1973-0.32137 0.81774-0.70117 0.90234-0.3797 0.0845-1.256 1.3249-1.2852 1.043-0.0293-0.2818 0.35076-1.2119 0.78906-1.6348 0.21908-0.2114 0.51709-0.28979 0.76172-0.31445z" fill="currentColor"/>
 </g>
 <g id="amarok">
  <rect width="32" height="32" opacity=".001"/>
  <path class="ColorScheme-Text" d="m24.195 4c-0.55876 0-1.6426 1.3965-2.0488 1.6172-0.4077 0.22081-3.7699 3.324-4.0742 3.7656-0.30504 0.44147-0.71042 0.62464-1.1504 0.58789-0.4407-0.036755-1.8322-0.050172-2.3066 0.24414-0.4737 0.29446-2.6375 2.7-3.1797 2.9941-0.54175 0.29431-1.2512 0.44567-1.5898 0.48242-0.33863 0.03675-1.4589 1.3948-1.7637 1.6523-0.30475 0.25756-2.7122 1.3889-3.0508 1.6094-0.33869 0.22081 2.1758 2.9114 2.582 2.9849 0.40634 0.07369-1.0538 1.0506-1.0625 1.75-0.00865 0.69774 0.99463 2.5756 5.0977 5.021 3.547 2.114 7.6319 1.0946 9.0461 0.66406 0.56108-0.17084 0.35515-2.1328 0.45898-3.1758 0.06778-0.66221 0.40546-5.966 1.286-7.4375 0.88038-1.4715 2.9575-3.238 3.8379-3.4219 0.88045-0.18395 0.70898-0.55372 0.70898-0.88477 0-0.33108-0.13403-1.2666-0.37109-1.377-0.23701-0.11034-1.1621 0.75262-1.4668 0.82617-0.30475 0.07356-1.7596 0.1843-1.9629-0.18359-0.20312-0.36768 1.7885-4.371 2.0254-4.8125 0.23685-0.44154 0.33914-1.0289-0.10156-1.6543-0.43851-0.62615-0.74346-1.252-0.91211-1.252zm-7.4023 8.0039c0.11747 0.0061 0.18945 0.01758 0.18945 0.01758 0.13141 0.29582-0.483 1.2247-1.0527 1.3516-0.56958 0.1267-1.8839 1.9871-1.9277 1.5645-0.04395-0.42252 0.52611-1.8171 1.1836-2.4512 0.32863-0.31696 0.77561-0.43373 1.1426-0.4707 0.18348-0.01849 0.34738-0.01782 0.46484-0.01172z" fill="currentColor"/>
 </g>
</svg>
