<?xml version="1.0" encoding="UTF-8"?>
<svg width="32" height="32" version="1" xmlns="http://www.w3.org/2000/svg">
 <defs id="materia">
  <style id="current-color-scheme" type="text/css">.ColorScheme-Background {color:#181818; } .ColorScheme-ButtonBackground { color:#343434; } .ColorScheme-Highlight { color:#4285f4; } .ColorScheme-Text { color:#dfdfdf; } .ColorScheme-ViewBackground { color:#242424; } .ColorScheme-NegativeText { color:#f44336; } .ColorScheme-PositiveText { color:#4caf50; } .ColorScheme-NeutralText { color:#ff9800; }</style>
 </defs>
 <g id="antimicro">
  <rect width="32" height="32" opacity=".001"/>
  <path class="ColorScheme-Text" d="m15.959 4c-8.3719-2e-7 -9.3462 0.13094-11.027 1.4766-1.7995 1.4403-1.9973 2.1943-2.5605 9.8262-0.27768 3.7623-0.43417 7.2041-0.34766 7.6504 0.19556 1.0087 1.267 2.271 2.2969 2.7051 1.9968 0.84164 3.7649 0.14388 5.6328-2.2207l1.1562-1.4629h4.4688c3.2628 0.005521 5.1267 0.12444 5.3945 0.33594 0.20974 0.16562 0.94669 0.85541 1.6367 1.6543 0.69004 0.79889 1.6046 1.608 2.0332 1.7969 0.45283 0.19953 1.0476 0.26981 1.6562 0.22656 1.3925-0.11129 2.7146-0.87206 3.3496-2.252 0.46316-1.0181 0.46377-1.2136 0.03125-7.0684-0.14776-2.0002-0.27978-3.6274-0.37109-4.627 0.056154-1.0418-0.001555-1.781-0.16211-2.6719-0.38008-2.0879-0.92228-2.8556-2.0352-3.7773-1.7684-1.4647-2.6511-1.5918-11.152-1.5918zm-7.209 3h1.5c0.4155 0 0.75 0.3345 0.75 0.75v2.25h2.25c0.4155 0 0.75 0.3345 0.75 0.75v1.5c0 0.4155-0.3345 0.75-0.75 0.75h-2.25v2.25c0 0.4155-0.3345 0.75-0.75 0.75h-1.5c-0.4155 0-0.75-0.3345-0.75-0.75v-2.25h-2.25c-0.4155 0-0.75-0.3345-0.75-0.75v-1.5c0-0.4155 0.3345-0.75 0.75-0.75h2.25v-2.25c0-0.4155 0.3345-0.75 0.75-0.75zm13.75 0a1.5 1.5 0 0 1 1.5 1.5 1.5 1.5 0 0 1-1.5 1.5 1.5 1.5 0 0 1-1.5-1.5 1.5 1.5 0 0 1 1.5-1.5zm-3 3a1.5 1.5 0 0 1 1.5 1.5 1.5 1.5 0 0 1-1.5 1.5 1.5 1.5 0 0 1-1.5-1.5 1.5 1.5 0 0 1 1.5-1.5zm6 0a1.5 1.5 0 0 1 1.5 1.5 1.5 1.5 0 0 1-1.5 1.5 1.5 1.5 0 0 1-1.5-1.5 1.5 1.5 0 0 1 1.5-1.5zm-3 3a1.5 1.5 0 0 1 1.5 1.5 1.5 1.5 0 0 1-1.5 1.5 1.5 1.5 0 0 1-1.5-1.5 1.5 1.5 0 0 1 1.5-1.5z" fill="currentColor"/>
 </g>
 <g id="22-22-antimicro" transform="translate(27,5)">
  <rect x="5" y="5" width="22" height="22" opacity=".001"/>
  <path class="ColorScheme-Text" d="m11.025 9.0004v2e-3c-2.4887 0-4.3598 2.0011-4.4906 4.4805l-0.49809 8.4606c-0.31503 1.85 1.4828 3.0171 2.9944 0.99414 0.94258-1.279 2.969-3.9375 2.969-3.9375l8.0007 0.04102 2.9885 4.0215c1.499 2.012 3.1869 0.35787 2.9963-1.0039l-0.49614-8.4743c7.84e-4 -0.03462 0.0098-0.06675 0.0098-0.10156-3e-5 -2.4824-2.0023-4.4824-4.4906-4.4824zm-1.0255 2h2.0002v2h2.0002v2h-2.0002v2h-2.0002v-2h-2.0002v-2h2.0002zm11.001 0c0.55233 0 1.0001 0.44772 1.0001 1 0 0.55228-0.44775 1-1.0001 1s-1.0001-0.44772-1.0001-1 0.44775-1 1.0001-1zm-2.0002 2c0.55233 0 1.0001 0.44772 1.0001 1s-0.44775 1-1.0001 1-1.0001-0.44772-1.0001-1c0-0.55228 0.44775-1 1.0001-1zm4.0003 0c0.55233 0 1.0001 0.44772 1.0001 1s-0.44775 1-1.0001 1-1.0001-0.44772-1.0001-1 0.44775-1 1.0001-1zm-2.0002 2c0.55233 1e-6 1.0001 0.44772 1.0001 1s-0.44775 1-1.0001 1-1.0001-0.44772-1.0001-1 0.44775-1 1.0001-1z" fill="currentColor"/>
 </g>
</svg>
