<?xml version="1.0" encoding="UTF-8"?>
<svg width="32" height="32" version="1.1" xmlns="http://www.w3.org/2000/svg">
 <defs id="materia">
  <style id="current-color-scheme" type="text/css">.ColorScheme-Background {color:#181818; } .ColorScheme-ButtonBackground { color:#343434; } .ColorScheme-Highlight { color:#4285f4; } .ColorScheme-Text { color:#dfdfdf; } .ColorScheme-ViewBackground { color:#242424; } .ColorScheme-NegativeText { color:#f44336; } .ColorScheme-PositiveText { color:#4caf50; } .ColorScheme-NeutralText { color:#ff9800; }</style>
 </defs>
 <g id="applications-other">
  <rect width="32" height="32" opacity=".001"/>
  <path class="ColorScheme-Text" d="m5 2c-1.662 0-3 1.338-3 3v6c0 1.662 1.338 3 3 3h6c1.662 0 3-1.338 3-3v-6c0-1.662-1.338-3-3-3h-6zm16 0c-1.662 0-3 1.338-3 3v6c0 1.662 1.338 3 3 3h6c1.662 0 3-1.338 3-3v-6c0-1.662-1.338-3-3-3h-6zm0 3h6v6h-6v-6zm-16 13c-1.662 0-3 1.338-3 3v6c0 1.662 1.338 3 3 3h6c1.662 0 3-1.338 3-3v-6c0-1.662-1.338-3-3-3h-6zm16 0c-1.662 0-3 1.338-3 3v6c0 1.662 1.338 3 3 3h6c1.662 0 3-1.338 3-3v-6c0-1.662-1.338-3-3-3h-6zm-16 3h6v6h-6v-6z" fill="currentColor"/>
 </g>
 <g id="22-22-applications-other" transform="translate(27,5)">
  <rect x="5" y="5" width="22" height="22" opacity=".001"/>
  <path class="ColorScheme-Text" transform="translate(-27,-5)" d="m37.5 14c-0.831 0-1.5 0.669-1.5 1.5v3c0 0.831 0.669 1.5 1.5 1.5h3c0.831 0 1.5-0.669 1.5-1.5v-3c0-0.831-0.669-1.5-1.5-1.5h-3zm8 0c-0.831 0-1.5 0.669-1.5 1.5v3c0 0.831 0.669 1.5 1.5 1.5h3c0.831 0 1.5-0.669 1.5-1.5v-3c0-0.831-0.669-1.5-1.5-1.5h-3zm0.5 2h2v2h-2v-2zm-8.5 6c-0.831 0-1.5 0.669-1.5 1.5v3c0 0.831 0.669 1.5 1.5 1.5h3c0.831 0 1.5-0.669 1.5-1.5v-3c0-0.831-0.669-1.5-1.5-1.5h-3zm8 0c-0.831 0-1.5 0.669-1.5 1.5v3c0 0.831 0.669 1.5 1.5 1.5h3c0.831 0 1.5-0.669 1.5-1.5v-3c0-0.831-0.669-1.5-1.5-1.5h-3zm-7.5 2h2v2h-2v-2z" fill="currentColor"/>
 </g>
</svg>
