<?xml version="1.0" encoding="UTF-8"?>
<svg width="32" height="32" version="1.1" xmlns="http://www.w3.org/2000/svg">
 <defs id="materia">
  <style id="current-color-scheme" type="text/css">.ColorScheme-Background {color:#181818; } .ColorScheme-ButtonBackground { color:#343434; } .ColorScheme-Highlight { color:#4285f4; } .ColorScheme-Text { color:#dfdfdf; } .ColorScheme-ViewBackground { color:#242424; } .ColorScheme-NegativeText { color:#f44336; } .ColorScheme-PositiveText { color:#4caf50; } .ColorScheme-NeutralText { color:#ff9800; }</style>
 </defs>
 <g id="22-22-audacious" transform="translate(27 5)">
  <rect x="5" y="5" width="22" height="22" opacity=".001"/>
  <g transform="translate(0 -288.53)">
   <path class="ColorScheme-Text" d="m16 296.53a8 8 0 0 0-8 8 8 8 0 0 0 8 8 8 8 0 0 0 8-8 8 8 0 0 0-8-8zm-0.11523 4.002h2e-3c1.8673 0.0706 2.9719 1.333 3.0938 3.1738 0.1373 2.0751-0.47461 2.6162-0.21289 3.0332 0.54652 0.87079-0.22644 1.098-0.74023 1.5234-0.32 0.265-0.939 0.145-1.245-0.232-0.93-0.538-0.57 0.495-2.49 0.5-0.9983-0.041-1.9153-0.761-2.1739-1.732-0.3964-1.49 0.1855-2.589 1.8047-3.108 0.4684-0.15 1.3962-0.06 1.8052-0.3592 0.385-0.2822 0.249-0.6874-0.225-0.7403-0.6798-0.0758-1.7401 0.2319-2.3673 0.1075-0.5034-0.0999-0.6566-1.0612-0.3281-1.4746 0.5376-0.6767 1.9163-0.6476 2.6954-0.6836 0.1312-6e-3 0.25638-0.0125 0.38086-8e-3zm-0.24805 4.4492c-0.43248 0-0.79102 0.32278-0.79102 0.72461 0 0.40185 0.35851 0.73242 0.79102 0.73242 0.4325 0 0.77344-0.33059 0.77344-0.73242 0-0.40181-0.34093-0.72461-0.77344-0.72461z" fill="currentColor"/>
  </g>
 </g>
 <g id="audacious">
  <rect width="32" height="32" opacity=".001"/>
  <path class="ColorScheme-Text" d="m16 4a12 12 0 0 0-12 12 12 12 0 0 0 12 12 12 12 0 0 0 12-12 12 12 0 0 0-12-12zm0.54883 6.002h0.001953 0.001953c2.6667 0.1059 4.2439 2.0005 4.418 4.7617 0.19608 3.1126-0.67845 3.9233-0.30469 4.5488 0.78048 1.3062-0.3229 1.6471-1.0566 2.2852-0.45699 0.3975-1.3403 0.21784-1.7773-0.34766-1.3281-0.807-0.8147 0.7425-3.5566 0.75-1.4257-0.0615-2.7342-1.1412-3.1035-2.5977-0.5661-2.235 0.26381-3.8836 2.5762-4.6621 0.66892-0.225 1.994-0.090262 2.5781-0.53906 0.54982-0.4233 0.3566-1.2312-0.32031-1.3105-0.97082-0.1137-2.3856 0.34676-3.2812 0.16016-0.7189-0.14985-0.93788-1.3916-0.46875-2.0117 0.76774-1.015 2.6374-0.97139 3.75-1.0254 0.18737-9e-3 0.3652-0.018469 0.54297-0.011719zm-0.53711 6.998c-0.55288 0-1.0117 0.44257-1.0117 0.99414 0 0.5516 0.4588 1.0059 1.0117 1.0059 0.55291 0 0.98828-0.45428 0.98828-1.0059 0-0.55155-0.43536-0.99414-0.98828-0.99414z" fill="currentColor"/>
 </g>
</svg>
