<?xml version="1.0" encoding="UTF-8"?>
<svg width="32" height="32" version="1.1" xmlns="http://www.w3.org/2000/svg">
 <defs id="materia">
  <style id="current-color-scheme" type="text/css">.ColorScheme-Background {color:#181818; } .ColorScheme-ButtonBackground { color:#343434; } .ColorScheme-Highlight { color:#4285f4; } .ColorScheme-Text { color:#dfdfdf; } .ColorScheme-ViewBackground { color:#242424; } .ColorScheme-NegativeText { color:#f44336; } .ColorScheme-PositiveText { color:#4caf50; } .ColorScheme-NeutralText { color:#ff9800; }</style>
 </defs>
 <g id="22-22-audio-volume-low" transform="translate(-293 397)">
  <path d="m325-419h22v22h-22v-22z" opacity=".001"/>
  <path class="ColorScheme-Text" d="m335-416-5 5h-3v6h3l5 5z" fill="currentColor"/>
  <path class="ColorScheme-Text" d="m337-416v2c2.8684 0.84571 5 3.0629 5 6s-2.1316 5.1543-5 6v2c3.8946-0.89143 7-4.1143 7-8s-3.1054-7.1086-7-8z" fill="currentColor" opacity=".35"/>
  <path class="ColorScheme-Text" d="m337-412v8s3.0002-1 3-4-3-4-3-4z" fill="currentColor" opacity=".35"/>
 </g>
 <g id="22-22-audio-volume-medium" transform="translate(-261 397)">
  <path d="m325-419h22v22h-22v-22z" opacity=".001"/>
  <path class="ColorScheme-Text" d="m335-416-5 5h-3v6h3l5 5z" fill="currentColor"/>
  <path class="ColorScheme-Text" d="m337-416v2c2.8684 0.84571 5 3.0629 5 6s-2.1316 5.1543-5 6v2c3.8946-0.89143 7-4.1143 7-8s-3.1054-7.1086-7-8z" fill="currentColor" opacity=".35"/>
  <path class="ColorScheme-Text" d="m337-412v8s3.0002-1 3-4-3-4-3-4z" fill="currentColor"/>
 </g>
 <g id="22-22-audio-volume-high" transform="translate(-229 397)">
  <path d="m325-419h22v22h-22v-22z" opacity=".001"/>
  <path class="ColorScheme-Text" d="m335-416-5 5h-3v6h3l5 5z" fill="currentColor"/>
  <path class="ColorScheme-Text" d="m337-416v2c2.8684 0.84571 5 3.0629 5 6s-2.1316 5.1543-5 6v2c3.8946-0.89143 7-4.1143 7-8s-3.1054-7.1086-7-8z" fill="currentColor"/>
  <path class="ColorScheme-Text" d="m337-412v8s3.0002-1 3-4-3-4-3-4z" fill="currentColor"/>
 </g>
 <g id="audio-volume-muted">
  <path d="m-6.818e-7 -4.5e-6h32v32h-32v-32z" opacity=".001"/>
  <path class="ColorScheme-Text" d="m5.1602 2.0391-2.1211 2.1211 5.6914 5.6914-1.2305 1.1484h-4.5v10h4.5l7.5 7v-11.879l3 3v2.793a6 6 0 0 0 2.0391-0.75391l2.1582 2.1582a9 9 0 0 1-4.1973 1.6152v3.0156a12 12 0 0 0 6.3398-2.4883l2.5 2.5 2.1211-2.1211-23.801-23.801zm9.8398 1.9609-1.8809 1.7559 1.8809 1.8809v-3.6367zm3 0.046875v3.0137a9 9 0 0 1 8 8.9395 9 9 0 0 1-0.31641 2.3203l2.3555 2.3555a12 12 0 0 0 0.96094-4.6758 12 12 0 0 0-11-11.953zm0 6.043v0.54688l4.9805 4.9805a6 6 0 0 0-4.9805-5.5273z" fill="currentColor" opacity=".35"/>
 </g>
 <g id="audio-volume-low" transform="translate(32)">
  <path d="m-6.818e-7 -4.5e-6h32v32h-32v-32z" opacity=".001"/>
  <path class="ColorScheme-Text" d="m15 4-7.5 7h-4.5v10h4.5l7.5 7z" fill="currentColor"/>
  <path class="ColorScheme-Text" transform="translate(-32)" d="m50 4.0469v3.0137a9 9 0 0 1 8 8.9395 9 9 0 0 1-8 8.9336v3.0156a12 12 0 0 0 11-11.949 12 12 0 0 0-11-11.953zm0 6.043v11.824a6 6 0 0 0 5-5.9141 6 6 0 0 0-5-5.9102z" fill="currentColor" opacity=".35"/>
 </g>
 <g id="audio-volume-medium" transform="translate(64)">
  <path d="m-6.818e-7 -4.5e-6h32v32h-32v-32z" opacity=".001"/>
  <path class="ColorScheme-Text" transform="translate(-64)" d="m79 4-7.5 7h-4.5v10h4.5l7.5 7v-24zm3 6.0898v11.824a6 6 0 0 0 5-5.9141 6 6 0 0 0-5-5.9102z" fill="currentColor"/>
  <path class="ColorScheme-Text" d="m18 4.0469v3.0137a9 9 0 0 1 8 8.9395 9 9 0 0 1-8 8.9336v3.0156a12 12 0 0 0 11-11.949 12 12 0 0 0-11-11.953z" fill="currentColor" opacity=".35"/>
 </g>
 <g id="audio-volume-high" transform="translate(96)">
  <path d="m-6.818e-7 -4.5e-6h32v32h-32v-32z" opacity=".001"/>
  <path class="ColorScheme-Text" transform="translate(-96)" d="m111 4-7.5 7h-4.5v10h4.5l7.5 7v-24zm3 0.046875v3.0137a9 9 0 0 1 8 8.9395 9 9 0 0 1-8 8.9336v3.0156a12 12 0 0 0 11-11.949 12 12 0 0 0-11-11.953zm0 6.043v11.824a6 6 0 0 0 5-5.9141 6 6 0 0 0-5-5.9102z" fill="currentColor"/>
 </g>
 <g id="22-22-audio-radio-symbolic" transform="translate(-5 59)">
  <rect x="5" y="5" width="22" height="22" opacity=".001"/>
  <path class="ColorScheme-Text" d="m11.984 6.9922c-0.55229 0.0086-0.99302 0.46334-0.98438 1.0156v3h-1c-1.108 0-2 0.892-2 2v8.9922c0 1.108 0.892 2 2 2h12c1.108 0 2-0.892 2-2v-8.9922c0-1.108-0.89867-2.1214-2-2h-9v-3c0.0088-0.56453-0.45109-1.0245-1.0156-1.0156zm-1.9844 6.0156h12v8.9922h-12zm3.5 1.9922a2.5 2.5 0 0 0-2.5 2.5 2.5 2.5 0 0 0 2.5 2.5 2.5 2.5 0 0 0 2.5-2.5 2.5 2.5 0 0 0-2.5-2.5zm4 0a0.50005 0.50005 0 1 0 0 1h3a0.50005 0.50005 0 1 0 0-1zm0 2a0.50005 0.50005 0 1 0 0 1h3a0.50005 0.50005 0 1 0 0-1zm0 2a0.50005 0.50005 0 1 0 0 1h3a0.50005 0.50005 0 1 0 0-1z" fill="currentColor"/>
 </g>
 <g id="audio-radio-symbolic" transform="translate(-1.818e-7 32)">
  <rect width="32" height="32" opacity=".001"/>
  <path class="ColorScheme-Text" d="m9.4766 2.9785a1.5002 1.5002 0 0 0-1.4766 1.5215v5.5h-1c-1.662 0-3 1.338-3 3v12c0 1.662 1.338 3 3 3h18c1.662 0 3-1.338 3-3v-12c0-1.662-1.338-3-3-3h-14v-5.5a1.5002 1.5002 0 0 0-1.5234-1.5215zm-2.4766 10.021h18v12h-18zm5 2a4 4 0 0 0-4 4 4 4 0 0 0 4 4 4 4 0 0 0 4-4 4 4 0 0 0-4-4zm6 0a1.0001 1.0001 0 1 0 0 2h4a1.0001 1.0001 0 1 0 0-2zm0 3a1.0001 1.0001 0 1 0 0 2h4a1.0001 1.0001 0 1 0 0-2zm0 3a1.0001 1.0001 0 1 0 0 2h4a1.0001 1.0001 0 1 0 0-2z" fill="currentColor"/>
 </g>
 <g id="22-22-audio-volume-muted" transform="translate(-5 -27)">
  <path d="m5 5h22v22h-22v-22z" opacity=".001"/>
  <path class="ColorScheme-Text" d="m8.4062 7-1.4062 1.4062 3.793 3.8008-0.79297 0.79297h-3v6h3l5 5v-7.5859l2 2v1.5859s0.47255-0.16767 1.0391-0.54688l1.3613 1.3613c-0.70336 0.51211-1.5077 0.92233-2.4004 1.1855v2c1.4032-0.32119 2.6966-0.95141 3.7852-1.8008l2.8086 2.8008 1.4062-1.4062-2.7773-2.7852-10.016-10.016zm6.5938 1-1.3789 1.3789 1.3789 1.3789zm2 0v2c2.8684 0.84571 5 3.0629 5 6 0 0.53848-0.09381 1.0432-0.22852 1.5293l1.541 1.541c0.43655-0.94787 0.6875-1.9817 0.6875-3.0703 0-3.8857-3.1054-7.1086-7-8zm0 4v0.75781l2.9844 2.9844c-0.16895-2.7952-2.9844-3.7422-2.9844-3.7422z" fill="currentColor" opacity=".35"/>
 </g>
</svg>
