<?xml version="1.0" encoding="UTF-8"?>
<svg width="32" height="32" version="1" xmlns="http://www.w3.org/2000/svg">
 <defs id="materia">
  <style id="current-color-scheme" type="text/css">.ColorScheme-Background {color:#181818; } .ColorScheme-ButtonBackground { color:#343434; } .ColorScheme-Highlight { color:#4285f4; } .ColorScheme-Text { color:#dfdfdf; } .ColorScheme-ViewBackground { color:#242424; } .ColorScheme-NegativeText { color:#f44336; } .ColorScheme-PositiveText { color:#4caf50; } .ColorScheme-NeutralText { color:#ff9800; }</style>
 </defs>
 <g id="22-22-battery-ups" transform="translate(255.46 -426.5)">
  <rect x="192.54" y="404.5" width="22" height="22" opacity=".001"/>
  <path class="ColorScheme-PositiveText" d="m197.54 408.51v15h12v-15c0.0768-1.0694-1-1-1-1h-10s-1-4e-3 -1 1zm6 1v3h2l-2 5v-3h-2zm-4 10h1v2h-1zm2 0h1v2h-1zm2 0h1v2h-1zm3 0c0.55229 0 1 0.44772 1 1s-0.44771 1-1 1-1-0.44772-1-1 0.44771-1 1-1z" fill="currentColor"/>
 </g>
 <g id="22-22-Battery" transform="translate(-214.54 -404.5)">
  <rect transform="rotate(-90)" x="-404.5" y="214.54" width="22" height="22" opacity=".001"/>
  <path class="ColorScheme-Text" d="m219.54 401.51h12v-15h-4v-0.5c0-0.277-0.223-0.5-0.5-0.5h-3c-0.49575-5e-3 -0.5 0.5-0.5 0.5v0.5h-4v13zm2-2v-11h8v11z" fill="currentColor"/>
 </g>
 <g id="22-22-Fill100" transform="translate(-182.54 -404.5)">
  <rect transform="rotate(-90)" x="-404.5" y="214.54" width="22" height="22" opacity=".001"/>
  <path class="ColorScheme-Text" d="m230.54 400.51h-10v-13h10z" fill="currentColor"/>
 </g>
 <g id="22-22-Fill90" transform="translate(-150.54 -404.5)">
  <rect transform="rotate(-90)" x="-404.5" y="214.54" width="22" height="22" opacity=".001"/>
  <path class="ColorScheme-Text" d="m230.54 400.51h-10v-11h10z" fill="currentColor"/>
 </g>
 <g id="22-22-Fill80" transform="translate(-118.54,-404.5)">
  <rect transform="rotate(-90)" x="-404.5" y="214.54" width="22" height="22" opacity=".001"/>
  <path class="ColorScheme-Text" d="m230.54 400.51h-10v-10h10z" fill="currentColor"/>
 </g>
 <g id="22-22-Fill70" transform="translate(-86.54 -404.5)">
  <rect transform="rotate(-90)" x="-404.5" y="214.54" width="22" height="22" opacity=".001"/>
  <path class="ColorScheme-Text" d="m230.54 400.51h-10v-9h10z" fill="currentColor"/>
 </g>
 <g id="22-22-Fill60" transform="translate(-54.54 -404.5)">
  <rect transform="rotate(-90)" x="-404.5" y="214.54" width="22" height="22" opacity=".001"/>
  <path class="ColorScheme-Text" d="m230.54 400.51h-10v-8h10z" fill="currentColor"/>
 </g>
 <g id="22-22-Fill50" transform="translate(-22.54 -404.5)">
  <rect transform="rotate(-90)" x="-404.5" y="214.54" width="22" height="22" opacity=".001"/>
  <path class="ColorScheme-Text" d="m230.54 400.51h-10v-7h10z" fill="currentColor"/>
 </g>
 <g id="22-22-Fill40" transform="translate(9.46 -404.5)">
  <rect transform="rotate(-90)" x="-404.5" y="214.54" width="22" height="22" opacity=".001"/>
  <path class="ColorScheme-Text" d="m230.54 400.51h-10v-6h10z" fill="currentColor"/>
 </g>
 <g id="22-22-Fill30" transform="translate(41.46 -404.5)">
  <rect transform="rotate(-90)" x="-404.5" y="214.54" width="22" height="22" opacity=".001"/>
  <path class="ColorScheme-Text" d="m230.54 400.51h-10v-5h10z" fill="currentColor"/>
 </g>
 <g id="22-22-Fill20" transform="translate(73.46 -404.5)">
  <rect transform="rotate(-90)" x="-404.5" y="214.54" width="22" height="22" opacity=".001"/>
  <path class="ColorScheme-Text" d="m230.54 400.51h-10v-4h10z" fill="currentColor"/>
 </g>
 <g id="22-22-Fill10" transform="translate(105.46,-404.5)">
  <rect transform="rotate(-90)" x="-404.5" y="214.54" width="22" height="22" opacity=".001"/>
  <path class="ColorScheme-NegativeText" transform="translate(-5.4642 382.51)" d="m229.5 3c-0.49575 0-0.5 0.5-0.5 0.5v0.5h-4v15h12v-15h-4v-0.5c0-0.277-0.223-0.5-0.5-0.5zm-2.5 3h8v9h-8z" fill="currentColor"/>
 </g>
 <g id="22-22-Fill0" transform="translate(137.46,-404.5)">
  <rect transform="rotate(-90)" x="-404.5" y="214.54" width="22" height="22" opacity=".001"/>
  <path class="ColorScheme-NegativeText" d="m219.54 401.51h12v-15h-4v-0.5c0-0.277-0.223-0.5-0.5-0.5h-3c-0.49574 0-0.5 0.5-0.5 0.5v0.5h-4v13zm2-2v-11h8v11z" fill="currentColor"/>
 </g>
 <g id="22-22-Unavailable" transform="translate(213.46,-426.5)">
  <rect transform="rotate(-90)" x="-426.5" y="170.54" width="22" height="22" opacity=".001"/>
  <rect class="ColorScheme-NeutralText" x="181.54" y="415.5" width="10" height="10" ry="1" fill="currentColor"/>
  <path d="m188.66 416.97-2.1213 2.1213-2.1213-2.1213-1.4142 1.4142 2.1213 2.1213-2.1213 2.1213 1.4142 1.4142 2.1213-2.1213 2.1213 2.1213 1.4142-1.4142-2.1213-2.1213 2.1213-2.1213z" fill="#fff"/>
 </g>
 <g id="22-22-AcAdapter" transform="translate(482 7.6294e-6)">
  <rect transform="rotate(-90)" y="-66" width="22" height="22" opacity=".001"/>
  <path class="ColorScheme-PositiveText" d="m-55-15v3h2l-2 5v-3h-2z" fill="currentColor"/>
 </g>
 <g id="Fill100" transform="translate(32)">
  <rect transform="rotate(-90)" x="-32" width="32" height="32" opacity=".001"/>
  <path class="ColorScheme-Text" d="m10 25v-16h12v16z" fill="currentColor"/>
 </g>
 <g id="Battery" transform="translate(-1.8044e-6)">
  <rect transform="rotate(-90)" x="-32" width="32" height="32" opacity=".001"/>
  <path class="ColorScheme-Text" d="m7 28h18v-22h-6v-1.25c0-0.4155-0.3345-0.75-0.75-0.75h-4.5c-0.75002 0-0.75 0.75-0.75 0.75v1.25h-6v19zm3-3v-16h12v16z" fill="currentColor"/>
 </g>
 <g id="Fill90" transform="translate(64)">
  <rect transform="rotate(-90)" x="-32" width="32" height="32" opacity=".001"/>
  <path class="ColorScheme-Text" d="m10 25v-14h12v14z" fill="currentColor"/>
 </g>
 <g id="Fill80" transform="translate(96)">
  <rect transform="rotate(-90)" x="-32" width="32" height="32" opacity=".001"/>
  <path class="ColorScheme-Text" d="m10 25v-12h12v12z" fill="currentColor"/>
 </g>
 <g id="Fill70" transform="translate(128)">
  <rect transform="rotate(-90)" x="-32" width="32" height="32" opacity=".001"/>
  <path class="ColorScheme-Text" d="m10 25v-11h12v11z" fill="currentColor"/>
 </g>
 <g id="Fill60" transform="translate(160)">
  <rect transform="rotate(-90)" x="-32" width="32" height="32" opacity=".001"/>
  <path class="ColorScheme-Text" d="m10 25v-10h12v10z" fill="currentColor"/>
 </g>
 <g id="Fill50" transform="translate(192)">
  <rect transform="rotate(-90)" x="-32" width="32" height="32" opacity=".001"/>
  <path class="ColorScheme-Text" d="m10 25v-8h12v8z" fill="currentColor"/>
 </g>
 <g id="Fill40" transform="translate(224)">
  <rect transform="rotate(-90)" x="-32" width="32" height="32" opacity=".001"/>
  <path class="ColorScheme-Text" d="m10 25v-7h12v7z" fill="currentColor"/>
 </g>
 <g id="Fill30" transform="translate(256)">
  <rect transform="rotate(-90)" x="-32" width="32" height="32" opacity=".001"/>
  <path class="ColorScheme-Text" d="m10 25v-5h12v5z" fill="currentColor"/>
 </g>
 <g id="Fill20" transform="translate(288)">
  <rect transform="rotate(-90)" x="-32" width="32" height="32" opacity=".001"/>
  <path class="ColorScheme-Text" d="m10 25v-3h12v3z" fill="currentColor"/>
 </g>
 <g id="Fill10" transform="translate(32)">
  <rect transform="rotate(-90)" x="-32" y="288" width="32" height="32" opacity=".001"/>
  <path class="ColorScheme-NegativeText" d="m301.75 4c-0.75002 0-0.75 0.75-0.75 0.75v1.25h-6v22h18v-22h-6v-1.25c0-0.4155-0.3345-0.75-0.75-0.75zm-3.75 5h12v15h-12z" fill="currentColor"/>
 </g>
 <g id="Fill0" transform="translate(352)">
  <rect transform="rotate(-90)" x="-32" width="32" height="32" opacity=".001"/>
  <path class="ColorScheme-NegativeText" d="m7 28h18v-22h-6v-1.25c0-0.4155-0.3345-0.75-0.75-0.75h-4.5c-0.75002 0-0.75 0.75-0.75 0.75v1.25h-6v19zm3-3v-16h12v16z" fill="currentColor"/>
 </g>
 <g id="Unavailable" transform="translate(32)">
  <rect transform="rotate(-90)" x="-32" y="352" width="32" height="32" opacity=".001"/>
  <rect class="ColorScheme-NeutralText" x="368" y="16" width="14" height="14" ry="1.4" fill="currentColor"/>
  <path d="m378 18-3 3-3-3-2 2 3 3-3 3 2 2 3-3 3 3 2-2-3-3 3-3z" fill="#fff"/>
 </g>
 <g id="AcAdapter" transform="translate(32)">
  <rect transform="rotate(-90)" x="-32" y="384" width="32" height="32" opacity=".001"/>
  <path class="ColorScheme-PositiveText" d="m400 10v5h3l-3 7v-5h-3z" fill="currentColor"/>
 </g>
 <g id="battery-ups" transform="translate(32)">
  <rect x="416" width="32" height="32" opacity=".001"/>
  <path class="ColorScheme-PositiveText" d="m424.5 4.002s-1.5-0.00591-1.5 1.5v22.498h17.994v-22.498c0.11516-1.6039-1.5-1.5-1.5-1.5zm7.5 2.998v5h3l-3 7v-5h-3zm-6 15h1v3h-1zm3 0h1v3h-1zm3 0h1v3h-1zm4.5 0c0.82844 0 1.5 0.67163 1.5 1.5 0 0.82837-0.67156 1.5-1.5 1.5-0.82843 0-1.5-0.67163-1.5-1.5 0-0.82837 0.67157-1.5 1.5-1.5z" fill="currentColor"/>
 </g>
 <g id="profile-powersave" transform="translate(465,-27)">
  <rect transform="rotate(-90)" x="-27" y="5" width="22" height="22" opacity=".001"/>
  <path class="ColorScheme-Text" d="m16.008 8c3.5658 0.00311 6.7072 2.3758 7.6855 5.8047 0.97837 3.4289-0.43955 7.102-3.4668 8.9863a1 1 0 0 1-1.377-0.32031 1 1 0 0 1 0.32031-1.377c2.2772-1.4174 3.3356-4.1609 2.5996-6.7402-0.73596-2.5793-3.0814-4.3512-5.7637-4.3535-2.6823-0.00234-5.033 1.7657-5.7734 4.3438-0.74046 2.578 0.3132 5.3228 2.5879 6.7441a1 1 0 0 1 0.31836 1.3789 1 1 0 0 1-1.3789 0.31836c-3.024-1.8896-4.4336-5.5669-3.4492-8.9941 0.98436-3.4272 4.1315-5.7941 7.6973-5.791zm-0.0078 6a2 2 0 0 1 2 2 2 2 0 0 1-2 2 2 2 0 0 1-0.51562-0.07031l-1.7773 1.7773a1 1 0 0 1-1.4141 0 1 1 0 0 1 0-1.4141l1.7773-1.7773a2 2 0 0 1-0.070324-0.51562 2 2 0 0 1 2-2z" fill="currentColor"/>
 </g>
 <g id="profile-performance" transform="translate(487,-27)">
  <rect transform="rotate(-90)" x="-27" y="5" width="22" height="22" opacity=".001"/>
  <path class="ColorScheme-Text" d="m15.992 8c-3.5658 0.00311-6.7072 2.3758-7.6855 5.8047-0.97837 3.4289 0.43955 7.102 3.4668 8.9863a1 1 0 0 0 1.377-0.32031 1 1 0 0 0-0.32031-1.377c-2.2772-1.4174-3.3356-4.1609-2.5996-6.7402 0.73596-2.5793 3.0814-4.3512 5.7637-4.3535 2.6823-0.00234 5.033 1.7657 5.7734 4.3438s-0.3132 5.3228-2.5879 6.7441a1 1 0 0 0-0.31836 1.3789 1 1 0 0 0 1.3789 0.31836c3.024-1.8896 4.4336-5.5669 3.4492-8.9941-0.98436-3.4272-4.1315-5.7941-7.6973-5.791zm0.007812 6a2 2 0 0 0-2 2 2 2 0 0 0 2 2 2 2 0 0 0 0.51562-0.07031l1.7773 1.7773a1 1 0 0 0 1.4141 0 1 1 0 0 0 0-1.4141l-1.7773-1.7773a2 2 0 0 0 0.070312-0.51562 2 2 0 0 0-2-2z" fill="currentColor"/>
 </g>
</svg>
