<?xml version="1.0" encoding="UTF-8"?>
<svg width="32" height="32" version="1.1" xmlns="http://www.w3.org/2000/svg">
 <defs id="materia">
  <style id="current-color-scheme" type="text/css">.ColorScheme-Background {color:#181818; } .ColorScheme-ButtonBackground { color:#343434; } .ColorScheme-Highlight { color:#4285f4; } .ColorScheme-Text { color:#dfdfdf; } .ColorScheme-ViewBackground { color:#242424; } .ColorScheme-NegativeText { color:#f44336; } .ColorScheme-PositiveText { color:#4caf50; } .ColorScheme-NeutralText { color:#ff9800; }</style>
 </defs>
 <g id="bookmarks">
  <rect width="32" height="32" opacity=".001"/>
  <path class="ColorScheme-Text" d="m9.957 2c-4.3941 0-7.957 4.1163-7.957 9.1934 0 1.3641 0.20893 2.6761 0.57422 3.9297 0 0 0.33157 1.1313 0.625 1.7539 3.3537 7.961 12.801 13.123 12.801 13.123s9.4471-5.1621 12.801-13.123c0.29343-0.62264 0.625-1.7539 0.625-1.7539 0.36529-1.2536 0.57422-2.5656 0.57422-3.9297 0-5.0771-3.5629-9.1934-7.957-9.1934-2.3045 0-4.5896 1.191-6.043 3-1.4534-1.809-3.7385-3-6.043-3zm0 3c1.2708 0 2.8106 0.76559 3.7051 1.8789l2.3379 2.9102 2.3379-2.9102c0.8945-1.1133 2.4343-1.8789 3.7051-1.8789 2.5206 0 4.957 2.5198 4.957 6.1934 0 1.0578-0.16112 2.0811-0.45508 3.0898-0.0024 0.0072-0.38965 1.1715-0.45703 1.3145l-0.027344 0.056641-0.025391 0.058594c-2.3306 5.5324-8.0665 9.3673-10.035 10.621-1.9687-1.2537-7.7046-5.0887-10.035-10.621l-0.025391-0.058594-0.027344-0.056641c-0.067378-0.14298-0.45461-1.3072-0.45703-1.3145-0.29395-1.0088-0.45508-2.032-0.45508-3.0898 0-3.6735 2.4365-6.1934 4.957-6.1934z" fill="currentColor"/>
 </g>
</svg>
