<?xml version="1.0" encoding="UTF-8"?>
<svg width="32" height="32" version="1" xmlns="http://www.w3.org/2000/svg">
 <defs id="materia">
  <style id="current-color-scheme" type="text/css">.ColorScheme-Background {color:#181818; } .ColorScheme-ButtonBackground { color:#343434; } .ColorScheme-Highlight { color:#4285f4; } .ColorScheme-Text { color:#dfdfdf; } .ColorScheme-ViewBackground { color:#242424; } .ColorScheme-NegativeText { color:#f44336; } .ColorScheme-PositiveText { color:#4caf50; } .ColorScheme-NeutralText { color:#ff9800; }</style>
 </defs>
 <g id="22-22-cadence" transform="translate(27,5)">
  <path class="ColorScheme-Text" d="m16 8.0001c-0.90496 0.015-2.285 0.22551-2.6426 0.61524-0.38136 0.4156-0.46397 0.99991-0.35742 1.6465 0.20313 1.2327 1.9054 2.7439 2.9141 4.1035-7e-3 0.0088-0.01442 0.01857-0.02148 0.02734-0.50808 0.63227-1.5677 1.2123-2.0625 1.7031 0.07975-0.35924 0.13718-1.1494 0.15039-1.3984 0.01132-0.21329 0.0056-0.37879-0.06055-0.51367-0.03308-0.06744-0.09243-0.1321-0.17383-0.1582-0.0814-0.02611-0.1654-0.0087-0.23828 0.02539-0.19679 0.50493-0.52227 1.1842-0.78711 1.8184-0.24354 0.40448-0.41572 1.1287-0.52734 1.3867-0.05748 0.13285-0.10029 0.2487-0.12695 0.34961-0.02512 0.09506-0.03744 0.17858-0.0332 0.25586 0.13912 0.1876 0.36407 0.16015 0.54688 0.17188 0.07935-8.32e-4 0.16227-0.01488 0.25391-0.07031 0.21505-0.13009 0.4784-0.33568 0.75977-0.57617-0.20067 0.6642-0.23461 0.87599-0.55469 1.6191-0.0044 0.01036-0.01114 0.0209-0.01563 0.03125-1.6889-0.2299-3.4502-0.0842-4.6426 0.32617-0.62546 0.21525-1.1071 0.69495-1.2949 1.2246-0.18779 0.52966-0.07342 1.2026 0.39844 2.0371 0.47186 0.8345 0.99235 1.217 1.5469 1.3359 0.55452 0.11891 1.1083-0.0366 1.6211-0.45117 0.97757-0.79036 1.859-2.624 2.5449-4.168 0.01126 0.0017 0.02391 0.0023 0.03516 0.0039 0.80774 0.11916 1.5826 1.2063 2.2598 1.3848-0.3546 0.11134-0.76944 0.22661-0.99414 0.33984-0.19239 0.09695-0.33492 0.18448-0.41992 0.30859-0.0425 0.06206-0.07058 0.14572-0.05273 0.22852 0.01785 0.08279 0.07626 0.14603 0.14258 0.19141 0.13264 0.09075 0.3209 0.1407 0.60156 0.18164 0.28066 0.04093 0.75069 0.06587 1.2266 0.07227 0.0014 1.9e-5 0.0025-1.9e-5 0.0039 0 0.0014-1.9e-5 0.0025 1.9e-5 0.0039 0 0.47587-0.0064 0.94591-0.03134 1.2266-0.07227 0.28066-0.04094 0.46892-0.09089 0.60156-0.18164 0.06632-0.04537 0.12473-0.10862 0.14258-0.19141s-0.01023-0.16646-0.05273-0.22852c-0.085-0.12412-0.22754-0.21164-0.41992-0.30859-0.2247-0.11323-0.63954-0.2285-0.99414-0.33984 0.6772-0.1785 1.452-1.2656 2.2598-1.3848 0.01125-0.0016 0.0239-0.0022 0.03516-0.0039 0.6859 1.544 1.5674 3.3776 2.5449 4.168 0.51277 0.41457 1.0666 0.57008 1.6211 0.45117 0.55452-0.11891 1.075-0.50144 1.5469-1.3359 0.47186-0.8345 0.58623-1.5074 0.39844-2.0371-0.1878-0.52966-0.66946-1.0094-1.2949-1.2246-1.1924-0.41037-2.9537-0.55607-4.6426-0.32617-0.0045-0.01035-0.01122-0.02089-0.01562-0.03125-0.32008-0.74315-0.35402-0.95494-0.55469-1.6191 0.28136 0.2405 0.54472 0.44608 0.75977 0.57617 0.09164 0.05543 0.17456 0.06948 0.25391 0.07031 0.18281-0.01172 0.40776 0.01572 0.54688-0.17188 0.0042-0.07728-0.0081-0.1608-0.0332-0.25586-0.02666-0.10091-0.06947-0.21676-0.12695-0.34961-0.11163-0.258-0.2838-0.98224-0.52734-1.3867-0.26484-0.63419-0.59032-1.3134-0.78711-1.8184-0.07289-0.03408-0.15688-0.0515-0.23828-0.02539-0.0814 0.0261-0.14075 0.09076-0.17383 0.1582-0.06615 0.13488-0.07187 0.30038-0.06055 0.51367 0.01322 0.249 0.07064 1.0392 0.15039 1.3984-0.49477-0.49084-1.5544-1.0708-2.0625-1.7031-0.0071-0.0088-0.01449-0.01854-0.02148-0.02734 1.0087-1.3596 2.7109-2.8709 2.9141-4.1035 0.10655-0.64658 0.02394-1.2309-0.35742-1.6465-0.35761-0.38972-1.7376-0.60024-2.6426-0.61524z" fill="currentColor"/>
  <rect x="5" y="5" width="22" height="22" opacity=".001"/>
 </g>
 <g id="cadence">
  <rect width="32" height="32" opacity=".001"/>
  <path class="ColorScheme-Text" d="m16 3c-1.4077 0.023438-3.7547 0.35237-4.311 0.96132-0.59323 0.64939-0.72173 1.5624-0.55599 2.5727 0.31598 1.9261 3.1642 4.2875 4.7333 6.4118-0.01089 0.01375-0.02243 0.02901-0.03341 0.04272-0.79034 0.98794-2.2384 1.5939-3.008 2.3609 0.12406-0.56132 0.21338-1.796 0.23394-2.1851 0.01761-0.33327 0.0087-0.59188-0.09419-0.80262-0.05146-0.10537-0.14378-0.20641-0.2704-0.2472-0.12662-0.0408-0.25728-0.01359-0.37066 0.03967-0.30611 0.78896-0.81241 1.8503-1.2244 2.8412-0.37885 0.63201-0.847 2.3641-1.0206 2.7672-0.08942 0.20758-0.156 0.3886-0.19748 0.54627-0.03908 0.14853-0.05824 0.27904-0.05164 0.39979 0.21641 0.29312 0.56633 0.25024 0.85069 0.26856 0.12343-0.0013 0.25242-0.02324 0.39496-0.10986 0.33452-0.20327 0.74418-0.5245 1.1819-0.90028-0.31216 1.0378-0.36495 0.96839-0.86285 2.1296-0.0068 0.01619-0.01732 0.03266-0.02431 0.04884-2.6272-0.35923-5.3669-0.13156-7.2218 0.50965-0.97294 0.33634-1.7222 1.186-2.0143 2.0137-0.29212 0.82761-0.11421 1.8791 0.61979 3.183 0.73399 1.3039 1.5437 1.9016 2.4062 2.0874s1.7241-0.0572 2.5217-0.70497c1.5207-1.235 2.8918-4.2002 3.9588-6.6127 0.01752 0.0027 0.03719 0.0035 0.05469 0.0061 1.2565 0.18619 2.4618 2.0853 3.5152 2.3642-0.5516 0.17397-1.1969 0.35409-1.5464 0.53101-0.29927 0.15149-0.52099 0.28825-0.65321 0.48219-0.06611 0.09697-0.10979 0.2277-0.08203 0.35706 0.02776 0.12936 0.11863 0.22818 0.22179 0.29908 0.20634 0.1418 0.49918 0.21986 0.93576 0.28382 0.43658 0.06395 1.1677 0.10292 1.908 0.11292 0.0021 3e-5 0.0038-2.9e-5 0.0061 0 0.0021-2.9e-5 0.0038 3e-5 0.0061 0 0.74025-0.0099 1.4714-0.04897 1.908-0.11292 0.43658-0.06398 0.72942-0.14202 0.93576-0.28382 0.10316-0.07089 0.19402-0.16972 0.22179-0.29908 0.02776-0.12936-0.01591-0.26009-0.08203-0.35706-0.13222-0.19394-0.35394-0.3307-0.65321-0.48219-0.34953-0.17692-0.99484-0.35704-1.5464-0.53101 1.0534-0.2789 2.2587-2.178 3.5152-2.3642 0.0175-0.0025 0.03717-0.0034 0.05469-0.0061 1.0669 2.4125 2.4381 5.3778 3.9588 6.6127 0.79764 0.64778 1.6591 0.89077 2.5217 0.70497 0.86259-0.1858 1.6722-0.78351 2.4062-2.0874 0.734-1.3039 0.91191-2.3554 0.61979-3.183-0.29212-0.82761-1.0414-1.6773-2.0143-2.0137-1.8549-0.64122-4.5946-0.86888-7.2218-0.50965-7e-3 -0.01618-0.01745-0.03265-0.0243-0.04884-0.4979-1.1612-0.55069-1.0918-0.86285-2.1296 0.43767 0.37578 0.84734 0.69701 1.1819 0.90028 0.14255 0.08662 0.27153 0.10856 0.39496 0.10986 0.28437-0.01831 0.63428 0.02456 0.85069-0.26856 0.0065-0.12075-0.0126-0.25125-0.05164-0.39979-0.04147-0.15767-0.10806-0.33869-0.19748-0.54627-0.17364-0.40313-0.44147-1.835-0.82031-2.467-0.41198-0.99094-1.0184-2.3525-1.3245-3.1415-0.11338-0.05325-0.24404-0.08047-0.37066-0.03967-0.12662 0.04078-0.21894 0.14182-0.2704 0.2472-0.1029 0.21075-0.1118 0.46935-0.09419 0.80262 0.02056 0.38906 0.10988 1.6238 0.23394 2.1851-0.76964-0.76695-2.3178-1.373-3.1082-2.3609-0.01105-0.01375-0.02254-0.02897-0.03341-0.04272 1.5691-2.1244 4.5173-4.4858 4.8333-6.4118 0.16574-1.0103 0.037241-1.9233-0.55599-2.5727-0.55628-0.60895-3.0033-0.93788-4.411-0.96132z" fill="currentColor"/>
 </g>
</svg>
