<?xml version="1.0" encoding="UTF-8"?>
<svg width="32" height="32" version="1" xmlns="http://www.w3.org/2000/svg">
 <defs id="materia">
  <style id="current-color-scheme" type="text/css">.ColorScheme-Background {color:#181818; } .ColorScheme-ButtonBackground { color:#343434; } .ColorScheme-Highlight { color:#4285f4; } .ColorScheme-Text { color:#dfdfdf; } .ColorScheme-ViewBackground { color:#242424; } .ColorScheme-NegativeText { color:#f44336; } .ColorScheme-PositiveText { color:#4caf50; } .ColorScheme-NeutralText { color:#ff9800; }</style>
 </defs>
 <g id="22-22-cantata" transform="translate(32 10)">
  <rect width="22" height="22" rx=".582" ry=".688" opacity=".001"/>
  <path class="ColorScheme-Text" d="m10.811 2.9806a8 8 0 0 0-7.8105 8.043 8 8 0 0 0 16 0 8 8 0 0 0-8.1895-8.043zm0.18945 1.998c3.3084 0 6 2.6916 6 6 0 3.3084-2.6916 6-6 6-3.3084 0-6-2.6916-6-6 0-3.3084 2.6916-6 6-6zm0.40039 1c-0.4 0-0.40039 0.41797-0.40039 0.41797v4.7891c-0.3845-0.13604-0.67052-0.20636-1.0996-0.20703-1.5464 0-2.9004 0.89543-2.9004 2 0 1.1046 1.4536 2 3 2 1.5464 0 3-0.89543 3-2v-5s2.2673 1.1587 1.3242 2.0234c-0.25901 0.14857-0.34433 0.3782-0.29883 0.57812 0.06909 0.30361 0.43998 0.53868 0.95312 0.32031 0.77102-0.40199 1.0215-1.1227 1.0215-1.7227 0-1.8-2.9996-3.1992-4.5996-3.1992z" fill="currentColor"/>
 </g>
 <g id="cantata">
  <rect width="32" height="32" rx=".847" ry="1.001" opacity=".001"/>
  <path class="ColorScheme-Text" d="m15.716 4.0035c-6.5412 0.15444-11.753 5.5069-11.716 12.033 0.0025661 6.6081 5.3743 11.964 12 11.964 6.6255 0 11.997-5.3556 12-11.964 0.038237-6.7474-5.5206-12.193-12.284-12.033zm0.28418 2.9892c4.9626 0 8.9999 4.0267 8.9999 8.9763 0 4.9496-4.0373 8.9763-8.9999 8.9763s-8.9999-4.0267-8.9999-8.9763c0-4.9496 4.0373-8.9763 8.9999-8.9763zm0.60058 1.9963c-0.59999 0-0.60058 0.6253-0.60058 0.6253v6.6644c-0.57674-0.20352-1.0058-0.30872-1.6494-0.30973-2.3196 0-4.3505 1.3396-4.3505 2.9921 0 1.6525 2.1804 2.9921 4.4999 2.9921 2.3196 0 4.4999-1.3396 4.4999-2.9921v-6.98s2.9819 1.2332 1.5673 2.5269c-0.38851 0.22227-0.51648 0.5658-0.44824 0.8649 0.10363 0.45421 0.65996 0.80589 1.4297 0.4792 1.1565-0.60139 1.5322-1.6795 1.5322-2.5772 0-2.6929-4.0804-4.2859-6.4804-4.2859z" fill="currentColor"/>
 </g>
</svg>
