<?xml version="1.0" encoding="UTF-8"?>
<svg width="32" height="32" version="1.1" xmlns="http://www.w3.org/2000/svg">
 <defs id="materia">
  <style id="current-color-scheme" type="text/css">.ColorScheme-Background {color:#181818; } .ColorScheme-ButtonBackground { color:#343434; } .ColorScheme-Highlight { color:#4285f4; } .ColorScheme-Text { color:#dfdfdf; } .ColorScheme-ViewBackground { color:#242424; } .ColorScheme-NegativeText { color:#f44336; } .ColorScheme-PositiveText { color:#4caf50; } .ColorScheme-NeutralText { color:#ff9800; }</style>
 </defs>
 <g id="22-22-choqok" transform="translate(32 10)">
  <rect width="22" height="22" opacity=".001"/>
  <path class="ColorScheme-Text" d="m11 3-0.76172 1-0.83789-0.5-0.56641 1.2266c-1.7548 0.3611-2.9959 1.2082-4.0234 2.5488-1.7973 2.3449-1.8105 6.392-1.8105 8.6777s4.1905 3.0469 8 3.0469 8-0.76118 8-3.0469-0.01325-6.3328-1.8105-8.6777c-1.0276-1.3406-2.2686-2.1877-4.0234-2.5488l-0.56641-1.2266-0.83789 0.5zm3.5 7a1.5 1.5 0 0 1 1.5 1.5 1.5 1.5 0 0 1-1.5 1.5 1.5 1.5 0 0 1-1.5-1.5 1.5 1.5 0 0 1 1.5-1.5zm-7 1a1.5 1.5 0 0 1 1.5 1.5 1.5 1.5 0 0 1-0.087891 0.5 1.5 1.5 0 0 0-1.4121-1 1.5 1.5 0 0 0-1.4121 1 1.5 1.5 0 0 1-0.087891-0.5 1.5 1.5 0 0 1 1.5-1.5zm6.5 0v1h1v-1zm-3 2c0.07658 1e-3 0.15085 0.03466 0.20508 0.09766l1.7012 1.7383c0.18204 0.2101 0.085661 1.164-0.17188 1.1641h-3.4688c-0.25754-1e-4 -0.35392-0.95396-0.17188-1.1641l1.7012-1.7383c0.054227-0.063 0.12849-0.097556 0.20508-0.097656z" fill="currentColor"/>
 </g>
 <g id="choqok">
  <rect width="32" height="32" opacity=".001"/>
  <path class="ColorScheme-Text" d="m16 4-1.1426 1.5-1.2559-0.75-0.84961 1.8398c-2.6322 0.54165-4.4938 1.8133-6.0352 3.8242-2.696 3.5174-2.7168 9.5871-2.7168 13.016s6.2857 4.5703 12 4.5703c5.7143 0 12-1.1418 12-4.5703s-0.018895-9.4983-2.7148-13.016c-1.5414-2.0109-3.4029-3.2826-6.0352-3.8242l-0.84961-1.8398-1.2578 0.75-1.1426-1.5zm5 11a2 2 0 0 1 2 2 2 2 0 0 1-2 2 2 2 0 0 1-2-2 2 2 0 0 1 2-2zm-10 1a2 2 0 0 1 2 2 2 2 0 0 1-0.11719 0.66602 2 2 0 0 0-1.8828-1.332 2 2 0 0 0-1.8828 1.332 2 2 0 0 1-0.11719-0.66602 2 2 0 0 1 2-2zm9 0v2h2v-2h-2zm-4 3c0.11487 0.0013 0.22725 0.046847 0.30859 0.13086l2.5508 2.3164c0.27306 0.28013 0.12849 1.5526-0.25781 1.5527h-2.6016-2.6016c-0.38631-1.32e-4 -0.53088-1.2726-0.25781-1.5527l2.5527-2.3164c0.08134-0.084 0.19176-0.13073 0.30664-0.13086z" fill="currentColor"/>
 </g>
</svg>
