<?xml version="1.0" encoding="UTF-8"?>
<svg width="32" height="32" version="1" xmlns="http://www.w3.org/2000/svg">
 <defs id="materia">
  <style id="current-color-scheme" type="text/css">.ColorScheme-Background {color:#181818; } .ColorScheme-ButtonBackground { color:#343434; } .ColorScheme-Highlight { color:#4285f4; } .ColorScheme-Text { color:#dfdfdf; } .ColorScheme-ViewBackground { color:#242424; } .ColorScheme-NegativeText { color:#f44336; } .ColorScheme-PositiveText { color:#4caf50; } .ColorScheme-NeutralText { color:#ff9800; }</style>
 </defs>
 <g id="computer" transform="translate(-2e-4,34)">
  <rect y="-34" width="32" height="32" opacity=".001"/>
  <g transform="translate(2e-4,-35)">
   <path class="ColorScheme-Text" transform="translate(0,1)" d="m4.3008 4c-0.7202 0-1.3008 0.5575-1.3008 1.25v17.5c0 0.6925 0.58058 1.25 1.3008 1.25h3.6992v1.6875c0 0.7274 0.59355 1.3125 1.332 1.3125h13.336c0.73848 0 1.332-0.5851 1.332-1.3125v-1.6875h3.6992c0.7202 0 1.3008-0.5575 1.3008-1.25v-17.5c0-0.6925-0.58058-1.25-1.3008-1.25zm1.6992 3h20v14h-20z" fill="currentColor"/>
  </g>
 </g>
 <g id="computer-laptop" transform="translate(-4.0002,34)">
  <rect x="36" y="-34" width="32" height="32" opacity=".001"/>
  <g transform="translate(36,-35)">
   <path class="ColorScheme-Text" transform="translate(-32 1)" d="m36.299 5c-0.7202 0-1.2988 0.5575-1.2988 1.25v15.5c0 0.692 0.57863 1.25 1.2988 1.25h-2.2988c-0.554 0-1 0.446-1 1v1c0 0.554 0.446 1 1 1h28c0.554 0 1-0.446 1-1v-1c0-0.554-0.446-1-1-1h-2.3008c0.7202 0 1.3008-0.5575 1.3008-1.25v-15.5c0-0.6925-0.58078-1.25-1.3008-1.25zm1.7012 3h20v12h-20z" fill="currentColor"/>
  </g>
 </g>
</svg>
