<?xml version="1.0" encoding="UTF-8"?>
<svg width="32" height="32" version="1.1" xmlns="http://www.w3.org/2000/svg">
 <defs id="materia">
  <style id="current-color-scheme" type="text/css">.ColorScheme-Background {color:#181818; } .ColorScheme-ButtonBackground { color:#343434; } .ColorScheme-Highlight { color:#4285f4; } .ColorScheme-Text { color:#dfdfdf; } .ColorScheme-ViewBackground { color:#242424; } .ColorScheme-NegativeText { color:#f44336; } .ColorScheme-PositiveText { color:#4caf50; } .ColorScheme-NeutralText { color:#ff9800; }</style>
 </defs>
 <g id="22-22-configure" transform="translate(32,10)">
  <rect width="22" height="22" opacity=".001"/>
  <path class="ColorScheme-Text" d="m8.9824 3-0.17773 2.1074a6.3423 6.2857 0 0 0-1.8535 1.0625l-1.9336-0.90234-2.0176 3.4648 1.7539 1.207a6.3423 6.2857 0 0 0-0.095703 1.0605 6.3423 6.2857 0 0 0 0.091797 1.0645l-1.75 1.2031 2.0176 3.4648 1.9277-0.90039a6.3423 6.2857 0 0 0 1.8594 1.0566l0.17773 2.1113h4.0352l0.17773-2.1074a6.3423 6.2857 0 0 0 1.8535-1.0625l1.9336 0.90234 2.0176-3.4648-1.7539-1.207a6.3423 6.2857 0 0 0 0.095703-1.0605 6.3423 6.2857 0 0 0-0.091797-1.0645l1.75-1.2031-2.0176-3.4648-1.9277 0.90039a6.3423 6.2857 0 0 0-1.8594-1.0566l-0.17773-2.1113zm2.0176 5a3 3 0 0 1 3 3 3 3 0 0 1-3 3 3 3 0 0 1-3-3 3 3 0 0 1 3-3z" fill="currentColor"/>
 </g>
 <g id="configure">
  <rect width="32" height="32" opacity=".001"/>
  <path class="ColorScheme-Text" d="m12.975 4-0.26758 3.1621a9.5135 9.4286 0 0 0-2.7793 1.5938l-2.9004-1.3535-3.0273 5.1973 2.6309 1.8105a9.5135 9.4286 0 0 0-0.14258 1.5898 9.5135 9.4286 0 0 0 0.13672 1.5977l-2.625 1.8027 3.0273 5.1992 2.8906-1.3516a9.5135 9.4286 0 0 0 2.7891 1.5859l0.26758 3.166h6.0527l0.26562-3.1621a9.5135 9.4286 0 0 0 2.7812-1.5918l2.9004 1.3535 3.0254-5.1992-2.6309-1.8105a9.5135 9.4286 0 0 0 0.14453-1.5898 9.5135 9.4286 0 0 0-0.13867-1.5957l2.625-1.8047-3.0254-5.1973-2.8926 1.3496a9.5135 9.4286 0 0 0-2.7891-1.584l-0.26562-3.168h-6.0527zm3.0254 7a5 5 0 0 1 5 5 5 5 0 0 1-5 5 5 5 0 0 1-5-5 5 5 0 0 1 5-5z" fill="currentColor"/>
 </g>
</svg>
