<?xml version="1.0" encoding="UTF-8"?>
<svg width="32" height="32" version="1.1" xmlns="http://www.w3.org/2000/svg">
 <defs id="materia">
  <style id="current-color-scheme" type="text/css">.ColorScheme-Background {color:#181818; } .ColorScheme-ButtonBackground { color:#343434; } .ColorScheme-Highlight { color:#4285f4; } .ColorScheme-Text { color:#dfdfdf; } .ColorScheme-ViewBackground { color:#242424; } .ColorScheme-NegativeText { color:#f44336; } .ColorScheme-PositiveText { color:#4caf50; } .ColorScheme-NeutralText { color:#ff9800; }</style>
 </defs>
 <g id="22-22-device-notifier">
  <rect x="32" y="10" width="22" height="22" opacity=".001"/>
  <path class="ColorScheme-Text" d="m42.98 13a0.37527 0.31579 0 0 0-0.30664 0.1582l-0.8125 1.1836-0.81055 1.1836a0.37527 0.31579 0 0 0 0.32422 0.47461h0.625v6h-3v-1.0879a1.5 1.5 0 0 0 1-1.4121 1.5 1.5 0 0 0-1.5-1.5 1.5 1.5 0 0 0-1.5 1.5 1.5 1.5 0 0 0 1 1.4121v1.5879a0.50005 0.50005 0 0 0 0.5 0.5h3.5v2.2715a2 2 0 0 0-1 1.7285 2 2 0 0 0 2 2 2 2 0 0 0 2-2 2 2 0 0 0-1-1.7305v-2.2695h3.5a0.50005 0.50005 0 0 0 0.5-0.5v-2.5h0.25c0.4155 0 0.75-0.3345 0.75-0.75v-1.5c0-0.4155-0.3345-0.75-0.75-0.75h-1.5c-0.4155 0-0.75 0.3345-0.75 0.75v1.5c0 0.4155 0.3345 0.75 0.75 0.75h0.25v2h-3v-6h0.625a0.37527 0.31579 0 0 0 0.32422-0.47461l-0.81055-1.1836-0.8125-1.1836a0.37527 0.31579 0 0 0-0.3457-0.1582z" fill="currentColor"/>
 </g>
 <g id="device-notifier">
  <rect width="32" height="32" opacity=".001"/>
  <path class="ColorScheme-Text" d="m15.467 2c-0.22273 0.00947-0.42437 0.11047-0.53516 0.26562l-1.4219 1.9727-1.4199 1.9707c-0.25421 0.35094 0.062055 0.79129 0.56836 0.79102h1.3418v11h-5v-2.1738a3 3 0 0 0 2-2.8262 3 3 0 0 0-3-3 3 3 0 0 0-3 3 3 3 0 0 0 2 2.8242v3.1758a1.0001 1.0001 0 0 0 1 1h6v3.3418a3.5 3.5 0 0 0-2 3.1582 3.5 3.5 0 0 0 3.5 3.5 3.5 3.5 0 0 0 3.5-3.5 3.5 3.5 0 0 0-2-3.1582v-3.3418h6a1.0001 1.0001 0 0 0 1-1v-4h1c0.554 0 1-0.446 1-1v-4c0-0.554-0.446-1-1-1h-4c-0.554 0-1 0.446-1 1v4c0 0.554 0.446 1 1 1h1v3h-5v-11h1.3438c0.50543-9.341e-4 0.82018-0.44067 0.56641-0.79102l-1.418-1.9707-1.4219-1.9727c-0.12327-0.17266-0.35568-0.27638-0.60352-0.26562z" fill="currentColor"/>
 </g>
</svg>
