<?xml version="1.0" encoding="UTF-8"?>
<svg width="32" height="32" version="1.1" xmlns="http://www.w3.org/2000/svg">
 <defs id="materia">
  <style id="current-color-scheme" type="text/css">.ColorScheme-Background {color:#181818; } .ColorScheme-ButtonBackground { color:#343434; } .ColorScheme-Highlight { color:#4285f4; } .ColorScheme-Text { color:#dfdfdf; } .ColorScheme-ViewBackground { color:#242424; } .ColorScheme-NegativeText { color:#f44336; } .ColorScheme-PositiveText { color:#4caf50; } .ColorScheme-NeutralText { color:#ff9800; }</style>
 </defs>
 <g id="22-22-document-encrypt" transform="translate(-315,235)">
  <rect x="347" y="-257" width="22" height="22" opacity=".001"/>
  <path class="ColorScheme-PositiveText" d="m358-254c-5.0026-3e-3 -5 4.6429-5 4.6429v2.3571h-0.83333c-0.64633 0-1.1667 0.36686-1.1667 1v6.8571c0 0.63315 0.52034 1.1429 1.1667 1.1429h11.667c0.64633 0 1.1667-0.50971 1.1667-1.1429v-6.8571c0-0.63314-0.52963-0.89079-1.1667-1h-0.83333v-2.3571s3e-3 -4.6395-5-4.6429zm0 3c2.0026-3e-3 2 1.5714 2 1.5714v2.4286h-4v-2.4286s3e-3 -1.5681 2-1.5714z" fill="currentColor"/>
 </g>
 <g id="22-22-document-open-recent" transform="translate(-383,211)">
  <rect x="383" y="-233" width="22" height="22" opacity=".001"/>
  <path class="ColorScheme-Text" d="m394-231a9 9 0 0 0-9 9 9 9 0 0 0 9 9 9 9 0 0 0 9-9 9 9 0 0 0-9-9zm0 3a6 6 0 0 1 6 6 6 6 0 0 1-6 6 6 6 0 0 1-6-6 6 6 0 0 1 6-6zm-1 1v6h0.082v0.0117l3.4531 3.4531 1.4141-1.4141-2.9492-2.9512v-5.0996h-2z" fill="currentColor"/>
 </g>
 <g id="22-22-document-decrypt" transform="translate(32)">
  <rect x="32" y="-22" width="22" height="22" opacity=".001"/>
  <path class="ColorScheme-NegativeText" d="m43-19c-0.29193-1.73e-4 -0.56163 0.01983-0.82031 0.04883-0.05558 0.0064-0.108 0.01576-0.16211 0.02344-0.22434 0.03101-0.43691 0.07219-0.63672 0.12305-0.01813 0.0047-0.03675 0.0088-0.05469 0.01367-0.70286 0.18683-1.2464 0.49174-1.6816 0.85352-0.06427 0.05356-0.11839 0.11203-0.17773 0.16797-0.20656 0.19466-0.38808 0.39574-0.53906 0.60938-0.02271 0.03181-0.0448 0.06366-0.06641 0.0957-0.2673 0.40083-0.45378 0.80441-0.57617 1.1855-0.01598 0.04783-0.02876 0.09002-0.04297 0.13672-0.0555 0.18983-0.10019 0.36176-0.13086 0.52344-0.01782 0.08829-0.02891 0.1314-0.04102 0.20898-4.44e-4 0.0029-0.0015 0.0069-2e-3 0.0098-0.054141 0.35481-0.068299 0.64254-0.068299 0.64254v0.35742h3v-0.42773s6e-3 -0.2629 0.14062-0.57227h2e-3c0.04531-0.10322 0.10944-0.21244 0.18945-0.31836 0.01315-0.01732 0.02873-0.03363 0.04297-0.05078 0.07226-0.08727 0.16543-0.16874 0.26953-0.24609 0.03312-0.02445 0.06486-0.04943 0.10156-0.07227 0.11103-0.0694 0.24692-0.12641 0.39453-0.17578 0.05094-0.01689 0.09277-0.03887 0.14844-0.05274 0.04111-0.01033 0.08705-0.01686 0.13086-0.02539 0.17381-0.033383 0.3607-0.058917 0.58003-0.058587 0.2207-3.31e-4 0.40735 0.02481 0.58203 0.05859 0.04176 0.0082 0.0857 0.01363 0.125 0.02344 0.06035 0.01495 0.10534 0.0401 0.16016 0.05859 0.14238 0.04835 0.27481 0.10279 0.38281 0.16992 0.04047 0.02509 0.07519 0.05306 0.11133 0.08008 0.09785 0.07357 0.1866 0.14993 0.25586 0.23242 0.01896 0.02253 0.03762 0.04553 0.05469 0.06836 0.07669 0.10308 0.14151 0.20826 0.18555 0.30859 0.13459 0.30937 0.14258 0.57227 0.14258 0.57227v2.4277h-7.834c-0.56762 0-1.0365 0.28348-1.1426 0.78125-0.015709 0.067852-0.023438 0.13961-0.023438 0.21875v6.8574c0 0.63315 0.51969 1.1426 1.166 1.1426h11.668c0.64633 0 1.166-0.50943 1.166-1.1426v-6.8574c0-0.63314-0.51969-1-1.166-1h-0.83398v-2.3574s-0.0141-0.2877-0.06836-0.64258c-8.33e-4 -0.0054-0.0011-0.0043-2e-3 -0.0098-0.01252-0.08031-0.02625-0.127-0.04492-0.21875-0.03077-0.16065-0.07373-0.33153-0.12891-0.51953-0.01274-0.04171-0.02492-0.07849-0.03906-0.12109-0.12121-0.37993-0.30519-0.78309-0.57031-1.1836-0.02561-0.03825-0.0529-0.07536-0.08008-0.11328-0.15541-0.21907-0.34057-0.42628-0.55469-0.625-0.05255-0.04881-0.0999-0.09953-0.15625-0.14648-0.43528-0.36178-0.98073-0.66669-1.6836-0.85352-0.01855-5e-3 -0.03789-0.0088-0.05664-0.01367-0.19844-0.05043-0.40824-0.09218-0.63086-0.12305-0.05483-0.0078-0.10772-0.01694-0.16406-0.02344-0.25876-0.028996-0.52819-0.048964-0.82027-0.048794z" fill="currentColor"/>
 </g>
 <g id="document-open-recent" transform="translate(3.5e-6 1.5e-6)">
  <rect width="32" height="32" opacity=".001"/>
  <path class="ColorScheme-Text" d="m16 3a13 13 0 0 0-13 13 13 13 0 0 0 13 13 13 13 0 0 0 13-13 13 13 0 0 0-13-13zm0 4a9 9 0 0 1 9 9 9 9 0 0 1-9 9 9 9 0 0 1-9-9 9 9 0 0 1 9-9zm-2 2v8.4453l5.0059 5.0039 2.1426-2.043-4.1484-4.2617v-7.1445z" fill="currentColor"/>
 </g>
 <g id="document-decrypt" transform="translate(64 3.5e-6)">
  <rect width="32" height="32" opacity=".001"/>
  <path class="ColorScheme-NegativeText" d="m16 4c-7.5039-0.0045-7 6.9648-7 6.9648v0.035156h4v-0.54297s0.0045-2.3524 3-2.3574c3.0039-0.0045 3 2.3574 3 2.3574v3.543h-12.25c-0.96949 0-1.75 0.55029-1.75 1.5v10.785c0 0.94972 0.78051 1.7148 1.75 1.7148h18.5c0.9695 0 1.75-0.76512 1.75-1.7148v-10.785c0-0.94971-0.79444-1.3362-1.75-1.5h-2.25v-3.0352s0.50451-6.9598-7-6.9648z" fill="currentColor"/>
 </g>
 <g id="document-encrypt" transform="translate(32 3.5e-6)">
  <rect width="32" height="32" opacity=".001"/>
  <path class="ColorScheme-PositiveText" d="m16 4c-7.5039-0.0045-7 6.9643-7 6.9643v3.0357h-2.25c-0.96949 0-1.75 0.55029-1.75 1.5v10.786c0 0.94972 0.78051 1.7143 1.75 1.7143h18.5c0.9695 0 1.75-0.76457 1.75-1.7143v-10.786c0-0.94971-0.79444-1.3362-1.75-1.5h-2.25v-3.0357s0.5045-6.9592-7-6.9643zm0 4.1004c3.0039-0.0045 3 2.3571 3 2.3571v3.5424h-6v-3.5424s0.0045-2.3521 3-2.3571z" fill="currentColor"/>
 </g>
</svg>
