<?xml version="1.0" encoding="UTF-8"?>
<svg width="32" height="32" version="1.1" xmlns="http://www.w3.org/2000/svg">
 <defs id="materia">
  <style id="current-color-scheme" type="text/css">.ColorScheme-Background {color:#181818; } .ColorScheme-ButtonBackground { color:#343434; } .ColorScheme-Highlight { color:#4285f4; } .ColorScheme-Text { color:#dfdfdf; } .ColorScheme-ViewBackground { color:#242424; } .ColorScheme-NegativeText { color:#f44336; } .ColorScheme-PositiveText { color:#4caf50; } .ColorScheme-NeutralText { color:#ff9800; }</style>
 </defs>
 <g id="22-22-edit-delete" transform="translate(-3.8147e-6 -32)">
  <rect x="32" y="42" width="22" height="22" opacity=".001"/>
  <path class="ColorScheme-Text" d="m42 46c-1 0-1 1-1 1h-3s-1 0-1 1v1h13v-1c0-1-1-1-1-1h-3s0-1-1-1zm-4 4v9c0 0.52 0.48 1 1 1h9c0.52 0 1-0.48 1-1v-9zm2 2h0.90625c0.28336 0 0.53565 0.09445 0.68164 0.22266l1.9121 1.668 1.9121-1.668c0.146-0.1282 0.39828-0.22266 0.68164-0.22266h0.90625v0.73633c0 0.20124-0.08178 0.38474-0.22852 0.51367l-2.002 1.75 2.002 1.75c0.12712 0.11163 0.19195 0.29569 0.22852 0.5625v0.6875h-0.90625c-0.28336 0-0.53564-0.09445-0.68164-0.22266l-1.9121-1.6777-1.9121 1.6777c-0.146 0.12821-0.39828 0.22266-0.68164 0.22266h-0.90625v-0.73633c0-0.20124 0.08192-0.38494 0.22852-0.51367l2.002-1.75-2.002-1.75c-0.14703-0.12933-0.22852-0.31243-0.22852-0.51367z" fill="currentColor"/>
 </g>
 <g id="edit-delete" transform="translate(0,-32)">
  <rect y="32" width="32" height="32" opacity=".001"/>
  <path class="ColorScheme-Text" d="m13.461 36c-1.6923 0-1.4609 2-1.4609 2h-5.3086s-1.6914-0.033851-1.6914 1.6328v1.3672h22v-1.3672c0-1.6667-1.6914-1.6328-1.6914-1.6328h-5.3086s0.23137-2-1.4609-2zm-6.4609 7v15.301c0 0.884 0.78581 1.6992 1.6367 1.6992h14.727c0.85091 0 1.6367-0.81522 1.6367-1.6992v-15.301zm3 3h1.5527c0.48577 0 0.91964 0.17316 1.1699 0.4082l3.2773 3.0586 3.2773-3.0586c0.25028-0.23504 0.68415-0.4082 1.1699-0.4082h1.5527v1.3496c0 0.36894-0.14103 0.70504-0.39258 0.94141l-3.4316 3.209 3.4316 3.209c0.21792 0.20465 0.32989 0.5421 0.39258 1.0312v1.2598h-1.5527c-0.48577 0-0.91964-0.17316-1.1699-0.4082l-3.2773-3.0762-3.2773 3.0762c-0.25028 0.23504-0.68416 0.4082-1.1699 0.4082h-1.5527v-1.3496c0-0.36894 0.14127-0.7054 0.39258-0.94141l3.4316-3.209-3.4316-3.209c-0.25205-0.2371-0.39258-0.57247-0.39258-0.94141z" fill="currentColor"/>
 </g>
</svg>
