<?xml version="1.0" encoding="UTF-8"?>
<svg width="32" height="32" version="1.1" xmlns="http://www.w3.org/2000/svg">
 <defs id="materia">
  <style id="current-color-scheme" type="text/css">.ColorScheme-Background {color:#181818; } .ColorScheme-ButtonBackground { color:#343434; } .ColorScheme-Highlight { color:#4285f4; } .ColorScheme-Text { color:#dfdfdf; } .ColorScheme-ViewBackground { color:#242424; } .ColorScheme-NegativeText { color:#f44336; } .ColorScheme-PositiveText { color:#4caf50; } .ColorScheme-NeutralText { color:#ff9800; }</style>
 </defs>
 <g id="22-22-face-laughing" transform="translate(32 10)">
  <rect width="22" height="22" opacity=".001"/>
  <path class="ColorScheme-Text" d="m11 3a8 8 0 0 0-8 8 8 8 0 0 0 8 8 8 8 0 0 0 8-8 8 8 0 0 0-8-8zm-3 4a2 2 0 0 1 2 2 2 2 0 0 1-2 2 2 2 0 0 1-2-2 2 2 0 0 1 2-2zm6 0a2 2 0 0 1 2 2 2 2 0 0 1-2 2 2 2 0 0 1-2-2 2 2 0 0 1 2-2zm-7.0625 4.9863a1.0001 1.0001 0 0 1 0.099609 0 1.0001 1.0001 0 0 1 0.95312 0.86719s0.075177 0.506 0.47852 1.0508c0.40334 0.54478 1.0334 1.0957 2.5313 1.0957 1.4978 0 2.1279-0.55092 2.5312-1.0957 0.40334-0.54478 0.47852-1.0508 0.47852-1.0508a1.001 1.001 0 1 1 1.9805 0.29297s-0.14435 0.994-0.85156 1.9492c-0.70722 0.95522-2.0787 1.9043-4.1387 1.9043-2.06 0-3.4315-0.94908-4.1387-1.9043s-0.85156-1.9492-0.85156-1.9492a1.0001 1.0001 0 0 1 0.92773-1.1602z" fill="currentColor"/>
 </g>
 <g id="face-laughing">
  <rect width="32" height="32" opacity=".001"/>
  <path class="ColorScheme-Text" d="m16 4a12 12 0 0 0-12 12 12 12 0 0 0 12 12 12 12 0 0 0 12-12 12 12 0 0 0-12-12zm-4.5 6a2.5 2.5 0 0 1 2.5 2.5 2.5 2.5 0 0 1-2.5 2.5 2.5 2.5 0 0 1-2.5-2.5 2.5 2.5 0 0 1 2.5-2.5zm9 0a2.5 2.5 0 0 1 2.5 2.5 2.5 2.5 0 0 1-2.5 2.5 2.5 2.5 0 0 1-2.5-2.5 2.5 2.5 0 0 1 2.5-2.5zm-10.051 6.9688a1.5002 1.5002 0 0 1 1.5391 1.3457s0.075938 0.60516 0.58594 1.2852 1.3258 1.4004 3.4258 1.4004 2.9158-0.72039 3.4258-1.4004c0.51-0.68 0.58594-1.2852 0.58594-1.2852a1.5002 1.5002 0 0 1 1.5039-1.3359 1.5002 1.5002 0 0 1 1.4727 1.707s-0.17406 1.3948-1.1641 2.7148-2.9242 2.5996-5.8242 2.5996-4.8342-1.2796-5.8242-2.5996c-0.99-1.32-1.1641-2.7148-1.1641-2.7148a1.5002 1.5002 0 0 1 1.4375-1.7168z" fill="currentColor"/>
 </g>
</svg>
