<?xml version="1.0" encoding="UTF-8"?>
<svg width="22" height="22" version="1.1" xmlns="http://www.w3.org/2000/svg">
 <defs id="materia">
  <style id="current-color-scheme" type="text/css">.ColorScheme-Background {color:#181818; } .ColorScheme-ButtonBackground { color:#343434; } .ColorScheme-Highlight { color:#4285f4; } .ColorScheme-Text { color:#dfdfdf; } .ColorScheme-ViewBackground { color:#242424; } .ColorScheme-NegativeText { color:#f44336; } .ColorScheme-PositiveText { color:#4caf50; } .ColorScheme-NeutralText { color:#ff9800; }</style>
 </defs>
 <g id="fcitx-punc-inactive" transform="translate(22,-132)">
  <path class="ColorScheme-Text" d="m137 113c-1.108 0-2 0.892-2 2v12c0 1.108 0.892 2 2 2h12c1.108 0 2-0.892 2-2v-12c0-1.108-0.892-2-2-2zm2.5 5c1.3748 0 2.5 1.1252 2.5 2.5s-1.1252 2.5-2.5 2.5-2.5-1.1252-2.5-2.5 1.1252-2.5 2.5-2.5zm7 0c1.3748 0 2.5 1.1252 2.5 2.5 0 2.3982-1.1119 3.84-2.2168 4.5996-1.1049 0.75963-2.2207 0.89648-2.2207 0.89648l-0.125-0.99218s0.88421-0.11315 1.7793-0.72852c0.48676-0.33465 0.96571-0.80875 1.3066-1.502-0.31356 0.14236-0.65825 0.22656-1.0234 0.22656-1.3748 0-2.5-1.1252-2.5-2.5s1.1252-2.5 2.5-2.5z" fill="currentColor" opacity=".35"/>
  <rect x="132" y="110" width="22" height="22" opacity=".001"/>
 </g>
 <g id="fcitx-wbpy" transform="translate(0,-132)">
  <path class="ColorScheme-Text" d="m181 3c-1.108 0-2 0.892-2 2v12c0 1.108 0.892 2 2 2h7v-3h-6v-1h2.0996l0.88867-4h-1.9883v-1h2.2109l0.66601-3h-3.877v-1h9v1h-4.0977l-0.66601 3h3.7637v2h5v-7c0-1.108-0.892-2-2-2zm5.0137 8-0.89062 4h2.877v-1c0-0.72784 0.40646-1.3727 1-1.7227v-1.2773zm3.9863 2c-0.554 0-1 0.446-1 1v6c0 0.554 0.446 1 1 1h6c0.554 0 1-0.446 1-1v-6c0-0.554-0.446-1-1-1zm1 1h4v4h-3v2h-1v-5zm1 1v2h2v-2z" fill="currentColor"/>
  <rect x="176" width="22" height="22" opacity=".001"/>
 </g>
 <g id="fcitx-pinyin" transform="translate(0,-132)">
  <path class="ColorScheme-Text" d="m5 3c-1.108 0-2 0.892-2 2v12c0 1.108 0.892 2 2 2h12c1.108 0 2-0.892 2-2v-12c0-1.108-0.892-2-2-2zm5.9004 1.6992 1.5 2-0.3984 0.3008h1.996l-0.398-0.3008 1.5-2 0.8 0.6016-1.275 1.6992h2.375v1h-2v3h2v1h-2v5h-1v-5h-2.041c-0.096 1.12-0.4768 2.031-0.9258 2.811-0.621 1.07-1.6914 2.054-1.6914 2.054l-0.6836-0.728s1.0125-0.966 1.5098-1.826c0.401-0.7 0.7039-1.411 0.7929-2.311h-1.9609v-0.9395l-1 0.5v5.4395h-3v-1h2v-3.9395l-1.7773 0.8887-0.4454-0.8984 2.2227-1.1113v-2.9395h-2v-1h2v-2h1v2h1v1h-1v2.4395l0.7773-0.3887 0.4454 0.8984-0.1055 0.0508h1.8828v-3h-1v-1h1.375l-1.2754-1.6992zm1.0996 3.3008v3h2v-3z" fill="currentColor"/>
  <rect width="22" height="22" opacity=".001"/>
 </g>
 <g id="fcitx-wubi" transform="translate(0,-132)">
  <path class="ColorScheme-Text" d="m159 3c-1.108 0-2 0.892-2 2v12c0 1.108 0.892 2 2 2h12c1.108 0 2-0.892 2-2v-12c0-1.108-0.892-2-2-2zm1 3h9v1h-4.0977l-0.66601 3h3.7637v5h2v1h-10v-1h2.0996l0.88867-4h-1.9883v-1h2.2109l0.66601-3h-3.877zm4.0137 5-0.89062 4h3.877v-4z" fill="currentColor"/>
  <rect x="154" width="22" height="22" opacity=".001"/>
 </g>
 <g id="fcitx-googlepinyin" transform="translate(0,-132)">
  <path class="ColorScheme-Text" d="m5 47c-1.108 0-2 0.892-2 2v12c0 1.108 0.892 2 2 2h12c1.108 0 2-0.892 2-2v-12c0-1.108-0.892-2-2-2zm6 2a6 6 0 0 1 3.834 1.3848l-1.2754 1.543a4 4 0 0 0-2.5586-0.92773 4 4 0 0 0-4 4 4 4 0 0 0 4 4 4 4 0 0 0 3.8574-3h-3.8574v-2h5v0.0078h0.91602a6 6 0 0 1 0.083984 0.9922 6 6 0 0 1-6 6 6 6 0 0 1-6-6 6 6 0 0 1 6-6z" fill="currentColor"/>
  <rect y="44" width="22" height="22" opacity=".001"/>
 </g>
 <g id="fcitx-sunpinyin" transform="translate(22 -88)">
  <path class="ColorScheme-Text" d="m11 1.5137c-0.25562 0-0.51116 0.099053-0.70703 0.29492l-2.1914 2.1914h-3.1016c-0.554 0-1 0.446-1 1v3.0996l-2.1934 2.1934c-0.39174 0.39174-0.39174 1.0223 0 1.4141l2.1934 2.1934v3.0996c0 0.554 0.446 1 1 1h3.0996l2.1934 2.1934c0.39174 0.39174 1.0223 0.39174 1.4141 0l2.1934-2.1934h3.0996c0.554 0 1-0.446 1-1v-3.1016l2.1914-2.1914c0.39174-0.39174 0.39174-1.0223 0-1.4141l-2.1914-2.1914v-3.1016c0-0.554-0.446-1-1-1h-3.1016l-2.1914-2.1914c-0.19587-0.19587-0.45141-0.29492-0.70703-0.29492zm-0.09961 3.1875 1.5 2-0.39844 0.29883h1.9961l-0.39844-0.29883 1.5-2 0.80078 0.59961-1.2754 1.6992h2.375v1h-2v3h2v1h-2v5h-1v-5h-2.041c-0.09614 1.1187-0.47709 2.0294-0.92578 2.8066-0.62072 1.075-1.6914 2.0586-1.6914 2.0586l-0.68359-0.72852s1.0125-0.96878 1.5098-1.8301c0.40132-0.69512 0.70429-1.4116 0.79297-2.3066h-1.9609v-0.94141l-1 0.5v5.4414h-3v-1h2v-3.9414l-1.7773 0.88867-0.44531-0.89453 2.2227-1.1113v-2.9414h-2v-1h2v-2h1v2h1v1h-1v2.4414l0.77734-0.38867 0.44531 0.89453-0.10547 0.052734h1.8828v-3h-1v-1h1.375l-1.2754-1.6992 0.80078-0.59961zm1.0996 3.2988v3h2v-3z" fill="currentColor"/>
  <rect width="22" height="22" opacity=".001"/>
 </g>
 <g id="fcitx-emoji" transform="translate(0,-132)">
  <rect y="132" width="22" height="22" opacity=".001"/>
  <path class="ColorScheme-Text" d="m5 135c-1.108 0-2 0.892-2 2v12c0 1.108 0.892 2 2 2h12c1.108 0 2-0.892 2-2v-12c0-1.108-0.892-2-2-2zm2.5 4a1.5 1.5 0 0 1 1.5 1.5 1.5 1.5 0 0 1-1.5 1.5 1.5 1.5 0 0 1-1.5-1.5 1.5 1.5 0 0 1 1.5-1.5zm7 0a1.5 1.5 0 0 1 1.5 1.5 1.5 1.5 0 0 1-1.5 1.5 1.5 1.5 0 0 1-1.5-1.5 1.5 1.5 0 0 1 1.5-1.5zm-8.5 5h1v2h8v-2h1v3h-10z" fill="currentColor"/>
 </g>
 <g id="fcitx-erbi" transform="translate(0,-132)">
  <path class="ColorScheme-Text" d="m137 3c-1.108 0-2 0.892-2 2v12c0 1.108 0.892 2 2 2h12c1.108 0 2-0.892 2-2v-12c0-1.108-0.892-2-2-2zm8.0312 0.99219 1 0.01563c-0.0102 0.68015 0.0121 1.3378 0.0371 1.9922h2.9316v1h-2.8828c0.14883 2.3082 0.48145 4.4006 0.89063 6.0332 0.2903 1.1583 0.61578 2.0937 0.91211 2.709 0.14816 0.30766 0.29288 0.53452 0.39648 0.65625 0.0462 0.05426-1e-3 0.03006 0.0117 0.03906 0.23837-0.0636 0.37119-0.15376 0.47852-0.42969 0.12164-0.31274 0.17609-0.81156 0.18359-1.375l1 0.01172c-8e-3 0.60685-0.047 1.1976-0.25195 1.7246-0.20499 0.52702-0.66007 0.99905-1.3027 1.1113a0.50005 0.50005 0 0 1-0.0801 0.0059c-0.37198 0.0048-0.60755-0.2124-0.80078-0.43945s-0.36374-0.51517-0.53515-0.87109c-0.34282-0.71185-0.67852-1.6956-0.98047-2.9004-0.42942-1.7134-0.77359-3.8824-0.92383-6.2754h-8.1152v-1h8.0703c-0.0246-0.66002-0.0493-1.3216-0.0391-2.0078zm2.9688 0.0078c0.41683 0.37894 0.75817 0.77653 1.0234 1.1934l-0.96679 0.56836c-0.22737-0.41683-0.53122-0.83317-0.91016-1.25zm-10 4h6v1h-6zm0 2h6v1h-6zm0 2h6v3h-1v-2h-4v2h-1v-2zm2.0098 2h1.082c-0.0833 1.204-0.38375 2.1153-0.92969 2.6934-0.64419 0.71998-1.7995 1.1551-3.4668 1.3066l-0.45508-0.9668c1.5158-0.15158 2.5191-0.49292 3.0117-1.0234 0.42977-0.42977 0.6762-1.1075 0.75781-2.0098zm1.6934 0.99805c0.94735 0.45473 1.8195 0.98549 2.6152 1.5918l-0.79687 0.91016c-0.75788-0.6442-1.5906-1.1937-2.5-1.6484z" fill="currentColor"/>
  <rect x="132" width="22" height="22" opacity=".001"/>
 </g>
 <g id="fcitx-ziranma" transform="translate(0,-132)">
  <path class="ColorScheme-Text" d="m203 3c-1.108 0-2 0.892-2 2v12c0 1.108 0.892 2 2 2h12c1.108 0 2-0.892 2-2v-12c0-1.108-0.892-2-2-2zm4.6797 1.6152 0.6406 0.7696-1.9375 1.6152h7.6172v10h-10v-10h0.8184zm-2.6797 3.3848v2h6v1h-6v2h6v1h-6v2h8v-8z" fill="currentColor"/>
  <rect x="198" width="22" height="22" opacity=".001"/>
 </g>
 <g id="fcitx-quanpin" transform="translate(0,-132)">
  <path class="ColorScheme-Text" d="m27 3c-1.108 0-2 0.892-2 2v12c0 1.108 0.892 2 2 2h12c1.108 0 2-0.892 2-2v-12c0-1.108-0.892-2-2-2zm5.5098 1.9023 0.98047 0.19531c-0.01013 0.050704-0.03402 0.096718-0.04687 0.14648 1.8764 2.289 5.7324 3.7871 5.7324 3.7871l-0.35156 0.9375s-0.80843-0.32176-1.8242-0.83789v0.86914h-3.5v2h2.5v1h-2.5v3h4.5v1h-10v-1h4.5v-3h-2.5v-1h2.5v-2h-3.5v-0.82422c-1.0287 0.50172-1.8301 0.79492-1.8301 0.79492l-0.33984-0.94141s1.3412-0.48881 2.7363-1.2773c1.3951-0.78853 2.7575-1.9202 2.9434-2.8496zm0.49023 1.3301c-0.66759 0.99691-1.8461 1.7716-2.9414 2.3906-0.24781 0.14006-0.48317 0.256-0.7207 0.37695h7.3965c-1.1914-0.63048-2.6182-1.5528-3.7344-2.7676z" fill="currentColor"/>
  <rect x="22" width="22" height="22" opacity=".001"/>
 </g>
 <g id="fcitx-cangjie" transform="translate(0,-132)">
  <path class="ColorScheme-Text" d="m225 3c-1.108 0-2 0.892-2 2v12c0 1.108 0.892 2 2 2h12c1.108 0 2-0.892 2-2v-12c0-1.108-0.892-2-2-2zm5.584 1.7227h0.832c1.844 2.7653 5.647 3.2812 5.647 3.2812l-0.125 0.9922s-0.834-0.1238-1.938-0.5352v4.5391h-7.0547c-0.0423 0.339-0.1137 0.673-0.2207 1h7.2754v3h-8v-1.377l-0.0664 0.125c-0.5203 0.911-1.043 1.565-1.043 1.565l-0.7812-0.625c-1e-4 0 0.4774-0.597 0.957-1.436 0.4797-0.839 0.9336-1.919 0.9336-2.752v-4.0391c-1.1036 0.4114-1.9375 0.5352-1.9375 0.5352l-0.125-0.9922s3.8029-0.5159 5.6465-3.2812zm0.416 0.9804c-0.8588 1.0696-1.9335 1.7986-2.9336 2.2969h2.5313l-0.875-0.584 0.5546-0.832 1.5 1-0.2773 0.416h2.434c-1.0005-0.4983-2.0752-1.2273-2.934-2.2969zm-3 3.2969v1h5v1h-5v1h6v-3zm0 6v1h6v-1z" fill="currentColor"/>
  <rect x="220" width="22" height="22" opacity=".001"/>
 </g>
 <g id="fcitx-bopomofo" transform="translate(0,-132)">
  <rect x="66" width="22" height="22" opacity=".001"/>
  <path class="ColorScheme-Text" d="m71 3c-1.108 0-2 0.892-2 2v12c0 1.108 0.892 2 2 2h12c1.108 0 2-0.892 2-2v-12c0-1.108-0.892-2-2-2zm6.3008 1.5996 2 1.5-0.60156 0.80078-2-1.5zm-5.9473 0.046875 2 2-0.70703 0.70703-2-2zm2.6465 2.3535h9v1h-4v3h3v1h-3v4h4v1h-9v-1h4v-4h-3v-1h3v-3h-4zm-2.6465 0.64648 2 2-0.70703 0.70703-2-2zm1.1719 3.1953 0.94922 0.31641-2 6-0.94922-0.31641z" fill="currentColor"/>
 </g>
 <g id="fcitx-chewing" transform="translate(0,-132)">
  <path class="ColorScheme-Text" d="m93 3c-1.108 0-2 0.892-2 2v12c0 1.108 0.892 2 2 2h12c1.108 0 2-0.892 2-2v-12c0-1.108-0.892-2-2-2zm0 2h6v1h-2v3h2l-0.4004-0.3008s1.4004-1.9492 1.4004-3.6992h1c0 0.7087-0.1654 1.3887-0.3828 2h1.3828v-2h1v2h2v1h-2v2h2v1h-5v-1h2v-2h-1.8027c-0.3987 0.7896-0.7969 1.3008-0.7969 1.3008l-0.4004-0.3008v8h-6v-8h1v-3h-1zm2 1v3h1v-3zm0 4v3h-1v1h3v1h-3v1h4v-6h-1v3h-1v-3zm5 2h5v5h-5zm1 1v3h3v-3z" fill="currentColor"/>
  <rect x="88" width="22" height="22" opacity=".001"/>
 </g>
 <g id="fcitx-rime" transform="translate(0,-132)">
  <path class="ColorScheme-Text" d="m115 3c-1.108 0-2 0.892-2 2v12c0 1.108 0.892 2 2 2h12c1.108 0 2-0.892 2-2v-12c0-1.108-0.892-2-2-2zm5 2h1v6.9824c1.811-0.0816 2.721-0.6066 3.262-1.4922 0.59-0.9652 0.738-2.511 0.738-4.4902h1c0 2.0208-0.102 3.725-0.887 5.0098-0.726 1.1889-2.063 1.8739-4.113 1.9707v3.0195h5v1h-11v-1h5v-3.0195c-2.0504-0.0968-3.3867-0.7818-4.1133-1.9707-0.7851-1.2848-0.8867-2.989-0.8867-5.0098h1c0 1.9792 0.1484 3.525 0.7383 4.4902 0.5412 0.8856 1.4507 1.4106 3.2617 1.4922z" fill="currentColor"/>
  <rect x="110" width="22" height="22" opacity=".001"/>
 </g>
 <g id="fcitx-libkkc" transform="translate(0,-132)">
  <rect x="22" y="66" width="22" height="22" opacity=".001"/>
  <path class="ColorScheme-Text" d="m27 69c-1.108 0-2 0.892-2 2v12c0 1.108 0.892 2 2 2h12c1.108 0 2-0.892 2-2v-12c0-1.108-0.892-2-2-2zm0 4h1v4.293l2.293-2.293h0.70703v-2h1v4.293l2.293-2.293h1.4141l-3 3 3 3h-1.4141l-2.293-2.293v2.293h-1.707l-2.293-2.293v2.293h-1zm10 2c0.58333 0 1.1107 0.15363 1.4785 0.52148 0.36785 0.36786 0.52148 0.89519 0.52148 1.4785h-1c0-0.41667-0.096367-0.63934-0.22852-0.77148-0.13215-0.13212-0.35482-0.22852-0.77148-0.22852s-0.63934 0.096366-0.77148 0.22852c-0.13215 0.13214-0.22852 0.35481-0.22852 0.77148v2c0 0.41667 0.09637 0.63934 0.22852 0.77148 0.13215 0.13212 0.35482 0.22852 0.77148 0.22852s0.63934-0.09637 0.77148-0.22852c0.13215-0.13214 0.22852-0.35481 0.22852-0.77148h1c0 0.58333-0.15363 1.1107-0.52148 1.4785-0.36785 0.36785-0.89518 0.52148-1.4785 0.52148s-1.1107-0.15363-1.4785-0.52148c-0.36785-0.36786-0.52148-0.89519-0.52148-1.4785v-2c0-0.58333 0.15363-1.1107 0.52148-1.4785 0.36785-0.36785 0.89518-0.52148 1.4785-0.52148zm-6 0.70703-2.293 2.293 2.293 2.293z" fill="currentColor"/>
 </g>
 <g id="fcitx-libskk" transform="translate(0,-132)">
  <rect x="44" y="66" width="22" height="22" opacity=".001"/>
  <path class="ColorScheme-Text" d="m49 69c-1.108 0-2 0.892-2 2v12c0 1.108 0.892 2 2 2h12c1.108 0 2-0.892 2-2v-12c0-1.108-0.892-2-2-2zm4 4h1v4.293l2.293-2.293h0.70703v-2h1v4.293l2.293-2.293h1.4141l-3 3 3 3h-1.4141l-2.293-2.293v2.293h-1.707l-2.293-2.293v2.293h-1v-2c0 0.58333-0.15363 1.1107-0.52148 1.4785s-0.89518 0.52148-1.4785 0.52148-1.1107-0.15363-1.4785-0.52148-0.52148-0.89519-0.52148-1.4785h1c0 0.41666 0.09637 0.63933 0.22852 0.77148 0.13215 0.13212 0.35482 0.22852 0.77148 0.22852s0.63934-0.09637 0.77148-0.22852c0.13215-0.13215 0.22852-0.35482 0.22852-0.77148 0-0.41667-0.096367-0.63933-0.22852-0.77148-0.13215-0.13211-0.35482-0.22852-0.77148-0.22852-0.58333 0-1.1107-0.15363-1.4785-0.52148s-0.52148-0.89519-0.52148-1.4785c0-0.58334 0.15363-1.1107 0.52148-1.4785s0.89518-0.52148 1.4785-0.52148 1.1107 0.15363 1.4785 0.52148 0.52148 0.89518 0.52148 1.4785zm0 3h-1c0-0.41667-0.096367-0.63933-0.22852-0.77148-0.13215-0.13211-0.35482-0.22852-0.77148-0.22852s-0.63934 0.096366-0.77148 0.22852c-0.13215 0.13215-0.22852 0.35481-0.22852 0.77148 0 0.41666 0.09637 0.63933 0.22852 0.77148 0.13215 0.13212 0.35482 0.22852 0.77148 0.22852 0.58333 0 1.1107 0.15363 1.4785 0.52148s0.52148 0.89518 0.52148 1.4785zm4-0.29297-2.293 2.293 2.293 2.293z" fill="currentColor"/>
 </g>
 <g id="fcitx-fullwidth-active" transform="translate(132 -214)">
  <rect y="170" width="22" height="22" opacity=".001"/>
  <circle class="ColorScheme-Text" cx="11" cy="181" r="8" fill="currentColor"/>
 </g>
 <g id="fcitx-fullwidth-inactive" transform="translate(154 -214)">
  <rect y="170" width="22" height="22" opacity=".001"/>
  <path class="ColorScheme-Text" transform="translate(-154 82)" d="m167.57 91.432a8 8 0 0 1 0.43359 2.5684 8 8 0 0 1-8 8 8 8 0 0 1-2.5664-0.43164 8 8 0 0 0 7.5664 5.4316 8 8 0 0 0 8-8 8 8 0 0 0-5.4336-7.5684z" fill="currentColor"/>
 </g>
 <g id="fcitx-punc-active" transform="translate(0,-132)">
  <path class="ColorScheme-Text" d="m137 113c-1.108 0-2 0.892-2 2v12c0 1.108 0.892 2 2 2h12c1.108 0 2-0.892 2-2v-12c0-1.108-0.892-2-2-2zm2.5 5c1.3748 0 2.5 1.1252 2.5 2.5s-1.1252 2.5-2.5 2.5-2.5-1.1252-2.5-2.5 1.1252-2.5 2.5-2.5zm7 0c1.3748 0 2.5 1.1252 2.5 2.5 0 2.3982-1.1119 3.84-2.2168 4.5996-1.1049 0.75963-2.2207 0.89648-2.2207 0.89648l-0.125-0.99218s0.88421-0.11315 1.7793-0.72852c0.48676-0.33465 0.96571-0.80875 1.3066-1.502-0.31356 0.14236-0.65825 0.22656-1.0234 0.22656-1.3748 0-2.5-1.1252-2.5-2.5s1.1252-2.5 2.5-2.5z" fill="currentColor"/>
  <rect x="132" y="110" width="22" height="22" opacity=".001"/>
 </g>
 <g id="fcitx-remind-active" transform="translate(0,-132)">
  <path class="ColorScheme-Text" d="m209 91c-3.3078 0-6 2.6922-6 6-4.2e-4 0.0189 1.8e-4 0.03781 2e-3 0.05664 0.0144 2.3215 0.86034 3.5093 1.6191 4.3945 0.76517 0.89287 1.3789 1.4417 1.3789 3.0488v0.5h6v-0.5c0-1.6071 0.63385-2.304 1.3906-3.25 0.74896-0.93616 1.5881-2.1039 1.6055-4.1875 3e-3 -0.02073 0.00391-0.04161 0.00391-0.0625 0-3.3078-2.6922-6-6-6zm0 2c2.2139 0 4 1.7861 4 4 0 1.5-0.51871 2.1572-1.1133 2.9004-0.5299 0.66237-1.0692 1.8743-1.1953 3.0996h-3.3867c-0.13139-1.2031-0.67906-2.3518-1.2012-2.9609-0.58775-0.6857-1.1035-1.328-1.1035-3.0391 0-2.2139 1.7861-4 4-4zm-1.8535 4-1.5 1.3594 0.70704 0.64062 1.1465-1.0391 1.1465 1.0391h0.70704l1.1465-1.0391 1.1465 1.0391 0.70704-0.64062-1.5-1.3594h-0.70704l-1.1465 1.0391-1.1465-1.0391zm-1.1465 9v1l1 1h4l1-1v-1z" fill="currentColor"/>
  <rect x="198" y="88" width="22" height="22" opacity=".001"/>
 </g>
 <g id="fcitx-handwriting-active" transform="translate(0,-132)">
  <rect x="198" y="110" width="22" height="22" opacity=".001"/>
  <path class="ColorScheme-Text" d="m215.61 114c-0.18125 0-0.36196 0.0709-0.50195 0.21094l-1.3984 1.4004 2.6699 2.6797 1.4082-1.4004c0.28-0.28 0.28-0.72976 0-1.0098l-1.6699-1.6699c-0.145-0.14-0.32656-0.21094-0.50781-0.21094zm-2.8613 2.5703-6.75 6.75v2.6797h2.6699l6.75-6.75zm-10.674 0.37298c-0.19319 4e-3 -0.40564 0.0236-0.64453 0.0566-0.66156 0.0911-0.52484 1.0833 0.13672 0.99219 0.41874-0.0578 0.71008-0.056 0.87109-0.0293 0.10527 0.0175 0.14015 0.0364 0.15039 0.043 1e-3 0.0124 2e-3 0.0394-4e-3 0.0898-0.0114 0.10109-0.0582 0.26431-0.125 0.45118-0.13364 0.37372-0.35129 1.5237-0.41016 2.0265-0.0294 0.25141-0.0149 0.53952 0.13281 0.80664 0.14773 0.26712 0.41956 0.46728 0.73829 0.57422 0.15253 0.0511 0.21329 0.0406 0.30859 0.0449 0.0953 4e-3 0.20074 6e-3 0.31641 6e-3 0.23131 7e-5 0.60346-3e-3 0.85772 4e-3 0.032 8.8e-4 0.0467 6e-3 0.0781 8e-3 -0.0907 0.0554-0.14558 0.0982-0.25194 0.1582-1.3107 0.66167-2.9124 0.85667-2.9046 2.3915 0.0823 0.37312 0.37009 0.63181 0.73047 0.82617 0.36039 0.19436 0.83345 0.35157 1.4805 0.49804 0.44993 0.10187 0.94859 0.14708 1.4629 0.16993v-1.0098c-0.47115-0.0211-0.90101-0.0575-1.2422-0.13476-0.59572-0.13486-0.99935-0.27981-1.2266-0.40235-0.1521-0.082-0.20177-0.13764-0.21875-0.1582 8e-3 -0.0144 0.0234-0.0425 0.0664-0.0937 0.61008-0.61329 1.5296-0.91972 2.2441-1.2157 0.28271-0.15954 0.63831-0.31223 0.85186-0.47851 0.21356-0.16628 0.4659-0.33013 0.47656-0.75196 6e-3 -0.24594-0.16427-0.47042-0.30468-0.56445-0.14044-0.094-0.26745-0.13055-0.39649-0.16016-0.25808-0.0592-0.53621-0.0742-0.81836-0.082-0.28212-8e-3 -0.66248-4e-3 -0.88311-4e-3 -0.11031-3e-5 -0.20638-6.6e-4 -0.27149-4e-3 -0.0275-1e-3 -0.0496-5e-3 -0.0645-8e-3 -0.11428-0.0431-0.14248-0.0763-0.1543-0.0977-0.0131-0.0236-0.0302-0.0805-0.0156-0.20508 0.0292-0.24917 0.20549-1.3755 0.35937-1.8058 0.0769-0.21515 0.14852-0.43604 0.17578-0.67774 0.0273-0.2417 6e-3 -0.53533-0.17578-0.78711-0.18155-0.25177-0.47835-0.3902-0.79882-0.44335-0.16024-0.0266-0.33416-0.0375-0.52735-0.0332z" fill="currentColor"/>
 </g>
 <g id="fcitx-shuangpin" transform="translate(0,-132)">
  <rect x="44" width="22" height="22" opacity=".001"/>
  <path class="ColorScheme-Text" d="m49 3c-1.108 0-2 0.892-2 2v12c0 1.108 0.892 2 2 2h12c1.108 0 2-0.892 2-2v-12c0-1.108-0.892-2-2-2zm0 2h5.5488l-0.0508 0.5508s-0.3276 3.5189-1.2246 6.1289c0.583 0.87 1.1389 1.7693 1.8379 3.0093l-0.8691 0.491c-0.539-0.95-0.9839-1.689-1.4219-2.3695-1.394 3.1205-3.3652 4.4825-3.3652 4.4825l-0.5567-0.832s1.9707-1.31 3.2637-4.6505c-0.765-1.11-1.6347-2.23-3.0527-4l0.7812-0.621c1.181 1.47 1.973 2.4911 2.668 3.4511 0.551-1.9 0.7981-4.0006 0.8691-4.6406h-4.4277zm6 0h6v0.5c0 2.15-0.833 4.9702-1.707 6.9102-0.111 0.25-0.242 0.4594-0.367 0.6898 0.624 1.09 1.46 2.12 2.844 3.232l-0.627 0.779c-1.282-1.034-2.147-2.04-2.803-3.06-1.3932 1.984-3.1037 3.033-3.1037 3.033l-0.5175-0.855s1.7803-1.099 3.0682-3.139c-0.338-0.6502-0.621-1.3102-0.8866-2.0002-0.758-1.95-1.2086-4.4998-1.3106-5.0898h-0.5898zm1.6074 1c0.14 0.77 0.5686 3.0305 1.2266 4.7305 0.173 0.45 0.351 0.8693 0.539 1.2793 0.757-1.68 1.442-4.1598 1.551-6.0098z" fill="currentColor"/>
 </g>
 <g id="fcitx-pinyin-libpinyin" transform="translate(0,-110)">
  <path class="ColorScheme-Text" d="m5 3c-1.108 0-2 0.892-2 2v12c0 1.108 0.892 2 2 2h12c1.108 0 2-0.892 2-2v-12c0-1.108-0.892-2-2-2zm5.9004 1.6992 1.5 2-0.3984 0.3008h1.996l-0.398-0.3008 1.5-2 0.8 0.6016-1.275 1.6992h2.375v1h-2v3h2v1h-2v5h-1v-5h-2.041c-0.096 1.12-0.4768 2.031-0.9258 2.811-0.621 1.07-1.6914 2.054-1.6914 2.054l-0.6836-0.728s1.0125-0.966 1.5098-1.826c0.401-0.7 0.7039-1.411 0.7929-2.311h-1.9609v-0.9395l-1 0.5v5.4395h-3v-1h2v-3.9395l-1.7773 0.8887-0.4454-0.8984 2.2227-1.1113v-2.9395h-2v-1h2v-2h1v2h1v1h-1v2.4395l0.7773-0.3887 0.4454 0.8984-0.1055 0.0508h1.8828v-3h-1v-1h1.375l-1.2754-1.6992zm1.0996 3.3008v3h2v-3z" fill="currentColor"/>
  <rect width="22" height="22" opacity=".001"/>
 </g>
 <g id="fcitx-quanpin-libpinyin" transform="translate(0,-110)">
  <path class="ColorScheme-Text" d="m27 3c-1.108 0-2 0.892-2 2v12c0 1.108 0.892 2 2 2h12c1.108 0 2-0.892 2-2v-12c0-1.108-0.892-2-2-2zm5.5098 1.9023 0.98047 0.19531c-0.01013 0.050704-0.03402 0.096718-0.04687 0.14648 1.8764 2.289 5.7324 3.7871 5.7324 3.7871l-0.35156 0.9375s-0.80843-0.32176-1.8242-0.83789v0.86914h-3.5v2h2.5v1h-2.5v3h4.5v1h-10v-1h4.5v-3h-2.5v-1h2.5v-2h-3.5v-0.82422c-1.0287 0.50172-1.8301 0.79492-1.8301 0.79492l-0.33984-0.94141s1.3412-0.48881 2.7363-1.2773c1.3951-0.78853 2.7575-1.9202 2.9434-2.8496zm0.49023 1.3301c-0.66759 0.99691-1.8461 1.7716-2.9414 2.3906-0.24781 0.14006-0.48317 0.256-0.7207 0.37695h7.3965c-1.1914-0.63048-2.6182-1.5528-3.7344-2.7676z" fill="currentColor"/>
  <rect x="22" width="22" height="22" opacity=".001"/>
 </g>
 <g id="fcitx-bopomofo-libpinyin" transform="translate(0,-110)">
  <rect x="66" width="22" height="22" opacity=".001"/>
  <path class="ColorScheme-Text" d="m71 3c-1.108 0-2 0.892-2 2v12c0 1.108 0.892 2 2 2h12c1.108 0 2-0.892 2-2v-12c0-1.108-0.892-2-2-2zm6.3008 1.5996 2 1.5-0.60156 0.80078-2-1.5zm-5.9473 0.046875 2 2-0.70703 0.70703-2-2zm2.6465 2.3535h9v1h-4v3h3v1h-3v4h4v1h-9v-1h4v-4h-3v-1h3v-3h-4zm-2.6465 0.64648 2 2-0.70703 0.70703-2-2zm1.1719 3.1953 0.94922 0.31641-2 6-0.94922-0.31641z" fill="currentColor"/>
 </g>
 <g id="fcitx-chewing-libpinyin" transform="translate(0,-110)">
  <path class="ColorScheme-Text" d="m93 3c-1.108 0-2 0.892-2 2v12c0 1.108 0.892 2 2 2h12c1.108 0 2-0.892 2-2v-12c0-1.108-0.892-2-2-2zm0 2h6v1h-2v3h2l-0.4004-0.3008s1.4004-1.9492 1.4004-3.6992h1c0 0.7087-0.1654 1.3887-0.3828 2h1.3828v-2h1v2h2v1h-2v2h2v1h-5v-1h2v-2h-1.8027c-0.3987 0.7896-0.7969 1.3008-0.7969 1.3008l-0.4004-0.3008v8h-6v-8h1v-3h-1zm2 1v3h1v-3zm0 4v3h-1v1h3v1h-3v1h4v-6h-1v3h-1v-3zm5 2h5v5h-5zm1 1v3h3v-3z" fill="currentColor"/>
  <rect x="88" width="22" height="22" opacity=".001"/>
 </g>
 <g id="fcitx-shuangpin-libpinyin" transform="translate(0,-110)">
  <rect x="44" width="22" height="22" opacity=".001"/>
  <path class="ColorScheme-Text" d="m49 3c-1.108 0-2 0.892-2 2v12c0 1.108 0.892 2 2 2h12c1.108 0 2-0.892 2-2v-12c0-1.108-0.892-2-2-2zm0 2h5.5488l-0.0508 0.5508s-0.3276 3.5189-1.2246 6.1289c0.583 0.87 1.1389 1.7693 1.8379 3.0093l-0.8691 0.491c-0.539-0.95-0.9839-1.689-1.4219-2.3695-1.394 3.1205-3.3652 4.4825-3.3652 4.4825l-0.5567-0.832s1.9707-1.31 3.2637-4.6505c-0.765-1.11-1.6347-2.23-3.0527-4l0.7812-0.621c1.181 1.47 1.973 2.4911 2.668 3.4511 0.551-1.9 0.7981-4.0006 0.8691-4.6406h-4.4277zm6 0h6v0.5c0 2.15-0.833 4.9702-1.707 6.9102-0.111 0.25-0.242 0.4594-0.367 0.6898 0.624 1.09 1.46 2.12 2.844 3.232l-0.627 0.779c-1.282-1.034-2.147-2.04-2.803-3.06-1.3932 1.984-3.1037 3.033-3.1037 3.033l-0.5175-0.855s1.7803-1.099 3.0682-3.139c-0.338-0.6502-0.621-1.3102-0.8866-2.0002-0.758-1.95-1.2086-4.4998-1.3106-5.0898h-0.5898zm1.6074 1c0.14 0.77 0.5686 3.0305 1.2266 4.7305 0.173 0.45 0.351 0.8693 0.539 1.2793 0.757-1.68 1.442-4.1598 1.551-6.0098z" fill="currentColor"/>
 </g>
 <g id="fcitx-anthy" transform="translate(0,-132)">
  <rect y="66" width="22" height="22" opacity=".001"/>
  <path class="ColorScheme-Text" d="m5 69c-1.108 0-2 0.892-2 2v12c0 1.108 0.892 2 2 2h12c1.108 0 2-0.892 2-2v-12c0-1.108-0.892-2-2-2zm4.334 2h1.2773c-0.074 0.5556-0.2035 1.1248-0.3886 1.9766 2.507-0.1016 4.3863-0.2367 5.7773-0.4004v1.2793c-1.168 0.133-3.0954 0.0662-6.0547 0.1992-0.2963 1.1851-0.6865 3.2169-1.168 4.291l0.1114 0.0547c1.3703-0.9259 2.3358-1.3887 3.2988-1.3887 1.2225 0 2.1675 0.2961 2.8335 0.8887 0.667 0.5926 0.979 1.3516 0.979 2.2776 0 1.074-0.404 1.489-1.256 2.045-0.815 0.518-2.0382 0.777-3.6678 0.777-1.0222 0-1.9571 6e-3 -3.0762-0.055v-1.447c0.9443 0.191 1.8385 0.225 2.9648 0.225 1.1852 0 2.0752-0.149 2.6682-0.446 0.629-0.333 0.943-0.433 0.943-1.099 0-0.593-0.204-1.056-0.611-1.3889-0.408-0.3704-0.9997-0.5547-1.7775-0.5547-1.5185 0-2.7428 0.6467-4.0762 1.9436l-1-0.778c0.5926-0.9622 1.1103-3.4253 1.5547-5.3883h-2.666v-1.0312c0.9591-5e-3 1.9321-0.0152 2.9453-0.0469z" fill="currentColor"/>
 </g>
 <g id="fcitx-hangul" transform="translate(0,-132)">
  <rect y="88" width="22" height="22" opacity=".001"/>
  <path class="ColorScheme-Text" d="m5 91c-1.108 0-2 0.892-2 2v12c0 1.108 0.892 2 2 2h12c1.108 0 2-0.892 2-2v-12c0-1.108-0.892-2-2-2zm3 2h2v1h-2zm6 1h1v3h2v1h-2v4h-1zm-8 1h6v1h-6zm3 2c1.5969 0 3 1.0577 3 2.5 0 1.4423-1.4031 2.5-3 2.5s-3-1.0577-3-2.5c0-1.4423 1.4031-2.5 3-2.5zm0 1c-1.1645 0-2 0.7332-2 1.5 0 0.7668 0.8355 1.5 2 1.5s2-0.7332 2-1.5c0-0.7668-0.8355-1.5-2-1.5zm-1 5h1v1h7v1h-8z" fill="currentColor"/>
 </g>
 <g id="fcitx-unikey" transform="translate(0,-132)">
  <rect y="110" width="22" height="22" opacity=".001"/>
  <path class="ColorScheme-Text" d="m5 113c-1.108 0-2 0.892-2 2v12c0 1.108 0.892 2 2 2h12c1.108 0 2-0.892 2-2v-12c0-1.108-0.892-2-2-2zm1 3h1v1.5c0 0.6944 0.1274 1.0772 0.2656 1.25 0.1383 0.1728 0.3177 0.25 0.7344 0.25 0.4167 0 0.5961-0.0772 0.7344-0.25 0.1382-0.1728 0.2656-0.5556 0.2656-1.25v-1.5h1v1.5c0 0.8056-0.1226 1.4228-0.4844 1.875-0.3617 0.4522-0.9323 0.625-1.5156 0.625s-1.1539-0.1728-1.5156-0.625c-0.3618-0.4522-0.4844-1.0694-0.4844-1.875zm8 0h1v4h-1zm-5 7h1l2 2.5v-2.5h1v4h-1l-2-2.5v2.5h-1z" fill="currentColor"/>
 </g>
 <g id="fcitx-chttrans-active" transform="translate(-22,-132)">
  <rect x="154" y="132" width="22" height="22" opacity=".001"/>
  <path class="ColorScheme-Text" d="m159 135c-1.108 0-2 0.892-2 2v12c0 1.108 0.892 2 2 2h12c1.108 0 2-0.892 2-2v-12c0-1.108-0.892-2-2-2zm4 3h1v3h4v-1h1v1h1v1h-1v2c0.0474 0.72101 0 1 1 1v1c-0.20833 0-0.40483-0.0175-0.61523 0-0.21041 0.0177-0.45836-0.0153-0.73243-0.15234s-0.45781-0.32874-0.54101-0.64063c-0.08313-0.31189-0.11133-0.6862-0.11133-1.207v-2h-1v4h-1v-4h-2v4h-1v-2c0 0.58333-0.15363 1.1107-0.52148 1.4785-0.36786 0.36785-0.89519 0.52148-1.4785 0.52148s-1.1107-0.15363-1.4785-0.52148c-0.36785-0.36786-0.52148-0.89519-0.52148-1.4785v-2c0-0.58333 0.15363-1.1107 0.52148-1.4785 0.36786-0.36785 0.89519-0.52148 1.4785-0.52148s1.1107 0.15363 1.4785 0.52148c0.36785 0.36786 0.52148 0.89519 0.52148 1.4785v-1zm0 4h-1c0-0.41667-0.0964-0.63934-0.22852-0.77148-0.13214-0.13212-0.35481-0.22852-0.77148-0.22852s-0.63934 0.0964-0.77148 0.22852c-0.13212 0.13214-0.22852 0.35481-0.22852 0.77148v2c0 0.41667 0.0964 0.63934 0.22852 0.77148 0.13214 0.13212 0.35481 0.22852 0.77148 0.22852s0.63934-0.0964 0.77148-0.22852c0.13212-0.13214 0.22852-0.35481 0.22852-0.77148h1z" fill="currentColor"/>
 </g>
 <g id="fcitx-chttrans-inactive" transform="translate(0,-132)">
  <rect x="154" y="132" width="22" height="22" opacity=".001"/>
  <path class="ColorScheme-Text" d="m159 135c-1.108 0-2 0.892-2 2v12c0 1.108 0.892 2 2 2h12c1.108 0 2-0.892 2-2v-12c0-1.108-0.892-2-2-2zm4 3h1v3h4v-1h1v1h1v1h-1v2c0.0474 0.72101 0 1 1 1v1c-0.20833 0-0.40483-0.0175-0.61523 0-0.21041 0.0177-0.45836-0.0153-0.73243-0.15234s-0.45781-0.32874-0.54101-0.64063c-0.08313-0.31189-0.11133-0.6862-0.11133-1.207v-2h-1v4h-1v-4h-2v4h-1v-2c0 0.58333-0.15363 1.1107-0.52148 1.4785-0.36786 0.36785-0.89519 0.52148-1.4785 0.52148s-1.1107-0.15363-1.4785-0.52148c-0.36785-0.36786-0.52148-0.89519-0.52148-1.4785v-2c0-0.58333 0.15363-1.1107 0.52148-1.4785 0.36786-0.36785 0.89519-0.52148 1.4785-0.52148s1.1107 0.15363 1.4785 0.52148c0.36785 0.36786 0.52148 0.89519 0.52148 1.4785v-1zm0 4h-1c0-0.41667-0.0964-0.63934-0.22852-0.77148-0.13214-0.13212-0.35481-0.22852-0.77148-0.22852s-0.63934 0.0964-0.77148 0.22852c-0.13212 0.13214-0.22852 0.35481-0.22852 0.77148v2c0 0.41667 0.0964 0.63934 0.22852 0.77148 0.13214 0.13212 0.35481 0.22852 0.77148 0.22852s0.63934-0.0964 0.77148-0.22852c0.13212-0.13214 0.22852-0.35481 0.22852-0.77148h1z" fill="currentColor" opacity=".35"/>
 </g>
 <g id="fcitx-handwriting-inactive" transform="translate(22,-132)">
  <rect x="198" y="110" width="22" height="22" opacity=".001"/>
  <path class="ColorScheme-Text" d="m215.61 114c-0.18125 0-0.36196 0.0709-0.50195 0.21094l-1.3984 1.4004 2.6699 2.6797 1.4082-1.4004c0.28-0.28 0.28-0.72976 0-1.0098l-1.6699-1.6699c-0.145-0.14-0.32656-0.21094-0.50781-0.21094zm-2.8613 2.5703-6.75 6.75v2.6797h2.6699l6.75-6.75zm-10.674 0.37298c-0.19319 4e-3 -0.40564 0.0236-0.64453 0.0566-0.66156 0.0911-0.52484 1.0833 0.13672 0.99219 0.41874-0.0578 0.71008-0.056 0.87109-0.0293 0.10527 0.0175 0.14015 0.0364 0.15039 0.043 1e-3 0.0124 2e-3 0.0394-4e-3 0.0898-0.0114 0.10109-0.0582 0.26431-0.125 0.45118-0.13364 0.37372-0.35129 1.5237-0.41016 2.0265-0.0294 0.25141-0.0149 0.53952 0.13281 0.80664 0.14773 0.26712 0.41956 0.46728 0.73829 0.57422 0.15253 0.0511 0.21329 0.0406 0.30859 0.0449 0.0953 4e-3 0.20074 6e-3 0.31641 6e-3 0.23131 7e-5 0.60346-3e-3 0.85772 4e-3 0.032 8.8e-4 0.0467 6e-3 0.0781 8e-3 -0.0907 0.0554-0.14558 0.0982-0.25194 0.1582-1.3107 0.66167-2.9124 0.85667-2.9046 2.3915 0.0823 0.37312 0.37009 0.63181 0.73047 0.82617 0.36039 0.19436 0.83345 0.35157 1.4805 0.49804 0.44993 0.10187 0.94859 0.14708 1.4629 0.16993v-1.0098c-0.47115-0.0211-0.90101-0.0575-1.2422-0.13476-0.59572-0.13486-0.99935-0.27981-1.2266-0.40235-0.1521-0.082-0.20177-0.13764-0.21875-0.1582 8e-3 -0.0144 0.0234-0.0425 0.0664-0.0937 0.61008-0.61329 1.5296-0.91972 2.2441-1.2157 0.28271-0.15954 0.63831-0.31223 0.85186-0.47851 0.21356-0.16628 0.4659-0.33013 0.47656-0.75196 6e-3 -0.24594-0.16427-0.47042-0.30468-0.56445-0.14044-0.094-0.26745-0.13055-0.39649-0.16016-0.25808-0.0592-0.53621-0.0742-0.81836-0.082-0.28212-8e-3 -0.66248-4e-3 -0.88311-4e-3 -0.11031-3e-5 -0.20638-6.6e-4 -0.27149-4e-3 -0.0275-1e-3 -0.0496-5e-3 -0.0645-8e-3 -0.11428-0.0431-0.14248-0.0763-0.1543-0.0977-0.0131-0.0236-0.0302-0.0805-0.0156-0.20508 0.0292-0.24917 0.20549-1.3755 0.35937-1.8058 0.0769-0.21515 0.14852-0.43604 0.17578-0.67774 0.0273-0.2417 6e-3 -0.53533-0.17578-0.78711-0.18155-0.25177-0.47835-0.3902-0.79882-0.44335-0.16024-0.0266-0.33416-0.0375-0.52735-0.0332z" fill="currentColor" opacity=".35"/>
 </g>
 <g id="fcitx-remind-inactive" transform="translate(22,-132)">
  <path class="ColorScheme-Text" d="m209 91c-3.3078 0-6 2.6922-6 6-4.2e-4 0.0189 1.8e-4 0.03781 2e-3 0.05664 0.0144 2.3215 0.86034 3.5093 1.6191 4.3945 0.76517 0.89287 1.3789 1.4417 1.3789 3.0488v0.5h6v-0.5c0-1.6071 0.63385-2.304 1.3906-3.25 0.74896-0.93616 1.5881-2.1039 1.6055-4.1875 3e-3 -0.02073 0.00391-0.04161 0.00391-0.0625 0-3.3078-2.6922-6-6-6zm0 2c2.2139 0 4 1.7861 4 4 0 1.5-0.51871 2.1572-1.1133 2.9004-0.5299 0.66237-1.0692 1.8743-1.1953 3.0996h-3.3867c-0.13139-1.2031-0.67906-2.3518-1.2012-2.9609-0.58775-0.6857-1.1035-1.328-1.1035-3.0391 0-2.2139 1.7861-4 4-4zm-1.8535 4-1.5 1.3594 0.70704 0.64062 1.1465-1.0391 1.1465 1.0391h0.70704l1.1465-1.0391 1.1465 1.0391 0.70704-0.64062-1.5-1.3594h-0.70704l-1.1465 1.0391-1.1465-1.0391zm-1.1465 9v1l1 1h4l1-1v-1z" fill="currentColor" opacity=".35"/>
  <rect x="198" y="88" width="22" height="22" opacity=".001"/>
 </g>
 <g id="fcitx-kbd" transform="translate(0,-132)">
  <rect x="154" y="66" width="22" height="22" opacity=".001"/>
  <path class="ColorScheme-Text" d="m165 67.545c-8e-3 0.0044-0.017 0.0092-0.0254 0.01367-0.41391 0.22152-0.62662 0.56724-0.89258 0.88867-0.26596 0.32144-0.59473 0.60319-0.5625 0.58984-0.16343 0.0677-0.38785 0.06606-0.69141-0.01563-0.30353-0.08167-0.66215-0.23828-1.0332-0.39453-0.37104-0.15625-0.75339-0.31622-1.1699-0.37109s-0.91575 0.03685-1.2695 0.39062c-0.28035 0.28035-0.31552 0.60184-0.3418 0.91797-0.0263 0.31613-0.01 0.64935 0.0215 0.96289 0.0166 0.16653 0.0386 0.32538 0.0605 0.47266h-0.09566c-1.108 0-2 0.892-2 2v8c0 1.108 0.892 2 2 2h11c1.108 0 2-0.892 2-2v-8c0-1.108-0.892-2-2-2h-9.8926c-0.0277-0.17126-0.0553-0.36334-0.0762-0.57227-0.0277-0.27753-0.0394-0.56569-0.0215-0.78125 0.0157-0.18862 0.0805-0.30634 0.0664-0.30273 0.11174-0.1075 0.19611-0.12493 0.41797-0.0957 0.22939 0.03022 0.55694 0.1504 0.91406 0.30078 0.35713 0.15038 0.74553 0.3279 1.1602 0.43945 0.41462 0.11156 0.87955 0.16204 1.332-0.02539 0.46775-0.19375 0.68185-0.55105 0.95313-0.87891 0.0479-0.05787 0.0976-0.11262 0.14648-0.16797zm-5.75 5.4551h1.5c0.1385 0 0.25 0.1115 0.25 0.25v1.5c0 0.1385-0.1115 0.25-0.25 0.25h-1.5c-0.1385 0-0.25-0.1115-0.25-0.25v-1.5c0-0.1385 0.1115-0.25 0.25-0.25zm3 0h1.5c0.1385 0 0.25 0.1115 0.25 0.25v1.5c0 0.1385-0.1115 0.25-0.25 0.25h-1.5c-0.1385 0-0.25-0.1115-0.25-0.25v-1.5c0-0.1385 0.1115-0.25 0.25-0.25zm3 0h1.5c0.139 0 0.25 0.1115 0.25 0.25v1.5c0 0.1385-0.111 0.25-0.25 0.25h-1.5c-0.139 0-0.25-0.1115-0.25-0.25v-1.5c0-0.1385 0.111-0.25 0.25-0.25zm3 0h1.5c0.139 0 0.25 0.1115 0.25 0.25v1.5c0 0.1385-0.111 0.25-0.25 0.25h-1.5c-0.139 0-0.25-0.1115-0.25-0.25v-1.5c0-0.1385 0.111-0.25 0.25-0.25zm-9 3h1.5c0.1385 0 0.25 0.111 0.25 0.25v1.5c0 0.139-0.1115 0.25-0.25 0.25h-1.5c-0.1385 0-0.25-0.111-0.25-0.25v-1.5c0-0.139 0.1115-0.25 0.25-0.25zm3 0h1.5c0.1385 0 0.25 0.111 0.25 0.25v1.5c0 0.139-0.1115 0.25-0.25 0.25h-1.5c-0.1385 0-0.25-0.111-0.25-0.25v-1.5c0-0.139 0.1115-0.25 0.25-0.25zm3 0h1.5c0.139 0 0.25 0.111 0.25 0.25v1.5c0 0.139-0.111 0.25-0.25 0.25h-1.5c-0.139 0-0.25-0.111-0.25-0.25v-1.5c0-0.139 0.111-0.25 0.25-0.25zm3 0h1.5c0.139 0 0.25 0.111 0.25 0.25v1.5c0 0.139-0.111 0.25-0.25 0.25h-1.5c-0.139 0-0.25-0.111-0.25-0.25v-1.5c0-0.139 0.111-0.25 0.25-0.25zm-7 3h6.5c0.139 0 0.25 0.111 0.25 0.25v1.5c0 0.139-0.111 0.25-0.25 0.25h-6.5c-0.1385 0-0.25-0.111-0.25-0.25v-1.5c0-0.139 0.1115-0.25 0.25-0.25z" fill="currentColor"/>
 </g>
 <g id="fcitx-vk-active" transform="translate(22,-132)">
  <rect x="154" y="66" width="22" height="22" opacity=".001"/>
  <path class="ColorScheme-Text" d="m159 71c-1.108 0-2 0.892-2 2v8c0 1.108 0.892 2 2 2h11c1.108 0 2-0.892 2-2v-8c0-1.108-0.892-2-2-2zm0.25 2h1.5c0.1385 0 0.25 0.1115 0.25 0.25v1.5c0 0.1385-0.1115 0.25-0.25 0.25h-1.5c-0.1385 0-0.25-0.1115-0.25-0.25v-1.5c0-0.1385 0.1115-0.25 0.25-0.25zm3 0h1.5c0.1385 0 0.25 0.1115 0.25 0.25v1.5c0 0.1385-0.1115 0.25-0.25 0.25h-1.5c-0.1385 0-0.25-0.1115-0.25-0.25v-1.5c0-0.1385 0.1115-0.25 0.25-0.25zm3 0h1.5c0.139 0 0.25 0.1115 0.25 0.25v1.5c0 0.1385-0.111 0.25-0.25 0.25h-1.5c-0.139 0-0.25-0.1115-0.25-0.25v-1.5c0-0.1385 0.111-0.25 0.25-0.25zm3 0h1.5c0.139 0 0.25 0.1115 0.25 0.25v1.5c0 0.1385-0.111 0.25-0.25 0.25h-1.5c-0.139 0-0.25-0.1115-0.25-0.25v-1.5c0-0.1385 0.111-0.25 0.25-0.25zm-9 3h1.5c0.1385 0 0.25 0.111 0.25 0.25v1.5c0 0.139-0.1115 0.25-0.25 0.25h-1.5c-0.1385 0-0.25-0.111-0.25-0.25v-1.5c0-0.139 0.1115-0.25 0.25-0.25zm3 0h1.5c0.1385 0 0.25 0.111 0.25 0.25v1.5c0 0.139-0.1115 0.25-0.25 0.25h-1.5c-0.1385 0-0.25-0.111-0.25-0.25v-1.5c0-0.139 0.1115-0.25 0.25-0.25zm3 0h1.5c0.139 0 0.25 0.111 0.25 0.25v1.5c0 0.139-0.111 0.25-0.25 0.25h-1.5c-0.139 0-0.25-0.111-0.25-0.25v-1.5c0-0.139 0.111-0.25 0.25-0.25zm3 0h1.5c0.139 0 0.25 0.111 0.25 0.25v1.5c0 0.139-0.111 0.25-0.25 0.25h-1.5c-0.139 0-0.25-0.111-0.25-0.25v-1.5c0-0.139 0.111-0.25 0.25-0.25zm-7 3h6.5c0.139 0 0.25 0.111 0.25 0.25v1.5c0 0.139-0.111 0.25-0.25 0.25h-6.5c-0.1385 0-0.25-0.111-0.25-0.25v-1.5c0-0.139 0.1115-0.25 0.25-0.25z" fill="currentColor"/>
 </g>
 <g id="fcitx-vk-inactive">
  <rect x="198" y="-66" width="22" height="22" opacity=".001"/>
  <path class="ColorScheme-Text" d="m203-61c-1.108 0-2 0.892-2 2v8c0 1.108 0.892 2 2 2h11c1.108 0 2-0.892 2-2v-8c0-1.108-0.892-2-2-2zm0.25 2h1.5c0.1385 0 0.25 0.1115 0.25 0.25v1.5c0 0.1385-0.1115 0.25-0.25 0.25h-1.5c-0.1385 0-0.25-0.1115-0.25-0.25v-1.5c0-0.1385 0.1115-0.25 0.25-0.25zm3 0h1.5c0.1385 0 0.25 0.1115 0.25 0.25v1.5c0 0.1385-0.1115 0.25-0.25 0.25h-1.5c-0.1385 0-0.25-0.1115-0.25-0.25v-1.5c0-0.1385 0.1115-0.25 0.25-0.25zm3 0h1.5c0.139 0 0.25 0.1115 0.25 0.25v1.5c0 0.1385-0.111 0.25-0.25 0.25h-1.5c-0.139 0-0.25-0.1115-0.25-0.25v-1.5c0-0.1385 0.111-0.25 0.25-0.25zm3 0h1.5c0.139 0 0.25 0.1115 0.25 0.25v1.5c0 0.1385-0.111 0.25-0.25 0.25h-1.5c-0.139 0-0.25-0.1115-0.25-0.25v-1.5c0-0.1385 0.111-0.25 0.25-0.25zm-9 3h1.5c0.1385 0 0.25 0.111 0.25 0.25v1.5c0 0.139-0.1115 0.25-0.25 0.25h-1.5c-0.1385 0-0.25-0.111-0.25-0.25v-1.5c0-0.139 0.1115-0.25 0.25-0.25zm3 0h1.5c0.1385 0 0.25 0.111 0.25 0.25v1.5c0 0.139-0.1115 0.25-0.25 0.25h-1.5c-0.1385 0-0.25-0.111-0.25-0.25v-1.5c0-0.139 0.1115-0.25 0.25-0.25zm3 0h1.5c0.139 0 0.25 0.111 0.25 0.25v1.5c0 0.139-0.111 0.25-0.25 0.25h-1.5c-0.139 0-0.25-0.111-0.25-0.25v-1.5c0-0.139 0.111-0.25 0.25-0.25zm3 0h1.5c0.139 0 0.25 0.111 0.25 0.25v1.5c0 0.139-0.111 0.25-0.25 0.25h-1.5c-0.139 0-0.25-0.111-0.25-0.25v-1.5c0-0.139 0.111-0.25 0.25-0.25zm-7 3h6.5c0.139 0 0.25 0.111 0.25 0.25v1.5c0 0.139-0.111 0.25-0.25 0.25h-6.5c-0.1385 0-0.25-0.111-0.25-0.25v-1.5c0-0.139 0.1115-0.25 0.25-0.25z" fill="currentColor" opacity=".35"/>
 </g>
 <g id="fcitx" transform="translate(-22,-132)">
  <rect x="154" y="66" width="22" height="22" opacity=".001"/>
  <path class="ColorScheme-Text" d="m165 67.545c-8e-3 0.0044-0.017 0.0092-0.0254 0.01367-0.41391 0.22152-0.62662 0.56724-0.89258 0.88867-0.26596 0.32144-0.59473 0.60319-0.5625 0.58984-0.16343 0.0677-0.38785 0.06606-0.69141-0.01563-0.30353-0.08167-0.66215-0.23828-1.0332-0.39453-0.37104-0.15625-0.75339-0.31622-1.1699-0.37109s-0.91575 0.03685-1.2695 0.39062c-0.28035 0.28035-0.31552 0.60184-0.3418 0.91797-0.0263 0.31613-0.01 0.64935 0.0215 0.96289 0.0166 0.16653 0.0386 0.32538 0.0605 0.47266h-0.09566c-1.108 0-2 0.892-2 2v8c0 1.108 0.892 2 2 2h11c1.108 0 2-0.892 2-2v-8c0-1.108-0.892-2-2-2h-9.8926c-0.0277-0.17126-0.0553-0.36334-0.0762-0.57227-0.0277-0.27753-0.0394-0.56569-0.0215-0.78125 0.0157-0.18862 0.0805-0.30634 0.0664-0.30273 0.11174-0.1075 0.19611-0.12493 0.41797-0.0957 0.22939 0.03022 0.55694 0.1504 0.91406 0.30078 0.35713 0.15038 0.74553 0.3279 1.1602 0.43945 0.41462 0.11156 0.87955 0.16204 1.332-0.02539 0.46775-0.19375 0.68185-0.55105 0.95313-0.87891 0.0479-0.05787 0.0976-0.11262 0.14648-0.16797zm-5.75 5.4551h1.5c0.1385 0 0.25 0.1115 0.25 0.25v1.5c0 0.1385-0.1115 0.25-0.25 0.25h-1.5c-0.1385 0-0.25-0.1115-0.25-0.25v-1.5c0-0.1385 0.1115-0.25 0.25-0.25zm3 0h1.5c0.1385 0 0.25 0.1115 0.25 0.25v1.5c0 0.1385-0.1115 0.25-0.25 0.25h-1.5c-0.1385 0-0.25-0.1115-0.25-0.25v-1.5c0-0.1385 0.1115-0.25 0.25-0.25zm3 0h1.5c0.139 0 0.25 0.1115 0.25 0.25v1.5c0 0.1385-0.111 0.25-0.25 0.25h-1.5c-0.139 0-0.25-0.1115-0.25-0.25v-1.5c0-0.1385 0.111-0.25 0.25-0.25zm3 0h1.5c0.139 0 0.25 0.1115 0.25 0.25v1.5c0 0.1385-0.111 0.25-0.25 0.25h-1.5c-0.139 0-0.25-0.1115-0.25-0.25v-1.5c0-0.1385 0.111-0.25 0.25-0.25zm-9 3h1.5c0.1385 0 0.25 0.111 0.25 0.25v1.5c0 0.139-0.1115 0.25-0.25 0.25h-1.5c-0.1385 0-0.25-0.111-0.25-0.25v-1.5c0-0.139 0.1115-0.25 0.25-0.25zm3 0h1.5c0.1385 0 0.25 0.111 0.25 0.25v1.5c0 0.139-0.1115 0.25-0.25 0.25h-1.5c-0.1385 0-0.25-0.111-0.25-0.25v-1.5c0-0.139 0.1115-0.25 0.25-0.25zm3 0h1.5c0.139 0 0.25 0.111 0.25 0.25v1.5c0 0.139-0.111 0.25-0.25 0.25h-1.5c-0.139 0-0.25-0.111-0.25-0.25v-1.5c0-0.139 0.111-0.25 0.25-0.25zm3 0h1.5c0.139 0 0.25 0.111 0.25 0.25v1.5c0 0.139-0.111 0.25-0.25 0.25h-1.5c-0.139 0-0.25-0.111-0.25-0.25v-1.5c0-0.139 0.111-0.25 0.25-0.25zm-7 3h6.5c0.139 0 0.25 0.111 0.25 0.25v1.5c0 0.139-0.111 0.25-0.25 0.25h-6.5c-0.1385 0-0.25-0.111-0.25-0.25v-1.5c0-0.139 0.1115-0.25 0.25-0.25z" fill="currentColor"/>
 </g>
 <g id="fcitx-mozc-alpha-full" transform="translate(70,-65)">
  <rect x="172" y="-67" width="22" height="22" opacity=".001"/>
  <path class="ColorScheme-Text" d="m177-64c-1.108 0-2 0.892-2 2v12c0 1.108 0.892 2 2 2h12c1.108 0 2-0.892 2-2v-12c0-1.108-0.892-2-2-2zm5.373 2h1.2695l4.3574 12h-1.4582l-1.3477-4h-4.4352l-1.332 4h-1.427zm0.60742 1.586-1.9525 5.414h3.944z" fill="currentColor"/>
 </g>
 <g id="fcitx-mozc-alpha-half" transform="translate(70,-65)">
  <rect x="194" y="-67" width="22" height="22" opacity=".001"/>
  <path class="ColorScheme-Text" d="m199-64c-1.108 0-2 0.892-2 2v12c0 1.108 0.892 2 2 2h12c1.108 0 2-0.892 2-2v-12c0-1.108-0.892-2-2-2zm7.498 3h1.0156l3.4863 10h-1.4394l-1.0116-3h-3.133l-0.99998 3h-1.416zm0.48632 2.0859-1.3203 3.9141h2.6719zm-7.9844 6.9141h3v1h-3z" fill="currentColor"/>
 </g>
 <g id="fcitx-mozc-dictionary" transform="translate(70,-65)">
  <rect x="304" y="-67" width="22" height="22" opacity=".001"/>
  <path class="ColorScheme-Text" d="m310-64c-1.108 0-2 0.892-2 2v12c0 1.108 0.892 2 2 2h1v-16zm2 0v16h8c1.108 0 2-0.892 2-2v-12c0-1.108-0.892-2-2-2zm2 3h6v1h-6zm0 3h6v1h-6zm0 3h6v1h-6zm0 3h6v1h-6z" fill="currentColor"/>
 </g>
 <g id="fcitx-mozc-direct" transform="translate(70,-65)">
  <rect x="216" y="-67" width="22" height="22" opacity=".001"/>
  <path class="ColorScheme-Text" d="m221-64c-1.108 0-2 0.892-2 2v12c0 1.108 0.892 2 2 2h12c1.108 0 2-0.892 2-2v-12c0-1.108-0.892-2-2-2zm5.498 2h1.0156l3.4863 12h-1.3672l-1.0781-4h-3.1484l-1.0644 4h-1.3418zm0.48828 1.8867-1.3652 5.1133h2.7559z" fill="currentColor"/>
 </g>
 <g id="fcitx-mozc-hiragana" transform="translate(70,-65)">
  <rect x="282" y="-67" width="22" height="22" opacity=".001"/>
  <path class="ColorScheme-Text" d="m287-64c-1.108 0-2 0.892-2 2v12c0 1.108 0.892 2 2 2h12c1.108 0 2-0.892 2-2v-12c0-1.108-0.892-2-2-2zm5 1.9746 1 0.05078-0.0977 1.9746h5.0977v1h-5.1465l-0.10742 2.1621c0.57357-0.08322 1.1753-0.11362 1.7754-0.10352 0.15244-0.32542 0.65625-1.2402 0.65625-1.2402l0.91602 0.40039s-0.38336 0.70353-0.45703 0.86523c0.0344 0.0052 0.0713-0.0037 0.10546 2e-3 0.76707 0.12748 1.4884 0.37111 2.0762 0.78711 0.58779 0.416 1.0368 1.0272 1.1738 1.793 0.21112 1.18-0.3759 2.3192-1.3184 3.0996-0.94245 0.78033-2.2665 1.3434-3.6738 1.2034l0.0996-0.99414c1.1269 0.11209 2.2024-0.37013 2.9375-0.97884 0.73511-0.6087 1.105-1.4037 0.9707-2.1543-0.089-0.49749-0.34677-0.8559-0.76563-1.1523-0.41885-0.29644-1.004-0.5075-1.6641-0.61719-0.14516-0.02412-0.30984 0.0065-0.46094-0.0078-0.4078 0.83913-0.55283 1.268-1.293 2.4395-0.64996 1.0287-1.3751 2.0175-2.1562 2.6914-0.39058 0.33696-0.79947 0.60098-1.248 0.72656s-0.95443 0.08564-1.3828-0.17383c-0.54884-0.33244-0.89878-0.8605-1.0254-1.4356-0.12662-0.57506-0.0495-1.1915 0.17578-1.7891 0.45047-1.1952 1.5032-2.3427 3.002-2.957 0.1733-0.07104 0.35616-0.1308 0.54297-0.18555l0.11718-2.3809h-2.8496v-1h2.9004zm1.6113 6.0527c-0.0429-7.01e-4 -0.0855 0.0011-0.12891 0.0059-0.26841 0.02939-0.53142 0.07245-0.78515 0.125l-0.1211 2.4238c0.13722-0.20002 0.27288-0.40528 0.4043-0.61328 0.57786-0.91462 0.63373-1.1601 1.0195-1.9258-0.13173 0.0064-0.25987-0.01353-0.38867-0.01563zm-1.9316 0.42188c-0.0371 0.01421-0.0753 0.02822-0.11133 0.04297-1.2419 0.50908-2.1041 1.4776-2.4453 2.3828-0.17059 0.4526-0.20975 0.88211-0.13477 1.2227 0.075 0.34054 0.24474 0.59892 0.56836 0.79492 0.19565 0.11851 0.35442 0.13341 0.59375 0.06641 0.23933-0.067 0.54261-0.24483 0.86328-0.52148 0.16092-0.13883 0.32577-0.30124 0.49219-0.48242z" fill="currentColor"/>
 </g>
 <g id="fcitx-mozc-katakana-full" transform="translate(70,-65)">
  <rect x="238" y="-67" width="22" height="22" opacity=".001"/>
  <path class="ColorScheme-Text" d="m243-64c-1.108 0-2 0.892-2 2v12c0 1.108 0.892 2 2 2h12c1.108 0 2-0.892 2-2v-12c0-1.108-0.892-2-2-2zm1 3h9.9004c0.35844-4.22e-4 0.60091 0.36532 0.46094 0.69531-1.0377 2.4559-2.5071 4.2156-4.127 5.6758l-0.66796-0.74219c1.3681-1.2332 2.5383-2.7255 3.4746-4.6289h-9.041zm4 2.998 1 0.0039c-5e-3 1.4693 0.10292 2.9358-0.29297 4.3398-0.39589 1.4041-1.3445 2.7038-3.2773 3.7051l-0.45899-0.88671c1.748-0.90555 2.4441-1.9147 2.7754-3.0898 0.33133-1.1751 0.24869-2.5583 0.25391-4.0723z" fill="currentColor"/>
 </g>
 <g id="fcitx-mozc-katakana-half" transform="translate(70,-65)">
  <rect x="260" y="-67" width="22" height="22" opacity=".001"/>
  <path class="ColorScheme-Text" d="m265-64c-1.108 0-2 0.892-2 2v12c0 1.108 0.892 2 2 2h12c1.108 0 2-0.892 2-2v-12c0-1.108-0.892-2-2-2zm4 2.9991h7.6152c0.27569-4.21e-4 0.46117 0.36533 0.35352 0.69531-0.79813 2.4559-1.6272 4.0164-2.873 5.4766l-0.71484-0.74219c1.0522-1.2332 1.6529-2.5263 2.373-4.4297h-6.7539zm3 2.998 1 0.0039c-4e-3 1.4693 0.12479 2.4356-0.17969 3.8397-0.30448 1.4041-1.2341 2.2044-2.7207 3.2057l-0.35352-1.0859c1.3444-0.90555 1.7803-1.2161 2.0352-2.3912 0.25483-1.1751 0.21473-2.0581 0.21875-3.5721zm-7 6.0024h3v1h-3z" fill="currentColor"/>
 </g>
 <g id="fcitx-mozc-properties" transform="translate(70,-65)">
  <rect x="326" y="-67" width="22" height="22" opacity=".001"/>
  <path class="ColorScheme-Text" d="m335-64-0.17578 2.1074a6.2848 6.2848 0 0 0-1.8359 1.0625l-1.916-0.90234-2 3.4629 1.7383 1.209a6.2848 6.2848 0 0 0-0.0957 1.0586 6.2848 6.2848 0 0 0 0.0918 1.0644l-1.7344 1.2031 2 3.4648 1.9102-0.90039a6.2848 6.2848 0 0 0 1.8418 1.0566l0.17187 2.1133h4l0.17578-2.1074a6.2848 6.2848 0 0 0 1.8359-1.0625l1.916 0.90234 2-3.4629-1.7383-1.209a6.2848 6.2848 0 0 0 0.0957-1.0586 6.2848 6.2848 0 0 0-0.0918-1.0644l1.7344-1.2031-2-3.4648-1.9102 0.90039a6.2848 6.2848 0 0 0-1.8418-1.0566l-0.17187-2.1133zm1.998 5a3 3 0 0 1 3 3 3 3 0 0 1-3 3 3 3 0 0 1-3-3 3 3 0 0 1 3-3z" fill="currentColor"/>
 </g>
 <g id="fcitx-mozc-tool" transform="translate(70,-65)">
  <rect x="348" y="-67" width="22" height="22" opacity=".001"/>
  <path class="ColorScheme-Text" d="m362-64c-1.1812 0.44881-2 1.43-2 2.6504s0.8188 2.174 2 2.623v2.4278c1.274 0.6333 2.318 1.6588 3 2.9158v-5.3436c1.181-0.449 2-1.4026 2-2.623s-0.819-2.2016-2-2.6504v2c0 1-1 1-1 1h-1s-1 0-1-1zm-3 8c-3.324 0-6 2.676-6 6h-2v2h16v-2h-2c0-3.324-2.676-6-6-6zm0 3c1.662 0 3 1.338 3 3h-6c0-1.662 1.338-3 3-3z" fill="currentColor"/>
 </g>
 <g id="fcitx-mozc" transform="translate(0,-132)">
  <rect x="440" width="22" height="22" opacity=".001"/>
  <path class="ColorScheme-Text" d="m451 3a8 8 0 0 0-8 8 8 8 0 0 0 8 8 8 8 0 0 0 8-8 8 8 0 0 0-8-8zm-1 1.9746 1 0.050781-0.09766 1.9746h5.0977v1h-5.1465l-0.10743 2.1621c0.57357-0.08322 1.1753-0.11362 1.7754-0.10352 0.15244-0.32542 0.65625-1.2402 0.65625-1.2402l0.91602 0.40039s-0.38336 0.70353-0.45703 0.86523c0.0344 0.0052 0.0713-0.0037 0.10547 2e-3 0.76707 0.12748 1.4884 0.37111 2.0762 0.78711 0.58779 0.416 1.0368 1.0272 1.1738 1.793 0.21112 1.18-0.3759 2.3192-1.3184 3.0996-0.94245 0.78033-2.2665 1.3431-3.6738 1.2031l0.0996-0.99414c1.1269 0.11209 2.2024-0.36981 2.9375-0.97852 0.73511-0.6087 1.105-1.4037 0.9707-2.1543-0.089-0.49749-0.34676-0.8559-0.76562-1.1523-0.41885-0.29644-1.004-0.5075-1.6641-0.61719-0.14515-0.02412-0.30983 0.0065-0.46093-0.0078-0.4078 0.83913-0.55284 1.268-1.293 2.4395-0.64996 1.0287-1.3751 2.0175-2.1562 2.6914-0.39058 0.33696-0.79947 0.60098-1.248 0.72656s-0.95443 0.08564-1.3828-0.17383c-0.54884-0.33244-0.89878-0.86049-1.0254-1.4355-0.12662-0.57506-0.0495-1.1915 0.17578-1.7891 0.45047-1.1952 1.5032-2.3427 3.002-2.957 0.1733-0.07104 0.35616-0.1308 0.54297-0.18555l0.1172-2.3809h-2.8496v-1h2.9004zm1.6113 6.0527c-0.0429-7.01e-4 -0.0855 0.0011-0.12891 0.0059-0.26841 0.02939-0.53142 0.07245-0.78515 0.125l-0.1211 2.4238c0.13722-0.20002 0.27288-0.40528 0.4043-0.61328 0.57786-0.91462 0.63373-1.1601 1.0195-1.9258-0.13173 0.0064-0.25987-0.01352-0.38867-0.01563zm-1.9316 0.42188c-0.0371 0.01421-0.0753 0.02822-0.11133 0.04297-1.2419 0.50908-2.1041 1.4776-2.4453 2.3828-0.17059 0.4526-0.20975 0.88211-0.13477 1.2227 0.075 0.34054 0.24474 0.59892 0.56836 0.79492 0.19565 0.11851 0.35442 0.1334 0.59375 0.06641 0.23933-0.067 0.54261-0.24483 0.86328-0.52148 0.16092-0.13883 0.32577-0.30124 0.49219-0.48242z" fill="currentColor"/>
 </g>
 <g id="fcitx-mozc-setup" transform="translate(0,-110)">
  <rect x="440" width="22" height="22" opacity=".001"/>
  <path class="ColorScheme-Text" d="m451 3a8 8 0 0 0-8 8 8 8 0 0 0 8 8 8 8 0 0 0 8-8 8 8 0 0 0-8-8zm-1 1.9746 1 0.050781-0.09766 1.9746h5.0977v1h-5.1465l-0.10743 2.1621c0.57357-0.08322 1.1753-0.11362 1.7754-0.10352 0.15244-0.32542 0.65625-1.2402 0.65625-1.2402l0.91602 0.40039s-0.38336 0.70353-0.45703 0.86523c0.0344 0.0052 0.0713-0.0037 0.10547 2e-3 0.76707 0.12748 1.4884 0.37111 2.0762 0.78711 0.58779 0.416 1.0368 1.0272 1.1738 1.793 0.21112 1.18-0.3759 2.3192-1.3184 3.0996-0.94245 0.78033-2.2665 1.3431-3.6738 1.2031l0.0996-0.99414c1.1269 0.11209 2.2024-0.36981 2.9375-0.97852 0.73511-0.6087 1.105-1.4037 0.9707-2.1543-0.089-0.49749-0.34676-0.8559-0.76562-1.1523-0.41885-0.29644-1.004-0.5075-1.6641-0.61719-0.14515-0.02412-0.30983 0.0065-0.46093-0.0078-0.4078 0.83913-0.55284 1.268-1.293 2.4395-0.64996 1.0287-1.3751 2.0175-2.1562 2.6914-0.39058 0.33696-0.79947 0.60098-1.248 0.72656s-0.95443 0.08564-1.3828-0.17383c-0.54884-0.33244-0.89878-0.86049-1.0254-1.4355-0.12662-0.57506-0.0495-1.1915 0.17578-1.7891 0.45047-1.1952 1.5032-2.3427 3.002-2.957 0.1733-0.07104 0.35616-0.1308 0.54297-0.18555l0.1172-2.3809h-2.8496v-1h2.9004zm1.6113 6.0527c-0.0429-7.01e-4 -0.0855 0.0011-0.12891 0.0059-0.26841 0.02939-0.53142 0.07245-0.78515 0.125l-0.1211 2.4238c0.13722-0.20002 0.27288-0.40528 0.4043-0.61328 0.57786-0.91462 0.63373-1.1601 1.0195-1.9258-0.13173 0.0064-0.25987-0.01352-0.38867-0.01563zm-1.9316 0.42188c-0.0371 0.01421-0.0753 0.02822-0.11133 0.04297-1.2419 0.50908-2.1041 1.4776-2.4453 2.3828-0.17059 0.4526-0.20975 0.88211-0.13477 1.2227 0.075 0.34054 0.24474 0.59892 0.56836 0.79492 0.19565 0.11851 0.35442 0.1334 0.59375 0.06641 0.23933-0.067 0.54261-0.24483 0.86328-0.52148 0.16092-0.13883 0.32577-0.30124 0.49219-0.48242z" fill="currentColor"/>
 </g>
</svg>
