<?xml version="1.0" encoding="UTF-8"?>
<svg width="32" height="32" version="1.1" xmlns="http://www.w3.org/2000/svg">
 <defs id="materia">
  <style id="current-color-scheme" type="text/css">.ColorScheme-Background {color:#181818; } .ColorScheme-ButtonBackground { color:#343434; } .ColorScheme-Highlight { color:#4285f4; } .ColorScheme-Text { color:#dfdfdf; } .ColorScheme-ViewBackground { color:#242424; } .ColorScheme-NegativeText { color:#f44336; } .ColorScheme-PositiveText { color:#4caf50; } .ColorScheme-NeutralText { color:#ff9800; }</style>
 </defs>
 <g id="22-22-go-home" transform="translate(-465 83.003)">
  <path d="m465-105h22v22h-22z" opacity=".001"/>
  <path class="ColorScheme-Text" d="m468-94.003h2v8h5v-4h2v4h5v-8h2l-8-8z" fill="currentColor"/>
 </g>
 <g id="22-22-go-up" transform="translate(-457 83.003)">
  <path d="m489-105v22h22v-22z" opacity=".001"/>
  <path class="ColorScheme-Text" d="m491.5-93.977 2.1164 2.1233 4.3674-4.3794v10.23h2.9934v-10.265l4.4044 4.4146 2.1184-2.1233-8-8.0264z" fill="currentColor"/>
 </g>
 <g id="22-22-go-down" transform="matrix(1 0 0 -1 -425 -105)">
  <path d="m489-105v22h22v-22z" opacity=".001"/>
  <path class="ColorScheme-Text" d="m491.5-93.977 2.1164 2.1233 4.3674-4.3794v10.23h2.9934v-10.265l4.4044 4.4146 2.1184-2.1233-8-8.0264z" fill="currentColor"/>
 </g>
 <g id="22-22-go-previous" transform="translate(-441 83.003)">
  <path d="m537-105h22v22h-22z" opacity=".001"/>
  <path class="ColorScheme-Text" d="m548.03-102.5 2.1233 2.1164-4.3794 4.3674h10.23v2.9934h-10.265l4.4146 4.4044-2.1233 2.1184-8.0264-8z" fill="currentColor"/>
 </g>
 <g id="22-22-go-next" transform="matrix(-1 0 0 1 687 83.003)">
  <path d="m537-105h22v22h-22z" opacity=".001"/>
  <path class="ColorScheme-Text" d="m548.03-102.5 2.1233 2.1164-4.3794 4.3674h10.23v2.9934h-10.265l4.4146 4.4044-2.1233 2.1184-8.0264-8z" fill="currentColor"/>
 </g>
 <g id="go-home" transform="translate(3.409e-7 1.8864e-6)">
  <path d="m-6.818e-7 -4.7729e-6h32v32h-32z" opacity=".001"/>
  <path class="ColorScheme-Text" d="m4 16h3v12h7v-6h4v6h7v-12h3l-12-12z" fill="currentColor"/>
 </g>
 <g id="go-up" transform="translate(32 1.8864e-6)">
  <path d="m1.3182e-6 -4.7729e-6v32h32v-32z" opacity=".001"/>
  <path class="ColorScheme-Text" d="m14.658 6.5176-10.5 9.5 2.6836 2.9648 7.1582-6.4766v15.494h4v-15.494l7.1582 6.4766 2.6836-2.9648-10.5-9.5-1.3418-1.2176z" fill="currentColor"/>
 </g>
 <g id="go-down" transform="matrix(1 0 0 -1 64 32)">
  <path d="m1.3182e-6 -4.7729e-6v32h32v-32z" opacity=".001"/>
  <path class="ColorScheme-Text" d="m14.658 6.5176-10.5 9.5 2.6836 2.9648 7.1582-6.4766v15.494h4v-15.494l7.1582 6.4766 2.6836-2.9648-10.5-9.5-1.3418-1.2176z" fill="currentColor"/>
 </g>
 <g id="go-previous" transform="matrix(0 1 1 0 96 -4.2271e-6)">
  <path d="m1.3182e-6 -4.7729e-6v32h32v-32z" opacity=".001"/>
  <path class="ColorScheme-Text" d="m14.658 6.5176-10.5 9.5 2.6836 2.9648 7.1582-6.4766v15.494h4v-15.494l7.1582 6.4766 2.6836-2.9648-10.5-9.5-1.3418-1.2176z" fill="currentColor"/>
 </g>
 <g id="go-next" transform="rotate(90 80 80)">
  <path d="m1.3182e-6 -4.7729e-6v32h32v-32z" opacity=".001"/>
  <path class="ColorScheme-Text" d="m14.658 6.5176-10.5 9.5 2.6836 2.9648 7.1582-6.4766v15.494h4v-15.494l7.1582 6.4766 2.6836-2.9648-10.5-9.5-1.3418-1.2176z" fill="currentColor"/>
 </g>
</svg>
