<?xml version="1.0" encoding="UTF-8"?>
<svg width="32" height="32" version="1.1" xmlns="http://www.w3.org/2000/svg">
 <defs id="materia">
  <style id="current-color-scheme" type="text/css">.ColorScheme-Background {color:#181818; } .ColorScheme-ButtonBackground { color:#343434; } .ColorScheme-Highlight { color:#4285f4; } .ColorScheme-Text { color:#dfdfdf; } .ColorScheme-ViewBackground { color:#242424; } .ColorScheme-NegativeText { color:#f44336; } .ColorScheme-PositiveText { color:#4caf50; } .ColorScheme-NeutralText { color:#ff9800; }</style>
 </defs>
 <g id="22-22-image-x-generic" transform="translate(27,5)">
  <rect x="5" y="5" width="22" height="22" opacity=".001"/>
  <path class="ColorScheme-Text" d="m9.1429 9c-1.1429 0-1.1429 1.1667-1.1429 1.1667v11.667c0 1.1667 1.1429 1.1667 1.1429 1.1667h13.714s1.1429 0 1.1429-1.1667v-11.667c0-1.1667-1.1429-1.1667-1.1429-1.1667zm4.3571 5 3.7 4 2.8-2 2 2.695v2.305h-12v-3.25z" fill="currentColor"/>
 </g>
 <g id="image-x-generic">
  <rect width="32" height="32" opacity=".001"/>
  <path class="ColorScheme-Text" d="m5.7143 5c-1.7143 0-1.7143 1.75-1.7143 1.75v17.5c0 1.75 1.7143 1.75 1.7143 1.75h20.571s1.7143 0 1.7143-1.75v-17.5c0-1.75-1.7143-1.75-1.7143-1.75zm6.2857 7.5 6 6 4-3 3 4.0425v3.4575h-18v-4.875z" fill="currentColor"/>
 </g>
</svg>
