<?xml version="1.0" encoding="UTF-8"?>
<svg width="32" height="32" version="1.1" xmlns="http://www.w3.org/2000/svg">
 <defs id="materia">
  <style id="current-color-scheme" type="text/css">.ColorScheme-Background {color:#181818; } .ColorScheme-ButtonBackground { color:#343434; } .ColorScheme-Highlight { color:#4285f4; } .ColorScheme-Text { color:#dfdfdf; } .ColorScheme-ViewBackground { color:#242424; } .ColorScheme-NegativeText { color:#f44336; } .ColorScheme-PositiveText { color:#4caf50; } .ColorScheme-NeutralText { color:#ff9800; }</style>
 </defs>
 <g id="22-22-input-mouse-battery" transform="translate(224,-22)">
  <rect width="22" height="22" opacity=".001"/>
  <path class="ColorScheme-Text" d="m10 3c-2.8108 0.25154-5 2.6018-5 5.4844v0.5h5zm1 0v5.9844h5v-0.5c0-2.8825-2.1892-5.2328-5-5.4844zm-6 6.9863v3.5059c0 3.0515 2.453 5.5078 5.5 5.5078 3.047 0 5.5-2.4563 5.5-5.5078v-3.5059h-6zm6 1.0137v3h2l-3 4v-3h-2z" fill="currentColor"/>
 </g>
 <g id="22-22-input-keyboard-battery" transform="translate(160,-22)">
  <rect width="22" height="22" opacity=".001"/>
  <path class="ColorScheme-Text" d="m5 5c-1.108 0-2 0.892-2 2v8c0 1.108 0.892 2 2 2h12c1.108 0 2-0.892 2-2v-8c0-1.108-0.892-2-2-2zm-1 2h2v2h-2zm3 0h2v2h-2zm3 0h2v2h-2zm3 0h2v2h-2zm3 0h2v2h-2v3h2l-3 4v-3h-2l3-4zm-12 3h2v2h-2zm3 0h2v2h-2zm3 0h2v2h-2zm-5 3h7v2h-7z" fill="currentColor"/>
 </g>
 <g id="22-22-input-keyboard-brightness" transform="translate(96 -22)">
  <rect width="22" height="22" opacity=".001"/>
  <path class="ColorScheme-Text" d="m5 5c-1.108 0-2 0.892-2 2v8c0 1.108 0.892 2 2 2h12c1.108 0 2-0.892 2-2v-8c0-1.108-0.892-2-2-2zm-1 2h2v2h-2zm3 0h2v2h-2zm3 0h2v2h-2zm3 0h2v2h-2zm3 0h2v2h-2zm-12 3h2v2h-2zm3 0h2v2h-2zm3 0h2v2h-2zm5.5 0c1.3807 0 2.5 1.1193 2.5 2.5s-1.1193 2.5-2.5 2.5-2.5-1.1193-2.5-2.5 1.1193-2.5 2.5-2.5zm-0.5 1v3c0.82843 0 2 0 2-1.5s-1.1716-1.5-2-1.5zm-10 2h7v2h-7z" fill="currentColor"/>
 </g>
 <g id="22-22-input-keyboard" transform="translate(-12,2)">
  <rect x="12" y="-24" width="22" height="22" opacity=".001"/>
  <path class="ColorScheme-Text" d="m17-19c-1.108 0-2 0.892-2 2v8c0 1.108 0.892 2 2 2h12c1.108 0 2-0.892 2-2v-8c0-1.108-0.892-2-2-2zm-1 2h2v2h-2zm3 0h2v2h-2zm3 0h2v2h-2zm3 0h2v2h-2zm3 0h2v2h-2zm-12 3h2v2h-2zm3 0h2v2h-2zm3 0h2v2h-2zm3 0h2v2h-2zm3 0h2v2h-2zm-11 3h12v2h-12z" fill="currentColor"/>
 </g>
 <g id="22-22-input-caps-on" transform="translate(-16 30)">
  <rect x="48" y="-52" width="22" height="22" opacity=".001"/>
  <path class="ColorScheme-Text" d="m53-47c-1.108 0-2 0.892-2 2v8c0 1.108 0.892 2 2 2h12c1.108 0 2-0.892 2-2v-8c0-1.108-0.892-2-2-2zm-1 2h2v2h-2zm3 0h2v2h-2zm3 0h2v2h-2zm3 0h2v2h-2zm3 0h2v2h-2zm-12 3h2v2h-2zm3 0h2v2h-2zm3 0h2v2h-2zm4 0h3v1h-2v3h2v1h-3zm-9 3h7v2h-7z" fill="currentColor"/>
 </g>
 <g id="22-22-input-touchpad-on" transform="translate(-169 143)">
  <path d="m425-165h22v22h-22v-22z" opacity=".001"/>
  <path class="ColorScheme-Text" d="m428.2-162c-1.2 0-1.1992 1.2305-1.1992 1.2305v13.539s-7.8e-4 1.2305 1.1992 1.2305h15.602s1.1992 3e-4 1.1992-1.2305v-13.539c0-1.2308-1.1992-1.2305-1.1992-1.2305zm12.801 2h2v1h-2zm0 2h2v1h-2zm0 2h2v1h-2zm0 2h2v1h-2zm-12 3h6v3h-6zm8 0h6v3h-6z" fill="currentColor"/>
 </g>
 <g id="22-22-input-touchpad-off" transform="translate(-159 143)">
  <path d="m447-165h22v22h-22v-22z" opacity=".001"/>
  <path class="ColorScheme-Text" d="m450.2-162c-1.2 0-1.1992 1.2305-1.1992 1.2305v13.539s-7.8e-4 1.2305 1.1992 1.2305h15.602s1.1992 3e-4 1.1992-1.2305v-13.539c0-1.2308-1.1992-1.2305-1.1992-1.2305zm12.801 2h2v1h-2zm0 2h2v1h-2zm0 2h2v1h-2zm0 2h2v1h-2zm-12 3h6v3h-6zm8 0h6v3h-6z" fill="currentColor" opacity=".35"/>
 </g>
 <g id="22-22-input-num-on" transform="translate(32 -32)">
  <rect x="32" y="10" width="22" height="22" opacity=".001"/>
  <path class="ColorScheme-Text" d="m37 15c-1.108 0-2 0.892-2 2v8c0 1.108 0.892 2 2 2h12c1.108 0 2-0.892 2-2v-8c0-1.108-0.892-2-2-2zm-1 2h2v2h-2zm3 0h2v2h-2zm3 0h2v2h-2zm3 0h2v2h-2zm3 0h2v2h-2zm-12 3h2v2h-2zm3 0h2v2h-2zm3 0h2v2h-2zm5 0h1v4h1v1h-3v-1h1v-2h-1v-1h1zm-10 3h7v2h-7z" fill="currentColor"/>
 </g>
 <g id="22-22-input-keyboard-virtual-on">
  <rect x="128" y="-22" width="22" height="22" opacity=".001"/>
  <path class="ColorScheme-Text" d="m133-17c-1.108 0-2 0.892-2 2v8c0 1.108 0.892 2 2 2h8.7715c-0.18402-0.22051-0.36641-0.43647-0.5625-0.69336-0.31598-0.37466-0.57904-0.67341-0.79296-0.97461-0.07058-0.099368-0.14436-0.21171-0.2129-0.33203h-7.2031v-2h8v0.037109c0.21075-0.042375 0.38695-0.041868 0.52539-0.025391 0.36179 0.043061 0.63174 0.14328 0.74805 0.17578 0.36644 0.10238 0.50078 0.29332 0.72851 0.46875-1e-3 -0.12447-1e-3 -0.12935-2e-3 -0.27344-4e-3 -0.604-5.5e-4 -0.91982 0-1.3828h-2v-2h2v0.90039c0-0.2-0.0323-0.50517 0.12109-0.93555 0.0767-0.21519 0.22556-0.48026 0.48633-0.67774 0.26083-0.19748 0.60077-0.28711 0.89263-0.28711h-0.5v-2h2v2h-1.5c0.29186 0 0.63182 0.08962 0.89258 0.28711 0.26077 0.19748 0.40963 0.46255 0.48633 0.67774 0.15334 0.43038 0.11914 0.73555 0.11914 0.93555 9.5e-4 0.05051-3.1e-4 0.18794 0 0.25976 0.13451 0.04671 0.27783 0.04005 0.39257 0.12695 0.2608 0.19748 0.40963 0.46254 0.48633 0.67774 0.0265 0.075487 5e-3 0.096152 0.0215 0.16406 0.0338 0.00924 0.0675 0.016449 0.10156 0.023438v-5.1523c0-1.108-0.892-2-2-2zm-1 2h2v2h-2zm3 0h2v2h-2zm3 0h2v2h-2zm3 0h2v2h-2zm-9 3h2v2h-2zm3 0h2v2h-2zm3 0h2v2h-2zm6.5 0c-0.49921 0-0.5 0.50039-0.5 0.90039-6e-3 0.3531-7e-3 1.3893 0 2.4766 0.0106 1.738 0.0208 1.9858 0 2.0605-0.887-0.20159-1.2338-1.0741-1.9961-1.2871-0.32069-0.0896-0.9374-0.30964-0.99805 0.027344-0.0548 0.30466 0.32409 0.72243 0.99805 1.5234 1.0598 1.3884 1.9766 2.2236 2.1582 2.2754 0.11105 0.03173 2.9885 0.03163 3.1035 0 0.0522-0.01437 0.12574-0.061689 0.17969-0.11523 0.0756-0.07504 0.10339-0.12907 0.16211-0.31055 0.16811-0.51957 0.3392-1.1117 0.38672-1.5508 0.0117-0.28746 3e-3 -0.52828 0-0.78906 0-0.51518 4e-3 -0.12067 0-0.31055 0-0.4-8e-4 -0.90039-0.5-0.90039-0.49921 0-0.49805 0.50039-0.49805 0.90039 8.6e-4 -0.40409 3e-3 -0.85512 0-1 0-0.4-8e-4 -0.90039-0.5-0.90039s-0.49804 0.50039-0.49804 0.90039c8.6e-4 -0.40408 3e-3 -0.85512 0-1 0-0.4-7.9e-4 -0.90039-0.5-0.90039-0.4992 0-0.5 0.50039-0.5 0.90039 1e-3 -0.21995 0-0.27462 0-0.68945 0-0.51518 4e-3 -1.1207 0-1.3105 0-0.4 1e-3 -0.90039-0.49805-0.90039z" fill="currentColor"/>
 </g>
 <g id="22-22-input-keyboard-virtual-off" transform="translate(32)">
  <rect x="160" y="-22" width="22" height="22" opacity=".001"/>
  <path class="ColorScheme-Text" d="m165-17c-1.108 0-2 0.892-2 2v8c0 1.108 0.892 2 2 2h7.0078a5 5 0 0 1-0.90234-2h-6.1055v-2h6.1016a5 5 0 0 1 0.31836-1h-1.4199v-2h2v1.0098a5 5 0 0 1 1-1.002v-0.007812h0.01a5 5 0 0 1 2.99-1v-2h2v2h-2a5 5 0 0 1 3 1.0078v-3.0078c0-1.108-0.892-2-2-2zm-1 2h2v2h-2zm3 0h2v2h-2zm3 0h2v2h-2zm3 0h2v2h-2zm-9 3h2v2h-2zm3 0h2v2h-2z" fill="currentColor" opacity=".35"/>
  <path class="ColorScheme-Text" d="m176-12c-2.2091 0-4 1.7909-4 4s1.7909 4 4 4 4-1.7909 4-4-1.7909-4-4-4zm-1.6426 1.6328-4e-3 0.01367 1.6465 1.6465 1.6465-1.6465 0.70704 0.70703-1.6464 1.6465 1.6465 1.6465-0.70704 0.70703-1.6426-1.6602-1.6465 1.6465-0.70703-0.70703 1.6465-1.6465-1.6465-1.6465z" fill="currentColor"/>
 </g>
 <g id="input-caps-on" transform="translate(32)">
  <rect width="32" height="32" opacity=".001"/>
  <path class="ColorScheme-Text" d="m7 7c-1.662 0-3 1.338-3 3v12c0 1.662 1.338 3 3 3h18c1.662 0 3-1.338 3-3v-12c0-1.662-1.338-3-3-3zm0 2h3v3h-3zm5 0h3v3h-3zm5 0h3v3h-3zm5 0h3v3h-3zm-15 5h3v3h-3zm5 0h3v3h-3zm6 0h6v2h-4v4h4v2h-6v-6zm-11 5h8v3h-8z" fill="currentColor"/>
 </g>
 <g id="input-keyboard" transform="translate(1.4e-6)">
  <rect width="32" height="32" opacity=".001"/>
  <path class="ColorScheme-Text" d="m7 7c-1.662 0-3 1.338-3 3v12c0 1.662 1.338 3 3 3h18c1.662 0 3-1.338 3-3v-12c0-1.662-1.338-3-3-3zm0 2h3v3h-3zm5 0h3v3h-3zm5 0h3v3h-3zm5 0h3v3h-3zm-15 5h3v3h-3zm5 0h3v3h-3zm5 0h3v3h-3zm5 0h3v3h-3zm-15 5h18v3h-18z" fill="currentColor"/>
 </g>
 <g id="input-num-on" transform="translate(64)">
  <rect width="32" height="32" opacity=".001"/>
  <path class="ColorScheme-Text" d="m7 7c-1.662 0-3 1.338-3 3v12c0 1.662 1.338 3 3 3h18c1.662 0 3-1.338 3-3v-12c0-1.662-1.338-3-3-3zm0 2h3v3h-3zm5 0h3v3h-3zm5 0h3v3h-3zm5 0h3v3h-3zm-15 5h3v3h-3zm5 0h3v3h-3zm8 0h2v6h2v2h-6v-2h2v-3h-2v-2h2zm-13 5h8v3h-8z" fill="currentColor"/>
 </g>
 <g id="input-keyboard-brightness" transform="translate(96)">
  <rect width="32" height="32" opacity=".001"/>
  <path class="ColorScheme-Text" d="m7 7c-1.662 0-3 1.338-3 3v12c0 1.662 1.338 3 3 3h18c1.662 0 3-1.338 3-3v-12c0-1.662-1.338-3-3-3zm0 2h3v3h-3zm5 0h3v3h-3zm5 0h3v3h-3zm5 0h3v3h-3zm-15 5h3v3h-3zm5 0h3v3h-3zm9 0a4 4 0 0 1 4 4 4 4 0 0 1-4 4 4 4 0 0 1-4-4 4 4 0 0 1 4-4zm0 2v4a2 2 0 0 0 2-2 2 2 0 0 0-2-2zm-14 3h8v3h-8z" fill="currentColor"/>
 </g>
 <g id="input-keyboard-virtual-on" transform="translate(128)">
  <rect width="32" height="32" opacity=".001"/>
  <path class="ColorScheme-Text" d="m7 7c-1.662 0-3 1.338-3 3v12c0 1.662 1.338 3 3 3h12.268c-0.34249-0.35622-0.68757-0.71398-1.0547-1.1348-0.53251-0.55188-0.98064-0.99728-1.3691-1.4766-0.093452-0.11529-0.2015-0.24561-0.30664-0.38867h-9.5371v-3h9.502c0.34217-0.43076 0.79227-0.77206 1.1484-0.88281 0.57347-0.17833 0.94227-0.1343 1.2559-0.10156 0.62718 0.06548 1.0938 0.21788 1.2891 0.26562 0.34488 0.0843 0.57447 0.24381 0.84766 0.37891-0.0081-1.4102-0.01003-2.766 0-3.3105 0-0.52309 0.04311-1.178 0.49219-1.9277 0.44908-0.74972 1.5526-1.4219 2.5645-1.4219h-2.0996v-3h3v3h-0.90039c1.0119 0 2.1918 0.76737 2.5859 1.5547 0.3941 0.7874 0.36719 1.3865 0.36719 1.7949 0.0039 0.1854-2.4e-5 0.62373 0 0.97852 0.38454 0.16499 0.67308 0.36972 0.94727 0.63281v-6.9609c0-1.662-1.338-3-3-3zm0 2h3v3h-3zm5 0h3v3h-3zm5 0h3v3h-3zm-10 5h3v3h-3zm5 0h3v3h-3zm5 0h3v3h-3zm7.0996 0c-0.85586 0-1.0566 0.74963-1.0566 1.3496-0.01026 0.52963-0.012 2.084 0 3.7148 0.01817 2.607 0.03566 2.9797 0 3.0918-1.5207-0.30238-2.0153-1.6122-3.3223-1.9316-0.5498-0.13439-1.607-0.46443-1.7109 0.04102-0.09395 0.45697 0.55548 1.0837 1.7109 2.2852 1.8169 2.0825 3.3878 3.3363 3.6992 3.4141 0.19039 0.04759 5.1232 0.04745 5.3203 0 0.0895-0.02155 0.2161-0.09352 0.30859-0.17383 0.12961-0.11256 0.17667-0.19264 0.27734-0.46484 0.28821-0.77933 0.58259-1.6676 0.66406-2.3262 0.02006-0.43118 0.0051-0.79243 0-1.1836 0-0.77274 0.0069-0.182 0-0.4668 0-0.59998-0.001612-1.3496-0.85742-1.3496-0.056397 0-0.089469 0.011318-0.13281 0.017578v-0.017578c0-0.554-0.446-1-1-1s-1 0.446-1 1c0.0015-0.6061-0.02615-0.43307-0.03125-0.65039 0-0.59998-0.10307-1.3496-0.95898-1.3496-0.85584 0-0.95703 0.74963-0.95703 1.3496 0.0017-0.32991 0-0.41098 0-1.0332 0-0.77274 0.0069-2.682 0-2.9668 0-0.59998-0.097555-1.3496-0.95312-1.3496z" fill="currentColor"/>
 </g>
 <g id="input-keyboard-virtual-off" transform="translate(192)">
  <rect width="32" height="32" opacity=".001"/>
  <path class="ColorScheme-Text" d="m7 7c-1.662 0-3 1.338-3 3v12c0 1.662 1.338 3 3 3h10.08c-0.52384-0.90396-0.87635-1.9168-1.0117-3h-9.0684v-3h9.2617c0.18316-0.71002 0.4595-1.3807 0.81836-2h-0.080078v-3h3v0.08008c1.1779-0.68258 2.5407-1.0801 4-1.0801s2.8221 0.3975 4 1.0801v-4.0801c0-1.662-1.338-3-3-3zm0 2h3v3h-3zm5 0h3v3h-3zm5 0h3v3h-3zm5 0h3v3h-3zm-15 5h3v3h-3zm5 0h3v3h-3z" fill="currentColor" opacity=".35"/>
  <path class="ColorScheme-Text" d="m24 15c-3.3136 0-6 2.6864-6 6s2.6864 6 6 6 6-2.6864 6-6-2.6864-6-6-6zm-2.4648 2.4492-0.0059 0.01953 2.4707 2.4707 2.4688-2.4707 1.0605 1.0605-2.4688 2.4707 2.4707 2.4688-1.0625 1.0605-2.4629-2.4902-2.4707 2.4707-1.0605-1.0605 2.4707-2.4707-2.4707-2.4688z" fill="currentColor"/>
 </g>
 <g id="input-keyboard-battery" transform="translate(160)">
  <rect width="32" height="32" opacity=".001"/>
  <path class="ColorScheme-Text" d="m7 7c-1.662 0-3 1.338-3 3v12c0 1.662 1.338 3 3 3h18c1.662 0 3-1.338 3-3v-12c0-1.662-1.338-3-3-3zm0 2h3v3h-3zm5 0h3v3h-3zm5 0h3v3h-3zm5 0h3v3h-3zm0 4v4h3l-4 6v-4h-3zm-15 1h3v3h-3zm5 0h3v3h-3zm-5 5h8v3h-8z" fill="currentColor"/>
 </g>
 <g id="input-mouse-battery" transform="translate(224)">
  <rect width="32" height="32" opacity=".001"/>
  <path class="ColorScheme-Text" d="m15 4.0391c-3.9555 0.50619-7 3.961-7 8.1875v0.77344h7zm2 0v8.9609h7v-0.77344c0-4.2265-3.0445-7.6813-7-8.1875zm-9 10.961v4.7383c0 4.5772 3.568 8.2617 8 8.2617s8-3.6845 8-8.2617v-4.7383zm9 1v4h3l-4 6v-4h-3z" fill="currentColor"/>
 </g>
 <g id="input-touchpad-on" transform="translate(256 4.7729e-6)">
  <path d="m-1.5909e-6 -4.7729e-6h32v32h-32v-32z" opacity=".001"/>
  <path class="ColorScheme-Text" d="m4.7324 4c-1.7333 0-1.7324 1.7695-1.7324 1.7695v19.461s-9.048e-4 1.7695 1.7324 1.7695h22.535s1.7324-2.99e-4 1.7324-1.7695v-19.461c0-1.7692-1.7324-1.7695-1.7324-1.7695zm18.268 3h3v1h-3zm0 3h3v1h-3zm0 3h3v1h-3zm0 3h3v1h-3zm-17 4h9v4h-9zm11 0h9v4h-9z" fill="currentColor"/>
 </g>
 <g id="input-touchpad-off" transform="translate(288 4.7729e-6)">
  <path d="m-1.5909e-6 -4.7729e-6h32v32h-32v-32z" opacity=".001"/>
  <path class="ColorScheme-Text" d="m4.7324 4c-1.7333 0-1.7324 1.7695-1.7324 1.7695v19.461s-9.048e-4 1.7695 1.7324 1.7695h22.535s1.7324-2.99e-4 1.7324-1.7695v-19.461c0-1.7692-1.7324-1.7695-1.7324-1.7695zm18.268 3h3v1h-3zm0 3h3v1h-3zm0 3h3v1h-3zm0 3h3v1h-3zm-17 4h9v4h-9zm11 0h9v4h-9z" fill="currentColor" opacity=".35"/>
 </g>
</svg>
