<?xml version="1.0" encoding="UTF-8"?>
<svg width="32" height="32" version="1.1" xmlns="http://www.w3.org/2000/svg">
 <defs id="materia">
  <style id="current-color-scheme" type="text/css">.ColorScheme-Background {color:#181818; } .ColorScheme-ButtonBackground { color:#343434; } .ColorScheme-Highlight { color:#4285f4; } .ColorScheme-Text { color:#dfdfdf; } .ColorScheme-ViewBackground { color:#242424; } .ColorScheme-NegativeText { color:#f44336; } .ColorScheme-PositiveText { color:#4caf50; } .ColorScheme-NeutralText { color:#ff9800; }</style>
 </defs>
 <g id="jami">
  <rect width="32" height="32" opacity=".001"/>
  <path class="ColorScheme-Text" d="m5.0312 7.2576-1.9786 3.4753c-1.3191 2.3168 22.597 16.326 23.916 14.009l1.9786-3.4753c1.3191-2.3168-22.597-16.326-23.916-14.009" fill="currentColor" opacity=".6"/>
  <path class="ColorScheme-Text" d="m26.969 7.2576 1.9786 3.4753c1.3191 2.3168-22.597 16.326-23.916 14.009l-1.9786-3.4753c-1.3191-2.3168 22.597-16.326 23.916-14.009" fill="currentColor" opacity=".35"/>
  <path class="ColorScheme-Text" d="m17.971 2.0092-3.9998-0.00918c-2.6665-0.00612-2.6084 27.985 0.05809 27.991l3.9998 0.0092c2.6665 0.0062 2.6084-27.985-0.0581-27.991" fill="currentColor"/>
 </g>
 <g id="22-22-jami">
  <rect x="32" y="10" width="22" height="22" opacity=".001"/>
  <path class="ColorScheme-Text" d="m36.534 16.114-1.01 1.7417c-0.67334 1.1611 13.269 9.1905 13.943 8.0294l1.01-1.7417c0.67335-1.1611-13.269-9.1905-13.943-8.0294" fill="currentColor" opacity=".6"/>
  <path class="ColorScheme-Text" d="m49.466 16.114 1.01 1.7417c0.67334 1.1611-13.269 9.1905-13.943 8.0294l-1.01-1.7417c-0.67335-1.1611 13.269-9.1905 13.943-8.0294" fill="currentColor" opacity=".35"/>
  <path class="ColorScheme-Text" d="m43.985 13.005-1.9999-0.005245c-1.3333-0.003496-1.3042 15.991 0.029046 15.995l1.9999 0.0052c1.3333 0.0035 1.3042-15.991-0.029046-15.995" fill="currentColor"/>
 </g>
</svg>
