<?xml version="1.0" encoding="UTF-8"?>
<svg width="32" height="32" version="1" xmlns="http://www.w3.org/2000/svg">
 <defs id="materia">
  <style id="current-color-scheme" type="text/css">.ColorScheme-Background {color:#181818; } .ColorScheme-ButtonBackground { color:#343434; } .ColorScheme-Highlight { color:#4285f4; } .ColorScheme-Text { color:#dfdfdf; } .ColorScheme-ViewBackground { color:#242424; } .ColorScheme-NegativeText { color:#f44336; } .ColorScheme-PositiveText { color:#4caf50; } .ColorScheme-NeutralText { color:#ff9800; }</style>
 </defs>
 <g id="22-22-juk" transform="translate(27,5)">
  <rect x="5" y="5" width="22" height="22" opacity=".001"/>
  <path class="ColorScheme-Text" d="m14.191 8c-0.0089-9.76e-5 -0.01649 0.0011-0.02539 0.00195-0.1641 0.013032-0.27528 0.17168-0.23047 0.33008 0.91799 3.2448 2.6953 9.4769 2.8066 9.8672a3.5 3 0 0 0-1.2422-0.19922 3.5 3 0 0 0-3.5 3 3.5 3 0 0 0 3.5 3 3.5 3 0 0 0 3.5-3 3.5 3 0 0 0-0.03125-0.38086c-0.0011-0.02355 0.01005-0.04325 2e-3 -0.06836 0 0-1.2452-4.8808-2.168-7.9727 0.65389 0.27437 1.1066 0.4244 1.752 0.71289 0.82956 0.37084 1.479 0.83492 2 2.5586 0.08717 0.28198 0.50139 0.22472 0.50976-0.07031 6.87e-4 -0.03324-0.01205-0.04732-0.01172-0.08008v-2e-3c0.01794-1.8775-0.37648-2.8184-1.1875-3.5273-0.82554-0.72156-1.8933-1.0507-2.9414-1.5645-0.97254-0.47667-1.7742-1.5045-2.5293-2.5019-0.04782-0.063568-0.1236-0.10137-0.20312-0.10352z" fill="currentColor"/>
 </g>
 <g id="juk">
  <rect width="32" height="32" opacity=".001"/>
  <path class="ColorScheme-Text" d="m11.467 2c-0.01565-1.704e-4 -0.031295 5.189e-4 -0.046875 0.0019531-0.28718 0.022812-0.48077 0.30288-0.40234 0.58008 1.6564 5.8549 6.0352 17.805 6.0352 17.805 0.002416 0.007337 0.008941 0.012342 0.011719 0.019531a6.5 5 0 0 0-2.5645-0.40625 6.5 5 0 0 0-6.5 5 6.5 5 0 0 0 6.5 5 6.5 5 0 0 0 6.5-5 6.5 5 0 0 0-0.44141-1.8125 6.5 5 0 0 0-0.001953-0.003906c-0.43643-1.1748-3.0341-8.1881-4.5215-13.172 1.1443 0.48015 2.437 0.74319 3.5664 1.248 1.4517 0.64897 2.5883 1.4601 3.5 4.4766 0.15254 0.49346 0.87792 0.39521 0.89258-0.12109 0.0012-0.05817-0.022055-0.083291-0.021485-0.14062h0.001953c-5.01e-4 -0.0015-0.001453-0.002206-0.001953-0.003906 0.0314-3.2857-0.65689-4.9313-2.0762-6.1719-1.4447-1.2627-3.8143-1.8411-5.6484-2.7402-1.7019-0.83425-3.1062-2.6314-4.4277-4.377-0.083692-0.11125-0.21436-0.17788-0.35352-0.18164z" fill="currentColor"/>
 </g>
</svg>
