<?xml version="1.0" encoding="UTF-8"?>
<svg width="32" height="32" version="1.1" xmlns="http://www.w3.org/2000/svg">
 <defs id="materia">
  <style id="current-color-scheme" type="text/css">.ColorScheme-Background {color:#181818; } .ColorScheme-ButtonBackground { color:#343434; } .ColorScheme-Highlight { color:#4285f4; } .ColorScheme-Text { color:#dfdfdf; } .ColorScheme-ViewBackground { color:#242424; } .ColorScheme-NegativeText { color:#f44336; } .ColorScheme-PositiveText { color:#4caf50; } .ColorScheme-NeutralText { color:#ff9800; }</style>
 </defs>
 <g id="22-22-kaffeine" transform="translate(1e-6 2)">
  <path d="m32 8h22v22h-22v-22z" opacity=".001"/>
  <path class="ColorScheme-Text" d="m35.199 11c-0.0089 0-0.01466 0.0038-0.02344 0.0039l1.9961 1.9961h2.8281l-2-2zm4.8008 2-2 2h-2.8281l2-2h-2.8281l-0.34375-0.34375v13.113s-7.81e-4 1.2305 1.1992 1.2305h15.602s1.1992 3.01e-4 1.1992-1.2305v-12.77h-0.68555l-2 2h-2.8281l2-2h2.8281l-2.002-2h-2.8262l1.9473 1.9473-0.052735 0.052734h-2.7246l-2 2h-2.8281l2-2h2.8281l-2-2h-2.8281l1.9922 1.9922-0.007812 0.007812zm-5.125-1.9609c-0.18058 0.04094-0.324 0.11583-0.4375 0.20898 0.11402-0.09345 0.25654-0.16762 0.4375-0.20898zm-0.4375 0.20898h-2e-3c-0.05685 0.04681-0.10553 0.09812-0.14844 0.15234 0.04308-0.05377 0.09338-0.10562 0.15039-0.15234zm6.3359 4.752a0.80779 0.87105 0 0 1 0.46289 0.13281l2.6914 1.8145 2.6934 1.8145a0.80779 0.87105 0 0 1 0 1.4766l-2.6934 1.8145-2.6914 1.8145a0.80779 0.87105 0 0 1-1.2363-0.73828v-7.2578a0.80779 0.87105 0 0 1 0.77344-0.87109z" fill="currentColor"/>
 </g>
 <g id="kaffeine">
  <path d="m0-8.5455e-7h32v32h-32v-32z" opacity=".001"/>
  <path class="ColorScheme-Text" d="m4.7324 4c-0.012855 0-0.020521 0.00572-0.033203 0.00586l2.8574 2.9688h-4.0605l-0.49609-0.49414v18.75s-9.133e-4 1.7695 1.7324 1.7695h22.535s1.7324-2.99e-4 1.7324-1.7695v-18.256h-0.99023l-2.8887 3.0254h-4.0859l2.8887-3.0254h4.0859l-2.8926-2.9746h-4.082l2.8125 2.8984-0.07617 0.076172h-3.9355l-2.8887 3.0254h-4.084l2.8887-3.0254h4.084l-2.8887-2.9746h-4.084l2.877 2.9629-0.01172 0.011719h-4.0625l-0.011717 0.013672-2.877-2.9883zm2.8379 2.9883 0.011719 0.011719h4.0605l-2.8652 3h-4.084zm5.5352 5.0137c0.23273-0.0103 0.46286 0.05643 0.66016 0.19141l3.8457 2.6211 3.8477 2.6191c0.72224 0.4929 0.72224 1.6399 0 2.1328l-3.8477 2.6211-3.8457 2.6211c-0.76844 0.52372-1.7653-0.078383-1.7656-1.0664v-10.482c-4.05e-4 -0.67459 0.48727-1.2295 1.1055-1.2578z" fill="currentColor"/>
  <path class="ColorScheme-Text" d="m4.2639 4.0562c-0.26084 0.058851-0.468 0.16651-0.63194 0.30042 0.1647-0.13433 0.37056-0.24095 0.63194-0.30042z" fill="currentColor"/>
  <path class="ColorScheme-Text" d="m3.6319 4.3566h-0.00289c-0.082117 0.067289-0.15243 0.14105-0.21441 0.21899 0.062227-0.077294 0.13488-0.15183 0.21723-0.21899z" fill="currentColor"/>
 </g>
</svg>
