<?xml version="1.0" encoding="UTF-8"?>
<svg width="32" height="32" version="1.1" xmlns="http://www.w3.org/2000/svg">
 <defs id="materia">
  <style id="current-color-scheme" type="text/css">.ColorScheme-Background {color:#181818; } .ColorScheme-ButtonBackground { color:#343434; } .ColorScheme-Highlight { color:#4285f4; } .ColorScheme-Text { color:#dfdfdf; } .ColorScheme-ViewBackground { color:#242424; } .ColorScheme-NegativeText { color:#f44336; } .ColorScheme-PositiveText { color:#4caf50; } .ColorScheme-NeutralText { color:#ff9800; }</style>
 </defs>
 <g id="22-22-kalarm">
  <rect x="32" y="10" width="22" height="22" opacity=".001"/>
  <path class="ColorScheme-Text" d="m37 11.988v0.011719c-1.6569 0-3 1.3431-3 3 6.29e-4 0.79972 0.32054 1.5661 0.88867 2.1289 0.88843-1.8521 2.3882-3.3516 4.2402-4.2402-0.56088-0.57244-1.3275-0.89667-2.1289-0.90039zm12 0.011719c-0.79972 6.29e-4 -1.5661 0.32054-2.1289 0.88867 1.852 0.8886 3.3518 2.3881 4.2402 4.2402 0.56099-0.55565 0.8803-1.3101 0.88867-2.0996 0-1.6569-1.3431-3-3-3zm-6 2c-3.8541 0-7 3.1459-7 7s3.1459 7 7 7 7-3.1459 7-7-3.1459-7-7-7zm0 2c2.7733 0 5 2.2267 5 5s-2.2267 5-5 5-5-2.2267-5-5 2.2267-5 5-5zm2.877 2.668c-0.14423-0.0132-0.29615 0.0174-0.44141 0.10156l-2.8047 1.5801c-0.44874 0.25262-0.51524 0.87021-0.13086 1.2129l0.7832 1.3574c0.33435 0.59737 1.2285 0.47118 1.3848-0.19531 0.04491-0.18962 0.01376-0.38921-0.08594-0.55664l-0.52148-0.90234 2.1113-1.1914c0.17769-0.09703 0.30888-0.26203 0.36328-0.45703 0.13397-0.48548-0.22552-0.90962-0.6582-0.94922zm2.8242 7.9355c-0.7072 0.71716-1.5435 1.2943-2.4648 1.7012 0.27484 0.43237 0.75135 0.69455 1.2637 0.69531 0.82843 0 1.5-0.67157 1.5-1.5-4.21e-4 -0.32322-0.10523-0.63766-0.29883-0.89648zm-11.404 0.0039c-0.1921 0.25801-0.29618 0.57092-0.29688 0.89258 0 0.82843 0.67157 1.5 1.5 1.5 0.51049-1.45e-4 0.98587-0.25991 1.2617-0.68945-0.92154-0.40742-1.7578-0.98526-2.4648-1.7031z" fill="currentColor"/>
 </g>
 <g id="kalarm">
  <rect width="32" height="32" opacity=".001"/>
  <path class="ColorScheme-Text" d="m7.3418 2.9629v0.017578c-2.3932 0-4.332 1.9408-4.332 4.334 9.085e-4 1.1551 0.46256 2.2613 1.2832 3.0742 1.2833-2.6753 3.4499-4.8415 6.125-6.125-0.81016-0.82686-1.9186-1.2954-3.0762-1.3008zm17.334 0.017578c-1.1551 9.085e-4 -2.2613 0.46256-3.0742 1.2832 2.6751 1.2835 4.8418 3.4497 6.125 6.125 0.81032-0.80261 1.2711-1.8927 1.2832-3.0332 0-2.3932-1.9408-4.332-4.334-4.332v-0.042969zm-8.6758 3.0195c-5.5059 0-10 4.4941-10 10 0 5.5059 4.4941 10 10 10s10-4.4941 10-10c0-5.5059-4.4941-10-10-10zm0 3c3.8826 0 7 3.1174 7 7 0 3.8826-3.1174 7-7 7s-7-3.1174-7-7c0-3.8826 3.1174-7 7-7zm3.6934 3.9941c-0.18655-0.01708-0.38439 0.023948-0.57226 0.13281l-3.627 2.043c-0.58041 0.32674-0.66709 1.1251-0.16992 1.5684l1.0137 1.7559c0.43246 0.77266 1.5889 0.61012 1.791-0.25195 0.05809-0.24526 0.017629-0.50415-0.11133-0.7207l-0.67383-1.166 2.7305-1.541c0.22983-0.1255 0.40034-0.33957 0.4707-0.5918 0.17328-0.62794-0.29191-1.1773-0.85156-1.2285zm4.9668 11.545c-1.0215 1.0359-2.2297 1.8694-3.5605 2.457 0.39699 0.62453 1.0861 1.0028 1.8262 1.0039 1.1966 0 2.166-0.9694 2.166-2.166-6.08e-4 -0.46687-0.152-0.92106-0.43164-1.2949zm-17.23 0.00586c-0.27748 0.37268-0.42868 0.82444-0.42969 1.2891 0 1.1966 0.9694 2.166 2.166 2.166 0.73738-2.1e-4 1.4238-0.37564 1.8223-0.99609-1.3311-0.58856-2.5373-1.4221-3.5586-2.459z" fill="currentColor"/>
 </g>
</svg>
