<?xml version="1.0" encoding="UTF-8"?>
<svg width="32" height="32" version="1" xmlns="http://www.w3.org/2000/svg">
 <defs id="materia">
  <style id="current-color-scheme" type="text/css">.ColorScheme-Background {color:#181818; } .ColorScheme-ButtonBackground { color:#343434; } .ColorScheme-Highlight { color:#4285f4; } .ColorScheme-Text { color:#dfdfdf; } .ColorScheme-ViewBackground { color:#242424; } .ColorScheme-NegativeText { color:#f44336; } .ColorScheme-PositiveText { color:#4caf50; } .ColorScheme-NeutralText { color:#ff9800; }</style>
 </defs>
 <g id="kate">
  <rect width="32" height="32" opacity=".001"/>
  <path class="ColorScheme-Text" d="m16 2a14 14 0 0 0-14 14 14 14 0 0 0 14 14 14 14 0 0 0 14-14 14 14 0 0 0-14-14zm-1.0137 4.0039c1.1974-0.039223 2.2563 0.19394 3.0762 0.52734 0.19065 0.071467 0.37335 0.15055 0.54102 0.24219-4.5843 0.17244-3.8316 2.5852-3.1504 3.9375 3.4605-1.0102 6.4928-1.7879 8.9551-2.6191-1.6883 2.2065-4.4963 5.1874-7.5684 5.5801-3.072 0.3927-6.0892-0.041173-6.7676 2.2227-0.62475 2.0848 1.8616 4.0297 4.1406 3.5605 1.8786-0.3867 1.9868-2.0979 1.3301-3.7148-0.32992-0.41773-0.64899-0.87336-0.95312-1.375 1.0115-0.0574 0.82374-0.043359 2.5391-0.12891 2.5568 2.1564 3.4042 2.6038 7.8711 5.75-2.8136-0.19915-5.1979-0.72273-7.207-2.1094l0.042969 0.13281c0.63957 1.5885 2.2 5.1929 2.4961 7.9902-1.424-2.0246-2.1565-2.7679-4.3633-4.2285-2.398-1.5871-4.4663-1.8899-5.8496-3.623-0.001622-0.002209-0.004242-0.003652-0.00586-0.00586-0.24528-0.30835-0.47622-0.64735-0.67578-1.0625-0.13223-0.27509-0.2218-0.53948-0.28906-0.79883-0.006602-0.023504-0.0134-0.046883-0.019531-0.070312-0.020914-0.087507-0.03695-0.17413-0.050781-0.25977-0.34842-1.8455 0.81612-3.4337 3.7363-4.4375-0.8137-2.4602-5.0941-1.8616-5.8145-1.916 0.81446-0.40004 1.5514-0.72813 3.2305-1.9316 1.6173-1.1592 3.281-1.6138 4.7559-1.6621z" fill="currentColor"/>
 </g>
 <g id="22-22-kate" transform="translate(27,5)">
  <rect x="5" y="5" width="22" height="22" opacity=".001"/>
  <path class="ColorScheme-Text" d="m15.212 8.0034c-1.1471 0.03865-2.4411 0.60256-3.699 1.5299-1.3059 0.96279-1.8791 1.2253-2.5126 1.5453 0.5603 0.04351 3.8895-0.63562 4.5224 1.3325-2.2713 0.80303-3.7772 2.0735-3.5062 3.5499 0.01076 0.0685 0.02323 0.1378 0.0395 0.20781 0.0048 0.01874 0.01006 0.03745 0.01519 0.05625 0.05232 0.20747 0.12198 0.41898 0.22483 0.63905 0.15522 0.33211 0.33483 0.60331 0.52561 0.84998 0.0013 0.0018 0.0033 0.0029 0.0046 0.0047 1.0759 1.3865 2.8852 1.6287 4.7503 2.8984 1.7164 1.1685 2.2861 1.7631 3.3937 3.3827-0.23031-2.2378-1.0444-5.1213-1.5418-6.3921l-0.03342-0.10625c1.5627 1.1093 3.4171 1.328 5.6055 1.4873-3.4742-2.5169-4.1334-2.6746-6.122-4.3998-1.3341 0.06844-1.1881 0.0572-1.9748 0.10312 0.23655 0.40131 0.48471 0.7658 0.74132 1.1 0.51081 1.2935 0.42662 2.6625-1.0345 2.9718-1.7725 0.37529-4.3066-1.1806-3.8207-2.8484 0.52765-1.811 3.4745-1.4639 5.8639-1.7781 2.3894-0.31415 4.0336-2.3725 5.3467-4.1377-1.9151 0.66501-3.9335 0.96084-6.625 1.769-0.52985-1.0818-0.91559-3.012 2.65-3.1499-0.13041-0.07331-0.2725-0.13657-0.42079-0.19375-0.63769-0.26672-1.4613-0.45324-2.3926-0.42187z" fill="currentColor"/>
 </g>
</svg>
