<?xml version="1.0" encoding="UTF-8"?>
<svg width="32" height="32" version="1.1" xmlns="http://www.w3.org/2000/svg">
 <defs id="materia">
  <style id="current-color-scheme" type="text/css">.ColorScheme-Background {color:#181818; } .ColorScheme-ButtonBackground { color:#343434; } .ColorScheme-Highlight { color:#4285f4; } .ColorScheme-Text { color:#dfdfdf; } .ColorScheme-ViewBackground { color:#242424; } .ColorScheme-NegativeText { color:#f44336; } .ColorScheme-PositiveText { color:#4caf50; } .ColorScheme-NeutralText { color:#ff9800; }</style>
 </defs>
 <g id="22-22-kdeconnect" transform="translate(32 10)">
  <rect width="22" height="22" rx="0" ry="0" opacity=".001"/>
  <path class="ColorScheme-Text" transform="translate(-32,-10)" d="m39 13c-1 0-1 1-1 1v14s0 1 1 1h8c1 0 1-1 1-1v-14s0-1-1-1zm7 3v9h-6v-8.998zm-3.5 10h1c0.277 0 0.5 0.223 0.5 0.5v1c0 0.277-0.223 0.5-0.5 0.5h-1c-0.277 0-0.5-0.223-0.5-0.5v-1c0-0.277 0.223-0.5 0.5-0.5z" fill="currentColor"/>
 </g>
 <g id="kdeconnect">
  <rect width="32" height="32" rx="0" ry="0" opacity=".001"/>
  <path class="ColorScheme-Text" d="m9.5 4c-1.5 0-1.5 1.5-1.5 1.5v21s1e-6 1.5 1.5 1.5h12c1.5 0 1.5-1.5 1.5-1.5v-21s0-1.5-1.5-1.5h-12zm10.5 4v14h-9v-13.996l9-0.0039062zm-5.25 15h0.75 0.75c0.4155 0 0.75 0.3345 0.75 0.75v0.75 0.75c0 0.4155-0.3345 0.75-0.75 0.75h-0.75-0.75c-0.4155 0-0.75-0.3345-0.75-0.75v-0.75-0.75c0-0.4155 0.3345-0.75 0.75-0.75z" fill="currentColor"/>
 </g>
</svg>
