<?xml version="1.0" encoding="UTF-8"?>
<svg width="32" height="32" version="1.1" xmlns="http://www.w3.org/2000/svg">
 <defs id="materia">
  <style id="current-color-scheme" type="text/css">.ColorScheme-Background {color:#181818; } .ColorScheme-ButtonBackground { color:#343434; } .ColorScheme-Highlight { color:#4285f4; } .ColorScheme-Text { color:#dfdfdf; } .ColorScheme-ViewBackground { color:#242424; } .ColorScheme-NegativeText { color:#f44336; } .ColorScheme-PositiveText { color:#4caf50; } .ColorScheme-NeutralText { color:#ff9800; }</style>
 </defs>
 <g id="22-22-kdf" transform="matrix(-1,0,0,1,54,10)">
  <rect width="22" height="22" ry="1.375" opacity=".001"/>
  <path class="ColorScheme-Text" d="m5.166 3c-1.1667 0-1.166 1.1426-1.166 1.1426v13.715s-6.5e-4 1.1426 1.166 1.1426h11.668s1.166 2.79e-4 1.166-1.1426v-13.715s6.5e-4 -1.1426-1.166-1.1426zm5.834 2c2.7614 0 5 2.2386 5 5s-2.2386 5-5 5h-5v-5c0-2.7614 2.2386-5 5-5zm0 3c-1.1046 0-2 0.89543-2 2s0.89543 2 2 2 2-0.89543 2-2-0.89543-2-2-2z" fill="currentColor"/>
 </g>
 <g id="kdf">
  <rect transform="scale(-1,1)" x="-32" width="32" height="32" ry="2" opacity=".001"/>
  <path class="ColorScheme-Text" d="m6.75 4c-1.75 0-1.75 1.7129-1.75 1.7129v20.574c0 1.7143 1.75 1.7129 1.75 1.7129h17.5c1.75 0 1.75-1.7129 1.75-1.7129v-20.574s-1e-6 -1.7129-1.75-1.7129h-17.5zm8.75 3c4.1421 0 7.5 3.3579 7.5 7.5v7.5h-7.5c-4.1421 0-7.5-3.3579-7.5-7.5 0-4.1421 3.3579-7.5 7.5-7.5zm0 4c-1.933 0-3.5 1.567-3.5 3.5 0 1.933 1.567 3.5 3.5 3.5 1.933 0 3.5-1.567 3.5-3.5 0-1.933-1.567-3.5-3.5-3.5z" fill="currentColor"/>
 </g>
</svg>
