<?xml version="1.0" encoding="UTF-8"?>
<svg width="32" height="32" version="1.1" xmlns="http://www.w3.org/2000/svg">
 <defs id="materia">
  <style id="current-color-scheme" type="text/css">.ColorScheme-Background {color:#181818; } .ColorScheme-ButtonBackground { color:#343434; } .ColorScheme-Highlight { color:#4285f4; } .ColorScheme-Text { color:#dfdfdf; } .ColorScheme-ViewBackground { color:#242424; } .ColorScheme-NegativeText { color:#f44336; } .ColorScheme-PositiveText { color:#4caf50; } .ColorScheme-NeutralText { color:#ff9800; }</style>
 </defs>
 <g id="22-22-keyboard-layout" transform="translate(-452,-166)">
  <rect x="484" y="176" width="22" height="22" opacity=".001"/>
  <path class="ColorScheme-Text" d="m495 179c-4.4183 0-8 3.5817-8 8s3.5817 8 8 8c4.4183 0 8-3.5817 8-8s-3.5817-8-8-8zm-0.57143 2.2143c0.0765-8e-3 0.17286 5e-3 0.25 0 9e-3 0.0366-0.0556 0.1667-0.14285 0.35714-0.55527 1.213-0.58677 2.6336-0.0714 3.3929 0.0933 0.13766 0.17857 0.26868 0.17857 0.28571 0 0.017-0.10057 0.0357-0.21429 0.0357-0.26694 0-0.51956-0.1627-1.0357-0.57142-0.22929-0.18157-0.52737-0.33407-0.64286-0.35715-0.18135-0.0362-0.22969-0.0204-0.46429 0.21428-0.21828 0.21824-0.28571 0.33592-0.28571 0.53572 0 0.75764 0.89952 1.3599 2.5714 1.7143 2.2705 0.48122 2.8302 0.91328 2.8929 2.1071 0.0786 1.4971-0.7184 2.626-2.4643 3.5-0.20837 0.10435-0.34114 0.14486-0.42857 0.17858-0.0387-3e-3 -0.0685 3e-3 -0.10708 0-0.0149-0.0463-0.0357-0.15367-0.0357-0.35715 0-0.79517-0.31342-1.6136-0.7857-2.0714-0.12678-0.12288-0.48175-0.38325-0.78573-0.57142-0.30397-0.18816-0.61023-0.40675-0.67857-0.5-0.11326-0.15476-0.12268-0.24983-0.0357-0.53572 0.15858-0.52214 0.34733-0.81295 0.71428-1.1429 0.19237-0.17296 0.38595-0.318 0.42857-0.32142 0.0426-3e-3 -0.24589-0.0901-0.67857-0.17858-0.43267-0.0887-1.0656-0.27442-1.3928-0.39285-0.59838-0.21652-1.4063-0.67104-1.7143-1-0.013-0.0139-0.0243-0.0233-0.0356-0.0357 0.44129-1.7578 1.6797-3.1985 3.3214-3.8929 0.34351-0.14529 0.69763-0.24497 1.0714-0.32143 0.1862-0.038 0.37918-0.0519 0.57143-0.0714zm5.3572 2.6786c0.13423 0.083 0.64104 1.1795 0.78571 1.7143 0.18679 0.69051 0.17327 1.8854 0 2.5714-0.0659 0.26108-0.15046 0.50532-0.17857 0.53572-0.0281 0.0304-0.13007-0.14461-0.25-0.35715-0.11994-0.2125-0.50304-0.66405-0.82143-1-0.91902-0.96975-1.0635-1.4761-0.67857-2.25 0.19414-0.39027 1.039-1.2784 1.1429-1.2143z" fill="currentColor"/>
 </g>
 <g id="keyboard-layout">
  <rect width="32" height="32" opacity=".001"/>
  <path class="ColorScheme-Text" d="m16 4c-6.6274 0-12 5.3726-12 12 0 6.6274 5.3726 12 12 12 6.6274 0 12-5.3726 12-12 0-6.6274-5.3726-12-12-12zm-0.57031 3.123c0.11609-0.01214 0.26184 0.00758 0.37891 0 0.013657 0.055542-0.084392 0.25202-0.2168 0.54102-0.84264 1.8407-0.88951 3.9962-0.10742 5.1484 0.14159 0.2089 0.27148 0.40775 0.27148 0.43359 0 0.0258-0.1536 0.052734-0.32617 0.052734-0.40509 0-0.78704-0.24499-1.5703-0.86523-0.34796-0.27554-0.8013-0.50795-0.97656-0.54297-0.2752-0.054944-0.34906-0.029963-0.70508 0.32617-0.33125 0.33119-0.43359 0.5093-0.43359 0.8125 0 1.1497 1.3652 2.0638 3.9023 2.6016 3.4456 0.73027 4.2956 1.3855 4.3906 3.1973 0.11928 2.2719-1.0908 3.9843-3.7402 5.3105-0.31621 0.15836-0.51771 0.22031-0.65039 0.27148-0.058727-0.0045-0.10357 0.0045-0.16211 0-0.02261-0.070261-0.054687-0.23223-0.054687-0.54102 0-1.2067-0.47471-2.4498-1.1914-3.1445-0.19239-0.18648-0.73206-0.58163-1.1934-0.86719-0.46128-0.28554-0.92559-0.6163-1.0293-0.75781-0.17188-0.23486-0.18668-0.37865-0.054687-0.8125 0.24065-0.79237 0.52712-1.2337 1.084-1.7344 0.29193-0.26247 0.58767-0.48308 0.65234-0.48828 0.064647-0.004552-0.3766-0.13721-1.0332-0.27148-0.65659-0.1346-1.6147-0.41794-2.1113-0.59766-0.90806-0.32858-2.1341-1.0164-2.6016-1.5156-0.019729-0.021091-0.03754-0.035868-0.054688-0.054688 0.66967-2.6675 2.5496-4.8544 5.041-5.9082 0.52129-0.22048 1.0577-0.37225 1.625-0.48828 0.28256-0.057666 0.57544-0.075877 0.86719-0.10547zm8.1289 4.0645c0.2037 0.12595 0.97382 1.788 1.1934 2.5996 0.28346 1.0479 0.26294 2.8613 0 3.9023-0.1 0.3962-0.22882 0.76831-0.27148 0.81445-0.042642 0.046133-0.19691-0.22043-0.37891-0.54297-0.18201-0.32248-0.76292-1.0078-1.2461-1.5176-1.3946-1.4716-1.6135-2.2396-1.0293-3.4141 0.29461-0.59225 1.5748-1.9391 1.7324-1.8418z" fill="currentColor"/>
 </g>
</svg>
