<?xml version="1.0" encoding="UTF-8"?>
<svg width="32" height="32" version="1.1" xmlns="http://www.w3.org/2000/svg">
 <defs id="materia">
  <style id="current-color-scheme" type="text/css">.ColorScheme-Background {color:#181818; } .ColorScheme-ButtonBackground { color:#343434; } .ColorScheme-Highlight { color:#4285f4; } .ColorScheme-Text { color:#dfdfdf; } .ColorScheme-ViewBackground { color:#242424; } .ColorScheme-NegativeText { color:#f44336; } .ColorScheme-PositiveText { color:#4caf50; } .ColorScheme-NeutralText { color:#ff9800; }</style>
 </defs>
 <g id="22-22-kget" transform="translate(32,10)">
  <path d="m0.25 0h21.5c0.1385 0 0.25 0.1115 0.25 0.25v21.5c0 0.1385-0.11151 0.25-0.25 0.25h-21.5c-0.1385 0-0.25-0.1115-0.25-0.25v-21.5c0-0.1385 0.11151-0.25 0.25-0.25z" opacity=".001"/>
  <path class="ColorScheme-Text" d="m11 3a8 8 0 0 0-8 8 8 8 0 0 0 8 8 8 8 0 0 0 8-8 8 8 0 0 0-8-8zm-1 2h2v5h2.5l-3.5 5h4v1h-8v-1h4l-3.5-5h2.5z" fill="currentColor"/>
 </g>
 <g id="kget">
  <path d="m0.36364 0h31.273c0.20145 0 0.36364 0.16218 0.36364 0.36364v31.273c0 0.20145-0.1622 0.36364-0.36364 0.36364h-31.273c-0.20145 0-0.36364-0.16218-0.36364-0.36364v-31.273c0-0.20146 0.1622-0.36364 0.36364-0.36364z" opacity=".001"/>
  <path class="ColorScheme-Text" d="m16 4a12 12 0 0 0-12 12 12 12 0 0 0 12 12 12 12 0 0 0 12-12 12 12 0 0 0-12-12zm-2 3h4v8h3.25l-5.25 7h6v2h-12v-2h6l-5.25-7h3.25v-8z" fill="currentColor"/>
 </g>
</svg>
