<?xml version="1.0" encoding="UTF-8"?>
<svg width="32" height="32" version="1.1" xmlns="http://www.w3.org/2000/svg">
 <defs id="materia">
  <style id="current-color-scheme" type="text/css">.ColorScheme-Background {color:#181818; } .ColorScheme-ButtonBackground { color:#343434; } .ColorScheme-Highlight { color:#4285f4; } .ColorScheme-Text { color:#dfdfdf; } .ColorScheme-ViewBackground { color:#242424; } .ColorScheme-NegativeText { color:#f44336; } .ColorScheme-PositiveText { color:#4caf50; } .ColorScheme-NeutralText { color:#ff9800; }</style>
 </defs>
 <g id="22-22-kgpg" transform="translate(-315,267)">
  <rect x="347" y="-257" width="22" height="22" opacity=".001"/>
  <path class="ColorScheme-Text" transform="translate(347 -257)" d="m11 3c-5.0026-3e-3 -5 4.6426-5 4.6426v2.3574h-0.83398c-0.64633 0-1.166 0.36686-1.166 1v6.8574c0 0.63315 0.51969 1.1426 1.166 1.1426h11.668c0.64633 0 1.166-0.50943 1.166-1.1426v-6.8574c0-0.63314-0.52898-0.89079-1.166-1h-0.83398v-2.3574s3e-3 -4.6392-5-4.6426zm0 3c2.0026-3e-3 2 1.5723 2 1.5723v2.4277h-4v-2.4277s0.00301-1.5689 2-1.5723zm-4 7h8v3h-8z" fill="currentColor"/>
 </g>
 <g id="kgpg">
  <rect width="32" height="32" opacity=".001"/>
  <path class="ColorScheme-Text" d="m15.5 4c-7.5039-0.0045-7.5 6.9648-7.5 6.9648v4.0352h-1.252c-0.96949 0-1.748 0.55029-1.748 1.5v9.7871c0 0.94972 0.77855 1.7129 1.748 1.7129h17.502c0.9695 0 1.75-0.76317 1.75-1.7129v-9.7871c0-0.94971-0.79444-1.3362-1.75-1.5h-1.25v-4.0352s0.0045-6.9598-7.5-6.9648zm0 4c3.5046-0.00525 3.5 2.752 3.5 2.752v4.248h-7v-4.248s0.0053-2.7461 3.5-2.752zm-6.5 11h13v5h-13v-5z" fill="currentColor"/>
 </g>
</svg>
