<?xml version="1.0" encoding="UTF-8"?>
<svg width="32" height="32" version="1.1" xmlns="http://www.w3.org/2000/svg">
 <defs id="materia">
  <style id="current-color-scheme" type="text/css">.ColorScheme-Background {color:#181818; } .ColorScheme-ButtonBackground { color:#343434; } .ColorScheme-Highlight { color:#4285f4; } .ColorScheme-Text { color:#dfdfdf; } .ColorScheme-ViewBackground { color:#242424; } .ColorScheme-NegativeText { color:#f44336; } .ColorScheme-PositiveText { color:#4caf50; } .ColorScheme-NeutralText { color:#ff9800; }</style>
 </defs>
 <g id="22-22-klipper" transform="translate(32 10)">
  <rect width="22" height="22" opacity=".001"/>
  <path class="ColorScheme-Text" d="m5 8c-1.108 0-2 0.892-2 2v7c0 1.108 0.892 2 2 2h6c1.108 0 2-0.892 2-2v-7c0-1.108-0.892-2-2-2zm0 2h6v1h-6zm0 2h6v1h-6zm0 2h6v1h-6zm0 2h4v1h-4z" fill="currentColor"/>
  <path class="ColorScheme-Text" d="m11 3c-1.108 0-2 0.892-2 2v7c0 1.108 0.892 2 2 2h6c1.108 0 2-0.892 2-2v-7c0-1.108-0.892-2-2-2zm0 2h6v1h-6zm0 2h6v1h-6zm0 2h6v1h-6zm0 2h4v1h-4z" fill="currentColor" opacity=".35"/>
 </g>
 <g id="klipper">
  <rect width="32" height="32" opacity=".001"/>
  <path class="ColorScheme-Text" d="m7 11c-1.662 0-3 1.3794-3 3.0918v10.816c0 1.7124 1.338 3.0918 3 3.0918h9c1.662 0 3-1.3794 3-3.0918v-10.816c0-1.7124-1.338-3.0918-3-3.0918h-9zm0 3h9v2h-9v-2zm0 3h9v2h-9v-2zm0 3h9v2h-9v-2zm0 3h6v2h-6v-2z" fill="currentColor"/>
  <path class="ColorScheme-Text" d="m16 4c-1.662 0-3 1.3794-3 3.0918v10.816c0 1.7124 1.338 3.0918 3 3.0918h9c1.662 0 3-1.3794 3-3.0918v-10.816c0-1.7124-1.338-3.0918-3-3.0918zm0 3h9v2h-9zm0 3h9v2h-9zm0 3h9v2h-9zm0 3h6v2h-6z" fill="currentColor" opacity=".35"/>
 </g>
</svg>
