<?xml version="1.0" encoding="UTF-8"?>
<svg width="32" height="32" version="1.1" xmlns="http://www.w3.org/2000/svg">
 <defs id="materia">
  <style id="current-color-scheme" type="text/css">.ColorScheme-Background {color:#181818; } .ColorScheme-ButtonBackground { color:#343434; } .ColorScheme-Highlight { color:#4285f4; } .ColorScheme-Text { color:#dfdfdf; } .ColorScheme-ViewBackground { color:#242424; } .ColorScheme-NegativeText { color:#f44336; } .ColorScheme-PositiveText { color:#4caf50; } .ColorScheme-NeutralText { color:#ff9800; }</style>
 </defs>
 <g id="22-22-kmail" transform="translate(-435 -125)">
  <path class="ColorScheme-Text" d="m472 140c-1.108 0-2 0.892-2 2v8c0 1.108 0.892 2 2 2h12c1.108 0 2-0.892 2-2v-8c0-1.108-0.892-2-2-2zm0 2 6 3 6-3v2l-6 3-6-3z" fill="currentColor"/>
  <path d="m467 135h22v22h-22z" opacity=".001"/>
 </g>
 <g id="kmail">
  <path class="ColorScheme-Text" d="m7 7c-1.662 0-3 1.338-3 3v12c0 1.662 1.338 3 3 3h18c1.662 0 3-1.338 3-3v-12c0-1.662-1.338-3-3-3zm0 3 9 4.5 9-4.5v3l-9 4.5-9-4.5z" fill="currentColor"/>
  <path d="m-5.909e-7 2.5e-6h32v32h-32z" opacity=".001"/>
 </g>
</svg>
