<?xml version="1.0" encoding="UTF-8"?>
<svg width="32" height="32" version="1.1" xmlns="http://www.w3.org/2000/svg">
 <defs id="materia">
  <style id="current-color-scheme" type="text/css">.ColorScheme-Background {color:#181818; } .ColorScheme-ButtonBackground { color:#343434; } .ColorScheme-Highlight { color:#4285f4; } .ColorScheme-Text { color:#dfdfdf; } .ColorScheme-ViewBackground { color:#242424; } .ColorScheme-NegativeText { color:#f44336; } .ColorScheme-PositiveText { color:#4caf50; } .ColorScheme-NeutralText { color:#ff9800; }</style>
 </defs>
 <g id="22-22-knotes">
  <path d="m32 10h22v22h-22v-22z" opacity=".001"/>
  <path class="ColorScheme-Text" d="m36.934 13c-0.93334 0-0.93359 1.2305-0.93359 1.2305v13.539s2.54e-4 1.2305 0.93359 1.2305h7.0664l6-6v-8.7695c0-1.2308-0.93359-1.2305-0.93359-1.2305zm1.0664 3h10v2h-10zm0 4h10v2h-10zm0 4h6v2h-6z" fill="currentColor"/>
 </g>
 <g id="knotes">
  <path d="m0-1e-6h32v32h-32v-32z" opacity=".001"/>
  <path class="ColorScheme-Text" d="m6.4004 4c-1.4 0-1.4004 1.8457-1.4004 1.8457v20.309s3.806e-4 1.8457 1.4004 1.8457h10.6l9-9v-13.154c0-1.8462-1.4004-1.8457-1.4004-1.8457h-18.199zm1.5996 4h15v3h-15v-3zm0 6h15v3h-15v-3zm0 6h9v3h-9v-3z" fill="currentColor"/>
 </g>
</svg>
