<?xml version="1.0" encoding="UTF-8"?>
<svg width="32" height="32" version="1.1" xmlns="http://www.w3.org/2000/svg">
 <defs id="materia">
  <style id="current-color-scheme" type="text/css">.ColorScheme-Background {color:#181818; } .ColorScheme-ButtonBackground { color:#343434; } .ColorScheme-Highlight { color:#4285f4; } .ColorScheme-Text { color:#dfdfdf; } .ColorScheme-ViewBackground { color:#242424; } .ColorScheme-NegativeText { color:#f44336; } .ColorScheme-PositiveText { color:#4caf50; } .ColorScheme-NeutralText { color:#ff9800; }</style>
 </defs>
 <g id="22-22-konv_message" transform="translate(0 -1.9073e-6)">
  <rect x="32" y="10" width="22" height="22" opacity=".001"/>
  <path class="ColorScheme-Text" d="m48.24 14a0.7369 0.65014 0 0 0-0.18555 0.02539l-12.525 3.2504a0.7369 0.65014 0 0 0-0.5293 0.62312v5.2017a0.7369 0.65014 0 0 0 0.5293 0.62312l1.4707 0.3809v4.8951h2v-4.3755l9.0547 2.3499a0.7369 0.65014 0 0 0 0.94531-0.62312v-3.3519h2v-5.0005h-2v-3.35a0.7369 0.65014 0 0 0-0.75977-0.64851z" fill="currentColor"/>
  <circle class="ColorScheme-Highlight" cx="35" cy="14" r="2" fill="currentColor"/>
 </g>
 <g id="konv_message">
  <rect width="32" height="32" opacity=".001"/>
  <path class="ColorScheme-Text" d="m23.86 4.9505c-0.09423 0.00217-0.18777 0.014971-0.27832 0.038085l-18.788 4.8755c-0.47024 0.12182-0.79342 0.50228-0.79395 0.93467v7.4021c5.242e-4 0.43239 0.3237 0.81286 0.79395 0.93467l2.2061 0.57135v7.2931h3v-6.5137l13.582 3.5248c0.70778 0.18412 1.4174-0.28364 1.418-0.93467v-5.0764h3v-6.9956h-3v-5.0813c-0.0013-0.54965-0.51694-0.98977-1.1396-0.97271z" fill="currentColor"/>
  <circle class="ColorScheme-Highlight" cx="5" cy="5" r="3" fill="currentColor"/>
 </g>
</svg>
