<?xml version="1.0" encoding="UTF-8"?>
<svg width="32" height="32" version="1.1" xmlns="http://www.w3.org/2000/svg">
 <defs id="materia">
  <style id="current-color-scheme" type="text/css">.ColorScheme-Background {color:#181818; } .ColorScheme-ButtonBackground { color:#343434; } .ColorScheme-Highlight { color:#4285f4; } .ColorScheme-Text { color:#dfdfdf; } .ColorScheme-ViewBackground { color:#242424; } .ColorScheme-NegativeText { color:#f44336; } .ColorScheme-PositiveText { color:#4caf50; } .ColorScheme-NeutralText { color:#ff9800; }</style>
 </defs>
 <g id="22-22-kopete" transform="translate(0,-22)">
  <rect width="22" height="22" opacity=".001"/>
  <path class="ColorScheme-Text" d="m10.5 3a7.5 6.5 0 0 0-7.5 6.5 7.5 6.5 0 0 0 7.5 6.5 7.5 6.5 0 0 0 3.5-0.75586v3.7559l3.5117-7.1758h-0.01758a7.5 6.5 0 0 0 0.50586-2.3242 7.5 6.5 0 0 0-7.5-6.5zm1.1719 3c1.838-2e-7 3.3281 1.567 3.3281 3.5 0 1.933-1.4902 3.5-3.3281 3.5-0.22578-1.13e-4 -0.45076-0.0242-0.67188-0.07226 1.5514-0.32967 2.9986-1.7631 3-3.4277-1.55e-4 -1.6604-1.4401-3.0924-2.9863-3.4277 0.21686-0.047155 0.43676-0.071234 0.6582-0.072266zm-4.1406 1a0.5 0.5 0 0 1 0.5 0.5 0.5 0.5 0 0 1-0.5 0.5 0.5 0.5 0 0 1-0.5-0.5 0.5 0.5 0 0 1 0.5-0.5zm2.0684 2h1.8008c0.3324 0 0.59961 0.223 0.59961 0.5s-0.26721 0.5-0.59961 0.5h-1.8008c-0.3324 0-0.59961-0.223-0.59961-0.5s0.26721-0.5 0.59961-0.5zm-2.0996 2c0.27614 0 0.5 0.22385 0.5 0.5 0 0.0994-0.25 1-0.25 1s-0.07326-0.5-0.25-0.5c-0.27614 0-0.5-0.22386-0.5-0.5 0-0.27614 0.22385-0.5 0.5-0.5z" fill="currentColor"/>
 </g>
 <g id="22-22-kopete-offline" transform="translate(32,-22)">
  <rect width="22" height="22" opacity=".001"/>
  <path class="ColorScheme-Text" d="m10.5 3a7.5 6.5 0 0 0-7.5 6.5 7.5 6.5 0 0 0 7.5 6.5 7.5 6.5 0 0 0 3.5-0.75586v3.7559l3.5117-7.1758h-0.01758a7.5 6.5 0 0 0 0.50586-2.3242 7.5 6.5 0 0 0-7.5-6.5zm1.1719 3c1.838-2e-7 3.3281 1.567 3.3281 3.5 0 1.933-1.4902 3.5-3.3281 3.5-0.22578-1.13e-4 -0.45076-0.0242-0.67188-0.07226 1.5514-0.32967 2.9986-1.7631 3-3.4277-1.55e-4 -1.6604-1.4401-3.0924-2.9863-3.4277 0.21686-0.047155 0.43676-0.071234 0.6582-0.072266zm-4.1406 1a0.5 0.5 0 0 1 0.5 0.5 0.5 0.5 0 0 1-0.5 0.5 0.5 0.5 0 0 1-0.5-0.5 0.5 0.5 0 0 1 0.5-0.5zm2.0684 2h1.8008c0.3324 0 0.59961 0.223 0.59961 0.5s-0.26721 0.5-0.59961 0.5h-1.8008c-0.3324 0-0.59961-0.223-0.59961-0.5s0.26721-0.5 0.59961-0.5zm-2.0996 2c0.27614 0 0.5 0.22385 0.5 0.5 0 0.0994-0.25 1-0.25 1s-0.07326-0.5-0.25-0.5c-0.27614 0-0.5-0.22386-0.5-0.5 0-0.27614 0.22385-0.5 0.5-0.5z" fill="currentColor" opacity=".35"/>
 </g>
 <g id="kopete">
  <rect width="32" height="32" opacity=".001"/>
  <path class="ColorScheme-Text" d="m15.5 4c-6.3513-5e-7 -11.5 4.4624-11.5 9.9668 8e-7 5.5044 5.1487 9.9668 11.5 9.9668 1.871-0.002209 3.8465-0.40121 5.5-1.1602v5.2266l5.252-10.471h-0.027344c0.50786-1.1368 0.7705-2.3435 0.77539-3.5625 0-5.5044-5.1487-9.9668-11.5-9.9668zm1.6992 4c3.1508-4e-7 5.7051 2.6863 5.7051 6 0 3.3137-2.5543 6-5.7051 6-0.38706-1.95e-4 -0.77134-0.040661-1.1504-0.12305 2.6596-0.56515 5.1401-3.0233 5.1426-5.877-2.65e-4 -2.8464-2.4684-5.3021-5.1191-5.877 0.37175-0.080838 0.74734-0.12128 1.127-0.12305zm-6.1992 2a1 1 0 0 1 1 1 1 1 0 0 1-1 1 1 1 0 0 1-1-1 1 1 0 0 1 1-1zm3 3h3c0.554 0 1 0.446 1 1 0 0.554-0.446 1-1 1h-3c-0.554 0-1-0.446-1-1 0-0.554 0.446-1 1-1zm-3 2.9668c0.55228 0 1 0.4477 1 1 0 0.1988-0.5 2-0.5 2s-0.14652-1-0.5-1c-0.55228 0-1-0.44771-1-1 0-0.55228 0.4477-1 1-1z" fill="currentColor"/>
 </g>
 <g id="kopete-offline" transform="translate(32)">
  <rect width="32" height="32" opacity=".001"/>
  <path class="ColorScheme-Text" d="m15.5 4c-6.3513-5e-7 -11.5 4.4624-11.5 9.9668 8e-7 5.5044 5.1487 9.9668 11.5 9.9668 1.871-0.0022 3.8465-0.40121 5.5-1.1602v5.2266l5.252-10.471h-0.02734c0.50785-1.1368 0.77049-2.3435 0.77539-3.5625 0-5.5044-5.1487-9.9668-11.5-9.9668zm1.6992 4c3.1508-4e-7 5.7051 2.6863 5.7051 6 0 3.3137-2.5543 6-5.7051 6-0.38706-1.95e-4 -0.77134-0.04066-1.1504-0.12305 2.6596-0.56515 5.1401-3.0233 5.1426-5.877-2.65e-4 -2.8464-2.4684-5.3021-5.1191-5.877 0.37175-0.080838 0.74734-0.12128 1.127-0.12305zm-6.1992 2a1 1 0 0 1 1 1 1 1 0 0 1-1 1 1 1 0 0 1-1-1 1 1 0 0 1 1-1zm3 3h3c0.554 0 1 0.446 1 1 0 0.554-0.446 1-1 1h-3c-0.554 0-1-0.446-1-1 0-0.554 0.446-1 1-1zm-3 2.9668c0.55228 0 1 0.4477 1 1 0 0.1988-0.5 2-0.5 2s-0.14652-1-0.5-1c-0.55228 0-1-0.44771-1-1 0-0.55228 0.4477-1 1-1z" fill="currentColor" opacity=".35"/>
 </g>
</svg>
