<?xml version="1.0" encoding="UTF-8"?>
<svg width="32" height="32" version="1.1" xmlns="http://www.w3.org/2000/svg">
 <defs id="materia">
  <style id="current-color-scheme" type="text/css">.ColorScheme-Background {color:#181818; } .ColorScheme-ButtonBackground { color:#343434; } .ColorScheme-Highlight { color:#4285f4; } .ColorScheme-Text { color:#dfdfdf; } .ColorScheme-ViewBackground { color:#242424; } .ColorScheme-NegativeText { color:#f44336; } .ColorScheme-PositiveText { color:#4caf50; } .ColorScheme-NeutralText { color:#ff9800; }</style>
 </defs>
 <g id="22-22-krfb" transform="translate(27 5)">
  <rect x="5" y="5" width="22" height="22" opacity=".001"/>
  <path class="ColorScheme-Text" d="m19.471 10.152-9.3574 5.8477 9.3574 5.8477 1.0586-1.6953-6.6445-4.1523 6.6445-4.1523z" fill="currentColor" opacity=".35"/>
  <path class="ColorScheme-Text" d="m20 8a3 3 0 0 0-3 3 3 3 0 0 0 3 3 3 3 0 0 0 3-3 3 3 0 0 0-3-3zm-8 5a3 3 0 0 0-3 3 3 3 0 0 0 3 3 3 3 0 0 0 3-3 3 3 0 0 0-3-3zm8 5a3 3 0 0 0-3 3 3 3 0 0 0 3 3 3 3 0 0 0 3-3 3 3 0 0 0-3-3z" fill="currentColor"/>
 </g>
 <g id="krfb">
  <rect width="32" height="32" opacity=".001"/>
  <path class="ColorScheme-Text" d="m20.744 7.2051-14.221 8.2949 14.221 8.2949 1.5117-2.5898-9.7793-5.7051 9.7793-5.7051z" fill="currentColor" opacity=".35"/>
  <path class="ColorScheme-Text" d="m21.5 4a4.5 4.5 0 0 0-4.5 4.5 4.5 4.5 0 0 0 4.5 4.5 4.5 4.5 0 0 0 4.5-4.5 4.5 4.5 0 0 0-4.5-4.5z" fill="currentColor"/>
  <path class="ColorScheme-Text" d="m9.5 11a4.5 4.5 0 0 0-4.5 4.5 4.5 4.5 0 0 0 4.5 4.5 4.5 4.5 0 0 0 4.5-4.5 4.5 4.5 0 0 0-4.5-4.5z" fill="currentColor"/>
  <path class="ColorScheme-Text" d="m21.5 18a4.5 4.5 0 0 0-4.5 4.5 4.5 4.5 0 0 0 4.5 4.5 4.5 4.5 0 0 0 4.5-4.5 4.5 4.5 0 0 0-4.5-4.5z" fill="currentColor"/>
 </g>
</svg>
