<?xml version="1.0" encoding="UTF-8"?>
<svg width="32" height="32" version="1.1" xmlns="http://www.w3.org/2000/svg">
 <defs id="materia">
  <style id="current-color-scheme" type="text/css">.ColorScheme-Background {color:#181818; } .ColorScheme-ButtonBackground { color:#343434; } .ColorScheme-Highlight { color:#4285f4; } .ColorScheme-Text { color:#dfdfdf; } .ColorScheme-ViewBackground { color:#242424; } .ColorScheme-NegativeText { color:#f44336; } .ColorScheme-PositiveText { color:#4caf50; } .ColorScheme-NeutralText { color:#ff9800; }</style>
 </defs>
 <g id="22-22-kruler" transform="translate(-294 -524.36)">
  <rect x="326" y="534.36" width="22" height="22" opacity=".001"/>
  <path class="ColorScheme-Text" d="m328 539.33v12.033c0 1 1 1 1 1h17v-2h-16v-9h16v-3h-17s-1-0.0235-1 0.96745zm3 3.0326v3h1v-3zm2 0v3h1v-3zm2 0v6h1v-6zm2 0v3h1v-3zm2 0v3h1v-3zm2 0v6h1v-6zm2 0v3h1v-3z" fill="currentColor"/>
 </g>
 <g id="kruler">
  <rect width="32" height="32" opacity=".001"/>
  <path class="ColorScheme-Text" d="m4.4453 6s-1.4453-0.032826-1.4453 1.3828v2.9023 14.287c0 1.4286 1.4453 1.4277 1.4453 1.4277h1.4434 23.111v-3h-23v-13h23v-4h-24.555zm2.5547 6v4h1v-4h-1zm3 0v4h1v-4h-1zm3 0v8h1v-8h-1zm3 0v4h1v-4h-1zm3 0v4h1v-4h-1zm3 0v8h1v-8h-1zm3 0v4h1v-4h-1z" fill="currentColor"/>
 </g>
</svg>
