<?xml version="1.0" encoding="UTF-8"?>
<svg width="32" height="32" version="1" xmlns="http://www.w3.org/2000/svg">
 <defs id="materia">
  <style id="current-color-scheme" type="text/css">.ColorScheme-Background {color:#181818; } .ColorScheme-ButtonBackground { color:#343434; } .ColorScheme-Highlight { color:#4285f4; } .ColorScheme-Text { color:#dfdfdf; } .ColorScheme-ViewBackground { color:#242424; } .ColorScheme-NegativeText { color:#f44336; } .ColorScheme-PositiveText { color:#4caf50; } .ColorScheme-NeutralText { color:#ff9800; }</style>
 </defs>
 <g id="22-22-krusader_root" transform="translate(32 10)">
  <rect width="22" height="22" opacity=".001"/>
  <path class="ColorScheme-NegativeText" d="m2 7v11.111c0 0.4928 0.40145 0.88867 0.90039 0.88867h8.0996v-4.0491l-1.4141 1.0293c-0.22586 0.18052-0.56808 0.026759-0.56836-0.25586l-0.017578-6.3906c-5.571e-4 -0.18812 0.16014-0.33882 0.35547-0.33398 0.082297 0.00189 0.16124 0.031208 0.22266 0.083984l1.4219 1.1113v-3.1951z" fill="currentColor"/>
  <path class="ColorScheme-NegativeText" d="m11 7v3.1951l3.8828 3.0352c0.22021 0.18896 0.11037 0.5379-0.18164 0.57812l-2.0566 0.28516 0.96484 1.6406c0.21546 0.36667 0.08802 0.83322-0.28516 1.0449l-0.20703 0.11719c-0.37318 0.2117-0.84704 0.08737-1.0625-0.2793l-1.002-1.7051-0.052734 0.039063v4.0491h8.1016c0.4986 0 0.89844-0.39578 0.89844-0.88867v-11.111z" fill="currentColor" opacity=".35"/>
  <path class="ColorScheme-NegativeText" d="m2.9 3c-0.49896 0-0.9 0.39622-0.9 0.88867v2.1113h18v-2.1113c0-0.49244-0.40095-0.88867-0.9-0.88867z" fill="currentColor"/>
 </g>
 <g id="krusader_root">
  <rect width="32" height="32" opacity=".001"/>
  <path class="ColorScheme-NegativeText" d="m16 10v3.793l5.8262 4.5527c0.33035 0.28344 0.16462 0.80685-0.27344 0.86719l-3.0859 0.42773 1.4473 2.4629c0.32322 0.55 0.13208 1.2469-0.42773 1.5645l-0.31055 0.17773c-0.55983 0.31754-1.2705 0.13202-1.5938-0.41797l-1.502-2.5586-0.080078 0.05664v6.0742h11.703c0.7202 0 1.2969-0.57125 1.2969-1.2832v-15.717h-13z" fill="currentColor" opacity=".35"/>
  <path class="ColorScheme-NegativeText" d="m4.3008 4c-0.72072 0-1.3008 0.57-1.3008 1.2793v2.7207h26v-2.7207c0-0.7093-0.57993-1.2793-1.3008-1.2793h-23.398zm-1.3008 6v15.717c0 0.71182 0.58009 1.2832 1.3008 1.2832h11.699v-6.0742l-2.1211 1.5469c-0.33883 0.27077-0.85114 0.037203-0.85156-0.38672l-0.027344-9.584c-8.38e-4 -0.28217 0.24018-0.50921 0.5332-0.50195 0.12346 0.0028 0.2399 0.045841 0.33203 0.125l2.1348 1.668v-3.793h-13z" fill="currentColor"/>
 </g>
</svg>
