<?xml version="1.0" encoding="UTF-8"?>
<svg width="32" height="32" version="1.1" xmlns="http://www.w3.org/2000/svg">
 <defs id="materia">
  <style id="current-color-scheme" type="text/css">.ColorScheme-Background {color:#181818; } .ColorScheme-ButtonBackground { color:#343434; } .ColorScheme-Highlight { color:#4285f4; } .ColorScheme-Text { color:#dfdfdf; } .ColorScheme-ViewBackground { color:#242424; } .ColorScheme-NegativeText { color:#f44336; } .ColorScheme-PositiveText { color:#4caf50; } .ColorScheme-NeutralText { color:#ff9800; }</style>
 </defs>
 <g id="22-22-kteatime" transform="translate(27,5)">
  <rect x="5" y="5" width="22" height="22" opacity=".001"/>
  <path class="ColorScheme-Text" d="m14.61 8c-0.90707-0.0032666-1.8205 0.078093-2.7052 0.24805-2.9699 0.57048-5.0352 1.9546-5.692 3.8145-0.21105 0.59766-0.24889 0.98817-0.18374 1.9023 0.22206 3.1158 1.365 5.8167 3.2721 7.7266 1.2865 1.2884 2.8841 2.0931 4.5172 2.2773 0.13156 0.01483 0.44127 0.02905 0.68804 0.03125 2.6004-0.01575 5.2105-1.9394 6.1168-3.025 0.01497-0.01718 0.39492 0.13687 0.49776 0.23702 0.81741 0.79599 2.0356 1.0736 2.9828 0.67969 1.5018-0.62454 2.1896-3.0235 1.7795-4.6085-0.080493-0.31113-0.28288-0.74781-0.46716-1.0059-0.55842-0.78195-1.284-1.2696-2.2271-1.2773-0.39091-0.0032-0.36329 0.03618-0.27365-0.39453 0.09768-0.46936 0.12996-1.4501 0.07428-1.8008-0.23859-1.5024-1.1544-2.7337-2.8714-3.5996-1.5488-0.78102-3.5127-1.1979-5.5082-1.2051zm-0.1036 1c3.5927 0 6.5051 1.7909 6.5051 4s-2.9124 4-6.5051 4c-3.5927 0-6.5051-1.7909-6.5051-4 2e-7 -2.2091 2.9124-4 6.5051-4zm8.7373 7.6621c0.06431 6.66e-4 0.12926 0.0062 0.19546 0.01758 0.76823 0.13164 0.9654 0.81683 0.85692 1.5918-0.10474 0.74827-0.30741 1.9158-0.80414 2.0851-0.26507 0.09036-0.67472 0.03126-0.94801-0.13672-0.26474-0.16271-0.49576-0.44122-0.59031-0.70898-0.0429-0.12152-0.04206-0.13629 0.06841-0.47656 0.06273-0.19321 0.19266-1.0625 0.28733-1.4444l0.17201-0.69531 0.18178-0.08984c0.19853-0.09792 0.38761-0.14468 0.58053-0.14258z" fill="currentColor"/>
 </g>
 <g id="kteatime">
  <rect width="32" height="32" opacity=".001"/>
  <path class="ColorScheme-Text" d="m13.914 4c-1.3606-0.00495-2.7295 0.11812-4.0566 0.37305-4.4548 0.85571-7.5539 2.931-8.5391 5.7207-0.31657 0.89648-0.37311 1.4823-0.27539 2.8535 0.33309 4.6737 2.0476 8.7251 4.9082 11.59 1.9298 1.9326 4.3258 3.1397 6.7754 3.416 0.19733 0.02224 0.66306 0.04359 1.0332 0.04687 3.9005-0.02363 7.8163-2.9088 9.1758-4.5371 0.02245-0.02577 0.59183 0.20525 0.74609 0.35547 1.2261 1.194 3.0538 1.6104 4.4746 1.0195 2.2526-0.9368 3.283-4.1342 2.668-6.5117-0.58422-2.2686-1.9766-3.3824-3.541-3.4258-0.58636-0.0048-0.54461 0.05426-0.41016-0.5918 0.14652-0.70404 0.19485-2.5756 0.11133-3.1016-0.35788-2.2535-2.2311-4.0996-4.8066-5.3984-2.3231-1.1715-5.2704-1.7978-8.2637-1.8086zm0.08789 2c5.5228 0 10 2.6863 10 6 0 3.3137-4.4772 6-10 6-5.5228 0-10-2.6863-10-6 0-3.3137 4.4771-6 10-6zm12.863 11.193c0.09646 9.98e-4 0.19367 0.0083 0.29297 0.02539 1.1523 0.19746 1.4479 1.2262 1.2852 2.3887-0.15712 1.1224-0.45998 2.873-1.2051 3.127-0.3976 0.13554-1.0119 0.04689-1.4219-0.20508-0.3971-0.24406-0.7449-0.66086-0.88672-1.0625-0.06435-0.18228-0.0622-0.20444 0.10352-0.71484 0.09409-0.28981 0.28963-1.595 0.43164-2.168l0.25781-1.043 0.27148-0.13477c0.2978-0.14688 0.58171-0.21604 0.87109-0.21289z" fill="currentColor"/>
 </g>
</svg>
