<?xml version="1.0" encoding="UTF-8"?>
<svg width="32" height="32" version="1" xmlns="http://www.w3.org/2000/svg">
 <defs id="materia">
  <style id="current-color-scheme" type="text/css">.ColorScheme-Background {color:#181818; } .ColorScheme-ButtonBackground { color:#343434; } .ColorScheme-Highlight { color:#4285f4; } .ColorScheme-Text { color:#dfdfdf; } .ColorScheme-ViewBackground { color:#242424; } .ColorScheme-NegativeText { color:#f44336; } .ColorScheme-PositiveText { color:#4caf50; } .ColorScheme-NeutralText { color:#ff9800; }</style>
 </defs>
 <g id="ktorrent">
  <rect width="32" height="32" opacity=".001"/>
  <path class="ColorScheme-Text" d="m13.75 2c-1.5235 0-2.75 1.2313-2.75 2.7598v6.793c0.16321 0.06223 0.30977 0.1674 0.46875 0.24805 0.15579-0.23937 0.18967-0.55791 0.43359-0.66797v-2e-3c0.10689-0.04845 0.2442-0.09683 0.42188-0.11914 0.0017-3e-4 0.0022-0.0017 0.0039-2e-3a1.0001 1.0001 0 0 1 0.0039 2e-3c-0.021 0.0021-0.0011-0.0046 0.0918-0.0098 0.11966-0.0067 0.18762 0.1087 0.30078 0.13086a1.0001 1.0001 0 0 1 0.41406 0.18164c0.19597 0.10256 0.44805 0.10943 0.58984 0.25781 0.31364 0.32822 0.54716 0.73486 0.77344 1.2637 0.2667 0.62316 0.43402 1.22 0.48438 1.7754 0.0066 0.07313-0.01607 0.15014-0.01367 0.22266 0.18443-0.09539 0.36192-0.20654 0.57617-0.23438 0.6121-0.07953 1.3299 0.29481 1.6797 0.90234 0.0075-0.04806-0.0048 0.0051 0-0.06445 0.02519-0.36406-0.05153-0.85668 0.21875-1.5078 0.13856-0.33378 0.33117-0.71621 0.60352-1.0801 0.27208-0.36351 0.61475-0.82574 1.3789-0.88281h2e-3c0.23064-0.01713 0.46883 0.02848 0.67383 0.11914 0.46637 0.206 0.62766 0.6383 0.7168 0.97852 0.04546-0.30943 0.08982-0.6261 0.20898-0.95703 0.07125-0.19789 0.15808-0.40509 0.3457-0.62695 0.04887-0.05778 0.18292-0.06826 0.25391-0.125a1.0001 1.0001 0 0 1 0.3691-0.26555v-6.3301c0-1.5285-1.2265-2.7598-2.75-2.7598zm3.25 6c1.0931 0 2 0.90694 2 2 0 1.0931-0.90694 2-2 2s-2-0.90694-2-2c0-1.0931 0.90694-2 2-2zm0 1c-0.552 0-1 0.448-1 1s0.448 1 1 1 1-0.448 1-1-0.448-1-1-1zm-12 2c-0.552 0-1 0.448-1 1s0.448 1 1 1 1-0.448 1-1-0.448-1-1-1zm3.752 1c-0.28073 0.013-0.60743 0.29937-0.26953 0.69531 0.47983 0.56363 0.7325 1.5666 0.30469 1.7676-0.43001 0.20097-0.39941-0.74726-0.4375-1.252-0.037361-0.5047-1.2284-0.80918-1.668-0.18359s0.00236 1.2996 0.4375 1.4355c0.43514 0.13675 0.50312 0.65138 0.76172 1.1855 0.25933 0.53416 1.5204 0.40043 1.8281 0 0.30768-0.40043 0.49963-1.1453-0.099609-1.832-0.59924-0.68678-0.41818-1.3252-0.58008-1.6758-0.040291-0.08764-0.12596-0.13156-0.22266-0.14062v2e-3c-0.018085-0.001647-0.035972-0.0028-0.054688-2e-3zm3.7285 0c-0.01043 5.88e-4 -0.02095 0.0026-0.03125 0.0039v-2e-3c-0.04677 0.0057-0.09275 0.021-0.13672 0.04102-0.35318 0.15872-0.47196 0.67326-0.0078 1.7578 0.46486 1.0846 1.1273 1.8364 1.4805 1.6777s0.26104-1.1654-0.20312-2.25c-0.39356-0.91966-0.7783-1.2467-1.1016-1.2285zm9.8926 0c-0.35743 0.0078-0.51091 0.71797-0.60156 1.3867-0.0967 0.71333-0.46056 1.4488-0.14648 1.5918 0.43552 0.19012 0.6584-0.97874 1.1504-1.416 0.49199-0.43804 0.08264-1.4577-0.32812-1.5527v-2e-3c-0.02567-0.005854-0.050389-0.008266-0.074219-0.007766zm3.627 0c-0.552 0-1 0.448-1 1s0.448 1 1 1 1-0.448 1-1-0.448-1-1-1zm-15.289 0.5c-0.3961 0.0201-0.71094 0.34894-0.71094 0.75 0 0.414 0.336 0.75 0.75 0.75s0.75-0.336 0.75-0.75-0.336-0.75-0.75-0.75c-0.01294 0-0.02628-6.48e-4 -0.03906 0zm8.7949 0.46484c-0.45677 0.0336-0.9113 0.80936-1.1348 1.3477-0.25579 0.6146 0.05341 1.8143-0.54883 2.2637-0.60224 0.4501-1.043 0.46115-1.3438 0.28125s0.25778-0.1565-0.07813-0.8418c-0.33661-0.6853-1.1407-0.46964-1.3516 0.06445-0.21082 0.5341 0.22531 0.50922 0.07422 0.82422-0.15038 0.315-1.5304 0.35516-1.8164-0.58984s-1.3029-1.9736-1.6191-1.7188c-0.31623 0.2548 0.03742 1.1937 0.86523 1.9434 0.82781 0.7497-0.21205 1.154-0.93164 0.58984-0.71959-0.5649-1.5658 0.42875-2.2207 1.0938-0.65564 0.6643-1.2404 0.70885-1.707 0.31055-0.46591-0.3976-0.055461-1.4786-0.59375-2.5664-0.53759-1.0878-1.6074-0.54555-1.7578 0.18945s1.3495 1.2286 1.0586 1.6367-1.4539 0.41578-1.7969-0.35352c-0.34222-0.76929-1.0888-0.51992-1.1035 0.10938-0.014757 0.63 0.57862 0.09018 1.041 0.55078 0 0 8.431 11.9 11.945 11.9 3.5143 0 11.947-11.9 11.947-11.9 1.4055-1.4-0.20347-0.79938-0.53516-0.48438-0.33098 0.315-1.3557 0.56971-1.4766 0.22461-0.12017-0.3451 1.1466-0.9226 1.5078-1.3125 0.3612-0.3899 0.71483-1.4983 0.13086-1.9043s-1.4124 0.32749-1.7715 0.86719c-0.3612 0.5397-0.04723 1.914-0.5293 2.334-0.48207 0.42-0.74794 0.16449-0.83789-0.19531-0.09065-0.3598 1.0407-0.86446 0.56641-1.7598-0.47504-0.8953-1.3516-0.48962-1.7578-0.07031-0.40618 0.42 0.24344 1.0665 0.39453 1.7266 0.15038 0.6601-1.39 0.64244-1.9922 0.40234-0.60224-0.2401-0.79889-1.7476-1.0547-1.8379s-0.8082 0.79972-1.6367 0.54492c-0.82781-0.2548-0.14056-0.76338 0.11524-1.3633 0.25579-0.59991 0.66174-2.0447 0.14453-2.2715-0.06465-0.0287-0.13066-0.040056-0.19531-0.035156zm-17.295 1.5352c-0.3961 0.0201-0.71094 0.34894-0.71094 0.75 0 0.414 0.336 0.75 0.75 0.75s0.75-0.336 0.75-0.75-0.336-0.75-0.75-0.75c-0.012938 0-0.026285-6.48e-4 -0.039063 0zm18.436 0.5625c-0.01041 0.03225-0.01671 0.06833-0.02734 0.09961 0.0019-7e-4 2e-3 -0.0013 0.0039-2e-3 0.01915-0.0071 0.06757 0.0049 0.08984-2e-3 -0.014-0.03614-0.05608-0.06124-0.06641-0.0957zm9.0645 0.4375c-0.3961 0.0201-0.71094 0.34894-0.71094 0.75 0 0.414 0.336 0.75 0.75 0.75s0.75-0.336 0.75-0.75-0.336-0.75-0.75-0.75c-0.01294 0-0.02629-6.48e-4 -0.03906 0z" fill="currentColor"/>
 </g>
 <g id="22-22-ktorrent">
  <rect x="32" y="10" width="22" height="22" opacity=".001"/>
  <path class="ColorScheme-Text" d="m41.5 13c-0.831 0-1.5 0.67716-1.5 1.5176v6.4824h6v-6.4824c0-0.84042-0.669-1.5176-1.5-1.5176zm-5.5 9s4 7 7 7c3 1e-6 7-7 7-7z" fill="currentColor"/>
 </g>
</svg>
