<?xml version="1.0" encoding="UTF-8"?>
<svg width="32" height="32" version="1" xmlns="http://www.w3.org/2000/svg">
 <defs id="materia">
  <style id="current-color-scheme" type="text/css">.ColorScheme-Background {color:#181818; } .ColorScheme-ButtonBackground { color:#343434; } .ColorScheme-Highlight { color:#4285f4; } .ColorScheme-Text { color:#dfdfdf; } .ColorScheme-ViewBackground { color:#242424; } .ColorScheme-NegativeText { color:#f44336; } .ColorScheme-PositiveText { color:#4caf50; } .ColorScheme-NeutralText { color:#ff9800; }</style>
 </defs>
 <g id="22-22-kup" transform="translate(32 10)">
  <rect width="22" height="22" opacity=".001"/>
  <path class="ColorScheme-Text" d="m4.0029 3.0004a0.99829 0.99856 0 0 0-0.696 1.7142l2.1036 2.1042a6.9873 6.9892 0 0 0-1.3979 4.1791 6.9873 6.9892 0 0 0 1.3979 4.1791l-2.1036 2.1042a0.99829 0.99856 0 1 0 1.4115 1.4119l2.1036-2.1042a6.9873 6.9892 0 0 0 4.178 1.3982 6.9873 6.9892 0 0 0 4.178-1.3982l2.1036 2.1042a0.99829 0.99856 0 1 0 1.4115-1.4119l-2.1036-2.1042a6.9873 6.9892 0 0 0 1.3979-4.1791 6.9873 6.9892 0 0 0-1.3979-4.1791l2.1036-2.1042a0.99829 0.99856 0 0 0-0.72525-1.7142 0.99829 0.99856 0 0 0-0.68626 0.30227l-2.1036 2.1042a6.9873 6.9892 0 0 0-4.178-1.3982 6.9873 6.9892 0 0 0-4.178 1.3982l-2.1036-2.1042a0.99829 0.99856 0 0 0-0.7155-0.30227zm6.9971 3.0051a4.991 4.9923 0 0 1 2.7489 0.83075l-2.7489 2.7497-2.7489-2.7497a4.991 4.9923 0 0 1 2.7489-0.83075zm-4.1604 2.2426 2.7489 2.7497-2.7489 2.7497a4.991 4.9923 0 0 1-0.83053-2.7497 4.991 4.9923 0 0 1 0.83053-2.7497zm8.3209 0a4.991 4.9923 0 0 1 0.83053 2.7497 4.991 4.9923 0 0 1-0.83053 2.7497l-2.7489-2.7497zm-4.1604 4.1615 2.7489 2.7497a4.991 4.9923 0 0 1-2.7489 0.83075 4.991 4.9923 0 0 1-2.7489-0.83075z" fill="currentColor"/>
 </g>
 <g id="kup">
  <rect width="32" height="32" opacity=".001"/>
  <path class="ColorScheme-Text" d="m5.4844 3.9844a1.5002 1.5002 0 0 0-1.0449 2.5762l2.8008 2.8008a11 11 0 0 0-2.2402 6.6387 11 11 0 0 0 2.2441 6.6348l-2.8047 2.8047a1.5002 1.5002 0 1 0 2.1211 2.1211l2.8008-2.8008a11 11 0 0 0 6.6387 2.2402 11 11 0 0 0 6.6348-2.2441l2.8047 2.8047a1.5002 1.5002 0 1 0 2.1211-2.1211l-2.8008-2.8008a11 11 0 0 0 2.2402-6.6387 11 11 0 0 0-2.2441-6.6348l2.8047-2.8047a1.5002 1.5002 0 0 0-1.0898-2.5742 1.5002 1.5002 0 0 0-1.0312 0.45312l-2.8008 2.8008a11 11 0 0 0-6.6387-2.2402 11 11 0 0 0-6.6348 2.2441l-2.8047-2.8047a1.5002 1.5002 0 0 0-1.0762-0.45508zm10.516 4.0156a8 8 0 0 1 4.4961 1.3828l-4.4961 4.4961-4.4902-4.4902a8 8 0 0 1 4.4902-1.3887zm-6.6172 3.5039 4.4961 4.4961-4.4902 4.4902a8 8 0 0 1-1.3887-4.4902 8 8 0 0 1 1.3828-4.4961zm13.229 0.00586a8 8 0 0 1 1.3887 4.4902 8 8 0 0 1-1.3828 4.4961l-4.4961-4.4961 4.4902-4.4902zm-6.6113 6.6113 4.4902 4.4902a8 8 0 0 1-4.4902 1.3887 8 8 0 0 1-4.4961-1.3828l4.4961-4.4961z" fill="currentColor"/>
 </g>
</svg>
