<?xml version="1.0" encoding="UTF-8"?>
<svg width="32" height="32" version="1.1" xmlns="http://www.w3.org/2000/svg">
 <defs id="materia">
  <style id="current-color-scheme" type="text/css">.ColorScheme-Background {color:#181818; } .ColorScheme-ButtonBackground { color:#343434; } .ColorScheme-Highlight { color:#4285f4; } .ColorScheme-Text { color:#dfdfdf; } .ColorScheme-ViewBackground { color:#242424; } .ColorScheme-NegativeText { color:#f44336; } .ColorScheme-PositiveText { color:#4caf50; } .ColorScheme-NeutralText { color:#ff9800; }</style>
 </defs>
 <g id="22-22-lutris" transform="translate(32,10)">
  <rect width="22" height="22" opacity=".001"/>
  <path class="ColorScheme-Text" d="m10.746 3c-4.1848-0.00375-7.6338 3.4427-7.7438 7.791-0.11188 4.4174 3.2642 8.0935 7.5387 8.209 3.4587 2e-3 6.4587-1.9976 7.1852-5.2578-1.0726 1.7812-3.0821 2.3334-4.8767 2.3281-1.477-0.01224-3.1165-0.3567-4.3767-1.0488-1.6465-0.911-1.5264-2.0505-1.4726-2.8477 0.031089-0.45919 0.25528-1.2364 0.84957-1.9883 0.1925 0.07091 0.37893 0.15505 0.5449 0.27148 0.40959 0.27659 0.77948 0.69065 1.3046 0.50391 0.35903-0.12594 0.37785-0.34072 0.24022-0.69141-0.11622-0.28514-0.30734-0.77606-0.5449-0.96484-0.094526-0.074819-0.23269-0.12142-0.38084-0.16211 0.2513-0.16022 0.52467-0.31142 0.83785-0.44336 0.8739-0.30864 1.8428-0.48428 2.7811-0.47266 0.19178 0.29244 0.36378 0.59354 0.66794 0.71094 0.50806 0.20643 0.71861-0.13071 0.69919-0.54102 0.04719 0.013443 0.09601 0.022113 0.14257 0.037109 1.0047 0.22674 1.7281 0.51804 2.6835 0.85547 0 0-0.0082 0.016614 0.25585 0.082031 0.7733 0.12251 1.2243-0.093624 1.4999-0.38281 0.06638-0.00381 0.12973-0.027928 0.18749-0.099609 0.10444-0.12952 0.30287-0.31848 0.18944-0.59961 0.03613-0.15253 0.04101-0.25977 0.04101-0.25977l-0.05273-0.29883-0.1621-0.4043-0.07617-0.17188-0.01562-0.03125c0.078366-0.064492 0.13812-0.17336 0.14843-0.30859 0.016489-0.21443-0.090796-0.40043-0.24022-0.42578-3.25e-4 -0.23767-0.014502-0.50931-0.05859-0.87891-0.060797-0.5099-0.39541-0.71176-0.50388-0.79102-0.10872-0.079115-0.61616-0.46181-1.1015-0.65234-0.48565-0.19054-0.97542-0.33132-1.58-0.24609-0.06713 0.00949-0.13107 0.019368-0.19726 0.029297-0.01172-0.00372-0.02052-0.00796-0.0332-0.011719-0.23054-0.068484-0.39366-0.44201-0.582-0.4375-0.01441 3.457e-4 -0.03017 0.00236-0.04492 0.00391-0.01452 0.00152-0.02803 0.00307-0.04297 0.00586h-2e-3c-0.01522 0.00284-0.02919 0.00745-0.04492 0.011719-0.01718 0.00466-0.03528 0.010376-0.05078 0.017578-0.11022 0.051252-0.17699 0.24457-0.21874 0.37109-0.9669-0.48892-2.0485-0.77574-3.1951-0.80665-0.066786-0.0018099-0.13278-0.0038462-0.19921-0.0039062zm5.6931 3.0039c0.12699-0.015117 0.26037 0.018183 0.36912 0.10352 0.21775 0.17104 0.25548 0.48416 0.08593 0.70117-0.17004 0.21702-0.48352 0.2544-0.70114 0.083984-0.21762-0.17129-0.25805-0.48403-0.08789-0.70117 0.08484-0.10832 0.20697-0.17238 0.33397-0.1875z" fill="currentColor"/>
  <path class="ColorScheme-Text" d="m12.323 9.2781c-0.53811 0.019536-1.0772 0.13002-1.6054 0.27347 0.05261 0.1211 0.11699 0.2647 0.14843 0.34184a1.0001 1.0002 0 0 1 0.0059 0.01172c0.09985 0.25443 0.23292 0.59032 0.0957 1.0704-0.13693 0.47912-0.59378 0.80727-0.9355 0.92785-0.55109 0.1941-1.158 0.04918-1.5077-0.1426-0.12144-0.06658-0.14835-0.1015-0.23827-0.16408-0.07932 0.22332-0.28052 0.54728-0.2871 0.64266-0.02812 0.41652-0.04214 0.73178 0.04687 0.99426 0.08873 0.26164 0.25378 0.547 0.90816 0.91027l0.0039 2e-3c1.0622 0.58228 2.5739 0.91295 3.9002 0.92394 1.586 0.0039 3.1772-0.4585 4.0115-1.844a1.0001 1.0002 0 0 1 1.0742-0.46299 5.9996 6.0009 0 0 0 0.05664-0.76181 5.9996 6.0009 0 0 0-0.23046-1.6311c-0.26767 0.03008-0.54782 0.03711-0.84371-0.0098a1.0001 1.0002 0 0 1-0.08398-0.01758c-0.15356-0.03804-0.2406-0.0609-0.3574-0.10743-0.0047-0.0019-0.01668-0.0099-0.02148-0.01172-0.72198-0.25556-1.2945-0.43715-1.9159-0.61531-0.0032 0.00318-6.06e-4 0.0066-0.0039 0.00977-0.418 0.40355-1.1327 0.43632-1.6074 0.24807-0.38449-0.15094-0.43795-0.3672-0.61325-0.58793z" fill="currentColor" opacity=".35"/>
 </g>
 <g id="lutris">
  <rect width="32" height="32" opacity=".001"/>
  <path class="ColorScheme-Text" d="m17.277 12.748c-0.45116 0.081539-0.89283 0.18985-1.3457 0.31445 0.10979 0.39438 0.17808 0.85006 0 1.4668-0.26909 0.9319-1.159 1.5614-1.7949 1.7852-0.8989 0.31735-1.8343 0.12167-2.5039-0.16016-0.33831 0.6711-0.54118 1.2742-0.55859 1.5312-0.081264 1.2036-0.19912 1.9411 0.57617 2.7617 1.5468 1.2857 3.7901 1.8902 6.1758 2.207 3.5021 0.15532 6.278-0.65829 7.9004-3.3828a2.0002 2.0002 0 0 1 2.1699-0.92188c0.060766-0.44746 0.10084-0.89736 0.10352-1.3496-0.001823-0.78578-0.095654-1.5664-0.27148-2.3301-0.45021 0.031072-0.91423 0.029824-1.3984-0.046875a2.0002 2.0002 0 0 1-0.16797-0.033203c-0.27289-0.067616-0.42805-0.10758-0.65039-0.19531-0.00965-0.00381-0.035022-0.02169-0.044922-0.02539-1.2328-0.43988-2.0847-0.76409-3.0039-1.1016-0.29524 0.44208-0.69743 0.87016-1.2754 1.0762-0.77024 0.27455-1.5413 0.14468-2.1484-0.099609-0.94248-0.37125-1.4502-1.043-1.7617-1.4961z" fill="currentColor" opacity=".35"/>
  <path class="ColorScheme-Text" d="m15.557 1.5c-7.3241-0.006567-13.36 6.0264-13.553 13.635-0.19582 7.7291 5.7123 14.157 13.193 14.359 5.5122-0.06241 11.705-3.7756 12.248-9.1992-2.0852 3.5018-5.8401 4.5514-9.7949 4.3594-2.5951-0.33692-5.3308-0.97534-7.3828-2.7324-1.4713-1.4758-1.266-3.2378-1.1895-4.3711 0.062891-0.92863 0.53214-2.593 1.9629-4.082 0.048123 0.030506 0.10383 0.049374 0.15039 0.082031 0.71685 0.48394 1.3622 1.2057 2.2812 0.87891 0.62836-0.22036 0.66274-0.59343 0.42188-1.207-0.15617-0.38305-0.39104-0.97484-0.67969-1.3809 0.0289-0.015247 0.054578-0.031823 0.083984-0.046875l0.001953-0.001953c0.11692-0.05982 0.24598-0.11301 0.36914-0.16992 0.10669-0.04913 0.20724-0.10163 0.31836-0.14844 1.3017-0.4596 2.728-0.82896 4.1367-0.95898 0.60393 0.61812 0.88759 1.5799 1.6523 1.875 1.2222 0.49644 1.4673-0.80264 1.0254-1.7637 0.23521 0.049146 0.46996 0.10065 0.69727 0.17383 1.7583 0.39673 3.0232 1.1147 4.6953 1.7051 0 0-0.01469 0.028116 0.44727 0.14258 2.2455 0.35568 2.9784-0.8884 3.2246-1.6992-0.10001 0.14426-0.2327 0.26664-0.32813 0.36523-0.31269 0.32328-0.6793 0.20643-1.1484-0.21484-0.46893-0.42106-0.56226-1.1728-0.021484-1.2051 0.54099-0.031879 0.65625-0.39453 0.65625-0.39453 0.64036 0.38426 0.89053 0.69715 0.95117 0.95898 0.003924-0.041792 0.023438-0.1582 0.023438-0.1582l-0.091797-0.52148-0.2832-0.70703-0.13477-0.30273-0.027343-0.054687c-0.086394 0.07105-0.18356 0.11676-0.28906 0.10547-0.27281-0.028475-0.46956-0.36354-0.43945-0.75 0.02965-0.38522 0.27406-0.67326 0.54688-0.64453 0.00766 8.277e-4 0.013947 0.0065087 0.021484 0.0078126-5.21e-4 -0.41644-0.024195-0.89239-0.10156-1.541-0.10641-0.89218-0.69297-1.6465-0.88281-1.7852-0.19028-0.13843-1.0763-0.80724-1.9258-1.1406-0.84996-0.33339-1.7095-0.57881-2.7676-0.42969-0.11748 0.016613-0.22792 0.033407-0.34375 0.050781-0.02051-0.00651-0.038357-0.012951-0.060547-0.019531-0.40349-0.11983-0.68795-1.0743-1.0176-1.0664-0.02523 6.049e-4 -0.050352 0.0031494-0.076172 0.0058594-0.02542 0.00266-0.051985 0.0068401-0.078125 0.011719h-0.001953c-0.02664 0.00497-0.052548 0.010114-0.080078 0.017578-0.03006 0.00816-0.058828 0.020601-0.085938 0.033203-0.1929 0.089676-0.3117 1.1263-0.38476 1.3477-1.6924-0.85547-3.585-1.358-5.5918-1.4121-0.11689-0.00316-0.2314-0.0057494-0.34766-0.0058594zm9.3203 5.0078c0.25401-0.030231 0.52076 0.036388 0.73828 0.20703 0.43554 0.34204 0.51296 0.97032 0.17383 1.4043-0.34012 0.43398-0.96901 0.50876-1.4043 0.16797-0.43529-0.34253-0.51224-0.97202-0.17188-1.4062 0.16969-0.21661 0.41005-0.34282 0.66406-0.37305z" fill="currentColor"/>
 </g>
</svg>
