<?xml version="1.0" encoding="UTF-8"?>
<svg width="32" height="32" version="1" xmlns="http://www.w3.org/2000/svg">
 <defs id="materia">
  <style id="current-color-scheme" type="text/css">.ColorScheme-Background {color:#181818; } .ColorScheme-ButtonBackground { color:#343434; } .ColorScheme-Highlight { color:#4285f4; } .ColorScheme-Text { color:#dfdfdf; } .ColorScheme-ViewBackground { color:#242424; } .ColorScheme-NegativeText { color:#f44336; } .ColorScheme-PositiveText { color:#4caf50; } .ColorScheme-NeutralText { color:#ff9800; }</style>
 </defs>
 <g id="22-22-manjaro-settings-manager" transform="translate(27 5)">
  <rect x="5" y="5" width="22" height="22" opacity=".001"/>
  <path class="ColorScheme-Text" d="m9.75 9c-0.4155 0-0.75 0.3345-0.75 0.75v12.5c0 0.4155 0.35287 0.62781 0.75 0.75h3.25v-10h5v-4zm9.25 0v14h3.25c0.4155 0 0.75-0.3345 0.75-0.75v-12.5c0-0.4155-0.3345-0.75-0.75-0.75zm-5 5v9h4v-9z" fill="currentColor"/>
 </g>
 <g id="manjaro-settings-manager">
  <rect width="32" height="32" opacity=".001"/>
  <path class="ColorScheme-Text" d="m6.1786 5c-0.65293 0-1.1786 0.52564-1.1786 1.1786v19.643c0 0.65293 0.55452 0.98655 1.1786 1.1786h4.8214v-16h8v-6zm14.821 0v22h4.8214c0.65293 0 1.1786-0.52564 1.1786-1.1786v-19.643c0-0.65293-0.52564-1.1786-1.1786-1.1786zm-8 8v14h6v-14z" fill="currentColor"/>
 </g>
</svg>
