<?xml version="1.0" encoding="UTF-8"?>
<svg width="32" height="32" version="1.1" xmlns="http://www.w3.org/2000/svg">
 <defs id="materia">
  <style id="current-color-scheme" type="text/css">.ColorScheme-Background {color:#181818; } .ColorScheme-ButtonBackground { color:#343434; } .ColorScheme-Highlight { color:#4285f4; } .ColorScheme-Text { color:#dfdfdf; } .ColorScheme-ViewBackground { color:#242424; } .ColorScheme-NegativeText { color:#f44336; } .ColorScheme-PositiveText { color:#4caf50; } .ColorScheme-NeutralText { color:#ff9800; }</style>
 </defs>
 <g id="22-22-mellowplayer" transform="translate(34.01,10)">
  <rect x="-2.01" width="22" height="22" opacity=".001"/>
  <path class="ColorScheme-Text" d="m6.99 3a5 5 0 0 0-5 5 5 5 0 0 0 0.3047 1.6875 3 3 0 0 1 2.6953-1.6875 3 3 0 0 1 0.0059 0v-2.5957c3e-4 0-0.0227-0.2663 0.1855-0.3711 0.2023-0.1017 0.3965 0.0606 0.3965 0.0606l1.9687 1.1699a3 3 0 0 1 2.4434-1.2637 3 3 0 0 1 1.152 0.2324 5 5 0 0 0-4.152-2.2324zm5.24 3.0078a3 3 0 0 1 0.76 1.9922 3 3 0 0 1-0.309 1.3184l2.026 1.2046s0.283 0.14 0.283 0.473c0 0.334-0.287 0.443-0.287 0.443l-2.035 1.209a3 3 0 0 1 0.322 1.352 3 3 0 0 1-0.758 1.988 5 5 0 0 0 4.758-4.988 5 5 0 0 0-4.76-4.9922zm-9.9373 6.2952a5 5 0 0 0-0.3027 1.697 5 5 0 0 0 5 5 5 5 0 0 0 4.158-2.232 3 3 0 0 1-1.158 0.232 3 3 0 0 1-2.4648-1.295l-2.0606 1.225s-0.1399 0.122-0.3184 0.043c-0.2037-0.091-0.1503-0.323-0.1503-0.323v-2.65a3 3 0 0 1-0.0059 0 3 3 0 0 1-2.6973-1.697z" fill="currentColor"/>
  <path class="ColorScheme-Text" d="m9.99 5a3 3 0 0 0-2.4434 1.2656l2.6724 1.5879 2.464 1.4668a3 3 0 0 0 0.307-1.3203 3 3 0 0 0-3-3zm-5 3a3 3 0 0 0-3 3 3 3 0 0 0 3 3 3 3 0 0 0 0.0059 0v-6a3 3 0 0 0-0.0059 0zm7.676 4.65-2.457 1.459-2.6858 1.596a3 3 0 0 0 2.4668 1.295 3 3 0 0 0 3-3 3 3 0 0 0-0.324-1.35z" fill="currentColor" opacity=".35"/>
 </g>
 <g id="mellowplayer" transform="translate(2.01)">
  <rect x="-2.01" width="32" height="32" opacity=".001"/>
  <path class="ColorScheme-Text" d="m14.99 7a5 5 0 0 0-3.697 1.6445l8.384 5.0725a5 5 0 0 0 0.313-1.717 5 5 0 0 0-5-5zm-7 4a5 5 0 0 0-5 5 5 5 0 0 0 5 5zm11.688 7.283-8.383 5.071a5 5 0 0 0 3.695 1.646 5 5 0 0 0 5-5 5 5 0 0 0-0.312-1.717z" fill="currentColor" opacity=".35"/>
  <path class="ColorScheme-Text" d="m10.49 4a7.5 7.5 0 0 0-7.5 7.5 7.5 7.5 0 0 0 0.4336 2.479 5 5 0 0 1 4.5664-2.979v-3.5176a0.4604 0.48243 0 0 1 0.4707-0.4824 0.4604 0.48243 0 0 1 0.2207 0.0645l2.6116 1.58a5 5 0 0 1 3.697-1.6445 5 5 0 0 1 1.703 0.3027 7.5 7.5 0 0 0-6.203-3.3027zm8.066 4.502a5 5 0 0 1 1.434 3.498 5 5 0 0 1-0.313 1.717l3.083 1.865a0.4604 0.48243 0 0 1 0 0.836l-3.083 1.865a5 5 0 0 1 0.313 1.717 5 5 0 0 1-1.428 3.496 7.5 7.5 0 0 0 7.428-7.496 7.5 7.5 0 0 0-7.434-7.498zm-15.136 9.518a7.5 7.5 0 0 0-0.4297 2.48 7.5 7.5 0 0 0 7.5 7.5 7.5 7.5 0 0 0 6.211-3.309 5 5 0 0 1-1.711 0.309 5 5 0 0 1-3.695-1.646l-2.6136 1.582a0.4604 0.48243 0 0 1-0.6914-0.418v-3.518a5 5 0 0 1-4.5703-2.98z" fill="currentColor"/>
 </g>
</svg>
