<?xml version="1.0" encoding="UTF-8"?>
<svg width="32" height="32" version="1.1" xmlns="http://www.w3.org/2000/svg">
 <defs id="materia">
  <style id="current-color-scheme" type="text/css">.ColorScheme-Background {color:#181818; } .ColorScheme-ButtonBackground { color:#343434; } .ColorScheme-Highlight { color:#4285f4; } .ColorScheme-Text { color:#dfdfdf; } .ColorScheme-ViewBackground { color:#242424; } .ColorScheme-NegativeText { color:#f44336; } .ColorScheme-PositiveText { color:#4caf50; } .ColorScheme-NeutralText { color:#ff9800; }</style>
 </defs>
 <g id="nepomuk">
  <rect width="32" height="32" opacity=".001"/>
  <path class="ColorScheme-Text" d="m13.5 4a10.5 10.5 0 0 0-10.5 10.5 10.5 10.5 0 0 0 10.5 10.5 10.5 10.5 0 0 0 6.4453-2.2266l4.6406 4.6406a2.0002 2.0002 0 1 0 2.8281-2.8281l-4.8359-4.8359a10.5 10.5 0 0 0 1.4219-5.25 10.5 10.5 0 0 0-10.5-10.5zm0 4a6.5 6.5 0 0 1 6.5 6.5 6.5 6.5 0 0 1-1.4551 4.0898 2.0002 2.0002 0 0 0-0.16406 0.19336 6.5 6.5 0 0 1-4.8809 2.2168 6.5 6.5 0 0 1-6.5-6.5 6.5 6.5 0 0 1 6.5-6.5z" fill="currentColor"/>
 </g>
 <g id="22-22-nepomuk" transform="translate(32 10)">
  <rect width="22" height="22" opacity=".001"/>
  <path class="ColorScheme-Text" d="m10 3.0007a7 7 0 0 0-7 7 7 7 0 0 0 7 7 7 7 0 0 0 4.0898-1.3281l2.8867 2.8867c0.58761 0.5876 1.5335 0.5876 2.1211 0 0.5876-0.58761 0.5876-1.5335 0-2.1211l-3.0059-3.0059a7 7 0 0 0 0.9082-3.4316 7 7 0 0 0-7-7zm0 3a4 4 0 0 1 4 4 4 4 0 0 1-4 4 4 4 0 0 1-4-4 4 4 0 0 1 4-4z" fill="currentColor"/>
 </g>
</svg>
