<?xml version="1.0" encoding="UTF-8"?>
<svg width="32" height="32" version="1.1" xmlns="http://www.w3.org/2000/svg">
 <defs id="materia">
  <style id="current-color-scheme" type="text/css">.ColorScheme-Background {color:#181818; } .ColorScheme-ButtonBackground { color:#343434; } .ColorScheme-Highlight { color:#4285f4; } .ColorScheme-Text { color:#dfdfdf; } .ColorScheme-ViewBackground { color:#242424; } .ColorScheme-NegativeText { color:#f44336; } .ColorScheme-PositiveText { color:#4caf50; } .ColorScheme-NeutralText { color:#ff9800; }</style>
 </defs>
 <g id="22-22-nulloy" transform="translate(27 5)">
  <rect x="5" y="5" width="22" height="22" opacity=".001"/>
  <path class="ColorScheme-Text" d="m7.8008 8 0.015625 0.10938c0.38758 2.5687 0.61014 4.6885 0.89844 5.9766 0.2883 1.2881 0.6469 2.0554 1.3203 2.4805 0.67341 0.42504 1.6325 0.49767 3.1074 0.45117 1.4749-0.04647 3.4702-0.41522 6.2246-0.5l0.08984-2e-3 -0.01172-0.08594c-0.25947-1.9741-0.34588-3.443-0.52148-4.4277-0.1756-0.98474-0.45046-1.5993-1.0801-2.0156-0.62962-0.41637-1.5938-0.63541-3.1602-0.89062-1.5663-0.25522-3.7371-0.54334-6.7754-1.0762zm13.199 0c-1.1011 0-2 0.89314-2 2 0 1.107 0.89892 2 2 2s2-0.89302 2-2c0-1.1069-0.89891-2-2-2zm3.2305 3.5293-0.16211 0.0957c-1.2975 0.77582-2.2563 0.91491-2.998 1.3223-0.37089 0.20368-0.68509 0.47805-0.94141 0.92578-0.25632 0.44774-0.45745 1.0659-0.61914 1.9668l-0.02344 0.13867 0.12891-0.04883c2.0141-0.75382 2.9091-0.82027 3.4512-1.2129 0.27105-0.19631 0.43808-0.4738 0.5918-0.93359 0.15372-0.45979 0.29772-1.1074 0.52734-2.0703zm-0.16602 3.3711-0.21484 0.07031c-2.1522 0.71815-3.0343 0.92472-3.4863 1.2539-0.226 0.16459-0.33362 0.36525-0.41602 0.64844-0.0824 0.28319-0.14648 0.65599-0.29492 1.1992l-0.03516 0.12695 0.12891-0.0293c1.3034-0.28764 1.9037-0.35643 2.4121-0.71484 0.50839-0.35841 0.89371-0.98389 1.7832-2.3652zm-4.5469 2.0391-0.10938 0.0078c-3.2734 0.17059-4.978 0.19233-6.1133 0.91797-0.56764 0.3628-0.97857 0.94971-1.3535 1.8945s-0.71944 1.9209-1.1582 3.7461l-0.03125 0.13281 0.13086-0.03906c1.9537-0.57397 3.3396-0.82212 4.3516-0.98438 1.012-0.16225 1.6533-0.23478 2.1289-0.47656 0.47558-0.24178 0.76286-0.65391 1.0488-1.4434 0.28597-0.78945 0.57892-1.8351 1.0762-3.6484zm3.9297 0.07617c-0.96132 1.0086-1.782 1.1909-2.418 1.4141-0.31801 0.11156-0.59452 0.23546-0.80274 0.48242-0.20821 0.24696-0.34213 0.60853-0.39453 1.1816l-0.0078 0.09961 0.09766-0.01172c1.1691-0.1513 1.8253-0.26819 2.3223-0.68555s0.81356-1.1135 1.334-2.3965zm-11.787 1.8867-0.14258 0.03711c-1.4844 0.37192-2.1691 0.8277-2.5937 1.582s-0.59547 1.7844-1.1055 3.3301l-0.048828 0.14844 0.15039-0.050781c0.67387-0.22283 1.1518-0.3838 1.5176-0.56641 0.36578-0.18258 0.62019-0.38967 0.82617-0.69726 0.41197-0.61519 0.64305-1.6076 1.3477-3.6465zm11.473 0.90234-0.14453 0.05469c-1.1914 0.45363-1.8455 0.65619-2.2031 0.9668-0.17881 0.1553-0.2777 0.34252-0.3125 0.58203s-0.012 0.25718 0.03516 0.64648l0.0098 0.08984 0.08789-0.02148c0.40663-0.10282 0.7022-0.1021 0.93945-0.0918 0.23726 0.0103 0.42372 0.03653 0.59766-0.04492 0.17393-0.08146 0.30678-0.26293 0.44727-0.61328 0.14049-0.35036 0.29245-0.60673 0.50391-1.4199z" fill="currentColor"/>
 </g>
 <g id="nulloy">
  <rect width="32" height="32" opacity=".001"/>
  <path class="ColorScheme-Text" d="m3.3009 4 0.023437 0.16406c0.58137 3.8531 0.91521 7.0327 1.3477 8.9648 0.43245 1.9321 0.97035 3.0831 1.9805 3.7207 1.0101 0.63756 2.4488 0.7465 4.6611 0.67676 2.2124-0.0697 5.2053-0.62283 9.3369-0.75l0.13476-3e-3 -0.01758-0.12891c-0.3892-2.9611-0.51881-5.1644-0.78222-6.6415-0.26341-1.4771-0.67568-2.3989-1.6201-3.0234-0.94443-0.62455-2.3907-0.95311-4.7402-1.3359s-5.6056-0.81501-10.163-1.6143zm19.799 0c-1.6516 0-3 1.3397-3 3 0 1.6605 1.3484 3 3 3 1.6516 0 3-1.3395 3-3 0-1.6603-1.3484-3-3-3zm4.8457 5.2939-0.24317 0.14355c-1.9462 1.1637-3.3844 1.3724-4.4971 1.9834-0.55634 0.30552-1.0276 0.71707-1.4121 1.3887-0.38448 0.67161-0.68617 1.5989-0.92871 2.9502l-0.03516 0.20801 0.19336-0.07324c3.0211-1.1307 4.3636-1.2304 5.1768-1.8193 0.40657-0.29447 0.65712-0.71071 0.8877-1.4004 0.23058-0.68968 0.44657-1.6611 0.79102-3.1055zm-0.24902 5.0566-0.32227 0.10546c-3.2283 1.0772-4.5515 1.3871-5.2295 1.8809-0.339 0.24688-0.50042 0.54788-0.62402 0.97266-0.1236 0.42478-0.21972 0.98398-0.44238 1.7988l-0.05274 0.19043 0.19336-0.04395c1.9551-0.43146 2.8556-0.53465 3.6182-1.0723 0.76258-0.53762 1.3406-1.4758 2.6748-3.5479zm-6.8203 3.0586-0.16406 0.0117c-4.9102 0.25589-7.467 0.2885-9.1699 1.377-0.85145 0.5442-1.4679 1.4246-2.0303 2.8418-0.56242 1.4172-1.0792 2.8813-1.7373 5.6191l-0.046875 0.19922 0.19629-0.05859c2.9305-0.86095 5.0094-1.2332 6.5273-1.4766 1.518-0.24338 2.48-0.35217 3.1934-0.71484 0.71337-0.36267 1.1443-0.98087 1.5732-2.165 0.42895-1.1842 0.86838-2.7526 1.6143-5.4727zm5.8945 0.11426c-1.442 1.5129-2.6729 1.7864-3.627 2.1211-0.47702 0.16735-0.89178 0.35319-1.2041 0.72363-0.31232 0.37044-0.5132 0.91279-0.5918 1.7725l-0.01169 0.14942 0.14649-0.01758c1.7537-0.22696 2.738-0.40229 3.4834-1.0283 0.74543-0.62603 1.2203-1.6703 2.001-3.5947zm-17.681 2.8301-0.21387 0.055667c-2.2266 0.55787-3.2536 1.2415-3.8906 2.373-0.63705 1.1315-0.8932 2.6766-1.6582 4.9951l-0.073243 0.22266 0.22559-0.07617c1.0108-0.33425 1.7277-0.5757 2.2764-0.84961 0.54868-0.27386 0.93028-0.5845 1.2393-1.0459 0.61796-0.92278 0.96457-2.4115 2.0215-5.4697zm17.209 1.3535-0.2168 0.08204c-1.7871 0.68044-2.7682 0.98429-3.3047 1.4502-0.26822 0.23296-0.41655 0.51377-0.46875 0.87305s-0.018 0.38577 0.05274 0.96973l0.01469 0.13476 0.13184-0.03222c0.60995-0.15422 1.0533-0.15315 1.4092-0.1377 0.35588 0.01545 0.63558 0.0548 0.89648-0.06738 0.2609-0.12219 0.46017-0.3944 0.6709-0.91992 0.21073-0.52553 0.43868-0.91009 0.75586-2.1299z" fill="currentColor"/>
 </g>
</svg>
