<?xml version="1.0" encoding="UTF-8"?>
<svg width="32" height="32" version="1.1" xmlns="http://www.w3.org/2000/svg">
 <defs id="materia">
  <style id="current-color-scheme" type="text/css">.ColorScheme-Background {color:#181818; } .ColorScheme-ButtonBackground { color:#343434; } .ColorScheme-Highlight { color:#4285f4; } .ColorScheme-Text { color:#dfdfdf; } .ColorScheme-ViewBackground { color:#242424; } .ColorScheme-NegativeText { color:#f44336; } .ColorScheme-PositiveText { color:#4caf50; } .ColorScheme-NeutralText { color:#ff9800; }</style>
 </defs>
 <g id="office-chart-pie">
  <rect width="32" height="32" opacity=".001"/>
  <g transform="translate(-.50048 -1.2566e-6)">
   <path class="ColorScheme-Text" transform="translate(.50048 1.2566e-6)" d="m15.5 2c-1.3072 0.018684-2.2402 0.8059-2.6777 2.1094l0.017578-0.058594-2.0547 5.9492h-6.9258c-0.015101-2.422e-4 -0.029821-2.422e-4 -0.044922 0-0.82713 0.02681-1.5722 0.51261-2.0977 1.1523-1.1364 1.3045-0.89621 3.658 0.54688 4.6309l5.4453 3.9785-2.1133 6.5664c-0.00235 0.0073-0.0036494 0.014184-0.0058593 0.021484-0.32291 1.0608-0.019257 2.1528 0.79297 2.9004 0.0059 0.0055 0.011568 0.012178 0.017578 0.017578 0.97604 0.86769 2.3489 0.97796 3.4512 0.25977 0.02097-0.01357 0.040337-0.028319 0.060547-0.042969l5.5879-3.9844 5.5879 3.9844c0.02021 0.01466 0.039576 0.029409 0.060547 0.042969 1.1022 0.7182 2.4751 0.60792 3.4512-0.25977 6e-3 -0.0054 0.011668-0.012058 0.017579-0.017578 0.81222-0.74759 1.1159-1.8396 0.79297-2.9004-0.0022-0.0073-0.003459-0.014214-0.005859-0.021484l-2.1133-6.5664 5.4453-3.9785c1.4431-0.97288 1.6833-3.3264 0.54688-4.6309-0.52546-0.63974-1.2705-1.1255-2.0977-1.1523-0.0151-2.422e-4 -0.029822-2.422e-4 -0.044922 0h-6.9258l-2.0547-5.9492 0.017578 0.058594c-0.43751-1.3035-1.3705-2.0907-2.6777-2.1094zm0 3.5391 2.5762 7.4609h8.834c0.010559 0.00951 0.016782 0.010491 0.054688 0.056641l0.027344 0.033203 0.029296 0.033203c-0.175-0.20088-0.25125 0.36627 0.03711 0.17188l-0.046875 0.033203-7.2402 5.2891 2.6094 8.1035-6.8809-4.9043-6.8789 4.9043 2.6074-8.1035-7.2402-5.2891-0.046875-0.033203c0.2884 0.19443 0.21211-0.37275 0.037109-0.17188l0.029297-0.033203 0.027344-0.033203c0.037694-0.045895 0.04204-0.047035 0.052734-0.056641h8.8359l2.5762-7.4609zm7.041 21.684 0.011718 0.035156 0.001954 0.011719c-0.062809-0.19025-0.049784-0.16304-0.013672-0.046875z" fill="currentColor"/>
  </g>
 </g>
</svg>
