<?xml version="1.0" encoding="UTF-8"?>
<svg width="32" height="32" version="1" xmlns="http://www.w3.org/2000/svg">
 <defs id="materia">
  <style id="current-color-scheme" type="text/css">.ColorScheme-Background {color:#181818; } .ColorScheme-ButtonBackground { color:#343434; } .ColorScheme-Highlight { color:#4285f4; } .ColorScheme-Text { color:#dfdfdf; } .ColorScheme-ViewBackground { color:#242424; } .ColorScheme-NegativeText { color:#f44336; } .ColorScheme-PositiveText { color:#4caf50; } .ColorScheme-NeutralText { color:#ff9800; }</style>
 </defs>
 <g id="22-22-offline" transform="translate(27,5)">
  <rect x="5" y="5" width="22" height="22" opacity=".001"/>
  <path class="ColorScheme-NegativeText" d="m22 22v1.4141l1.0859 1.0859-1.0859 1.0859v1.4141h1.4141l1.0859-1.0859 1.0859 1.0859h1.4141v-1.4141l-1.0859-1.0859 1.0859-1.0859v-1.4141h-1.4141l-1.0859 1.0859-1.0859-1.0859z" fill="currentColor"/>
  <path class="ColorScheme-Text" d="m16 6c-5.5229 0-10 4.4771-10 10 0 5.5229 4.4771 10 10 10 2.0381 0 3.9328-0.61119 5.5137-1.6582l-0.2207-0.2207a1.0001 1.0001 0 0 1-0.29297-0.70703v-1.4141a1.0001 1.0001 0 0 1 1-1h1.4141a1.0001 1.0001 0 0 1 0.70703 0.29297l0.2207 0.2207c1.047-1.5809 1.6582-3.4755 1.6582-5.5137 0-5.5229-4.4771-10-10-10zm-0.93555 1.9941c0.10881-0.01139 0.24569 0.0065 0.35547 0 0.01301 0.05204-0.07708 0.23875-0.20117 0.50977-0.79022 1.7263-0.8369 3.7475-0.10352 4.8281 0.13272 0.19592 0.25391 0.38202 0.25391 0.40625 0 0.02424-0.14286 0.05078-0.30469 0.05078-0.3799 1e-6 -0.74006-0.23084-1.4746-0.8125-0.32631-0.25839-0.74971-0.47496-0.91406-0.50781-0.25808-0.05156-0.32628-0.02922-0.66016 0.30469-0.31064 0.31058-0.40625 0.47934-0.40625 0.76367 0 1.0782 1.2808 1.9331 3.6602 2.4375 3.2312 0.68484 4.0261 1.299 4.1152 2.998 0.1119 2.1306-1.0213 3.7367-3.5059 4.9805-0.29655 0.14849-0.48495 0.20788-0.60938 0.25586-0.05514-0.0049-0.09933 0.0049-0.1543 0-0.02114-0.06587-0.05078-0.21824-0.05078-0.50781 0-1.1316-0.44507-2.2978-1.1172-2.9492-0.18042-0.17487-0.68459-0.54471-1.1172-0.8125-0.43258-0.26778-0.86954-0.57822-0.9668-0.71094-0.16114-0.22023-0.17266-0.35487-0.04883-0.76172 0.22568-0.74306 0.49341-1.1594 1.0156-1.6289 0.27378-0.24614 0.54872-0.45018 0.60938-0.45508 0.06067-0.0049-0.34908-0.12989-0.96484-0.25586-0.61573-0.12621-1.5187-0.39005-1.9844-0.55859-0.85156-0.30812-2.0011-0.95568-2.4395-1.4238-0.01853-0.01985-0.034681-0.033211-0.050781-0.050781 0.62801-2.5016 2.3902-4.551 4.7266-5.5391 0.48886-0.20677 0.99342-0.34822 1.5254-0.45703 0.26498-0.05416 0.5389-0.0757 0.8125-0.10352zm7.625 3.8125c0.19102 0.11808 0.91325 1.6802 1.1191 2.4414 0.26582 0.98267 0.24658 2.682 0 3.6582-0.09385 0.37154-0.21585 0.71846-0.25586 0.76172s-0.18674-0.20339-0.35742-0.50586c-0.17069-0.30242-0.71291-0.94574-1.166-1.4238-1.3079-1.3801-1.5146-2.0998-0.9668-3.2012 0.27628-0.55541 1.4791-1.8217 1.627-1.7305z" fill="currentColor" opacity=".35"/>
 </g>
 <g id="offline">
  <rect width="32" height="32" opacity=".001"/>
  <path class="ColorScheme-Text" d="m16 2c-7.732 0-14 6.268-14 14 0 7.732 6.268 14 14 14 2.9986 0 5.7708-0.9514 8.0488-2.5566l-0.75586-0.75586a1.0001 1.0001 0 0 1-0.29297-0.70703v-1.9805a1.0001 1.0001 0 0 1 1-1h1.9805a1.0001 1.0001 0 0 1 0.70703 0.29297l0.75586 0.75586c1.6052-2.278 2.5566-5.0502 2.5566-8.0488 0-7.732-6.268-14-14-14zm-1.3105 2.791c0.15233-0.01595 0.34435 0.0091 0.49805 0 0.01821 0.07286-0.10752 0.33543-0.28125 0.71484-1.1063 2.4168-1.1713 5.2469-0.14453 6.7598 0.1858 0.27429 0.35547 0.53444 0.35547 0.56836 0 0.03394-0.20117 0.070313-0.42774 0.070313-0.53186 2e-6 -1.0361-0.3224-2.0645-1.1367-0.45684-0.36175-1.0492-0.66495-1.2793-0.71094-0.36131-0.07218-0.45641-0.041692-0.92383 0.42578-0.43489 0.43482-0.56836 0.67225-0.56836 1.0703 0 1.5095 1.792 2.706 5.123 3.4121 4.5237 0.95878 5.6369 1.8185 5.7617 4.1973 0.15666 2.9829-1.4299 5.2314-4.9082 6.9727-0.41516 0.20789-0.67933 0.29025-0.85352 0.35742-0.077199-0.006901-0.13789 0.0069-0.21484 0-0.0296-0.092221-0.072266-0.30554-0.072266-0.71094 0-1.5843-0.62153-3.217-1.5625-4.1289-0.25258-0.24482-0.95882-0.76181-1.5645-1.1367-0.60561-0.37488-1.2174-0.81029-1.3535-0.99609-0.2256-0.30833-0.24173-0.49681-0.068359-1.0664 0.31595-1.0403 0.69078-1.622 1.4219-2.2793 0.38329-0.3446 0.76861-0.63181 0.85352-0.63867 0.08494-0.0069-0.48949-0.18107-1.3516-0.35742-0.86203-0.17669-2.1254-0.54528-2.7773-0.78125-1.1922-0.43138-2.8024-1.3387-3.416-1.9941-0.02594-0.02779-0.047772-0.045713-0.070313-0.070313 0.87922-3.5022 3.3463-6.3726 6.6172-7.7559 0.6844-0.28948 1.39-0.48634 2.1348-0.63867 0.37097-0.07582 0.75368-0.10754 1.1367-0.14648zm10.676 5.3379c0.26744 0.16531 1.2782 2.3523 1.5664 3.418 0.37215 1.3757 0.34521 3.7544 0 5.1211-0.13139 0.52016-0.30141 1.0058-0.35742 1.0664-0.05601 0.06056-0.26105-0.28358-0.5-0.70703-0.23897-0.42339-0.99846-1.3248-1.6328-1.9941-1.831-1.9321-2.1205-2.9385-1.3535-4.4805 0.38679-0.77757 2.0704-2.5516 2.2773-2.4238zm-0.36523 14.871v0.56641l0.60352 0.60352c0.19449-0.18371 0.38269-0.37192 0.56641-0.56641l-0.60352-0.60352h-0.56641z" fill="currentColor" opacity=".35"/>
  <path class="ColorScheme-NegativeText" d="m24 24v1.9797l1.5203 1.5203-1.5203 1.5203v1.9797h1.9797l1.5203-1.5203 1.5203 1.5203h1.9797v-1.9797l-1.5203-1.5203 1.5203-1.5203v-1.9797h-1.9797l-1.5203 1.5203-1.5203-1.5203z" fill="currentColor"/>
 </g>
</svg>
