<?xml version="1.0" encoding="UTF-8"?>
<svg width="32" height="32" version="1.1" xmlns="http://www.w3.org/2000/svg">
 <defs id="materia">
  <style id="current-color-scheme" type="text/css">.ColorScheme-Background {color:#181818; } .ColorScheme-ButtonBackground { color:#343434; } .ColorScheme-Highlight { color:#4285f4; } .ColorScheme-Text { color:#dfdfdf; } .ColorScheme-ViewBackground { color:#242424; } .ColorScheme-NegativeText { color:#f44336; } .ColorScheme-PositiveText { color:#4caf50; } .ColorScheme-NeutralText { color:#ff9800; }</style>
 </defs>
 <g id="22-22-onboard" transform="translate(32,-288.53)">
  <rect y="298.53" width="22" height="22" opacity=".001"/>
  <path class="ColorScheme-Text" d="m5.2852 301.53c-1.2663 0-2.2852 1.0189-2.2852 2.2852v11.43c0 1.2663 1.0189 2.2852 2.2852 2.2852h11.43c1.2663 0 2.2852-1.0189 2.2852-2.2852v-11.43c0-1.2663-1.0189-2.2852-2.2852-2.2852zm2.2168 2c0.78133 0 1.3913 0.22266 1.834 0.66602 0.44286 0.44325 0.66406 1.0529 0.66406 1.834 0 0.77903-0.2212 1.3907-0.66406 1.834-0.44266 0.44306-1.0527 0.66602-1.834 0.66602-0.77922 0-1.3929-0.22296-1.8379-0.66602-0.44276-0.44325-0.66406-1.055-0.66406-1.834 0-0.78111 0.2213-1.3907 0.66406-1.834 0.44497-0.44336 1.0587-0.66602 1.8379-0.66602zm0 0.90039c-0.38205 0-0.67816 0.14018-0.88867 0.41992-0.21061 0.27974-0.31836 0.67186-0.31836 1.1797 0 0.50574 0.10775 0.89995 0.31836 1.1797 0.21051 0.27974 0.50663 0.41992 0.88867 0.41992 0.38415 0 0.68011-0.14018 0.89063-0.41992 0.21051-0.27974 0.31641-0.67395 0.31641-1.1797 0-0.50783-0.1059-0.89995-0.31641-1.1797-0.21051-0.27974-0.50647-0.41992-0.89063-0.41992zm5.498 6.0996h1.8809c0.67499 0 1.1634 0.10421 1.4648 0.31445 0.30445 0.21024 0.45508 0.54508 0.45508 1.0078 0 0.24322-0.05485 0.45289-0.16602 0.625-0.11016 0.17004-0.27211 0.2945-0.48242 0.37695 0.2694 0.0804 0.47974 0.22889 0.62695 0.44531 0.14722 0.21643 0.2207 0.48254 0.2207 0.79688 0 0.48231-0.15815 0.84407-0.47461 1.0801-0.31646 0.23704-0.79937 0.35352-1.4453 0.35352h-2.0801zm1.2539 0.87695v1.0586h0.69141c0.19729 0 0.34707-0.0451 0.44922-0.13477 0.10214-0.0886 0.1543-0.22036 0.1543-0.39453 0-0.17211-0.05215-0.30395-0.1543-0.39258-0.10215-0.0917-0.25193-0.13672-0.44922-0.13672zm-2e-3 1.9375v1.3086h0.73438c0.25137 0 0.44317-0.0548 0.56836-0.16407 0.12819-0.10924 0.19141-0.27554 0.19141-0.49609 0-0.21642-0.06131-0.37914-0.1875-0.48633-0.12618-0.10924-0.3189-0.16211-0.57227-0.16211z" fill="currentColor"/>
 </g>
 <g id="onboard">
  <rect width="32" height="32" opacity=".001"/>
  <path class="ColorScheme-Text" d="m7.4277 4c-1.8994 0-3.4277 1.5283-3.4277 3.4277v17.145c0 1.8994 1.5283 3.4277 3.4277 3.4277h17.145c1.8994 0 3.4277-1.5283 3.4277-3.4277v-17.145c0-1.8994-1.5283-3.4277-3.4277-3.4277h-17.145zm3.5762 3c1.2501 0 2.2253 0.35703 2.9336 1.0664 0.70858 0.7092 1.0625 1.6838 1.0625 2.9336 0 1.2464-0.35392 2.2244-1.0625 2.9336-0.70826 0.7089-1.6835 1.0664-2.9336 1.0664-1.2468 0-2.2295-0.35751-2.9414-1.0664-0.70842-0.7092-1.0625-1.6871-1.0625-2.9336 0-1.2498 0.35408-2.2244 1.0625-2.9336 0.71195-0.70938 1.6947-1.0664 2.9414-1.0664zm0 1.4395c-0.61127 0-1.0851 0.22624-1.4219 0.67383-0.33698 0.44758-0.51172 1.0742-0.51172 1.8867 0 0.80918 0.17474 1.4391 0.51172 1.8867 0.33682 0.44758 0.8106 0.67383 1.4219 0.67383 0.61464 0 1.087-0.22624 1.4238-0.67383 0.33682-0.44758 0.50781-1.0775 0.50781-1.8867 0-0.81253-0.171-1.4391-0.50781-1.8867-0.33682-0.44758-0.80919-0.67383-1.4238-0.67383zm6.9961 8.5605h3.0078c1.08 0 1.8614 0.16557 2.3438 0.50195 0.48712 0.33638 0.73047 0.87485 0.73047 1.6152 0 0.38915-0.087757 0.72462-0.26562 1-0.17626 0.27206-0.43694 0.46964-0.77344 0.60156 0.43103 0.12864 0.76641 0.36662 1.002 0.71289 0.23555 0.34629 0.35547 0.77245 0.35547 1.2754 0 0.7717-0.25147 1.349-0.75781 1.7266-0.50634 0.37926-1.2829 0.56641-2.3164 0.56641h-3.3262v-8zm2.0059 1.4023v1.6953h1.1074c0.31567 0 0.55531-0.073325 0.71875-0.2168 0.16343-0.14176 0.24414-0.35219 0.24414-0.63086 0-0.27538-0.0807-0.4871-0.24414-0.62891-0.16344-0.14672-0.40308-0.21875-0.71875-0.21875h-1.1074zm-0.003906 3.0996v2.0957h1.1758c0.40219 0 0.70986-0.08884 0.91016-0.26367 0.2051-0.17478 0.30664-0.44204 0.30664-0.79492 0-0.34627-0.098882-0.60584-0.30078-0.77734-0.20189-0.17479-0.51062-0.25977-0.91602-0.25977h-1.1758z" fill="currentColor"/>
 </g>
</svg>
