<?xml version="1.0" encoding="UTF-8"?>
<svg width="32" height="32" version="1" xmlns="http://www.w3.org/2000/svg">
 <defs id="materia">
  <style id="current-color-scheme" type="text/css">.ColorScheme-Background {color:#181818; } .ColorScheme-ButtonBackground { color:#343434; } .ColorScheme-Highlight { color:#4285f4; } .ColorScheme-Text { color:#dfdfdf; } .ColorScheme-ViewBackground { color:#242424; } .ColorScheme-NegativeText { color:#f44336; } .ColorScheme-PositiveText { color:#4caf50; } .ColorScheme-NeutralText { color:#ff9800; }</style>
 </defs>
 <g id="22-22-org.rnd2.cpupower_gui" transform="translate(32,10)">
  <rect width="22" height="22" opacity=".001"/>
  <path class="ColorScheme-Text" d="m7 3v2h-1.1992c-0.4432 0-0.80078 0.35758-0.80078 0.80078v1.1992h-2v2h2v1h-2v2h2v1h-2v2h2v1.1992c0 0.4432 0.35758 0.80078 0.80078 0.80078h1.1992v2h2v-2h1v2h2v-2h1v2h2v-2h1.1992c0.4432 0 0.80078-0.35758 0.80078-0.80078v-1.1992h2v-2h-2v-1h2v-2h-2v-1h2v-2h-2v-1.1992c0-0.4432-0.35758-0.80078-0.80078-0.80078h-1.1992v-2h-2v2h-1v-2h-2v2h-1v-2zm5.7266 3-1.0371 4h1.8105l-4.2266 6 1.0371-4h-1.8105z" fill="currentColor"/>
 </g>
 <g id="org.rnd2.cpupower_gui">
  <rect width="32" height="32" opacity=".001"/>
  <path class="ColorScheme-Text" d="m5 3v1.0254h-0.00195c-0.48911 0.09958-0.87308 0.4855-0.97266 0.97461h-1.0254v1h1v2h-1v1h1v2h-1v1h1v2h-1v1h1v2h-1v1h1v2h-1v1h1v2h-1v1h1v2h-1v1h1.0254v2e-3c0.09958 0.48906 0.4855 0.87303 0.97461 0.97261v1.0254h1v-1h2v1h1v-1h2v1h1v-1h2v1h1v-1h2v1h1v-1h2v1h1v-1h2v1h1v-1h2v1h1v-1.0254h2e-3c0.48906-0.09958 0.87303-0.4855 0.97261-0.97461h1.0254v-1h-1v-2h1v-1h-1v-2h1v-1h-1v-2h1v-1h-1v-2h1v-1h-1v-2h1v-1h-1v-2h1v-1h-1v-2h1v-1h-1.0254v-0.00195c-0.09958-0.48911-0.4855-0.87308-0.97461-0.97266v-1.0254h-1v1h-2v-1h-1v1h-2v-1h-1v1h-2v-1h-1v1h-2v-1h-1v1h-2v-1h-1v1h-2v-1h-1v1h-2v-1zm14.109 4-1.8691 8h3.2598l-7.6094 10 1.8691-8h-3.2598z" fill="currentColor"/>
 </g>
</svg>
