<?xml version="1.0" encoding="UTF-8"?>
<svg width="64" height="64" version="1.1" xmlns="http://www.w3.org/2000/svg">
 <defs id="materia">
  <style id="current-color-scheme" type="text/css">.ColorScheme-Background {color:#181818; } .ColorScheme-ButtonBackground { color:#343434; } .ColorScheme-Highlight { color:#4285f4; } .ColorScheme-Text { color:#dfdfdf; } .ColorScheme-ViewBackground { color:#242424; } .ColorScheme-NegativeText { color:#f44336; } .ColorScheme-PositiveText { color:#4caf50; } .ColorScheme-NeutralText { color:#ff9800; }</style>
 </defs>
 <g id="osd-shutd-screen" transform="translate(128)">
  <rect width="64" height="64" opacity=".001"/>
  <g transform="translate(13,-28)">
   <path class="ColorScheme-Text" transform="translate(-141,28)" d="m147 4c-1.108 0-2 0.892-2 2v24c0 1.108 0.892 2 2 2h24.355a10 10 0 0 1-1.1426-3h-22.213v-22h34v10.203a10 10 0 0 1 3 1.1465v-12.35c0-1.108-0.892-2-2-2h-36z" fill="currentColor" opacity=".35"/>
  </g>
  <g transform="translate(20,-5)">
   <path class="ColorScheme-NegativeText" transform="translate(-148,5)" d="m180 19a8 8 0 0 0-8 8 8 8 0 0 0 8 8 8 8 0 0 0 8-8 8 8 0 0 0-8-8zm2.9902 3.9863a1.0001 1.0001 0 0 1 0.7168 1.7207l-2.293 2.293 2.293 2.293a1.0001 1.0001 0 1 1-1.4141 1.4141l-2.293-2.293-2.293 2.293a1.0001 1.0001 0 1 1-1.4141-1.4141l2.293-2.293-2.293-2.293a1.0001 1.0001 0 0 1 0.69726-1.7168 1.0001 1.0001 0 0 1 0.7168 0.30274l2.293 2.293 2.293-2.293a1.0001 1.0001 0 0 1 0.69726-0.30664z" fill="currentColor"/>
  </g>
  <g transform="translate(0,-3)">
   <path class="ColorScheme-Text" transform="translate(-128,3)" d="m134 29c-1.108 0-2 0.892-2 2v24c0 1.108 0.892 2 2 2h24.355a10 10 0 0 1-1.1426-3h-22.213v-22h34v10.203a10 10 0 0 1 3 1.1465v-12.35c0-1.108-0.892-2-2-2h-36z" fill="currentColor"/>
  </g>
  <g transform="translate(7,20)">
   <path class="ColorScheme-PositiveText" transform="translate(-135,-20)" d="m167 44a8 8 0 0 0-8 8 8 8 0 0 0 8 8 8 8 0 0 0 8-8 8 8 0 0 0-8-8zm3.9648 2.9883a1.0001 1.0001 0 0 1 0.87696 1.5527l-4.5 7a1.0001 1.0001 0 0 1-1.6094 0.099609l-2.5-3a1.0001 1.0001 0 1 1 1.5352-1.2812l1.627 1.9531 3.7637-5.8535a1.0001 1.0001 0 0 1 0.80664-0.4707z" fill="currentColor"/>
  </g>
 </g>
 <g id="osd-shutd-laptop" transform="translate(64)">
  <rect width="64" height="64" opacity=".001"/>
  <g transform="translate(13,-28)">
   <path class="ColorScheme-Text" transform="translate(-77,28)" d="m83 4c-1.108 0-2 0.892-2 2v24c0 1.108 0.892 2 2 2h24.355a10 10 0 0 1-1.1426-3h-22.213v-22h34v10.203a10 10 0 0 1 3 1.1465v-12.35c0-1.108-0.892-2-2-2h-36z" fill="currentColor" opacity=".35"/>
  </g>
  <g transform="translate(0,-3)">
   <path class="ColorScheme-Text" transform="translate(-64,3)" d="m70 29c-1.108 0-2 0.892-2 2v24c0 1.108 0.892 2 2 2h24.355a10 10 0 0 1-1.1426-3h-22.213v-22h34v10.203a10 10 0 0 1 3 1.1465v-12.35c0-1.108-0.892-2-2-2h-36z" fill="currentColor"/>
  </g>
  <g transform="translate(13,-25)">
   <g transform="translate(7,20)">
    <path class="ColorScheme-PositiveText" transform="translate(-84,5)" d="m116 19a8 8 0 0 0-8 8 8 8 0 0 0 8 8 8 8 0 0 0 8-8 8 8 0 0 0-8-8zm3.9648 2.9883a1.0001 1.0001 0 0 1 0.87696 1.5527l-4.5 7a1.0001 1.0001 0 0 1-1.6094 0.099609l-2.5-3a1.0001 1.0001 0 1 1 1.5352-1.2812l1.627 1.9531 3.7637-5.8535a1.0001 1.0001 0 0 1 0.80664-0.4707z" fill="currentColor"/>
   </g>
  </g>
  <g transform="translate(-13,25)">
   <g transform="translate(20,-5)">
    <path class="ColorScheme-NegativeText" transform="translate(-71,-20)" d="m103 44a8 8 0 0 0-8 8 8 8 0 0 0 8 8 8 8 0 0 0 8-8 8 8 0 0 0-8-8zm2.9902 3.9863a1.0001 1.0001 0 0 1 0.7168 1.7207l-2.293 2.293 2.293 2.293a1.0001 1.0001 0 1 1-1.4141 1.4141l-2.293-2.293-2.293 2.293a1.0001 1.0001 0 1 1-1.4141-1.4141l2.293-2.293-2.293-2.293a1.0001 1.0001 0 0 1 0.69726-1.7168 1.0001 1.0001 0 0 1 0.7168 0.30274l2.293 2.293 2.293-2.293a1.0001 1.0001 0 0 1 0.69726-0.30664z" fill="currentColor"/>
   </g>
  </g>
 </g>
 <g id="osd-duplicate">
  <rect width="64" height="64" opacity=".001"/>
  <g transform="translate(13,-28)">
   <path class="ColorScheme-Text" transform="translate(-13,28)" d="m19 4c-1.108 0-2 0.892-2 2v24c0 1.108 0.892 2 2 2h24.355a10 10 0 0 1-1.1426-3h-22.213v-22h34v10.203a10 10 0 0 1 3 1.1465v-12.35c0-1.108-0.892-2-2-2h-36z" fill="currentColor" opacity=".35"/>
  </g>
  <g transform="translate(0,-3)">
   <path class="ColorScheme-Text" transform="translate(0,3)" d="m6 29c-1.108 0-2 0.892-2 2v24c0 1.108 0.892 2 2 2h24.355a10 10 0 0 1-1.1426-3h-22.213v-22h34v10.203a10 10 0 0 1 3 1.1465v-12.35c0-1.108-0.892-2-2-2h-36z" fill="currentColor"/>
  </g>
  <g transform="translate(13,-25)">
   <g transform="translate(7,20)">
    <path class="ColorScheme-PositiveText" transform="translate(-20,5)" d="m52 19a8 8 0 0 0-8 8 8 8 0 0 0 8 8 8 8 0 0 0 8-8 8 8 0 0 0-8-8zm3.9648 2.9883a1.0001 1.0001 0 0 1 0.87695 1.5527l-4.5 7a1.0001 1.0001 0 0 1-1.6094 0.099609l-2.5-3a1.0001 1.0001 0 1 1 1.5352-1.2812l1.627 1.9531 3.7637-5.8535a1.0001 1.0001 0 0 1 0.80664-0.4707z" fill="currentColor"/>
   </g>
  </g>
  <g transform="translate(7,20)">
   <path class="ColorScheme-PositiveText" transform="translate(-7,-20)" d="m39 44a8 8 0 0 0-8 8 8 8 0 0 0 8 8 8 8 0 0 0 8-8 8 8 0 0 0-8-8zm3.9648 2.9883a1.0001 1.0001 0 0 1 0.87695 1.5527l-4.5 7a1.0001 1.0001 0 0 1-1.6094 0.099609l-2.5-3a1.0001 1.0001 0 1 1 1.5352-1.2812l1.627 1.9531 3.7637-5.8535a1.0001 1.0001 0 0 1 0.80664-0.4707z" fill="currentColor"/>
  </g>
 </g>
 <g id="osd-rotate-normal" transform="translate(512)">
  <rect width="64" height="64" opacity=".001"/>
  <path class="ColorScheme-Text" transform="translate(-512)" d="m518.8 12c-1.5512 0-2.8008 1.2417-2.8008 2.7852v33.43c0 1.5434 1.2496 2.7852 2.8008 2.7852h50.398c1.5512 0 2.8008-1.2417 2.8008-2.7852v-33.43c0-1.5434-1.2496-2.7852-2.8008-2.7852h-50.398zm1.1992 4h48v31h-48v-31z" fill="currentColor"/>
 </g>
 <g id="osd-sbs-left" transform="translate(192)">
  <rect transform="scale(-1,1)" x="-64" width="64" height="64" opacity=".001"/>
  <path class="ColorScheme-Text" transform="translate(-192)" d="m229 12v4h19v31h-19v4h20.199c1.5512 0 2.8008-1.2419 2.8008-2.7852v-33.43c0-1.5433-1.2496-2.7852-2.8008-2.7852h-20.199z" fill="currentColor"/>
  <path class="ColorScheme-Text" transform="translate(-192)" d="m198.8 12c-1.5512 0-2.8008 1.2419-2.8008 2.7852v33.43c0 1.5433 1.2496 2.7852 2.8008 2.7852h20.199v-4h-19v-31h19v-4h-20.199z" fill="currentColor" opacity=".35"/>
  <rect class="ColorScheme-NeutralText" transform="scale(-1,1)" x="-35" y="7" width="6" height="49" rx="3" ry="3" fill="currentColor"/>
 </g>
 <g id="osd-sbs-sright" transform="matrix(-1,0,0,1,320,0)">
  <rect transform="scale(-1,1)" x="-64" width="64" height="64" opacity=".001"/>
  <path class="ColorScheme-Text" transform="matrix(-1,0,0,1,320,0)" d="m262.8 12c-1.5512 0-2.8008 1.2419-2.8008 2.7852v33.43c0 1.5433 1.2496 2.7852 2.8008 2.7852h20.199v-4h-19v-31h19v-4h-20.199z" fill="currentColor"/>
  <path class="ColorScheme-Text" transform="matrix(-1,0,0,1,320,0)" d="m293 12v4h19v31h-19v4h20.199c1.5512 0 2.8008-1.2419 2.8008-2.7852v-33.43c0-1.5433-1.2496-2.7852-2.8008-2.7852h-20.199z" fill="currentColor" opacity=".35"/>
  <rect class="ColorScheme-NeutralText" transform="scale(-1,1)" x="-35" y="7" width="6" height="49" rx="3" ry="3" fill="currentColor"/>
 </g>
 <g id="osd-rotate-flip" transform="translate(448)">
  <rect width="64" height="64" opacity=".001"/>
  <path class="ColorScheme-Text" transform="translate(-448)" d="m454.8 12c-1.5512 0-2.8008 1.2417-2.8008 2.7852v33.43c0 1.5434 1.2496 2.7852 2.8008 2.7852h24.637a18 18 0 0 1-1.1836-4h-22.254v-31h48v11.9a18 18 0 0 1 4 2.709v-15.824c0-1.5434-1.2496-2.7852-2.8008-2.7852h-50.398z" fill="currentColor"/>
  <path class="ColorScheme-Highlight" transform="translate(-448)" d="m496 28a16 16 0 0 0-16 16 16 16 0 0 0 16 16 16 16 0 0 0 16-16 16 16 0 0 0-16-16zm-0.02148 4.002a0.85192 0.87369 82.469 0 1 0.49804 0.12305 0.85192 0.87369 82.469 0 1 0.20117 0.16602 0.85192 0.87369 82.469 0 1 0.09571 0.13476l1.5527 2.6348 1.5586 2.6387a0.85192 0.87369 82.469 0 1-0.75977 1.2812l-1.125 0.003906v10.031l1.125 0.003906a0.87369 0.85192 7.5312 0 1 0.75977 1.2812l-1.5586 2.6387-1.5527 2.6348a0.87369 0.85192 7.5312 0 1-0.09571 0.13476 0.87369 0.85192 7.5312 0 1-0.20117 0.16602 0.87369 0.85192 7.5312 0 1-1.2129-0.30469l-1.5762-2.6465-1.5703-2.6504a0.87369 0.85192 7.5312 0 1 0.7539-1.2734l1.1289 0.003906v-10.008l-1.1289 0.003906a0.85192 0.87369 82.469 0 1-0.7539-1.2734l1.5703-2.6504 1.5762-2.6465a0.85192 0.87369 82.469 0 1 0.71485-0.42774z" fill="currentColor"/>
 </g>
 <g id="osd-rotate-cw" transform="translate(384)">
  <rect width="64" height="64" opacity=".001"/>
  <path class="ColorScheme-Text" transform="translate(-384)" d="m390.8 12c-1.5512 0-2.8008 1.2417-2.8008 2.7852v33.43c0 1.5434 1.2496 2.7852 2.8008 2.7852h24.637a18 18 0 0 1-1.1836-4h-22.254v-31h48v11.9a18 18 0 0 1 4 2.709v-15.824c0-1.5434-1.2496-2.7852-2.8008-2.7852h-50.398z" fill="currentColor"/>
  <g transform="matrix(-1,0,0,1,96,0)">
   <path class="ColorScheme-Highlight" transform="matrix(-1,0,0,1,480,0)" d="m432 28a16 16 0 0 0-16 16 16 16 0 0 0 16 16 16 16 0 0 0 16-16 16 16 0 0 0-16-16zm-0.34766 6.0059c0.27187-0.009269 0.54244-0.007045 0.8125 0.00586 2.4888 0.11892 4.8631 1.1755 6.6328 2.959l1.4355-0.83594a0.97505 0.98246 0 0 1 0.17188-0.080078 0.97505 0.98246 0 0 1 0.28906-0.054688 0.97505 0.98246 0 0 1 1.002 0.98242l0.00391 3.5195-0.00391 3.5176a0.97505 0.98246 0 0 1-1.4629 0.84961l-3.0195-1.7578-3.0273-1.7617a0.97505 0.98246 0 0 1 0-1.6992l0.94726-0.55078c-1.4548-1.022-3.3161-1.384-5.1113-0.86133-2.6065 0.75891-4.3681 3.1489-4.3223 5.8633 0.0458 2.7144 1.8869 5.0424 4.5176 5.7129a2.0002 2.0002 0 1 1-0.98828 3.875c-4.3599-1.1113-7.4514-5.0229-7.5274-9.5215-0.0759-4.4986 2.8832-8.5118 7.2031-9.7695 0.80998-0.23583 1.6317-0.36477 2.4473-0.39258z" fill="currentColor"/>
  </g>
 </g>
 <g id="osd-rotate-ccw" transform="translate(320)">
  <rect width="64" height="64" opacity=".001"/>
  <path class="ColorScheme-Text" transform="translate(-320)" d="m326.8 12c-1.5512 0-2.8008 1.2417-2.8008 2.7852v33.43c0 1.5434 1.2496 2.7852 2.8008 2.7852h24.637a18 18 0 0 1-1.1836-4h-22.254v-31h48v11.9a18 18 0 0 1 4 2.709v-15.824c0-1.5434-1.2496-2.7852-2.8008-2.7852h-50.398z" fill="currentColor"/>
  <path class="ColorScheme-Highlight" transform="translate(-320)" d="m368 28a16 16 0 0 0-16 16 16 16 0 0 0 16 16 16 16 0 0 0 16-16 16 16 0 0 0-16-16zm0.34766 6.0059c0.8156 0.027809 1.6373 0.15675 2.4473 0.39258 4.3199 1.2578 7.279 5.2709 7.2031 9.7695-0.07591 4.4986-3.1675 8.4102-7.5274 9.5215a2.0002 2.0002 0 1 1-0.98828-3.875c2.6306-0.67054 4.4718-2.9985 4.5176-5.7129 0.0458-2.7144-1.7158-5.1044-4.3223-5.8633-1.7953-0.52271-3.6566-0.16066-5.1113 0.86133l0.94726 0.55078a0.97505 0.98246 0 0 1 0 1.6992l-3.0273 1.7617-3.0195 1.7578a0.97505 0.98246 0 0 1-1.4629-0.84961l-0.00391-3.5176 0.00391-3.5195a0.97505 0.98246 0 0 1 1.002-0.98242 0.97505 0.98246 0 0 1 0.28906 0.054688 0.97505 0.98246 0 0 1 0.17188 0.080078l1.4355 0.83594c1.7697-1.7834 4.144-2.8401 6.6328-2.959 0.27006-0.012905 0.54063-0.015129 0.8125-0.00586z" fill="currentColor"/>
 </g>
</svg>
