<?xml version="1.0" encoding="UTF-8"?>
<svg width="32" height="32" version="1.1" xmlns="http://www.w3.org/2000/svg">
 <defs id="materia">
  <style id="current-color-scheme" type="text/css">.ColorScheme-Background {color:#181818; } .ColorScheme-ButtonBackground { color:#343434; } .ColorScheme-Highlight { color:#4285f4; } .ColorScheme-Text { color:#dfdfdf; } .ColorScheme-ViewBackground { color:#242424; } .ColorScheme-NegativeText { color:#f44336; } .ColorScheme-PositiveText { color:#4caf50; } .ColorScheme-NeutralText { color:#ff9800; }</style>
 </defs>
 <g id="22-22-plasmavault" transform="translate(32,10)">
  <rect width="22" height="22" opacity=".001"/>
  <path class="ColorScheme-Text" d="m4.1426 3s-1.1426 0.04269-1.1426 1.1855v12.672s-2.79e-4 1.1426 1.1426 1.1426h13.715s1.1426 2.79e-4 1.1426-1.1426v-10.686c0-1.1429-1.1426-1.1719-1.1426-1.1719h-5.7148l-2.2852-2zm6.8574 3c1.6 0 3 0.99935 3 2.916v1.084h0.33398c0.32322 0 0.66602 0.366 0.66602 0.76172v4.5234c0 0.39571-0.29668 0.71484-0.66602 0.71484h-6.668c-0.36933 0-0.66602-0.31913-0.66602-0.71484v-4.5234c0-0.39571 0.29668-0.76172 0.66602-0.76172h0.33398v-1.084c0-1.9167 1.4-2.916 3-2.916zm0 1c-0.8 0-2 0.56334-2 1.916v1.084h4v-1.084c0-1.3662-1.2-1.916-2-1.916z" fill="currentColor"/>
 </g>
 <g id="plasmavault">
  <rect width="32" height="32" opacity=".001"/>
  <path class="ColorScheme-Text" d="m4 3s-2 0-2 2v22s0 2 2 2h24s2 0 2-2v-18c0-2-2-2-2-2h-10l-4-4h-10zm12 6c2.77 0 5 2.23 5 5v2h1c0.554 0 1 0.446 1 1v8c0 0.554-0.446 1-1 1h-12c-0.554 0-1-0.446-1-1v-8c0-0.554 0.446-1 1-1h1v-2c0-2.77 2.23-5 5-5zm0 2c-1.662 0-3 1.338-3 3v2h6v-2c0-1.662-1.338-3-3-3z" fill="currentColor"/>
 </g>
</svg>
