<?xml version="1.0" encoding="UTF-8"?>
<svg width="32" height="32" version="1" xmlns="http://www.w3.org/2000/svg">
 <defs id="materia">
  <style id="current-color-scheme" type="text/css">.ColorScheme-Background {color:#181818; } .ColorScheme-ButtonBackground { color:#343434; } .ColorScheme-Highlight { color:#4285f4; } .ColorScheme-Text { color:#dfdfdf; } .ColorScheme-ViewBackground { color:#242424; } .ColorScheme-NegativeText { color:#f44336; } .ColorScheme-PositiveText { color:#4caf50; } .ColorScheme-NeutralText { color:#ff9800; }</style>
 </defs>
 <g id="22-22-plasma-browser-integration" transform="translate(27,5)">
  <rect x="5" y="5" width="22" height="22" opacity=".001"/>
  <path class="ColorScheme-Text" d="m11 7c-0.554 0-1 0.446-1 1s0.446 1 1 1 1-0.446 1-1-0.446-1-1-1zm6.2852 0-2.2852 2.2012 3.4277 3.2988-3.4277 3.2988 2.2852 2.2012 3.4297-3.2988 2.2852-2.2012-2.2852-2.2012zm-8.7852 6c-0.83099 0-1.5 0.66899-1.5 1.5 0 0.83099 0.66901 1.5 1.5 1.5 0.83101 0 1.5-0.66901 1.5-1.5 0-0.83101-0.66899-1.5-1.5-1.5zm12.5 4c-2.2091 0-4 1.7909-4 4 0 2.2091 1.7909 4 4 4 2.2091 0 4-1.7909 4-4 0-2.2091-1.7909-4-4-4zm-0.375 0.79688c0.04352-0.0046 0.09866 0.0026 0.14258 0 0.0052 0.02082-0.03044 0.09667-0.08008 0.20508-0.31609 0.69052-0.33437 1.4994-0.04102 1.9316 0.05309 0.07837 0.10156 0.15242 0.10156 0.16211 0 0.0097-0.05831 0.01953-0.12305 0.01953-0.15196 1e-6 -0.29603-0.09156-0.58984-0.32422-0.13053-0.10336-0.29949-0.18998-0.36523-0.20312-0.10323-0.02063-0.13012-0.01246-0.26367 0.12109-0.12425 0.12423-0.16211 0.19291-0.16211 0.30664 0 0.43129 0.51116 0.77287 1.4629 0.97461 1.2925 0.27394 1.6108 0.51958 1.6465 1.1992 0.04476 0.85225-0.40853 1.4947-1.4023 1.9922-0.11862 0.0594-0.19437 0.08237-0.24414 0.10156-0.02205-0.0019-0.03856 0.0019-0.06055 0-0.0084-0.02634-0.02148-0.0873-0.02148-0.20312 0-0.45265-0.17646-0.91913-0.44531-1.1797-0.07216-0.06995-0.27423-0.2171-0.44727-0.32422-0.17303-0.10711-0.34782-0.23207-0.38672-0.28516-0.06446-0.08809-0.06906-0.14195-0.01953-0.30469 0.09028-0.29722 0.19736-0.46259 0.40625-0.65039 0.10951-0.09846 0.21988-0.18163 0.24414-0.18359 0.02426-0.0019-0.14041-0.05118-0.38672-0.10156-0.24629-0.05049-0.60669-0.15524-0.79297-0.22266-0.34063-0.12325-0.80123-0.38305-0.97656-0.57031-0.0074-8e-3 -0.01308-0.01249-0.01953-0.01953 0.2512-1.0006 0.95608-1.8216 1.8906-2.2168 0.19554-0.08271 0.39659-0.13812 0.60938-0.18164 0.10599-0.02167 0.21478-0.03184 0.32422-0.04297zm-7.625 1.2031c-1.108 0-2 0.892-2 2s0.892 2 2 2 2-0.892 2-2-0.892-2-2-2zm10.676 0.32227c0.07641 0.04723 0.36491 0.6721 0.44727 0.97656 0.10633 0.39307 0.09863 1.0724 0 1.4629-0.03754 0.14862-0.08556 0.28738-0.10156 0.30469-0.016 0.01731-0.07431-0.08018-0.14258-0.20117-0.06828-0.12097-0.28555-0.37908-0.4668-0.57031-0.52315-0.55203-0.60586-0.83873-0.38672-1.2793 0.11051-0.22216 0.59125-0.72986 0.65039-0.69336z" fill="currentColor"/>
 </g>
 <g id="plasma-browser-integration">
  <rect width="32" height="32" opacity=".001"/>
  <path class="ColorScheme-Text" d="m8.5 2c-0.831 0-1.5 0.669-1.5 1.5s0.669 1.5 1.5 1.5c0.831 0 1.5-0.669 1.5-1.5s-0.669-1.5-1.5-1.5zm8.9277 0-3.4277 3.4023 5.1426 5.0977-5.1426 5.0977 3.4277 3.4023 5.1445-5.0977 3.4277-3.4023-3.4277-3.4023-5.1445-5.0977zm-12.928 9c-1.385 0-2.5 1.115-2.5 2.5 0 1.385 1.115 2.5 2.5 2.5 1.385 0 2.5-1.115 2.5-2.5 0-1.385-1.115-2.5-2.5-2.5zm19.5 7c-3.3135 0-6 2.6865-6 6 0 3.3135 2.6865 6 6 6 3.3135 0 6-2.6865 6-6 0-3.3135-2.6865-6-6-6zm-0.56055 1.1953c0.06528-0.0069 0.14702 0.004001 0.21289 0 0.0078 0.031221-0.046637 0.14404-0.12109 0.30664-0.4741 1.0357-0.50055 2.2501-0.060547 2.8984 0.07963 0.11755 0.15234 0.2296 0.15234 0.24414 0 0.01455-0.086486 0.029297-0.18359 0.029297-0.22792 1e-6 -0.44602-0.13932-0.88672-0.48828-0.19578-0.15502-0.44827-0.28303-0.54688-0.30274-0.15484-0.03094-0.19617-0.01867-0.39648 0.18164-0.18637 0.18634-0.24219 0.2884-0.24219 0.45898 0 0.64689 0.76586 1.1583 2.1934 1.4609 1.9386 0.41088 2.4153 0.78139 2.4688 1.8008 0.06714 1.2783-0.6129 2.2401-2.1035 2.9863-0.17792 0.08909-0.29059 0.12356-0.36523 0.15234-0.03307-0.0029-0.056864 0.0029-0.089844 0-0.0126-0.0395-0.03125-0.13096-0.03125-0.30469 0-0.67893-0.26668-1.3768-0.66992-1.7676-0.10823-0.10492-0.41038-0.32566-0.66992-0.48633-0.25953-0.16065-0.52173-0.35006-0.58008-0.42969-0.09668-0.13212-0.10359-0.21098-0.029297-0.45508 0.13541-0.44581 0.29607-0.69488 0.60938-0.97656 0.16426-0.14768 0.32885-0.2705 0.36524-0.27344 0.03639-0.0029-0.21065-0.076772-0.58008-0.15234-0.36942-0.07573-0.9081-0.23482-1.1875-0.33594-0.5109-0.18486-1.2019-0.5746-1.4648-0.85547-0.0111-0.012-0.02158-0.016784-0.03125-0.027344 0.37678-1.5009 1.4342-2.7334 2.8359-3.3262 0.29329-0.12406 0.5949-0.20816 0.91406-0.27344 0.15898-0.0325 0.32413-0.047763 0.48828-0.064454zm-12.439 1.8047c-1.662 0-3 1.338-3 3 0 1.662 1.338 3 3 3 1.662 0 3-1.338 3-3 0-1.662-1.338-3-3-3zm17.014 0.48438c0.11461 0.07084 0.54835 1.0082 0.67188 1.4648 0.15948 0.58956 0.14794 1.6077 0 2.1934-0.0563 0.22291-0.12834 0.43303-0.15234 0.45898-0.024 0.025971-0.11245-0.12321-0.21484-0.30469-0.10242-0.18144-0.42932-0.56668-0.70117-0.85352-0.78467-0.82798-0.90876-1.2591-0.58008-1.9199 0.16576-0.33322 0.88787-1.0938 0.97656-1.0391z" fill="currentColor"/>
 </g>
</svg>
