<?xml version="1.0" encoding="UTF-8"?>
<svg width="32" height="32" version="1.1" xmlns="http://www.w3.org/2000/svg">
 <defs id="materia">
  <style id="current-color-scheme" type="text/css">.ColorScheme-Background {color:#181818; } .ColorScheme-ButtonBackground { color:#343434; } .ColorScheme-Highlight { color:#4285f4; } .ColorScheme-Text { color:#dfdfdf; } .ColorScheme-ViewBackground { color:#242424; } .ColorScheme-NegativeText { color:#f44336; } .ColorScheme-PositiveText { color:#4caf50; } .ColorScheme-NeutralText { color:#ff9800; }</style>
 </defs>
 <g id="22-22-preferences-desktop-notification" transform="translate(32,-62)">
  <rect y="40" width="22" height="22" opacity=".001"/>
  <path class="ColorScheme-Highlight" d="m11 43c-4.4183 0-8 3.5817-8 8s3.5817 8 8 8 8-3.5817 8-8-3.5817-8-8-8z" fill="currentColor"/>
  <path d="m10 47v6h2v-6zm1 7c-0.45315 0-1 0.51843-1 0.98047 0 0.46204 0.54685 1.0195 1 1.0195s1-0.55749 1-1.0195c0-0.46204-0.54685-0.98047-1-0.98047z" fill="#fff"/>
 </g>
 <g id="22-22-preferences-desktop-display-randr" transform="translate(0,-22)">
  <rect width="22" height="22" opacity=".001"/>
  <path class="ColorScheme-Text" d="m3.125 3c-1.125 0-1.125 1.1432-1.125 1.1432v11.731c0 1.1432 1.125 1.1432 1.125 1.1432h5.0375s-1.2001-0.29896-1.1625 0.8436v1.1387h8v-1.1387c0-1.1432-1.0504-0.8436-1.0504-0.8436h4.9254c1.125 0 1.125-1.1432 1.125-1.1432v-11.731s0-1.1432-1.125-1.1432zm0.875 2h14v9.9855l-14 0.02902z" fill="currentColor"/>
 </g>
 <g id="22-22-preferences-system-windows" transform="translate(59,-27)">
  <rect x="5" y="5" width="22" height="22" opacity=".001"/>
  <path class="ColorScheme-Text" d="m13.5 9c-0.5 0-0.5 0.5-0.5 0.5v8c0 0.5 0.5 0.5 0.5 0.5h10s0.5 0 0.5-0.5v-8c0-0.5-0.5-0.5-0.5-0.5zm1.5 3h7v4h-7zm-7.4805 2s-0.51953 0-0.51953 0.5v8c0 0.5 0.5 0.5 0.5 0.5h10s0.5-0.02 0.5-0.5v-3.5h-2v2h-7v-4h3v-3z" fill="currentColor"/>
 </g>
 <g id="preferences-desktop-display-randr" transform="translate(0,34)">
  <rect y="-34" width="32" height="32" opacity=".001"/>
  <g transform="translate(2e-4,-35)">
   <path class="ColorScheme-Text" transform="translate(0,1)" d="m4.3008 4c-0.7202 0-1.3008 0.5575-1.3008 1.25v17.5c0 0.6925 0.58058 1.25 1.3008 1.25h3.6992v1.6875c0 0.7274 0.59355 1.3125 1.332 1.3125h13.336c0.73848 0 1.332-0.5851 1.332-1.3125v-1.6875h3.6992c0.7202 0 1.3008-0.5575 1.3008-1.25v-17.5c0-0.6925-0.58058-1.25-1.3008-1.25zm1.6992 3h20v14h-20z" fill="currentColor"/>
  </g>
 </g>
 <g id="preferences-desktop-notification" transform="translate(32)">
  <rect width="32" height="32" opacity=".001"/>
  <path class="ColorScheme-Highlight" d="M 15.5,4 A 11.5,11.5 0 0 0 4,15.5 11.5,11.5 0 0 0 15.5,27 11.5,11.5 0 0 0 27,15.5 11.5,11.5 0 0 0 15.5,4 Z" fill="currentColor"/>
  <path transform="translate(-160)" d="m174 9v8h3v-8zm1.5 10c-0.67973 0-1.5 0.77764-1.5 1.4707 0 0.69307 0.82027 1.5293 1.5 1.5293s1.5-0.83623 1.5-1.5293c0-0.69306-0.82027-1.4707-1.5-1.4707z" fill="#fff"/>
 </g>
 <g id="preferences-system-windows" transform="translate(64)">
  <rect width="32" height="32" opacity=".001"/>
  <path class="ColorScheme-Text" d="m12.727 6c-0.72727 0-0.72656 0.72266-0.72656 0.72266v11.555c0 0.72222 0.72656 0.72266 0.72656 0.72266h14.547s0.72656-4.34e-4 0.72656-0.72266v-11.555c0-0.72222-0.72656-0.72266-0.72656-0.72266zm2.2734 4h10v6h-10zm-11.273 3c-0.72727 0-0.72656 0.72266-0.72656 0.72266v11.555c0 0.72222 0.72656 0.72266 0.72656 0.72266h14.547s0.72656-4.34e-4 0.72656-0.72266v-4.2773h-3v2h-10v-6h4v-4z" fill="currentColor"/>
 </g>
 <g id="preferences-desktop-notification-bell" transform="translate(-22,32)">
  <rect width="22" height="22" opacity=".001"/>
  <path class="ColorScheme-Text" d="m11 3c0.55 0 1 0.45 1 1 0 0.03 0 0.07-0.01 0.1 2.29 0.46 4.01 2.47 4.01 4.9v4.5l2 2v0.5h-14v-0.5l2-2v-4.5c0-2.43 1.72-4.44 4.01-4.9-0.01-0.03-0.01-0.07-0.01-0.1 0-0.55 0.45-1 1-1zm1.73 14c-0.36 0.62-1.02 1-1.73 1s-1.37-0.38-1.73-1z" fill="currentColor"/>
 </g>
 <g id="22-22-preferences-system-bluetooth" transform="translate(-64)">
  <rect x="192" y="-22" width="22" height="22" opacity=".001"/>
  <path class="ColorScheme-Text" d="m201.57-18.901a1.0001 1.0001 0 0 0-0.5664 0.90039v4.0664l-2.3867-1.8555a1 1 0 0 0-1.4024 0.17578 1 1 0 0 0 0.17579 1.4023l3.6133 2.8105v0.80078l-3.6133 2.8105a1 1 0 0 0-0.17579 1.4023 1 1 0 0 0 1.4024 0.17578l2.3867-1.8555v4.0664a1.0001 1.0001 0 0 0 1.625 0.78125l5-4a1.0001 1.0001 0 0 0-0.0117-1.5703l-2.8418-2.2109 2.8418-2.2109a1.0001 1.0001 0 0 0 0.0117-1.5703l-5-4a1.0001 1.0001 0 0 0-1.0586-0.11914zm1.4336 2.9824 2.3848 1.9082-2.2422 1.7441-0.14257-0.11133zm0.14257 6.1836 2.2422 1.7441-2.3848 1.9082v-3.541z" fill="currentColor"/>
 </g>
 <g id="22-22-preferences-system-bluetooth-activated" transform="translate(-128)">
  <rect x="224" y="-22" width="22" height="22" opacity=".001"/>
  <path class="ColorScheme-Text" d="m233.93-18.998a1.0001 1.0001 0 0 0-0.35937 0.09766 1.0001 1.0001 0 0 0-0.56641 0.90039v4.0664l-2.3867-1.8555a1 1 0 0 0-1.4023 0.17578 1 1 0 0 0 0.17578 1.4023l3.6133 2.8105v0.80078l-3.6133 2.8105a1 1 0 0 0-0.17578 1.4023 1 1 0 0 0 1.4023 0.17578l2.3867-1.8555v4.0664a1.0001 1.0001 0 0 0 1.625 0.78125l5-4a1.0001 1.0001 0 0 0-0.0117-1.5703l-2.8418-2.2109 2.8418-2.2109a1.0001 1.0001 0 0 0 0.0117-1.5703l-5-4a1.0001 1.0001 0 0 0-0.69922-0.2168zm1.0742 3.0801 2.3848 1.9082-2.2422 1.7441-0.14258-0.11133zm-6 3.918a1 1 0 0 0-1 1 1 1 0 0 0 1 1 1 1 0 0 0 1-1 1 1 0 0 0-1-1zm12 0a1 1 0 0 0-1 1 1 1 0 0 0 1 1 1 1 0 0 0 1-1 1 1 0 0 0-1-1zm-5.8574 2.2656 2.2422 1.7441-2.3848 1.9082v-3.541z" fill="currentColor"/>
 </g>
 <g id="preferences-system-bluetooth" transform="translate(-64)">
  <rect x="192" width="32" height="32" opacity=".001"/>
  <path class="ColorScheme-Text" d="m205.83 4.1578a1.5003 1.5002 0 0 0-0.83014 1.3419v6.3714l-3.6292-2.5919a1.5001 1.5001 0 0 0-2.092 0.34962 1.5001 1.5001 0 0 0 0.34963 2.0919l5.3715 3.8361v0.88676l-5.3715 3.8361a1.5001 1.5001 0 0 0-0.34963 2.0919 1.5001 1.5001 0 0 0 2.092 0.34962l3.6292-2.5919v6.3714a1.5003 1.5002 0 0 0 2.4006 1.1993l8.0006-6.0003a1.5003 1.5002 0 0 0-0.0293-2.42l-4.5921-3.2794 4.5921-3.2794a1.5003 1.5002 0 0 0 0.0293-2.42l-8.0006-6.0003a1.5003 1.5002 0 0 0-1.5704-0.14258zm2.1701 4.342 3.9612 2.9708-3.762 2.6857-0.19923-0.14258zm0.19923 9.3442 3.762 2.6857-3.9612 2.9708v-5.5139z" fill="currentColor"/>
 </g>
 <g id="preferences-system-bluetooth-activated" transform="translate(-128)">
  <rect x="224" width="32" height="32" opacity=".001"/>
  <path class="ColorScheme-Text" d="m238.36 4.0059a1.5003 1.5002 0 0 0-0.5293 0.15234 1.5003 1.5002 0 0 0-0.83008 1.3418v6.3711l-3.6289-2.5918a1.5001 1.5001 0 0 0-2.0918 0.34961 1.5001 1.5001 0 0 0 0.34961 2.0918l5.3711 3.8359v0.88672l-5.3711 3.8359a1.5001 1.5001 0 0 0-0.34961 2.0918 1.5001 1.5001 0 0 0 2.0918 0.34961l3.6289-2.5918v6.3711a1.5003 1.5002 0 0 0 2.4004 1.1992l8-6a1.5003 1.5002 0 0 0-0.0293-2.4199l-4.5918-3.2793 4.5918-3.2793a1.5003 1.5002 0 0 0 0.0293-2.4199l-8-6a1.5003 1.5002 0 0 0-1.041-0.29492zm1.6406 4.4941 3.9609 2.9707-3.7617 2.6855-0.19922-0.14258zm-10 5.5a2 2 0 0 0-2 2 2 2 0 0 0 2 2 2 2 0 0 0 2-2 2 2 0 0 0-2-2zm20 0a2 2 0 0 0-2 2 2 2 0 0 0 2 2 2 2 0 0 0 2-2 2 2 0 0 0-2-2zm-9.8008 3.8438 3.7617 2.6855-3.9609 2.9707v-5.5137z" fill="currentColor"/>
 </g>
 <g id="22-22-preferences-system-bluetooth-inactive">
  <rect x="160" y="-22" width="22" height="22" opacity=".001"/>
  <path class="ColorScheme-Text" d="m169.93-18.997c-0.12473 0.0092-0.24662 0.04052-0.35938 0.09461-0.34599 0.16651-0.56611 0.51641-0.5664 0.90039v2.0293l2 1.5586v-1.5059l2.3848 1.9082-0.93555 0.72852 1.627 1.2676 1.5371-1.1973c0.51053-0.39662 0.51627-1.1661 0.0117-1.5703l-5-4c-0.19759-0.15734-0.44738-0.233-0.69922-0.21375zm-4.6934 2.118-1.2324 1.5762 5 3.9004v0.80078l-3.6133 2.8105c-0.43545 0.33889-0.51412 0.96646-0.17578 1.4023 0.3389 0.43546 0.96646 0.51412 1.4024 0.17578l2.3867-1.8555v4.0664c-3.5e-4 0.83887 0.97004 1.3054 1.625 0.78125l4.3808-3.5039 1.7617 1.373 1.2324-1.5762zm5.9102 7.1426 2.2402 1.7461-2.3828 1.9062v-3.541z" fill="currentColor" opacity=".35"/>
 </g>
 <g id="preferences-system-bluetooth-inactive" transform="translate(-32)">
  <rect x="192" width="32" height="32" opacity=".001"/>
  <path class="ColorScheme-Text" d="m206.36 4.0059c-0.18432 0.017683-0.36378 0.069334-0.5293 0.15234-0.50855 0.25391-0.82992 0.7734-0.83008 1.3418v3.2891l3 2.1309v-2.4199l3.9609 2.9707-1.5898 1.1348 2.5879 1.8379 2.4121-1.7227c0.8251-0.58945 0.83989-1.8107 0.0293-2.4199l-8-6c-0.29824-0.22437-0.6694-0.32952-1.041-0.29492zm-6.1074 5.0156c-0.39187 0.065675-0.74167 0.28413-0.97265 0.60742-0.48086 0.67423-0.32437 1.6106 0.34961 2.0918l5.3711 3.8359v0.88672l-5.3711 3.8359c-0.67398 0.48123-0.83047 1.4176-0.34961 2.0918 0.48124 0.67392 1.4176 0.83041 2.0918 0.34961l3.6289-2.5918v6.3711c8e-4 1.2358 1.4117 1.9407 2.4004 1.1992l8-6c0.81059-0.60925 0.7958-1.8305-0.0293-2.4199l-14-10c-0.32408-0.23098-0.72666-0.32372-1.1191-0.25781zm7.9473 8.8223 3.7617 2.6855-3.9609 2.9707v-5.5137z" fill="currentColor" opacity=".35"/>
 </g>
</svg>
