<?xml version="1.0" encoding="UTF-8"?>
<svg width="32" height="32" version="1.1" xmlns="http://www.w3.org/2000/svg">
 <defs id="materia">
  <style id="current-color-scheme" type="text/css">.ColorScheme-Background {color:#181818; } .ColorScheme-ButtonBackground { color:#343434; } .ColorScheme-Highlight { color:#4285f4; } .ColorScheme-Text { color:#dfdfdf; } .ColorScheme-ViewBackground { color:#242424; } .ColorScheme-NegativeText { color:#f44336; } .ColorScheme-PositiveText { color:#4caf50; } .ColorScheme-NeutralText { color:#ff9800; }</style>
 </defs>
 <g id="22-22-qbittorrent-tray" transform="translate(32 10)">
  <path d="m0 0h22v22h-22z" opacity=".001"/>
  <path class="ColorScheme-Text" d="m13 3a1 1 0 0 0-1 1v11h2v-0.54102c0.60748 0.35321 1.2973 0.53917 2 0.54102 2.2091 0 4-1.7909 4-4 0-2.2091-1.7909-4-4-4-0.70252 0.00125-1.3923 0.18656-2 0.53906v-3.5391a1 1 0 0 0-1-1zm3 6c1.1046 0 2 0.89543 2 2 0 1.1046-0.89543 2-2 2s-2-0.89543-2-2c0-1.1046 0.89543-2 2-2z" fill="currentColor"/>
  <path class="ColorScheme-Text" d="m6 7c-2.2091 0-4 1.7909-4 4 0 2.2091 1.7909 4 4 4 0.70252-0.0013 1.3923-0.1885 2-0.54102v3.541a1 1 0 0 0 1 1 1 1 0 0 0 1-1v-11h-2v0.54102c-0.60748-0.35321-1.2973-0.53916-2-0.54102zm0 2c1.1046 0 2 0.89543 2 2 0 1.1046-0.89543 2-2 2-1.1046 0-2-0.89543-2-2 0-1.1046 0.89543-2 2-2z" fill="currentColor" opacity=".35"/>
 </g>
 <g id="qbittorrent-tray">
  <path d="m0 0h32v32h-32z" opacity=".001"/>
  <path class="ColorScheme-Text" d="m18.5 4a1.5 1.5 0 0 0-1.5 1.5v16.5h3v-0.81152c0.91123 0.52981 1.9459 0.80876 3 0.81152 3.3137 0 6-2.6863 6-6 0-3.3137-2.6863-6-6-6-1.0538 0.0019-2.0885 0.27983-3 0.80859v-5.3086a1.5 1.5 0 0 0-1.5-1.5zm4.5 9c1.6569 0 3 1.3431 3 3s-1.3431 3-3 3-3-1.3431-3-3 1.3431-3 3-3z" fill="currentColor"/>
  <path class="ColorScheme-Text" d="m9 10c-3.3137 0-6 2.6863-6 6 0 3.3137 2.6863 6 6 6 1.0538-2e-3 2.0885-0.28274 3-0.81152v5.3115a1.5 1.5 0 0 0 1.5 1.5 1.5 1.5 0 0 0 1.5-1.5v-16.5h-3v0.81152c-0.91123-0.52981-1.9459-0.80874-3-0.81152zm0 3c1.6569 0 3 1.3431 3 3s-1.3431 3-3 3c-1.6569 0-3-1.3431-3-3s1.3431-3 3-3z" fill="currentColor" opacity=".35"/>
 </g>
</svg>
