<?xml version="1.0" encoding="UTF-8"?>
<svg width="32" height="32" version="1.1" xmlns="http://www.w3.org/2000/svg">
 <defs id="materia">
  <style id="current-color-scheme" type="text/css">.ColorScheme-Background {color:#181818; } .ColorScheme-ButtonBackground { color:#343434; } .ColorScheme-Highlight { color:#4285f4; } .ColorScheme-Text { color:#dfdfdf; } .ColorScheme-ViewBackground { color:#242424; } .ColorScheme-NegativeText { color:#f44336; } .ColorScheme-PositiveText { color:#4caf50; } .ColorScheme-NeutralText { color:#ff9800; }</style>
 </defs>
 <g id="22-22-quassel" transform="translate(0,-22)">
  <rect width="22" height="22" opacity=".001"/>
  <path class="ColorScheme-Text" d="m11 3c-4.4183 0-8 3.5817-8 8s3.5817 8 8 8 8-3.5817 8-8-3.5817-8-8-8zm0 2c3.3137 0 6 2.6863 6 6 0 1.2497-0.38344 2.4103-1.0371 3.3711 0.015304-0.12279 0.037109-0.24416 0.037109-0.37109 0-1.6569-1.3431-3-3-3s-3 1.3431-3 3c0 1.3792 0.93552 2.5282 2.2031 2.8789-0.38884 0.079178-0.7909 0.12109-1.2031 0.12109-3.3137 0-6-2.6863-6-6 0-3.3137 2.6863-6 6-6z" fill="currentColor"/>
 </g>
 <g id="22-22-quassel-inactive" transform="translate(64,-22)">
  <rect width="22" height="22" opacity=".001"/>
  <path class="ColorScheme-Text" d="m11 3c-4.4183 0-8 3.5817-8 8s3.5817 8 8 8 8-3.5817 8-8-3.5817-8-8-8zm0 2c3.3137 0 6 2.6863 6 6 0 1.2497-0.38344 2.4103-1.0371 3.3711 0.015304-0.12279 0.037109-0.24416 0.037109-0.37109 0-1.6569-1.3431-3-3-3s-3 1.3431-3 3c0 1.3792 0.93552 2.5282 2.2031 2.8789-0.38884 0.079178-0.7909 0.12109-1.2031 0.12109-3.3137 0-6-2.6863-6-6 0-3.3137 2.6863-6 6-6z" fill="currentColor" opacity=".35"/>
 </g>
 <g id="22-22-quassel-message" transform="translate(-30 -23)">
  <rect x="62" y="1" width="22" height="22" opacity=".001"/>
  <circle class="ColorScheme-Highlight" cx="75" cy="15" r="3" fill="currentColor"/>
  <path class="ColorScheme-Text" d="m73 4c-4.4183 0-8 3.5817-8 8s3.5817 8 8 8 8-3.5817 8-8-3.5817-8-8-8zm0 2a6 6 0 0 1 0.61133 0.03125c6.41e-4 6.49e-5 0.0013-6.51e-5 2e-3 0a6 6 0 0 1 0.57812 0.087891c0.19734 0.039778 0.39222 0.089811 0.58203 0.14844 0.37981 0.11731 0.74249 0.27046 1.0859 0.45703a6 6 0 0 1 0.01758 0.00977c0.03743 0.020494 0.07244 0.045143 0.10938 0.066406 0.13326 0.076717 0.26602 0.15578 0.39258 0.24219a6 6 0 0 1 0.0098 0.00586c0.03701 0.025371 0.07102 0.053906 0.10742 0.080078 0.11815 0.084943 0.23419 0.17057 0.3457 0.26367a6 6 0 0 1 0.19726 0.17969c0.07684 0.070144 0.15542 0.13888 0.22852 0.21289a6 6 0 0 1 0.17578 0.19336c0.07709 0.085114 0.15635 0.16836 0.22852 0.25781a6 6 0 0 1 0.13086 0.17578c0.07236 0.096699 0.14245 0.19384 0.20898 0.29492a6 6 0 0 1 0.13281 0.2168c0.05881 0.098145 0.11666 0.19715 0.16992 0.29883a6 6 0 0 1 0.0918 0.18555c0.05954 0.12394 0.11687 0.24847 0.16797 0.37695a6 6 0 0 1 0.05273 0.14453c0.04918 0.13361 0.09502 0.26836 0.13477 0.40625a6 6 0 0 1 0.04883 0.18945c0.03261 0.12883 0.06377 0.25863 0.08789 0.39062a6 6 0 0 1 0.0332 0.2207c0.01702 0.1178 0.03289 0.23556 0.04297 0.35547a6 6 0 0 1 0.025309 0.50781 6 6 0 0 1-0.0625 0.82031c-0.0088 0.06364-0.01856 0.12646-0.0293 0.18945a6 6 0 0 1-0.17969 0.77344c-9.79e-4 0.0031-9.7e-4 0.0066-2e-3 0.0098a6 6 0 0 1-0.01758 0.04687 6 6 0 0 1-0.26562 0.66602c-0.03122 0.06765-0.06207 0.13491-0.0957 0.20117a6 6 0 0 1-0.36914 0.63867 6 6 0 0 1-0.01563 0.02344c-8e-5 6.39e-4 7.9e-5 0.0013 0 2e-3a6 6 0 0 1-3.7734 2.5038c0.0046 0.0013 0.0091 0.0026 0.01367 0.0039-0.03514 0.0072-0.07206 0.0091-0.10742 0.01563a6 6 0 0 1-0.25781 0.03906c-0.10816 0.01522-0.21624 0.03164-0.32617 0.04102a6 6 0 0 1-0.51172 0.02539 6 6 0 0 1-0.61133-0.03125 6 6 0 0 1-2e-3 0c-0.19579-0.01988-0.38836-0.04964-0.57812-0.08789-0.19734-0.03978-0.39222-0.08981-0.58203-0.14844-0.37981-0.11731-0.74249-0.27046-1.0859-0.45703-0.0033-0.0018-0.0064-4e-3 -0.0098-0.0059a6 6 0 0 1-0.11719-0.07031c-0.13326-0.07672-0.26602-0.15578-0.39258-0.24219a6 6 0 0 1-0.11719-0.08594c-0.11815-0.08494-0.23419-0.17057-0.3457-0.26367a6 6 0 0 1-0.19726-0.17969c-0.07684-0.07014-0.15542-0.13888-0.22852-0.21289a6 6 0 0 1-0.17578-0.19336c-0.07709-0.08511-0.15635-0.16836-0.22852-0.25781a6 6 0 0 1-0.13086-0.17578c-0.07236-0.0967-0.14245-0.19384-0.20898-0.29492a6 6 0 0 1-0.13281-0.2168c-0.05881-0.09814-0.11666-0.19715-0.16992-0.29883a6 6 0 0 1-0.0918-0.18555c-0.05954-0.12394-0.11687-0.24847-0.16797-0.37695a6 6 0 0 1-0.05273-0.14453c-0.04918-0.13361-0.09502-0.26836-0.13477-0.40625a6 6 0 0 1-0.04883-0.18945c-0.03261-0.12883-0.06377-0.25863-0.08789-0.39062a6 6 0 0 1-0.0332-0.2207c-0.01702-0.1178-0.03289-0.23556-0.04297-0.35547a6 6 0 0 1-0.025311-0.50777 6 6 0 0 1 0.03125-0.61133c0.01989-0.19644 0.04952-0.3897 0.08789-0.58008 0.03978-0.19734 0.08981-0.39222 0.14844-0.58203 0.11731-0.37981 0.27046-0.74249 0.45703-1.0859 0.0018-0.00334 4e-3 -0.00643 0.0059-0.00977a6 6 0 0 1 0.07031-0.11719c0.07672-0.13326 0.15578-0.26602 0.24219-0.39258a6 6 0 0 1 0.08594-0.11719c0.08494-0.11815 0.17057-0.23419 0.26367-0.3457a6 6 0 0 1 0.17969-0.19727c0.07014-0.076839 0.13888-0.15542 0.21289-0.22852a6 6 0 0 1 0.19336-0.17578c0.08511-0.077093 0.16836-0.15635 0.25781-0.22852a6 6 0 0 1 0.17578-0.13086c0.0967-0.072356 0.19384-0.14245 0.29492-0.20898a6 6 0 0 1 0.2168-0.13281c0.09815-0.058814 0.19715-0.11666 0.29883-0.16992a6 6 0 0 1 0.18551-0.091792c0.12394-0.05954 0.24847-0.11687 0.37695-0.16797a6 6 0 0 1 0.14453-0.052734c0.13361-0.049182 0.26836-0.095015 0.40625-0.13477a6 6 0 0 1 0.18945-0.048828c0.12883-0.032612 0.25863-0.063765 0.39062-0.087891a6 6 0 0 1 0.2207-0.033203c0.1178-0.017024 0.23556-0.032894 0.35547-0.042969a6 6 0 0 1 0.50781-0.02539z" fill="currentColor"/>
 </g>
 <g id="quassel">
  <rect width="32" height="32" opacity=".001"/>
  <path class="ColorScheme-Text" d="m16 4c-6.6274 0-12 5.3726-12 12 0 6.6274 5.3726 12 12 12 6.6274 0 12-5.3726 12-12 0-6.6274-5.3726-12-12-12zm0 3a9 9 0 0 1 9 9 9 9 0 0 1-2.2363 5.9277 4.5 4.5 0 0 0 0.23633-1.4277 4.5 4.5 0 0 0-4.5-4.5 4.5 4.5 0 0 0-4.5 4.5 4.5 4.5 0 0 0 3.4727 4.377 9 9 0 0 1-1.4727 0.12305 9 9 0 0 1-9-9 9 9 0 0 1 9-9z" fill="currentColor"/>
 </g>
 <g id="quassel-message" transform="translate(32)">
  <rect width="32" height="32" opacity=".001"/>
  <circle class="ColorScheme-Highlight" cx="18.5" cy="20.5" r="4.5" fill="currentColor"/>
  <path class="ColorScheme-Text" d="m16 4c-6.6274 0-12 5.3726-12 12 0 6.6274 5.3726 12 12 12 6.6274 0 12-5.3726 12-12 0-6.6274-5.3726-12-12-12zm0 3a9 9 0 0 1 9 9 9 9 0 0 1-9 9 9 9 0 0 1-9-9 9 9 0 0 1 9-9z" fill="currentColor"/>
 </g>
 <g id="quassel-inactive" transform="translate(64)">
  <rect width="32" height="32" opacity=".001"/>
  <path class="ColorScheme-Text" transform="translate(-64)" d="m80 4c-6.6274 0-12 5.3726-12 12 0 6.6274 5.3726 12 12 12 6.6274 0 12-5.3726 12-12 0-6.6274-5.3726-12-12-12zm0 3a9 9 0 0 1 9 9 9 9 0 0 1-2.2363 5.9277 4.5 4.5 0 0 0 0.23633-1.4277 4.5 4.5 0 0 0-4.5-4.5 4.5 4.5 0 0 0-4.5 4.5 4.5 4.5 0 0 0 3.4727 4.377 9 9 0 0 1-1.4727 0.12305 9 9 0 0 1-9-9 9 9 0 0 1 9-9z" fill="currentColor" opacity=".35"/>
 </g>
</svg>
