<?xml version="1.0" encoding="UTF-8"?>
<svg width="32" height="32" version="1.1" xmlns="http://www.w3.org/2000/svg">
 <defs id="materia">
  <style id="current-color-scheme" type="text/css">.ColorScheme-Background {color:#181818; } .ColorScheme-ButtonBackground { color:#343434; } .ColorScheme-Highlight { color:#4285f4; } .ColorScheme-Text { color:#dfdfdf; } .ColorScheme-ViewBackground { color:#242424; } .ColorScheme-NegativeText { color:#f44336; } .ColorScheme-PositiveText { color:#4caf50; } .ColorScheme-NeutralText { color:#ff9800; }</style>
 </defs>
 <g id="22-22-quota" transform="translate(-5 -27)">
  <rect x="5" y="5" width="22" height="22" opacity=".001"/>
  <g transform="translate(8,8.0002)">
   <path class="ColorScheme-Text" transform="translate(-2.976 23.981)" d="m5.9766-23.98c-1 0-1 1.1426-1 1.1426v13.715s0 1.1426 1 1.1426h7v-5c0-0.24863 0.07186-0.46416 0.17383-0.65039-0.62663 0.40747-1.3707 0.65039-2.1738 0.65039h-4v-4c0-2.2091 1.7909-4 4-4 2.209 0 4 1.7909 4 4 0 0.97422-0.36252 1.855-0.94141 2.5488 0.16076-0.08044 0.32747-0.14627 0.50391-0.20508 0.68766-0.22922 1.519-0.34375 2.4375-0.34375v-7.8574c0-1e-4 0-1.1426-1-1.1426zm5 5c-1.1046 0-2 0.8954-2 2s0.8954 2 2 2c1.1046 0 2-0.8954 2-2s-0.8954-2-2-2zm6 5a3 1 0 0 0-3 1v5a3 1 0 0 0 3 1 3 1 0 0 0 3-1v-5a3 1 0 0 0-3-1zm-0.0918 1a3 1 0 0 1 0.0918 0 3 1 0 0 1 2 0.25781v0.48633a3 1 0 0 1-2 0.25586 3 1 0 0 1-2-0.25781v-0.48633a3 1 0 0 1 1.9082-0.25586zm-1.9082 1.7441a3 1 0 0 0 2 0.25586 3 1 0 0 0 2-0.25586v1a3 1 0 0 1-2 0.25586 3 1 0 0 1-2-0.25781zm0 2a3 1 0 0 0 2 0.25586 3 1 0 0 0 2-0.25586v1a3 1 0 0 1-2 0.25586 3 1 0 0 1-2-0.25781z" fill="currentColor"/>
  </g>
 </g>
 <g id="22-22-quota-low" transform="translate(27,-27)">
  <rect x="5" y="5" width="22" height="22" opacity=".001"/>
  <g transform="translate(8,8.0002)">
   <path class="ColorScheme-Text" transform="translate(-34.976 23.981)" d="m37.977-23.98c-1 0-1 1.1426-1 1.1426v13.715s0 1.1426 1 1.1426h7v-5c0-0.24863 0.07186-0.46416 0.17383-0.65039-0.62663 0.40747-1.3707 0.65039-2.1738 0.65039h-4v-4c0-2.2091 1.7909-4 4-4 2.209 0 4 1.7909 4 4 0 0.97422-0.36252 1.855-0.94141 2.5488 0.16076-0.08044 0.32747-0.14627 0.50391-0.20508 0.68766-0.22922 1.519-0.34375 2.4375-0.34375v-7.8574c0-1e-4 0-1.1426-1-1.1426zm5 5c-1.1046 0-2 0.8954-2 2s0.8954 2 2 2 2-0.8954 2-2c0-1.1046-0.8954-2-2-2zm6 5c-1.6569 0-3 0.44772-3 1v5c0 0.55229 1.3431 1 3 1 1.6569 0 3-0.44771 3-1v-5c0-0.55228-1.3431-1-3-1zm0 1c0.73919 8.7e-4 1.4514 0.09268 2 0.25781v0.48633c-0.54948 0.16443-1.2616 0.25552-2 0.25586-0.73918-8.7e-4 -1.4514-0.09268-2-0.25781v-0.48633c0.54948-0.16443 1.2616-0.25553 2-0.25586zm-2 1.7441c0.54948 0.16443 1.2616 0.25552 2 0.25586 0.73841-3.34e-4 1.4505-0.09143 2-0.25586v1c-0.54948 0.16443-1.2616 0.25553-2 0.25586-0.73918-8.699e-4 -1.4514-0.09268-2-0.25781z" fill="currentColor"/>
  </g>
 </g>
 <g id="22-22-quota-high" transform="translate(59,-27)">
  <rect x="5" y="5" width="22" height="22" opacity=".001"/>
  <g transform="translate(8,8.0002)">
   <path class="ColorScheme-Text" transform="translate(-8,-8.0002)" d="m11 8c-1 0-1 1.1426-1 1.1426v13.715s0 1.1426 1 1.1426h7v-5c0-0.24863 0.07186-0.46416 0.17383-0.65039-0.62663 0.40747-1.3707 0.65039-2.1738 0.65039h-4v-4c0-2.2091 1.7909-4 4-4 2.209 0 4 1.7909 4 4 0 0.97422-0.36252 1.855-0.94141 2.5488 0.16076-0.08044 0.32747-0.14627 0.50391-0.20508 0.68766-0.22922 1.519-0.34375 2.4375-0.34375v-7.8574c0-1e-4 0-1.1426-1-1.1426zm5 5c-1.1046 0-2 0.8954-2 2s0.8954 2 2 2 2-0.8954 2-2-0.8954-2-2-2z" fill="currentColor"/>
  </g>
  <path class="ColorScheme-NeutralText" d="m22 18c-1.6569 0-3 0.44772-3 1v5c0 0.55228 1.3431 1 3 1s3-0.44772 3-1v-5c0-0.55228-1.3431-1-3-1zm0 1c0.73919 8.7e-4 1.4514 0.09268 2 0.25781v0.48633c-0.54948 0.16443-1.2616 0.25552-2 0.25586-0.73919-8.7e-4 -1.4514-0.092677-2-0.25781v-0.48633c0.54948-0.16443 1.2616-0.25552 2-0.25586z" fill="currentColor"/>
 </g>
 <g id="22-22-quota-critical" transform="translate(91,-27)">
  <rect x="5" y="5" width="22" height="22" opacity=".001"/>
  <g transform="translate(8,8.0002)">
   <path class="ColorScheme-NegativeText" transform="translate(-98.976 23.981)" d="m101.98-23.98c-1 0-1 1.1426-1 1.1426v13.715s0 1.1426 1 1.1426h7v-5c0-0.24863 0.0719-0.46416 0.17383-0.65039-0.62663 0.40747-1.3707 0.65039-2.1738 0.65039h-4v-4c0-2.2091 1.7909-4 4-4 2.209 0 4 1.7909 4 4 0 0.97422-0.36252 1.855-0.9414 2.5488 0.16075-0.08044 0.32747-0.14627 0.5039-0.20508 0.68766-0.22922 1.519-0.34375 2.4375-0.34375v-7.8574c0-1e-4 0-1.1426-1-1.1426zm5 5c-1.1046 0-2 0.8954-2 2s0.8954 2 2 2 2-0.8954 2-2-0.8954-2-2-2zm6 5c-1.6568 0-3 0.44772-3 1v5c0 0.55229 1.3432 1 3 1 1.6569 0 3-0.44771 3-1v-5c0-0.55228-1.3431-1-3-1zm0 1c0.73919 8.7e-4 1.4514 0.09268 2 0.25781v0.48633c-0.54948 0.16443-1.2616 0.25552-2 0.25586-0.73918-8.7e-4 -1.4514-0.09268-2-0.25781v-0.48633c0.54949-0.16443 1.2616-0.25553 2-0.25586z" fill="currentColor"/>
  </g>
 </g>
 <g id="22-22-quota-missing" transform="translate(123,-27)">
  <rect x="5" y="5" width="22" height="22" opacity=".001"/>
  <g transform="translate(8,8.0002)">
   <path class="ColorScheme-Text" transform="translate(-130.98 23.981)" d="m133.98-23.98c-1 0-1 1.1426-1 1.1426v13.715s0 1.1426 1 1.1426h7v-5c0-0.24863 0.0719-0.46416 0.17383-0.65039-0.62663 0.40747-1.3707 0.65039-2.1738 0.65039h-4v-4c0-2.2091 1.7909-4 4-4 2.209 0 4 1.7909 4 4 0 0.97422-0.36252 1.855-0.9414 2.5488 0.16075-0.08044 0.32747-0.14627 0.5039-0.20508 0.68766-0.22922 1.519-0.34375 2.4375-0.34375v-7.8574c0-1e-4 0-1.1426-1-1.1426zm5 5c-1.1046 0-2 0.8954-2 2s0.8954 2 2 2 2-0.8954 2-2-0.8954-2-2-2zm6 5a3 1 0 0 0-3 1v5a3 1 0 0 0 3 1 3 1 0 0 0 3-1v-5a3 1 0 0 0-3-1zm-0.0918 1a3 1 0 0 1 0.0918 0 3 1 0 0 1 2 0.25781v0.48633a3 1 0 0 1-2 0.25586 3 1 0 0 1-2-0.25781v-0.48633a3 1 0 0 1 1.9082-0.25586zm-1.9082 1.7441a3 1 0 0 0 2 0.25586 3 1 0 0 0 2-0.25586v1a3 1 0 0 1-2 0.25586 3 1 0 0 1-2-0.25781zm0 2a3 1 0 0 0 2 0.25586 3 1 0 0 0 2-0.25586v1a3 1 0 0 1-2 0.25586 3 1 0 0 1-2-0.25781z" fill="currentColor" opacity=".35"/>
  </g>
 </g>
 <g id="quota">
  <rect width="32" height="32" opacity=".001"/>
  <g transform="matrix(1.5,0,0,1.5,4,4.0003)">
   <path class="ColorScheme-Text" transform="matrix(.66667 0 0 .66667 -2.6667 -2.6669)" d="m8.5 4c-1.5 0-1.5 1.7129-1.5 1.7129v11.787 8.7871s0 1.7129 1.5 1.7129h4.5 5.0586c-0.025097-0.13895-0.058341-0.27306-0.058594-0.42383v-0.001953-7.1484-0.001953c4.99e-4 -0.30389 0.068767-0.57378 0.16016-0.82812a6 6 0 0 1-2.1602 0.4043h-6v-6a6 6 0 0 1 6-6 6 6 0 0 1 6 6 6 6 0 0 1-1.0605 3.4043c0.92042-0.26948 1.9423-0.4043 3.0605-0.4043 0.34252 0 0.67488 0.013056 1 0.037109v-11.324c0-1.5e-4 0-1.7129-1.5-1.7129h-15zm7.5 7a3 3 0 0 0-3 3 3 3 0 0 0 3 3 3 3 0 0 0 3-3 3 3 0 0 0-3-3zm8 8a4 1.4286 0 0 0-4 1.4277v7.1445a4 1.4286 0 0 0 4 1.4277 4 1.4286 0 0 0 4-1.4277v-7.1445a4 1.4286 0 0 0-4-1.4277zm-0.13672 1.0293a4.5 1.4286 0 0 1 0.13672 0 4.5 1.4286 0 0 1 3 0.36719v0.69531a4.5 1.4286 0 0 1-3 0.36523 4.5 1.4286 0 0 1-3-0.36914v-0.69336a4.5 1.4286 0 0 1 2.8633-0.36523zm-2.8633 2.9766a4.5 1.4286 0 0 0 3 0.36524 4.5 1.4286 0 0 0 3-0.36524v1.4277a4.5 1.4286 0 0 1-3 0.36719 4.5 1.4286 0 0 1-3-0.36914v-1.4258zm0 3.1992a4.5 1.4286 0 0 0 3 0.36719 4.5 1.4286 0 0 0 3-0.36719v1.4297a4.5 1.4286 0 0 1-3 0.36523 4.5 1.4286 0 0 1-3-0.36914v-1.4258z" fill="currentColor"/>
  </g>
 </g>
 <g id="quota-low" transform="translate(32)">
  <rect width="32" height="32" opacity=".001"/>
  <g transform="matrix(1.5,0,0,1.5,4,4.0003)">
   <path class="ColorScheme-Text" transform="matrix(.66667 0 0 .66667 -24 -2.6669)" d="m40.5 4c-1.5 0-1.5 1.7129-1.5 1.7129v11.787 8.7871s0 1.7129 1.5 1.7129h4.5 5.0586c-0.025097-0.13895-0.058341-0.27306-0.058594-0.42383v-0.001953-7.1484-0.001953c4.99e-4 -0.30389 0.06877-0.57378 0.16016-0.82812a6 6 0 0 1-2.1602 0.4043h-6v-6a6 6 0 0 1 6-6 6 6 0 0 1 6 6 6 6 0 0 1-1.0605 3.4043c0.92042-0.26948 1.9423-0.4043 3.0605-0.4043 0.34252 0 0.67488 0.013059 1 0.037109v-11.324c0-1.5e-4 0-1.7129-1.5-1.7129h-15zm7.5 7a3 3 0 0 0-3 3 3 3 0 0 0 3 3 3 3 0 0 0 3-3 3 3 0 0 0-3-3zm8 8c-2.2082 0-3.9987 0.63908-4 1.4277v7.1445c0.001294 0.78865 1.7918 1.4277 4 1.4277s3.9987-0.63908 4-1.4277v-7.1445c-0.001294-0.78865-1.7918-1.4277-4-1.4277zm-0.13672 1.0293c0.04557-2.2e-4 0.09115-2.2e-4 0.13672 0 1.1083 9.37e-4 2.1766 0.13168 3 0.36719v0.69531c-0.82435 0.23479-1.8925 0.36483-3 0.36523-1.1091-0.0015-2.1775-0.13293-3-0.36914v-0.69336c0.789-0.22507 1.8031-0.35443 2.8633-0.36523zm-2.8633 2.9766c0.82435 0.23479 1.8925 0.36483 3 0.36524 1.1075-4.01e-4 2.1756-0.13044 3-0.36524v1.4277c-0.82344 0.2355-1.8917 0.36625-3 0.36719-1.1091-0.0015-2.1775-0.13293-3-0.36914v-1.4258z" fill="currentColor"/>
  </g>
 </g>
 <g id="quota-high" transform="translate(64)">
  <rect width="32" height="32" opacity=".001"/>
  <g transform="matrix(1.5,0,0,1.5,4,4.0003)">
   <path class="ColorScheme-Text" transform="matrix(.66667 0 0 .66667 -2.6667 -2.6669)" d="m8.5 4c-1.5 0-1.5 1.7129-1.5 1.7129v20.574s0 1.7129 1.5 1.7129h9.5586c-0.025097-0.13895-0.058341-0.27306-0.058594-0.42383v-7.1524c4.99e-4 -0.30389 0.06877-0.57378 0.16016-0.82812a6 6 0 0 1-2.1602 0.40439h-6v-6a6 6 0 0 1 6-6 6 6 0 0 1 6 6 6 6 0 0 1-1.0605 3.4043c0.92042-0.26948 1.9423-0.4043 3.0605-0.4043 0.34252 0 0.67488 0.01306 1 0.03711v-11.324c0-1.5e-4 0-1.7129-1.5-1.7129zm7.5 7a3 3 0 0 0-3 3 3 3 0 0 0 3 3 3 3 0 0 0 3-3 3 3 0 0 0-3-3z" fill="currentColor"/>
  </g>
  <path class="ColorScheme-NeutralText" d="m24 19c-2.2082 0-3.9987 0.63908-4 1.4277v7.1445c0.001294 0.78865 1.7918 1.4277 4 1.4277s3.9987-0.63908 4-1.4277v-7.1445c-0.001294-0.78865-1.7918-1.4277-4-1.4277zm-0.13672 1.0293c0.04557-2.2e-4 0.09115-2.2e-4 0.13672 0 1.1083 9.37e-4 2.1766 0.13168 3 0.36719v0.69531c-0.82435 0.23479-1.8925 0.36483-3 0.36523-1.1091-0.0015-2.1775-0.13293-3-0.36914v-0.69336c0.789-0.22507 1.8031-0.35443 2.8633-0.36523z" fill="currentColor"/>
 </g>
 <g id="quota-critical" transform="translate(96)">
  <rect width="32" height="32" opacity=".001"/>
  <g transform="matrix(1.5,0,0,1.5,4,4.0003)">
   <path class="ColorScheme-NegativeText" transform="matrix(.66667 0 0 .66667 -66.667 -2.6669)" d="m104.5 4c-1.5 0-1.5 1.7129-1.5 1.7129v11.787 8.7871s0 1.7129 1.5 1.7129h4.5 5.0586c-0.02509-0.13895-0.05834-0.27306-0.05859-0.42383v-0.001953-7.1484-0.001953c5e-4 -0.30389 0.06877-0.57378 0.16016-0.82812a6 6 0 0 1-2.1602 0.4043h-6v-6a6 6 0 0 1 6-6 6 6 0 0 1 6 6 6 6 0 0 1-1.0606 3.4043c0.92042-0.26948 1.9423-0.4043 3.0606-0.4043 0.34252 0 0.67488 0.013059 1 0.037109v-11.324c0-1.5e-4 0-1.7129-1.5-1.7129h-15zm7.5 7a3 3 0 0 0-3 3 3 3 0 0 0 3 3 3 3 0 0 0 3-3 3 3 0 0 0-3-3zm8 8c-2.2082 0-3.9987 0.63908-4 1.4277v7.1445c0.00129 0.78865 1.7918 1.4277 4 1.4277s3.9987-0.63908 4-1.4277v-7.1445c-0.00129-0.78865-1.7918-1.4277-4-1.4277zm-0.13672 1.0293c0.04557-2.2e-4 0.09115-2.2e-4 0.13672 0 1.1083 9.37e-4 2.1766 0.13168 3 0.36719v0.69531c-0.82435 0.23479-1.8925 0.36483-3 0.36523-1.1091-0.0015-2.1775-0.13293-3-0.36914v-0.69336c0.789-0.22507 1.8031-0.35443 2.8633-0.36523z" fill="currentColor"/>
  </g>
 </g>
 <g id="quota-missing" transform="translate(128)">
  <rect width="32" height="32" opacity=".001"/>
  <g transform="matrix(1.5,0,0,1.5,4,4.0003)">
   <path class="ColorScheme-Text" transform="matrix(.66667 0 0 .66667 -88 -2.6669)" d="m136.5 4c-1.5 0-1.5 1.7129-1.5 1.7129v11.787 8.7871s0 1.7129 1.5 1.7129h4.5 5.0586c-0.02509-0.13895-0.05834-0.27306-0.05859-0.42383v-0.001953-7.1484-0.001953c5e-4 -0.30389 0.06877-0.57378 0.16016-0.82812a6 6 0 0 1-2.1602 0.4043h-6v-6a6 6 0 0 1 6-6 6 6 0 0 1 6 6 6 6 0 0 1-1.0606 3.4043c0.92042-0.26948 1.9423-0.4043 3.0606-0.4043 0.34252 0 0.67488 0.013059 1 0.037109v-11.324c0-1.5e-4 0-1.7129-1.5-1.7129h-15zm7.5 7a3 3 0 0 0-3 3 3 3 0 0 0 3 3 3 3 0 0 0 3-3 3 3 0 0 0-3-3zm8 8a4 1.4286 0 0 0-4 1.4277v7.1445a4 1.4286 0 0 0 4 1.4277 4 1.4286 0 0 0 4-1.4277v-7.1445a4 1.4286 0 0 0-4-1.4277zm-0.13672 1.0293a4.5 1.4286 0 0 1 0.13672 0 4.5 1.4286 0 0 1 3 0.36719v0.69531a4.5 1.4286 0 0 1-3 0.36523 4.5 1.4286 0 0 1-3-0.36914v-0.69336a4.5 1.4286 0 0 1 2.8633-0.36523zm-2.8633 2.9766a4.5 1.4286 0 0 0 3 0.36524 4.5 1.4286 0 0 0 3-0.36524v1.4277a4.5 1.4286 0 0 1-3 0.36719 4.5 1.4286 0 0 1-3-0.36914v-1.4258zm0 3.1992a4.5 1.4286 0 0 0 3 0.36719 4.5 1.4286 0 0 0 3-0.36719v1.4297a4.5 1.4286 0 0 1-3 0.36523 4.5 1.4286 0 0 1-3-0.36914v-1.4258z" fill="currentColor" opacity=".35"/>
  </g>
 </g>
</svg>
