<?xml version="1.0" encoding="UTF-8"?>
<svg width="32" height="32" version="1.1" xmlns="http://www.w3.org/2000/svg">
 <defs id="materia">
  <style id="current-color-scheme" type="text/css">.ColorScheme-Text { color:#dfdfdf; } .ColorScheme-Highlight { color:#4285f4; }</style>
 </defs>
 <g id="sirikali">
  <rect width="32" height="32" opacity=".001"/>
  <path class="ColorScheme-Text" d="m16 2c-4.4321 0-8 3.5679-8 8v3h-1.5996c-0.77503 0-1.4004 0.72338-1.4004 1.498v14.102c0 0.77467 0.62536 1.4004 1.4004 1.4004h19.199c0.77471 0 1.4004-0.62572 1.4004-1.4004v-14.102c0-0.77467-0.62725-1.5478-1.4004-1.498h-1.5996v-3c0-4.4322-3.5686-8-8-8zm0 3c2.9378 0 5 2.1781 5 5.0273v2.9727h-10v-2.9727c0-2.8496 2.0617-5.0273 5-5.0273zm0 12c1.6569 0 3 1.3431 3 3-9.55e-4 1.2705-0.80214 2.4027-2 2.8262v3.1738c0 0.55228-0.44772 1-1 1s-1-0.44772-1-1v-3.1758c-1.1972-0.42327-1.9982-1.5544-2-2.8242 0-1.6569 1.3431-3 3-3z" fill="currentColor"/>
 </g>
 <g id="22-22-sirikali" transform="translate(27,5)">
  <rect x="5" y="5" width="22" height="22" opacity=".001"/>
  <path class="ColorScheme-Text" d="m16 8c-2.6592 0-3.8669 2.1596-4 4.9238v2.0762h-1.1602c-0.465 0-0.83984 0.45472-0.83984 0.93164v7.207c0 0.47692 0.37484 0.86133 0.83984 0.86133h10.32c0.465 0 0.83984-0.3844 0.83984-0.86133v-7.207c0-0.47692-0.37484-0.93164-0.83984-0.93164h-1.1602v-2.0762c0-2.7274-1.3408-4.9238-4-4.9238zm0 2c1.385 0 2 1.3306 2 2.9844v2.0156h-4v-2.0156c0-1.6537 0.615-2.9844 2-2.9844zm0 7c1.1046 0 2 0.91789 2 2.0508-9.29e-4 0.74064-0.39168 1.4085-1 1.7695v1.1797a1 1 0 0 1-1 1 1 1 0 0 1-1-1v-1.1797c-0.60831-0.36104-0.99904-1.0289-1-1.7695 0-1.1329 0.89543-2.0508 2-2.0508z" fill="currentColor"/>
 </g>
</svg>
