<?xml version="1.0" encoding="UTF-8"?>
<svg width="32" height="32" version="1.1" xmlns="http://www.w3.org/2000/svg">
 <defs id="materia">
  <style id="current-color-scheme" type="text/css">.ColorScheme-Background {color:#181818; } .ColorScheme-ButtonBackground { color:#343434; } .ColorScheme-Highlight { color:#4285f4; } .ColorScheme-Text { color:#dfdfdf; } .ColorScheme-ViewBackground { color:#242424; } .ColorScheme-NegativeText { color:#f44336; } .ColorScheme-PositiveText { color:#4caf50; } .ColorScheme-NeutralText { color:#ff9800; }</style>
 </defs>
 <g id="22-22-slc-like" transform="translate(31,-23)">
  <rect x="1" y="1" width="22" height="22" opacity=".001"/>
  <path class="ColorScheme-Text" d="m8 4c-2.7614 0-5 2.2386-5 5 0 5 7 9 9 11 2-2 9-6 9-11 0-2.7614-2.2386-5-5-5-1.6396 0-3.0882 0.78077-4 2-0.91181-1.2192-2.3604-2-4-2z" fill="currentColor"/>
 </g>
 <g id="22-22-slc-share" transform="translate(-1 -23)">
  <rect x="1" y="1" width="22" height="22" opacity=".001"/>
  <path class="ColorScheme-Text" d="m18 4c-1.6569 0-3 1.3431-3 3 0 0.087382 0.02393 0.16451 0.03125 0.25l-6.75 2.8125c-0.55028-0.64728-1.3651-1.0625-2.2812-1.0625-1.6569 0-3 1.3431-3 3s1.3431 3 3 3c0.91614 0 1.731-0.41522 2.2812-1.0625l6.75 2.8125c-0.007321 0.085486-0.03125 0.16262-0.03125 0.25 0 1.6569 1.3431 3 3 3s3-1.3431 3-3-1.3431-3-3-3c-0.91614 0-1.731 0.41522-2.2812 1.0625l-6.75-2.8125c0.0073208-0.085486 0.03125-0.16262 0.03125-0.25s-0.023929-0.16451-0.03125-0.25l6.75-2.8125c0.55028 0.64728 1.3651 1.0625 2.2812 1.0625 1.6569 0 3-1.3431 3-3s-1.3431-3-3-3zm0 2c0.55228 0 1 0.44772 1 1s-0.44772 1-1 1-1-0.44772-1-1 0.44772-1 1-1zm-12 5c0.55228 0 1 0.44772 1 1s-0.44772 1-1 1-1-0.44772-1-1 0.44772-1 1-1zm12 5c0.55228 0 1 0.44772 1 1s-0.44772 1-1 1-1-0.44772-1-1 0.44772-1 1-1z" fill="currentColor"/>
 </g>
 <g id="22-22-slc-connect" transform="translate(63,-23)">
  <rect x="1" y="1" width="22" height="22" opacity=".001"/>
  <path class="ColorScheme-Text" d="m14 4c-0.7785 0.7785-0.93671 2.1687-0.03125 3.6875l-4.25 2.8438c-0.52841-0.21321-1.0956-0.37218-1.6562-0.375-0.72876-0.0037-1.4375 0.21875-2.0625 0.84375l3 3-4 4-1 2 2-1 4-4 3 3c1.107-1.107 0.96475-2.5078 0.46875-3.7188l2.8438-4.25c1.5188 0.90546 2.909 0.74725 3.6875-0.03125z" fill="currentColor"/>
 </g>
 <g id="slc-share">
  <rect width="32" height="32" opacity=".001"/>
  <path class="ColorScheme-Text" d="m24.5 4a4.5 4.5 0 0 0-4.5 4.5 4.5 4.5 0 0 0 0.011719 0.22656l-9.166 3.7734a4.5 4.5 0 0 0-3.3457-1.5 4.5 4.5 0 0 0-4.5 4.5 4.5 4.5 0 0 0 4.5 4.5 4.5 4.5 0 0 0 3.1992-1.3379l9.3281 4.3906a4.5 4.5 0 0 0-0.027344 0.44727 4.5 4.5 0 0 0 4.5 4.5 4.5 4.5 0 0 0 4.5-4.5 4.5 4.5 0 0 0-4.5-4.5 4.5 4.5 0 0 0-3.1992 1.3379l-9.3281-4.3906a4.5 4.5 0 0 0 0.027344-0.44727 4.5 4.5 0 0 0-0.011719-0.22656l9.1641-3.7734a4.5 4.5 0 0 0 3.3477 1.5 4.5 4.5 0 0 0 4.5-4.5 4.5 4.5 0 0 0-4.5-4.5zm0 3a1.5 1.5 0 0 1 1.5 1.5 1.5 1.5 0 0 1-1.5 1.5 1.5 1.5 0 0 1-1.5-1.5 1.5 1.5 0 0 1 1.5-1.5zm-17 7a1.5 1.5 0 0 1 1.5 1.5 1.5 1.5 0 0 1-1.5 1.5 1.5 1.5 0 0 1-1.5-1.5 1.5 1.5 0 0 1 1.5-1.5zm17 8a1.5 1.5 0 0 1 1.5 1.5 1.5 1.5 0 0 1-1.5 1.5 1.5 1.5 0 0 1-1.5-1.5 1.5 1.5 0 0 1 1.5-1.5z" fill="currentColor"/>
 </g>
 <g id="slc-like" transform="translate(32)">
  <rect width="32" height="32" opacity=".001"/>
  <path class="ColorScheme-Text" d="m9.5 4c-4.1421 0-7.5 3.3579-7.5 7.5 0 7.5 10.5 13.5 13.5 16.5 3-3 13.5-9 13.5-16.5 0-4.1421-3.3579-7.5-7.5-7.5-2.4594 0-4.6323 1.1711-6 3-1.3677-1.8289-3.5406-3-6-3z" fill="currentColor"/>
 </g>
 <g id="slc-connect" transform="translate(64)">
  <rect width="32" height="32" opacity=".001"/>
  <path class="ColorScheme-Text" d="m19 4c-1.1678 1.1678-1.4051 3.253-0.04688 5.5312l-6.1746 4.0654c-0.79261-0.31981-1.6434-0.55828-2.4844-0.5625-1.0931-0.0056-2.1563 0.32812-3.0938 1.2656l4.5 4.5-6.2004 6.2002-1.5 3 3-1.5 6.2004-6.2002 4.5 4.5c1.6604-1.6604 1.4471-3.7617 0.70312-5.5781l4.0652-6.1748c2.2782 1.3582 4.3635 1.1209 5.5313-0.04688z" fill="currentColor"/>
 </g>
</svg>
