<?xml version="1.0" encoding="UTF-8"?>
<svg width="32" height="32" version="1.1" xmlns="http://www.w3.org/2000/svg">
 <rect x="2" y="3" width="28" height="28" rx="1.4" ry="1.4" opacity=".2"/>
 <rect x="2" y="2" width="28" height="28" rx="1.4" ry="1.4" fill="#2c9bff"/>
 <path d="m18 6-4 0.60547v14.469l4-1.0742v-5.5898l4 6.5898 4-1.5-5-6 5.002-6.498-3.8809-1.002-4.1211 6.5586zm-8.1445 3.9238c-0.094592 0-0.18919 0.036841-0.26172 0.10937l-1.5723 1.5723c-0.14507 0.14507-0.11014 0.35231 0 0.52539l1.627 2.5547c-0.12054 0.25022-0.22492 0.50791-0.3125 0.77148-0.00385 0.01134-0.00989 0.02184-0.013672 0.0332l-2.9512 0.65625c-0.20027 0.044513-0.37109 0.16594-0.37109 0.3711v1.9648c0 0.20516 0.17082 0.32659 0.37109 0.37109l2.9512 0.65625c0.00646 0.0194 0.016787 0.03731 0.023437 0.05664 0.085245 0.25604 0.18635 0.50653 0.30273 0.75l-1.627 2.5527c-0.11014 0.17308-0.14507 0.38032 0 0.52539l1.5723 1.5723c0.14507 0.14507 0.37837 0.14507 0.52344 0l2.5508-1.625c0.25076 0.12195 0.5091 0.22764 0.77344 0.31641 0.01735 0.0061 0.03339 0.01554 0.05078 0.02148l0.6543 2.9492c0 0.20516 0.16594 0.37109 0.37109 0.37109h2.2207c0.20516 0 0.32659-0.17082 0.37109-0.37109l0.6543-3.0391c0.3006-0.11301 0.59242-0.24815 0.87305-0.4043l2.4902 1.7812c0.14507 0.14507 0.37837 0.14507 0.52344 0l1.5723-1.5723c0.14507-0.14507 0.11014-0.35231 0-0.52539l-0.94726-1.4375-0.09961 0.03711c-0.22525 0.08461-0.47882-0.0032-0.60352-0.20898l-0.99609-1.6406c-0.82994 1.9852-2.7899 3.3809-5.0762 3.3809-3.0376 0-5.5-2.4624-5.5-5.5 0-2.3309 1.4528-4.3184 3.5-5.1191v-1.0957l-0.0078 0.03516c-0.02208 0.0075-0.04245 0.01957-0.06445 0.02734-0.26082 0.08662-0.5159 0.18969-0.76367 0.30859l-2.5469-1.623c-0.072536-0.072533-0.16713-0.10937-0.26172-0.10937z" opacity=".2"/>
 <path d="m18 5-4 0.60547v14.469l4-1.0742v-5.5898l4 6.5898 4-1.5-5-6 5.002-6.498-3.8809-1.002-4.1211 6.5586v-6.5586zm-8.1445 3.9238c-0.094592 0-0.18919 0.036841-0.26172 0.10938l-1.5723 1.5723c-0.14507 0.14507-0.11014 0.35231 0 0.52539l1.627 2.5547c-0.12054 0.25022-0.22492 0.50791-0.3125 0.77148-0.00385 0.01134-0.0098899 0.021843-0.013672 0.033203l-2.9512 0.65625c-0.20027 0.04451-0.37109 0.16594-0.37109 0.37109v0.98242 0.98242c0 0.20516 0.17082 0.32659 0.37109 0.37109l2.9512 0.65625c0.00646 0.0194 0.016788 0.03731 0.023438 0.05664 0.085245 0.25604 0.18635 0.50653 0.30273 0.75l-1.627 2.5527c-0.11014 0.17308-0.14507 0.38032 0 0.52539l1.5723 1.5723c0.14507 0.14507 0.37837 0.14507 0.52344 0l2.5508-1.625c0.25076 0.12195 0.5091 0.22764 0.77344 0.31641 0.01735 0.0061 0.033392 0.015545 0.050782 0.021485l0.6543 2.9492c0 0.20516 0.16594 0.37109 0.37109 0.37109h2.2207c0.20516 0 0.32659-0.17082 0.37109-0.37109l0.6543-3.0391c0.3006-0.11301 0.59242-0.24815 0.87305-0.4043l2.4902 1.7812c0.14507 0.14507 0.37837 0.14507 0.52344 0l1.5723-1.5723c0.14507-0.14507 0.11014-0.35231 0-0.52539l-0.94726-1.4375-0.09961 0.037109c-0.22525 0.08461-0.47882-0.0032-0.60352-0.20898l-0.99609-1.6406c-0.82994 1.9852-2.7899 3.3809-5.0762 3.3809-3.0376 0-5.5-2.4624-5.5-5.5 0-2.3309 1.4528-4.3184 3.5-5.1191v-1.0957l-0.007812 0.035156c-0.022081 0.007501-0.042454 0.019574-0.064454 0.027344-0.26082 0.08662-0.5159 0.18969-0.76367 0.30859l-2.5469-1.623c-0.072536-0.072534-0.16713-0.10938-0.26172-0.10938z" fill="#fff"/>
 <path d="m3.4004 2c-0.7756 0-1.4004 0.62479-1.4004 1.4004v1c0-0.7756 0.62479-1.4004 1.4004-1.4004h25.199c0.7756 0 1.4004 0.62479 1.4004 1.4004v-1c0-0.7756-0.62479-1.4004-1.4004-1.4004h-25.199z" fill="#fff" opacity=".2"/>
</svg>
