<?xml version="1.0" encoding="UTF-8"?>
<svg width="32" height="32" version="1" xmlns="http://www.w3.org/2000/svg">
 <defs id="materia">
  <style id="current-color-scheme" type="text/css">.ColorScheme-Background {color:#181818; } .ColorScheme-ButtonBackground { color:#343434; } .ColorScheme-Highlight { color:#4285f4; } .ColorScheme-Text { color:#dfdfdf; } .ColorScheme-ViewBackground { color:#242424; } .ColorScheme-NegativeText { color:#f44336; } .ColorScheme-PositiveText { color:#4caf50; } .ColorScheme-NeutralText { color:#ff9800; }</style>
 </defs>
 <g id="22-22-strawberry" transform="translate(27,5)">
  <rect x="5" y="5" width="22" height="22" opacity=".001"/>
  <path class="ColorScheme-Text" d="m17.087 8c-0.08879 0-0.11528 0.18102-0.06055 0.41992 0 0 0.15734 0.76195 1.2129 1.3203 0.73416 0.36295 0.73373 0.57337-0.0039 0.79102-0.32147 0.09485-0.71323 0.27353-0.86914 0.39844-0.25713 0.20601-0.16319 0.29093 1.0098 0.91602 0.71119 0.37901 1.425 0.80028 1.5859 0.93555 0.27933 0.23484 0.26763 0.2672-0.27734 0.72266-0.6084 0.50845-1.3281 1.6972-1.3281 2.1934 0 0.26826 0.11907 0.29164 1.1211 0.20703 0.61643-0.05205 1.2933-0.11848 1.5059-0.14648l0.38672-0.05078-0.05469 1.3496c-0.03035 0.74213-0.11895 1.5341-0.19726 1.7598-0.07831 0.22569-0.11075 0.44416-0.07227 0.48633 0.16202 0.17752 0.82204-0.21355 1.2754-0.75586 0.46348-0.55442 0.49325-0.56677 0.5918-0.22656 0.33187 0.60988 0.47919 1.1452 0.99414 1.6797 0.11499 0.01131 0.20161-0.13626 0.27539-0.43945 0.22714-0.93341 0.10531-1.8364-0.37305-2.7695-0.25777-0.50281-0.5095-1.2959-0.56054-1.7617s-0.13406-1.0066-0.18555-1.2031c-0.07824-0.29868 0.07175-0.47421 0.92188-1.0625 0.96799-0.66984 1.2196-1.0509 0.85352-1.2988-0.09096-0.06159-0.57154 0.12506-1.0664 0.41406-0.49486 0.289-0.99635 0.52539-1.1152 0.52539-0.11889 0-0.49128-0.36257-0.82812-0.80469-0.58542-0.76837-0.61328-0.85618-0.61328-1.9902 0-1.0776-0.03025-1.19-0.32617-1.2363-0.23918-0.037414-0.37807 0.085476-0.52148 0.46484-0.10745 0.28422-0.24821 0.51758-0.31445 0.51758-0.06624 0-0.72716-0.30509-1.4668-0.67773-0.73966-0.37264-1.4142-0.67773-1.5-0.67773zm-0.87305 1.041c-0.06635 0.00626-0.09727 0.00375-0.17188 0.011719-2.4427 0.26091-4.4796 1.7741-6.8105 5.0547-0.70383 0.99055-1.608 2.2617-2.0098 2.8262-1.6924 2.3781-1.6203 4.8194 0.17383 5.8457 1.1595 0.66328 2.2791 0.92538 4.0527 0.95117 0.89152 0.01295 2.1985 0.07777 2.9023 0.14258 1.9637 0.18084 2.2096 0.17624 3.5918-0.06445 1.547-0.2694 2.7389-0.83045 3.6973-1.7383 0.38599-0.36563 0.85247-1.0626 1.2422-1.7715-0.13591-0.21961-0.21651-0.4261-0.32812-0.64844-0.1576 0.13251-0.29984 0.30416-0.46875 0.4043-0.181 0.1073-0.361 0.2009-0.61914 0.25781s-0.76602 0.09377-1.1582-0.33594c-0.34777-0.38103-0.27254-0.5705-0.27734-0.69726-0.0048-0.12677 0.0069-0.21382 0.01953-0.29883 0.02531-0.17002 0.06514-0.3253 0.12305-0.49219-0.04121 0.11877 0.03562-0.17892 0.06836-0.4707s0.06203-0.65616 0.07617-1.002l0.0078-0.18945c-0.27147 0.02598-0.45615 0.04825-0.76367 0.07422-0.51148 0.04319-0.77161 0.09436-1.2012 0.01563-0.21478-0.03938-0.57352-0.17616-0.79102-0.48828-0.21749-0.31212-0.21289-0.58962-0.21289-0.73047 0-0.73165 0.27918-1.1125 0.58008-1.6094 0.20503-0.33855 0.48564-0.62531 0.75392-0.91993-0.24226-0.13988-0.50395-0.29063-0.7832-0.43945-0.5933-0.31618-0.88868-0.43519-1.2422-0.75586-0.08838-0.08017-0.19239-0.18347-0.28711-0.36524-0.09471-0.18176-0.15616-0.47262-0.10742-0.72461 0.09749-0.50397 0.35904-0.64139 0.47266-0.73242 0.11232-0.08999 0.21421-0.09022 0.31836-0.15234-0.21321-0.19981-0.53536-0.39137-0.6582-0.57812-0.089451-0.13599-0.1367-0.25804-0.18945-0.37891zm-1.0234 2.9688c0.10706-0.01419 0.21215-0.01409 0.30859 2e-3 0.12859 0.02139 0.24353 0.07166 0.33008 0.1582 0.34618 0.34618 0.11902 1.1349-0.26562 1.5195-0.38465 0.38466-0.97804 0.4165-1.3242 0.07032-0.34618-0.34618-0.31434-0.93957 0.07031-1.3242 0.21637-0.21637 0.55969-0.38322 0.88086-0.42578zm-4 2c0.10706-0.01419 0.21215-0.01409 0.30859 2e-3 0.12859 0.02139 0.24353 0.07166 0.33008 0.1582 0.34618 0.34619 0.11902 1.1349-0.26562 1.5195s-0.97803 0.4165-1.3242 0.07031c-0.34618-0.34618-0.31434-0.93957 0.07031-1.3242 0.21636-0.21636 0.55969-0.38322 0.88086-0.42578zm3 2c0.10706-0.01419 0.21215-0.01414 0.30859 2e-3 0.12859 0.02139 0.24353 0.07166 0.33008 0.1582 0.34618 0.34619 0.11903 1.1349-0.26562 1.5195-0.38465 0.38465-0.97803 0.4165-1.3242 0.07031-0.34618-0.34618-0.31434-0.93957 0.07031-1.3242 0.21637-0.21637 0.55969-0.38322 0.88086-0.42578zm4 1c0.10706-0.01419 0.21215-0.01414 0.30859 2e-3 0.12859 0.02139 0.24353 0.07166 0.33008 0.1582 0.34618 0.34618 0.11902 1.1349-0.26562 1.5195-0.38465 0.38465-0.97804 0.4165-1.3242 0.07031-0.34618-0.34618-0.31434-0.93957 0.07031-1.3242 0.21637-0.21636 0.55969-0.38322 0.88086-0.42578zm-9 1c0.10706-0.01419 0.21215-0.01414 0.30859 2e-3 0.12859 0.02139 0.24353 0.07166 0.33008 0.1582 0.34618 0.34618 0.11902 1.1349-0.26562 1.5195-0.38465 0.38465-0.97803 0.4165-1.3242 0.07031-0.34618-0.34618-0.31434-0.93957 0.07031-1.3242 0.21637-0.21637 0.55969-0.38322 0.88086-0.42578zm4 2c0.10706-0.01419 0.21215-0.01414 0.30859 2e-3 0.12859 0.02139 0.24353 0.07166 0.33008 0.1582 0.34618 0.34619 0.11903 1.1349-0.26562 1.5195-0.38465 0.38465-0.97804 0.4165-1.3242 0.07031-0.34618-0.34619-0.31434-0.93957 0.07031-1.3242 0.21637-0.21637 0.55969-0.38322 0.88086-0.42578zm3 1c0.10706-0.01419 0.21215-0.01414 0.30859 2e-3 0.12859 0.02139 0.24353 0.07166 0.33008 0.1582 0.34618 0.34618 0.11902 1.1349-0.26562 1.5195-0.38465 0.38465-0.97803 0.4165-1.3242 0.07031-0.34618-0.34619-0.31434-0.93957 0.07031-1.3242 0.21637-0.21636 0.55969-0.38322 0.88086-0.42578z" fill="currentColor"/>
 </g>
 <g id="strawberry">
  <rect width="32" height="32" opacity=".001"/>
  <path class="ColorScheme-Text" d="m19.133 4c-0.13318 0-0.17193 0.25725-0.089843 0.5957 0 0 0.23503 1.0781 1.8184 1.8691 1.1012 0.51418 1.1007 0.81277-0.005859 1.1211-0.4822 0.13437-1.0689 0.38945-1.3027 0.56641-0.3857 0.29185-0.24381 0.41133 1.5156 1.2969 1.0668 0.53693 2.1356 1.1326 2.377 1.3242 0.419 0.33269 0.40146 0.38016-0.41602 1.0254-0.9126 0.72031-1.9922 2.4045-1.9922 3.1074 0 0.38004 0.17665 0.41088 1.6797 0.29102 0.92465-0.07373 1.9429-0.16736 2.2617-0.20703l0.58008-0.072265-0.083985 1.9121c-0.04552 1.0514-0.17745 2.1725-0.29492 2.4922-0.11747 0.31973-0.1671 0.62972-0.10938 0.68945 0.24303 0.25149 1.234-0.30204 1.9141-1.0703 0.69522-0.78543 0.7389-0.80227 0.88672-0.32031 0.49781 0.86399 0.71976 1.6218 1.4922 2.3789 0.17249 0.01601 0.3034-0.19353 0.41406-0.62305 0.34071-1.3223 0.15894-2.6019-0.55859-3.9238-0.38666-0.71231-0.76719-1.8342-0.84375-2.4941-0.07656-0.65989-0.20206-1.4286-0.2793-1.707-0.11736-0.42313 0.10956-0.6705 1.3848-1.5039 1.452-0.94895 1.8284-1.4886 1.2793-1.8398-0.13644-0.087257-0.85536 0.17652-1.5977 0.58594-0.74229 0.40941-1.4955 0.74414-1.6738 0.74414-0.17833 0-0.73887-0.51234-1.2441-1.1387-0.87813-1.0885-0.91797-1.2118-0.91797-2.8184 0-1.5265-0.04439-1.6883-0.48828-1.7539-0.35878-0.053003-0.56808 0.12272-0.7832 0.66016-0.16117 0.40265-0.37329 0.73242-0.47266 0.73242-0.09937 0-1.0878-0.43303-2.1973-0.96094-1.1094-0.52791-2.1233-0.95898-2.252-0.95898zm-2.0293 1.0566c-0.1343 0.012232-0.20751 0.0075671-0.36719 0.025391-3.584 0.40006-6.574 2.7178-9.9941 7.748-1.0327 1.5188-2.3598 3.4703-2.9492 4.3359-2.4832 3.6465-2.3765 7.3893 0.25586 8.9629 1.7013 1.017 3.3448 1.4194 5.9473 1.459 1.3081 0.01987 3.2232 0.11741 4.2559 0.2168 2.8813 0.27728 3.2434 0.27143 5.2715-0.097657 2.2698-0.41308 4.0196-1.274 5.4258-2.666 0.72605-0.71872 1.6277-2.2569 2.25-3.6133-0.016466-0.025381-0.034079-0.050773-0.050781-0.076172-0.10872 0.070409-0.19586 0.18883-0.30859 0.25195-0.29974 0.16782-0.60237 0.31949-1.0566 0.41406-0.45427 0.094575-1.362 0.20062-2.1504-0.61523-0.71409-0.73896-0.57604-1.1511-0.58594-1.3984-0.00985-0.24735 0.013669-0.40204 0.037109-0.55078 0.046883-0.29748 0.11682-0.54819 0.2168-0.82031-0.118 0.32117 0.019546-0.12313 0.066407-0.51758 0.033439-0.28151 0.055785-0.63658 0.078124-0.97852-0.22187 0.01864-0.34044 0.034564-0.56836 0.052734-0.77132 0.06151-1.1504 0.15006-1.9043 0.019531-0.37694-0.065263-1.0505-0.29135-1.4941-0.89258-0.44361-0.60123-0.44141-1.1589-0.44141-1.4102 0-1.3755 0.48879-1.8784 0.96875-2.627 0.18094-0.2822 0.46356-0.50647 0.67188-0.77344-0.17808-0.0929-0.32805-0.17807-0.50976-0.26953-0.89309-0.4495-1.3171-0.58735-1.9629-1.1406-0.16145-0.13832-0.36117-0.3176-0.55664-0.67187-0.19548-0.35427-0.33381-0.95856-0.22852-1.4727 0.16194-0.79067 0.47518-1.0553 0.71484-1.2246-0.10193-0.12067-0.33685-0.23314-0.41797-0.34961-0.42229-0.60629-0.60153-1.2761-0.61328-1.3203zm-1.1562 4.9453c0.31434-0.014215 0.60214 0.059177 0.79688 0.25391 0.51928 0.51928 0.17854 1.7023-0.39844 2.2793-0.57697 0.57697-1.4651 0.62279-1.9844 0.10352-0.51928-0.51928-0.47346-1.4074 0.10352-1.9844 0.36061-0.36061 0.95852-0.62865 1.4824-0.65234zm-7 4c0.31434-0.014215 0.60215 0.059177 0.79688 0.25391 0.51928 0.51928 0.17854 1.7023-0.39844 2.2793-0.57697 0.57698-1.4651 0.62279-1.9844 0.10352-0.51928-0.51928-0.47346-1.4074 0.10352-1.9844 0.36061-0.36061 0.95852-0.62865 1.4824-0.65234zm5 1c0.31434-0.014215 0.60214 0.059177 0.79688 0.25391 0.51928 0.51928 0.17854 1.7023-0.39844 2.2793-0.57697 0.57697-1.4651 0.62279-1.9844 0.10352-0.51928-0.51928-0.47346-1.4074 0.10352-1.9844 0.36061-0.36061 0.95852-0.62865 1.4824-0.65234zm7 3c0.31434-0.014215 0.60215 0.059177 0.79688 0.25391 0.51928 0.51928 0.17854 1.7023-0.39844 2.2793-0.57698 0.57697-1.4651 0.62279-1.9844 0.10352-0.51928-0.51928-0.47346-1.4074 0.10352-1.9844 0.36061-0.36061 0.95852-0.62865 1.4824-0.65234zm-14 2c0.31434-0.014215 0.60215 0.059177 0.79688 0.25391 0.51928 0.51928 0.17854 1.7023-0.39844 2.2793-0.57697 0.57697-1.4651 0.62279-1.9844 0.10352-0.51928-0.51928-0.47346-1.4074 0.10352-1.9844 0.36061-0.36061 0.95852-0.62865 1.4824-0.65234zm6 2c0.31434-0.014215 0.60215 0.059178 0.79688 0.25391 0.51928 0.51928 0.17854 1.7023-0.39844 2.2793-0.57697 0.57697-1.4651 0.62279-1.9844 0.10352-0.51928-0.51928-0.47346-1.4074 0.10352-1.9844 0.36061-0.36061 0.95852-0.62865 1.4824-0.65234zm6 1c0.31434-0.014215 0.60214 0.059177 0.79688 0.25391 0.51928 0.51928 0.17854 1.7023-0.39844 2.2793-0.57697 0.57697-1.4651 0.62279-1.9844 0.10352-0.51928-0.51928-0.47346-1.4074 0.10352-1.9844 0.36061-0.36061 0.95852-0.62865 1.4824-0.65234z" fill="currentColor"/>
 </g>
</svg>
