<?xml version="1.0" encoding="UTF-8"?>
<svg width="32" height="32" version="1.1" xmlns="http://www.w3.org/2000/svg">
 <defs id="materia">
  <style id="current-color-scheme" type="text/css">.ColorScheme-Background {color:#181818; } .ColorScheme-ButtonBackground { color:#343434; } .ColorScheme-Highlight { color:#4285f4; } .ColorScheme-Text { color:#dfdfdf; } .ColorScheme-ViewBackground { color:#242424; } .ColorScheme-NegativeText { color:#f44336; } .ColorScheme-PositiveText { color:#4caf50; } .ColorScheme-NeutralText { color:#ff9800; }</style>
 </defs>
 <g id="system-user-prompt" transform="translate(352)">
  <rect width="32" height="32" opacity=".001"/>
  <path class="ColorScheme-Text" d="m3.4629 6c-1.1235-0.0013679-1.8268 1.0403-1.2656 1.873l2.1074 4.8984 0.69727 1.0312v6.7246c0 2.4767 2.5219 4.4727 5.0332 4.4727h15.432c2.5113 0 4.5332-1.996 4.5332-4.4727v-10.055c0-2.4767-2.0219-4.4727-4.5332-4.4727h-16.096zm8.1738 3h12.729c0.35257 0 0.63477 0.446 0.63477 1 0 0.554-0.2822 1-0.63477 1h-12.729c-0.35255 0-0.63672-0.446-0.63672-1 0-0.554 0.28417-1 0.63672-1zm0 5h12.729c0.35257 0 0.63477 0.446 0.63477 1s-0.2822 1-0.63477 1h-12.729c-0.35255 0-0.63672-0.446-0.63672-1s0.28417-1 0.63672-1zm0.08008 5h8.5703c0.39572 0 0.71289 0.446 0.71289 1 0 0.554-0.31717 1-0.71289 1h-8.5703c-0.39572 0-0.7168-0.446-0.7168-1 0-0.554 0.32108-1 0.7168-1z" fill="currentColor"/>
 </g>
 <g id="22-22-system-software-update" transform="translate(-54,-72)">
  <rect y="32" width="22" height="22" opacity=".001"/>
  <path class="ColorScheme-Text" d="m11 35c-4.4183 0-8 3.5817-8 8 0 4.418 3.5817 8 8 8 4.418 0 8-3.582 8-8 0-4.4183-3.582-8-8-8zm0 2c1.4958 0 2.9891 0.56016 4.1484 1.6719-0.3707 0.14382-0.7136 0.37797-0.97656 0.75l-0.46094 0.6543c-1.5688-1.4543-4.0135-1.4299-5.5391 0.095703-0.78091 0.78091-1.1679 1.8045-1.168 2.8281h0.29688a0.69924 0.5747 1.1588e-6 0 1 0.60547 0.86133l-0.65039 0.92578-0.65234 0.92578a0.69924 0.5747 1.1588e-6 0 1-1.209 0l-1.3008-1.8516a0.69924 0.5747 1.1588e-6 0 1 0.39844-0.83594 0.69924 0.5747 1.1588e-6 0 1 0.20508-0.025391h0.30469c7.06e-5 -1.5355 0.58441-3.0707 1.7559-4.2422 1.1716-1.1716 2.7067-1.7578 4.2422-1.7578zm4.9629 3.002a0.69924 0.5747 1.1588e-6 0 1 0.64258 0.28516l1.3008 1.8516a0.69924 0.5747 1.1588e-6 0 1-0.39844 0.83594 0.69924 0.5747 1.1588e-6 0 1-0.20508 0.025391h-0.30469c-7.1e-5 1.5355-0.58441 3.0707-1.7559 4.2422-1.1716 1.1716-2.7067 1.7578-4.2422 1.7578-1.4949 0-2.9874-0.55949-4.1465-1.6699 0.36373-0.14094 0.70826-0.37348 0.97461-0.75v-2e-3l0.46094-0.6543c1.5688 1.4543 4.0135 1.4299 5.5391-0.0957 0.78091-0.78087 1.1679-1.8045 1.168-2.8281h-0.29688a0.69924 0.5747 1.1588e-6 0 1-0.60547-0.86133l0.65039-0.92578 0.65234-0.92578a0.69924 0.5747 1.1588e-6 0 1 0.56641-0.28516z" fill="currentColor"/>
 </g>
 <g id="22-22-system-shutdown" transform="translate(-15,-45)">
  <rect x="5" y="5" width="22" height="22" opacity=".001"/>
  <path class="ColorScheme-Text" d="m15.985 7.9999a1.0001 0.99661 0 0 0-0.98535 1.0098v5.9795a1.0001 0.99661 0 1 0 2 0v-5.9795a1.0001 0.99661 0 0 0-1.0146-1.0098zm-3.3564 2.001a1.0002 1.001 0 0 0-0.5332 0.17676c-2.5474 1.7133-3.684 4.9001-2.7969 7.8408 0.88708 2.9407 3.595 4.9654 6.6641 4.9814 3.0691 0.01609 5.799-1.9799 6.7168-4.9111 0.9178-2.9312-0.18548-6.1293-2.7148-7.8691a1.0002 1.001 0 1 0-1.1328 1.6484c1.8126 1.2469 2.5972 3.5215 1.9395 5.6221s-2.5984 3.5193-4.7979 3.5078c-2.1994-0.01152-4.1241-1.4502-4.7598-3.5576-0.63571-2.1074 0.1715-4.3738 1.9971-5.6016a1.0002 1.001 0 0 0-0.58203-1.8379z" fill="currentColor"/>
 </g>
 <g id="22-22-system-reboot" transform="translate(7,-45)">
  <rect x="5" y="5" width="22" height="22" opacity=".001"/>
  <path class="ColorScheme-Text" d="m16.016 9a1.0001 1.0001 0 1 0-0.0039 2c1.3978 0.0024 2.7305 0.58941 3.6758 1.6191 0.85054 0.92657 1.3109 2.1335 1.3105 3.3809h-1.9941l3 4 3-4h-2.0059c-2.23e-4 -1.7453-0.64834-3.4385-1.8379-4.7344-1.3225-1.4408-3.1888-2.2622-5.1445-2.2656zm-6.0156 3-3 4h2.0059c2.232e-4 1.7453 0.64834 3.4385 1.8379 4.7344 1.3225 1.4408 3.1888 2.2622 5.1445 2.2656a1.0001 1.0001 0 1 0 0.0039-2c-1.3978-0.00244-2.7305-0.58941-3.6758-1.6191-0.85054-0.92657-1.3109-2.1335-1.3105-3.3809h1.9941l-1.5-2z" fill="currentColor"/>
 </g>
 <g id="22-22-system-save-session" transform="translate(-37,-45)">
  <rect x="5" y="5" width="22" height="22" opacity=".001"/>
  <path class="ColorScheme-Text" d="m10 9c-0.55 0-1 0.45-1 1v11l2 2h11c0.55 0 1-0.45 1-1v-12c0-0.55-0.45-1-1-1zm1 2h10v10h-1v-5h-8v5h-1zm5 6h2v4h-2z" fill="currentColor"/>
 </g>
 <g id="22-22-system-suspend" transform="translate(29,-45)">
  <rect x="5" y="5" width="22" height="22" opacity=".001"/>
  <path class="ColorScheme-Text" d="m16 9a7 7 0 0 0-7 7 7 7 0 0 0 7 7 7 7 0 0 0 7-7 7 7 0 0 0-7-7zm0 2a5 5 0 0 1 5 5 5 5 0 0 1-5 5 5 5 0 0 1-5-5 5 5 0 0 1 5-5zm-1.9902 4a0.99537 1.0001 0 1 0 0 2h3.9805a0.99537 1.0001 0 1 0 0-2z" fill="currentColor"/>
 </g>
 <g id="22-22-system-suspend-hibernate" transform="translate(51,-45)">
  <rect x="5" y="5" width="22" height="22" opacity=".001"/>
  <path class="ColorScheme-Text" d="m16 9a7 7 0 0 0-7 7 7 7 0 0 0 7 7 7 7 0 0 0 7-7 7 7 0 0 0-7-7zm0 2a5 5 0 0 1 5 5 5 5 0 0 1-5 5 5 5 0 0 1-5-5 5 5 0 0 1 5-5zm0 3a2 2 0 0 0-2 2 2 2 0 0 0 2 2 2 2 0 0 0 2-2 2 2 0 0 0-2-2z" fill="currentColor"/>
 </g>
 <g id="22-22-system-log-out" transform="translate(73,-45)">
  <rect x="5" y="5" width="22" height="22" opacity=".001"/>
  <path class="ColorScheme-Text" d="m15.818 9.0027c-0.20904 0.00578-0.41747 0.020695-0.625 0.044925-1.6603 0.19386-3.2511 0.97493-4.4316 2.3047-2.361 2.6596-2.3473 6.6872 0.03223 9.3303 2.3795 2.6431 6.3872 3.0838 9.2842 1.0196 1.0899-0.77423-0.07499-2.4066-1.1631-1.6299-2.0808 1.4827-4.9227 1.1718-6.6318-0.72658-1.7091-1.8984-1.7192-4.7549-0.02343-6.6652 1.6958-1.9103 4.5359-2.2425 6.627-0.77443 1.098 0.8011 2.2783-0.87534 1.1523-1.6368-1.2737-0.89425-2.7575-1.3071-4.2207-1.2666zm4.1816 3.4971v2.5001h-3c-0.55228 0-1 0.44772-1 1s0.44772 1 1 1h3v2.5001l4.5-3.5001z" fill="currentColor"/>
 </g>
 <g id="22-22-system-lock-screen" transform="translate(95,-45)">
  <rect x="5" y="5" width="22" height="22" opacity=".001"/>
  <path class="ColorScheme-Text" d="m16 9c-2.216 0-4 1.784-4 4v2h-1c-0.554 0-1 0.446-1 1v6c0 0.554 0.446 1 1 1h10c0.554 0 1-0.446 1-1v-6c0-0.554-0.446-1-1-1h-1v-2c0-2.216-1.784-4-4-4zm0 2c1.108 0 2 0.892 2 2v2h-4v-2c0-1.108 0.892-2 2-2z" fill="currentColor"/>
 </g>
 <g id="22-22-system-switch-user" transform="translate(117,-45)">
  <rect x="5" y="5" width="22" height="22" opacity=".001"/>
  <path class="ColorScheme-Text" d="m20 9.0001c-0.50478 0-1.0096 0.33736-1 1.0117v7.9883h-2.5l3.5 4.5 3.5-4.5h-2.5v-7.9883c0.0096-0.67436-0.49522-1.0117-1-1.0117zm-8 0.5-3.5 4.5h2.5v7.9883c-0.01913 1.3487 2.0191 1.3487 2 0v-7.9883h2.5z" fill="currentColor"/>
 </g>
 <g id="system-software-update">
  <rect width="32" height="32" opacity=".001"/>
  <path class="ColorScheme-Text" d="m16 2c-7.732 0-14 6.268-14 14 0 7.7315 6.268 14 14 14 7.7315 0 14-6.2685 14-14 0-7.732-6.2685-14-14-14zm0 3c2.7422 0 5.48 1.0263 7.6055 3.0645-0.67962 0.26368-1.3089 0.69294-1.791 1.375l-0.84375 1.2012c-2.8762-2.6662-7.3593-2.6231-10.156 0.17383-1.4317 1.4317-2.1404 3.309-2.1406 5.1855h0.54492a1.2819 1.0536 1.1588e-6 0 1 1.1094 1.5801l-1.1914 1.6973-1.1973 1.6973a1.2819 1.0536 1.1588e-6 0 1-2.2168 0l-1.1914-1.6973-1.1934-1.6973a1.2819 1.0536 1.1588e-6 0 1 0.73047-1.5332 1.2819 1.0536 1.1588e-6 0 1 0.37695-0.046875h0.55859c1.285e-4 -2.8151 1.0711-5.6297 3.2188-7.7773 2.1479-2.1479 4.9622-3.2227 7.7773-3.2227zm9.0996 5.5039a1.2819 1.0536 1.1588e-6 0 1 1.1777 0.52148l1.1914 1.6992 1.1934 1.6973a1.2819 1.0536 1.1588e-6 0 1-0.73047 1.5312 1.2819 1.0536 1.1588e-6 0 1-0.37695 0.046875h-0.55859c-1.3e-4 2.8151-1.0711 5.6297-3.2188 7.7773-2.1479 2.1479-4.9622 3.2227-7.7773 3.2227-2.7407 0-5.4766-1.0267-7.6016-3.0625 0.66684-0.2584 1.2988-0.68471 1.7871-1.375v-0.001953l0.84375-1.2012c2.8762 2.6662 7.3593 2.6231 10.156-0.17383 1.4317-1.4316 2.1404-3.309 2.1406-5.1855h-0.54492a1.2819 1.0536 1.1588e-6 0 1-1.1094-1.5801l1.1934-1.6973 1.1953-1.6973a1.2819 1.0536 1.1588e-6 0 1 1.0391-0.52148z" fill="currentColor"/>
 </g>
 <g id="system-shutdown" transform="translate(64)">
  <rect width="32" height="32" opacity=".001"/>
  <path class="ColorScheme-Text" d="m15.971 1a2.0002 1.9932 0 0 0-1.9707 2.0195v11.959a2.0002 1.9932 0 1 0 4 0v-11.959a2.0002 1.9932 0 0 0-2.0293-2.0195zm-6.7129 4.002a2.0003 2.002 0 0 0-1.0664 0.35352c-5.0948 3.4265-7.3679 9.8003-5.5938 15.682 1.7742 5.8814 7.1899 9.9307 13.328 9.9629 6.1382 0.03218 11.598-3.9598 13.434-9.8223 1.8356-5.8624-0.37097-12.259-5.4297-15.738a2.0003 2.002 0 1 0-2.2656 3.2969c3.6252 2.4937 5.1944 7.0429 3.8789 11.244-1.3154 4.2012-5.1969 7.0387-9.5957 7.0156-4.3988-0.02304-8.2481-2.9005-9.5195-7.1152s0.343-8.7476 3.9941-11.203a2.0003 2.002 0 0 0-1.1641-3.6758z" fill="currentColor"/>
 </g>
 <g id="system-reboot" transform="translate(96)">
  <rect width="32" height="32" opacity=".001"/>
  <path class="ColorScheme-Text" d="m15.031 2c-2.7042-0.043153-2.7122 4.0326-0.0078 4 2.7956 0.0048 5.4611 1.1788 7.3516 3.2383 1.7011 1.8531 2.6218 4.267 2.6211 6.7617h-2.9961l5.0078 8 4.9922-8h-3.0039c-4.46e-4 -3.4907-1.2967-6.877-3.6758-9.4688-2.645-2.8815-6.3776-4.5244-10.289-4.5312zm-10.031 6-5 8h3.0117c4.46e-4 3.4907 1.2967 6.877 3.6758 9.4688 2.645 2.8815 6.3776 4.5244 10.289 4.5312 2.7042 0.04315 2.7122-4.0326 0.0078-4-2.7955-0.0049-5.4611-1.1788-7.3515-3.2383-1.7011-1.8531-2.6218-4.267-2.6211-6.7617h2.9883z" fill="currentColor"/>
 </g>
 <g id="system-save-session" transform="translate(32)">
  <rect width="32" height="32" opacity=".001"/>
  <path class="ColorScheme-Text" d="m4 2c-1.1 0-2 0.9-2 2v22l4 4h22c1.1 0 2-0.9 2-2v-24c0-1.1-0.9-2-2-2zm2 4h20v20h-2v-10h-16v10h-2zm10 12h4v8h-4z" fill="currentColor"/>
 </g>
 <g id="system-suspend" transform="translate(128)">
  <rect width="32" height="32" opacity=".001"/>
  <path class="ColorScheme-Text" d="m16 2a14 14 0 0 0-14 14 14 14 0 0 0 14 14 14 14 0 0 0 14-14 14 14 0 0 0-14-14zm0 4a10 10 0 0 1 10 10 10 10 0 0 1-10 10 10 10 0 0 1-10-10 10 10 0 0 1 10-10zm-3.9805 8a1.9907 2.0002 0 1 0 0 4h7.9609a1.9907 2.0002 0 1 0 0-4z" fill="currentColor"/>
 </g>
 <g id="system-suspend-hibernate" transform="translate(160)">
  <rect width="32" height="32" opacity=".001"/>
  <path class="ColorScheme-Text" d="m16 2a14 14 0 0 0-14 14 14 14 0 0 0 14 14 14 14 0 0 0 14-14 14 14 0 0 0-14-14zm0 4a10 10 0 0 1 10 10 10 10 0 0 1-10 10 10 10 0 0 1-10-10 10 10 0 0 1 10-10zm0 6a4 4 0 0 0-4 4 4 4 0 0 0 4 4 4 4 0 0 0 4-4 4 4 0 0 0-4-4z" fill="currentColor"/>
 </g>
 <g id="system-switch-user" transform="translate(256)">
  <rect width="32" height="32" opacity=".001"/>
  <path class="ColorScheme-Text" d="m24 2.0002c-1.0096 0-2.0191 0.67471-2 2.0234v15.977h-5l7 9 7-9h-5v-15.977c0.0192-1.3487-0.99044-2.0234-2-2.0234zm-16 1-7 9h5v15.977c-0.0383 2.6974 4.0382 2.6974 4 0v-15.977h5z" fill="currentColor"/>
 </g>
 <g id="system-log-out" transform="translate(192)">
  <rect width="32" height="32" opacity=".001"/>
  <path class="ColorScheme-Text" d="m14.637 2.0054c-0.41807 0.01156-0.83493 0.04139-1.25 0.08985-3.3205 0.38771-6.5023 1.9499-8.8633 4.6095-4.722 5.3192-4.6946 13.374 0.0645 18.661 4.7591 5.2862 12.774 6.1676 18.568 2.0391 2.1797-1.5485-0.14998-4.8132-2.3262-3.2598-4.1615 2.9653-9.8455 2.3436-13.264-1.4532-3.4182-3.7968-3.4385-9.5098-0.0469-13.33 3.3916-3.8205 9.0718-4.4851 13.254-1.5489 2.196 1.6022 4.5566-1.7507 2.3047-3.2735-2.5474-1.7885-5.5149-2.6141-8.4414-2.5333zm8.3633 6.9943v5.0001h-6c-1.1046 0-2 0.89545-2 2s0.89543 2 2 2h6v5.0001l9-7.0002z" fill="currentColor"/>
 </g>
 <g id="system-lock-screen" transform="translate(224)">
  <rect width="32" height="32" opacity=".001"/>
  <path class="ColorScheme-Text" d="m16 2c-4.432 0-8 3.568-8 8v4h-2c-1.108 0-2 0.892-2 2v12c0 1.108 0.892 2 2 2h20c1.108 0 2-0.892 2-2v-12c0-1.108-0.892-2-2-2h-2v-4c0-4.432-3.568-8-8-8zm0 4c2.216 0 4 1.784 4 4v4h-8v-4c0-2.216 1.784-4 4-4z" fill="currentColor"/>
 </g>
 <g id="22-22-system-user-prompt" transform="translate(183,-45)">
  <rect x="5" y="5" width="22" height="22" opacity=".001"/>
  <path class="ColorScheme-Text" d="m8.8357 10c-0.64199-7.92e-4 -1.0433 0.60189-0.72265 1.084l1.4902 2.8359 0.39844 0.59766v3.8926c0 1.4339 1.1549 2.5898 2.5898 2.5898h8.8184c1.435 0 2.5898-1.156 2.5898-2.5898v-5.8203c0-1.4339-1.1549-2.5898-2.5898-2.5898h-9.1973zm4.4941 2h7.2734c0.20146 0 0.36328 0.223 0.36328 0.5 0 0.277-0.16182 0.5-0.36328 0.5h-7.2734c-0.20145 0-0.36328-0.223-0.36328-0.5 0-0.277 0.16183-0.5 0.36328-0.5zm0 3h7.2734c0.20146 0 0.36328 0.223 0.36328 0.5 0 0.277-0.16182 0.5-0.36328 0.5h-7.2734c-0.20145 0-0.36328-0.223-0.36328-0.5 0-0.277 0.16183-0.5 0.36328-0.5zm0.0996 3h5.1426c0.23743 0 0.42773 0.223 0.42773 0.5s-0.1903 0.5-0.42773 0.5h-5.1426c-0.23743 0-0.42969-0.223-0.42969-0.5s0.19226-0.5 0.42969-0.5z" fill="currentColor"/>
 </g>
 <g id="22-22-system-user-list" transform="translate(161,-45)">
  <rect x="5" y="5" width="22" height="22" opacity=".001"/>
  <path class="ColorScheme-Text" d="m19 8c-1.6572 0-3 1.3434-3 3s1.3428 3 3 3 3-1.3434 3-3-1.3428-3-3-3zm-6 3c-1.6572 0-3 1.3434-3 3s1.3428 3 3 3 3-1.3434 3-3-1.3428-3-3-3zm6 4c-0.88919 5e-4 -1.6177 0.0962-2.2188 0.25-0.31193 0.87444-0.93573 1.6024-1.7227 2.0918 1.3981 0.31564 2.5066 0.81025 3.0801 1.4883 0.83706 0.98967 0.86133 2.123 0.86133 2.123v0.0469c4.0769 0 5-1.8457 5-1.8457v-1.2012s9.5e-4 -2.955-4.998-2.9531zm-6 3c-4.9995 3e-3 -5 2.9531-5 2.9531v1.2012s0.92307 1.8457 5 1.8457 5-1.8457 5-1.8457v-1.2012s9.5e-4 -2.955-4.998-2.9531z" fill="currentColor"/>
 </g>
 <g id="22-22-system-users" transform="translate(139,-45)">
  <rect x="5" y="5" width="22" height="22" opacity=".001"/>
  <path class="ColorScheme-Text" d="m16 8c-1.6572 0-3 1.3434-3 3 0 1.6566 1.3428 3 3 3s3-1.3434 3-3c0-1.6566-1.3428-3-3-3zm0 7c-5.9994 0.0037-6 3.9375-6 3.9375v1.6016s1.1077 2.4609 6 2.4609c4.8923 0 6-2.4609 6-2.4609v-1.6016s7.53e-4 -3.94-5.998-3.9375z" fill="currentColor"/>
 </g>
 <g id="system-users" transform="translate(288)">
  <rect width="32" height="32" opacity=".001"/>
  <path class="ColorScheme-Text" d="m16 2c-3.3144 0-6 2.6868-6 6 0 3.3132 2.6856 6 6 6 3.3144 0 6-2.6868 6-6 0-3.3132-2.6856-6-6-6zm0 13c-10.999 0.006931-11 7.3828-11 7.3828v3.002s2.0308 4.6152 11 4.6152c8.9692 0 11-4.6152 11-4.6152v-3.002s0.0017-7.3874-10.996-7.3828z" fill="currentColor"/>
 </g>
 <g id="system-user-list" transform="translate(320)">
  <rect width="32" height="32" opacity=".001"/>
  <path class="ColorScheme-Text" d="m22 2c-2.762 0-5 2.239-5 5s2.238 5 5 5c2.762 0 5-2.239 5-5s-2.238-5-5-5zm-11 6c-2.762 0-5 2.239-5 5s2.238 5 5 5c2.762 0 5-2.239 5-5s-2.238-5-5-5zm11 6c-1.761 0.0011-3.134 0.24094-4.2051 0.61328-0.41611 1.6084-1.4344 2.9715-2.7578 3.9395 2.0897 0.57423 3.6116 1.5305 4.5176 2.6465 0.79666 0.98134 1.1461 2.0306 1.3066 2.7676 0.36168 0.021563 0.74013 0.033203 1.1387 0.033203 6.5231 0 8-3.0762 8-3.0762v-2.002s0.0024-4.9249-7.9961-4.9219zm-11 6c-7.9992 5e-3 -8 4.9219-8 4.9219v2.002s1.4769 3.0762 8 3.0762c6.5231 0 8-3.0762 8-3.0762v-2.002s0.0024-4.9249-7.9961-4.9219z" fill="currentColor"/>
 </g>
</svg>
