<?xml version="1.0" encoding="UTF-8"?>
<svg width="32" height="32" version="1.1" xmlns="http://www.w3.org/2000/svg">
 <defs id="materia">
  <style id="current-color-scheme" type="text/css">.ColorScheme-Background {color:#181818; } .ColorScheme-ButtonBackground { color:#343434; } .ColorScheme-Highlight { color:#4285f4; } .ColorScheme-Text { color:#dfdfdf; } .ColorScheme-ViewBackground { color:#242424; } .ColorScheme-NegativeText { color:#f44336; } .ColorScheme-PositiveText { color:#4caf50; } .ColorScheme-NeutralText { color:#ff9800; }</style>
 </defs>
 <g id="22-22-TeamViewer" transform="translate(32 10)">
  <rect width="22" height="22" opacity=".001"/>
  <path class="ColorScheme-Text" d="m11 3c-4.4179-1e-7 -8 3.5821-8 8-1e-7 4.4179 3.5821 8 8 8 4.4179 0 8-3.5821 8-8 0-4.4179-3.5821-8-8-8zm-2 5v2h4v-2l3 3-3 3v-2h-4v2l-3-3z" fill="currentColor"/>
 </g>
 <g id="TeamViewer">
  <rect width="32" height="32" opacity=".001"/>
  <path class="ColorScheme-Text" d="m16 4c-6.6269-1e-7 -12 5.3731-12 12-1e-7 6.6269 5.3731 12 12 12 6.6269 0 12-5.3731 12-12 0-6.6269-5.3731-12-12-12zm-3 7v3h6v-3l5 5-5 5v-3h-6v3l-5-5 5-5z" fill="currentColor"/>
 </g>
</svg>
