<?xml version="1.0" encoding="UTF-8"?>
<svg width="32" height="32" version="1.1" xml:space="preserve" xmlns="http://www.w3.org/2000/svg">
 <defs id="materia">
  <style id="current-color-scheme" type="text/css">
   .ColorScheme-Background {color:#181818; } .ColorScheme-ButtonBackground { color:#343434; } .ColorScheme-Highlight { color:#4285f4; } .ColorScheme-Text { color:#dfdfdf; } .ColorScheme-ViewBackground { color:#242424; } .ColorScheme-NegativeText { color:#f44336; } .ColorScheme-PositiveText { color:#4caf50; } .ColorScheme-NeutralText { color:#ff9800; }
  </style>
 </defs>
 <g id="thunderbird">
  <rect width="32" height="32" opacity=".001"/>
  <path class="ColorScheme-Text" d="m19.246 11.604c-1.1576 0.55305-2.439 1.1914-3.9219 1.1914-0.93471 0-1.67-0.28715-2.1855-0.42383-0.51557-0.13668-0.68306-0.15656-0.93555-0.01172-0.02606 0.01487-0.05278 0.02855-0.08008 0.04102-0.70251 0.32374-1.3999 0.89148-2.4102 1.3301-0.091928 0.04499-0.18446 0.09229-0.27734 0.13867-0.024309 0.02311-0.043675 0.0421-0.076172 0.07422-0.10636 0.10512-0.25123 0.25569-0.39062 0.41992-0.060144 0.07086-0.096689 0.1439-0.14844 0.2207l2.9746 4.207 9.1406-3.5078c-0.16505-1.0619-0.57854-2.1683-1.1719-3.1172-6.5e-4 -6.52e-4 -0.0013-0.0013-2e-3 -2e-3 -0.05456-0.0828-0.3122-0.34476-0.51562-0.56055zm-13.172 2.5371c-0.0034 0.02929-0.024784 0.06074-0.027344 0.08984-0.10188 1.1588 0.17333 2.2517 0.79688 3.2324 0.55199 0.86297-0.39624 1.8992-1.3047 1.4258-0.042122-0.02184-0.091566-0.05054-0.13477-0.07227 0.20983 1.1482 0.51298 2.211 0.92188 3.2188l13.467 4.2656c1.0583-1.3533 2.0767-3.1636 2.6895-5.4629-0.88667 0.19696-1.5979 0.1558-1.6094 0.1543-0.76756-0.1005-1.1348-0.99745-0.6582-1.6074 0.63594-0.81442 0.84933-1.9089 0.80469-3.1348l-9.2246 3.541-3.3047-4.6738c-0.098571 0.82708-1.1058 1.1783-1.6973 0.5918-0.47725-0.47476-0.64469-1.0297-0.71875-1.5684z" fill="currentColor" opacity=".35"/>
  <path class="ColorScheme-Text" d="m13 2c-2.191 0.058478-3.4763 2.1283-4.3984 3.9219-0.17523 0.092854-0.35089 0.18258-0.52539 0.2793-1.7407 1.1703-3.1665 2.7913-4.2676 4.5645-0.96854 1.7096-1.5553 3.6118-1.7734 5.5605-0.12965 1.9757 0.095855 3.9875 0.83984 5.8359 1.4084 3.1749 4.8947 6.8775 8.125 6.8379-4.6852-3.127-6.3549-6.9029-6.8945-11.732-0.020632-0.33146-0.062782-0.68992 0.056641-0.60156 0.44673 0.70803 1.0624 0.93198 1.8379 1.334-0.73546-1.1567-1.0701-2.4824-0.94922-3.8574 0.12131-1.3797 0.89898-2.7178 1.7539-3.709 0.10132-0.11599 0.21491-0.22585 0.32031-0.33984 0.045713 0.35497 0.10521 0.70941 0.14648 1.0527-0.00787 0.17039 0.05095 0.45125 0.064453 0.65234-5.78e-5 -1.79e-4 -0.00394-0.0059-0.00391-0.0059 0.00147 0-0.11684 0.3776-0.21289 0.8457-7.744e-4 0.0033-0.00119 0.0064-0.00195 0.0098-0.14909 0.73301-0.22992 1.744 0.38086 2.3516 0.086569-0.81878 1.3485-1.9515 1.3672-1.9648 0.15177-0.07703 0.30551-0.15237 0.44922-0.22266 0.85358-0.37058 1.5455-0.93084 2.3906-1.3203 1.1137-0.63887 2.1885 0.30273 3.6191 0.30273 1.3678 0 2.8125-0.79178 4.166-1.4004 0.315 0.32586 0.87868 0.85552 1.125 1.2422h-0.0039c0.70549 1.1283 1.1948 2.4393 1.3555 3.7266 0.20048 1.6837 0.03266 3.3618-0.96289 4.6367 0.02052 0.0027 1.8051 0.13041 2.9961-1-0.84974 6.5702-4.8784 10.082-7 11 2.8242 0.19007 5-2 5-2 0.41071-0.58496-0.99275 1.3981-2 2 1.8455-0.51675 3.0815-0.70496 4.2461-1.5547-4.36e-4 0 0.94634-0.51454 1.9336-1.6406 0.13134-0.14981 0.35697-0.35869 0.49219-0.5293 0.08405-0.10606 0.16199-0.21375 0.24414-0.32031 0.01448-0.01752 0.031-0.03496 0.04492-0.05273 2.0779-2.5419 3.0887-5.7024 3.0137-8.5664 0.01459-3.4718-1.3947-6.4851-3.7617-8.9766-1.7118-1.8018-3.6554-3.0031-5.4062-3.5996-2.2684-0.65138-5.0664-0.92957-7.0684-0.55078-0.18959 0.063386 0.02773-1.0426 0.26172-1.209-0.49911 0.046723-1.0304 1.0027-1.4629 1.416-0.031383 0.0073406-0.069906 0.013685-0.099609 0.021484 0.26609-0.53486 0.1496-0.90006 0.5625-1.4375-1.199 0.22385-1.4337 1.0079-1.8496 1.791-0.15813 0.053385-0.31135 0.11869-0.4668 0.17773 0.39402-1.3063 1.1108-1.9716 2.3164-2.9688zm-2.793 7c0.38821-0.00749 0.73879 0.058594 0.74219 0.058594 0.0066 0 0.17706 0.68011-0.14258 1.2617-0.31964 0.58383-1.0659 0.81742-1.4785 0.59766-0.42165-0.21977-0.42015-0.95328-0.09375-1.5371 0.15755-0.29191 0.58444-0.37337 0.97266-0.38086z" fill="currentColor"/>
 </g>
 <g id="22-22-thunderbird" transform="translate(27,5)">
  <rect x="5" y="5" width="22" height="22" opacity=".001"/>
  <path class="ColorScheme-Text" d="m17.818 13.311c-0.5678 0.23176-1.1015 0.48438-1.8242 0.48438-0.02606 3.7e-4 -0.05212-2.84e-4 -0.07813-2e-3 -1.2918-0.10124-1.8946-0.02099-2.8379 0.89843-0.07581 0.07372-0.16283 0.13518-0.25781 0.18164-0.05975 0.02922-0.11626 0.05116-0.17383 0.07617-0.06556 0.04068-0.13586 0.07308-0.20898 0.09766l1.5566 1.748 4.9141-1.5449c0.04003-0.14776 0.07825-0.31613 0.08399-0.30078-0.2267-0.92237-0.49696-1.3026-1.1738-1.6387zm-5.6738 1.9062c-0.20877 0.43906-0.69974 0.67502-1.1738 0.53711-4e-5 0.26259-0.07252 0.54836-0.0098 0.7832 0.10269 0.39009-0.03903 0.80369-0.35938 1.0488 0.19151 0.66902 0.43816 1.3102 0.76172 1.9219l6.2051 1.9023c0.03813-0.04568 0.07765-0.08161 0.11524-0.12891 0.38941-0.49004 0.75445-1.0686 1.0547-1.7246-0.0088 0.0042-0.0247 0.01162-0.0332 0.01563-0.09192 0.04338-0.1677 0.07808-0.22461 0.10352-0.02846 0.01272-0.05156 0.02165-0.07422 0.03125-0.01133 0.0048-0.02051 0.01028-0.03906 0.01758-0.0093 0.0037-0.01904 0.0067-0.04492 0.01563-0.01294 0.0045-0.06611 0.01945-0.06641 0.01953-1.5e-4 4e-5 -0.08975 0.02147-0.08984 0.02148-9.2e-5 1e-4 -0.25773 0.0053-0.28906 0.0059-0.77437-0.09183-1.1504-0.9952-0.66992-1.6094 0.0027-0.0034 0.01097-0.01603 0.01367-0.01953 0.24317-0.31318 0.75166-1.0427 1.1582-1.7656 0.11257-0.20019 0.18144-0.37224 0.27148-0.56055l-4.6563 1.4629z" fill="currentColor" opacity=".35"/>
  <path class="ColorScheme-Text" d="m14.397 7.7953c-1.2048 0.032155-1.8596 1.1268-2.3672 2.123-0.1852 0.09344-0.37336 0.17576-0.55664 0.27734-0.99468 0.66874-1.8103 1.5961-2.4395 2.6094-0.55345 0.97691-0.88901 2.0622-1.0137 3.1758-0.074085 1.129 0.055332 2.2797 0.48047 3.3359 0.32952 0.92833 0.90975 1.9478 1.6523 2.5833 0.98588 0.65786 1.7699 1.1337 2.8457 1.0879-2.2398-1.7915-3.4216-3.9398-3.7949-6.468-0.011789-0.1894-0.035038-0.39424 0.033203-0.34375 0.25528 0.40459 0.31467 0.38942 0.75781 0.61914-0.38204-1.4298 0.12814-3.0204 0.75195-4.1816 0.07805-0.08935 0.1628-0.17507 0.24609-0.26172l0.03906 0.0059c0.01402 0.22327 0.04043 0.44804 0.06641 0.66406-0.0048 0.10408 0.0616 0.28185 0.08203 0.39648-0.01537 0.04023-0.09877 0.28085-0.13086 0.58203-0.01935 0.11929-0.02002 0.23651-2e-3 0.35156 0.0032 0.02268 5e-3 0.0441 0.0098 0.06641 0.0097 0.04048 0.02065 0.08136 0.03711 0.12109 0.03475 0.09384 0.08104 0.18254 0.15624 0.25586 0.02782-0.12543 0.08458-0.22661 0.16211-0.31055 0.01936-0.02096 0.04863-0.03376 0.07031-0.05273 0.07025-0.05953 0.1436-0.11696 0.22266-0.16016 0.01556-0.0085 0.01582-0.0058 0.03125-0.01367 0.19636-0.10023 0.38959-0.16211 0.39062-0.16211l0.01563-0.01563c0.08124-0.03308 0.16319-0.06874 0.23828-0.10547 1.1272-1.0987 2.1932-1.291 3.6133-1.1797 0.78159 0 1.2266-0.203 2-0.55078 1.1865 0.49605 1.6958 1.2707 2 2.5508 0.11456 0.96212-1.4311 3.2695-2 3.998-6.8e-5 1.1e-5 -0.0039 2e-3 -0.0039 2e-3 1.2e-5 0 0.0039-1e-5 0.0039 0 0.01173 0.0016 1.7179-0.7603 2.3984-1.4062-0.48557 3.7544-3.1861 6.0819-4.3984 6.6062 0.93696 0.06306 2.2202-0.52096 3.1035-1.0605-0.40326 0.43212-0.83457 0.89984-1.1035 1.0605 1.0546-0.29529 2.0533-0.40311 2.7188-0.88867-2.49e-4 0 0.53937-0.49394 1.1035-1.1374 0.07505-0.08561 0.20399-0.20329 0.28125-0.30078 0.04803-0.06061 0.09368-0.1227 0.14062-0.18359 0.0083-0.01001 0.01744-0.02109 0.02539-0.03125 1.1874-1.4525 1.7655-3.258 1.7227-4.8945 0.0083-1.9839-0.79781-3.7053-2.1504-5.129-0.97817-1.0296-2.0894-1.6611-3.0898-2.002-1.0353-0.2973-2.2535-0.44812-3.2891-0.39062-0.1037 0.00127-0.39121 0.00968-0.7832 0.042969-0.04584-0.086358 0.0112-0.40681 0.12305-0.48633-0.24516 0.02295-0.47103 0.34186-0.67969 0.5625-0.03512 0.00685-0.07117 0.013798-0.10352 0.021484 0.18793-0.32513 0.37954-0.69089 0.60352-0.98242-0.69386 0.12952-0.99666 0.67505-1.3359 1.1777-0.09792 0.032234-0.19297 0.071367-0.28906 0.10742 0.25167-0.72619 0.72492-1.1236 1.4043-1.6855zm-1.7988 4.2002c0.1941-0.0038 0.36939 0.0293 0.37109 0.0293 0.0033 0 0.08755 0.34006-0.07227 0.63086-0.15982 0.29191-0.53199 0.40871-0.73828 0.29883-0.21082-0.10988-0.21008-0.47762-0.04687-0.76953 0.07878-0.14596 0.29222-0.18571 0.48633-0.18945z" fill="currentColor"/>
 </g>
</svg>
