<?xml version="1.0" encoding="UTF-8"?>
<svg width="32" height="32" version="1.1" xmlns="http://www.w3.org/2000/svg">
 <defs id="materia">
  <style id="current-color-scheme" type="text/css">.ColorScheme-Background {color:#181818; } .ColorScheme-ButtonBackground { color:#343434; } .ColorScheme-Highlight { color:#4285f4; } .ColorScheme-Text { color:#dfdfdf; } .ColorScheme-ViewBackground { color:#242424; } .ColorScheme-NegativeText { color:#f44336; } .ColorScheme-PositiveText { color:#4caf50; } .ColorScheme-NeutralText { color:#ff9800; }</style>
 </defs>
 <g id="22-22-tools-report-bug" transform="translate(32 -1.9073e-6)">
  <rect y="10" width="22" height="22" opacity=".001"/>
  <path class="ColorScheme-NegativeText" d="m3.125 13c-1.125 0-1.125 1.1426-1.125 1.1426v11.732c0 1.1432 1.125 1.1426 1.125 1.1426h4.4258c-0.28969 0.072016-0.56925 0.28287-0.55078 0.84375v1.1387h8v-1.1387c0-0.56143-0.25386-0.7719-0.51172-0.84375h4.3867c1.125 0 1.125-1.1426 1.125-1.1426v-11.732s0-1.1426-1.125-1.1426zm0.875 2h14v9.9863l-14 0.02734zm5 2v2h1v-2zm3 0v2h1v-2zm-4 4v1h6v-1zm6 1v1h1v-1zm-6 0h-1v1h1z" fill="currentColor"/>
 </g>
 <g id="tools-report-bug">
  <rect width="32" height="32" opacity=".001"/>
  <path class="ColorScheme-NegativeText" d="m4.625 5c-1.625 0-1.625 1.6426-1.625 1.6426v16.73c0 1.6433 1.625 1.627 1.625 1.627h6.3926c-0.41844 0.10352-1.0443 0.42225-1.0176 1.2285v1.7715h12v-1.7715c0-0.80706-0.58848-1.1252-0.96094-1.2285h6.3359c1.625 0 1.625-1.627 1.625-1.627v-16.73s1e-6 -1.6426-1.625-1.6426zm1.375 3h20v13.961l-20 0.039062zm7 2v3h2v-3zm4 0v3h2v-3zm-5 6v2h8v-2zm8 2v2h2v-2zm-8 0h-2v2h2z" fill="currentColor"/>
 </g>
</svg>
