<?xml version="1.0" encoding="UTF-8"?>
<svg width="32" height="32" version="1.1" xmlns="http://www.w3.org/2000/svg">
 <defs id="materia">
  <style id="current-color-scheme" type="text/css">.ColorScheme-Background {color:#181818; } .ColorScheme-ButtonBackground { color:#343434; } .ColorScheme-Highlight { color:#4285f4; } .ColorScheme-Text { color:#dfdfdf; } .ColorScheme-ViewBackground { color:#242424; } .ColorScheme-NegativeText { color:#f44336; } .ColorScheme-PositiveText { color:#4caf50; } .ColorScheme-NeutralText { color:#ff9800; }</style>
 </defs>
 <g id="22-22-touchpad_enabled" transform="translate(-425 143)">
  <path d="m425-165h22v22h-22v-22z" opacity=".001"/>
  <path class="ColorScheme-Text" d="m428.2-162c-1.2 0-1.1992 1.2305-1.1992 1.2305v13.539s-7.8e-4 1.2305 1.1992 1.2305h15.602s1.1992 3e-4 1.1992-1.2305v-13.539c0-1.2308-1.1992-1.2305-1.1992-1.2305zm12.801 2h2v1h-2zm0 2h2v1h-2zm0 2h2v1h-2zm0 2h2v1h-2zm-12 3h6v3h-6zm8 0h6v3h-6z" fill="currentColor"/>
 </g>
 <g id="22-22-touchpad_disabled" transform="translate(-415 143)">
  <path d="m447-165h22v22h-22v-22z" opacity=".001"/>
  <path class="ColorScheme-Text" d="m450.2-162c-1.2 0-1.1992 1.2305-1.1992 1.2305v13.539s-7.8e-4 1.2305 1.1992 1.2305h15.602s1.1992 3e-4 1.1992-1.2305v-13.539c0-1.2308-1.1992-1.2305-1.1992-1.2305zm12.801 2h2v1h-2zm0 2h2v1h-2zm0 2h2v1h-2zm0 2h2v1h-2zm-12 3h6v3h-6zm8 0h6v3h-6z" fill="currentColor" opacity=".35"/>
 </g>
 <g id="touchpad_enabled" transform="translate(1.2954e-6 4.3864e-6)">
  <path d="m-1.5909e-6 -4.7729e-6h32v32h-32v-32z" opacity=".001"/>
  <path class="ColorScheme-Text" d="m4.7324 4c-1.7333 0-1.7324 1.7695-1.7324 1.7695v19.461s-9.048e-4 1.7695 1.7324 1.7695h22.535s1.7324-2.99e-4 1.7324-1.7695v-19.461c0-1.7692-1.7324-1.7695-1.7324-1.7695zm18.268 3h3v1h-3zm0 3h3v1h-3zm0 3h3v1h-3zm0 3h3v1h-3zm-17 4h9v4h-9zm11 0h9v4h-9z" fill="currentColor"/>
 </g>
 <g id="touchpad_disabled" transform="translate(32 4.3864e-6)">
  <path d="m-1.5909e-6 -4.7729e-6h32v32h-32v-32z" opacity=".001"/>
  <path class="ColorScheme-Text" d="m4.7324 4c-1.7333 0-1.7324 1.7695-1.7324 1.7695v19.461s-9.048e-4 1.7695 1.7324 1.7695h22.535s1.7324-2.99e-4 1.7324-1.7695v-19.461c0-1.7692-1.7324-1.7695-1.7324-1.7695zm18.268 3h3v1h-3zm0 3h3v1h-3zm0 3h3v1h-3zm0 3h3v1h-3zm-17 4h9v4h-9zm11 0h9v4h-9z" fill="currentColor" opacity=".35"/>
 </g>
</svg>
