<?xml version="1.0" encoding="UTF-8"?>
<svg width="32" height="32" version="1.1" xmlns="http://www.w3.org/2000/svg">
 <defs id="materia">
  <style id="current-color-scheme" type="text/css">.ColorScheme-Background {color:#181818; } .ColorScheme-ButtonBackground { color:#343434; } .ColorScheme-Highlight { color:#4285f4; } .ColorScheme-Text { color:#dfdfdf; } .ColorScheme-ViewBackground { color:#242424; } .ColorScheme-NegativeText { color:#f44336; } .ColorScheme-PositiveText { color:#4caf50; } .ColorScheme-NeutralText { color:#ff9800; }</style>
 </defs>
 <g id="22-22-update-low" transform="translate(32,-22)">
  <rect y="32" width="22" height="22" opacity=".001"/>
  <path class="ColorScheme-Text" d="m11 35c-4.4183 0-8 3.5817-8 8 0 4.418 3.5817 8 8 8 4.418 0 8-3.582 8-8 0-4.4183-3.582-8-8-8zm0 2c1.4958 0 2.9891 0.56016 4.1484 1.6719-0.3707 0.14382-0.7136 0.37797-0.97656 0.75l-0.46094 0.6543c-1.5688-1.4543-4.0135-1.4299-5.5391 0.095703-0.78091 0.78091-1.1679 1.8045-1.168 2.8281h0.29688a0.69924 0.5747 1.1588e-6 0 1 0.60547 0.86133l-0.65039 0.92578-0.65234 0.92578a0.69924 0.5747 1.1588e-6 0 1-1.209 0l-1.3008-1.8516a0.69924 0.5747 1.1588e-6 0 1 0.39844-0.83594 0.69924 0.5747 1.1588e-6 0 1 0.20508-0.025391h0.30469c7.06e-5 -1.5355 0.58441-3.0707 1.7559-4.2422 1.1716-1.1716 2.7067-1.7578 4.2422-1.7578zm4.9629 3.002a0.69924 0.5747 1.1588e-6 0 1 0.64258 0.28516l1.3008 1.8516a0.69924 0.5747 1.1588e-6 0 1-0.39844 0.83594 0.69924 0.5747 1.1588e-6 0 1-0.20508 0.025391h-0.30469c-7.1e-5 1.5355-0.58441 3.0707-1.7559 4.2422-1.1716 1.1716-2.7067 1.7578-4.2422 1.7578-1.4949 0-2.9874-0.55949-4.1465-1.6699 0.36373-0.14094 0.70826-0.37348 0.97461-0.75v-2e-3l0.46094-0.6543c1.5688 1.4543 4.0135 1.4299 5.5391-0.0957 0.78091-0.78087 1.1679-1.8045 1.168-2.8281h-0.29688a0.69924 0.5747 1.1588e-6 0 1-0.60547-0.86133l0.65039-0.92578 0.65234-0.92578a0.69924 0.5747 1.1588e-6 0 1 0.56641-0.28516z" fill="currentColor"/>
  <circle class="ColorScheme-Highlight" cx="20" cy="50" r="2" fill="currentColor"/>
 </g>
 <g id="22-22-update-medium" transform="translate(32,-54)">
  <rect y="32" width="22" height="22" opacity=".001"/>
  <path class="ColorScheme-Text" d="m11 35c-4.4183 0-8 3.5817-8 8 0 4.418 3.5817 8 8 8 4.418 0 8-3.582 8-8 0-4.4183-3.582-8-8-8zm0 2c1.4958 0 2.9891 0.56016 4.1484 1.6719-0.3707 0.14382-0.7136 0.37797-0.97656 0.75l-0.46094 0.6543c-1.5688-1.4543-4.0135-1.4299-5.5391 0.095703-0.78091 0.78091-1.1679 1.8045-1.168 2.8281h0.29688a0.69924 0.5747 1.1588e-6 0 1 0.60547 0.86133l-0.65039 0.92578-0.65234 0.92578a0.69924 0.5747 1.1588e-6 0 1-1.209 0l-1.3008-1.8516a0.69924 0.5747 1.1588e-6 0 1 0.39844-0.83594 0.69924 0.5747 1.1588e-6 0 1 0.20508-0.025391h0.30469c7.06e-5 -1.5355 0.58441-3.0707 1.7559-4.2422 1.1716-1.1716 2.7067-1.7578 4.2422-1.7578zm4.9629 3.002a0.69924 0.5747 1.1588e-6 0 1 0.64258 0.28516l1.3008 1.8516a0.69924 0.5747 1.1588e-6 0 1-0.39844 0.83594 0.69924 0.5747 1.1588e-6 0 1-0.20508 0.025391h-0.30469c-7.1e-5 1.5355-0.58441 3.0707-1.7559 4.2422-1.1716 1.1716-2.7067 1.7578-4.2422 1.7578-1.4949 0-2.9874-0.55949-4.1465-1.6699 0.36373-0.14094 0.70826-0.37348 0.97461-0.75v-2e-3l0.46094-0.6543c1.5688 1.4543 4.0135 1.4299 5.5391-0.0957 0.78091-0.78087 1.1679-1.8045 1.168-2.8281h-0.29688a0.69924 0.5747 1.1588e-6 0 1-0.60547-0.86133l0.65039-0.92578 0.65234-0.92578a0.69924 0.5747 1.1588e-6 0 1 0.56641-0.28516z" fill="currentColor"/>
  <circle class="ColorScheme-NeutralText" cx="20" cy="50" r="2" fill="currentColor"/>
 </g>
 <g id="22-22-update-high" transform="translate(32,-86)">
  <rect y="32" width="22" height="22" opacity=".001"/>
  <path class="ColorScheme-Text" d="m11 35c-4.4183 0-8 3.5817-8 8 0 4.418 3.5817 8 8 8 4.418 0 8-3.582 8-8 0-4.4183-3.582-8-8-8zm0 2c1.4958 0 2.9891 0.56016 4.1484 1.6719-0.3707 0.14382-0.7136 0.37797-0.97656 0.75l-0.46094 0.6543c-1.5688-1.4543-4.0135-1.4299-5.5391 0.095703-0.78091 0.78091-1.1679 1.8045-1.168 2.8281h0.29688a0.69924 0.5747 1.1588e-6 0 1 0.60547 0.86133l-0.65039 0.92578-0.65234 0.92578a0.69924 0.5747 1.1588e-6 0 1-1.209 0l-1.3008-1.8516a0.69924 0.5747 1.1588e-6 0 1 0.39844-0.83594 0.69924 0.5747 1.1588e-6 0 1 0.20508-0.025391h0.30469c7.06e-5 -1.5355 0.58441-3.0707 1.7559-4.2422 1.1716-1.1716 2.7067-1.7578 4.2422-1.7578zm4.9629 3.002a0.69924 0.5747 1.1588e-6 0 1 0.64258 0.28516l1.3008 1.8516a0.69924 0.5747 1.1588e-6 0 1-0.39844 0.83594 0.69924 0.5747 1.1588e-6 0 1-0.20508 0.025391h-0.30469c-7.1e-5 1.5355-0.58441 3.0707-1.7559 4.2422-1.1716 1.1716-2.7067 1.7578-4.2422 1.7578-1.4949 0-2.9874-0.55949-4.1465-1.6699 0.36373-0.14094 0.70826-0.37348 0.97461-0.75v-2e-3l0.46094-0.6543c1.5688 1.4543 4.0135 1.4299 5.5391-0.0957 0.78091-0.78087 1.1679-1.8045 1.168-2.8281h-0.29688a0.69924 0.5747 1.1588e-6 0 1-0.60547-0.86133l0.65039-0.92578 0.65234-0.92578a0.69924 0.5747 1.1588e-6 0 1 0.56641-0.28516z" fill="currentColor"/>
  <circle class="ColorScheme-NegativeText" cx="20" cy="50" r="2" fill="currentColor"/>
 </g>
 <g id="22-22-update-none" transform="translate(32,-118)">
  <rect y="32" width="22" height="22" opacity=".001"/>
  <path class="ColorScheme-Text" d="m11 35c-4.4183 0-8 3.5817-8 8 0 4.418 3.5817 8 8 8 4.418 0 8-3.582 8-8 0-4.4183-3.582-8-8-8zm0 2c1.4958 0 2.9891 0.56016 4.1484 1.6719-0.3707 0.14382-0.7136 0.37797-0.97656 0.75l-0.46094 0.6543c-1.5688-1.4543-4.0135-1.4299-5.5391 0.095703-0.78091 0.78091-1.1679 1.8045-1.168 2.8281h0.29688a0.69924 0.5747 1.1588e-6 0 1 0.60547 0.86133l-0.65039 0.92578-0.65234 0.92578a0.69924 0.5747 1.1588e-6 0 1-1.209 0l-1.3008-1.8516a0.69924 0.5747 1.1588e-6 0 1 0.39844-0.83594 0.69924 0.5747 1.1588e-6 0 1 0.20508-0.025391h0.30469c7.06e-5 -1.5355 0.58441-3.0707 1.7559-4.2422 1.1716-1.1716 2.7067-1.7578 4.2422-1.7578zm4.9629 3.002a0.69924 0.5747 1.1588e-6 0 1 0.64258 0.28516l1.3008 1.8516a0.69924 0.5747 1.1588e-6 0 1-0.39844 0.83594 0.69924 0.5747 1.1588e-6 0 1-0.20508 0.025391h-0.30469c-7.1e-5 1.5355-0.58441 3.0707-1.7559 4.2422-1.1716 1.1716-2.7067 1.7578-4.2422 1.7578-1.4949 0-2.9874-0.55949-4.1465-1.6699 0.36373-0.14094 0.70826-0.37348 0.97461-0.75v-2e-3l0.46094-0.6543c1.5688 1.4543 4.0135 1.4299 5.5391-0.0957 0.78091-0.78087 1.1679-1.8045 1.168-2.8281h-0.29688a0.69924 0.5747 1.1588e-6 0 1-0.60547-0.86133l0.65039-0.92578 0.65234-0.92578a0.69924 0.5747 1.1588e-6 0 1 0.56641-0.28516z" fill="currentColor" opacity=".35"/>
 </g>
 <g id="update-low">
  <rect width="32" height="32" opacity=".001"/>
  <path class="ColorScheme-Text" d="m16 4c-6.6274 0-12 5.3726-12 12 0 6.627 5.3726 12 12 12 6.627 0 12-5.373 12-12 0-6.6274-5.373-12-12-12zm0 3c2.1628 0 4.3186 0.78637 6.0293 2.3359-0.40938 0.19881-0.79651 0.48705-1.1133 0.91797l-0.001954 0.001953-0.92969 1.2695c-2.356-2.1006-5.9662-2.0279-8.2266 0.23242-1.1716 1.1716-1.7501 2.7066-1.75 4.2422h0.87109a1.1223 0.88227 0 0 1 0.9707 1.3223l-1.1895 1.6191-1.1875 1.6191a1.1223 0.88227 0 0 1-1.9434 0l-2.3789-3.2383a1.1223 0.88227 0 0 1 0.9707-1.3223h0.88281c-1.864e-4 -2.3035 0.87527-4.6057 2.6328-6.3633 1.7574-1.7574 4.06-2.6367 6.3633-2.6367zm7.4395 4a1.1223 0.88227 0 0 1 1.0312 0.43945l2.3789 3.2383a1.1223 0.88227 0 0 1-0.9707 1.3223h-0.88281c1.86e-4 2.3035-0.87527 4.6057-2.6328 6.3633-1.7574 1.7574-4.06 2.6367-6.3633 2.6367-2.1628 0-4.3186-0.78637-6.0293-2.3359 0.40938-0.19881 0.79651-0.48705 1.1133-0.91797l0.001954-0.001953 0.92969-1.2695c2.356 2.1006 5.9662 2.0279 8.2266-0.23242 1.1716-1.1716 1.7501-2.7066 1.75-4.2422h-0.87109a1.1223 0.88227 0 0 1-0.9707-1.3223l1.1895-1.6191 1.1875-1.6191a1.1223 0.88227 0 0 1 0.91211-0.43945z" fill="currentColor"/>
  <circle class="ColorScheme-Highlight" cx="29" cy="26" r="3" fill="currentColor"/>
 </g>
 <g id="update-medium" transform="translate(0,-32)">
  <rect width="32" height="32" opacity=".001"/>
  <path class="ColorScheme-Text" d="m16 4c-6.6274 0-12 5.3726-12 12 0 6.627 5.3726 12 12 12 6.627 0 12-5.373 12-12 0-6.6274-5.373-12-12-12zm0 3c2.1628 0 4.3186 0.78637 6.0293 2.3359-0.40938 0.19881-0.79651 0.48705-1.1133 0.91797l-2e-3 2e-3 -0.92969 1.2695c-2.356-2.1006-5.9662-2.0279-8.2266 0.23242-1.1716 1.1716-1.7501 2.7066-1.75 4.2422h0.87109a1.1223 0.88227 0 0 1 0.9707 1.3223l-1.1895 1.6191-1.1875 1.6191a1.1223 0.88227 0 0 1-1.9434 0l-1.1894-1.6192-1.1895-1.6191a1.1223 0.88227 0 0 1 0.9707-1.3223h0.88281c-1.864e-4 -2.3035 0.87527-4.6057 2.6328-6.3633 1.7574-1.7574 4.06-2.6367 6.3633-2.6367zm7.4395 4a1.1223 0.88227 0 0 1 1.0312 0.43945l2.3789 3.2383a1.1223 0.88227 0 0 1-0.9707 1.3223h-0.88281c1.86e-4 2.3035-0.87527 4.6057-2.6328 6.3633-1.7574 1.7574-4.06 2.6367-6.3633 2.6367-2.1628 0-4.3186-0.78637-6.0293-2.3359 0.40938-0.19881 0.79651-0.48705 1.1133-0.91797l2e-3 -2e-3 0.92969-1.2695c2.356 2.1006 5.9662 2.0279 8.2266-0.23242 1.1716-1.1716 1.7501-2.7066 1.75-4.2422h-0.87109a1.1223 0.88227 0 0 1-0.9707-1.3223l1.1895-1.6191 1.1875-1.6191a1.1223 0.88227 0 0 1 0.91206-0.43941z" fill="currentColor"/>
  <circle class="ColorScheme-NeutralText" cx="29" cy="26" r="3" fill="currentColor"/>
 </g>
 <g id="update-high" transform="translate(0,-64)">
  <rect width="32" height="32" opacity=".001"/>
  <path class="ColorScheme-Text" d="m16 4c-6.6274 0-12 5.3726-12 12 0 6.627 5.3726 12 12 12 6.627 0 12-5.373 12-12 0-6.6274-5.373-12-12-12zm0 3c2.1628 0 4.3186 0.78637 6.0293 2.3359-0.40938 0.19881-0.79651 0.48705-1.1133 0.91797l-2e-3 2e-3 -0.92969 1.2695c-2.356-2.1006-5.9662-2.0279-8.2266 0.23242-1.1716 1.1716-1.7501 2.7066-1.75 4.2422h0.87109a1.1223 0.88227 0 0 1 0.9707 1.3223l-1.1895 1.6191-1.1875 1.6191a1.1223 0.88227 0 0 1-1.9434 0l-1.1894-1.6192-1.1895-1.6191a1.1223 0.88227 0 0 1 0.9707-1.3223h0.88281c-1.864e-4 -2.3035 0.87527-4.6057 2.6328-6.3633 1.7574-1.7574 4.06-2.6367 6.3633-2.6367zm7.4395 4a1.1223 0.88227 0 0 1 1.0312 0.43945l2.3789 3.2383a1.1223 0.88227 0 0 1-0.9707 1.3223h-0.88281c1.86e-4 2.3035-0.87527 4.6057-2.6328 6.3633-1.7574 1.7574-4.06 2.6367-6.3633 2.6367-2.1628 0-4.3186-0.78637-6.0293-2.3359 0.40938-0.19881 0.79651-0.48705 1.1133-0.91797l2e-3 -2e-3 0.92969-1.2695c2.356 2.1006 5.9662 2.0279 8.2266-0.23242 1.1716-1.1716 1.7501-2.7066 1.75-4.2422h-0.87109a1.1223 0.88227 0 0 1-0.9707-1.3223l1.1895-1.6191 1.1875-1.6191a1.1223 0.88227 0 0 1 0.91206-0.43941z" fill="currentColor"/>
  <circle class="ColorScheme-NegativeText" cx="29" cy="26" r="3" fill="currentColor"/>
 </g>
 <g id="update-none" transform="translate(0,-96)">
  <rect width="32" height="32" opacity=".001"/>
  <path class="ColorScheme-Text" d="m16 4c-6.6274 0-12 5.3726-12 12 0 6.627 5.3726 12 12 12 6.627 0 12-5.373 12-12 0-6.6274-5.373-12-12-12zm0 3c2.1628 0 4.3186 0.78637 6.0293 2.3359-0.40938 0.19881-0.79651 0.48705-1.1133 0.91797l-2e-3 2e-3 -0.92969 1.2695c-2.356-2.1006-5.9662-2.0279-8.2266 0.23242-1.1716 1.1716-1.7501 2.7066-1.75 4.2422h0.87109a1.1223 0.88227 0 0 1 0.9707 1.3223l-1.1895 1.6191-1.1875 1.6191a1.1223 0.88227 0 0 1-1.9434 0l-1.1894-1.6192-1.1895-1.6191a1.1223 0.88227 0 0 1 0.9707-1.3223h0.88281c-1.864e-4 -2.3035 0.87527-4.6057 2.6328-6.3633 1.7574-1.7574 4.06-2.6367 6.3633-2.6367zm7.4395 4a1.1223 0.88227 0 0 1 1.0312 0.43945l2.3789 3.2383a1.1223 0.88227 0 0 1-0.9707 1.3223h-0.88281c1.86e-4 2.3035-0.87527 4.6057-2.6328 6.3633-1.7574 1.7574-4.06 2.6367-6.3633 2.6367-2.1628 0-4.3186-0.78637-6.0293-2.3359 0.40938-0.19881 0.79651-0.48705 1.1133-0.91797l2e-3 -2e-3 0.92969-1.2695c2.356 2.1006 5.9662 2.0279 8.2266-0.23242 1.1716-1.1716 1.7501-2.7066 1.75-4.2422h-0.87109a1.1223 0.88227 0 0 1-0.9707-1.3223l1.1895-1.6191 1.1875-1.6191a1.1223 0.88227 0 0 1 0.91206-0.43941z" fill="currentColor" opacity=".35"/>
 </g>
</svg>
