<?xml version="1.0" encoding="UTF-8"?>
<svg width="32" height="32" version="1.1" xmlns="http://www.w3.org/2000/svg">
 <defs id="materia">
  <style id="current-color-scheme" type="text/css">.ColorScheme-Background {color:#181818; } .ColorScheme-ButtonBackground { color:#343434; } .ColorScheme-Highlight { color:#4285f4; } .ColorScheme-Text { color:#dfdfdf; } .ColorScheme-ViewBackground { color:#242424; } .ColorScheme-NegativeText { color:#f44336; } .ColorScheme-PositiveText { color:#4caf50; } .ColorScheme-NeutralText { color:#ff9800; }</style>
 </defs>
 <g id="22-22-user-identity" transform="translate(0,-22)">
  <rect width="22" height="22" opacity=".001"/>
  <path class="ColorScheme-Text" d="m11 3c-4.432 0-8 3.568-8 8s3.568 8 8 8 8-3.568 8-8-3.568-8-8-8zm0 3c1.1045 0 2 0.89547 2 2 0 1.1044-0.8956 2-2 2s-2-0.8956-2-2 0.8956-2 2-2zm0 5c3.9992-0.0015 4 2.4609 4 2.4609v1c0-1e-6 -0.73846 1.5391-4 1.5391-3.2615 0-4-1.5391-4-1.5391v-1c0-1e-6 3.998e-4 -2.4586 4-2.4609z" fill="currentColor"/>
 </g>
 <g id="22-22-user-online" transform="translate(155,-27)">
  <rect x="5" y="5" width="22" height="22" opacity=".001"/>
  <path class="ColorScheme-Text" d="m16 8c-4.432 0-8 3.568-8 8s3.568 8 8 8c0.40259 0 0.79534-0.03885 1.1816-0.0957a5.5 5.5 0 0 1-1.1543-2.9062c-0.010026 2.6e-5 -0.017271 0.00195-0.027344 0.00195-3.2615 0-4-1.5391-4-1.5391v-1c0-1e-6 4e-4 -2.4586 4-2.4609 0.82331-3.09e-4 1.469 0.10788 1.9883 0.27344a5.5 5.5 0 0 1 3.5117-1.2734 5.5 5.5 0 0 1 2.4805 0.59766c-0.20957-4.2423-3.6843-7.5977-7.9805-7.5977zm0 3c1.1045 0 2 0.89547 2 2 0 1.1044-0.8956 2-2 2s-2-0.8956-2-2 0.8956-2 2-2z" fill="currentColor"/>
  <path class="ColorScheme-PositiveText" d="m21.188 16.01c-1.441 0.10184-2.8073 0.89504-3.584 2.2402-1.2426 2.1523-0.50583 4.9038 1.6465 6.1465 2.1523 1.2426 4.9038 0.50583 6.1465-1.6465 1.2426-2.1523 0.50583-4.9038-1.6465-6.1465-0.80712-0.46599-1.6979-0.65485-2.5625-0.59375zm2.459 2.6367 0.70703 0.70703-3.3535 3.3535-2.3535-2.3535 0.70703-0.70703 1.6465 1.6465z" fill="currentColor"/>
 </g>
 <g id="22-22-user-busy" transform="translate(27,-27)">
  <rect x="5" y="5" width="22" height="22" opacity=".001"/>
  <path class="ColorScheme-Text" d="m16 8c-4.432 0-8 3.568-8 8s3.568 8 8 8c0.40259 0 0.79534-0.03885 1.1816-0.0957a5.5 5.5 0 0 1-1.1543-2.9062c-0.010026 2.6e-5 -0.017271 0.00195-0.027344 0.00195-3.2615 0-4-1.5391-4-1.5391v-1c0-1e-6 4e-4 -2.4586 4-2.4609 0.82331-3.09e-4 1.469 0.10788 1.9883 0.27344a5.5 5.5 0 0 1 3.5117-1.2734 5.5 5.5 0 0 1 2.4805 0.59766c-0.20957-4.2423-3.6843-7.5977-7.9805-7.5977zm0 3c1.1045 0 2 0.89547 2 2 0 1.1044-0.8956 2-2 2s-2-0.8956-2-2 0.8956-2 2-2z" fill="currentColor"/>
  <path class="ColorScheme-NegativeText" d="m21.5 16a4.5 4.5 0 0 0-4.5 4.5 4.5 4.5 0 0 0 4.5 4.5 4.5 4.5 0 0 0 4.5-4.5 4.5 4.5 0 0 0-4.5-4.5zm-0.5 1h1v3h3v1h-4v-1z" fill="currentColor"/>
 </g>
 <g id="22-22-user-offline" transform="translate(91,-27)">
  <rect x="5" y="5" width="22" height="22" opacity=".001"/>
  <path class="ColorScheme-Text" d="m16 8c-4.432 0-8 3.568-8 8s3.568 8 8 8c0.40259 0 0.79534-0.03885 1.1816-0.0957a5.5 5.5 0 0 1-1.1543-2.9062c-0.010026 2.6e-5 -0.017271 0.00195-0.027344 0.00195-3.2615 0-4-1.5391-4-1.5391v-1c0-1e-6 4e-4 -2.4586 4-2.4609 0.82331-3.09e-4 1.469 0.10788 1.9883 0.27344a5.5 5.5 0 0 1 3.5117-1.2734 5.5 5.5 0 0 1 2.4805 0.59766c-0.20957-4.2423-3.6843-7.5977-7.9805-7.5977zm0 3c1.1045 0 2 0.89547 2 2 0 1.1044-0.8956 2-2 2s-2-0.8956-2-2 0.8956-2 2-2z" fill="currentColor" opacity=".35"/>
  <path class="ColorScheme-Text" d="m21.5 16c-2.4853 0-4.5 2.0147-4.5 4.5s2.0147 4.5 4.5 4.5 4.5-2.0147 4.5-4.5-2.0147-4.5-4.5-4.5zm2.5 4v1h-5v-1z" fill="currentColor"/>
 </g>
 <g id="22-22-user-invisible" transform="translate(123,-27)">
  <rect x="5" y="5" width="22" height="22" opacity=".001"/>
  <path class="ColorScheme-Text" d="m16 8c-4.432 0-8 3.568-8 8s3.568 8 8 8c0.40259 0 0.79534-0.03885 1.1816-0.0957a5.5 5.5 0 0 1-1.1543-2.9062c-0.010026 2.6e-5 -0.017271 0.00195-0.027344 0.00195-3.2615 0-4-1.5391-4-1.5391v-1c0-1e-6 4e-4 -2.4586 4-2.4609 0.82331-3.09e-4 1.469 0.10788 1.9883 0.27344a5.5 5.5 0 0 1 3.5117-1.2734 5.5 5.5 0 0 1 2.4805 0.59766c-0.20957-4.2423-3.6843-7.5977-7.9805-7.5977zm0 3c1.1045 0 2 0.89547 2 2 0 1.1044-0.8956 2-2 2s-2-0.8956-2-2 0.8956-2 2-2z" fill="currentColor"/>
  <path class="ColorScheme-Text" d="m17.603 18.25c-1.2426 2.1523-0.5052 4.9045 1.6471 6.1471 2.1523 1.2426 4.9045 0.5052 6.1471-1.6471 1.2426-2.1523 0.5052-4.9045-1.6471-6.1471-2.1523-1.2426-4.9045-0.5052-6.1471 1.6471zm4.7141-0.16506 0.86602 0.5-2.5 4.3301-0.86602-0.5z" fill="currentColor"/>
 </g>
 <g id="22-22-user-away-extended" transform="translate(187,-27)">
  <rect x="5" y="5" width="22" height="22" opacity=".001"/>
  <path class="ColorScheme-Text" d="m16 8c-4.432 0-8 3.568-8 8s3.568 8 8 8c0.40259 0 0.79534-0.03885 1.1816-0.0957a5.5 5.5 0 0 1-1.1543-2.9062c-0.010026 2.6e-5 -0.017271 0.00195-0.027344 0.00195-3.2615 0-4-1.5391-4-1.5391v-1c0-1e-6 4e-4 -2.4586 4-2.4609 0.82331-3.09e-4 1.469 0.10788 1.9883 0.27344a5.5 5.5 0 0 1 3.5117-1.2734 5.5 5.5 0 0 1 2.4805 0.59766c-0.20957-4.2423-3.6843-7.5977-7.9805-7.5977zm0 3c1.1045 0 2 0.89547 2 2 0 1.1044-0.8956 2-2 2s-2-0.8956-2-2 0.8956-2 2-2z" fill="currentColor"/>
  <path class="ColorScheme-Text" d="m21.5 16c-2.4853 0-4.5 2.0147-4.5 4.5s2.0147 4.5 4.5 4.5 4.5-2.0147 4.5-4.5-2.0147-4.5-4.5-4.5zm-2.5 4h1v1h-1zm2 0h1v1h-1zm2 0h1v1h-1z" fill="currentColor"/>
 </g>
 <g id="22-22-user-away" transform="translate(59,-27)">
  <rect x="5" y="5" width="22" height="22" opacity=".001"/>
  <path class="ColorScheme-Text" d="m16 8c-4.432 0-8 3.568-8 8s3.568 8 8 8c0.40259 0 0.79534-0.03885 1.1816-0.0957a5.5 5.5 0 0 1-1.1543-2.9062c-0.010026 2.6e-5 -0.017271 0.00195-0.027344 0.00195-3.2615 0-4-1.5391-4-1.5391v-1c0-1e-6 4e-4 -2.4586 4-2.4609 0.82331-3.09e-4 1.469 0.10788 1.9883 0.27344a5.5 5.5 0 0 1 3.5117-1.2734 5.5 5.5 0 0 1 2.4805 0.59766c-0.20957-4.2423-3.6843-7.5977-7.9805-7.5977zm0 3c1.1045 0 2 0.89547 2 2 0 1.1044-0.8956 2-2 2s-2-0.8956-2-2 0.8956-2 2-2z" fill="currentColor"/>
  <path class="ColorScheme-NeutralText" d="m21.5 16c-2.4853 0-4.5 2.0147-4.5 4.5s2.0147 4.5 4.5 4.5 4.5-2.0147 4.5-4.5-2.0147-4.5-4.5-4.5zm2.5 2-1.25 4.375-1.25-0.625-0.625 1.25-0.625-1.875-1.25-0.625z" fill="currentColor"/>
 </g>
 <g id="22-22-user-trash" transform="translate(251,-27)">
  <rect x="5" y="5" width="22" height="22" opacity=".001"/>
  <path class="ColorScheme-Text" d="m14 9c-1 0-1 1-1 1h-3s-1 0-1 1v1h13v-1c0-1-1-1-1-1h-3s0-1-1-1zm-4 4v9c0 0.52 0.48 1 1 1h9c0.52 0 1-0.48 1-1v-9z" fill="currentColor"/>
 </g>
 <g id="22-22-user-trash-full" transform="translate(283,-27)">
  <rect x="5" y="5" width="22" height="22" opacity=".001"/>
  <path class="ColorScheme-Text" d="m14 9c-1 0-1 1-1 1h-3s-1 0-1 1v1h13v-1c0-1-1-1-1-1h-3s0-1-1-1zm-5 4v3c0 1 0.05922 2.15 0.19922 3 0.14 0.85 0.80078 3 0.80078 3s0.48 1 1 1h9c0.52 0 1-1 1-1s0.66078-2.15 0.80078-3 0.19922-2 0.19922-3v-3z" fill="currentColor"/>
 </g>
 <g id="22-22-user-desktop" transform="translate(219,-27)">
  <rect x="5" y="5" width="22" height="22" opacity=".001"/>
  <path class="ColorScheme-Text" d="m8 11v11.205c0 0.44068 0.35758 0.79492 0.80078 0.79492h3.1992v-1c0-0.554 0.41244-1 0.92383-1h6.1523c0.51138 0 0.92383 0.446 0.92383 1v1h3.1992c0.4432 0 0.80078-0.35424 0.80078-0.79492v-11.205z" fill="currentColor"/>
  <path class="ColorScheme-Text" d="m8.8 9c-0.4432 0-0.8 0.35477-0.8 0.79545v1.2045h16v-1.2045c0-0.44068-0.35712-0.79545-0.8-0.79545z" fill="currentColor" opacity=".35"/>
 </g>
 <g id="user-identity">
  <rect width="32" height="32" opacity=".001"/>
  <path class="ColorScheme-Text" d="m16 4c-6.648 0-12 5.352-12 12 0 6.648 5.352 12 12 12 6.648 0 12-5.352 12-12 0-6.648-5.352-12-12-12zm0 5c1.6568 0 3 1.3432 3 3 0 1.6566-1.3434 3-3 3-1.6566 0-3-1.3434-3-3s1.3434-3 3-3zm0 8c5.9988-0.0021 6 3.4453 6 3.4453v1.4004c0-1e-6 -1.1077 2.1543-6 2.1543-4.8923 0-6-2.1543-6-2.1543v-1.4004c0-2e-6 6e-4 -3.4421 6-3.4453z" fill="currentColor"/>
 </g>
 <g id="user-busy" transform="translate(32)">
  <rect width="32" height="32" opacity=".001"/>
  <path class="ColorScheme-Text" transform="translate(-32)" d="m48 4c-6.648 0-12 5.352-12 12 0 6.648 5.352 12 12 12 0.24535 0 0.48495-0.022729 0.72656-0.037109a8 8 0 0 1-1.6562-3.9922c-4.1027-0.25126-5.0703-2.125-5.0703-2.125v-1.4004c0-1e-6 6e-4 -3.4421 6-3.4453 0.59769-2.09e-4 1.1209 0.04206 1.6055 0.10352a8 8 0 0 1 5.3945-2.1035 8 8 0 0 1 4.9629 1.7344c0.014682-0.24416 0.037109-0.4864 0.037109-0.73438 0-6.648-5.352-12-12-12zm0 5c1.6568 0 3 1.3432 3 3 0 1.6566-1.3434 3-3 3-1.6566 0-3-1.3434-3-3s1.3434-3 3-3z" fill="currentColor"/>
  <path class="ColorScheme-NegativeText" transform="translate(-32)" d="m55 17c-3.3137 0-6 2.6863-6 6s2.6863 6 6 6 6-2.6863 6-6-2.6863-6-6-6zm-1 2h2v3h3v2h-3-2v-2-3z" fill="currentColor"/>
 </g>
 <g id="user-away" transform="translate(64)">
  <rect width="32" height="32" opacity=".001"/>
  <path class="ColorScheme-Text" transform="translate(-64)" d="m80 4c-6.648 0-12 5.352-12 12 0 6.648 5.352 12 12 12 0.24535 0 0.48495-0.022729 0.72656-0.037109-0.90791-1.1536-1.4809-2.5347-1.6562-3.9922-4.1027-0.25126-5.0703-2.125-5.0703-2.125v-1.4004c0-1e-6 6e-4 -3.4421 6-3.4453 0.59769-2.09e-4 1.1209 0.04206 1.6055 0.10352 1.4725-1.3501 3.3968-2.1005 5.3945-2.1035 1.8024 0.0025 3.5512 0.61367 4.9629 1.7344 0.014682-0.24416 0.037109-0.4864 0.037109-0.73438 0-6.648-5.352-12-12-12zm0 5c1.6568 0 3 1.3432 3 3 0 1.6566-1.3434 3-3 3-1.6566 0-3-1.3434-3-3s1.3434-3 3-3z" fill="currentColor"/>
  <path class="ColorScheme-NeutralText" transform="translate(-64)" d="m87 17c-3.3137 0-6 2.6863-6 6s2.6863 6 6 6 6-2.6863 6-6-2.6863-6-6-6zm3 3-1.5 5.25-1.5-0.75-0.75 1.5-0.75-2.25-1.5-0.75 6-3z" fill="currentColor"/>
 </g>
 <g id="user-offline" transform="translate(96)">
  <rect width="32" height="32" opacity=".001"/>
  <path class="ColorScheme-Text" d="m16 4c-6.648 0-12 5.352-12 12 0 6.648 5.352 12 12 12 0.24535 0 0.48495-0.02273 0.72656-0.03711-0.90791-1.1536-1.4809-2.5347-1.6562-3.9922-4.1027-0.25126-5.0703-2.125-5.0703-2.125v-1.4004c0-1e-6 6e-4 -3.4421 6-3.4453 0.59769-2.09e-4 1.1209 0.04206 1.6055 0.10352 1.4725-1.3501 3.3968-2.1005 5.3945-2.1035 1.8024 0.0025 3.5512 0.61367 4.9629 1.7344 0.014682-0.24416 0.037109-0.4864 0.037109-0.73438 0-6.648-5.352-12-12-12zm0 5c1.6568 0 3 1.3432 3 3 0 1.6566-1.3434 3-3 3-1.6566 0-3-1.3434-3-3s1.3434-3 3-3z" fill="currentColor" opacity=".35"/>
  <path class="ColorScheme-Text" d="m23 17c-3.3137 0-6 2.6863-6 6s2.6863 6 6 6 6-2.6863 6-6-2.6863-6-6-6zm-4 5h8v2h-8z" fill="currentColor"/>
 </g>
 <g id="user-invisible" transform="translate(128)">
  <rect width="32" height="32" opacity=".001"/>
  <path class="ColorScheme-Text" transform="translate(-128)" d="m144 4c-6.648 0-12 5.352-12 12 0 6.648 5.352 12 12 12 0.24535 0 0.48495-0.022729 0.72656-0.037109-0.90791-1.1536-1.4809-2.5347-1.6562-3.9922-4.1026-0.25126-5.0703-2.125-5.0703-2.125v-1.4004c0-1e-6 6e-4 -3.4421 6-3.4453 0.59769-2.09e-4 1.1209 0.04206 1.6055 0.10352 1.4725-1.3501 3.3968-2.1005 5.3945-2.1035 1.8024 0.0025 3.5512 0.61367 4.9629 1.7344 0.01468-0.24416 0.03711-0.4864 0.03711-0.73438 0-6.648-5.352-12-12-12zm0 5c1.6568 0 3 1.3432 3 3 0 1.6566-1.3434 3-3 3s-3-1.3434-3-3 1.3434-3 3-3z" fill="currentColor"/>
  <path class="ColorScheme-Text" transform="translate(-128)" d="m151.16 17.002c-2.1274-0.055253-4.2166 1.0254-5.3555 2.998-1.6566 2.8693-0.67397 6.5387 2.1953 8.1953 2.8693 1.6566 6.5387 0.67396 8.1953-2.1953 1.6566-2.8693 0.67397-6.5387-2.1953-8.1953-0.89665-0.51768-1.8728-0.77762-2.8398-0.80274zm0.97265 2.0352 1.7324 1-1.5 2.5977-2.498 4.3281-1.7324-1 2.5-4.3281 1.498-2.5977z" fill="currentColor"/>
 </g>
 <g id="user-online" transform="translate(160)">
  <rect width="32" height="32" opacity=".001"/>
  <path class="ColorScheme-Text" transform="translate(-160)" d="m176 4c-6.648 0-12 5.352-12 12 0 6.648 5.352 12 12 12 0.24535 0 0.48495-0.022729 0.72656-0.037109-0.90791-1.1536-1.4809-2.5347-1.6562-3.9922-4.1026-0.25126-5.0703-2.125-5.0703-2.125v-1.4004c0-1e-6 6e-4 -3.4421 6-3.4453 0.59769-2.09e-4 1.1209 0.04206 1.6055 0.10352 1.4725-1.3501 3.3968-2.1005 5.3945-2.1035 1.8024 0.0025 3.5512 0.61367 4.9629 1.7344 0.01468-0.24416 0.03711-0.4864 0.03711-0.73438 0-6.648-5.352-12-12-12zm0 5c1.6568 0 3 1.3432 3 3 0 1.6566-1.3434 3-3 3s-3-1.3434-3-3 1.3434-3 3-3z" fill="currentColor"/>
  <path class="ColorScheme-PositiveText" transform="translate(-160)" d="m183 17c-3.3137 0-6 2.6863-6 6s2.6863 6 6 6 6-2.6863 6-6-2.6863-6-6-6zm2.6426 2.9531 1.4082 1.4219-4.7207 4.6719-3.3809-3.3809 1.4141-1.4141 1.9727 1.9727 3.3066-3.2715z" fill="currentColor"/>
 </g>
 <g id="user-away-extended" transform="translate(192)">
  <rect width="32" height="32" opacity=".001"/>
  <path class="ColorScheme-Text" transform="translate(-192)" d="m208 4c-6.648 0-12 5.352-12 12 0 6.648 5.352 12 12 12 0.24535 0 0.48495-0.022729 0.72656-0.037109-0.90791-1.1536-1.4809-2.5347-1.6562-3.9922-4.1026-0.25126-5.0703-2.125-5.0703-2.125v-1.4004c0-1e-6 6e-4 -3.4421 6-3.4453 0.59769-2.09e-4 1.1209 0.04206 1.6055 0.10352 1.4725-1.3501 3.3968-2.1005 5.3945-2.1035 1.8024 0.0025 3.5512 0.61367 4.9629 1.7344 0.01468-0.24416 0.03711-0.4864 0.03711-0.73438 0-6.648-5.352-12-12-12zm0 5c1.6568 0 3 1.3432 3 3 0 1.6566-1.3434 3-3 3s-3-1.3434-3-3 1.3434-3 3-3z" fill="currentColor"/>
  <path class="ColorScheme-Text" transform="translate(-192)" d="m215 17c-3.3137 0-6 2.6863-6 6s2.6863 6 6 6 6-2.6863 6-6-2.6863-6-6-6zm-4 5h2v2h-2v-2zm3 0h2v2h-2v-2zm3 0h2v2h-2v-2z" fill="currentColor"/>
 </g>
 <g id="user-trash" transform="translate(256)">
  <rect width="32" height="32" opacity=".001"/>
  <path class="ColorScheme-Text" d="m14.324 6c-1.3846 0-1.3848 1-1.3848 1h-4.5547s-1.3848-0.0092303-1.3848 1.4453v1.5547h18v-1.5547c0-1.4545-1.3848-1.4453-1.3848-1.4453h-4.5547s-1.51e-4 -1-1.3848-1zm-6.3242 6v12.545c0 0.75636 0.69871 1.4551 1.4551 1.4551h13.09c0.75636 0 1.4551-0.69871 1.4551-1.4551v-12.545z" fill="currentColor"/>
 </g>
 <g id="user-trash-full" transform="translate(288)">
  <rect width="32" height="32" opacity=".001"/>
  <path class="ColorScheme-Text" d="m14.324 6c-1.3846 0-1.3848 1-1.3848 1h-4.5547s-1.3848-0.0092303-1.3848 1.4453v1.5547h18v-1.5547c0-1.4545-1.3848-1.4453-1.3848-1.4453h-4.5547s-1.51e-4 -1-1.3848-1zm-7.3242 6v4.1992c0 1.4 0.081549 3.0112 0.27539 4.2012 0.19385 1.19 1.1094 4.1992 1.1094 4.1992s0.66477 1.4004 1.3848 1.4004h12.461c0.72 0 1.3848-1.4004 1.3848-1.4004s0.91553-3.0092 1.1094-4.1992 0.27539-2.8012 0.27539-4.2012v-4.1992z" fill="currentColor"/>
 </g>
 <g id="user-desktop" transform="translate(224)">
  <rect width="32" height="32" opacity=".001"/>
  <path class="ColorScheme-Text" d="m4 8v16.808c0 0.66102 0.53637 1.1924 1.2012 1.1924h4.7988v-1.5c0-0.831 0.61866-1.5 1.3857-1.5h9.2285c0.76708 0 1.3857 0.669 1.3857 1.5v1.5h4.7988c0.6648 0 1.2012-0.53136 1.2012-1.1924v-16.808z" fill="currentColor"/>
  <path class="ColorScheme-Text" d="m5.2 5c-0.6648 0-1.2 0.53216-1.2 1.1932v1.8068h24v-1.8068c0-0.66102-0.53568-1.1932-1.2-1.1932z" fill="currentColor" opacity=".35"/>
 </g>
</svg>
