<?xml version="1.0" encoding="UTF-8"?>
<svg width="32" height="32" version="1.1" xmlns="http://www.w3.org/2000/svg">
 <defs id="materia">
  <style id="current-color-scheme" type="text/css">.ColorScheme-Background {color:#181818; } .ColorScheme-ButtonBackground { color:#343434; } .ColorScheme-Highlight { color:#4285f4; } .ColorScheme-Text { color:#dfdfdf; } .ColorScheme-ViewBackground { color:#242424; } .ColorScheme-NegativeText { color:#f44336; } .ColorScheme-PositiveText { color:#4caf50; } .ColorScheme-NeutralText { color:#ff9800; }</style>
 </defs>
 <g id="22-22-video-display-brightness" transform="translate(2e-7 -22)">
  <rect width="22" height="22" opacity=".001"/>
  <path class="ColorScheme-Text" d="m11 1.0996-2.9004 2.9004h-4.0996v4.0996l-2.9004 2.9004 2.9004 2.9004v4.0996h4.0996l2.9004 2.9004 2.9004-2.9004h4.0996v-4.0996l2.9004-2.9004-2.9004-2.9004v-4.0996h-4.0996zm0 3.9004a6 6 0 0 1 6 6 6 6 0 0 1-6 6 6 6 0 0 1-6-6 6 6 0 0 1 6-6zm0 2c-2.2091 0-4 1.7909-4 4s1.7909 4 4 4z" fill="currentColor"/>
 </g>
 <g id="22-22-video-card-inactive" transform="translate(27 -27)">
  <rect x="5" y="5" width="22" height="22" opacity=".001"/>
  <path class="ColorScheme-Text" d="m9 8c-1.325 0-1.325 2 0 2h1v3h-2v3h2v1h-2v3h2v2c0 1.325 2 1.325 2 0v-13c0-0.99996-1-1-1-1zm4 3v2h9v5h0.19922c0.31658 0 0.47709 0.07124 0.46289 0.06836a1.0001 1.0001 0 0 1 0.50781 0.27344l0.83008 0.83008v-8.1719zm-4 3h1v1h-1zm5 0v4h1v-4zm2 0v4h1v-4zm2 0v4h1v-4zm2 0v4h1v-4zm-11 4h1v1h-1zm4 1v2h1v2h6.2051a1.0001 1.0001 0 0 1 0.13672-0.16992l0.83008-0.83008-0.83008-0.83008a1.0001 1.0001 0 0 1-0.13477-0.16992h-4.207v-2z" fill="currentColor"/>
  <path class="ColorScheme-NegativeText" d="m21 19v1.1992c0 0.0926 0.0311 0.17623 0.04883 0.26367l1.5371 1.5371-1.5371 1.5371c-0.01844 0.08759-0.04883 0.17258-0.04883 0.26367v1.1992h1.1992c0.09036 0 0.17566-0.03068 0.26367-0.04883l1.5371-1.5371 1.5371 1.5371c0.08802 0.01815 0.17331 0.04883 0.26367 0.04883h1.1992v-1.1992c0-0.09109-0.03039-0.17608-0.04883-0.26367l-1.5371-1.5371 1.5371-1.5371c0.01773-0.08744 0.04883-0.17107 0.04883-0.26367v-1.1992h-1.1992c-0.0926 0-0.17623 0.0311-0.26367 0.04883l-1.5371 1.5371-1.5371-1.5371c-0.08744-0.01772-0.17108-0.04883-0.26367-0.04883z" fill="currentColor"/>
 </g>
 <g id="video-display-brightness" transform="translate(2e-7,2e-6)">
  <rect width="32" height="32" opacity=".001"/>
  <path class="ColorScheme-Text" d="m16 2-4.1016 4h-5.8984v5.8984l-4 4.1016 4 4.1016v5.8984h5.8984l4.1016 4 4.1016-4h5.8984v-5.8984l4-4.1016-4-4.1016v-5.8984h-5.8984zm0 6c4.4183-3e-7 8 3.5817 8 8 1e-6 4.4183-3.5817 8-8 8s-8-3.5817-8-8c3e-7 -4.4183 3.5817-8 8-8zm0 3c-2.7614 0-5 2.2386-5 5s2.2386 5 5 5z" fill="currentColor"/>
 </g>
 <g id="video-card-inactive" transform="translate(32)">
  <rect width="32" height="32" opacity=".001"/>
  <path class="ColorScheme-Text" d="m5.5 4.0996c-1.9875 0-1.9875 3 0 3h1.5v4.9004h-3v4.0996h3v1.9004h-3v4.0996h3v3.4004c0 1.9875 3 1.9875 3 0v-19.9c0-1.4999-1.5-1.5-1.5-1.5zm5.5 4v3h14v7.9375c0.24974 0.03519 0.40646 0.08027 0.34766 0.06836l0.58984 0.11914 1.0625 1.0625 1-1.002v-11.186zm2 4.9004v6h1v-6zm3 0v6h1v-6zm3 0v6h1v-6zm3 0v6h1v-6zm-17 0.099609h2v1.9004h-2zm0 5.9004h2v2h-2zm6 1v3h2v3h8.2852l1-1-1.0605-1.0605-0.11914-0.5918c0.01189 0.058671-0.033176-0.097958-0.06836-0.34766h-5.0371v-3z" fill="currentColor"/>
  <path class="ColorScheme-NegativeText" d="m23 21v1.599c0 0.12347 0.04147 0.23497 0.0651 0.35156l2.0495 2.0495-2.0495 2.0495c-0.02459 0.11679-0.0651 0.23011-0.0651 0.35156v1.599h1.599c0.12048 0 0.23421-0.04091 0.35156-0.06511l2.0495-2.0495 2.0495 2.0495c0.11736 0.0242 0.23108 0.06511 0.35156 0.06511h1.599v-1.599c0-0.12145-0.04052-0.23477-0.06511-0.35156l-2.0495-2.0495 2.0495-2.0495c0.02364-0.11659 0.06511-0.2281 0.06511-0.35156v-1.599h-1.599c-0.12347 0-0.23497 0.04147-0.35156 0.0651l-2.0495 2.0495-2.0495-2.0495c-0.11659-0.02362-0.2281-0.0651-0.35156-0.0651z" fill="currentColor"/>
 </g>
 <g id="video-display" transform="translate(2e-7 66)">
  <rect y="-34" width="32" height="32" opacity=".001"/>
  <g transform="translate(2e-4,-35)">
   <path class="ColorScheme-Text" transform="translate(0,1)" d="m4.3008 4c-0.7202 0-1.3008 0.5575-1.3008 1.25v17.5c0 0.6925 0.58058 1.25 1.3008 1.25h3.6992v1.6875c0 0.7274 0.59355 1.3125 1.332 1.3125h13.336c0.73848 0 1.332-0.5851 1.332-1.3125v-1.6875h3.6992c0.7202 0 1.3008-0.5575 1.3008-1.25v-17.5c0-0.6925-0.58058-1.25-1.3008-1.25zm1.6992 3h20v14h-20z" fill="currentColor"/>
  </g>
 </g>
 <g id="22-22-video-display" transform="translate(27,37)">
  <rect x="5" y="5" width="22" height="22" opacity=".001"/>
  <path class="ColorScheme-Text" d="m9 9c-0.554 0-1 0.446-1 1v10c0 0.554 0.446 1 1 1h5c-0.554 0-1 0.446-1 1v1h6v-1c0-0.554-0.446-1-1-1h5c0.554 0 1-0.446 1-1v-10c0-0.554-0.446-1-1-1zm1 2h12v8h-12z" fill="currentColor"/>
 </g>
</svg>
