<?xml version="1.0" encoding="UTF-8"?>
<svg width="32" height="32" version="1.1" xmlns="http://www.w3.org/2000/svg">
 <defs id="materia">
  <style id="current-color-scheme" type="text/css">.ColorScheme-Background {color:#181818; } .ColorScheme-ButtonBackground { color:#343434; } .ColorScheme-Highlight { color:#4285f4; } .ColorScheme-Text { color:#dfdfdf; } .ColorScheme-ViewBackground { color:#242424; } .ColorScheme-NegativeText { color:#f44336; } .ColorScheme-PositiveText { color:#4caf50; } .ColorScheme-NeutralText { color:#ff9800; }</style>
 </defs>
 <g id="22-22-virt-manager" transform="translate(32,10)">
  <rect width="22" height="22" opacity=".001"/>
  <path class="ColorScheme-Text" d="m0 7 3.225 8h2.3l3.175-8h-2.175l-2.175 5.275-2.15-5.275z" fill="currentColor" opacity=".35"/>
  <path class="ColorScheme-Text" d="m9.825 7c-1.0831 2.6805-2.1839 5.3442-3.325 8h2.3l2.15-5.25 2.125 5.25h2.3l2.125-5.4 2.2 5.4h2.3c-1.1411-2.6558-2.2669-5.3195-3.35-8h-2.3l-2.125 5.275-2.175-5.275z" fill="currentColor"/>
 </g>
 <g id="virt-manager">
  <rect width="32" height="32" opacity=".001"/>
  <path class="ColorScheme-Text" d="m0 10 4.8375 12h3.45l4.7625-12h-3.2625l-3.2625 7.9125-3.225-7.9125z" fill="currentColor" opacity=".35"/>
  <path class="ColorScheme-Text" d="m13.738 10c-1.6247 4.0208-3.2759 8.0163-4.9875 12h3.45l3.225-7.875 3.1875 7.875h3.45l3.1875-8.1 3.3 8.1h3.45c-1.7117-3.9837-3.4004-7.9792-5.025-12h-3.45l-3.1875 7.9125-3.2625-7.9125z" fill="currentColor"/>
 </g>
</svg>
