<?xml version="1.0" encoding="UTF-8"?>
<svg width="32" height="32" version="1.1" xmlns="http://www.w3.org/2000/svg">
 <defs id="materia">
  <style id="current-color-scheme" type="text/css">.ColorScheme-Background {color:#181818; } .ColorScheme-ButtonBackground { color:#343434; } .ColorScheme-Highlight { color:#4285f4; } .ColorScheme-Text { color:#dfdfdf; } .ColorScheme-ViewBackground { color:#242424; } .ColorScheme-NegativeText { color:#f44336; } .ColorScheme-PositiveText { color:#4caf50; } .ColorScheme-NeutralText { color:#ff9800; }</style>
 </defs>
 <g id="22-22-vlc" transform="translate(0,-22)">
  <rect width="22" height="22" rx=".752" ry=".72" opacity=".001"/>
  <path class="ColorScheme-Text" d="m10.96 3c-5e-3 -2e-5 -0.01-2e-3 -0.0154-2e-3 -0.687 0-1.1558 0.1941-1.2235 0.45952-0.0348 0.0546-0.0769 0.1056-0.0957 0.16913l-0.64422 3.1748c0.96505 0.69965 3.066 0.69965 4.0311 0l-0.64421-3.1748c-4e-3 -0.0136-0.0157-0.0226-0.0205-0.0359 6e-5 -2e-3 3e-3 -4e-3 3e-3 -5e-3 -1e-5 -0.0819-0.0559-0.16285-0.14355-0.23745-0.077-0.0825-0.17385-0.14845-0.28365-0.1862-0.2966-0.10208-0.60827-0.16215-0.92617-0.1657zm-2.8058 6.6003-0.65106 2.1986h-1.056c-0.28245 7e-5 -0.53724 0.16987-0.64593 0.43049l-1.7498 5.7989c-0.19207 0.46083 0.14656 0.96845 0.64593 0.9686h12.599c0.49936-1.5e-4 0.83799-0.50777 0.64592-0.9686l-1.7498-5.7989c-0.1087-0.26062-0.36349-0.43042-0.64593-0.43049h-1.056l-0.65105-2.1986c-1.9246 0.76526-3.5418 0.96203-5.6852 0zm6.4371 2.5351 0.57587 1.9492c0.0897 0.30331-0.0346 0.62879-0.30417 0.79435-1.0985 0.67411-2.4982 1.0048-3.8927 1.0181-1.3944 0.0134-2.7952-0.28843-3.8739-1.0404-0.24703-0.17234-0.35537-0.48336-0.26999-0.77214l0.55024-1.8603c0.75371 0.44185 4.1682 1.7558 7.2146-0.0888z" fill="currentColor"/>
 </g>
 <g id="vlc">
  <rect width="32" height="32" rx="1.094" ry="1.047" opacity=".001"/>
  <path class="ColorScheme-Text" d="m15.445 4.0054c-0.0075-3e-5 -0.015-3e-3 -0.0231-3e-3 -1.0305 0-1.7337 0.29114-1.8353 0.68926-0.0522 0.081897-0.11535 0.1584-0.14355 0.25369l-0.96633 4.7621c1.4476 1.0494 4.599 1.0494 6.0467 0l-0.96632-4.7621c-6e-3 -0.0204-0.02355-0.033899-0.03075-0.053848 9.1e-5 -3e-3 0.0045-6e-3 0.0045-0.0075 2.1e-5 -0.12284-0.08381-0.24426-0.21529-0.35616-0.1155-0.12375-0.26078-0.22267-0.42548-0.27929-0.4449-0.15312-0.91241-0.24322-1.3893-0.24854zm-4.2087 10.001-0.97659 2.9971h-1.584c-0.42368 1.06e-4 -0.80586 0.2548-0.9689 0.64572l-2.6247 8.8983c-0.28811 0.69122 0.21984 1.4526 0.9689 1.4529h18.899c0.74904-2.25e-4 1.257-0.76163 0.96888-1.4529l-2.6247-8.8983c-0.16305-0.39092-0.54524-0.64561-0.9689-0.64572h-1.584l-0.97658-2.9971c-2.8869 1.1479-5.3127 1.443-8.5278 0zm9.6557 3.7021 0.8638 2.9237c0.13455 0.45495-0.0519 0.94316-0.45626 1.1915-1.6478 1.0111-3.7473 1.5072-5.8391 1.5271-2.0916 0.0201-4.1928-0.43263-5.8109-1.5606-0.37055-0.2585-0.53306-0.72502-0.40499-1.1582l0.82536-2.7904c1.1306 0.66276 6.2523 2.6336 10.822-0.1332z" fill="currentColor"/>
 </g>
</svg>
