<?xml version="1.0" encoding="UTF-8"?>
<svg width="32" height="32" version="1.1" xmlns="http://www.w3.org/2000/svg">
 <defs id="materia">
  <style id="current-color-scheme" type="text/css">.ColorScheme-Background {color:#181818; } .ColorScheme-ButtonBackground { color:#343434; } .ColorScheme-Highlight { color:#4285f4; } .ColorScheme-Text { color:#dfdfdf; } .ColorScheme-ViewBackground { color:#242424; } .ColorScheme-NegativeText { color:#f44336; } .ColorScheme-PositiveText { color:#4caf50; } .ColorScheme-NeutralText { color:#ff9800; }</style>
 </defs>
 <g id="22-22-wallet-closed" transform="translate(29.66 8.09)">
  <rect x="-29.66" y="-30.09" width="22" height="22" opacity=".001"/>
  <path class="ColorScheme-Text" d="m-25.159-27.085c-0.831 0-1.5 0.669-1.5 1.5v13c0 0.831 0.669 1.5 1.5 1.5h11c0.831 0 1.5-0.669 1.5-1.5v-1.5h-1.5996c-1.2872 0-2.4004-1.0303-2.4004-2.332v-5.334c0-1.3019 1.1132-2.334 2.4004-2.334h1.5996v-1.5c0-0.831-0.669-1.5-1.5-1.5zm10.9 4c-0.776 0-1.4004 0.59498-1.4004 1.334v5.334c0 0.738 0.62439 1.332 1.4004 1.332h3.5996v-8zm0.59961 3a1 1 0 0 1 1 1 1 1 0 0 1-1 1 1 1 0 0 1-1-1 1 1 0 0 1 1-1z" fill="currentColor"/>
 </g>
 <g id="22-22-wallet-open" transform="translate(27,-27)">
  <rect x="5" y="5" width="22" height="22" opacity=".001"/>
  <path class="ColorScheme-Text" d="m9.5 8c-0.831 0-1.5 0.669-1.5 1.5v13c0 0.831 0.669 1.5 1.5 1.5h11c0.831 0 1.5-0.669 1.5-1.5v-13c0-0.831-0.669-1.5-1.5-1.5zm16.5 5v6h0.14258c0.47486 0 0.85742-0.25088 0.85742-0.5625v-4.875c0-0.31162-0.38256-0.5625-0.85742-0.5625z" fill="currentColor"/>
  <path class="ColorScheme-Highlight" d="m22.908 9c0.055658 0.15722 0.091797 0.32324 0.091797 0.5v13c0 0.17676-0.03614 0.34278-0.0918 0.5h0.80664c0.71229 0 1.2852-0.58538 1.2852-1.3125v-11.375c0-0.72712-0.57287-1.3125-1.2852-1.3125z" fill="currentColor"/>
 </g>
 <g id="wallet-closed">
  <rect width="32" height="32" opacity=".001"/>
  <path class="ColorScheme-Text" d="m6.25 4c-1.2465 0-2.25 1.0035-2.25 2.25v19.5c0 1.2465 1.0035 2.25 2.25 2.25h16.5c1.2465 0 2.25-1.0035 2.25-2.25v-2.75h-2.3984c-1.9308 0-3.6016-1.5455-3.6016-3.498v-7.002c0-1.9529 1.6751-3.3716 3.6016-3.5h2.3984v-2.75c0-1.2465-1.0035-2.25-2.25-2.25zm16.43 7c-0.9312 0-1.6797 0.74422-1.6797 1.668v6.668c0 0.9225 0.74849 1.6641 1.6797 1.6641h4.3203v-10zm0.32031 4a1 1 0 0 1 1 1 1 1 0 0 1-1 1 1 1 0 0 1-1-1 1 1 0 0 1 1-1z" fill="currentColor"/>
 </g>
 <g id="wallet-open" transform="translate(32)">
  <rect width="32" height="32" opacity=".001"/>
  <path class="ColorScheme-Text" d="m5.25 4c-1.2465 0-2.25 1.0035-2.25 2.25v19.5c0 1.2465 1.0035 2.25 2.25 2.25h16.5c1.2465 0 2.25-1.0035 2.25-2.25v-19.5c0-1.2465-1.0035-2.25-2.25-2.25zm23.75 7v10h0.28516c0.94971 0 1.7148-0.41812 1.7148-0.9375v-8.125c0-0.51938-0.76513-0.9375-1.7148-0.9375z" fill="currentColor"/>
  <path class="ColorScheme-Highlight" d="m24 6c0.07982 0.2246 0.13165 0.46177 0.13165 0.71429v18.571c0 0.25252-0.05183 0.48968-0.13166 0.71428h1.1569c1.0215 0 1.8431-0.83625 1.8431-1.875v-16.25c0-1.0388-0.8216-1.875-1.8431-1.875z" fill="currentColor"/>
 </g>
</svg>
