<?xml version="1.0" encoding="UTF-8"?>
<svg width="32" height="32" version="1.1" xmlns="http://www.w3.org/2000/svg">
 <defs id="materia">
  <style id="current-color-scheme" type="text/css">.ColorScheme-Background {color:#181818; } .ColorScheme-ButtonBackground { color:#343434; } .ColorScheme-Highlight { color:#4285f4; } .ColorScheme-Text { color:#dfdfdf; } .ColorScheme-ViewBackground { color:#242424; } .ColorScheme-NegativeText { color:#f44336; } .ColorScheme-PositiveText { color:#4caf50; } .ColorScheme-NeutralText { color:#ff9800; }</style>
 </defs>
 <rect x="-38.33" y="13.77" width="22" height="22" opacity=".001"/>
 <g id="22-22-window-close" transform="translate(32,10)">
  <rect width="22" height="22" opacity=".001"/>
  <g transform="matrix(1.7493 0 0 1.7499 -107.95 -909.47)">
   <g transform="translate(19,-242)">
    <path class="ColorScheme-Text" d="m45.571 764.57h0.85714c0.0089-1.1e-4 0.01782-4e-4 0.02679 0 0.21853 0.01 0.43703 0.11021 0.58929 0.26785l1.9554 1.9554 1.9821-1.9554c0.22768-0.19757 0.38286-0.26185 0.58928-0.26785h0.85714v0.85714c0 0.24555-0.02943 0.47199-0.21428 0.64286l-1.9554 1.9554 1.9286 1.9286c0.1613 0.16128 0.24106 0.38867 0.24107 0.61607v0.85714h-0.85714c-0.2274-1e-5 -0.45479-0.0798-0.61607-0.24107l-1.9554-1.9554-1.9554 1.9554c-0.16129 0.1613-0.38868 0.24107-0.61608 0.24107h-0.85714v-0.85714c-3e-6 -0.22739 0.07977-0.45479 0.24107-0.61607l1.9554-1.9286-1.9554-1.9554c-0.18064-0.16683-0.25985-0.40222-0.24107-0.64286z" fill="currentColor"/>
   </g>
  </g>
 </g>
 <g id="window-close">
  <rect width="32" height="32" opacity=".001"/>
  <g transform="matrix(2.624 0 0 2.6249 -162.43 -1364.7)">
   <g transform="translate(19,-242)">
    <path class="ColorScheme-Text" d="m45.571 764.57h0.85714c0.0089-1.1e-4 0.01782-4e-4 0.02679 0 0.21853 0.01 0.43703 0.11021 0.58929 0.26785l1.9554 1.9554 1.9821-1.9554c0.22768-0.19757 0.38286-0.26185 0.58928-0.26785h0.85714v0.85714c0 0.24555-0.02943 0.47199-0.21428 0.64286l-1.9554 1.9554 1.9286 1.9286c0.1613 0.16128 0.24106 0.38867 0.24107 0.61607v0.85714h-0.85714c-0.2274-1e-5 -0.45479-0.0798-0.61607-0.24107l-1.9554-1.9554-1.9554 1.9554c-0.16129 0.1613-0.38868 0.24107-0.61608 0.24107h-0.85714v-0.85714c-3e-6 -0.22739 0.07977-0.45479 0.24107-0.61607l1.9554-1.9286-1.9554-1.9554c-0.18064-0.16683-0.25985-0.40222-0.24107-0.64286z" fill="currentColor"/>
   </g>
  </g>
 </g>
 <g id="22-22-window-pin" transform="translate(27,-27)">
  <rect x="5" y="5" width="22" height="22" opacity=".001"/>
  <path class="ColorScheme-Text" d="m12.021 8a0.99476 1.0001 0 1 0 0 2h0.97852v3c0 1.328-1.6957 2-3 2v2h5v6l0.97656 1 1.0234-1v-6h5v-2c-1.3043 0-3.0557-0.67317-3-2v-3h0.97852a0.99476 1.0001 0 1 0 0-2z" fill="currentColor"/>
 </g>
 <g id="16-16-window-pin" transform="translate(46,-24)">
  <rect x="8" y="8" width="16" height="16" opacity=".001"/>
  <path class="ColorScheme-Text" d="m13.511 12c-0.67254-0.0096-0.67254 1.0095 0 0.99999h0.48926v2c0 0.664-0.84785 0.99999-1.5 0.99999v0.99999h2.5v2.5l0.48828 0.5 0.51172-0.5v-2.5h2.5v-0.99999c-0.65214 0-1.5279-0.33658-1.5-0.99999v-2h0.48926c0.67254 0.0095 0.67254-1.0095 0-0.99999z" fill="currentColor"/>
 </g>
 <g id="window-pin" transform="translate(-8 -74)">
  <rect x="8" y="42" width="32" height="32" opacity=".001"/>
  <path class="ColorScheme-Text" d="m18.559 45c-2.1017-0.02986-2.1017 3.0297 0 2.9998h1.441v4.8126c0 2.075-2.962 3.1874-4.9999 3.1874v3h7.9999v9.4375l1.5 1.5625 1.5-1.5625v-9.4375h8v-3c-2.0379 0-5.0871-1.1142-5-3.1874v-4.8126h1.391c2.1017 0.02986 2.1017-3.0297 0-2.9998z" fill="currentColor"/>
 </g>
 <g id="8-8-window-pin" transform="translate(58,-20)">
  <rect x="12" y="12" width="8" height="8" opacity=".001"/>
  <path class="ColorScheme-Text" d="m13.511 12c-0.67254-0.0096-0.67254 1.0095 0 0.99999h0.48926v2c0 0.664-0.84785 0.99999-1.5 0.99999v0.99999h2.5v2.5l0.48828 0.5 0.51172-0.5v-2.5h2.5v-0.99999c-0.65214 0-1.5279-0.33658-1.5-0.99999v-2h0.48926c0.67254 0.0095 0.67254-1.0095 0-0.99999z" fill="currentColor"/>
 </g>
</svg>
