<?xml version="1.0" encoding="UTF-8"?>
<svg width="24" height="24" version="1.1" xmlns="http://www.w3.org/2000/svg">
 <g transform="translate(0,2)">
  <rect width="22" height="22" opacity=".001"/>
  <circle cx="12" cy="10" r="12" opacity=".07"/>
  <path d="m8.0031 6.0002h0.99961c0.010366-1.2e-4 0.020782-4.6e-4 0.031238 0 0.25485 0.0112 0.50967 0.12858 0.68723 0.31249l2.2804 2.2812 2.3116-2.2812c0.26552-0.23049 0.4465-0.30549 0.68723-0.31249h0.99961v0.99997c0 0.28646-0.03433 0.55063-0.2499 0.74998l-2.2804 2.2812 2.2491 2.2499c0.18811 0.18816 0.28113 0.45344 0.28114 0.71873v0.99997h-0.99961c-0.2652-1e-5 -0.53038-0.0931-0.71847-0.28124l-2.2804-2.2812-2.2804 2.2812c-0.18809 0.18818-0.45328 0.28124-0.71847 0.28124h-0.99961v-0.99997c-2.9e-6 -0.26528 0.093024-0.53056 0.28114-0.71873l2.2804-2.2499-2.2804-2.2812c-0.21066-0.19462-0.30304-0.46924-0.28114-0.74998z" fill="#676767"/>
 </g>
</svg>
