<?xml version="1.0" encoding="UTF-8"?>
<svg width="228" height="84" version="1" xmlns="http://www.w3.org/2000/svg">
 <rect id="center" x="7" y="27" width="50" height="50" fill="#1e1e1e"/>
 <g id="topleft" transform="translate(-183 -232)">
  <path d="m190 252v7h-7v-2c0-2.77 2.23-5 5-5z" fill="#1e1e1e"/>
 </g>
 <g id="left" transform="translate(-183 -232)">
  <path d="m183 259v50l7 1e-5v-50z" fill="#1e1e1e"/>
 </g>
 <g id="right" transform="translate(-183 -232)">
  <path d="m247 259v50l-7 1e-5v-50z" fill="#1e1e1e"/>
 </g>
 <g id="bottomleft" transform="translate(-183 -232)">
  <path d="m190 316v-7h-7v2c0 2.77 2.23 5 5 5z" fill="#1e1e1e"/>
 </g>
 <g id="bottom" transform="translate(-183 -232)">
  <path d="m190 316h50v-7h-50z" fill="#1e1e1e"/>
 </g>
 <g id="bottomright" transform="translate(-183 -232)">
  <path d="m240 316v-7h7v2c0 2.77-2.23 5-5 5z" fill="#1e1e1e"/>
 </g>
 <g id="topright" transform="translate(-183 -232)">
  <path d="m240 252v7h7v-2c0-2.77-2.23-5-5-5z" fill="#1e1e1e"/>
 </g>
 <g id="top" transform="translate(-183 -232)">
  <path d="m190 252h50v7h-50z" fill="#1e1e1e"/>
 </g>
 <rect id="hint-top-margin" x="29" y="27" width="4" height="7" fill="#f0f"/>
 <rect id="hint-bottom-margin" x="29" y="70" width="4" height="7" fill="#f0f"/>
 <rect id="hint-left-margin" x="7" y="49" width="7" height="4" fill="#f0f"/>
 <rect id="hint-right-margin" x="50" y="49" width="7" height="4" fill="#f0f"/>
 <rect id="hint-tile-center" y="2" width="5" height="5" fill="#f0f"/>
 <rect id="mask-center" x="79" y="20" width="50" height="50"/>
 <path id="mask-topleft" d="m79 6v14h-14v-4c0-5.54 4.46-10 10-10z"/>
 <path id="mask-left" d="m65 20v50l14 1e-5v-50z"/>
 <path id="mask-right" d="m143 20v50l-14 1e-5v-50z"/>
 <path id="mask-bottomleft" d="m79 84v-14h-14v4c0 5.54 4.46 10 10 10z"/>
 <path id="mask-bottom" d="m79 84h50v-14h-50z"/>
 <path id="mask-bottomright" d="m129 84v-14h14v4c0 5.54-4.46 10-10 10z"/>
 <path id="mask-topright" d="m129 6v14h14v-4c0-5.54-4.46-10-10-10z"/>
 <path id="mask-top" d="m79 6h50v14h-50z"/>
</svg>
