<?xml version="1.0" encoding="UTF-8"?>
<svg width="220" height="85" version="1" xmlns="http://www.w3.org/2000/svg">
 <rect id="center" x="7" y="28" width="50" height="50" fill="#121212"/>
 <g id="topleft" transform="translate(-183 -231)">
  <path d="m190 252v7h-7v-2c0-2.77 2.23-5 5-5z" fill="#121212"/>
 </g>
 <g id="left" transform="translate(-183 -231)">
  <path d="m183 259v50l7 1e-5v-50z" fill="#121212"/>
 </g>
 <g id="right" transform="translate(-183 -231)">
  <path d="m247 259v50l-7 1e-5v-50z" fill="#121212"/>
 </g>
 <g id="bottomleft" transform="translate(-183 -231)">
  <path d="m190 316v-7h-7v2c0 2.77 2.23 5 5 5z" fill="#121212"/>
 </g>
 <g id="bottom" transform="translate(-183 -231)">
  <path d="m190 316h50v-7h-50z" fill="#121212"/>
 </g>
 <g id="bottomright" transform="translate(-183 -231)">
  <path d="m240 316v-7h7v2c0 2.77-2.23 5-5 5z" fill="#121212"/>
 </g>
 <g id="topright" transform="translate(-183 -231)">
  <path d="m240 252v7h7v-2c0-2.77-2.23-5-5-5z" fill="#121212"/>
 </g>
 <g id="top" transform="translate(-183 -231)">
  <path d="m190 252h50v7h-50z" fill="#121212"/>
 </g>
 <rect id="mask-center" x="75" y="28" width="50" height="50"/>
 <path id="mask-topleft" d="m75 21v7h-7v-2c0-2.77 2.23-5 5-5z"/>
 <path id="mask-left" d="m68 28v50l7 1e-5v-50z"/>
 <path id="mask-right" d="m132 28v50l-7 1e-5v-50z"/>
 <path id="mask-bottomleft" d="m75 85v-7h-7v2c0 2.77 2.23 5 5 5z"/>
 <path id="mask-bottom" d="m75 85h50v-7h-50z"/>
 <path id="mask-bottomright" d="m125 85v-7h7v2c0 2.77-2.23 5-5 5z"/>
 <path id="mask-topright" d="m125 21v7h7v-2c0-2.77-2.23-5-5-5z"/>
 <path id="mask-top" d="m75 21h50v7h-50z"/>
 <rect id="hint-tile-center" width="5" height="5" fill="#f0f"/>
 <rect id="thick-hint-top-margin" x="29" y="21" width="4" height="8" fill="#f0f"/>
 <rect id="thick-hint-bottom-margin" x="29" y="77" width="4" height="8" fill="#f0f"/>
 <rect id="thick-hint-right-margin" transform="rotate(90)" x="51" y="-64" width="4" height="8" fill="#f0f"/>
 <rect id="thick-hint-left-margin" transform="rotate(90)" x="51" y="-8" width="4" height="8" fill="#f0f"/>
 <rect id="thick-center" x="5" width="2" height="2" fill="#800080"/>
 <rect id="hint-top-margin" x="29" y="21" width="4" height="4" fill="#800080"/>
 <rect id="hint-bottom-margin" x="29" y="81" width="4" height="4" fill="#800080"/>
 <rect id="hint-left-margin" y="51" width="4" height="4" fill="#800080"/>
 <rect id="hint-right-margin" x="60" y="51" width="4" height="4" fill="#800080"/>
</svg>
