<?xml version="1.0" encoding="UTF-8"?>
<svg width="24" height="24" version="1.1" xmlns="http://www.w3.org/2000/svg">
 <g id="active-center" transform="matrix(1.0909 0 0 -1.0909 0 24)">
  <rect width="22" height="22" opacity=".001"/>
  <path d="m11 7.3333c1.5278 1.8333 3.0556 3.6667 4.5833 5.5h-9.1667c1.5278-1.8333 3.0556-3.6667 4.5833-5.5z" fill="#dfdfdf"/>
 </g>
 <g id="hover-center" transform="matrix(1.0909 0 0 -1.0909 -1.0909 24)">
  <rect x="23" width="22" height="22" opacity=".001"/>
  <circle cx="34" cy="11" r="11" fill="#fff" opacity=".08"/>
  <path d="m34 7.3333 4.5833 5.5h-9.1667z" fill="#dfdfdf"/>
 </g>
 <g id="pressed-center" transform="matrix(1.0909 0 0 -1.0909 -2.1818 24)">
  <rect x="46" width="22" height="22" opacity=".001"/>
  <circle cx="57" cy="11" r="11" fill="#fff" opacity=".19"/>
  <path d="m57 7.3333c1.5278 1.8333 3.0556 3.6667 4.5833 5.5h-9.1667c1.5278-1.8333 3.0556-3.6667 4.5833-5.5z" fill="#dfdfdf"/>
 </g>
 <g id="inactive-center" transform="matrix(1.0909 0 0 -1.0909 -3.2727 24)">
  <rect x="69" width="22" height="22" opacity=".001"/>
  <path d="m80 7.3333c1.5278 1.8333 3.0556 3.6667 4.5833 5.5h-9.1667c1.5278-1.8333 3.0556-3.6667 4.5833-5.5z" fill="#dfdfdf" opacity=".5"/>
 </g>
 <g id="deactivated-center" transform="matrix(1.0909 0 0 -1.0909 -4.3636 24)">
  <rect x="92" width="22" height="22" opacity=".001"/>
  <path d="m103 7.3333 4.5833 5.5h-9.1667z" fill="#dfdfdf" opacity=".5"/>
 </g>
</svg>
