<?xml version="1.0" encoding="UTF-8"?>
<svg width="228" height="84" version="1" xmlns="http://www.w3.org/2000/svg" xmlns:xlink="http://www.w3.org/1999/xlink">
 <defs id="materia">
  <linearGradient id="linearGradient917">
   <stop stop-opacity=".30196" offset="0"/>
   <stop stop-opacity="0" offset="1"/>
  </linearGradient>
  <radialGradient id="radialGradient4263" cx="984" cy="905.36" r="8.5" gradientTransform="matrix(-1.6471 3.9528e-6 -3.9529e-6 -1.6471 1781.7 1558.2)" gradientUnits="userSpaceOnUse" xlink:href="#linearGradient917"/>
  <radialGradient id="radialGradient4255" cx="982.91" cy="906.45" r="8.5" gradientTransform="matrix(1.6471 9.1966e-6 -9.1957e-6 1.6469 -1407.9 -1475.9)" gradientUnits="userSpaceOnUse" xlink:href="#linearGradient917"/>
  <linearGradient id="linearGradient4259" x1="83.6" x2="83.6" y1="-969.36" y2="-955.36" gradientTransform="matrix(.71429 0 0 1 -317.71 1250.4)" gradientUnits="userSpaceOnUse" xlink:href="#linearGradient917"/>
  <linearGradient id="linearGradient4452" x1="-260" x2="-260" y1="281" y2="295" gradientUnits="userSpaceOnUse" xlink:href="#linearGradient917"/>
  <radialGradient id="radialGradient3382" cx="984" cy="905.36" r="8.5" gradientTransform="matrix(2.1649e-6 1.6472 -1.647 2.1647e-6 1702.2 -1553.8)" gradientUnits="userSpaceOnUse" xlink:href="#linearGradient917"/>
  <radialGradient id="radialGradient4275" cx="984" cy="905.36" r="8.5" gradientTransform="matrix(7.623e-6 -1.6469 1.647 7.6235e-6 -1330.2 1637.6)" gradientUnits="userSpaceOnUse" xlink:href="#linearGradient917"/>
  <linearGradient id="linearGradient4315" x1="83.6" x2="83.6" y1="-969.36" y2="-955.36" gradientTransform="matrix(.71429 0 0 1 -317.71 1250.4)" gradientUnits="userSpaceOnUse" xlink:href="#linearGradient917"/>
  <linearGradient id="linearGradient4317" x1="83.6" x2="83.6" y1="-969.36" y2="-955.36" gradientTransform="matrix(.71429 0 0 1 -317.71 1250.4)" gradientUnits="userSpaceOnUse" xlink:href="#linearGradient917"/>
  <style id="current-color-scheme" type="text/css">.ColorScheme-Background {color:#181818; } .ColorScheme-ButtonBackground { color:#343434; } .ColorScheme-Highlight { color:#4285f4; } .ColorScheme-Text { color:#dfdfdf; } .ColorScheme-ViewBackground { color:#242424; } .ColorScheme-NegativeText { color:#f44336; } .ColorScheme-PositiveText { color:#4caf50; } .ColorScheme-NeutralText { color:#ff9800; }</style>
 </defs>
 <g id="center">
  <rect class="ColorScheme-ViewBackground" x="7" y="27" width="50" height="50" fill="currentColor"/>
 </g>
 <g id="topleft" transform="translate(-183 -232)">
  <path class="ColorScheme-ViewBackground" d="m190 252v7h-7v-2c0-2.77 2.23-5 5-5z" fill="currentColor"/>
 </g>
 <g id="left" transform="translate(-183 -232)">
  <path class="ColorScheme-ViewBackground" d="m183 259v50l7 1e-5v-50z" fill="currentColor"/>
 </g>
 <g id="right" transform="translate(-183 -232)">
  <path class="ColorScheme-ViewBackground" d="m247 259v50l-7 1e-5v-50z" fill="currentColor"/>
 </g>
 <g id="bottomleft" transform="translate(-183 -232)">
  <path class="ColorScheme-ViewBackground" d="m190 316v-7h-7v2c0 2.77 2.23 5 5 5z" fill="currentColor"/>
 </g>
 <g id="bottom" transform="translate(-183 -232)">
  <path class="ColorScheme-ViewBackground" d="m190 316h50v-7h-50z" fill="currentColor"/>
 </g>
 <g id="bottomright" transform="translate(-183 -232)">
  <path class="ColorScheme-ViewBackground" d="m240 316v-7h7v2c0 2.77-2.23 5-5 5z" fill="currentColor"/>
 </g>
 <g id="topright" transform="translate(-183 -232)">
  <path class="ColorScheme-ViewBackground" d="m240 252v7h7v-2c0-2.77-2.23-5-5-5z" fill="currentColor"/>
 </g>
 <g id="top" transform="translate(-183 -232)">
  <path class="ColorScheme-ViewBackground" d="m190 252h50v7h-50z" fill="currentColor"/>
 </g>
 <rect id="hint-top-margin" x="29" y="27" width="4" height="7" fill="#f0f"/>
 <rect id="hint-bottom-margin" x="29" y="70" width="4" height="7" fill="#f0f"/>
 <rect id="hint-left-margin" x="7" y="49" width="7" height="4" fill="#f0f"/>
 <rect id="hint-right-margin" x="50" y="49" width="7" height="4" fill="#f0f"/>
 <rect id="hint-tile-center" y="2" width="5" height="5" fill="#f0f"/>
 <path id="shadow-topleft" d="m144 16.999h10v-2c0-2.77 2.23-5 5-5h2v-10h-17z" fill="url(#radialGradient4275)"/>
 <g id="shadow-left" transform="matrix(-1 0 0 1 442 -240)">
  <rect transform="rotate(-90)" x="-307" y="288" width="50" height="10" fill="url(#linearGradient4315)"/>
  <rect transform="translate(3,2)" x="278" y="257" width="7" height="1" opacity="0"/>
 </g>
 <path id="shadow-bottomright" d="m228 66.999h-10v2c0 2.77-2.23 5-5 5h-2v10h17z" fill="url(#radialGradient3382)"/>
 <g id="shadow-bottom" transform="rotate(90 341 127)">
  <rect transform="rotate(-90)" x="-307" y="288" width="50" height="10" fill="url(#linearGradient4317)"/>
  <rect transform="translate(3,2)" x="278" y="257" width="7" height="1" opacity="0"/>
 </g>
 <g id="shadow-right" transform="translate(-70 -240)">
  <rect transform="rotate(-90)" x="-307" y="288" width="50" height="10" fill="url(#linearGradient4452)"/>
  <rect transform="translate(3,2)" x="278" y="257" width="7" height="1" opacity="0"/>
 </g>
 <g id="shadow-top" transform="matrix(0 -1 -1 0 468 298)">
  <rect transform="rotate(-90)" x="-307" y="288" width="50" height="10" fill="url(#linearGradient4259)"/>
  <rect transform="translate(3,2)" x="278" y="257" width="7" height="1" opacity="0"/>
 </g>
 <path id="shadow-topright" d="m211-0.0010354v10h2c2.77 0 5 2.23 5 5v2h10v-17z" fill="url(#radialGradient4255)"/>
 <path id="shadow-bottomleft" d="m161 83.999v-10h-2c-2.77 0-5-2.23-5-5v-2h-10v17z" fill="url(#radialGradient4263)"/>
 <rect id="shadow-hint-right-margin" x="218" y="40" width="10" height="4" fill="#f0f"/>
 <rect id="shadow-hint-bottom-margin" x="184" y="74" width="4" height="10" fill="#f0f"/>
 <rect id="shadow-hint-left-margin" x="144" y="40" width="10" height="4" fill="#f0f"/>
 <rect id="shadow-hint-top-margin" x="185" width="4" height="10" fill="#f0f"/>
 <rect id="mask-center" x="79" y="20" width="50" height="50"/>
 <path id="mask-topleft" d="m79 6v14h-14v-4c0-5.54 4.46-10 10-10z"/>
 <path id="mask-left" d="m65 20v50l14 1e-5v-50z"/>
 <path id="mask-right" d="m143 20v50l-14 1e-5v-50z"/>
 <path id="mask-bottomleft" d="m79 84v-14h-14v4c0 5.54 4.46 10 10 10z"/>
 <path id="mask-bottom" d="m79 84h50v-14h-50z"/>
 <path id="mask-bottomright" d="m129 84v-14h14v4c0 5.54-4.46 10-10 10z"/>
 <path id="mask-topright" d="m129 6v14h14v-4c0-5.54-4.46-10-10-10z"/>
 <path id="mask-top" d="m79 6h50v14h-50z"/>
 <rect id="shadow-center" x="161" y="17.06" width="50" height="50" fill="none"/>
</svg>
